<svg xmlns="http://www.w3.org/2000/svg" xmlns:xlink="http://www.w3.org/1999/xlink" viewBox="0 0 200.64 250"><defs><style>.e34ea7be-c407-4f03-a8a6-e1c5ce68eea8{fill:none;}.a27cb657-6e82-452a-a191-fda62d6808ca{isolation:isolate;}.b4f2bca9-091e-45a2-a605-e64a499e0e76{clip-path:url(#adae19f6-b058-4583-bb90-00b41246b5e4);}.b6383535-9786-40fc-92cc-212bd591131c{fill:#231009;}.a0cf74b6-2749-4c75-a50b-499938dbb843,.a3096db6-e9d1-44ef-b96f-4cf59434cf81,.a3b86e93-81d5-498f-a37a-9575330150f1,.a483657a-7775-4f1f-8077-5f84497e8b1d,.a54155a0-1b25-4e26-9fe9-858f62e100c4,.a568bfac-33f5-47e5-b26a-fc32997c7a1b,.a6810dec-c49d-4748-bacd-25e848bbaf27,.a685f84c-fb7f-4f0f-8648-b75f995e5528,.a691be4f-4e18-494d-84bc-dfb1ae12a6c6,.a877f8f4-60ec-4576-830f-4cd49d882392,.a9407a95-9c6a-4e17-848c-5951e8ec2ae7,.a96f736e-c28b-47de-824f-28ceab07e69b,.aa36b970-d6d7-4779-9460-241db8f58203,.ab95da50-540a-413a-8311-b80d136e8296,.aed29904-de02-43db-829e-7ad87737ce22,.af3c6f03-821f-4068-8cdf-95ea430d77ac,.af8908f6-1909-41f6-b358-ed4f37c4946c,.afd8fc44-c2db-43cc-8b92-ca5e251e97ca,.b16a4f7b-ef4b-4127-b5ab-94c5bb892aa3,.b29e88f1-d71e-4d57-b929-0c61b818ada9,.b3321b73-8c1a-4efe-bdf6-5bd00f36f63b,.b3ffa3a2-4905-4538-92d0-68318aee9596,.b40359ae-9034-4cc7-a021-50dc53a55471,.b409458b-98f5-4c7e-89e5-086b46bf7f4e,.b53387d7-c79b-4cde-9f6c-671976488713,.b6d15d86-675f-4d37-9a51-5a8deb7b581d,.b7a7a76d-e175-4b60-bb96-bd8ed442ae2c,.b7e9bdd4-f9f5-4a98-adbe-60795696a682,.b7fa4e1a-7427-4fb4-87a0-edb82e3dd8d3,.b80e0d7d-0ef1-4174-8160-946624052637,.b8b60204-d398-4de6-afdf-a561ccc75384,.b9372a10-bd08-4ad7-ab2f-44e0913e37ae,.bad07899-b34c-4069-ae48-7d5181f83352,.bbf8ec0a-7c2b-42f8-bab5-03e35c734cf0,.bd9f972a-84f8-494a-bf3c-5c442f682ed2,.be5ab70c-745d-49d0-bf9a-959dc93202c9,.be7b1d53-912c-404b-a408-d3c0761ac8ad,.e082af43-19a8-4fa1-9087-9e965cac590d,.e3920d4d-45d2-413b-839b-299af55d8560,.e48f5313-ef96-4a96-b96f-8de2b8762db1,.e4e45fc3-2fdb-47a3-adc0-fbc75fabedcb,.e8f3b23b-1f0e-497f-bcbf-22fda8d9b4f6,.ec317146-066f-45fd-8fe4-f2daad6dde30,.ee0ff250-206c-422b-9688-332f07726166,.f129b8f2-79da-4177-8b6f-b355e8db8171,.f1bcdf01-7066-4c16-a980-c104e23ca411,.f5734dc5-b560-4529-8e81-142ca0ffc380,.f5963e5a-4012-4ab1-a5f9-0fd9899f9b31,.fab90056-cf46-4241-9d94-1fdb53a564e2,.fad656db-ed41-4ce7-a9a3-2175266a6766,.fc489e42-d0f5-40c2-9c86-c9b07872b438,.fe1003ed-9305-43fb-95a0-c80cad2246ec,.fe4ee834-d1ec-412a-9950-7b4e4e442a9b,.fe528279-f75e-4a6d-b03d-e20abce85596{mix-blend-mode:screen;}.f129b8f2-79da-4177-8b6f-b355e8db8171{fill:url(#ff386307-2388-4062-8fcb-ba91ae552d7d);}.e8f3b23b-1f0e-497f-bcbf-22fda8d9b4f6{fill:url(#bfc1a2b2-c01c-4bc3-99db-d572bfcf124c);}.a483657a-7775-4f1f-8077-5f84497e8b1d{fill:url(#b0d8a90e-8bb2-4ddc-a2f9-4dbe35d6cee0);}.af8908f6-1909-41f6-b358-ed4f37c4946c{fill:url(#b5c82fb5-c235-4696-a331-fda2d04e3a98);}.aed29904-de02-43db-829e-7ad87737ce22{fill:url(#ba7026fc-e9de-4268-9e2f-c97ed9fa8523);}.fe528279-f75e-4a6d-b03d-e20abce85596{fill:url(#a79ae4af-2961-4dc7-8de5-de9350d604c8);}.f5963e5a-4012-4ab1-a5f9-0fd9899f9b31{fill:url(#e0118312-2dd0-4cd1-8cc1-a7f15eb5d60d);}.afd8fc44-c2db-43cc-8b92-ca5e251e97ca{fill:url(#b82d5263-8a29-472b-a1b7-dd1589fb4b00);}.be94d68f-cd8c-49bf-876e-893fc04357ce{fill:#fff;}.ee0ff250-206c-422b-9688-332f07726166{fill:url(#bfc0f97a-b5a9-4616-9dc4-853070262944);}.a568bfac-33f5-47e5-b26a-fc32997c7a1b{fill:url(#a7f956e7-38a7-4442-9d13-f6ee997b6ebd);}.a3b86e93-81d5-498f-a37a-9575330150f1{fill:url(#e0d58b40-4317-4ec9-a271-95415f434cc8);}.e48f5313-ef96-4a96-b96f-8de2b8762db1{fill:url(#ac82638d-0858-423a-ab08-566b08938171);}.fe4ee834-d1ec-412a-9950-7b4e4e442a9b{fill:url(#b4d54284-13a2-4c7f-9ad5-7430bb1bcf0a);}.b6d15d86-675f-4d37-9a51-5a8deb7b581d{fill:url(#ea4c5c4c-de7d-479e-8c2d-de6b3e329c73);}.b0640135-69d5-420c-a6e5-d2caf28281bf{fill:#ffe7af;}.a691be4f-4e18-494d-84bc-dfb1ae12a6c6{fill:url(#b9e46f19-3e95-4f9c-a972-f79391bac777);}.b29e88f1-d71e-4d57-b929-0c61b818ada9{fill:url(#a5408f8b-929b-442b-a00b-c6150d8063e5);}.b3ffa3a2-4905-4538-92d0-68318aee9596{fill:url(#b79261ab-dea3-4096-a58b-e6ca24298113);}.a9407a95-9c6a-4e17-848c-5951e8ec2ae7{fill:url(#b0876564-4b4f-4bea-ba7b-c5245b1f5f18);}.f1bcdf01-7066-4c16-a980-c104e23ca411{fill:url(#bfafa73b-648d-4238-a0c1-b07586f07c33);}.b53387d7-c79b-4cde-9f6c-671976488713{fill:url(#b2406914-299f-43ac-b642-b7cdecd94d56);}.bbf8ec0a-7c2b-42f8-bab5-03e35c734cf0{fill:url(#ad7a8130-a81d-4e9f-b356-f279a825f840);}.af3c6f03-821f-4068-8cdf-95ea430d77ac{fill:url(#fd6b3aff-be98-4286-b136-7dab84a9fa5a);}.a54155a0-1b25-4e26-9fe9-858f62e100c4{fill:url(#af4b105e-371e-4a17-bcc9-7a8fb8f80ef6);}.a96f736e-c28b-47de-824f-28ceab07e69b{fill:url(#ad26f65b-2781-4415-b526-a64814ba9fe5);}.be7b1d53-912c-404b-a408-d3c0761ac8ad{fill:url(#f9e26734-dd7a-45f8-afbd-d64ca4096355);}.ec317146-066f-45fd-8fe4-f2daad6dde30{fill:url(#a561994d-0f06-4628-b72f-79766bc7bef6);}.e3920d4d-45d2-413b-839b-299af55d8560{fill:url(#e88ea7ec-378c-44d3-afe9-1317491ad5d4);}.b7fa4e1a-7427-4fb4-87a0-edb82e3dd8d3{fill:url(#ee05f393-c5a5-48dd-86fd-666acdd5751a);}.fab90056-cf46-4241-9d94-1fdb53a564e2{fill:url(#ba3ae091-2315-48ea-9173-bafaee4d86df);}.f5734dc5-b560-4529-8e81-142ca0ffc380{fill:url(#a6c15ddb-d713-4a4f-abdb-7200d9a411a7);}.a0cf74b6-2749-4c75-a50b-499938dbb843{fill:url(#a713594a-8273-4fdf-9fbd-1f5df29b7724);}.b3321b73-8c1a-4efe-bdf6-5bd00f36f63b{fill:url(#b7b2b9ee-c9f0-40f8-bb4f-f05d2cc0f69c);}.ab95da50-540a-413a-8311-b80d136e8296{fill:url(#ebc1a2b2-ed0c-4fc8-9bd2-610ec455818e);}.bd9f972a-84f8-494a-bf3c-5c442f682ed2{fill:url(#b0a391cf-208e-4fb0-bae4-862ddbd5f9f2);}.a3096db6-e9d1-44ef-b96f-4cf59434cf81{fill:url(#f98c284b-96d2-4fd4-8ef5-fe480f00daec);}.e082af43-19a8-4fa1-9087-9e965cac590d{fill:url(#b1683250-e2af-4d15-af08-dd29d541fe18);}.be5ab70c-745d-49d0-bf9a-959dc93202c9{fill:url(#bbc0c559-c3d4-44a9-922e-bcae5c8672b9);}.b80e0d7d-0ef1-4174-8160-946624052637{fill:url(#ffcf4c0b-d630-44b5-84a8-bd73f74f9388);}.b409458b-98f5-4c7e-89e5-086b46bf7f4e{fill:url(#b54fbf96-5a03-4edf-beaf-cf16fee2492c);}.a877f8f4-60ec-4576-830f-4cd49d882392{fill:url(#f57af0c1-2379-490b-9304-29016ebb3a51);}.b40359ae-9034-4cc7-a021-50dc53a55471{fill:url(#a9e87b7a-301e-475f-8df9-999675ec79bb);}.b16a4f7b-ef4b-4127-b5ab-94c5bb892aa3{fill:url(#e464d698-d615-4db0-869f-401964cf2f1a);}.bad07899-b34c-4069-ae48-7d5181f83352{fill:url(#a029574b-e2f0-4a17-b0b7-ba71253f148d);}.fe1003ed-9305-43fb-95a0-c80cad2246ec{fill:url(#a5e884d2-87b6-46d0-8549-b8ffcaeff8b1);}.a685f84c-fb7f-4f0f-8648-b75f995e5528{fill:url(#b9e693cf-ac5c-4bc7-af68-fb08015704c5);}.fc489e42-d0f5-40c2-9c86-c9b07872b438{fill:url(#b7beaf14-450f-412d-b704-1ac8854a8027);}.b7e9bdd4-f9f5-4a98-adbe-60795696a682{fill:url(#abf92902-2e67-40b7-aa53-d9ce0a55cc59);}.e4e45fc3-2fdb-47a3-adc0-fbc75fabedcb{fill:url(#a7285a22-a41a-4957-8916-92da9436c923);}.b7a7a76d-e175-4b60-bb96-bd8ed442ae2c{fill:url(#f9982842-7940-48ac-a97c-170a3424ddbd);}.b8b60204-d398-4de6-afdf-a561ccc75384{fill:url(#bc3d33b0-dd09-46b4-9ecf-e7448a559cca);}.aa36b970-d6d7-4779-9460-241db8f58203{fill:url(#abc006a9-cc5d-4c19-9480-c2fdb27de5f5);}.b9372a10-bd08-4ad7-ab2f-44e0913e37ae{fill:url(#e54038c9-14d3-42d0-9f62-292184656695);}.fad656db-ed41-4ce7-a9a3-2175266a6766{fill:url(#e4ce2733-2e0d-4b3b-84a5-c4008876d84f);}.a6810dec-c49d-4748-bacd-25e848bbaf27{fill:url(#eef2502c-1a4d-4075-9879-813cf1c1674d);}.a972bdc4-8057-4f56-8b91-ac2e50ffbb5f,.f5cef0cc-ff65-4b07-a800-d1c691b8cf19{fill:#d15600;}.bc6a067f-254a-48da-8595-e05e3e427685{fill:#b44a00;}.a972bdc4-8057-4f56-8b91-ac2e50ffbb5f,.a9887e9d-b8cd-4ed3-becf-6dc79d29eda6,.bc6a067f-254a-48da-8595-e05e3e427685{mix-blend-mode:multiply;}.adb17c6d-d9a1-4ff4-bbab-cf766a856ebd{fill:#b27500;}.a9887e9d-b8cd-4ed3-becf-6dc79d29eda6{fill:#ec9a00;}.a233dfa9-ce29-420e-9231-7ad5dd2aae1f{fill:#883600;}.ab59c992-f47c-41c3-b34a-f6e809a33feb{fill:#003f91;}.b09d3889-e0b0-4a64-91cc-0b82e20b98be{fill:#0053c3;}.a0a2371f-1932-4b0a-88c1-0575a9b64156{fill:#0070ff;}.fd79717a-2467-4230-91a9-d5f8b1ec7329{fill:#2c92ff;}.a41c0197-fd13-490c-bdb2-efe6d5da5f3e{fill:#75beff;}.afb60894-7483-4d11-81a5-e52c1e6205df{fill:#c0e7ff;}.b534d5ba-31c8-4b9c-ad49-81a30ae0acca{fill:#5bafff;}.a14c6967-160c-468d-9985-a7b1135a7652{fill:#94cfff;}.a93b404d-084c-4986-917e-8538f0b818ad{fill:#dffbff;}.efc7fd8c-4bef-4ec1-8cd1-f87aac442c3f{fill:#0063e8;}.a187c030-d6f2-47bf-928c-d8ae3bd392e7{fill:#d4efff;}.a5084f3f-db51-4c54-b81c-38538e03a401{fill:#bbc6be;}.ae9a85fe-3b28-4f53-bf68-a390ad9935dc{fill:#171e28;}.b2d9a2b2-cd57-4482-97ba-385447cfcea9{fill:#5e6561;}.bf5603ee-7904-4695-9cd7-8d3653749369{fill:#88928e;}.b062d501-63e2-4c9e-aa18-4db49d9153d8{fill:#818987;}.b60706d4-eab8-40e9-beb6-689019d5a6c4{fill:#a0aca6;}.f9070c0d-8a76-42e0-9dc6-6f2eeefa2334{font-size:27.91px;fill:#963;font-family:Schwarzenberg-Regular, Schwarzenberg;}.bd1de119-e295-432e-8b16-61c79104ea99{fill:#fab55f;}</style><clipPath id="adae19f6-b058-4583-bb90-00b41246b5e4"><rect class="e34ea7be-c407-4f03-a8a6-e1c5ce68eea8" y="0.11" width="200.64" height="249.89"/></clipPath><radialGradient id="ff386307-2388-4062-8fcb-ba91ae552d7d" cx="102.92" cy="158.93" r="181.97" gradientUnits="userSpaceOnUse"><stop offset="0" stop-color="#ffe8aa"/><stop offset="0.51" stop-color="#603c00"/><stop offset="0.68" stop-color="#251300"/><stop offset="1"/></radialGradient><radialGradient id="bfc1a2b2-c01c-4bc3-99db-d572bfcf124c" cx="102.92" cy="158.93" r="315.87" gradientUnits="userSpaceOnUse"><stop offset="0" stop-color="#603c00"/><stop offset="0.68" stop-color="#251300"/><stop offset="1"/></radialGradient><radialGradient id="b0d8a90e-8bb2-4ddc-a2f9-4dbe35d6cee0" cx="644.84" cy="-112.49" r="2.91" gradientTransform="matrix(0.12, -0.39, -0.42, -0.11, 72.35, 361.52)" gradientUnits="userSpaceOnUse"><stop offset="0" stop-color="#fff"/><stop offset="0.06" stop-color="#ffae00"/><stop offset="0.13" stop-color="#dd8e00"/><stop offset="0.2" stop-color="#b17300"/><stop offset="0.28" stop-color="#895700"/><stop offset="0.37" stop-color="#664000"/><stop offset="0.43" stop-color="#543400"/><stop offset="0.51" stop-color="#3d2400"/><stop offset="0.63" stop-color="#201100"/><stop offset="0.73" stop-color="#0c0500"/><stop offset="0.84" stop-color="#010000"/><stop offset="1"/></radialGradient><radialGradient id="b5c82fb5-c235-4696-a331-fda2d04e3a98" cx="559.71" cy="-112.24" r="2.91" xlink:href="#b0d8a90e-8bb2-4ddc-a2f9-4dbe35d6cee0"/><radialGradient id="ba7026fc-e9de-4268-9e2f-c97ed9fa8523" cx="670" cy="-105.52" r="2.91" xlink:href="#b0d8a90e-8bb2-4ddc-a2f9-4dbe35d6cee0"/><radialGradient id="a79ae4af-2961-4dc7-8de5-de9350d604c8" cx="592.7" cy="-68.48" r="2.91" xlink:href="#b0d8a90e-8bb2-4ddc-a2f9-4dbe35d6cee0"/><radialGradient id="e0118312-2dd0-4cd1-8cc1-a7f15eb5d60d" cx="605.49" cy="-103.18" r="2.91" xlink:href="#b0d8a90e-8bb2-4ddc-a2f9-4dbe35d6cee0"/><radialGradient id="b82d5263-8a29-472b-a1b7-dd1589fb4b00" cx="540.53" cy="-123.33" r="2.91" xlink:href="#b0d8a90e-8bb2-4ddc-a2f9-4dbe35d6cee0"/><radialGradient id="bfc0f97a-b5a9-4616-9dc4-853070262944" cx="875.94" cy="-45.91" r="2.91" xlink:href="#b0d8a90e-8bb2-4ddc-a2f9-4dbe35d6cee0"/><radialGradient id="a7f956e7-38a7-4442-9d13-f6ee997b6ebd" cx="790.81" cy="-45.65" r="2.91" xlink:href="#b0d8a90e-8bb2-4ddc-a2f9-4dbe35d6cee0"/><radialGradient id="e0d58b40-4317-4ec9-a271-95415f434cc8" cx="901.1" cy="-38.93" r="2.91" xlink:href="#b0d8a90e-8bb2-4ddc-a2f9-4dbe35d6cee0"/><radialGradient id="ac82638d-0858-423a-ab08-566b08938171" cx="823.8" cy="-1.89" r="2.91" xlink:href="#b0d8a90e-8bb2-4ddc-a2f9-4dbe35d6cee0"/><radialGradient id="b4d54284-13a2-4c7f-9ad5-7430bb1bcf0a" cx="836.59" cy="-36.59" r="2.91" xlink:href="#b0d8a90e-8bb2-4ddc-a2f9-4dbe35d6cee0"/><radialGradient id="ea4c5c4c-de7d-479e-8c2d-de6b3e329c73" cx="771.63" cy="-56.74" r="2.91" xlink:href="#b0d8a90e-8bb2-4ddc-a2f9-4dbe35d6cee0"/><radialGradient id="b9e46f19-3e95-4f9c-a972-f79391bac777" cx="134.35" cy="-482.14" r="2.91" gradientTransform="matrix(0.12, 0.39, -0.42, 0.11, -176.5, 67.74)" xlink:href="#b0d8a90e-8bb2-4ddc-a2f9-4dbe35d6cee0"/><radialGradient id="a5408f8b-929b-442b-a00b-c6150d8063e5" cx="49.22" cy="-481.89" r="2.91" gradientTransform="matrix(0.12, 0.39, -0.42, 0.11, -176.5, 67.74)" xlink:href="#b0d8a90e-8bb2-4ddc-a2f9-4dbe35d6cee0"/><radialGradient id="b79261ab-dea3-4096-a58b-e6ca24298113" cx="-57.12" cy="-387.3" r="2.91" gradientTransform="matrix(-0.07, 0.4, -0.43, -0.07, -113.04, 74.45)" xlink:href="#b0d8a90e-8bb2-4ddc-a2f9-4dbe35d6cee0"/><radialGradient id="b0876564-4b4f-4bea-ba7b-c5245b1f5f18" cx="159.51" cy="-475.16" r="2.91" gradientTransform="matrix(0.12, 0.39, -0.42, 0.11, -176.5, 67.74)" xlink:href="#b0d8a90e-8bb2-4ddc-a2f9-4dbe35d6cee0"/><radialGradient id="bfafa73b-648d-4238-a0c1-b07586f07c33" cx="75.89" cy="-559.75" r="2.91" gradientTransform="matrix(0.12, 0.39, -0.42, 0.11, -176.5, 67.74)" xlink:href="#b0d8a90e-8bb2-4ddc-a2f9-4dbe35d6cee0"/><radialGradient id="b2406914-299f-43ac-b642-b7cdecd94d56" cx="-187.67" cy="-392.91" r="2.91" gradientTransform="matrix(-0.07, 0.4, -0.43, -0.07, -113.04, 74.45)" xlink:href="#b0d8a90e-8bb2-4ddc-a2f9-4dbe35d6cee0"/><radialGradient id="ad7a8130-a81d-4e9f-b356-f279a825f840" cx="82.21" cy="-438.13" r="2.91" gradientTransform="matrix(0.12, 0.39, -0.42, 0.11, -176.5, 67.74)" xlink:href="#b0d8a90e-8bb2-4ddc-a2f9-4dbe35d6cee0"/><radialGradient id="fd6b3aff-be98-4286-b136-7dab84a9fa5a" cx="118.07" cy="-510.53" r="2.91" gradientTransform="matrix(0.12, 0.39, -0.42, 0.11, -176.5, 67.74)" xlink:href="#b0d8a90e-8bb2-4ddc-a2f9-4dbe35d6cee0"/><radialGradient id="af4b105e-371e-4a17-bcc9-7a8fb8f80ef6" cx="95" cy="-472.83" r="2.91" gradientTransform="matrix(0.12, 0.39, -0.42, 0.11, -176.5, 67.74)" xlink:href="#b0d8a90e-8bb2-4ddc-a2f9-4dbe35d6cee0"/><radialGradient id="ad26f65b-2781-4415-b526-a64814ba9fe5" cx="30.03" cy="-492.98" r="2.91" gradientTransform="matrix(0.12, 0.39, -0.42, 0.11, -176.5, 67.74)" xlink:href="#b0d8a90e-8bb2-4ddc-a2f9-4dbe35d6cee0"/><radialGradient id="f9e26734-dd7a-45f8-afbd-d64ca4096355" cx="365.45" cy="-415.55" r="2.91" gradientTransform="matrix(0.12, 0.39, -0.42, 0.11, -176.5, 67.74)" xlink:href="#b0d8a90e-8bb2-4ddc-a2f9-4dbe35d6cee0"/><radialGradient id="a561994d-0f06-4628-b72f-79766bc7bef6" cx="280.32" cy="-415.3" r="2.91" gradientTransform="matrix(0.12, 0.39, -0.42, 0.11, -176.5, 67.74)" xlink:href="#b0d8a90e-8bb2-4ddc-a2f9-4dbe35d6cee0"/><radialGradient id="e88ea7ec-378c-44d3-afe9-1317491ad5d4" cx="180.12" cy="-426.69" r="2.91" gradientTransform="matrix(-0.07, 0.4, -0.43, -0.07, -113.04, 74.45)" xlink:href="#b0d8a90e-8bb2-4ddc-a2f9-4dbe35d6cee0"/><radialGradient id="ee05f393-c5a5-48dd-86fd-666acdd5751a" cx="390.61" cy="-408.57" r="2.91" gradientTransform="matrix(0.12, 0.39, -0.42, 0.11, -176.5, 67.74)" xlink:href="#b0d8a90e-8bb2-4ddc-a2f9-4dbe35d6cee0"/><radialGradient id="ba3ae091-2315-48ea-9173-bafaee4d86df" cx="306.99" cy="-493.16" r="2.91" gradientTransform="matrix(0.12, 0.39, -0.42, 0.11, -176.5, 67.74)" xlink:href="#b0d8a90e-8bb2-4ddc-a2f9-4dbe35d6cee0"/><radialGradient id="a6c15ddb-d713-4a4f-abdb-7200d9a411a7" cx="49.56" cy="-432.3" r="2.91" gradientTransform="matrix(-0.07, 0.4, -0.43, -0.07, -113.04, 74.45)" xlink:href="#b0d8a90e-8bb2-4ddc-a2f9-4dbe35d6cee0"/><radialGradient id="a713594a-8273-4fdf-9fbd-1f5df29b7724" cx="313.31" cy="-371.54" r="2.91" gradientTransform="matrix(0.12, 0.39, -0.42, 0.11, -176.5, 67.74)" xlink:href="#b0d8a90e-8bb2-4ddc-a2f9-4dbe35d6cee0"/><radialGradient id="b7b2b9ee-c9f0-40f8-bb4f-f05d2cc0f69c" cx="349.16" cy="-443.94" r="2.91" gradientTransform="matrix(0.12, 0.39, -0.42, 0.11, -176.5, 67.74)" xlink:href="#b0d8a90e-8bb2-4ddc-a2f9-4dbe35d6cee0"/><radialGradient id="ebc1a2b2-ed0c-4fc8-9bd2-610ec455818e" cx="326.1" cy="-406.24" r="2.91" gradientTransform="matrix(0.12, 0.39, -0.42, 0.11, -176.5, 67.74)" xlink:href="#b0d8a90e-8bb2-4ddc-a2f9-4dbe35d6cee0"/><radialGradient id="b0a391cf-208e-4fb0-bae4-862ddbd5f9f2" cx="261.13" cy="-426.39" r="2.91" gradientTransform="matrix(0.12, 0.39, -0.42, 0.11, -176.5, 67.74)" xlink:href="#b0d8a90e-8bb2-4ddc-a2f9-4dbe35d6cee0"/><radialGradient id="f98c284b-96d2-4fd4-8ef5-fe480f00daec" cx="466.54" cy="601.83" r="2.91" gradientTransform="matrix(-0.12, -0.39, 0.42, -0.11, -84.25, 361.52)" xlink:href="#b0d8a90e-8bb2-4ddc-a2f9-4dbe35d6cee0"/><radialGradient id="b1683250-e2af-4d15-af08-dd29d541fe18" cx="381.41" cy="602.09" r="2.91" gradientTransform="matrix(-0.12, -0.39, 0.42, -0.11, -84.25, 361.52)" xlink:href="#b0d8a90e-8bb2-4ddc-a2f9-4dbe35d6cee0"/><radialGradient id="bbc0c559-c3d4-44a9-922e-bcae5c8672b9" cx="709.27" cy="448.13" r="2.91" gradientTransform="matrix(0.07, -0.4, 0.43, 0.07, -147.71, 354.81)" xlink:href="#b0d8a90e-8bb2-4ddc-a2f9-4dbe35d6cee0"/><radialGradient id="ffcf4c0b-d630-44b5-84a8-bd73f74f9388" cx="491.7" cy="608.81" r="2.91" gradientTransform="matrix(-0.12, -0.39, 0.42, -0.11, -84.25, 361.52)" xlink:href="#b0d8a90e-8bb2-4ddc-a2f9-4dbe35d6cee0"/><radialGradient id="b54fbf96-5a03-4edf-beaf-cf16fee2492c" cx="408.08" cy="524.23" r="2.91" gradientTransform="matrix(-0.12, -0.39, 0.42, -0.11, -84.25, 361.52)" xlink:href="#b0d8a90e-8bb2-4ddc-a2f9-4dbe35d6cee0"/><radialGradient id="f57af0c1-2379-490b-9304-29016ebb3a51" cx="578.71" cy="442.52" r="2.91" gradientTransform="matrix(0.07, -0.4, 0.43, 0.07, -147.71, 354.81)" xlink:href="#b0d8a90e-8bb2-4ddc-a2f9-4dbe35d6cee0"/><radialGradient id="a9e87b7a-301e-475f-8df9-999675ec79bb" cx="414.4" cy="645.85" r="2.91" gradientTransform="matrix(-0.12, -0.39, 0.42, -0.11, -84.25, 361.52)" xlink:href="#b0d8a90e-8bb2-4ddc-a2f9-4dbe35d6cee0"/><radialGradient id="e464d698-d615-4db0-869f-401964cf2f1a" cx="450.26" cy="573.44" r="2.91" gradientTransform="matrix(-0.12, -0.39, 0.42, -0.11, -84.25, 361.52)" xlink:href="#b0d8a90e-8bb2-4ddc-a2f9-4dbe35d6cee0"/><radialGradient id="a029574b-e2f0-4a17-b0b7-ba71253f148d" cx="427.19" cy="611.14" r="2.91" gradientTransform="matrix(-0.12, -0.39, 0.42, -0.11, -84.25, 361.52)" xlink:href="#b0d8a90e-8bb2-4ddc-a2f9-4dbe35d6cee0"/><radialGradient id="a5e884d2-87b6-46d0-8549-b8ffcaeff8b1" cx="362.23" cy="591" r="2.91" gradientTransform="matrix(-0.12, -0.39, 0.42, -0.11, -84.25, 361.52)" xlink:href="#b0d8a90e-8bb2-4ddc-a2f9-4dbe35d6cee0"/><radialGradient id="b9e693cf-ac5c-4bc7-af68-fb08015704c5" cx="697.64" cy="668.42" r="2.91" gradientTransform="matrix(-0.12, -0.39, 0.42, -0.11, -84.25, 361.52)" xlink:href="#b0d8a90e-8bb2-4ddc-a2f9-4dbe35d6cee0"/><radialGradient id="b7beaf14-450f-412d-b704-1ac8854a8027" cx="612.51" cy="668.68" r="2.91" gradientTransform="matrix(-0.12, -0.39, 0.42, -0.11, -84.25, 361.52)" xlink:href="#b0d8a90e-8bb2-4ddc-a2f9-4dbe35d6cee0"/><radialGradient id="abf92902-2e67-40b7-aa53-d9ce0a55cc59" cx="946.5" cy="408.74" r="2.91" gradientTransform="matrix(0.07, -0.4, 0.43, 0.07, -147.71, 354.81)" xlink:href="#b0d8a90e-8bb2-4ddc-a2f9-4dbe35d6cee0"/><radialGradient id="a7285a22-a41a-4957-8916-92da9436c923" cx="722.8" cy="675.4" r="2.91" gradientTransform="matrix(-0.12, -0.39, 0.42, -0.11, -84.25, 361.52)" xlink:href="#b0d8a90e-8bb2-4ddc-a2f9-4dbe35d6cee0"/><radialGradient id="f9982842-7940-48ac-a97c-170a3424ddbd" cx="639.18" cy="590.82" r="2.91" gradientTransform="matrix(-0.12, -0.39, 0.42, -0.11, -84.25, 361.52)" xlink:href="#b0d8a90e-8bb2-4ddc-a2f9-4dbe35d6cee0"/><radialGradient id="bc3d33b0-dd09-46b4-9ecf-e7448a559cca" cx="815.94" cy="403.13" r="2.91" gradientTransform="matrix(0.07, -0.4, 0.43, 0.07, -147.71, 354.81)" xlink:href="#b0d8a90e-8bb2-4ddc-a2f9-4dbe35d6cee0"/><radialGradient id="abc006a9-cc5d-4c19-9480-c2fdb27de5f5" cx="645.5" cy="712.44" r="2.91" gradientTransform="matrix(-0.12, -0.39, 0.42, -0.11, -84.25, 361.52)" xlink:href="#b0d8a90e-8bb2-4ddc-a2f9-4dbe35d6cee0"/><radialGradient id="e54038c9-14d3-42d0-9f62-292184656695" cx="681.36" cy="640.03" r="2.91" gradientTransform="matrix(-0.12, -0.39, 0.42, -0.11, -84.25, 361.52)" xlink:href="#b0d8a90e-8bb2-4ddc-a2f9-4dbe35d6cee0"/><radialGradient id="e4ce2733-2e0d-4b3b-84a5-c4008876d84f" cx="658.29" cy="677.73" r="2.91" gradientTransform="matrix(-0.12, -0.39, 0.42, -0.11, -84.25, 361.52)" xlink:href="#b0d8a90e-8bb2-4ddc-a2f9-4dbe35d6cee0"/><radialGradient id="eef2502c-1a4d-4075-9879-813cf1c1674d" cx="593.33" cy="657.59" r="2.91" gradientTransform="matrix(-0.12, -0.39, 0.42, -0.11, -84.25, 361.52)" xlink:href="#b0d8a90e-8bb2-4ddc-a2f9-4dbe35d6cee0"/></defs><g class="a27cb657-6e82-452a-a191-fda62d6808ca"><g id="eaaff48d-d1bc-4bf9-b439-49cb81be0e22" data-name="Layer 1"><g class="b4f2bca9-091e-45a2-a605-e64a499e0e76"><rect class="b6383535-9786-40fc-92cc-212bd591131c" x="-38.35" y="6.1" width="281.67" height="247.58" transform="translate(232.38 27.41) rotate(90)"/><ellipse class="f129b8f2-79da-4177-8b6f-b355e8db8171" cx="103.29" cy="158.93" rx="182.64" ry="181.97"/><ellipse class="e8f3b23b-1f0e-497f-bcbf-22fda8d9b4f6" cx="103.29" cy="158.93" rx="317.02" ry="315.87"/><path class="a483657a-7775-4f1f-8077-5f84497e8b1d" d="M198.94,122.88a1.3,1.3,0,0,0-1.58.8,1.17,1.17,0,0,0,.87,1.46,1.3,1.3,0,0,0,1.58-.8A1.16,1.16,0,0,0,198.94,122.88Z"/><path class="af8908f6-1909-41f6-b358-ed4f37c4946c" d="M188.42,155.88a1.3,1.3,0,0,0-1.58.8,1.16,1.16,0,0,0,.87,1.46,1.3,1.3,0,0,0,1.58-.8A1.17,1.17,0,0,0,188.42,155.88Z"/><path class="aed29904-de02-43db-829e-7ad87737ce22" d="M199.08,112.33a1.3,1.3,0,0,0-1.58.8,1.17,1.17,0,0,0,.87,1.46,1.29,1.29,0,0,0,1.58-.8A1.16,1.16,0,0,0,199.08,112.33Z"/><path class="fe528279-f75e-4a6d-b03d-e20abce85596" d="M174,138.15a1.29,1.29,0,0,0-1.58.8,1.15,1.15,0,0,0,.87,1.45,1.28,1.28,0,0,0,1.58-.8A1.16,1.16,0,0,0,174,138.15Z"/><path class="f5963e5a-4012-4ab1-a5f9-0fd9899f9b31" d="M190.21,137.1a1.3,1.3,0,0,0-1.58.8,1.17,1.17,0,0,0,.87,1.46,1.3,1.3,0,0,0,1.58-.8A1.17,1.17,0,0,0,190.21,137.1Z"/><path class="afd8fc44-c2db-43cc-8b92-ca5e251e97ca" d="M190.74,164.58a1.3,1.3,0,0,0-1.58.8,1.15,1.15,0,0,0,.87,1.45,1.28,1.28,0,0,0,1.58-.8A1.16,1.16,0,0,0,190.74,164.58Z"/><path class="be94d68f-cd8c-49bf-876e-893fc04357ce" d="M160.57,178.67a.37.37,0,0,0,.35.41.39.39,0,0,0,.44-.32.38.38,0,0,0-.35-.41A.4.4,0,0,0,160.57,178.67Z"/><path class="be94d68f-cd8c-49bf-876e-893fc04357ce" d="M174.31,157.78a.38.38,0,0,0,.35.41.37.37,0,0,0,.44-.32.37.37,0,0,0-.34-.41A.41.41,0,0,0,174.31,157.78Z"/><path class="be94d68f-cd8c-49bf-876e-893fc04357ce" d="M168.37,198.79a.37.37,0,0,0,.35.41.39.39,0,0,0,.44-.32.38.38,0,0,0-.35-.41A.4.4,0,0,0,168.37,198.79Z"/><path class="be94d68f-cd8c-49bf-876e-893fc04357ce" d="M181.84,122.09a.39.39,0,0,0,.35.41.41.41,0,0,0,.45-.32.38.38,0,0,0-.35-.41A.39.39,0,0,0,181.84,122.09Z"/><path class="ee0ff250-206c-422b-9688-332f07726166" d="M199.19,25.7a1.3,1.3,0,0,0-1.58.8,1.17,1.17,0,0,0,.87,1.46,1.29,1.29,0,0,0,1.58-.8A1.16,1.16,0,0,0,199.19,25.7Z"/><path class="a568bfac-33f5-47e5-b26a-fc32997c7a1b" d="M188.67,58.7a1.3,1.3,0,0,0-1.58.81A1.16,1.16,0,0,0,188,61a1.3,1.3,0,0,0,1.58-.8A1.17,1.17,0,0,0,188.67,58.7Z"/><path class="a3b86e93-81d5-498f-a37a-9575330150f1" d="M199.33,15.15a1.3,1.3,0,0,0-1.58.8,1.17,1.17,0,0,0,.87,1.46,1.29,1.29,0,0,0,1.58-.8A1.16,1.16,0,0,0,199.33,15.15Z"/><path class="e48f5313-ef96-4a96-b96f-8de2b8762db1" d="M174.29,41a1.3,1.3,0,0,0-1.58.8,1.16,1.16,0,0,0,.87,1.46,1.3,1.3,0,0,0,1.58-.8A1.17,1.17,0,0,0,174.29,41Z"/><path class="fe4ee834-d1ec-412a-9950-7b4e4e442a9b" d="M190.46,39.92a1.3,1.3,0,0,0-1.58.8,1.17,1.17,0,0,0,.87,1.46,1.3,1.3,0,0,0,1.58-.8A1.16,1.16,0,0,0,190.46,39.92Z"/><path class="b6d15d86-675f-4d37-9a51-5a8deb7b581d" d="M191,67.4a1.3,1.3,0,0,0-1.58.8,1.16,1.16,0,0,0,.87,1.46,1.3,1.3,0,0,0,1.58-.8A1.17,1.17,0,0,0,191,67.4Z"/><path class="be94d68f-cd8c-49bf-876e-893fc04357ce" d="M160.82,81.49a.37.37,0,0,0,.35.41.37.37,0,1,0,.09-.73A.4.4,0,0,0,160.82,81.49Z"/><path class="be94d68f-cd8c-49bf-876e-893fc04357ce" d="M174.56,60.61a.39.39,0,0,0,.35.41.41.41,0,0,0,.45-.32.38.38,0,0,0-.35-.41A.39.39,0,0,0,174.56,60.61Z"/><path class="be94d68f-cd8c-49bf-876e-893fc04357ce" d="M168.62,101.61a.4.4,0,0,0,.79.09.38.38,0,0,0-.34-.41A.41.41,0,0,0,168.62,101.61Z"/><path class="be94d68f-cd8c-49bf-876e-893fc04357ce" d="M182.1,24.91a.37.37,0,0,0,.34.41.41.41,0,0,0,.45-.32.4.4,0,0,0-.79-.09Z"/><polygon class="b0640135-69d5-420c-a6e5-d2caf28281bf" points="170.05 19.02 169.92 18.6 169.48 18.45 169.88 18.21 169.89 17.77 170.26 18.05 170.72 17.93 170.54 18.34 170.81 18.7 170.34 18.68 170.05 19.02"/><polygon class="b0640135-69d5-420c-a6e5-d2caf28281bf" points="165.11 63.15 164.99 62.72 164.54 62.58 164.94 62.34 164.95 61.9 165.32 62.17 165.78 62.05 165.61 62.46 165.88 62.82 165.4 62.8 165.11 63.15"/><polygon class="b0640135-69d5-420c-a6e5-d2caf28281bf" points="159.98 5.01 159.78 4.57 159.26 4.47 159.66 4.16 159.6 3.68 160.05 3.93 160.52 3.73 160.4 4.2 160.75 4.55 160.24 4.59 159.98 5.01"/><polygon class="b0640135-69d5-420c-a6e5-d2caf28281bf" points="182.4 75.31 182.2 74.87 181.69 74.77 182.08 74.46 182.02 73.98 182.47 74.23 182.94 74.03 182.83 74.5 183.18 74.85 182.66 74.89 182.4 75.31"/><polygon class="b0640135-69d5-420c-a6e5-d2caf28281bf" points="197.08 28.39 196.88 27.95 196.37 27.86 196.76 27.54 196.7 27.07 197.15 27.31 197.62 27.11 197.5 27.58 197.85 27.94 197.34 27.98 197.08 28.39"/><polygon class="b0640135-69d5-420c-a6e5-d2caf28281bf" points="185.81 28.42 185.61 27.98 185.1 27.88 185.49 27.57 185.43 27.09 185.88 27.34 186.35 27.14 186.23 27.61 186.59 27.96 186.07 28 185.81 28.42"/><polygon class="b0640135-69d5-420c-a6e5-d2caf28281bf" points="166.6 79.22 166.9 78.47 166.4 77.82 167.26 77.85 167.77 77.21 168.01 77.97 168.83 78.23 168.11 78.67 168.1 79.47 167.43 78.98 166.6 79.22"/><polygon class="b0640135-69d5-420c-a6e5-d2caf28281bf" points="174.7 0.41 175.15 0.44 175.43 0.11 175.54 0.52 175.97 0.67 175.58 0.89 175.56 1.3 175.22 1.03 174.78 1.15 174.95 0.76 174.7 0.41"/><polygon class="b0640135-69d5-420c-a6e5-d2caf28281bf" points="157.84 16.82 158.29 16.85 158.58 16.52 158.69 16.93 159.11 17.08 158.73 17.3 158.71 17.72 158.36 17.45 157.92 17.56 158.09 17.17 157.84 16.82"/><polygon class="b0640135-69d5-420c-a6e5-d2caf28281bf" points="188.24 7.74 188.5 7.49 188.42 7.16 188.75 7.3 189.08 7.13 189.03 7.47 189.31 7.7 188.94 7.76 188.79 8.08 188.61 7.78 188.24 7.74"/><polygon class="b0640135-69d5-420c-a6e5-d2caf28281bf" points="160.75 68.36 161.01 68.12 160.93 67.78 161.27 67.93 161.59 67.75 161.54 68.09 161.82 68.32 161.45 68.39 161.3 68.7 161.12 68.4 160.75 68.36"/><polygon class="b0640135-69d5-420c-a6e5-d2caf28281bf" points="176.47 15.9 176.73 15.65 176.65 15.32 176.99 15.46 177.31 15.29 177.26 15.63 177.54 15.86 177.17 15.93 177.02 16.24 176.84 15.94 176.47 15.9"/><polygon class="b0640135-69d5-420c-a6e5-d2caf28281bf" points="166.97 2.54 167.71 2.38 167.98 1.73 168.38 2.33 169.13 2.36 168.64 2.89 168.83 3.57 168.13 3.3 167.5 3.68 167.56 2.98 166.97 2.54"/><polygon class="b0640135-69d5-420c-a6e5-d2caf28281bf" points="162.37 41.41 163.11 41.25 163.39 40.6 163.78 41.2 164.54 41.23 164.04 41.77 164.24 42.44 163.54 42.17 162.9 42.55 162.96 41.85 162.37 41.41"/><polygon class="b0640135-69d5-420c-a6e5-d2caf28281bf" points="186.38 100.87 186.48 101.3 186.92 101.47 186.51 101.69 186.47 102.13 186.12 101.83 185.66 101.94 185.85 101.53 185.6 101.16 186.07 101.21 186.38 100.87"/><polygon class="b0640135-69d5-420c-a6e5-d2caf28281bf" points="160.81 95.81 160.99 96.26 161.49 96.38 161.08 96.68 161.11 97.16 160.68 96.89 160.2 97.06 160.34 96.6 160.01 96.23 160.53 96.21 160.81 95.81"/><polygon class="b0640135-69d5-420c-a6e5-d2caf28281bf" points="169.9 95.8 170.08 96.25 170.58 96.37 170.17 96.67 170.2 97.15 169.77 96.88 169.29 97.05 169.43 96.59 169.1 96.22 169.62 96.2 169.9 95.8"/><polygon class="b0640135-69d5-420c-a6e5-d2caf28281bf" points="177.63 121.33 177.18 121.28 176.88 121.59 176.8 121.18 176.38 121.02 176.78 120.81 176.82 120.4 177.15 120.68 177.6 120.59 177.41 120.97 177.63 121.33"/><polygon class="b0640135-69d5-420c-a6e5-d2caf28281bf" points="198.68 101.54 198.23 101.49 197.93 101.8 197.84 101.39 197.43 101.22 197.83 101.02 197.87 100.6 198.2 100.89 198.65 100.8 198.45 101.18 198.68 101.54"/><polygon class="b0640135-69d5-420c-a6e5-d2caf28281bf" points="163.99 116.8 163.72 117.03 163.78 117.37 163.45 117.21 163.12 117.36 163.19 117.03 162.92 116.79 163.29 116.74 163.46 116.43 163.62 116.74 163.99 116.8"/><polygon class="b0640135-69d5-420c-a6e5-d2caf28281bf" points="178.5 108.76 178.23 109 178.29 109.33 177.96 109.17 177.63 109.33 177.69 108.99 177.43 108.75 177.8 108.7 177.97 108.4 178.13 108.71 178.5 108.76"/><polygon class="b0640135-69d5-420c-a6e5-d2caf28281bf" points="185.97 116.06 185.22 116.18 184.91 116.82 184.55 116.2 183.79 116.13 184.32 115.62 184.16 114.94 184.85 115.24 185.5 114.89 185.4 115.59 185.97 116.06"/><polygon class="b0640135-69d5-420c-a6e5-d2caf28281bf" points="194.22 147.41 194.15 146.98 193.72 146.79 194.14 146.59 194.21 146.16 194.54 146.47 195.01 146.39 194.79 146.78 195.02 147.17 194.55 147.1 194.22 147.41"/><polygon class="b0640135-69d5-420c-a6e5-d2caf28281bf" points="166.08 167.88 166.01 167.45 165.58 167.26 166.01 167.06 166.07 166.62 166.41 166.94 166.88 166.86 166.66 167.25 166.88 167.63 166.41 167.56 166.08 167.88"/><polygon class="b0640135-69d5-420c-a6e5-d2caf28281bf" points="180.29 126.25 180.14 125.8 179.65 125.65 180.08 125.38 180.07 124.89 180.49 125.19 180.98 125.04 180.81 125.49 181.12 125.88 180.6 125.86 180.29 126.25"/><polygon class="b0640135-69d5-420c-a6e5-d2caf28281bf" points="175.92 168.18 175.77 167.72 175.28 167.57 175.71 167.3 175.71 166.82 176.12 167.11 176.61 166.96 176.44 167.41 176.75 167.8 176.23 167.79 175.92 168.18"/><polygon class="b0640135-69d5-420c-a6e5-d2caf28281bf" points="174.88 188.67 175.26 187.96 174.84 187.26 175.69 187.38 176.28 186.79 176.42 187.57 177.21 187.91 176.44 188.28 176.34 189.07 175.73 188.51 174.88 188.67"/><polygon class="b0640135-69d5-420c-a6e5-d2caf28281bf" points="161.76 137.35 162.21 137.42 162.53 137.13 162.59 137.54 162.99 137.73 162.59 137.91 162.52 138.32 162.2 138.02 161.75 138.09 161.97 137.72 161.76 137.35"/><polygon class="b0640135-69d5-420c-a6e5-d2caf28281bf" points="165.7 180.32 165.98 180.09 165.94 179.75 166.26 179.93 166.6 179.79 166.51 180.13 166.76 180.38 166.39 180.41 166.21 180.71 166.06 180.39 165.7 180.32"/><polygon class="b0640135-69d5-420c-a6e5-d2caf28281bf" points="186.16 157.64 186.91 157.55 187.26 156.93 187.58 157.56 188.33 157.68 187.78 158.15 187.89 158.84 187.23 158.51 186.55 158.82 186.69 158.13 186.16 157.64"/><polygon class="b0640135-69d5-420c-a6e5-d2caf28281bf" points="169.22 133.62 169.97 133.53 170.32 132.91 170.65 133.54 171.4 133.66 170.84 134.14 170.96 134.83 170.29 134.49 169.61 134.81 169.76 134.12 169.22 133.62"/><path class="a691be4f-4e18-494d-84bc-dfb1ae12a6c6" d="M43.19,66.61a1.28,1.28,0,0,1-1.58-.8,1.16,1.16,0,0,1,.87-1.45,1.29,1.29,0,0,1,1.58.8A1.15,1.15,0,0,1,43.19,66.61Z"/><path class="b29e88f1-d71e-4d57-b929-0c61b818ada9" d="M32.67,33.61a1.3,1.3,0,0,1-1.58-.8A1.15,1.15,0,0,1,32,31.36a1.28,1.28,0,0,1,1.58.8A1.16,1.16,0,0,1,32.67,33.61Z"/><path class="b3ffa3a2-4905-4538-92d0-68318aee9596" d="M58.29,78.08a1.19,1.19,0,0,1-1-1.35,1.27,1.27,0,0,1,1.46-1,1.2,1.2,0,0,1,1.06,1.35A1.27,1.27,0,0,1,58.29,78.08Z"/><path class="a9407a95-9c6a-4e17-848c-5951e8ec2ae7" d="M43.33,77.16a1.29,1.29,0,0,1-1.58-.8,1.17,1.17,0,0,1,.87-1.45,1.28,1.28,0,0,1,1.58.8A1.15,1.15,0,0,1,43.33,77.16Z"/><path class="f1bcdf01-7066-4c16-a980-c104e23ca411" d="M68.7,35.18a1.3,1.3,0,0,1-1.58-.8A1.16,1.16,0,0,1,68,32.92a1.3,1.3,0,0,1,1.58.8A1.18,1.18,0,0,1,68.7,35.18Z"/><path class="b53387d7-c79b-4cde-9f6c-671976488713" d="M70,26.38A1.19,1.19,0,0,1,68.9,25a1.28,1.28,0,0,1,1.47-1,1.2,1.2,0,0,1,1,1.35A1.26,1.26,0,0,1,70,26.38Z"/><path class="bbf8ec0a-7c2b-42f8-bab5-03e35c734cf0" d="M18.29,51.35a1.3,1.3,0,0,1-1.58-.8,1.16,1.16,0,0,1,.87-1.46,1.3,1.3,0,0,1,1.58.8A1.17,1.17,0,0,1,18.29,51.35Z"/><path class="af3c6f03-821f-4068-8cdf-95ea430d77ac" d="M53.15,57.09a1.28,1.28,0,0,1-1.58-.8,1.15,1.15,0,0,1,.87-1.45,1.28,1.28,0,0,1,1.58.8A1.17,1.17,0,0,1,53.15,57.09Z"/><path class="a54155a0-1b25-4e26-9fe9-858f62e100c4" d="M34.46,52.4a1.3,1.3,0,0,1-1.58-.8,1.16,1.16,0,0,1,.87-1.46,1.3,1.3,0,0,1,1.58.8A1.17,1.17,0,0,1,34.46,52.4Z"/><path class="a96f736e-c28b-47de-824f-28ceab07e69b" d="M35,24.92a1.3,1.3,0,0,1-1.58-.8,1.16,1.16,0,0,1,.87-1.46,1.3,1.3,0,0,1,1.58.8A1.17,1.17,0,0,1,35,24.92Z"/><path class="be94d68f-cd8c-49bf-876e-893fc04357ce" d="M4.82,10.82a.38.38,0,0,1,.35-.41.4.4,0,0,1,.44.32.37.37,0,0,1-.35.41A.39.39,0,0,1,4.82,10.82Z"/><path class="be94d68f-cd8c-49bf-876e-893fc04357ce" d="M18.56,31.71a.4.4,0,0,1,.79-.09A.37.37,0,0,1,19,32,.4.4,0,0,1,18.56,31.71Z"/><path class="be94d68f-cd8c-49bf-876e-893fc04357ce" d="M70.05,16.23a.38.38,0,0,1,.35-.41.39.39,0,0,1,.44.32.37.37,0,0,1-.34.41A.4.4,0,0,1,70.05,16.23Z"/><path class="be94d68f-cd8c-49bf-876e-893fc04357ce" d="M72.36,67.14a.4.4,0,0,1,.79-.09.37.37,0,0,1-.34.41A.4.4,0,0,1,72.36,67.14Z"/><path class="be94d68f-cd8c-49bf-876e-893fc04357ce" d="M80.22,51.49a.36.36,0,0,1,.34-.41.39.39,0,0,1,.45.31.37.37,0,0,1-.35.41A.37.37,0,0,1,80.22,51.49Z"/><path class="be94d68f-cd8c-49bf-876e-893fc04357ce" d="M50.52,41.81a.4.4,0,0,1,.5-.24.37.37,0,0,1,.25.47.4.4,0,0,1-.5.23A.35.35,0,0,1,50.52,41.81Z"/><path class="be94d68f-cd8c-49bf-876e-893fc04357ce" d="M26.09,67.41a.38.38,0,0,1,.35-.41.4.4,0,0,1,.45.32.39.39,0,0,1-.35.41A.41.41,0,0,1,26.09,67.41Z"/><path class="be7b1d53-912c-404b-a408-d3c0761ac8ad" d="M43.44,163.79a1.3,1.3,0,0,1-1.58-.8,1.18,1.18,0,0,1,.87-1.46,1.29,1.29,0,0,1,1.58.81A1.15,1.15,0,0,1,43.44,163.79Z"/><path class="ec317146-066f-45fd-8fe4-f2daad6dde30" d="M32.92,130.79a1.3,1.3,0,0,1-1.58-.8,1.17,1.17,0,0,1,.87-1.46,1.3,1.3,0,0,1,1.58.8A1.16,1.16,0,0,1,32.92,130.79Z"/><path class="e3920d4d-45d2-413b-839b-299af55d8560" d="M58.54,175.26a1.19,1.19,0,0,1-1-1.35,1.28,1.28,0,0,1,1.47-1,1.2,1.2,0,0,1,1,1.35A1.27,1.27,0,0,1,58.54,175.26Z"/><path class="b7fa4e1a-7427-4fb4-87a0-edb82e3dd8d3" d="M43.58,174.34a1.3,1.3,0,0,1-1.58-.8,1.18,1.18,0,0,1,.87-1.46,1.29,1.29,0,0,1,1.58.8A1.16,1.16,0,0,1,43.58,174.34Z"/><path class="fab90056-cf46-4241-9d94-1fdb53a564e2" d="M69,132.35a1.28,1.28,0,0,1-1.58-.8,1.15,1.15,0,0,1,.87-1.45,1.29,1.29,0,0,1,1.58.8A1.16,1.16,0,0,1,69,132.35Z"/><path class="f5734dc5-b560-4529-8e81-142ca0ffc380" d="M70.21,123.56a1.18,1.18,0,0,1-1-1.35,1.26,1.26,0,0,1,1.46-1,1.2,1.2,0,0,1,1,1.35A1.26,1.26,0,0,1,70.21,123.56Z"/><path class="a0cf74b6-2749-4c75-a50b-499938dbb843" d="M18.54,148.53a1.29,1.29,0,0,1-1.58-.81,1.15,1.15,0,0,1,.87-1.45,1.3,1.3,0,0,1,1.58.8A1.18,1.18,0,0,1,18.54,148.53Z"/><path class="b3321b73-8c1a-4efe-bdf6-5bd00f36f63b" d="M53.4,154.27a1.29,1.29,0,0,1-1.58-.8,1.16,1.16,0,0,1,.87-1.46,1.3,1.3,0,0,1,1.58.8A1.17,1.17,0,0,1,53.4,154.27Z"/><path class="ab95da50-540a-413a-8311-b80d136e8296" d="M34.71,149.57a1.28,1.28,0,0,1-1.58-.8,1.15,1.15,0,0,1,.87-1.45,1.29,1.29,0,0,1,1.58.8A1.15,1.15,0,0,1,34.71,149.57Z"/><path class="bd9f972a-84f8-494a-bf3c-5c442f682ed2" d="M35.24,122.09a1.28,1.28,0,0,1-1.58-.8,1.15,1.15,0,0,1,.87-1.45,1.3,1.3,0,0,1,1.58.8A1.16,1.16,0,0,1,35.24,122.09Z"/><path class="be94d68f-cd8c-49bf-876e-893fc04357ce" d="M5.07,108a.38.38,0,0,1,.35-.41.4.4,0,0,1,.44.32.37.37,0,0,1-.35.41A.39.39,0,0,1,5.07,108Z"/><path class="be94d68f-cd8c-49bf-876e-893fc04357ce" d="M18.81,128.89a.38.38,0,0,1,.35-.41.4.4,0,0,1,.45.32.39.39,0,0,1-.35.41A.41.41,0,0,1,18.81,128.89Z"/><path class="be94d68f-cd8c-49bf-876e-893fc04357ce" d="M70.3,113.41a.4.4,0,0,1,.79-.09.37.37,0,0,1-.34.41A.41.41,0,0,1,70.3,113.41Z"/><path class="be94d68f-cd8c-49bf-876e-893fc04357ce" d="M72.61,164.32a.39.39,0,0,1,.35-.41.41.41,0,0,1,.45.32.39.39,0,0,1-.35.41A.4.4,0,0,1,72.61,164.32Z"/><path class="be94d68f-cd8c-49bf-876e-893fc04357ce" d="M80.47,148.66a.38.38,0,0,1,.34-.41.41.41,0,0,1,.45.32.37.37,0,0,1-.35.41A.39.39,0,0,1,80.47,148.66Z"/><path class="be94d68f-cd8c-49bf-876e-893fc04357ce" d="M50.77,139a.41.41,0,0,1,.5-.23.36.36,0,0,1,.25.47.41.41,0,0,1-.5.23A.36.36,0,0,1,50.77,139Z"/><path class="be94d68f-cd8c-49bf-876e-893fc04357ce" d="M12.87,87.88a.38.38,0,0,1,.35-.41.39.39,0,0,1,.44.32.37.37,0,0,1-.34.41A.4.4,0,0,1,12.87,87.88Z"/><path class="be94d68f-cd8c-49bf-876e-893fc04357ce" d="M26.34,164.59a.38.38,0,0,1,.35-.41.39.39,0,0,1,.45.32.39.39,0,0,1-.35.41A.41.41,0,0,1,26.34,164.59Z"/><polygon class="b0640135-69d5-420c-a6e5-d2caf28281bf" points="14.3 170.47 14.17 170.9 13.73 171.04 14.13 171.28 14.14 171.72 14.51 171.44 14.96 171.57 14.79 171.16 15.06 170.79 14.59 170.82 14.3 170.47"/><polygon class="b0640135-69d5-420c-a6e5-d2caf28281bf" points="9.36 126.35 9.24 126.77 8.79 126.92 9.19 127.16 9.2 127.6 9.57 127.32 10.03 127.44 9.86 127.03 10.13 126.67 9.65 126.7 9.36 126.35"/><polygon class="b0640135-69d5-420c-a6e5-d2caf28281bf" points="4.23 184.48 4.03 184.93 3.52 185.02 3.91 185.34 3.85 185.81 4.3 185.57 4.77 185.76 4.65 185.3 5 184.94 4.49 184.9 4.23 184.48"/><polygon class="b0640135-69d5-420c-a6e5-d2caf28281bf" points="26.65 114.18 26.45 114.63 25.94 114.72 26.33 115.04 26.27 115.51 26.72 115.27 27.19 115.46 27.08 115 27.43 114.64 26.91 114.6 26.65 114.18"/><polygon class="b0640135-69d5-420c-a6e5-d2caf28281bf" points="41.33 161.1 41.13 161.54 40.62 161.64 41.01 161.95 40.95 162.43 41.4 162.18 41.87 162.38 41.75 161.91 42.1 161.56 41.59 161.52 41.33 161.1"/><polygon class="b0640135-69d5-420c-a6e5-d2caf28281bf" points="30.06 161.08 29.86 161.52 29.35 161.62 29.74 161.93 29.68 162.41 30.13 162.16 30.6 162.36 30.48 161.89 30.84 161.53 30.32 161.49 30.06 161.08"/><polygon class="b0640135-69d5-420c-a6e5-d2caf28281bf" points="10.85 110.28 11.15 111.03 10.65 111.67 11.51 111.65 12.02 112.28 12.26 111.52 13.08 111.27 12.36 110.82 12.36 110.03 11.68 110.52 10.85 110.28"/><polygon class="b0640135-69d5-420c-a6e5-d2caf28281bf" points="18.95 189.09 19.4 189.06 19.68 189.38 19.79 188.98 20.22 188.83 19.83 188.61 19.81 188.19 19.47 188.46 19.03 188.35 19.2 188.74 18.95 189.09"/><polygon class="b0640135-69d5-420c-a6e5-d2caf28281bf" points="2.09 172.67 2.54 172.64 2.83 172.97 2.94 172.56 3.36 172.42 2.98 172.2 2.96 171.78 2.61 172.05 2.17 171.94 2.34 172.32 2.09 172.67"/><polygon class="b0640135-69d5-420c-a6e5-d2caf28281bf" points="32.49 181.75 32.75 182 32.67 182.34 33 182.19 33.33 182.37 33.28 182.03 33.56 181.8 33.19 181.73 33.04 181.42 32.86 181.72 32.49 181.75"/><polygon class="b0640135-69d5-420c-a6e5-d2caf28281bf" points="5 121.13 5.26 121.38 5.18 121.71 5.52 121.57 5.84 121.74 5.79 121.4 6.07 121.17 5.7 121.11 5.55 120.8 5.37 121.09 5 121.13"/><polygon class="b0640135-69d5-420c-a6e5-d2caf28281bf" points="20.73 173.59 20.98 173.84 20.9 174.18 21.24 174.03 21.56 174.2 21.51 173.86 21.79 173.63 21.42 173.57 21.27 173.26 21.09 173.56 20.73 173.59"/><polygon class="b0640135-69d5-420c-a6e5-d2caf28281bf" points="11.22 186.95 11.96 187.12 12.23 187.77 12.63 187.17 13.38 187.13 12.89 186.6 13.08 185.93 12.38 186.19 11.75 185.81 11.81 186.51 11.22 186.95"/><polygon class="b0640135-69d5-420c-a6e5-d2caf28281bf" points="6.62 148.08 7.36 148.24 7.64 148.9 8.03 148.3 8.79 148.26 8.29 147.73 8.49 147.05 7.79 147.32 7.15 146.94 7.21 147.64 6.62 148.08"/><polygon class="b0640135-69d5-420c-a6e5-d2caf28281bf" points="30.64 88.62 30.73 88.19 31.17 88.02 30.76 87.8 30.72 87.37 30.37 87.66 29.91 87.56 30.1 87.96 29.85 88.33 30.32 88.29 30.64 88.62"/><polygon class="b0640135-69d5-420c-a6e5-d2caf28281bf" points="55.77 108.94 55.87 108.51 56.31 108.34 55.9 108.12 55.86 107.68 55.51 107.98 55.04 107.88 55.24 108.28 54.99 108.65 55.46 108.61 55.77 108.94"/><polygon class="b0640135-69d5-420c-a6e5-d2caf28281bf" points="48.59 79.17 48.5 78.7 48.88 78.36 48.36 78.29 48.13 77.86 47.9 78.29 47.38 78.36 47.76 78.7 47.67 79.17 48.13 78.95 48.59 79.17"/><polygon class="b0640135-69d5-420c-a6e5-d2caf28281bf" points="65.6 114.86 65.78 114.4 66.28 114.28 65.87 113.99 65.9 113.51 65.47 113.78 64.99 113.6 65.13 114.06 64.8 114.44 65.32 114.45 65.6 114.86"/><polygon class="b0640135-69d5-420c-a6e5-d2caf28281bf" points="5.06 93.69 5.24 93.23 5.74 93.11 5.33 92.82 5.36 92.34 4.93 92.61 4.45 92.43 4.59 92.89 4.26 93.27 4.78 93.28 5.06 93.69"/><polygon class="b0640135-69d5-420c-a6e5-d2caf28281bf" points="14.15 93.69 14.33 93.24 14.83 93.12 14.42 92.83 14.45 92.35 14.02 92.62 13.54 92.44 13.68 92.9 13.35 93.28 13.87 93.29 14.15 93.69"/><polygon class="b0640135-69d5-420c-a6e5-d2caf28281bf" points="47.5 126.4 47.16 125.67 47.63 125 46.77 125.07 46.22 124.45 46.02 125.23 45.22 125.52 45.96 125.93 46.02 126.72 46.67 126.2 47.5 126.4"/><polygon class="b0640135-69d5-420c-a6e5-d2caf28281bf" points="21.88 68.16 21.43 68.21 21.13 67.9 21.05 68.31 20.63 68.48 21.03 68.68 21.07 69.1 21.4 68.81 21.85 68.9 21.65 68.52 21.88 68.16"/><polygon class="b0640135-69d5-420c-a6e5-d2caf28281bf" points="42.93 87.96 42.48 88.01 42.18 87.69 42.09 88.11 41.68 88.27 42.08 88.48 42.12 88.89 42.45 88.61 42.9 88.7 42.7 88.32 42.93 87.96"/><polygon class="b0640135-69d5-420c-a6e5-d2caf28281bf" points="8.24 72.7 7.97 72.46 8.03 72.12 7.7 72.29 7.37 72.13 7.44 72.47 7.17 72.71 7.54 72.75 7.71 73.06 7.87 72.75 8.24 72.7"/><polygon class="b0640135-69d5-420c-a6e5-d2caf28281bf" points="55.42 121.37 55.15 121.14 55.21 120.8 54.88 120.96 54.55 120.81 54.62 121.14 54.36 121.39 54.72 121.43 54.89 121.74 55.05 121.43 55.42 121.37"/><polygon class="b0640135-69d5-420c-a6e5-d2caf28281bf" points="22.75 80.74 22.48 80.5 22.54 80.16 22.21 80.32 21.88 80.17 21.94 80.5 21.68 80.75 22.05 80.79 22.22 81.1 22.38 80.79 22.75 80.74"/><polygon class="b0640135-69d5-420c-a6e5-d2caf28281bf" points="30.22 73.44 29.47 73.31 29.16 72.67 28.8 73.29 28.04 73.37 28.57 73.87 28.41 74.56 29.1 74.25 29.75 74.6 29.65 73.91 30.22 73.44"/><polygon class="b0640135-69d5-420c-a6e5-d2caf28281bf" points="69.2 80.06 68.49 80.29 67.88 79.87 67.89 80.57 67.27 80.98 68 81.18 68.23 81.85 68.66 81.27 69.42 81.28 68.96 80.72 69.2 80.06"/><polygon class="b0640135-69d5-420c-a6e5-d2caf28281bf" points="38.47 42.08 38.4 42.51 37.97 42.7 38.39 42.9 38.46 43.34 38.79 43.03 39.26 43.1 39.04 42.71 39.27 42.33 38.8 42.4 38.47 42.08"/><polygon class="b0640135-69d5-420c-a6e5-d2caf28281bf" points="10.33 21.61 10.26 22.05 9.83 22.24 10.26 22.44 10.32 22.87 10.66 22.56 11.13 22.64 10.91 22.25 11.13 21.86 10.66 21.93 10.33 21.61"/><polygon class="b0640135-69d5-420c-a6e5-d2caf28281bf" points="24.54 63.24 24.39 63.7 23.9 63.85 24.33 64.12 24.32 64.6 24.74 64.31 25.23 64.46 25.06 64.01 25.37 63.62 24.85 63.63 24.54 63.24"/><polygon class="b0640135-69d5-420c-a6e5-d2caf28281bf" points="20.17 21.32 20.02 21.78 19.53 21.93 19.96 22.2 19.95 22.68 20.37 22.39 20.86 22.54 20.69 22.09 21 21.7 20.48 21.71 20.17 21.32"/><polygon class="b0640135-69d5-420c-a6e5-d2caf28281bf" points="67.83 48 67.68 48.46 67.19 48.61 67.61 48.88 67.61 49.36 68.03 49.07 68.52 49.22 68.35 48.77 68.66 48.38 68.14 48.39 67.83 48"/><polygon class="b0640135-69d5-420c-a6e5-d2caf28281bf" points="55.46 45.91 55.31 46.37 54.81 46.52 55.24 46.79 55.24 47.27 55.65 46.98 56.15 47.13 55.98 46.68 56.28 46.29 55.76 46.3 55.46 45.91"/><polygon class="b0640135-69d5-420c-a6e5-d2caf28281bf" points="19.13 0.83 19.51 1.54 19.09 2.23 19.94 2.12 20.53 2.71 20.67 1.92 21.46 1.59 20.7 1.22 20.59 0.43 19.98 0.98 19.13 0.83"/><polygon class="b0640135-69d5-420c-a6e5-d2caf28281bf" points="59 79.55 59.44 79.47 59.76 79.77 59.82 79.36 60.23 79.17 59.82 78.99 59.75 78.57 59.44 78.88 58.99 78.81 59.2 79.18 59 79.55"/><polygon class="b0640135-69d5-420c-a6e5-d2caf28281bf" points="6.01 52.15 6.46 52.07 6.78 52.37 6.84 51.95 7.24 51.77 6.83 51.58 6.77 51.17 6.45 51.47 6 51.41 6.22 51.77 6.01 52.15"/><polygon class="b0640135-69d5-420c-a6e5-d2caf28281bf" points="61.45 62.67 61.73 62.89 61.69 63.23 62.01 63.06 62.35 63.2 62.26 62.86 62.51 62.61 62.14 62.58 61.95 62.28 61.81 62.6 61.45 62.67"/><polygon class="b0640135-69d5-420c-a6e5-d2caf28281bf" points="9.95 9.18 10.23 9.4 10.19 9.74 10.51 9.56 10.85 9.7 10.77 9.37 11.01 9.11 10.64 9.09 10.46 8.79 10.31 9.11 9.95 9.18"/><polygon class="b0640135-69d5-420c-a6e5-d2caf28281bf" points="44.97 48.12 45.26 48.34 45.22 48.68 45.53 48.5 45.88 48.64 45.79 48.31 46.04 48.05 45.67 48.03 45.48 47.73 45.34 48.05 44.97 48.12"/><polygon class="b0640135-69d5-420c-a6e5-d2caf28281bf" points="30.41 31.86 31.16 31.95 31.51 32.57 31.83 31.93 32.58 31.82 32.03 31.34 32.14 30.65 31.48 30.99 30.8 30.67 30.94 31.36 30.41 31.86"/><polygon class="b0640135-69d5-420c-a6e5-d2caf28281bf" points="13.47 55.88 14.22 55.96 14.57 56.58 14.9 55.95 15.64 55.84 15.09 55.36 15.21 54.67 14.54 55 13.86 54.69 14.01 55.38 13.47 55.88"/><polygon class="b0640135-69d5-420c-a6e5-d2caf28281bf" points="52.98 86.84 53.73 86.93 54.08 87.55 54.4 86.92 55.15 86.8 54.6 86.32 54.71 85.63 54.05 85.97 53.37 85.66 53.51 86.34 52.98 86.84"/><polygon class="b0640135-69d5-420c-a6e5-d2caf28281bf" points="66.69 100.98 67.44 101.06 67.79 101.69 68.11 101.05 68.86 100.94 68.31 100.46 68.42 99.77 67.76 100.11 67.08 99.79 67.22 100.48 66.69 100.98"/><path class="a3096db6-e9d1-44ef-b96f-4cf59434cf81" d="M111.59,111.48a1.3,1.3,0,0,1,1.58.81,1.16,1.16,0,0,1-.87,1.45,1.3,1.3,0,0,1-1.58-.8A1.17,1.17,0,0,1,111.59,111.48Z"/><path class="e082af43-19a8-4fa1-9087-9e965cac590d" d="M122.11,144.49a1.29,1.29,0,0,1,1.58.8,1.15,1.15,0,0,1-.87,1.45,1.28,1.28,0,0,1-1.58-.8A1.16,1.16,0,0,1,122.11,144.49Z"/><path class="be5ab70c-745d-49d0-bf9a-959dc93202c9" d="M96.49,100a1.2,1.2,0,0,1,1.05,1.36,1.27,1.27,0,0,1-1.46,1A1.2,1.2,0,0,1,95,101,1.28,1.28,0,0,1,96.49,100Z"/><path class="b80e0d7d-0ef1-4174-8160-946624052637" d="M111.45,100.94a1.28,1.28,0,0,1,1.58.8,1.17,1.17,0,0,1-.87,1.45,1.28,1.28,0,0,1-1.58-.8A1.15,1.15,0,0,1,111.45,100.94Z"/><path class="b409458b-98f5-4c7e-89e5-086b46bf7f4e" d="M86.08,142.92a1.29,1.29,0,0,1,1.58.8,1.16,1.16,0,0,1-.87,1.46,1.3,1.3,0,0,1-1.58-.8A1.18,1.18,0,0,1,86.08,142.92Z"/><path class="a877f8f4-60ec-4576-830f-4cd49d882392" d="M84.82,151.71a1.2,1.2,0,0,1,1.06,1.36,1.26,1.26,0,0,1-1.47,1,1.18,1.18,0,0,1-1-1.34A1.27,1.27,0,0,1,84.82,151.71Z"/><path class="b40359ae-9034-4cc7-a021-50dc53a55471" d="M136.49,126.75a1.3,1.3,0,0,1,1.58.8,1.16,1.16,0,0,1-.87,1.46,1.3,1.3,0,0,1-1.58-.8A1.17,1.17,0,0,1,136.49,126.75Z"/><path class="b16a4f7b-ef4b-4127-b5ab-94c5bb892aa3" d="M101.63,121a1.28,1.28,0,0,1,1.58.8,1.15,1.15,0,0,1-.87,1.45,1.29,1.29,0,0,1-1.58-.8A1.17,1.17,0,0,1,101.63,121Z"/><path class="bad07899-b34c-4069-ae48-7d5181f83352" d="M120.32,125.7a1.3,1.3,0,0,1,1.58.8A1.16,1.16,0,0,1,121,128a1.3,1.3,0,0,1-1.58-.8A1.17,1.17,0,0,1,120.32,125.7Z"/><path class="fe1003ed-9305-43fb-95a0-c80cad2246ec" d="M119.79,153.18a1.3,1.3,0,0,1,1.58.8,1.16,1.16,0,0,1-.87,1.46,1.3,1.3,0,0,1-1.58-.8A1.18,1.18,0,0,1,119.79,153.18Z"/><path class="be94d68f-cd8c-49bf-876e-893fc04357ce" d="M150,167.28a.38.38,0,0,1-.35.41.4.4,0,0,1-.44-.32.37.37,0,0,1,.35-.41A.39.39,0,0,1,150,167.28Z"/><path class="be94d68f-cd8c-49bf-876e-893fc04357ce" d="M136.22,146.39a.4.4,0,0,1-.79.09.37.37,0,0,1,.34-.41A.4.4,0,0,1,136.22,146.39Z"/><path class="be94d68f-cd8c-49bf-876e-893fc04357ce" d="M84.73,161.87a.38.38,0,0,1-.35.41.39.39,0,0,1-.44-.32.37.37,0,0,1,.34-.41A.4.4,0,0,1,84.73,161.87Z"/><path class="be94d68f-cd8c-49bf-876e-893fc04357ce" d="M82.42,111a.4.4,0,0,1-.79.09.37.37,0,0,1,.34-.41A.39.39,0,0,1,82.42,111Z"/><path class="be94d68f-cd8c-49bf-876e-893fc04357ce" d="M74.56,126.61a.36.36,0,0,1-.34.41.39.39,0,0,1-.45-.32.38.38,0,0,1,.35-.41A.39.39,0,0,1,74.56,126.61Z"/><path class="be94d68f-cd8c-49bf-876e-893fc04357ce" d="M104.26,136.29a.4.4,0,0,1-.5.23.35.35,0,0,1-.25-.46.4.4,0,0,1,.5-.23A.35.35,0,0,1,104.26,136.29Z"/><path class="be94d68f-cd8c-49bf-876e-893fc04357ce" d="M142.16,187.39a.37.37,0,0,1-.35.41.39.39,0,0,1-.44-.31.37.37,0,0,1,.35-.41A.39.39,0,0,1,142.16,187.39Z"/><path class="be94d68f-cd8c-49bf-876e-893fc04357ce" d="M128.69,110.69a.38.38,0,0,1-.35.41.4.4,0,0,1-.45-.32.39.39,0,0,1,.35-.41A.41.41,0,0,1,128.69,110.69Z"/><path class="a685f84c-fb7f-4f0f-8648-b75f995e5528" d="M111.34,14.31a1.29,1.29,0,0,1,1.58.8,1.17,1.17,0,0,1-.87,1.45,1.28,1.28,0,0,1-1.58-.8A1.15,1.15,0,0,1,111.34,14.31Z"/><path class="fc489e42-d0f5-40c2-9c86-c9b07872b438" d="M121.86,47.31a1.3,1.3,0,0,1,1.58.8,1.17,1.17,0,0,1-.87,1.46,1.3,1.3,0,0,1-1.58-.8A1.16,1.16,0,0,1,121.86,47.31Z"/><path class="b7e9bdd4-f9f5-4a98-adbe-60795696a682" d="M96.24,2.84a1.19,1.19,0,0,1,1.05,1.35,1.28,1.28,0,0,1-1.47,1,1.2,1.2,0,0,1-1-1.35A1.27,1.27,0,0,1,96.24,2.84Z"/><path class="e4e45fc3-2fdb-47a3-adc0-fbc75fabedcb" d="M111.2,3.76a1.29,1.29,0,0,1,1.58.8A1.17,1.17,0,0,1,111.91,6a1.28,1.28,0,0,1-1.58-.8A1.15,1.15,0,0,1,111.2,3.76Z"/><path class="b7a7a76d-e175-4b60-bb96-bd8ed442ae2c" d="M85.83,45.74a1.29,1.29,0,0,1,1.58.81A1.15,1.15,0,0,1,86.54,48,1.3,1.3,0,0,1,85,47.2,1.18,1.18,0,0,1,85.83,45.74Z"/><path class="b8b60204-d398-4de6-afdf-a561ccc75384" d="M84.57,54.54a1.18,1.18,0,0,1,1.05,1.35,1.26,1.26,0,0,1-1.46,1,1.2,1.2,0,0,1-1-1.35A1.26,1.26,0,0,1,84.57,54.54Z"/><path class="aa36b970-d6d7-4779-9460-241db8f58203" d="M136.24,29.57a1.3,1.3,0,0,1,1.58.8,1.16,1.16,0,0,1-.87,1.46,1.3,1.3,0,0,1-1.58-.8A1.18,1.18,0,0,1,136.24,29.57Z"/><path class="b9372a10-bd08-4ad7-ab2f-44e0913e37ae" d="M101.38,23.83a1.29,1.29,0,0,1,1.58.8,1.17,1.17,0,0,1-.87,1.46,1.3,1.3,0,0,1-1.58-.81A1.17,1.17,0,0,1,101.38,23.83Z"/><path class="fad656db-ed41-4ce7-a9a3-2175266a6766" d="M120.07,28.52a1.29,1.29,0,0,1,1.58.81,1.16,1.16,0,0,1-.87,1.45,1.3,1.3,0,0,1-1.58-.8A1.17,1.17,0,0,1,120.07,28.52Z"/><path class="a6810dec-c49d-4748-bacd-25e848bbaf27" d="M119.54,56a1.29,1.29,0,0,1,1.58.81,1.15,1.15,0,0,1-.87,1.45,1.3,1.3,0,0,1-1.58-.8A1.18,1.18,0,0,1,119.54,56Z"/><path class="be94d68f-cd8c-49bf-876e-893fc04357ce" d="M149.71,70.1a.38.38,0,0,1-.35.41.4.4,0,0,1-.44-.32.37.37,0,0,1,.35-.41A.39.39,0,0,1,149.71,70.1Z"/><path class="be94d68f-cd8c-49bf-876e-893fc04357ce" d="M136,49.21a.39.39,0,0,1-.35.41.4.4,0,0,1-.45-.32.39.39,0,0,1,.35-.41A.41.41,0,0,1,136,49.21Z"/><path class="be94d68f-cd8c-49bf-876e-893fc04357ce" d="M84.48,64.69a.4.4,0,0,1-.79.09.37.37,0,0,1,.34-.41A.41.41,0,0,1,84.48,64.69Z"/><path class="be94d68f-cd8c-49bf-876e-893fc04357ce" d="M82.17,13.78a.39.39,0,0,1-.35.41.41.41,0,0,1-.45-.32.38.38,0,0,1,.35-.41A.4.4,0,0,1,82.17,13.78Z"/><path class="be94d68f-cd8c-49bf-876e-893fc04357ce" d="M74.31,29.44a.38.38,0,0,1-.34.41.41.41,0,0,1-.45-.32.37.37,0,0,1,.35-.41A.38.38,0,0,1,74.31,29.44Z"/><path class="be94d68f-cd8c-49bf-876e-893fc04357ce" d="M104,39.11a.4.4,0,0,1-.5.24.37.37,0,0,1-.25-.47.41.41,0,0,1,.5-.23A.35.35,0,0,1,104,39.11Z"/><path class="be94d68f-cd8c-49bf-876e-893fc04357ce" d="M141.91,90.22a.38.38,0,0,1-.35.41.39.39,0,0,1-.44-.32.37.37,0,0,1,.34-.41A.4.4,0,0,1,141.91,90.22Z"/><path class="be94d68f-cd8c-49bf-876e-893fc04357ce" d="M128.44,13.51a.38.38,0,0,1-.35.41.4.4,0,0,1-.45-.32.39.39,0,0,1,.35-.41A.41.41,0,0,1,128.44,13.51Z"/><polygon class="b0640135-69d5-420c-a6e5-d2caf28281bf" points="140.48 7.63 140.61 7.2 141.05 7.06 140.66 6.82 140.64 6.38 140.27 6.66 139.81 6.53 139.99 6.94 139.72 7.3 140.19 7.28 140.48 7.63"/><polygon class="b0640135-69d5-420c-a6e5-d2caf28281bf" points="145.42 51.75 145.54 51.33 145.99 51.18 145.59 50.94 145.58 50.5 145.21 50.78 144.75 50.65 144.92 51.06 144.66 51.43 145.13 51.4 145.42 51.75"/><polygon class="b0640135-69d5-420c-a6e5-d2caf28281bf" points="128.13 63.92 128.33 63.48 128.84 63.38 128.45 63.06 128.51 62.59 128.06 62.83 127.59 62.64 127.7 63.1 127.35 63.46 127.87 63.5 128.13 63.92"/><polygon class="b0640135-69d5-420c-a6e5-d2caf28281bf" points="113.45 17 113.66 16.56 114.17 16.46 113.77 16.15 113.83 15.67 113.38 15.92 112.91 15.72 113.03 16.19 112.68 16.54 113.19 16.58 113.45 17"/><polygon class="b0640135-69d5-420c-a6e5-d2caf28281bf" points="124.72 17.02 124.92 16.58 125.43 16.48 125.04 16.17 125.1 15.69 124.65 15.94 124.18 15.74 124.3 16.21 123.94 16.57 124.46 16.61 124.72 17.02"/><polygon class="b0640135-69d5-420c-a6e5-d2caf28281bf" points="143.93 67.82 143.63 67.07 144.13 66.43 143.27 66.45 142.76 65.81 142.52 66.58 141.7 66.83 142.42 67.28 142.43 68.07 143.1 67.58 143.93 67.82"/><polygon class="b0640135-69d5-420c-a6e5-d2caf28281bf" points="152.69 5.43 152.24 5.46 151.95 5.13 151.84 5.53 151.42 5.68 151.8 5.9 151.82 6.32 152.17 6.05 152.61 6.16 152.44 5.78 152.69 5.43"/><polygon class="b0640135-69d5-420c-a6e5-d2caf28281bf" points="149.78 56.97 149.52 56.72 149.6 56.38 149.26 56.53 148.94 56.36 148.99 56.7 148.71 56.93 149.08 56.99 149.23 57.3 149.41 57 149.78 56.97"/><polygon class="b0640135-69d5-420c-a6e5-d2caf28281bf" points="134.06 4.51 133.8 4.26 133.88 3.92 133.54 4.07 133.22 3.9 133.27 4.24 132.99 4.46 133.36 4.53 133.51 4.84 133.69 4.54 134.06 4.51"/><polygon class="b0640135-69d5-420c-a6e5-d2caf28281bf" points="148.16 30.02 147.42 29.86 147.14 29.2 146.75 29.8 145.99 29.84 146.49 30.37 146.29 31.05 146.99 30.78 147.63 31.16 147.57 30.46 148.16 30.02"/><polygon class="b0640135-69d5-420c-a6e5-d2caf28281bf" points="124.14 89.48 124.05 89.91 123.61 90.08 124.02 90.3 124.06 90.73 124.41 90.44 124.88 90.54 124.68 90.14 124.93 89.76 124.45 89.81 124.14 89.48"/><polygon class="b0640135-69d5-420c-a6e5-d2caf28281bf" points="99.01 69.16 98.91 69.59 98.47 69.76 98.88 69.98 98.92 70.42 99.28 70.12 99.74 70.22 99.54 69.82 99.79 69.45 99.32 69.49 99.01 69.16"/><polygon class="b0640135-69d5-420c-a6e5-d2caf28281bf" points="106.19 98.93 106.28 99.4 105.9 99.73 106.42 99.81 106.65 100.24 106.88 99.81 107.39 99.74 107.02 99.4 107.11 98.93 106.65 99.15 106.19 98.93"/><polygon class="b0640135-69d5-420c-a6e5-d2caf28281bf" points="89.18 63.24 89 63.7 88.5 63.82 88.91 64.11 88.88 64.59 89.31 64.32 89.79 64.5 89.65 64.03 89.98 63.66 89.46 63.65 89.18 63.24"/><polygon class="b0640135-69d5-420c-a6e5-d2caf28281bf" points="149.72 84.41 149.54 84.87 149.04 84.99 149.45 85.28 149.42 85.76 149.85 85.49 150.33 85.67 150.19 85.2 150.52 84.83 150 84.82 149.72 84.41"/><polygon class="b0640135-69d5-420c-a6e5-d2caf28281bf" points="140.63 84.4 140.45 84.86 139.95 84.98 140.36 85.27 140.33 85.75 140.76 85.48 141.24 85.66 141.1 85.19 141.43 84.82 140.91 84.81 140.63 84.4"/><polygon class="b0640135-69d5-420c-a6e5-d2caf28281bf" points="107.28 51.7 107.61 52.43 107.15 53.1 108.01 53.03 108.56 53.65 108.75 52.87 109.56 52.58 108.82 52.17 108.76 51.38 108.11 51.9 107.28 51.7"/><polygon class="b0640135-69d5-420c-a6e5-d2caf28281bf" points="132.9 109.94 133.35 109.89 133.65 110.2 133.73 109.79 134.15 109.62 133.75 109.42 133.71 109 133.38 109.29 132.93 109.2 133.13 109.58 132.9 109.94"/><polygon class="b0640135-69d5-420c-a6e5-d2caf28281bf" points="111.85 90.14 112.3 90.09 112.6 90.4 112.69 89.99 113.1 89.83 112.7 89.62 112.66 89.21 112.33 89.49 111.89 89.4 112.08 89.78 111.85 90.14"/><polygon class="b0640135-69d5-420c-a6e5-d2caf28281bf" points="146.54 105.4 146.81 105.64 146.75 105.97 147.08 105.81 147.41 105.97 147.34 105.63 147.61 105.39 147.24 105.34 147.07 105.04 146.91 105.35 146.54 105.4"/><polygon class="b0640135-69d5-420c-a6e5-d2caf28281bf" points="99.36 56.73 99.63 56.96 99.57 57.3 99.9 57.14 100.23 57.29 100.16 56.96 100.42 56.72 100.06 56.67 99.89 56.36 99.73 56.67 99.36 56.73"/><polygon class="b0640135-69d5-420c-a6e5-d2caf28281bf" points="132.03 97.36 132.3 97.6 132.24 97.94 132.57 97.78 132.9 97.93 132.84 97.59 133.1 97.35 132.73 97.31 132.56 97 132.4 97.31 132.03 97.36"/><polygon class="b0640135-69d5-420c-a6e5-d2caf28281bf" points="124.56 104.66 125.31 104.79 125.62 105.42 125.98 104.81 126.74 104.73 126.21 104.23 126.37 103.54 125.68 103.85 125.03 103.5 125.13 104.19 124.56 104.66"/><polygon class="b0640135-69d5-420c-a6e5-d2caf28281bf" points="85.58 98.04 86.29 97.81 86.91 98.23 86.89 97.53 87.51 97.12 86.78 96.92 86.55 96.25 86.12 96.83 85.36 96.82 85.82 97.38 85.58 98.04"/><polygon class="b0640135-69d5-420c-a6e5-d2caf28281bf" points="116.31 136.02 116.38 135.59 116.81 135.39 116.39 135.2 116.32 134.76 115.99 135.07 115.52 135 115.74 135.39 115.51 135.77 115.98 135.7 116.31 136.02"/><polygon class="b0640135-69d5-420c-a6e5-d2caf28281bf" points="144.45 156.49 144.52 156.05 144.95 155.86 144.52 155.66 144.46 155.23 144.12 155.54 143.66 155.46 143.87 155.85 143.65 156.24 144.12 156.17 144.45 156.49"/><polygon class="b0640135-69d5-420c-a6e5-d2caf28281bf" points="130.24 114.86 130.39 114.4 130.88 114.25 130.45 113.98 130.46 113.5 130.04 113.79 129.55 113.64 129.72 114.09 129.41 114.48 129.93 114.47 130.24 114.86"/><polygon class="b0640135-69d5-420c-a6e5-d2caf28281bf" points="134.61 156.78 134.76 156.32 135.25 156.17 134.82 155.9 134.82 155.42 134.41 155.71 133.92 155.56 134.09 156.01 133.78 156.4 134.3 156.39 134.61 156.78"/><polygon class="b0640135-69d5-420c-a6e5-d2caf28281bf" points="86.95 130.1 87.1 129.64 87.59 129.49 87.17 129.22 87.17 128.74 86.75 129.03 86.26 128.88 86.43 129.33 86.12 129.72 86.64 129.71 86.95 130.1"/><polygon class="b0640135-69d5-420c-a6e5-d2caf28281bf" points="99.32 132.19 99.47 131.73 99.97 131.58 99.54 131.31 99.54 130.83 99.13 131.12 98.63 130.97 98.8 131.42 98.5 131.81 99.02 131.8 99.32 132.19"/><polygon class="b0640135-69d5-420c-a6e5-d2caf28281bf" points="135.65 177.27 135.27 176.56 135.69 175.87 134.84 175.98 134.25 175.39 134.11 176.18 133.32 176.51 134.09 176.88 134.19 177.67 134.8 177.12 135.65 177.27"/><polygon class="b0640135-69d5-420c-a6e5-d2caf28281bf" points="95.78 98.55 95.34 98.63 95.02 98.33 94.96 98.74 94.55 98.93 94.96 99.11 95.03 99.53 95.34 99.22 95.79 99.29 95.58 98.92 95.78 98.55"/><polygon class="b0640135-69d5-420c-a6e5-d2caf28281bf" points="148.77 125.95 148.32 126.03 148 125.73 147.94 126.14 147.54 126.33 147.94 126.52 148.01 126.93 148.33 126.63 148.78 126.69 148.56 126.33 148.77 125.95"/><polygon class="b0640135-69d5-420c-a6e5-d2caf28281bf" points="93.33 115.43 93.05 115.2 93.09 114.86 92.77 115.04 92.43 114.9 92.52 115.24 92.27 115.49 92.64 115.52 92.83 115.82 92.97 115.5 93.33 115.43"/><polygon class="b0640135-69d5-420c-a6e5-d2caf28281bf" points="144.83 168.92 144.55 168.7 144.59 168.36 144.27 168.54 143.93 168.4 144.01 168.73 143.77 168.99 144.14 169.01 144.32 169.31 144.47 168.99 144.83 168.92"/><polygon class="b0640135-69d5-420c-a6e5-d2caf28281bf" points="109.81 129.98 109.52 129.76 109.56 129.42 109.25 129.6 108.91 129.46 108.99 129.79 108.74 130.04 109.11 130.07 109.3 130.37 109.44 130.05 109.81 129.98"/><polygon class="b0640135-69d5-420c-a6e5-d2caf28281bf" points="124.37 146.24 123.62 146.15 123.27 145.53 122.95 146.16 122.2 146.28 122.75 146.76 122.64 147.45 123.3 147.11 123.98 147.43 123.84 146.74 124.37 146.24"/><polygon class="b0640135-69d5-420c-a6e5-d2caf28281bf" points="141.31 122.22 140.56 122.14 140.21 121.52 139.88 122.15 139.13 122.26 139.69 122.74 139.57 123.43 140.24 123.09 140.92 123.41 140.77 122.72 141.31 122.22"/><polygon class="b0640135-69d5-420c-a6e5-d2caf28281bf" points="101.8 91.26 101.05 91.17 100.7 90.55 100.38 91.18 99.63 91.3 100.18 91.78 100.07 92.47 100.73 92.13 101.41 92.44 101.27 91.76 101.8 91.26"/><polygon class="b0640135-69d5-420c-a6e5-d2caf28281bf" points="88.09 77.12 87.34 77.03 86.99 76.41 86.67 77.05 85.92 77.16 86.47 77.64 86.36 78.33 87.02 77.99 87.7 78.31 87.56 77.62 88.09 77.12"/><path class="f5cef0cc-ff65-4b07-a800-d1c691b8cf19" d="M101,190.42c-6.76,0-18.31.34-32.55.82C9.8,193.15-94.2,197.85-94.2,197.85c-.23-8.59,29.47-38.6,29-55.71S-52,117.13-48,108.36C-45,101.46-29.5,79-24.42,65.41c1.4-3.73,2-6.79,1.35-8.65-3-8.73,41.58.11,47.75,23.95S69.54,100.47,85,108.49s31.4,34.78,36,50.07S135.64,190.24,101,190.42Z"/><path class="bc6a067f-254a-48da-8595-e05e3e427685" d="M101,190.42c-6.76,0-18.31.34-32.55.82,13.64-15.84,28.79-31,31.61-36.53,6.59-13.09-74.44,17.1-101,8.85S4.13,90.05-4.57,75.22c-4.09-7-12-9-19.85-9.81,1.4-3.73,2-6.79,1.35-8.65-3-8.73,28.79,3.74,35,27.57s44.55,27.15,60,35.17,44.49,23.77,49.05,39.06S135.64,190.24,101,190.42Z"/><path class="f5cef0cc-ff65-4b07-a800-d1c691b8cf19" d="M1.33,163c-.16,1.43,6.25,2.27,15,2.62,21.19.87,56-1.08,43.83-4.29-3.66-3,12.84-8.07,11.91-12-.88-3.69-28.47-26.94-29.7-31.1-.06-.2-.12-.37-.18-.52-1.29-3.15-6.78,5.09-7,8.85s-19.17,15-22.5,19S1.92,158.16,1.33,163Z"/><path class="a972bdc4-8057-4f56-8b91-ac2e50ffbb5f" d="M1.33,163c-.16,1.43,6.25,2.27,15,2.62,4.39-4.81,7.25-10.55,6.29-13.26-1.74-4.87-5-8.26,1.83-12.59s15.74-12.06,15.62-16.62c0-1,0-5,3-2.72-1.3-1.85-.8-2.53-.86-2.68-1.29-3.15-6.78,5.09-7,8.85s-19.17,15-22.5,19S1.92,158.16,1.33,163Z"/><path class="adb17c6d-d9a1-4ff4-bbab-cf766a856ebd" d="M217.74,159.37c-7.67,1.64-22.49-5.69-26.7-4s-31-7.45-44-3.27-37.49,12.6-48.15,12.63-73.42-1.59-88.77.13-38.37,15.73-41,19.76S-33.18,261-33.18,261s74.54-1.27,81.38-2.1,194.51-1.24,194.51-1.24S264.61,149.3,217.74,159.37Z"/><path class="a9887e9d-b8cd-4ed3-becf-6dc79d29eda6" d="M145.07,163.78C105,163.19,24.4,167.25,8.75,167s-8.46,4.24,45.32,5.67S293.59,166,145.07,163.78Z"/><path class="a9887e9d-b8cd-4ed3-becf-6dc79d29eda6" d="M163.59,185.26c-12.51-.54-37.67,2.43-42.56,2.23s-2.63,3.26,14.17,4.48S210,187.27,163.59,185.26Z"/><path class="a9887e9d-b8cd-4ed3-becf-6dc79d29eda6" d="M58.14,179.73c-12.52-.54-37.68,2.42-42.56,2.23s-2.64,3.25,14.16,4.47S104.52,181.74,58.14,179.73Z"/><path class="a233dfa9-ce29-420e-9231-7ad5dd2aae1f" d="M219.32,156.81c.05-3.34-.37-70.4-2.74-70.24A13.43,13.43,0,0,0,211,88.32c-1.16.65-2.71-.9-5.41-1.33s-5,8.73-4.17,15-9.43,9.92-10.13,15-14.84,23.32-11,26.88c2.39,2.22,2.16,13.31,9,13.5C200.18,157.63,219.24,161.41,219.32,156.81Z"/><path class="a972bdc4-8057-4f56-8b91-ac2e50ffbb5f" d="M196.37,118.76c.69-5.06,5.88-10.53,5-16.79s1.48-15.4,4.17-15,4.25,2,5.41,1.33a13.43,13.43,0,0,1,5.59-1.75c.57,0,1,3.86,1.4,9.84a15.92,15.92,0,0,0-2.6,1.18c-1.31.73-3.06-1-6.1-1.5S203.61,106,204.56,113a6,6,0,0,1,0,1.26c2.44-.25,4.61-1.34,6.77-1,3.59.55,8.69,5.42,3.84,6.85-2.87.85-8.9.37-13.37-.46-3.23,3.57,7.11,34.48,6.6,38.16-.22,1.64-10.38-.49-16.71-.37-5.27-1.43-2.41,1.5-6.25-10.38C183.8,141.91,195.7,123.65,196.37,118.76Z"/><path class="a233dfa9-ce29-420e-9231-7ad5dd2aae1f" d="M189.29,157.34c.25-4.43-7.32-18-12.2-19.93-3.94-1.57-9.73-12.53-9.77-13.56s-1.95-6.92-6.58-6.91-.87-11.44-3-11.16,2.19-8.59-5.42-9.4-4.83,5.91-8.21,5.57-6.7.93-6.64,2.45,0,11.73-2.93,11.36-4.42,5.29-4.31,8.15-.36,11.26-3.34,10.45-4.84,6.47-5.17,8.84-5.87,11.41,2.58,12.12S189.29,157.34,189.29,157.34Z"/><path class="a972bdc4-8057-4f56-8b91-ac2e50ffbb5f" d="M132.09,151.57c-.11-2.85,34.82,4.92,37.78,5.29s14.75.86,18.19.15c-.05-1.52-16.12-22-18.21-24.87-2-2.76-1.67-10.46-7.11-11.39-8.92-1.52-4.36-11-5.71-12.35-3.69-3.77-1-13.19-5-7.92-1.7,2.22-6.81,6.88-6.74,8.48s0,12.28-2.91,11.89-4.41,5.53-4.3,8.52-3.42,9.47-6.4,8.61-1.75,9.1-2.07,11.58C129.45,150.64,132.2,154.43,132.09,151.57Z"/><path class="f5cef0cc-ff65-4b07-a800-d1c691b8cf19" d="M109.46,153c-.08.87,3,1.41,7.21,1.67,10.17.63,26.87-.38,21-2.39-1.77-1.82,6.12-4.85,5.66-7.22s-13.8-16.52-14.41-19.06a3.09,3.09,0,0,0-.09-.31c-.63-1.93-3.22,3.06-3.32,5.34s-9.12,9.06-10.7,11.46S109.71,150.05,109.46,153Z"/><path class="a972bdc4-8057-4f56-8b91-ac2e50ffbb5f" d="M109.46,153c-.08.87,3,1.41,7.21,1.67,2.08-2.91,3.42-6.38,3-8-.86-3-2.43-5,.81-7.64s7.52-7.26,7.42-10a5.47,5.47,0,0,1,1.07-3,3.09,3.09,0,0,0-.09-.31c-.63-1.93-3.22,3.06-3.32,5.34s-9.12,9.06-10.7,11.46S109.71,150.05,109.46,153Z"/><path class="f5cef0cc-ff65-4b07-a800-d1c691b8cf19" d="M134.45,160.48c1.28-.08,3.48-.16,6.2-.25,11.17-.36,31-.74,31-.74-.06-1.64-11.33-12.16-11.45-15.41s-2.83-4.6-3.68-6.22c-.67-1.27-3.89-5.35-5-7.87a2.79,2.79,0,0,1-.36-1.63c.46-1.7-7.91.53-8.78,5.14s-8.29,4.31-11.13,6-5.54,7-6.21,10S127.86,160.87,134.45,160.48Z"/><path class="a972bdc4-8057-4f56-8b91-ac2e50ffbb5f" d="M129.79,161.12a50.2,50.2,0,0,1,5.26-.67c-2.79-2.85-5.5-10.92-6.11-11.95-1.41-2.41,4-5.58,9-7.48a19.68,19.68,0,0,0,9.95-8.92c.69-1.38,2.17-1.87,3.65-2.11a2.79,2.79,0,0,1-.36-1.63c.46-1.7-7.91.53-8.78,5.14s-11.29,4.51-15.57,10.25c-1.12,1.51-6.52-5.53-7.7-3.34-.9,1.67,6.22,7.8,5.93,9.08C124.34,152.46,123.2,161.51,129.79,161.12Z"/><path class="f5cef0cc-ff65-4b07-a800-d1c691b8cf19" d="M93.35,160.23c1.28-.08,3.48-.17,6.2-.25,11.17-.36,31-.75,31-.75-.07-1.63-6.09-7-6.21-10.23s-2.82-4.6-3.68-6.22c-.67-1.27-3.89-5.35-5-7.87a2.79,2.79,0,0,1-.36-1.63c.46-1.7-7.9.53-8.78,5.14s-8.29,4.31-11.13,6-5.54,7-6.21,10S86.76,160.62,93.35,160.23Z"/><path class="a972bdc4-8057-4f56-8b91-ac2e50ffbb5f" d="M93.35,160.23c1.28-.08,3.48-.17,6.2-.25-2.79-2.85-5.86-5.53-6.47-6.56-1.41-2.41,4-5.58,9-7.48A19.68,19.68,0,0,0,112,137c.69-1.38.81-1.48-4-1.27-.88,4.61-4.79,7.26-12.62,8.7-3.26.6-5.54,7-6.21,10S86.76,160.62,93.35,160.23Z"/><path class="f5cef0cc-ff65-4b07-a800-d1c691b8cf19" d="M33.08,163.14c9,.12,32.38-2.08,39.9-1.92,9.58.2,42.48,2.19,37.75-2.7-2.16-2.23-19.23-19.64-20.07-22.11a26.57,26.57,0,0,0-3.34-7c-.87-1.13-1.85-1.86-2.89-1.65-1.23.24-8.26,8-19.07,14.71-17.37,6.31-35,18.69-35.85,20C29.19,162.91,30.59,163.11,33.08,163.14Z"/><path class="a972bdc4-8057-4f56-8b91-ac2e50ffbb5f" d="M33.08,163.14c9.59-4.79,21-11,23.57-11,4.28,0,18.69-10.69,18.92-13.24s4.34-3.21,8.22-5.12c1-.5-.63-1.93-.19-3.34-.87-1.13,1.87-2.91.83-2.7-1.23.24-8.26,8-19.07,14.71-17.37,6.31-35,18.69-35.85,20C29.19,162.91,30.59,163.11,33.08,163.14Z"/><polygon class="ab59c992-f47c-41c3-b34a-f6e809a33feb" points="56.91 215.71 78.92 215.71 67.92 196.47 56.91 215.71"/><polygon class="ab59c992-f47c-41c3-b34a-f6e809a33feb" points="44.02 215.71 56.91 215.71 50.46 196.47 44.02 215.71"/><polygon class="ab59c992-f47c-41c3-b34a-f6e809a33feb" points="38.07 215.71 44.02 215.71 41.13 196.47 38.07 215.71"/><polygon class="b09d3889-e0b0-4a64-91cc-0b82e20b98be" points="56.91 215.71 67.92 196.47 50.46 196.47 56.91 215.71"/><polygon class="ab59c992-f47c-41c3-b34a-f6e809a33feb" points="108.27 215.71 78.92 215.71 93.6 196.47 108.27 215.71"/><polygon class="a0a2371f-1932-4b0a-88c1-0575a9b64156" points="137.62 215.71 108.27 215.71 122.95 196.47 137.62 215.71"/><polygon class="a0a2371f-1932-4b0a-88c1-0575a9b64156" points="122.95 196.47 93.6 196.47 108.27 177.22 122.95 196.47"/><polygon class="b09d3889-e0b0-4a64-91cc-0b82e20b98be" points="122.95 196.47 93.6 196.47 108.27 215.71 122.95 196.47"/><polygon class="fd79717a-2467-4230-91a9-d5f8b1ec7329" points="159.63 215.71 137.62 215.71 148.63 196.47 159.63 215.71"/><polygon class="a41c0197-fd13-490c-bdb2-efe6d5da5f3e" points="119.28 157.97 97.27 157.97 108.27 177.22 119.28 157.97"/><polygon class="fd79717a-2467-4230-91a9-d5f8b1ec7329" points="172.35 215.71 159.63 215.71 166.08 196.47 172.35 215.71"/><polygon class="afb60894-7483-4d11-81a5-e52c1e6205df" points="135.79 157.97 119.3 157.97 116.59 148.27 135.79 157.97"/><polygon class="a0a2371f-1932-4b0a-88c1-0575a9b64156" points="80.8 157.97 97.27 157.97 99.99 148.27 80.8 157.97"/><polygon class="b534d5ba-31c8-4b9c-ad49-81a30ae0acca" points="178.48 215.71 172.35 215.71 175.41 196.47 178.48 215.71"/><polygon class="a41c0197-fd13-490c-bdb2-efe6d5da5f3e" points="148.63 196.47 122.95 196.47 137.62 215.71 148.63 196.47"/><polygon class="a14c6967-160c-468d-9985-a7b1135a7652" points="159.63 215.71 148.63 196.47 166.08 196.47 159.63 215.71"/><polygon class="a14c6967-160c-468d-9985-a7b1135a7652" points="172.35 215.71 175.41 196.47 166.08 196.47 172.35 215.71"/><polygon class="fd79717a-2467-4230-91a9-d5f8b1ec7329" points="148.63 196.47 122.95 196.47 133.95 177.22 148.63 196.47"/><polygon class="afb60894-7483-4d11-81a5-e52c1e6205df" points="166.08 196.47 148.63 196.47 152.83 177.22 166.08 196.47"/><polygon class="a93b404d-084c-4986-917e-8538f0b818ad" points="164.48 177.22 175.41 196.47 166.08 196.47 164.48 177.22"/><polygon class="ab59c992-f47c-41c3-b34a-f6e809a33feb" points="67.92 196.47 93.6 196.47 82.5 177.22 67.92 196.47"/><polygon class="ab59c992-f47c-41c3-b34a-f6e809a33feb" points="50.46 196.47 67.92 196.47 63.62 177.22 50.46 196.47"/><polygon class="ab59c992-f47c-41c3-b34a-f6e809a33feb" points="51.98 177.22 41.13 196.47 50.46 196.47 51.98 177.22"/><polygon class="fd79717a-2467-4230-91a9-d5f8b1ec7329" points="133.95 177.22 108.27 177.22 119.28 157.97 133.95 177.22"/><polygon class="afb60894-7483-4d11-81a5-e52c1e6205df" points="152.83 177.22 133.95 177.22 135.79 157.97 152.83 177.22"/><polygon class="a93b404d-084c-4986-917e-8538f0b818ad" points="147.83 157.97 164.48 177.22 152.83 177.22 147.83 157.97"/><polygon class="a0a2371f-1932-4b0a-88c1-0575a9b64156" points="82.5 177.22 108.27 177.22 97.27 157.97 82.5 177.22"/><polygon class="ab59c992-f47c-41c3-b34a-f6e809a33feb" points="63.71 177.22 82.5 177.22 80.8 157.97 63.71 177.22"/><polygon class="ab59c992-f47c-41c3-b34a-f6e809a33feb" points="68.71 157.97 52.06 177.22 63.71 177.22 68.71 157.97"/><polygon class="a93b404d-084c-4986-917e-8538f0b818ad" points="126.55 148.27 147.83 157.97 135.79 157.97 126.55 148.27"/><polygon class="ab59c992-f47c-41c3-b34a-f6e809a33feb" points="89.99 148.27 68.71 157.97 80.8 157.97 89.99 148.27"/><polygon class="a93b404d-084c-4986-917e-8538f0b818ad" points="109.9 145.93 126.55 148.27 116.59 148.27 109.9 145.93"/><polygon class="ab59c992-f47c-41c3-b34a-f6e809a33feb" points="106.65 145.93 89.99 148.27 99.99 148.27 106.65 145.93"/><polygon class="b09d3889-e0b0-4a64-91cc-0b82e20b98be" points="67.92 196.47 93.6 196.47 78.92 215.71 67.92 196.47"/><polygon class="efc7fd8c-4bef-4ec1-8cd1-f87aac442c3f" points="44.02 215.71 41.13 196.47 50.46 196.47 44.02 215.71"/><polygon class="a41c0197-fd13-490c-bdb2-efe6d5da5f3e" points="108.27 177.22 122.95 196.47 133.95 177.22 108.27 177.22"/><polygon class="a14c6967-160c-468d-9985-a7b1135a7652" points="133.95 177.22 152.83 177.22 148.63 196.47 133.95 177.22"/><polygon class="a187c030-d6f2-47bf-928c-d8ae3bd392e7" points="152.83 177.22 164.48 177.22 166.08 196.47 152.83 177.22"/><polygon class="a14c6967-160c-468d-9985-a7b1135a7652" points="119.28 157.97 135.79 157.97 133.95 177.22 119.28 157.97"/><polygon class="a187c030-d6f2-47bf-928c-d8ae3bd392e7" points="135.79 157.97 147.83 157.97 152.83 177.22 135.79 157.97"/><polygon class="a187c030-d6f2-47bf-928c-d8ae3bd392e7" points="116.59 148.27 126.55 148.27 135.79 157.97 116.59 148.27"/><polygon class="fd79717a-2467-4230-91a9-d5f8b1ec7329" points="108.27 148.27 97.27 157.97 119.28 157.97 108.27 148.27"/><polygon class="a41c0197-fd13-490c-bdb2-efe6d5da5f3e" points="99.99 148.27 97.27 157.97 108.27 148.27 99.99 148.27"/><polygon class="a14c6967-160c-468d-9985-a7b1135a7652" points="108.27 148.27 116.59 148.27 119.28 157.97 108.27 148.27"/><polygon class="afb60894-7483-4d11-81a5-e52c1e6205df" points="106.65 145.93 108.27 148.27 109.9 145.93 106.65 145.93"/><polygon class="b09d3889-e0b0-4a64-91cc-0b82e20b98be" points="51.98 177.22 50.46 196.47 63.62 177.22 51.98 177.22"/><polygon class="b09d3889-e0b0-4a64-91cc-0b82e20b98be" points="68.71 157.97 63.71 177.22 80.8 157.97 68.71 157.97"/><polygon class="b09d3889-e0b0-4a64-91cc-0b82e20b98be" points="89.99 148.27 80.8 157.97 99.99 148.27 89.99 148.27"/><polygon class="b09d3889-e0b0-4a64-91cc-0b82e20b98be" points="63.62 177.22 67.92 196.47 82.5 177.22 63.62 177.22"/><polygon class="b09d3889-e0b0-4a64-91cc-0b82e20b98be" points="82.5 177.22 93.6 196.47 108.27 177.22 82.5 177.22"/><polygon class="b09d3889-e0b0-4a64-91cc-0b82e20b98be" points="80.8 157.97 82.5 177.22 97.27 157.97 80.8 157.97"/><polygon class="fd79717a-2467-4230-91a9-d5f8b1ec7329" points="106.65 145.93 99.99 148.27 108.27 148.27 106.65 145.93"/><polygon class="a93b404d-084c-4986-917e-8538f0b818ad" points="109.9 145.93 108.27 148.27 116.59 148.27 109.9 145.93"/><rect class="a5084f3f-db51-4c54-b81c-38538e03a401" x="13.1" y="215.71" width="171.03" height="3.78"/><rect class="ae9a85fe-3b28-4f53-bf68-a390ad9935dc" x="13.1" y="215.71" width="9.31" height="3.78"/><rect class="b2d9a2b2-cd57-4482-97ba-385447cfcea9" x="22.41" y="215.71" width="39.06" height="3.78"/><rect class="bf5603ee-7904-4695-9cd7-8d3653749369" x="61.23" y="215.71" width="39.06" height="3.78"/><polygon class="a5084f3f-db51-4c54-b81c-38538e03a401" points="28.68 215.71 65.36 215.71 68.56 197.44 28.68 197.44 28.68 215.71"/><path class="b062d501-63e2-4c9e-aa18-4db49d9153d8" d="M16.18,215.71h25c0-10.09-5.6-18.27-12.51-18.27S16.18,205.62,16.18,215.71Z"/><path class="a5084f3f-db51-4c54-b81c-38538e03a401" d="M52.85,215.71H66.94c5.54-7.8,10.21-18.27,1.62-18.27C61.65,197.44,52.85,205.62,52.85,215.71Z"/><path class="b60706d4-eab8-40e9-beb6-689019d5a6c4" d="M19.18,215.71H38.07c0-7.67-4.14-15.17-9.39-15.17S19.18,208,19.18,215.71Z"/><path class="ae9a85fe-3b28-4f53-bf68-a390ad9935dc" d="M29,200.57c-.12,0-.23,0-.35,0-5.25,0-9.5,7.5-9.5,15.17h.69C19.87,208.22,23.94,200.9,29,200.57Z"/><path class="b062d501-63e2-4c9e-aa18-4db49d9153d8" d="M30.45,209.77c0,2.07,1.15,3.75,2.57,3.75s2.57-1.68,2.57-3.75H30.45Z"/><path class="a93b404d-084c-4986-917e-8538f0b818ad" d="M32.78,210.09c2.07,0,2.65-.15,1.83,1.56C34.61,211,34.26,210.72,32.78,210.09Z"/></g><path class="a187c030-d6f2-47bf-928c-d8ae3bd392e7" d="M15.15,90.94a.86.86,0,0,1,.19-.53,1.92,1.92,0,0,1,.52-.44,3.17,3.17,0,0,1,.77-.3,4.13,4.13,0,0,1,.95-.1h1v1h-1a1,1,0,0,0-.47.11.31.31,0,0,0-.2.27v7.93a.31.31,0,0,0,.2.27,1,1,0,0,0,.47.11h1v1h-1a4.13,4.13,0,0,1-.95-.1,3.17,3.17,0,0,1-.77-.3,1.6,1.6,0,0,1-.52-.43.87.87,0,0,1-.19-.54Z"/><path class="a187c030-d6f2-47bf-928c-d8ae3bd392e7" d="M21.9,91.91l-1.37.54L21.9,93l-.49.38-1.19-.47v.82h-.83V92.9l-1.18.47L17.73,93l1.35-.54-1.35-.54.48-.38,1.18.46v-.81h.83V92l1.19-.46Z"/><path class="a187c030-d6f2-47bf-928c-d8ae3bd392e7" d="M27,98.6H22.71V91.2H27v1H24.48v2.69h2v1h-2v1.74H27Z"/><path class="a187c030-d6f2-47bf-928c-d8ae3bd392e7" d="M31.27,94.9c.27.6.55,1.22.83,1.86S32.67,98,33,98.6H31.12l-.77-1.7-.77,1.7H27.76l1.66-3.7c-.27-.6-.54-1.22-.83-1.85S28,91.8,27.76,91.2h1.82l.77,1.7.77-1.7H33Z"/><path class="a187c030-d6f2-47bf-928c-d8ae3bd392e7" d="M38.06,92.19H36.65V98.6H34.88V92.19H33.45v-1h4.61Z"/><path class="a187c030-d6f2-47bf-928c-d8ae3bd392e7" d="M43.7,95.46a1,1,0,0,1-.38.71,2.59,2.59,0,0,1-1,.52l.71,1,.7,1H41.86l-1.25-1.77h0V98.6H38.8V91.2h2.45a4,4,0,0,1,.94.11,3.09,3.09,0,0,1,.78.29,1.58,1.58,0,0,1,.53.44.85.85,0,0,1,.2.53Zm-1.78-2.89a.33.33,0,0,0-.19-.27,1,1,0,0,0-.47-.11h-.69v3.67h.69a1,1,0,0,0,.47-.12.34.34,0,0,0,.19-.28Z"/><path class="a187c030-d6f2-47bf-928c-d8ae3bd392e7" d="M49.73,98.6H48V96.83H46.3V98.6H44.56v-6a.85.85,0,0,1,.2-.53,1.76,1.76,0,0,1,.52-.44,3,3,0,0,1,.77-.29A4.1,4.1,0,0,1,47,91.2h.3a4.1,4.1,0,0,1,.94.11,3.09,3.09,0,0,1,.78.29,1.68,1.68,0,0,1,.53.44.84.84,0,0,1,.19.53Zm-1.77-6c0-.1-.07-.19-.2-.27a1,1,0,0,0-.47-.11H47a1.09,1.09,0,0,0-.48.11q-.21.12-.21.27v3.27H48Z"/><path class="a187c030-d6f2-47bf-928c-d8ae3bd392e7" d="M58.86,97.21a.88.88,0,0,1-.2.54,1.47,1.47,0,0,1-.53.44,2.83,2.83,0,0,1-.79.3,4.19,4.19,0,0,1-1,.11,4.28,4.28,0,0,1-1-.11,2.76,2.76,0,0,1-.78-.3,1.62,1.62,0,0,1-.52-.44.87.87,0,0,1-.19-.54V92.57a.84.84,0,0,1,.19-.53,1.76,1.76,0,0,1,.52-.44,3.09,3.09,0,0,1,.78-.29,4.28,4.28,0,0,1,1-.11,4.19,4.19,0,0,1,1,.11,3.17,3.17,0,0,1,.79.29,1.58,1.58,0,0,1,.53.44.85.85,0,0,1,.2.53Zm-1.78-4.64c0-.1-.07-.19-.2-.27a1.07,1.07,0,0,0-.49-.11,1.06,1.06,0,0,0-.48.11c-.13.08-.2.17-.2.27v4.65a.32.32,0,0,0,.2.28,1,1,0,0,0,.48.11,1,1,0,0,0,.49-.11.32.32,0,0,0,.2-.28Z"/><path class="a187c030-d6f2-47bf-928c-d8ae3bd392e7" d="M63,94.9c.27.6.55,1.22.83,1.86s.57,1.25.85,1.84H62.87l-.77-1.7-.77,1.7H59.51l1.66-3.7c-.27-.6-.54-1.22-.83-1.85s-.56-1.25-.83-1.85h1.82l.77,1.7.77-1.7H64.7Z"/><path class="a187c030-d6f2-47bf-928c-d8ae3bd392e7" d="M70.22,95.46a1,1,0,0,1-.43.78,2.65,2.65,0,0,1-1.11.5V98.6H66.9V96.74a2.48,2.48,0,0,1-1.15-.49,1,1,0,0,1-.43-.79V91.2H67.1v4.26a.33.33,0,0,0,.2.27,1,1,0,0,0,.48.11.9.9,0,0,0,.48-.11.33.33,0,0,0,.19-.27V91.2h1.77Z"/><path class="a187c030-d6f2-47bf-928c-d8ae3bd392e7" d="M75.91,97.22a.87.87,0,0,1-.19.54,2,2,0,0,1-.53.44,3.41,3.41,0,0,1-.78.29,4.12,4.12,0,0,1-1,.11,4.19,4.19,0,0,1-.95-.11,2.54,2.54,0,0,1-.78-.3,1.66,1.66,0,0,1-.53-.44.93.93,0,0,1-.19-.54V92.57A.9.9,0,0,1,71.2,92a1.8,1.8,0,0,1,.53-.44,2.83,2.83,0,0,1,.78-.29,4.19,4.19,0,0,1,.95-.11,4.12,4.12,0,0,1,1,.11,3.41,3.41,0,0,1,.78.29,1.8,1.8,0,0,1,.53.44.84.84,0,0,1,.19.53v.75H74.14v-.75c0-.1-.07-.19-.2-.27a1.07,1.07,0,0,0-.49-.11,1,1,0,0,0-.46.11c-.14.08-.2.17-.2.27v4.65a.3.3,0,0,0,.2.28.85.85,0,0,0,.46.11,1,1,0,0,0,.49-.11.32.32,0,0,0,.2-.28v-1H73v-1h2.89Z"/><path class="a187c030-d6f2-47bf-928c-d8ae3bd392e7" d="M81.14,98.6H76.82V91.2h4.32v1H78.59v2.69h2v1h-2v1.74h2.55Z"/><path class="a187c030-d6f2-47bf-928c-d8ae3bd392e7" d="M87.08,98.6H85.31V94a1.3,1.3,0,0,0-.43-.93,3,3,0,0,0-1.21-.66V98.6H81.89V91.2a9.53,9.53,0,0,1,1.89.17,6.1,6.1,0,0,1,1.53.5V91.2h1.77Z"/><path class="a187c030-d6f2-47bf-928c-d8ae3bd392e7" d="M96.38,98.6H94.6V94a1.26,1.26,0,0,0-.43-.93A2.9,2.9,0,0,0,93,92.43V98.6H91.19V91.2a9.53,9.53,0,0,1,1.89.17,5.9,5.9,0,0,1,1.52.5V91.2h1.78Z"/><path class="a187c030-d6f2-47bf-928c-d8ae3bd392e7" d="M102,97.21a.87.87,0,0,1-.19.54,1.66,1.66,0,0,1-.53.44,3,3,0,0,1-.79.3,4.28,4.28,0,0,1-1,.11,4.19,4.19,0,0,1-1-.11,2.54,2.54,0,0,1-.78-.3,1.66,1.66,0,0,1-.53-.44.93.93,0,0,1-.19-.54V92.57a.9.9,0,0,1,.19-.53,1.8,1.8,0,0,1,.53-.44,2.83,2.83,0,0,1,.78-.29,4.19,4.19,0,0,1,1-.11,4.28,4.28,0,0,1,1,.11,3.33,3.33,0,0,1,.79.29,1.8,1.8,0,0,1,.53.44.84.84,0,0,1,.19.53Zm-1.77-4.64q0-.15-.21-.27a1,1,0,0,0-.49-.11,1,1,0,0,0-.47.11c-.14.08-.2.17-.2.27v4.65a.3.3,0,0,0,.2.28.88.88,0,0,0,.47.11.94.94,0,0,0,.49-.11.31.31,0,0,0,.21-.28Z"/><path class="a187c030-d6f2-47bf-928c-d8ae3bd392e7" d="M107.18,92.19h-1.41V98.6H104V92.19h-1.43v-1h4.61Z"/><path class="a187c030-d6f2-47bf-928c-d8ae3bd392e7" d="M113.16,98.6h-1.78V91.2h1.78Z"/><path class="a187c030-d6f2-47bf-928c-d8ae3bd392e7" d="M119.18,98.6H117.4V94a1.26,1.26,0,0,0-.43-.93,2.9,2.9,0,0,0-1.21-.66V98.6H114V91.2a9.53,9.53,0,0,1,1.89.17,5.9,5.9,0,0,1,1.52.5V91.2h1.78Z"/><path class="a187c030-d6f2-47bf-928c-d8ae3bd392e7" d="M124.81,97.21a.87.87,0,0,1-.19.54,1.6,1.6,0,0,1-.54.44,2.76,2.76,0,0,1-.78.3,4.12,4.12,0,0,1-1,.11,4.35,4.35,0,0,1-1-.11,2.76,2.76,0,0,1-.78-.3,1.52,1.52,0,0,1-.52-.44.88.88,0,0,1-.2-.54V92.57a.85.85,0,0,1,.2-.53,1.64,1.64,0,0,1,.52-.44,3.09,3.09,0,0,1,.78-.29,4.35,4.35,0,0,1,1-.11,4.12,4.12,0,0,1,1,.11,3.09,3.09,0,0,1,.78.29,1.73,1.73,0,0,1,.54.44.84.84,0,0,1,.19.53v.75H123v-.75q0-.15-.21-.27a1,1,0,0,0-.49-.11,1,1,0,0,0-.47.11c-.14.08-.2.17-.2.27v4.65a.3.3,0,0,0,.2.28.88.88,0,0,0,.47.11.91.91,0,0,0,.49-.11.32.32,0,0,0,.21-.28v-.57h1.77Z"/><path class="a187c030-d6f2-47bf-928c-d8ae3bd392e7" d="M129.6,98.6h-4.06V91.2h1.78v6.41h2.28Z"/><path class="a187c030-d6f2-47bf-928c-d8ae3bd392e7" d="M135.34,97.22a.87.87,0,0,1-.19.54,1.56,1.56,0,0,1-.53.44,3.17,3.17,0,0,1-.79.29,4.21,4.21,0,0,1-1,.11,4,4,0,0,1-.94-.11,3.09,3.09,0,0,1-.78-.29,1.56,1.56,0,0,1-.53-.44.88.88,0,0,1-.2-.54v-6h1.78v6a.31.31,0,0,0,.2.27.91.91,0,0,0,.47.11,1,1,0,0,0,.51-.11.3.3,0,0,0,.19-.27v-6h1.77Z"/><path class="a187c030-d6f2-47bf-928c-d8ae3bd392e7" d="M141.32,97.22a.87.87,0,0,1-.19.54,1.56,1.56,0,0,1-.53.44,3.33,3.33,0,0,1-.79.29,4.19,4.19,0,0,1-.95.11h-2.73V91.2h2.73a4.19,4.19,0,0,1,.95.11,3.33,3.33,0,0,1,.79.29,1.68,1.68,0,0,1,.53.44.84.84,0,0,1,.19.53Zm-1.77-4.65q0-.15-.21-.27a1.06,1.06,0,0,0-.48-.11h-1v5.42h1a1,1,0,0,0,.48-.11q.21-.1.21-.27Z"/><path class="a187c030-d6f2-47bf-928c-d8ae3bd392e7" d="M146.38,98.6h-4.32V91.2h4.32v1h-2.55v2.69h2v1h-2v1.74h2.55Z"/><path class="a187c030-d6f2-47bf-928c-d8ae3bd392e7" d="M152.3,97.22a.87.87,0,0,1-.19.54,1.66,1.66,0,0,1-.53.44,3.26,3.26,0,0,1-.8.29,4.19,4.19,0,0,1-.95.11h-2.72V91.2h2.72a4.19,4.19,0,0,1,.95.11,3.26,3.26,0,0,1,.8.29,1.8,1.8,0,0,1,.53.44.84.84,0,0,1,.19.53Zm-1.77-4.65q0-.15-.21-.27a1.06,1.06,0,0,0-.48-.11h-1v5.42h1a1,1,0,0,0,.48-.11q.21-.1.21-.27Z"/><path class="a187c030-d6f2-47bf-928c-d8ae3bd392e7" d="M154.79,98.88a.88.88,0,0,1-.2.54,1.64,1.64,0,0,1-.52.44,2.88,2.88,0,0,1-.77.29,4.1,4.1,0,0,1-.94.11h-1.05v-1h1a1,1,0,0,0,.47-.11.3.3,0,0,0,.2-.27V91c0-.1-.06-.19-.2-.27a1,1,0,0,0-.47-.1h-1v-1h1.05a4.1,4.1,0,0,1,.94.11,2.58,2.58,0,0,1,.77.3,1.62,1.62,0,0,1,.52.43.88.88,0,0,1,.2.54Z"/><text class="f9070c0d-8a76-42e0-9dc6-6f2eeefa2334" transform="translate(13.22 44.86) scale(1.29 1)">Enjoy our PREMIUM<tspan x="0" y="33.49">Accomodations!*</tspan></text><path class="bd1de119-e295-432e-8b16-61c79104ea99" d="M23.34,44h-8V25h8v2.54H18.6v6.92h3.7V37H18.6V41.5h4.74Z"/><path class="bd1de119-e295-432e-8b16-61c79104ea99" d="M34.4,44H31.1V32.26a4,4,0,0,0-.8-2.4A5.29,5.29,0,0,0,28,28.16V44h-3.3V25a13.17,13.17,0,0,1,3.52.42,9.63,9.63,0,0,1,2.84,1.31V25h3.3Z"/><path class="bd1de119-e295-432e-8b16-61c79104ea99" d="M42.19,40.49a2.85,2.85,0,0,1-.36,1.39,3.69,3.69,0,0,1-1,1.13,5.16,5.16,0,0,1-1.44.75,5.37,5.37,0,0,1-1.76.28H35.73V41.5h1.92a1.39,1.39,0,0,0,.87-.28.84.84,0,0,0,.37-.7V25h3.3Z"/><path class="bd1de119-e295-432e-8b16-61c79104ea99" d="M52.82,40.47a2.84,2.84,0,0,1-.36,1.38,3.58,3.58,0,0,1-1,1.14,4.77,4.77,0,0,1-1.47.77,5.77,5.77,0,0,1-3.55,0A4.61,4.61,0,0,1,45,43a3.78,3.78,0,0,1-1-1.14,2.84,2.84,0,0,1-.36-1.38V28.52A2.71,2.71,0,0,1,44,27.16,3.83,3.83,0,0,1,45,26a4.8,4.8,0,0,1,1.46-.76,6,6,0,0,1,3.55,0,5,5,0,0,1,1.47.76,3.62,3.62,0,0,1,1,1.12,2.71,2.71,0,0,1,.36,1.36Zm-3.3-11.94a.86.86,0,0,0-.38-.69,1.43,1.43,0,0,0-.92-.29,1.34,1.34,0,0,0-.87.29.84.84,0,0,0-.38.69v12a.85.85,0,0,0,.38.73,1.39,1.39,0,0,0,.87.28,1.48,1.48,0,0,0,.92-.28.88.88,0,0,0,.38-.73Z"/><path class="bd1de119-e295-432e-8b16-61c79104ea99" d="M63.24,36a3,3,0,0,1-.8,2,4.38,4.38,0,0,1-2.08,1.3V44h-3.3V39.27A4.37,4.37,0,0,1,54.91,38a3,3,0,0,1-.8-2V25h3.31V36a.88.88,0,0,0,.39.71,1.45,1.45,0,0,0,.88.29,1.38,1.38,0,0,0,.89-.29.92.92,0,0,0,.35-.71V25h3.31Z"/><path class="bd1de119-e295-432e-8b16-61c79104ea99" d="M80.33,40.47A2.84,2.84,0,0,1,80,41.85,3.58,3.58,0,0,1,79,43a4.89,4.89,0,0,1-1.47.77,5.8,5.8,0,0,1-3.56,0A4.66,4.66,0,0,1,72.5,43a3.64,3.64,0,0,1-1-1.14,2.84,2.84,0,0,1-.36-1.38V28.52a2.71,2.71,0,0,1,.36-1.36,3.69,3.69,0,0,1,1-1.12A4.86,4.86,0,0,1,74,25.28a6,6,0,0,1,3.56,0A5.11,5.11,0,0,1,79,26a3.62,3.62,0,0,1,1,1.12,2.71,2.71,0,0,1,.36,1.36ZM77,28.53a.85.85,0,0,0-.37-.69,1.45,1.45,0,0,0-.92-.29,1.37,1.37,0,0,0-.88.29.86.86,0,0,0-.38.69v12a.88.88,0,0,0,.38.73,1.42,1.42,0,0,0,.88.28,1.5,1.5,0,0,0,.92-.28.87.87,0,0,0,.37-.73Z"/><path class="bd1de119-e295-432e-8b16-61c79104ea99" d="M91,40.49a2.85,2.85,0,0,1-.36,1.39,3.66,3.66,0,0,1-1,1.13,5.35,5.35,0,0,1-1.47.75,5.53,5.53,0,0,1-1.78.28,5.37,5.37,0,0,1-1.76-.28A5.22,5.22,0,0,1,83.15,43a3.66,3.66,0,0,1-1-1.13,2.85,2.85,0,0,1-.36-1.39V25h3.3V40.52a.85.85,0,0,0,.38.7,1.4,1.4,0,0,0,.88.28,1.45,1.45,0,0,0,.93-.28.86.86,0,0,0,.36-.7V25H91Z"/><path class="bd1de119-e295-432e-8b16-61c79104ea99" d="M101.94,36a2.87,2.87,0,0,1-.7,1.84,4.65,4.65,0,0,1-1.77,1.34c.4.78.84,1.6,1.31,2.45s.9,1.68,1.31,2.46H98.53L96.2,39.49h-.07V44H92.82V25h4.56a5.59,5.59,0,0,1,1.76.27,5.18,5.18,0,0,1,1.46.76,3.59,3.59,0,0,1,1,1.12,2.71,2.71,0,0,1,.36,1.36Zm-3.3-7.43a.88.88,0,0,0-.35-.68,1.34,1.34,0,0,0-.89-.29H96.13V37H97.4a1.31,1.31,0,0,0,.89-.31.94.94,0,0,0,.35-.72Z"/><path class="bd1de119-e295-432e-8b16-61c79104ea99" d="M119.07,36a2.87,2.87,0,0,1-.35,1.39,3.62,3.62,0,0,1-1,1.12,4.91,4.91,0,0,1-1.44.75,5.31,5.31,0,0,1-1.75.28h-1.28V44H110V25h4.56a5.64,5.64,0,0,1,1.76.27,5.18,5.18,0,0,1,1.46.76,3.59,3.59,0,0,1,1,1.12,2.71,2.71,0,0,1,.36,1.36Zm-3.3-7.43a.88.88,0,0,0-.35-.68,1.34,1.34,0,0,0-.89-.29h-1.27V37h1.27a1.4,1.4,0,0,0,.89-.29.92.92,0,0,0,.35-.71Z"/><path class="bd1de119-e295-432e-8b16-61c79104ea99" d="M129.67,36a2.92,2.92,0,0,1-.7,1.84,4.69,4.69,0,0,1-1.78,1.34c.41.78.84,1.6,1.31,2.45s.9,1.68,1.31,2.46h-3.56l-2.33-4.55h-.07V44h-3.31V25h4.56a5.7,5.7,0,0,1,1.77.27,5.12,5.12,0,0,1,1.45.76,3.62,3.62,0,0,1,1,1.12,2.71,2.71,0,0,1,.36,1.36Zm-3.31-7.43a.88.88,0,0,0-.35-.68,1.33,1.33,0,0,0-.89-.29h-1.27V37h1.27a1.29,1.29,0,0,0,.89-.31.94.94,0,0,0,.35-.72Z"/><path class="bd1de119-e295-432e-8b16-61c79104ea99" d="M139.61,44h-8V25h8v2.54h-4.74v6.92h3.7V37h-3.7V41.5h4.74Z"/><path class="bd1de119-e295-432e-8b16-61c79104ea99" d="M155.13,44h-3.31V28.3a4.1,4.1,0,0,0-1.48,1.34,3.21,3.21,0,0,0-.53,1.79V44h-3.3V31.43a3.17,3.17,0,0,0-.54-1.76,4.13,4.13,0,0,0-1.47-1.37V44h-3.31V25a11,11,0,0,1,3.94.68,8.22,8.22,0,0,1,3,1.88,8.26,8.26,0,0,1,3-1.88,11.23,11.23,0,0,1,4-.68Z"/><path class="bd1de119-e295-432e-8b16-61c79104ea99" d="M160.15,44h-3.3V25h3.3Z"/><path class="bd1de119-e295-432e-8b16-61c79104ea99" d="M171.07,40.49a2.85,2.85,0,0,1-.36,1.39,3.66,3.66,0,0,1-1,1.13,5.35,5.35,0,0,1-1.47.75,5.53,5.53,0,0,1-1.78.28,5.37,5.37,0,0,1-3.21-1,3.66,3.66,0,0,1-1-1.13,2.85,2.85,0,0,1-.36-1.39V25h3.3V40.52a.85.85,0,0,0,.38.7,1.6,1.6,0,0,0,1.81,0,.86.86,0,0,0,.36-.7V25h3.31Z"/><path class="bd1de119-e295-432e-8b16-61c79104ea99" d="M186.69,44h-3.3V28.3a4.13,4.13,0,0,0-1.49,1.34,3.21,3.21,0,0,0-.53,1.79V44h-3.3V31.43a3.17,3.17,0,0,0-.54-1.76,4.13,4.13,0,0,0-1.47-1.37V44h-3.3V25a11,11,0,0,1,3.94.68,8.26,8.26,0,0,1,3,1.88,8.3,8.3,0,0,1,3-1.88,11.13,11.13,0,0,1,4-.68Z"/><path class="bd1de119-e295-432e-8b16-61c79104ea99" d="M24.63,77.53h-3.3V73H18.24v4.55H15V62a2.71,2.71,0,0,1,.36-1.36,3.69,3.69,0,0,1,1-1.12,4.81,4.81,0,0,1,1.44-.76,5.59,5.59,0,0,1,1.76-.27h.53a5.59,5.59,0,0,1,1.76.27,5.18,5.18,0,0,1,1.46.76,3.47,3.47,0,0,1,1,1.12A2.71,2.71,0,0,1,24.63,62ZM21.33,62a.85.85,0,0,0-.38-.68,1.35,1.35,0,0,0-.88-.29h-.53a1.43,1.43,0,0,0-.9.29.82.82,0,0,0-.4.68v8.43h3.09Z"/><path class="bd1de119-e295-432e-8b16-61c79104ea99" d="M35.23,74a2.84,2.84,0,0,1-.36,1.38,3.49,3.49,0,0,1-1,1.14,4.83,4.83,0,0,1-1.46.77,5.37,5.37,0,0,1-1.76.28,5.59,5.59,0,0,1-1.79-.28,4.72,4.72,0,0,1-1.46-.77,3.78,3.78,0,0,1-1-1.14A2.84,2.84,0,0,1,26.07,74V62a2.71,2.71,0,0,1,.36-1.36,3.83,3.83,0,0,1,1-1.12,4.92,4.92,0,0,1,1.46-.76,5.88,5.88,0,0,1,1.79-.27,5.64,5.64,0,0,1,1.76.27,5,5,0,0,1,1.46.76,3.53,3.53,0,0,1,1,1.12A2.71,2.71,0,0,1,35.23,62v1.93H31.92V62a.83.83,0,0,0-.37-.68,1.45,1.45,0,0,0-.92-.29,1.37,1.37,0,0,0-.88.29.85.85,0,0,0-.38.68V74a.88.88,0,0,0,.38.73,1.42,1.42,0,0,0,.88.28,1.5,1.5,0,0,0,.92-.28.89.89,0,0,0,.37-.74V72.51h3.31Z"/><path class="bd1de119-e295-432e-8b16-61c79104ea99" d="M45.71,74a2.84,2.84,0,0,1-.36,1.38,3.58,3.58,0,0,1-1,1.14,5,5,0,0,1-1.46.77,5.38,5.38,0,0,1-1.77.28,5.53,5.53,0,0,1-1.78-.28,4.61,4.61,0,0,1-1.46-.77,3.64,3.64,0,0,1-1-1.14A2.84,2.84,0,0,1,36.56,74V62a2.71,2.71,0,0,1,.36-1.36,3.69,3.69,0,0,1,1-1.12,4.8,4.8,0,0,1,1.46-.76,5.81,5.81,0,0,1,1.78-.27,5.66,5.66,0,0,1,1.77.27,5.18,5.18,0,0,1,1.46.76,3.62,3.62,0,0,1,1,1.12A2.71,2.71,0,0,1,45.71,62v1.93h-3.3V62a.85.85,0,0,0-.38-.68,1.42,1.42,0,0,0-.91-.29,1.35,1.35,0,0,0-.88.29.85.85,0,0,0-.38.68V74a.88.88,0,0,0,.38.73,1.4,1.4,0,0,0,.88.28,1.47,1.47,0,0,0,.91-.28.9.9,0,0,0,.38-.74V72.51h3.3Z"/><path class="bd1de119-e295-432e-8b16-61c79104ea99" d="M56.16,74a2.84,2.84,0,0,1-.36,1.38,3.58,3.58,0,0,1-1,1.14,4.77,4.77,0,0,1-1.47.77,5.77,5.77,0,0,1-3.55,0,4.61,4.61,0,0,1-1.46-.77,3.78,3.78,0,0,1-1-1.14A2.84,2.84,0,0,1,47,74V62a2.71,2.71,0,0,1,.36-1.36,3.83,3.83,0,0,1,1-1.12,4.8,4.8,0,0,1,1.46-.76,6,6,0,0,1,3.55,0,5,5,0,0,1,1.47.76,3.62,3.62,0,0,1,1,1.12A2.71,2.71,0,0,1,56.16,62ZM52.86,62a.85.85,0,0,0-.38-.68,1.43,1.43,0,0,0-.92-.29,1.34,1.34,0,0,0-.87.29.82.82,0,0,0-.38.68V74a.85.85,0,0,0,.38.73,1.39,1.39,0,0,0,.87.28,1.48,1.48,0,0,0,.92-.28.88.88,0,0,0,.38-.73Z"/><path class="bd1de119-e295-432e-8b16-61c79104ea99" d="M71.53,77.53h-3.3V61.79a4,4,0,0,0-1.48,1.34,3.13,3.13,0,0,0-.53,1.79V77.53H62.91V64.92a3.17,3.17,0,0,0-.54-1.76,4.13,4.13,0,0,0-1.47-1.37V77.53H57.6v-19a11,11,0,0,1,3.94.68,8.25,8.25,0,0,1,3,1.88,8.13,8.13,0,0,1,3-1.88,11.13,11.13,0,0,1,4-.68Z"/><path class="bd1de119-e295-432e-8b16-61c79104ea99" d="M82.09,74a2.84,2.84,0,0,1-.36,1.38,3.58,3.58,0,0,1-1,1.14,4.89,4.89,0,0,1-1.47.77,5.8,5.8,0,0,1-3.56,0,4.66,4.66,0,0,1-1.45-.77,3.64,3.64,0,0,1-1-1.14A2.84,2.84,0,0,1,72.93,74V62a2.71,2.71,0,0,1,.36-1.36,3.69,3.69,0,0,1,1-1.12,4.86,4.86,0,0,1,1.45-.76,6,6,0,0,1,3.56,0,5.11,5.11,0,0,1,1.47.76,3.62,3.62,0,0,1,1,1.12A2.71,2.71,0,0,1,82.09,62ZM78.78,62a.83.83,0,0,0-.37-.68,1.43,1.43,0,0,0-.92-.29,1.37,1.37,0,0,0-.88.29.85.85,0,0,0-.38.68V74a.88.88,0,0,0,.38.73,1.42,1.42,0,0,0,.88.28,1.48,1.48,0,0,0,.92-.28.87.87,0,0,0,.37-.73Z"/><path class="bd1de119-e295-432e-8b16-61c79104ea99" d="M93,74a2.85,2.85,0,0,1-.36,1.39,3.66,3.66,0,0,1-1,1.13,5.35,5.35,0,0,1-1.47.75,5.53,5.53,0,0,1-1.78.28H83.31v-19h5.06a5.81,5.81,0,0,1,1.78.27,5.11,5.11,0,0,1,1.47.76,3.62,3.62,0,0,1,1,1.12A2.71,2.71,0,0,1,93,62ZM89.66,62a.83.83,0,0,0-.39-.68,1.39,1.39,0,0,0-.88-.29H86.61V75h1.78a1.44,1.44,0,0,0,.88-.28.84.84,0,0,0,.39-.7Z"/><path class="bd1de119-e295-432e-8b16-61c79104ea99" d="M103.67,77.53h-3.3V73H97.28v4.55H94V62a2.71,2.71,0,0,1,.36-1.36,3.83,3.83,0,0,1,1-1.12,4.93,4.93,0,0,1,1.44-.76,5.64,5.64,0,0,1,1.76-.27h.54a5.64,5.64,0,0,1,1.76.27,5.12,5.12,0,0,1,1.45.76,3.62,3.62,0,0,1,1,1.12,2.71,2.71,0,0,1,.36,1.36ZM100.37,62a.85.85,0,0,0-.38-.68,1.37,1.37,0,0,0-.88-.29h-.54a1.43,1.43,0,0,0-.9.29.83.83,0,0,0-.39.68v8.43h3.09Z"/><path class="bd1de119-e295-432e-8b16-61c79104ea99" d="M113.4,61h-2.62V77.53h-3.31V61h-2.65V58.5h8.58Z"/><path class="bd1de119-e295-432e-8b16-61c79104ea99" d="M118.1,77.53h-3.3v-19h3.3Z"/><path class="bd1de119-e295-432e-8b16-61c79104ea99" d="M128.88,74a2.84,2.84,0,0,1-.36,1.38,3.58,3.58,0,0,1-1,1.14,4.89,4.89,0,0,1-1.47.77,5.8,5.8,0,0,1-3.56,0,4.66,4.66,0,0,1-1.45-.77,3.64,3.64,0,0,1-1-1.14,2.84,2.84,0,0,1-.36-1.38V62a2.71,2.71,0,0,1,.36-1.36,3.69,3.69,0,0,1,1-1.12,4.86,4.86,0,0,1,1.45-.76,6,6,0,0,1,3.56,0,5.11,5.11,0,0,1,1.47.76,3.62,3.62,0,0,1,1,1.12,2.71,2.71,0,0,1,.36,1.36ZM125.57,62a.83.83,0,0,0-.37-.68,1.45,1.45,0,0,0-.92-.29,1.35,1.35,0,0,0-.88.29A.85.85,0,0,0,123,62V74a.88.88,0,0,0,.38.73,1.4,1.4,0,0,0,.88.28,1.5,1.5,0,0,0,.92-.28.87.87,0,0,0,.37-.73Z"/><path class="bd1de119-e295-432e-8b16-61c79104ea99" d="M139.79,77.53h-3.3V65.75a4,4,0,0,0-.8-2.4,5.26,5.26,0,0,0-2.25-1.7V77.53h-3.31v-19a13.61,13.61,0,0,1,3.52.41,9.66,9.66,0,0,1,2.84,1.32V58.5h3.3Z"/><path class="bd1de119-e295-432e-8b16-61c79104ea99" d="M144.28,63.41a3.08,3.08,0,0,0,.79,2.12,23.44,23.44,0,0,0,1.8,1.79c.38.35.77.72,1.16,1.1a8.59,8.59,0,0,1,1.06,1.21,6.37,6.37,0,0,1,.76,1.41,4.79,4.79,0,0,1,.28,1.69V74a2.85,2.85,0,0,1-.36,1.39,3.62,3.62,0,0,1-1,1.13,5.27,5.27,0,0,1-1.48.75,5.47,5.47,0,0,1-1.77.28,5.32,5.32,0,0,1-1.76-.28,5.43,5.43,0,0,1-1.46-.75,3.5,3.5,0,0,1-1-1.13A2.85,2.85,0,0,1,141,74V72.51h3.3V74a.87.87,0,0,0,.38.71,1.4,1.4,0,0,0,.88.28,1.45,1.45,0,0,0,.91-.28.85.85,0,0,0,.38-.7V72.75a3.27,3.27,0,0,0-.84-2.22,22.46,22.46,0,0,0-1.89-1.89c-.38-.33-.76-.67-1.13-1a8.24,8.24,0,0,1-1-1.12,5.17,5.17,0,0,1-.71-1.28A4.15,4.15,0,0,1,141,63.7V62a2.75,2.75,0,0,1,.36-1.37,3.47,3.47,0,0,1,1-1.12,4.91,4.91,0,0,1,1.46-.75,5.32,5.32,0,0,1,1.76-.28,5.75,5.75,0,0,1,1.77.27,5,5,0,0,1,1.48.76,3.59,3.59,0,0,1,1,1.12,2.71,2.71,0,0,1,.36,1.36v1.93h-3.3V62a.85.85,0,0,0-.38-.68,1.4,1.4,0,0,0-.91-.29,1.35,1.35,0,0,0-.88.29.85.85,0,0,0-.38.68Z"/><path class="bd1de119-e295-432e-8b16-61c79104ea99" d="M154.84,74.24h-3.31V58.5h3.31Zm0,3.29h-3.31V75h3.31Z"/><path class="bd1de119-e295-432e-8b16-61c79104ea99" d="M164,60.31l-2.55,1.4L164,63.1l-.9,1-2.22-1.2V65h-1.55V62.88l-2.19,1.2-.9-1,2.52-1.39-2.52-1.4.9-1,2.19,1.2V58.44h1.55v2.09l2.22-1.2Z"/></g></g></svg>