<svg xmlns="http://www.w3.org/2000/svg" viewBox="0 0 800 250"><defs><style>.a54a3103-d3ec-4a67-a754-b42b1ee5aefb{fill:none;}.b04af0c7-b79c-42f9-9c6a-07a74de4129a{fill:#fff;}.a9529e52-670d-4a60-90fe-281fbfd69717{fill:#d7d6ed;}.b9bfc13d-e2ea-4bd1-b9af-30a4a04ff562{fill:#ff5628;}.b9991631-bfa9-4713-bc50-70b042a53803{fill:#ff901e;}.afe95b27-902c-4836-8354-5bdd885a861d{fill:#ffbd11;}.a05c32cd-4bb9-40d9-a9ff-707c3ac89af7{fill:#ffe25f;}.b80b3597-23a0-4d8a-9a8f-173ab9dec77a{fill:#ff3153;}.a636d764-5824-43af-b1f9-fa958771166b{fill:#c52745;}.a531edb0-9a38-400f-be7b-7d50e76c9c13{fill:#dcd5e2;}.eb8627d1-5657-4dbc-9d75-1add6a5166cc{fill:#e1dedc;}.a86c8ae0-cb33-4936-8d94-1fd3fd487a3a{fill:#2f4261;}.a99314cf-b65e-4b14-bc8c-4ffef13784e8{fill:#6ebbe9;}.e58f31d7-3193-4815-a8f8-b1a1b6257998{fill:#a9e2ff;}.b4f1abca-3f00-4844-979a-c7739e4ee64d{fill:#b5b0b6;}.f3083667-c967-424a-beaa-b95002b235e2{fill:#963;}.badcd998-11dc-40d8-a8f9-3e7d685c4c1b{fill:#fab55f;}.b7994481-5b43-4a51-9aa1-ce3b5f73ff24{fill:#eeefc6;}</style></defs><g id="bb59c551-66bd-4ce3-94b3-e27bc9017ad8" data-name="Background"><rect class="a54a3103-d3ec-4a67-a754-b42b1ee5aefb" width="800" height="250"/></g><g id="e236bd71-ac8a-453f-aebe-f7b21ffc346c" data-name="Rocket"><path class="b04af0c7-b79c-42f9-9c6a-07a74de4129a" d="M40,250H96a20.1,20.1,0,0,0-.29-9.3A11.36,11.36,0,0,0,95,218c-.3,0-.59,0-.88,0l41.55-63.71-69,45a8,8,0,0,0-11.38-1.78C48.72,191.87,40,194,40,194"/><circle class="b04af0c7-b79c-42f9-9c6a-07a74de4129a" cx="55.45" cy="190.79" r="1.5"/><circle class="b04af0c7-b79c-42f9-9c6a-07a74de4129a" cx="103.66" cy="215.22" r="2.5"/><path class="a9529e52-670d-4a60-90fe-281fbfd69717" d="M40,250l95.68-95.68-69,45a8,8,0,0,0-11.38-1.78C48.72,191.87,40,194,40,194s-15.61-5.6-20.29,14.32c0,0-17.58,9.93-11.21,35.18,0,0,2.13,6.48,5.82,6.48Z"/><path class="b9bfc13d-e2ea-4bd1-b9af-30a4a04ff562" d="M152.11,164c-7.21,7.21-40.28,14.19-40.28,14.19s7-33.07,14.19-40.27,22.28-10.6,29.48-3.4S159.31,156.77,152.11,164Z"/><path class="b9991631-bfa9-4713-bc50-70b042a53803" d="M151.33,158.76c-5.55,5.55-31,10.93-31,10.93s5.38-25.48,10.93-31S148.4,130.49,154,136,156.89,153.21,151.33,158.76Z"/><path class="afe95b27-902c-4836-8354-5bdd885a861d" d="M151.75,153.9c-4.32,4.33-24.17,8.52-24.17,8.52s4.19-19.86,8.51-24.18,13.38-6.36,17.7-2S156.08,149.58,151.75,153.9Z"/><path class="a05c32cd-4bb9-40d9-a9ff-707c3ac89af7" d="M151.31,148.92c-2.83,2.82-15.8,5.56-15.8,5.56s2.74-13,5.56-15.8,8.74-4.15,11.57-1.33S154.13,146.09,151.31,148.92Z"/><path class="b80b3597-23a0-4d8a-9a8f-173ab9dec77a" d="M165.39,87.51c-42.29,0-38.84,13.6-49.66,49.67L139,128.25Z"/><path class="b80b3597-23a0-4d8a-9a8f-173ab9dec77a" d="M202.48,124.6c0,42.29-13.6,38.85-49.66,49.66L161.74,151Z"/><path class="a636d764-5824-43af-b1f9-fa958771166b" d="M152.82,174.26c11.29-3.38,20.39-5.37,27.55-7.81-5.51-4.42-10.48-13.6,4.52-30.47l-23.15,15Z"/><path class="a636d764-5824-43af-b1f9-fa958771166b" d="M115.73,137.18,139,128.25,165,88.15c-16.9,20.82-30.52,38.34-43.47,28.13C119.85,122.19,118.14,129.12,115.73,137.18Z"/><path class="b04af0c7-b79c-42f9-9c6a-07a74de4129a" d="M228.47,102.48c21.33-22.84,19.42-60.37,19.42-60.37s-37.53-1.9-60.36,19.42S139,128.25,139,128.25L161.76,151S207.15,125.31,228.47,102.48Z"/><path class="a531edb0-9a38-400f-be7b-7d50e76c9c13" d="M226.09,43.86c-12.2,2.21-27.2,7.07-38.56,17.67C164.69,82.86,139,128.25,139,128.25L161.76,151s2.62-1.49,6.9-4.06C141.93,128.75,152,90.77,226.09,43.86Z"/><path class="b80b3597-23a0-4d8a-9a8f-173ab9dec77a" d="M243.62,74.63a108.73,108.73,0,0,0,4.27-32.52,108.51,108.51,0,0,0-32.51,4.28Z"/><path class="a636d764-5824-43af-b1f9-fa958771166b" d="M215.38,46.39l28.24,28.24c.13-.45.26-.9.38-1.34-12-9.93-27.17-27,3.89-31.18A108.51,108.51,0,0,0,215.38,46.39Z"/><circle class="eb8627d1-5657-4dbc-9d75-1add6a5166cc" cx="206.46" cy="82.27" r="16.97" transform="translate(2.3 170.08) rotate(-45)"/><circle class="a636d764-5824-43af-b1f9-fa958771166b" cx="206.46" cy="82.27" r="15.82"/><circle class="b80b3597-23a0-4d8a-9a8f-173ab9dec77a" cx="206.46" cy="82.27" r="14.82" transform="translate(2.3 170.08) rotate(-45)"/><circle class="a86c8ae0-cb33-4936-8d94-1fd3fd487a3a" cx="206.46" cy="82.27" r="12.53" transform="translate(2.3 170.08) rotate(-45)"/><circle class="a99314cf-b65e-4b14-bc8c-4ffef13784e8" cx="206.46" cy="82.27" r="11.74" transform="translate(2.3 170.08) rotate(-45)"/><path class="e58f31d7-3193-4815-a8f8-b1a1b6257998" d="M194.71,82.27a11.68,11.68,0,0,0,4.7,9.37l16.42-16.42a11.72,11.72,0,0,0-9.37-4.69l-.43,0L194.74,81.84C194.73,82,194.71,82.13,194.71,82.27Z"/><path class="e58f31d7-3193-4815-a8f8-b1a1b6257998" d="M217.32,77.82,202,93.13a11.62,11.62,0,0,0,3,.78l13.1-13.09A11.93,11.93,0,0,0,217.32,77.82Z"/><circle class="b4f1abca-3f00-4844-979a-c7739e4ee64d" cx="214.99" cy="48.77" r="0.67"/><path class="b4f1abca-3f00-4844-979a-c7739e4ee64d" d="M219.09,52.87a.67.67,0,0,1-1-.95.66.66,0,0,1,1,0A.68.68,0,0,1,219.09,52.87Z"/><circle class="b4f1abca-3f00-4844-979a-c7739e4ee64d" cx="222.24" cy="56.01" r="0.67"/><path class="b4f1abca-3f00-4844-979a-c7739e4ee64d" d="M226.33,60.11a.67.67,0,1,1,0-1A.66.66,0,0,1,226.33,60.11Z"/><path class="b4f1abca-3f00-4844-979a-c7739e4ee64d" d="M230,63.73a.68.68,0,0,1-1-.95.69.69,0,0,1,1,0A.68.68,0,0,1,230,63.73Z"/><circle class="b4f1abca-3f00-4844-979a-c7739e4ee64d" cx="233.1" cy="66.88" r="0.67"/><path class="b4f1abca-3f00-4844-979a-c7739e4ee64d" d="M237.2,71a.68.68,0,1,1,0-1A.69.69,0,0,1,237.2,71Z"/><circle class="b4f1abca-3f00-4844-979a-c7739e4ee64d" cx="240.34" cy="74.12" r="0.67"/><path class="b4f1abca-3f00-4844-979a-c7739e4ee64d" d="M142.35,128.76a.74.74,0,1,1,0-1A.74.74,0,0,1,142.35,128.76Z"/><path class="b4f1abca-3f00-4844-979a-c7739e4ee64d" d="M146.35,132.76a.74.74,0,1,1,0-1A.74.74,0,0,1,146.35,132.76Z"/><path class="b4f1abca-3f00-4844-979a-c7739e4ee64d" d="M150.35,136.76a.74.74,0,0,1-1,0,.75.75,0,0,1,0-1.06.74.74,0,0,1,1,0A.75.75,0,0,1,150.35,136.76Z"/><path class="b4f1abca-3f00-4844-979a-c7739e4ee64d" d="M154.35,140.75a.74.74,0,1,1,0-1.05A.74.74,0,0,1,154.35,140.75Z"/><path class="b4f1abca-3f00-4844-979a-c7739e4ee64d" d="M158.35,144.75a.74.74,0,1,1,0-1.05A.74.74,0,0,1,158.35,144.75Z"/><path class="b4f1abca-3f00-4844-979a-c7739e4ee64d" d="M162.35,148.75a.74.74,0,1,1,0-1.05A.74.74,0,0,1,162.35,148.75Z"/><path class="b80b3597-23a0-4d8a-9a8f-173ab9dec77a" d="M185.28,104.73l-51,51a290.14,290.14,0,0,1,29.83-35C182.07,102.77,185.28,104.73,185.28,104.73Z"/><path class="a636d764-5824-43af-b1f9-fa958771166b" d="M185.28,104.73l-51,51a290.54,290.54,0,0,0,35-29.83C187.24,107.94,185.28,104.73,185.28,104.73Z"/><path class="b04af0c7-b79c-42f9-9c6a-07a74de4129a" d="M246.51,44.25s.65,9.71-3.17,26.87C243.34,71.12,244.24,59.73,246.51,44.25Z"/></g><g id="b9d98794-24cc-4b80-950f-330269691f04" data-name="Title"><path class="f3083667-c967-424a-beaa-b95002b235e2" d="M292,94.49h-8.13l-9.11,61.07h-10l9.11-61.07H265.8l1.32-9.41h26.23Z"/><path class="f3083667-c967-424a-beaa-b95002b235e2" d="M319.37,125.59a14.21,14.21,0,0,1-3.13,6.82,17.9,17.9,0,0,1-6.2,5c.8,2.89,1.68,5.93,2.63,9.1s1.87,6.19,2.75,9.09H304.55l-4.83-16.85h-.22l-2.41,16.85h-10l10.43-70.48h13.94a13.2,13.2,0,0,1,5.26,1,12,12,0,0,1,4.07,2.79A10.43,10.43,0,0,1,323.16,93a12.37,12.37,0,0,1,.38,5.07Zm-5.93-27.48a3,3,0,0,0-.71-2.54,3.22,3.22,0,0,0-2.58-1.08H306.2l-5.27,34.92h3.95a4.2,4.2,0,0,0,2.91-1.13,4.41,4.41,0,0,0,1.48-2.69Z"/><path class="f3083667-c967-424a-beaa-b95002b235e2" d="M349.34,155.56h-10.1l2.41-16.85h-9.44l-2.41,16.85h-9.88l8.56-57.45A12.29,12.29,0,0,1,330.29,93a17,17,0,0,1,3.62-4.13,17.69,17.69,0,0,1,4.78-2.79,14.84,14.84,0,0,1,5.49-1h1.64a13.25,13.25,0,0,1,5.27,1,11.84,11.84,0,0,1,4.06,2.79A10.19,10.19,0,0,1,357.51,93a12.2,12.2,0,0,1,.39,5.07ZM347.8,98.11a3,3,0,0,0-.77-2.54,3.27,3.27,0,0,0-2.52-1.08h-1.65A4.61,4.61,0,0,0,340,95.57a3.93,3.93,0,0,0-1.59,2.54l-4.72,31.2h9.44Z"/><path class="f3083667-c967-424a-beaa-b95002b235e2" d="M388.08,121.36q-2.52,16.72-15.25,34.2H363.6Q356,138,358.55,121.36l5.38-36.28h10l-4.83,32.86a56.81,56.81,0,0,0-.6,12.3,73.42,73.42,0,0,0,1.7,11.68,73.45,73.45,0,0,0,5.32-11.63,62.47,62.47,0,0,0,2.8-11.42l5.05-33.79h10.1Z"/><path class="f3083667-c967-424a-beaa-b95002b235e2" d="M412.78,155.56H388.19l10.43-70.48h24.59l-1.32,9.41h-14.6l-3.84,25.62h11.42l-1.43,9.41H402l-2.52,16.64h14.6Z"/><path class="f3083667-c967-424a-beaa-b95002b235e2" d="M440.55,155.56H417.5l10.43-70.48H438l-9.11,61.08h12.95Z"/><path class="f3083667-c967-424a-beaa-b95002b235e2" d="M499.06,94.49h-8.13l-9.11,61.07h-10L481,94.49h-8.13l1.32-9.41h26.23Z"/><path class="f3083667-c967-424a-beaa-b95002b235e2" d="M523.1,142.33a12.72,12.72,0,0,1-1.82,5.12,16.51,16.51,0,0,1-3.67,4.23,17.34,17.34,0,0,1-4.89,2.84,15.29,15.29,0,0,1-5.54,1,13.57,13.57,0,0,1-5.32-1,10.77,10.77,0,0,1-4.07-2.84,10.88,10.88,0,0,1-2.3-4.23,12.49,12.49,0,0,1-.39-5.12l6.7-44.22A12.29,12.29,0,0,1,503.61,93a17,17,0,0,1,3.62-4.13,17.52,17.52,0,0,1,4.83-2.79,15.35,15.35,0,0,1,5.55-1,13.64,13.64,0,0,1,5.32,1,11.82,11.82,0,0,1,4.12,2.79A10.43,10.43,0,0,1,529.41,93a12.37,12.37,0,0,1,.38,5.07Zm-3.41-44.22a2.92,2.92,0,0,0-.77-2.53,3.35,3.35,0,0,0-2.63-1.09,4.34,4.34,0,0,0-2.85,1.09,4,4,0,0,0-1.54,2.53l-6.7,44.32a3.12,3.12,0,0,0,.77,2.69,3.35,3.35,0,0,0,2.53,1,4.69,4.69,0,0,0,3-1,4,4,0,0,0,1.54-2.69Z"/><path class="f3083667-c967-424a-beaa-b95002b235e2" d="M562.5,103.27a11.42,11.42,0,0,0,1.15,7.85,54.53,54.53,0,0,0,4.56,6.62l3,4.08a23.63,23.63,0,0,1,2.58,4.49,20.68,20.68,0,0,1,1.48,5.22,21.77,21.77,0,0,1,0,6.25l-.76,4.65a12.67,12.67,0,0,1-1.82,5.12,15.81,15.81,0,0,1-3.67,4.18,17.93,17.93,0,0,1-4.89,2.79,15.29,15.29,0,0,1-5.54,1,13.25,13.25,0,0,1-5.27-1,11.67,11.67,0,0,1-4.06-2.79,10.12,10.12,0,0,1-2.36-4.18,12.48,12.48,0,0,1-.39-5.12l.88-5.47h10.1l-.88,5.54a3,3,0,0,0,.77,2.61,3.32,3.32,0,0,0,2.53,1,4.69,4.69,0,0,0,3-1,3.9,3.9,0,0,0,1.54-2.59l.76-4.66a12.55,12.55,0,0,0-1.37-8.22,52.78,52.78,0,0,0-4.77-7c-1-1.24-1.91-2.5-2.86-3.78a24.48,24.48,0,0,1-2.47-4.14,18.72,18.72,0,0,1-1.48-4.76,18.34,18.34,0,0,1,0-5.64l1-6.21A12.24,12.24,0,0,1,555,93.06a16.37,16.37,0,0,1,3.68-4.15,18.44,18.44,0,0,1,4.83-2.79,14.88,14.88,0,0,1,5.49-1,13.64,13.64,0,0,1,5.32,1,11.82,11.82,0,0,1,4.12,2.79A10.43,10.43,0,0,1,580.78,93a12.37,12.37,0,0,1,.38,5.07l-1.1,7.12H570l1.1-7.12a2.94,2.94,0,0,0-.77-2.54,3.37,3.37,0,0,0-2.63-1.08,4.38,4.38,0,0,0-2.85,1.08,4,4,0,0,0-1.54,2.54Z"/><path class="f3083667-c967-424a-beaa-b95002b235e2" d="M608.93,125.59a14.26,14.26,0,0,1-1.86,5.17,15.54,15.54,0,0,1-3.63,4.13,18.25,18.25,0,0,1-4.88,2.79,15.32,15.32,0,0,1-5.54,1h-4l-2.41,16.85h-10l10.43-70.48H601a13.25,13.25,0,0,1,5.27,1,11.94,11.94,0,0,1,4.06,2.79A10.31,10.31,0,0,1,612.72,93a12.37,12.37,0,0,1,.38,5.07ZM603,98.11a3,3,0,0,0-.71-2.54,3.22,3.22,0,0,0-2.58-1.08h-4l-5.27,34.82h4a4.34,4.34,0,0,0,2.91-1.08,4.17,4.17,0,0,0,1.48-2.64Z"/><path class="f3083667-c967-424a-beaa-b95002b235e2" d="M637.58,155.56h-10.1l2.42-16.85h-9.44L618,155.56h-9.88l8.57-57.45A12.29,12.29,0,0,1,618.54,93a16.84,16.84,0,0,1,3.62-4.13,17.69,17.69,0,0,1,4.78-2.79,14.82,14.82,0,0,1,5.48-1h1.65a13.25,13.25,0,0,1,5.27,1,11.94,11.94,0,0,1,4.06,2.79A10.31,10.31,0,0,1,645.76,93a12.2,12.2,0,0,1,.38,5.07Zm-1.53-57.45a3,3,0,0,0-.77-2.54,3.27,3.27,0,0,0-2.53-1.08h-1.64a4.61,4.61,0,0,0-2.91,1.08,3.93,3.93,0,0,0-1.59,2.54l-4.72,31.2h9.44Z"/><path class="f3083667-c967-424a-beaa-b95002b235e2" d="M671.72,142.33a12.7,12.7,0,0,1-1.81,5.12,16.74,16.74,0,0,1-3.68,4.23,17.3,17.3,0,0,1-4.83,2.84,14.91,14.91,0,0,1-5.49,1,13.64,13.64,0,0,1-5.32-1,10.73,10.73,0,0,1-4.06-2.84,11,11,0,0,1-2.31-4.23,12.67,12.67,0,0,1-.38-5.12l6.69-44.22A12.43,12.43,0,0,1,652.34,93,16.88,16.88,0,0,1,656,88.91a17.23,17.23,0,0,1,4.83-2.79,15.29,15.29,0,0,1,5.54-1,13.25,13.25,0,0,1,5.27,1,11.94,11.94,0,0,1,4.06,2.79A10.31,10.31,0,0,1,678,93a12.2,12.2,0,0,1,.38,5.07l-1.09,7.12h-10l1.1-7.12a3,3,0,0,0-.77-2.54A3.41,3.41,0,0,0,665,94.49a4.37,4.37,0,0,0-2.85,1.09,4,4,0,0,0-1.54,2.53l-6.69,44.32a3.09,3.09,0,0,0,.77,2.69,3.31,3.31,0,0,0,2.52,1,4.6,4.6,0,0,0,3-1,4,4,0,0,0,1.54-2.72l.88-5.43h10Z"/><path class="f3083667-c967-424a-beaa-b95002b235e2" d="M699.38,155.56H674.79l10.43-70.48h24.59l-1.32,9.41h-14.6l-3.84,25.62h11.42L700,129.52H688.62l-2.52,16.64h14.6Z"/><path class="badcd998-11dc-40d8-a8f9-3e7d685c4c1b" d="M294.3,91.3h-8.12l-9.12,61.06h-10l9.11-61.06h-8.13l1.32-9.41h26.24Z"/><path class="badcd998-11dc-40d8-a8f9-3e7d685c4c1b" d="M321.63,122.4a14.25,14.25,0,0,1-3.13,6.82,17.93,17.93,0,0,1-6.2,5q1.2,4.33,2.63,9.09t2.75,9.09H306.81L302,135.52h-.22l-2.41,16.84h-10l10.43-70.47h13.94a13.42,13.42,0,0,1,5.27,1,11.83,11.83,0,0,1,4.06,2.8,10.24,10.24,0,0,1,2.36,4.13,12.32,12.32,0,0,1,.38,5.06ZM315.7,94.91a3,3,0,0,0-.71-2.53,3.22,3.22,0,0,0-2.58-1.08h-4l-5.27,34.92h3.95a4.21,4.21,0,0,0,2.91-1.14,4.36,4.36,0,0,0,1.48-2.68Z"/><path class="badcd998-11dc-40d8-a8f9-3e7d685c4c1b" d="M351.6,152.36H341.5l2.41-16.84h-9.44l-2.41,16.84h-9.88l8.56-57.45a12.25,12.25,0,0,1,1.81-5.06,16.86,16.86,0,0,1,3.62-4.13,17.46,17.46,0,0,1,4.78-2.8,15.07,15.07,0,0,1,5.49-1h1.64a13.39,13.39,0,0,1,5.27,1,11.73,11.73,0,0,1,4.06,2.8,10.26,10.26,0,0,1,2.37,4.13,12.32,12.32,0,0,1,.38,5.06Zm-1.54-57.45a2.92,2.92,0,0,0-.77-2.53,3.27,3.27,0,0,0-2.52-1.08h-1.65a4.63,4.63,0,0,0-2.91,1.08,4,4,0,0,0-1.59,2.53l-4.72,31.21h9.44Z"/><path class="badcd998-11dc-40d8-a8f9-3e7d685c4c1b" d="M390.34,118.16q-2.52,16.74-15.25,34.2h-9.22q-7.58-17.56-5.05-34.2l5.38-36.27h10l-4.83,32.86a56.18,56.18,0,0,0-.61,12.3,74.46,74.46,0,0,0,1.7,11.67,74,74,0,0,0,5.33-11.62,63.29,63.29,0,0,0,2.8-11.42l5.05-33.79h10.09Z"/><path class="badcd998-11dc-40d8-a8f9-3e7d685c4c1b" d="M415,152.36H390.45l10.43-70.47h24.59l-1.32,9.41h-14.6l-3.84,25.62h11.42l-1.43,9.4H404.28L401.76,143h14.6Z"/><path class="badcd998-11dc-40d8-a8f9-3e7d685c4c1b" d="M442.81,152.36H419.76l10.43-70.47h10.1L431.18,143h12.95Z"/><path class="badcd998-11dc-40d8-a8f9-3e7d685c4c1b" d="M501.32,91.3H493.2l-9.12,61.06h-10l9.11-61.06h-8.13l1.32-9.41h26.24Z"/><path class="badcd998-11dc-40d8-a8f9-3e7d685c4c1b" d="M525.36,139.14a12.76,12.76,0,0,1-1.81,5.11,16.79,16.79,0,0,1-3.68,4.24,17.44,17.44,0,0,1-4.89,2.84,15.28,15.28,0,0,1-5.54,1,13.6,13.6,0,0,1-5.32-1,10.63,10.63,0,0,1-6.37-7.08,12.43,12.43,0,0,1-.38-5.11l6.69-44.23a12.25,12.25,0,0,1,1.81-5.06,16.86,16.86,0,0,1,3.62-4.13,17.3,17.3,0,0,1,4.83-2.8,15.55,15.55,0,0,1,5.55-1,13.78,13.78,0,0,1,5.32,1,11.7,11.7,0,0,1,4.12,2.8,10.24,10.24,0,0,1,2.36,4.13,12.32,12.32,0,0,1,.38,5.06ZM522,94.92a3,3,0,0,0-.76-2.54,3.41,3.41,0,0,0-2.64-1.08,4.42,4.42,0,0,0-2.85,1.08,4.06,4.06,0,0,0-1.54,2.54l-6.7,44.31a3.13,3.13,0,0,0,.77,2.7,3.34,3.34,0,0,0,2.53,1,4.68,4.68,0,0,0,3-1,4,4,0,0,0,1.54-2.7Z"/><path class="badcd998-11dc-40d8-a8f9-3e7d685c4c1b" d="M564.76,100.08a11.42,11.42,0,0,0,1.15,7.85,54.53,54.53,0,0,0,4.56,6.62l3,4.08a23.63,23.63,0,0,1,2.58,4.49,20.68,20.68,0,0,1,1.48,5.22,21.77,21.77,0,0,1,0,6.25l-.76,4.65a12.86,12.86,0,0,1-1.81,5.12,16,16,0,0,1-3.68,4.18,18.31,18.31,0,0,1-4.89,2.79,15.28,15.28,0,0,1-5.54,1,13.25,13.25,0,0,1-5.27-1,11.94,11.94,0,0,1-4.06-2.79,10.12,10.12,0,0,1-2.36-4.18,12.49,12.49,0,0,1-.38-5.12l.87-5.48h10.1l-.88,5.54a3,3,0,0,0,.77,2.62,3.35,3.35,0,0,0,2.53,1,4.68,4.68,0,0,0,3-1,3.93,3.93,0,0,0,1.54-2.59l.77-4.66a12.59,12.59,0,0,0-1.38-8.23,52.78,52.78,0,0,0-4.77-7q-1.43-1.86-2.85-3.77a23.23,23.23,0,0,1-2.47-4.14,18.86,18.86,0,0,1-1.49-4.76,18.41,18.41,0,0,1,0-5.65l1-6.21a12.34,12.34,0,0,1,1.81-5.07,16.49,16.49,0,0,1,3.68-4.14,18.44,18.44,0,0,1,4.83-2.79,14.88,14.88,0,0,1,5.49-1,13.78,13.78,0,0,1,5.32,1,11.7,11.7,0,0,1,4.12,2.8A10.24,10.24,0,0,1,583,89.85a12.32,12.32,0,0,1,.38,5.06l-1.1,7.13H572.23l1.09-7.13a2.94,2.94,0,0,0-.76-2.53,3.41,3.41,0,0,0-2.64-1.08,4.4,4.4,0,0,0-2.85,1.08,4,4,0,0,0-1.54,2.53Z"/><path class="badcd998-11dc-40d8-a8f9-3e7d685c4c1b" d="M611.19,122.4a14.14,14.14,0,0,1-1.86,5.16,15.26,15.26,0,0,1-3.63,4.14,18.25,18.25,0,0,1-4.88,2.79,15.28,15.28,0,0,1-5.54,1h-3.95l-2.42,16.84h-10l10.43-70.47h13.94a13.42,13.42,0,0,1,5.27,1,11.83,11.83,0,0,1,4.06,2.8A10.24,10.24,0,0,1,615,89.85a12.32,12.32,0,0,1,.39,5.06Zm-5.92-27.49a3,3,0,0,0-.72-2.53A3.22,3.22,0,0,0,602,91.3h-4l-5.27,34.82h4a4.3,4.3,0,0,0,2.91-1.09,4.13,4.13,0,0,0,1.48-2.63Z"/><path class="badcd998-11dc-40d8-a8f9-3e7d685c4c1b" d="M639.84,152.36h-10.1l2.42-16.84h-9.44l-2.42,16.84h-9.87L619,94.91a12.25,12.25,0,0,1,1.81-5.06,16.66,16.66,0,0,1,3.62-4.13,17.46,17.46,0,0,1,4.78-2.8,15,15,0,0,1,5.49-1h1.64a13.42,13.42,0,0,1,5.27,1,11.83,11.83,0,0,1,4.06,2.8A10.13,10.13,0,0,1,648,89.85a12.15,12.15,0,0,1,.39,5.06Zm-1.53-57.45a3,3,0,0,0-.77-2.53A3.27,3.27,0,0,0,635,91.3h-1.64a4.61,4.61,0,0,0-2.91,1.08,3.91,3.91,0,0,0-1.59,2.53l-4.72,31.21h9.44Z"/><path class="badcd998-11dc-40d8-a8f9-3e7d685c4c1b" d="M674,139.14a12.61,12.61,0,0,1-1.81,5.11,16.79,16.79,0,0,1-3.68,4.24,17.54,17.54,0,0,1-4.83,2.84,14.83,14.83,0,0,1-5.49,1,13.63,13.63,0,0,1-5.32-1,10.84,10.84,0,0,1-4.06-2.84,11.07,11.07,0,0,1-2.31-4.24,12.6,12.6,0,0,1-.38-5.11l6.7-44.23a12.11,12.11,0,0,1,1.81-5.06,16.46,16.46,0,0,1,3.62-4.13,17.16,17.16,0,0,1,4.83-2.8,15.5,15.5,0,0,1,5.54-1,13.42,13.42,0,0,1,5.27,1,11.73,11.73,0,0,1,4.06,2.8,10.13,10.13,0,0,1,2.36,4.13,12.15,12.15,0,0,1,.39,5.06l-1.1,7.13h-10l1.1-7.13a3,3,0,0,0-.77-2.53,3.41,3.41,0,0,0-2.64-1.08,4.42,4.42,0,0,0-2.85,1.08,4.06,4.06,0,0,0-1.54,2.54l-6.69,44.31a3.1,3.1,0,0,0,.77,2.7,3.33,3.33,0,0,0,2.52,1,4.65,4.65,0,0,0,3-1A4,4,0,0,0,664,139.2l.88-5.44h10Z"/><path class="badcd998-11dc-40d8-a8f9-3e7d685c4c1b" d="M701.64,152.36H677.05l10.43-70.47h24.59l-1.32,9.41h-14.6l-3.84,25.62h11.42l-1.43,9.4H690.88L688.36,143H703Z"/><path class="b7994481-5b43-4a51-9aa1-ce3b5f73ff24" d="M363.86,190.36h-2.81l.67-5h-2.63l-.67,5h-2.75l2.38-17a3.72,3.72,0,0,1,.51-1.5,4.77,4.77,0,0,1,1-1.22,5,5,0,0,1,1.33-.83,4,4,0,0,1,1.53-.3h.46a3.58,3.58,0,0,1,1.47.3,3.49,3.49,0,0,1,1.13.83,3.06,3.06,0,0,1,.65,1.22,3.74,3.74,0,0,1,.11,1.5Zm-.43-17a.91.91,0,0,0-.21-.75.88.88,0,0,0-.71-.32h-.46a1.19,1.19,0,0,0-.8.32,1.15,1.15,0,0,0-.45.75l-1.31,9.22h2.63Z"/><path class="b7994481-5b43-4a51-9aa1-ce3b5f73ff24" d="M373.51,190.36H370.7l1.8-12.89a5,5,0,0,0-.33-2.63,4,4,0,0,0-1.68-1.86l-2.42,17.38h-2.78l2.9-20.83a8.57,8.57,0,0,1,2.94.45,6.56,6.56,0,0,1,2.23,1.44l.24-1.89h2.81Z"/><path class="b7994481-5b43-4a51-9aa1-ce3b5f73ff24" d="M383.56,186.48a4,4,0,0,1-.5,1.51,4.77,4.77,0,0,1-1,1.24,4.7,4.7,0,0,1-1.36.82,3.92,3.92,0,0,1-1.54.31h-4.31l2.91-20.83H382a3.63,3.63,0,0,1,1.48.3,3.37,3.37,0,0,1,1.15.83,3.07,3.07,0,0,1,.66,1.22,3.93,3.93,0,0,1,.1,1.5Zm-.95-13.1a.86.86,0,0,0-.23-.75.9.9,0,0,0-.71-.32h-1.53L378,187.58h1.53a1.27,1.27,0,0,0,.81-.31,1.13,1.13,0,0,0,.44-.76Z"/><path class="b7994481-5b43-4a51-9aa1-ce3b5f73ff24" d="M397.12,190.36h-6.84l2.9-20.83H400l-.36,2.78H395.6l-1.07,7.57h3.17l-.39,2.78h-3.18l-.7,4.92h4.06Z"/><path class="b7994481-5b43-4a51-9aa1-ce3b5f73ff24" d="M405.58,179.94c.21,1.69.41,3.44.6,5.23s.4,3.52.63,5.19H403.9l-.55-4.8-1.89,4.8h-2.87l4.06-10.42c-.18-1.69-.37-3.43-.56-5.22s-.4-3.52-.6-5.19h2.87l.55,4.79,1.9-4.79h2.9Z"/><path class="b7994481-5b43-4a51-9aa1-ce3b5f73ff24" d="M417.07,181.5a4.27,4.27,0,0,1-.52,1.53,4.39,4.39,0,0,1-1,1.22,5,5,0,0,1-1.36.83,4.1,4.1,0,0,1-1.54.3h-1.1l-.67,5h-2.78l2.9-20.83h3.88a3.58,3.58,0,0,1,1.47.3,3.38,3.38,0,0,1,1.13.83,3.06,3.06,0,0,1,.65,1.22,3.74,3.74,0,0,1,.11,1.5Zm-1.65-8.12a.9.9,0,0,0-.2-.75.85.85,0,0,0-.72-.32h-1.09l-1.47,10.29H413a1.2,1.2,0,0,0,.81-.32,1.25,1.25,0,0,0,.41-.78Z"/><path class="b7994481-5b43-4a51-9aa1-ce3b5f73ff24" d="M423.64,190.36h-6.42l2.9-20.83h2.82l-2.54,18.05H424Z"/><path class="b7994481-5b43-4a51-9aa1-ce3b5f73ff24" d="M433.45,186.45a4,4,0,0,1-.51,1.51,4.59,4.59,0,0,1-1,1.25,4.68,4.68,0,0,1-1.36.84,4,4,0,0,1-1.54.31,3.55,3.55,0,0,1-1.49-.31,3.07,3.07,0,0,1-1.13-.84,3.3,3.3,0,0,1-.64-1.25,3.8,3.8,0,0,1-.1-1.51l1.86-13.07a3.86,3.86,0,0,1,.5-1.5,4.8,4.8,0,0,1,1-1.22,4.91,4.91,0,0,1,1.35-.83,4.06,4.06,0,0,1,1.54-.3,3.66,3.66,0,0,1,1.48.3,3.23,3.23,0,0,1,1.14.83,3,3,0,0,1,.66,1.22,3.92,3.92,0,0,1,.11,1.5Zm-.95-13.07a.93.93,0,0,0-.95-1.07,1.15,1.15,0,0,0-.79.32,1.16,1.16,0,0,0-.43.75l-1.86,13.1a.93.93,0,0,0,.21.79.88.88,0,0,0,.7.31,1.24,1.24,0,0,0,.83-.31,1.19,1.19,0,0,0,.42-.79Z"/><path class="b7994481-5b43-4a51-9aa1-ce3b5f73ff24" d="M443.59,181.5a4.52,4.52,0,0,1-.87,2A5,5,0,0,1,441,185c.22.86.47,1.76.73,2.69s.52,1.83.77,2.69h-3l-1.34-5h-.06l-.68,5H434.6l2.91-20.83h3.88a3.53,3.53,0,0,1,1.46.3,3.29,3.29,0,0,1,1.13.83,3,3,0,0,1,.66,1.22,3.92,3.92,0,0,1,.11,1.5Zm-1.65-8.12a.94.94,0,0,0-.2-.75.86.86,0,0,0-.72-.32h-1.1l-1.47,10.32h1.1a1.13,1.13,0,0,0,.81-.33,1.36,1.36,0,0,0,.42-.8Z"/><path class="b7994481-5b43-4a51-9aa1-ce3b5f73ff24" d="M451.13,190.36h-6.84l2.9-20.83H454l-.36,2.78H449.6l-1.07,7.57h3.18l-.4,2.78h-3.17l-.71,4.92h4.07Z"/><path class="b7994481-5b43-4a51-9aa1-ce3b5f73ff24" d="M468.09,172.31h-2.26l-2.54,18.05h-2.78L463,172.31h-2.26l.37-2.78h7.3Z"/><path class="b7994481-5b43-4a51-9aa1-ce3b5f73ff24" d="M475,190.36h-2.81l.67-5h-2.63l-.67,5h-2.78l2.9-20.83h2.78l-1.83,13.07h2.63l1.83-13.07h2.81Z"/><path class="b7994481-5b43-4a51-9aa1-ce3b5f73ff24" d="M483.54,190.36H476.7l2.9-20.83h6.84l-.36,2.78H482L481,179.88h3.17l-.39,2.78h-3.18l-.7,4.92h4.06Z"/><path class="b7994481-5b43-4a51-9aa1-ce3b5f73ff24" d="M502.88,190.36a7.09,7.09,0,0,1-3.27-.75,5.38,5.38,0,0,1-2.26-2.09,8.76,8.76,0,0,1-2.86,2.09,8.12,8.12,0,0,1-3.43.75l2.9-20.83h2.81l-2.41,17.23a4.83,4.83,0,0,0,1.48-1.47,4.91,4.91,0,0,0,.71-2l1.93-13.8h2.78l-1.93,13.8a3.8,3.8,0,0,0,.19,1.93,3.32,3.32,0,0,0,1.07,1.5L503,169.53h2.78Z"/><path class="b7994481-5b43-4a51-9aa1-ce3b5f73ff24" d="M513,186.45a4,4,0,0,1-.5,1.51,4.81,4.81,0,0,1-1,1.25,4.68,4.68,0,0,1-1.36.84,3.92,3.92,0,0,1-1.54.31,3.51,3.51,0,0,1-1.48-.31,2.92,2.92,0,0,1-1.13-.84,3.16,3.16,0,0,1-.64-1.25,3.8,3.8,0,0,1-.11-1.51L507,173.38a3.72,3.72,0,0,1,.51-1.5,4.77,4.77,0,0,1,1-1.22,4.91,4.91,0,0,1,1.35-.83,4.1,4.1,0,0,1,1.54-.3,3.63,3.63,0,0,1,1.48.3,3.37,3.37,0,0,1,1.15.83,3.07,3.07,0,0,1,.66,1.22,3.93,3.93,0,0,1,.1,1.5Zm-1-13.07a.91.91,0,0,0-.21-.75.89.89,0,0,0-.73-.32,1.17,1.17,0,0,0-.8.32,1.21,1.21,0,0,0-.43.75L508,186.48a1,1,0,0,0,.21.79.9.9,0,0,0,.71.31,1.22,1.22,0,0,0,.82-.31,1.16,1.16,0,0,0,.43-.79Z"/><path class="b7994481-5b43-4a51-9aa1-ce3b5f73ff24" d="M522,190.36h-2.81l1.8-12.89a4.9,4.9,0,0,0-.33-2.63A4,4,0,0,0,519,173l-2.42,17.38h-2.77l2.9-20.83a8.51,8.51,0,0,1,2.93.45,6.56,6.56,0,0,1,2.23,1.44l.24-1.89h2.81Z"/><path class="b7994481-5b43-4a51-9aa1-ce3b5f73ff24" d="M532.08,186.48a4,4,0,0,1-.5,1.51,4.72,4.72,0,0,1-2.38,2.06,4,4,0,0,1-1.55.31h-4.3l2.9-20.83h4.31a3.69,3.69,0,0,1,1.48.3,3.23,3.23,0,0,1,1.14.83,3,3,0,0,1,.66,1.22,3.92,3.92,0,0,1,.11,1.5Zm-.94-13.1a.89.89,0,0,0-.23-.75.93.93,0,0,0-.72-.32h-1.53l-2.17,15.27H528a1.27,1.27,0,0,0,.81-.31,1.13,1.13,0,0,0,.44-.76Z"/><path class="b7994481-5b43-4a51-9aa1-ce3b5f73ff24" d="M539.87,190.36H533l2.9-20.83h6.84l-.36,2.78h-4.07l-1.06,7.57h3.17l-.39,2.78h-3.18l-.7,4.92h4.06Z"/><path class="b7994481-5b43-4a51-9aa1-ce3b5f73ff24" d="M550.66,181.5a4.52,4.52,0,0,1-.87,2,5,5,0,0,1-1.73,1.46c.22.86.47,1.76.73,2.69s.52,1.83.77,2.69h-3l-1.34-5h-.06l-.68,5h-2.78l2.91-20.83h3.88a3.53,3.53,0,0,1,1.46.3,3.29,3.29,0,0,1,1.13.83,3,3,0,0,1,.66,1.22,3.92,3.92,0,0,1,.11,1.5ZM549,173.38a.94.94,0,0,0-.2-.75.88.88,0,0,0-.72-.32H547l-1.47,10.32h1.1a1.13,1.13,0,0,0,.81-.33,1.3,1.3,0,0,0,.41-.8Z"/><path class="b7994481-5b43-4a51-9aa1-ce3b5f73ff24" d="M556,174.9a3.54,3.54,0,0,0,.32,2.32,15.89,15.89,0,0,0,1.27,2l.82,1.21a6.77,6.77,0,0,1,.72,1.32,6.19,6.19,0,0,1,.41,1.55,6.36,6.36,0,0,1,0,1.85l-.21,1.37a4,4,0,0,1-.5,1.51,4.77,4.77,0,0,1-1,1.24,4.7,4.7,0,0,1-1.36.82,3.92,3.92,0,0,1-1.54.31,3.43,3.43,0,0,1-1.47-.31,3.32,3.32,0,0,1-1.13-.82,3.14,3.14,0,0,1-.65-1.24,4,4,0,0,1-.11-1.51l.25-1.62h2.81l-.25,1.64a.9.9,0,0,0,.22.77.87.87,0,0,0,.7.31,1.22,1.22,0,0,0,.82-.31,1.12,1.12,0,0,0,.43-.76l.21-1.38a3.84,3.84,0,0,0-.38-2.43,15.71,15.71,0,0,0-1.33-2.07l-.79-1.11a7.35,7.35,0,0,1-.69-1.23,5.69,5.69,0,0,1-.41-1.4,5.83,5.83,0,0,1,0-1.67l.27-1.84a3.88,3.88,0,0,1,.51-1.5,4.61,4.61,0,0,1,1-1.22,5.22,5.22,0,0,1,1.35-.83,3.92,3.92,0,0,1,1.52-.3,3.71,3.71,0,0,1,1.49.3,3.42,3.42,0,0,1,1.14.83,3,3,0,0,1,.66,1.22,3.74,3.74,0,0,1,.1,1.5l-.3,2.1h-2.81l.3-2.1a.91.91,0,0,0-.21-.75.89.89,0,0,0-.73-.32,1.17,1.17,0,0,0-.8.32,1.26,1.26,0,0,0-.43.75Z"/><path class="b7994481-5b43-4a51-9aa1-ce3b5f73ff24" d="M574.36,186.45a4,4,0,0,1-.5,1.51,4.81,4.81,0,0,1-1,1.25,4.55,4.55,0,0,1-1.36.84,3.92,3.92,0,0,1-1.54.31,3.51,3.51,0,0,1-1.48-.31,2.92,2.92,0,0,1-1.13-.84,3.16,3.16,0,0,1-.64-1.25,3.8,3.8,0,0,1-.11-1.51l1.86-13.07a3.88,3.88,0,0,1,.51-1.5,4.6,4.6,0,0,1,1-1.22,4.71,4.71,0,0,1,1.34-.83,4.1,4.1,0,0,1,1.54-.3,3.71,3.71,0,0,1,1.49.3,3.33,3.33,0,0,1,1.14.83,3.07,3.07,0,0,1,.66,1.22,3.74,3.74,0,0,1,.1,1.5Zm-1-13.07a.91.91,0,0,0-.21-.75.89.89,0,0,0-.73-.32,1.17,1.17,0,0,0-.8.32,1.19,1.19,0,0,0-.42.75l-1.87,13.1a.93.93,0,0,0,.22.79.87.87,0,0,0,.7.31,1.22,1.22,0,0,0,.82-.31,1.16,1.16,0,0,0,.43-.79Z"/><path class="b7994481-5b43-4a51-9aa1-ce3b5f73ff24" d="M584.9,172.31h-4l-1.07,7.57h3.14l-.39,2.78H579.4l-1.07,7.7h-2.81l2.9-20.83h6.85Z"/><path class="b7994481-5b43-4a51-9aa1-ce3b5f73ff24" d="M597.79,186.45a4,4,0,0,1-.5,1.51,4.81,4.81,0,0,1-1,1.25,4.55,4.55,0,0,1-1.36.84,3.92,3.92,0,0,1-1.54.31,3.51,3.51,0,0,1-1.48-.31,2.92,2.92,0,0,1-1.13-.84,3.16,3.16,0,0,1-.64-1.25,3.8,3.8,0,0,1-.11-1.51l1.86-13.07a3.88,3.88,0,0,1,.51-1.5,4.6,4.6,0,0,1,1-1.22,4.71,4.71,0,0,1,1.34-.83,4.1,4.1,0,0,1,1.54-.3,3.71,3.71,0,0,1,1.49.3,3.42,3.42,0,0,1,1.14.83,3.07,3.07,0,0,1,.66,1.22,3.93,3.93,0,0,1,.1,1.5Zm-.95-13.07a.91.91,0,0,0-.21-.75.89.89,0,0,0-.73-.32,1.17,1.17,0,0,0-.8.32,1.21,1.21,0,0,0-.43.75l-1.86,13.1a.93.93,0,0,0,.22.79.87.87,0,0,0,.7.31,1.22,1.22,0,0,0,.82-.31,1.16,1.16,0,0,0,.43-.79Z"/><path class="b7994481-5b43-4a51-9aa1-ce3b5f73ff24" d="M607.14,186.48a3.81,3.81,0,0,1-.51,1.51,4.54,4.54,0,0,1-1,1.24,4.84,4.84,0,0,1-1.36.82,3.92,3.92,0,0,1-1.54.31,3.43,3.43,0,0,1-1.47-.31,3.23,3.23,0,0,1-1.13-.82,3.29,3.29,0,0,1-.66-1.24,4,4,0,0,1-.1-1.51l2.38-16.95h2.81l-2.38,17a.91.91,0,0,0,.91,1.07,1.24,1.24,0,0,0,.85-.31,1.17,1.17,0,0,0,.41-.76l2.38-17h2.81Z"/><path class="b7994481-5b43-4a51-9aa1-ce3b5f73ff24" d="M617.49,181.5a4.3,4.3,0,0,1-.87,2A5,5,0,0,1,614.9,185c.22.86.47,1.76.73,2.69s.52,1.83.76,2.69h-3l-1.34-5H612l-.67,5h-2.78l2.9-20.83h3.88a3.58,3.58,0,0,1,1.47.3,3.38,3.38,0,0,1,1.13.83,3.07,3.07,0,0,1,.66,1.22,3.93,3.93,0,0,1,.1,1.5Zm-1.65-8.12a.94.94,0,0,0-.19-.75.88.88,0,0,0-.72-.32h-1.1l-1.47,10.32h1.1a1.13,1.13,0,0,0,.81-.33,1.35,1.35,0,0,0,.41-.8Z"/><path class="b7994481-5b43-4a51-9aa1-ce3b5f73ff24" d="M628.61,174.9a3.61,3.61,0,0,0,.32,2.32,15.89,15.89,0,0,0,1.27,2l.83,1.21a7.29,7.29,0,0,1,.71,1.32,6.65,6.65,0,0,1,.42,1.55,7.14,7.14,0,0,1,0,1.85l-.22,1.37a4,4,0,0,1-.5,1.51,4.72,4.72,0,0,1-2.38,2.06,4,4,0,0,1-1.55.31,3.35,3.35,0,0,1-1.46-.31,3.14,3.14,0,0,1-1.13-.82,3,3,0,0,1-.66-1.24,4,4,0,0,1-.11-1.51l.25-1.62h2.81L627,186.5a.9.9,0,0,0,.22.77.87.87,0,0,0,.7.31,1.22,1.22,0,0,0,.82-.31,1.12,1.12,0,0,0,.43-.76l.22-1.38a3.91,3.91,0,0,0-.39-2.43,15.71,15.71,0,0,0-1.33-2.07l-.79-1.11a8.13,8.13,0,0,1-.69-1.23,5.69,5.69,0,0,1-.41-1.4,5.83,5.83,0,0,1,0-1.67l.28-1.84a3.86,3.86,0,0,1,.5-1.5,4.8,4.8,0,0,1,1-1.22,5.22,5.22,0,0,1,1.35-.83,4,4,0,0,1,1.53-.3,3.69,3.69,0,0,1,1.48.3,3.33,3.33,0,0,1,1.14.83,3,3,0,0,1,.66,1.22,3.92,3.92,0,0,1,.11,1.5l-.31,2.1h-2.81l.31-2.1a.92.92,0,0,0-.22-.75.89.89,0,0,0-.73-.32,1.17,1.17,0,0,0-.8.32,1.19,1.19,0,0,0-.42.75Z"/><path class="b7994481-5b43-4a51-9aa1-ce3b5f73ff24" d="M641.2,186.45a3.81,3.81,0,0,1-.51,1.51,4.59,4.59,0,0,1-1,1.25,4.68,4.68,0,0,1-1.36.84,3.92,3.92,0,0,1-1.54.31,3.51,3.51,0,0,1-1.48-.31,2.92,2.92,0,0,1-1.13-.84,3.31,3.31,0,0,1-.65-1.25,4,4,0,0,1-.1-1.51l1.86-13.07a3.72,3.72,0,0,1,.51-1.5,4.77,4.77,0,0,1,1-1.22,4.91,4.91,0,0,1,1.35-.83,4.1,4.1,0,0,1,1.54-.3,3.66,3.66,0,0,1,1.48.3,3.37,3.37,0,0,1,1.15.83,3.06,3.06,0,0,1,.65,1.22,3.74,3.74,0,0,1,.11,1.5Zm-1-13.07a.92.92,0,0,0-1-1.07,1.15,1.15,0,0,0-.79.32,1.21,1.21,0,0,0-.43.75l-1.86,13.1a1,1,0,0,0,.21.79.9.9,0,0,0,.7.31,1.22,1.22,0,0,0,.83-.31,1.2,1.2,0,0,0,.43-.79Z"/><path class="b7994481-5b43-4a51-9aa1-ce3b5f73ff24" d="M648.59,190.36h-6.41l2.9-20.83h2.81l-2.54,18.05H649Z"/><path class="b7994481-5b43-4a51-9aa1-ce3b5f73ff24" d="M658.27,190.36h-2.81l.68-5h-2.63l-.67,5h-2.75l2.38-17a3.86,3.86,0,0,1,.5-1.5,4.8,4.8,0,0,1,1-1.22,5,5,0,0,1,1.33-.83,4,4,0,0,1,1.53-.3h.46a3.53,3.53,0,0,1,1.46.3,3.29,3.29,0,0,1,1.13.83,3,3,0,0,1,.66,1.22,3.92,3.92,0,0,1,.11,1.5Zm-.42-17a.88.88,0,0,0-.22-.75.86.86,0,0,0-.7-.32h-.46a1.23,1.23,0,0,0-.81.32,1.18,1.18,0,0,0-.44.75l-1.31,9.22h2.62Z"/><path class="b7994481-5b43-4a51-9aa1-ce3b5f73ff24" d="M669,181.5a4.52,4.52,0,0,1-.87,2A5,5,0,0,1,666.4,185c.22.86.47,1.76.73,2.69s.52,1.83.77,2.69h-3l-1.34-5h-.06l-.68,5H660l2.91-20.83h3.88a3.53,3.53,0,0,1,1.46.3,3.29,3.29,0,0,1,1.13.83,3,3,0,0,1,.66,1.22,3.92,3.92,0,0,1,.11,1.5Zm-1.65-8.12a.94.94,0,0,0-.2-.75.86.86,0,0,0-.72-.32h-1.1l-1.47,10.32H665a1.13,1.13,0,0,0,.81-.33,1.36,1.36,0,0,0,.42-.8Z"/><path class="b7994481-5b43-4a51-9aa1-ce3b5f73ff24" d="M680.12,174.9a3.48,3.48,0,0,0,.32,2.32,14.71,14.71,0,0,0,1.26,2l.83,1.21a8,8,0,0,1,.72,1.32,6.64,6.64,0,0,1,.41,1.55,7.14,7.14,0,0,1,0,1.85l-.21,1.37a4,4,0,0,1-.51,1.51,4.54,4.54,0,0,1-1,1.24,4.84,4.84,0,0,1-1.36.82,4,4,0,0,1-1.54.31,3.43,3.43,0,0,1-1.47-.31,3.14,3.14,0,0,1-1.13-.82,3,3,0,0,1-.66-1.24,3.8,3.8,0,0,1-.1-1.51l.24-1.62h2.81l-.24,1.64a.91.91,0,0,0,.91,1.08,1.24,1.24,0,0,0,.83-.31,1.14,1.14,0,0,0,.42-.76l.22-1.38a4,4,0,0,0-.38-2.43,16.81,16.81,0,0,0-1.33-2.07c-.27-.36-.53-.74-.8-1.11a7.31,7.31,0,0,1-.68-1.23,5.7,5.7,0,0,1-.42-1.4,5.83,5.83,0,0,1,0-1.67l.28-1.84a3.86,3.86,0,0,1,.5-1.5,4.84,4.84,0,0,1,1-1.22,5,5,0,0,1,1.34-.83,4,4,0,0,1,1.53-.3,3.66,3.66,0,0,1,1.48.3,3.23,3.23,0,0,1,1.14.83,3,3,0,0,1,.66,1.22,3.92,3.92,0,0,1,.11,1.5l-.31,2.1h-2.81l.31-2.1a.93.93,0,0,0-1-1.07,1.15,1.15,0,0,0-.79.32,1.16,1.16,0,0,0-.43.75Z"/><path class="b7994481-5b43-4a51-9aa1-ce3b5f73ff24" d="M693.34,181.5a4.23,4.23,0,0,1-1,2.22,4.72,4.72,0,0,1-2,1.42l-.73,5.22h-2.81l.73-5.22a3,3,0,0,1-1.64-1.39,3.61,3.61,0,0,1-.35-2.25l1.68-12H690l-1.68,12a.93.93,0,0,0,.23.78,1,1,0,0,0,.72.32,1.19,1.19,0,0,0,.81-.32,1.25,1.25,0,0,0,.41-.78l1.68-12H695Z"/><path class="b7994481-5b43-4a51-9aa1-ce3b5f73ff24" d="M698.6,174.9a3.48,3.48,0,0,0,.32,2.32,14.81,14.81,0,0,0,1.27,2l.82,1.21a8,8,0,0,1,.72,1.32,6.64,6.64,0,0,1,.41,1.55,7.14,7.14,0,0,1,0,1.85l-.21,1.37a3.81,3.81,0,0,1-.51,1.51,4.54,4.54,0,0,1-1,1.24,4.84,4.84,0,0,1-1.36.82,3.92,3.92,0,0,1-1.54.31,3.43,3.43,0,0,1-1.47-.31,3.23,3.23,0,0,1-1.13-.82,3.15,3.15,0,0,1-.66-1.24,4,4,0,0,1-.1-1.51l.24-1.62h2.81L697,186.5a.92.92,0,0,0,.21.77.88.88,0,0,0,.7.31,1.24,1.24,0,0,0,.83-.31,1.16,1.16,0,0,0,.43-.76l.21-1.38a3.91,3.91,0,0,0-.38-2.43,16.81,16.81,0,0,0-1.33-2.07c-.27-.36-.53-.74-.79-1.11a6.71,6.71,0,0,1-.69-1.23,5.28,5.28,0,0,1-.41-1.4,5.19,5.19,0,0,1,0-1.67l.27-1.84a3.86,3.86,0,0,1,.5-1.5,4.84,4.84,0,0,1,1-1.22,5,5,0,0,1,1.34-.83,4,4,0,0,1,1.53-.3,3.66,3.66,0,0,1,1.48.3,3.37,3.37,0,0,1,1.15.83,3.06,3.06,0,0,1,.65,1.22,3.74,3.74,0,0,1,.11,1.5l-.31,2.1h-2.81l.31-2.1a.92.92,0,0,0-1-1.07,1.15,1.15,0,0,0-.79.32,1.16,1.16,0,0,0-.43.75Z"/><path class="b7994481-5b43-4a51-9aa1-ce3b5f73ff24" d="M712.5,172.31h-2.26l-2.54,18.05h-2.78l2.54-18.05H705.2l.36-2.78h7.3Z"/><path class="b7994481-5b43-4a51-9aa1-ce3b5f73ff24" d="M718.27,190.36h-6.84l2.9-20.83h6.84l-.36,2.78h-4.07l-1.07,7.57h3.18l-.4,2.78h-3.17l-.71,4.92h4.07Z"/><path class="b7994481-5b43-4a51-9aa1-ce3b5f73ff24" d="M731.74,190.36H729l2.42-17.23a4.9,4.9,0,0,0-1.5,1.47,4.67,4.67,0,0,0-.73,2l-1.93,13.81h-2.78l1.93-13.81a3.77,3.77,0,0,0-.19-1.92,3.42,3.42,0,0,0-1-1.5l-2.41,17.23h-2.81l2.9-20.83a7,7,0,0,1,3.24.74,5.72,5.72,0,0,1,2.26,2.07,8.58,8.58,0,0,1,2.86-2.07,8.47,8.47,0,0,1,3.46-.74Z"/><path class="b7994481-5b43-4a51-9aa1-ce3b5f73ff24" d="M736.11,190.36H733.3l.37-2.78h2.81Zm.49-3.6h-2.81l2.41-17.23H739Z"/></g></svg>