<svg xmlns="http://www.w3.org/2000/svg" viewBox="0 0 640 200"><defs><style>.eb380c8b-9fb0-40b5-8aa2-415143a1e85f{fill:none;}.a559f523-64bc-460d-88cc-b1150ed55273{fill:#fff;}.f782a127-2fe7-486a-a5d0-44bac06efbc6{fill:#d7d6ed;}.b652775d-8547-43df-ad01-3b4f1f41cb1c{fill:#ff5628;}.fc09dc8f-55ff-45e8-a08e-df501a594581{fill:#ff901e;}.a2937f8c-b7c7-48e9-a2d6-ed738e79dd1e{fill:#ffbd11;}.bf8792a3-d0b6-47cd-971f-acd4584a0caa{fill:#ffe25f;}.e474fc7a-2b01-4bfe-8fc8-eed84805ca48{fill:#ff3153;}.a94a97dd-ceba-45cf-bea3-78032afbe6c9{fill:#c52745;}.be3cbe07-7358-4818-bca7-580853e36170{fill:#dcd5e2;}.ef415108-5d18-45c1-8eb6-068d68b97eb0{fill:#e1dedc;}.e27a8535-49fd-43d6-967e-a6662f696d07{fill:#2f4261;}.a907ecaa-81fc-4ab8-ae08-a5d7fdc28fc0{fill:#6ebbe9;}.a21e480a-47bf-4bb4-a3ca-db593145b2f0{fill:#a9e2ff;}.bb109acd-3fb7-4bb9-bdc8-988585f962aa{fill:#b5b0b6;}.abec9e81-9ce1-4aa0-95fb-ce0c0f4d1f77{fill:#963;}.bba1e6fb-b012-4678-9bf4-c89b35e23737{fill:#fab55f;}.bb105155-9f98-4480-a946-01919c4e58aa{fill:#eeefc6;}</style></defs><g id="a327b28d-c766-4c2d-9d7d-8b9f501443a4" data-name="Title"><rect class="eb380c8b-9fb0-40b5-8aa2-415143a1e85f" width="640" height="200"/><path class="a559f523-64bc-460d-88cc-b1150ed55273" d="M32,200H76.79a16.05,16.05,0,0,0-.24-7.44A9.09,9.09,0,0,0,76,174.4q-.34,0-.69,0l33.23-51-55.16,36A6.42,6.42,0,0,0,44.27,158C39,153.49,32,155.21,32,155.21"/><circle class="a559f523-64bc-460d-88cc-b1150ed55273" cx="44.36" cy="152.63" r="1.2"/><circle class="a559f523-64bc-460d-88cc-b1150ed55273" cx="82.93" cy="172.18" r="2"/><path class="f782a127-2fe7-486a-a5d0-44bac06efbc6" d="M32,200l76.54-76.54-55.16,36A6.42,6.42,0,0,0,44.27,158C39,153.49,32,155.21,32,155.21s-12.48-4.47-16.23,11.46c0,0-14.07,7.94-9,28.15,0,0,1.71,5.18,4.66,5.18Z"/><path class="b652775d-8547-43df-ad01-3b4f1f41cb1c" d="M121.68,131.18c-5.76,5.76-32.21,11.35-32.21,11.35s5.58-26.46,11.34-32.22,17.83-8.48,23.59-2.72S127.45,125.42,121.68,131.18Z"/><path class="fc09dc8f-55ff-45e8-a08e-df501a594581" d="M121.07,127c-4.44,4.44-24.83,8.75-24.83,8.75s4.3-20.39,8.74-24.83,13.74-6.54,18.18-2.1S125.51,122.57,121.07,127Z"/><path class="a2937f8c-b7c7-48e9-a2d6-ed738e79dd1e" d="M121.4,123.12c-3.46,3.46-19.34,6.81-19.34,6.81s3.35-15.88,6.81-19.34S119.57,105.5,123,109,124.86,119.66,121.4,123.12Z"/><path class="bf8792a3-d0b6-47cd-971f-acd4584a0caa" d="M121.05,119.13c-2.26,2.27-12.64,4.46-12.64,4.46s2.19-10.38,4.45-12.64,7-3.33,9.25-1.07S123.31,116.87,121.05,119.13Z"/><path class="e474fc7a-2b01-4bfe-8fc8-eed84805ca48" d="M132.31,70c-33.83,0-31.07,10.88-39.73,39.73l18.65-7.14Z"/><path class="e474fc7a-2b01-4bfe-8fc8-eed84805ca48" d="M162,99.68c0,33.83-10.89,31.08-39.74,39.73l7.14-18.65Z"/><path class="a94a97dd-ceba-45cf-bea3-78032afbe6c9" d="M122.25,139.41c9-2.71,16.31-4.3,22-6.25-4.4-3.53-8.38-10.88,3.62-24.38l-18.52,12Z"/><path class="a94a97dd-ceba-45cf-bea3-78032afbe6c9" d="M92.58,109.74l18.65-7.14L132,70.52C118.46,87.17,107.56,101.19,97.21,93,95.88,97.75,94.52,103.3,92.58,109.74Z"/><path class="a559f523-64bc-460d-88cc-b1150ed55273" d="M182.78,82c17.06-18.26,15.53-48.29,15.53-48.29s-30-1.52-48.29,15.54-38.79,53.37-38.79,53.37l18.18,18.17S165.72,100.25,182.78,82Z"/><path class="be3cbe07-7358-4818-bca7-580853e36170" d="M180.87,35.09c-9.76,1.76-21.76,5.65-30.85,14.14-18.26,17.06-38.79,53.37-38.79,53.37l18.18,18.17s2.1-1.19,5.52-3.24C113.55,103,121.62,72.61,180.87,35.09Z"/><path class="e474fc7a-2b01-4bfe-8fc8-eed84805ca48" d="M194.89,59.7a86.65,86.65,0,0,0,3.42-26,87,87,0,0,0-26,3.42Z"/><path class="a94a97dd-ceba-45cf-bea3-78032afbe6c9" d="M172.3,37.11,194.89,59.7c.11-.36.21-.72.31-1.07-9.57-7.94-21.73-21.63,3.11-24.94A87,87,0,0,0,172.3,37.11Z"/><circle class="ef415108-5d18-45c1-8eb6-068d68b97eb0" cx="165.16" cy="65.82" r="13.58" transform="translate(1.84 136.07) rotate(-45)"/><circle class="a94a97dd-ceba-45cf-bea3-78032afbe6c9" cx="165.16" cy="65.82" r="12.65"/><circle class="e474fc7a-2b01-4bfe-8fc8-eed84805ca48" cx="165.16" cy="65.82" r="11.86" transform="translate(1.84 136.07) rotate(-45)"/><circle class="e27a8535-49fd-43d6-967e-a6662f696d07" cx="165.16" cy="65.82" r="10.02" transform="translate(1.84 136.07) rotate(-45)"/><circle class="a907ecaa-81fc-4ab8-ae08-a5d7fdc28fc0" cx="165.16" cy="65.82" r="9.39" transform="translate(1.84 136.07) rotate(-45)"/><path class="a21e480a-47bf-4bb4-a3ca-db593145b2f0" d="M155.77,65.82a9.38,9.38,0,0,0,3.76,7.5l13.13-13.14a9.36,9.36,0,0,0-7.5-3.76l-.34,0-9,9C155.78,65.59,155.77,65.7,155.77,65.82Z"/><path class="a21e480a-47bf-4bb4-a3ca-db593145b2f0" d="M173.85,62.25,161.6,74.51a9.63,9.63,0,0,0,2.4.62l10.48-10.48A9.64,9.64,0,0,0,173.85,62.25Z"/><circle class="bb109acd-3fb7-4bb9-bdc8-988585f962aa" cx="172" cy="39.02" r="0.54"/><path class="bb109acd-3fb7-4bb9-bdc8-988585f962aa" d="M175.27,42.3a.54.54,0,0,1-.76,0,.55.55,0,0,1,0-.77.54.54,0,0,1,.76,0A.55.55,0,0,1,175.27,42.3Z"/><circle class="bb109acd-3fb7-4bb9-bdc8-988585f962aa" cx="177.79" cy="44.81" r="0.54"/><path class="bb109acd-3fb7-4bb9-bdc8-988585f962aa" d="M181.07,48.09a.54.54,0,1,1,0-.76A.54.54,0,0,1,181.07,48.09Z"/><path class="bb109acd-3fb7-4bb9-bdc8-988585f962aa" d="M184,51a.54.54,0,1,1-.76-.76.52.52,0,0,1,.76,0A.54.54,0,0,1,184,51Z"/><circle class="bb109acd-3fb7-4bb9-bdc8-988585f962aa" cx="186.48" cy="53.5" r="0.54"/><path class="bb109acd-3fb7-4bb9-bdc8-988585f962aa" d="M189.76,56.78a.54.54,0,1,1,0-.76A.54.54,0,0,1,189.76,56.78Z"/><circle class="bb109acd-3fb7-4bb9-bdc8-988585f962aa" cx="192.27" cy="59.3" r="0.54"/><path class="bb109acd-3fb7-4bb9-bdc8-988585f962aa" d="M113.88,103a.59.59,0,0,1-.84-.84.58.58,0,0,1,.84,0A.6.6,0,0,1,113.88,103Z"/><path class="bb109acd-3fb7-4bb9-bdc8-988585f962aa" d="M117.08,106.21a.6.6,0,0,1-.84,0,.61.61,0,0,1,0-.85.6.6,0,0,1,.84,0A.61.61,0,0,1,117.08,106.21Z"/><path class="bb109acd-3fb7-4bb9-bdc8-988585f962aa" d="M120.28,109.4a.58.58,0,0,1-.84,0,.59.59,0,1,1,.84,0Z"/><path class="bb109acd-3fb7-4bb9-bdc8-988585f962aa" d="M123.48,112.6a.58.58,0,0,1-.84,0,.59.59,0,1,1,.84,0Z"/><path class="bb109acd-3fb7-4bb9-bdc8-988585f962aa" d="M126.68,115.8a.59.59,0,1,1,0-.84A.6.6,0,0,1,126.68,115.8Z"/><path class="bb109acd-3fb7-4bb9-bdc8-988585f962aa" d="M129.88,119a.6.6,0,0,1-.84,0,.58.58,0,0,1,0-.84.59.59,0,0,1,.84.84Z"/><path class="e474fc7a-2b01-4bfe-8fc8-eed84805ca48" d="M148.22,83.78l-40.8,40.8a232,232,0,0,1,23.87-28C145.66,82.22,148.22,83.78,148.22,83.78Z"/><path class="a94a97dd-ceba-45cf-bea3-78032afbe6c9" d="M148.22,83.78l-40.8,40.8a231.79,231.79,0,0,0,28-23.86C149.79,86.35,148.22,83.78,148.22,83.78Z"/><path class="a559f523-64bc-460d-88cc-b1150ed55273" d="M197.21,35.4s.52,7.77-2.54,21.5C194.67,56.9,195.4,47.78,197.21,35.4Z"/><path class="abec9e81-9ce1-4aa0-95fb-ce0c0f4d1f77" d="M233.63,75.59h-6.5l-7.29,48.86h-8l7.29-48.86h-6.5l1.06-7.52h21Z"/><path class="abec9e81-9ce1-4aa0-95fb-ce0c0f4d1f77" d="M255.5,100.47a11.41,11.41,0,0,1-2.51,5.46,14.32,14.32,0,0,1-5,4c.64,2.31,1.35,4.74,2.11,7.27s1.49,5,2.19,7.28h-8.69L239.78,111h-.18l-1.93,13.48h-8L238,68.07h11.15a10.66,10.66,0,0,1,4.22.82,9.62,9.62,0,0,1,3.25,2.24,8.29,8.29,0,0,1,1.89,3.3,9.74,9.74,0,0,1,.3,4Zm-4.75-22a2.39,2.39,0,0,0-.57-2,2.57,2.57,0,0,0-2.06-.87H245l-4.22,27.94h3.16a3.36,3.36,0,0,0,2.33-.91,3.51,3.51,0,0,0,1.19-2.15Z"/><path class="abec9e81-9ce1-4aa0-95fb-ce0c0f4d1f77" d="M279.47,124.45h-8.08L273.32,111h-7.55l-1.93,13.48h-7.91l6.85-46a9.94,9.94,0,0,1,1.45-4,13.47,13.47,0,0,1,2.9-3.3A14.16,14.16,0,0,1,271,68.89a11.92,11.92,0,0,1,4.39-.82h1.32a10.57,10.57,0,0,1,4.21.82,9.62,9.62,0,0,1,3.25,2.24,8.17,8.17,0,0,1,1.89,3.3,9.91,9.91,0,0,1,.31,4Zm-1.23-46a2.32,2.32,0,0,0-.62-2,2.6,2.6,0,0,0-2-.87h-1.31a3.69,3.69,0,0,0-2.33.87,3.14,3.14,0,0,0-1.27,2l-3.78,25h7.55Z"/><path class="abec9e81-9ce1-4aa0-95fb-ce0c0f4d1f77" d="M310.47,97.08q-2,13.4-12.21,27.37h-7.38q-6.06-14.06-4-27.37l4.31-29h8l-3.87,26.29a45.84,45.84,0,0,0-.48,9.83,60.26,60.26,0,0,0,1.36,9.34,57.9,57.9,0,0,0,4.26-9.3,49.91,49.91,0,0,0,2.24-9.13l4-27h8.08Z"/><path class="abec9e81-9ce1-4aa0-95fb-ce0c0f4d1f77" d="M330.22,124.45H310.55l8.35-56.38h19.67l-1.06,7.52H325.83l-3.07,20.5h9.13l-1.14,7.52h-9.13l-2,13.31h11.68Z"/><path class="abec9e81-9ce1-4aa0-95fb-ce0c0f4d1f77" d="M352.44,124.45H334l8.34-56.38h8.08l-7.29,48.85h10.36Z"/><path class="abec9e81-9ce1-4aa0-95fb-ce0c0f4d1f77" d="M399.25,75.59h-6.5l-7.29,48.86h-8l7.29-48.86h-6.5l1.05-7.52h21Z"/><path class="abec9e81-9ce1-4aa0-95fb-ce0c0f4d1f77" d="M418.48,113.86A10.25,10.25,0,0,1,417,118a13.61,13.61,0,0,1-2.94,3.39,14.28,14.28,0,0,1-3.91,2.27,12.35,12.35,0,0,1-4.44.83,11,11,0,0,1-4.26-.83,8.84,8.84,0,0,1-3.25-2.27,9,9,0,0,1-1.84-3.39,10.18,10.18,0,0,1-.31-4.1l5.36-35.38a9.94,9.94,0,0,1,1.45-4,13.47,13.47,0,0,1,2.9-3.3,14.09,14.09,0,0,1,3.86-2.24,12.26,12.26,0,0,1,4.44-.82,10.88,10.88,0,0,1,4.25.82,9.54,9.54,0,0,1,3.3,2.24,8.29,8.29,0,0,1,1.89,3.3,9.74,9.74,0,0,1,.3,4Zm-2.73-35.37a2.34,2.34,0,0,0-.61-2,2.72,2.72,0,0,0-2.11-.87,3.5,3.5,0,0,0-2.28.87,3.26,3.26,0,0,0-1.23,2l-5.36,35.45a2.49,2.49,0,0,0,.62,2.16,2.66,2.66,0,0,0,2,.82,3.77,3.77,0,0,0,2.37-.82,3.23,3.23,0,0,0,1.23-2.16Z"/><path class="abec9e81-9ce1-4aa0-95fb-ce0c0f4d1f77" d="M450,82.62a9.15,9.15,0,0,0,.92,6.28,44.05,44.05,0,0,0,3.65,5.29l2.37,3.27a19.4,19.4,0,0,1,2.06,3.59,16.79,16.79,0,0,1,1.19,4.18,18.16,18.16,0,0,1,0,5l-.62,3.72a10.06,10.06,0,0,1-1.45,4.09,12.76,12.76,0,0,1-2.94,3.35,14.38,14.38,0,0,1-3.91,2.23,12.26,12.26,0,0,1-4.43.83,10.66,10.66,0,0,1-4.22-.83,9.55,9.55,0,0,1-3.25-2.23,8.26,8.26,0,0,1-1.88-3.35,9.79,9.79,0,0,1-.31-4.09l.7-4.38H446l-.7,4.43a2.42,2.42,0,0,0,.61,2.09,2.65,2.65,0,0,0,2,.83,3.73,3.73,0,0,0,2.37-.82,3.1,3.1,0,0,0,1.23-2.07l.62-3.73a10.12,10.12,0,0,0-1.1-6.58,42,42,0,0,0-3.82-5.59c-.76-1-1.52-2-2.28-3a19.2,19.2,0,0,1-2-3.31A14.46,14.46,0,0,1,441.75,88a14.18,14.18,0,0,1,0-4.51l.79-5A9.82,9.82,0,0,1,444,74.44a13.12,13.12,0,0,1,2.95-3.31,14.72,14.72,0,0,1,3.86-2.23,11.77,11.77,0,0,1,4.39-.83,11,11,0,0,1,4.26.82,9.41,9.41,0,0,1,3.29,2.24,8.17,8.17,0,0,1,1.89,3.3,9.91,9.91,0,0,1,.31,4l-.88,5.71H456l.88-5.71a2.35,2.35,0,0,0-.61-2,2.72,2.72,0,0,0-2.11-.87,3.55,3.55,0,0,0-2.29.87,3.24,3.24,0,0,0-1.23,2Z"/><path class="abec9e81-9ce1-4aa0-95fb-ce0c0f4d1f77" d="M487.15,100.47a11.57,11.57,0,0,1-1.5,4.14,12.33,12.33,0,0,1-2.9,3.3,14.77,14.77,0,0,1-3.9,2.24,12.34,12.34,0,0,1-4.44.82h-3.16l-1.93,13.48h-8l8.34-56.38h11.15a10.66,10.66,0,0,1,4.22.82,9.62,9.62,0,0,1,3.25,2.24,8.29,8.29,0,0,1,1.89,3.3,9.74,9.74,0,0,1,.3,4Zm-4.75-22a2.39,2.39,0,0,0-.57-2,2.57,2.57,0,0,0-2.06-.87h-3.16l-4.22,27.86h3.16a3.46,3.46,0,0,0,2.33-.87,3.36,3.36,0,0,0,1.19-2.11Z"/><path class="abec9e81-9ce1-4aa0-95fb-ce0c0f4d1f77" d="M510.07,124.45H502L503.92,111h-7.55l-1.94,13.48h-7.9l6.85-46a9.94,9.94,0,0,1,1.45-4,13.47,13.47,0,0,1,2.9-3.3,14.16,14.16,0,0,1,3.82-2.24,11.92,11.92,0,0,1,4.39-.82h1.32a10.61,10.61,0,0,1,4.21.82,9.62,9.62,0,0,1,3.25,2.24,8.17,8.17,0,0,1,1.89,3.3,9.91,9.91,0,0,1,.31,4Zm-1.23-46a2.35,2.35,0,0,0-.62-2,2.61,2.61,0,0,0-2-.87h-1.31a3.67,3.67,0,0,0-2.33.87,3.2,3.2,0,0,0-1.28,2l-3.77,25h7.55Z"/><path class="abec9e81-9ce1-4aa0-95fb-ce0c0f4d1f77" d="M537.38,113.86a10.25,10.25,0,0,1-1.45,4.1,13.64,13.64,0,0,1-2.95,3.39,14.16,14.16,0,0,1-3.86,2.27,11.93,11.93,0,0,1-4.39.83,11,11,0,0,1-4.26-.83,8.76,8.76,0,0,1-3.25-2.27,8.87,8.87,0,0,1-1.84-3.39,10,10,0,0,1-.31-4.1l5.36-35.38a9.79,9.79,0,0,1,1.45-4,13.43,13.43,0,0,1,2.89-3.3,14.14,14.14,0,0,1,3.87-2.24,12.25,12.25,0,0,1,4.43-.82,10.66,10.66,0,0,1,4.22.82,9.72,9.72,0,0,1,3.25,2.24,8.27,8.27,0,0,1,1.88,3.3,9.58,9.58,0,0,1,.31,4l-.88,5.71h-8l.88-5.71a2.35,2.35,0,0,0-.61-2,2.72,2.72,0,0,0-2.11-.87,3.5,3.5,0,0,0-2.28.87,3.18,3.18,0,0,0-1.23,2l-5.36,35.45a2.52,2.52,0,0,0,.61,2.16,2.68,2.68,0,0,0,2,.82,3.68,3.68,0,0,0,2.37-.83,3.16,3.16,0,0,0,1.23-2.18l.71-4.34h8Z"/><path class="abec9e81-9ce1-4aa0-95fb-ce0c0f4d1f77" d="M559.5,124.45H539.83l8.35-56.38h19.67l-1.06,7.52H555.11L552,96.09h9.13L560,103.61H550.9l-2,13.31h11.68Z"/><path class="bba1e6fb-b012-4678-9bf4-c89b35e23737" d="M235.44,73h-6.5l-7.29,48.85h-8L221,73h-6.5l1.05-7.53h21Z"/><path class="bba1e6fb-b012-4678-9bf4-c89b35e23737" d="M257.3,97.92a11.22,11.22,0,0,1-2.5,5.45,14.21,14.21,0,0,1-5,4c.64,2.32,1.35,4.74,2.11,7.28s1.49,5,2.19,7.27h-8.69l-3.86-13.47h-.18l-1.93,13.47h-8l8.34-56.38H251a10.66,10.66,0,0,1,4.22.83,9.69,9.69,0,0,1,3.25,2.23,8.45,8.45,0,0,1,1.89,3.31,9.91,9.91,0,0,1,.3,4.05Zm-4.74-22a2.41,2.41,0,0,0-.57-2,2.59,2.59,0,0,0-2.06-.86h-3.16L242.55,101h3.16a3.4,3.4,0,0,0,2.33-.91,3.53,3.53,0,0,0,1.19-2.15Z"/><path class="bba1e6fb-b012-4678-9bf4-c89b35e23737" d="M281.28,121.89H273.2l1.93-13.47h-7.55l-1.93,13.47h-7.91l6.85-46A9.94,9.94,0,0,1,266,71.88a13.52,13.52,0,0,1,2.9-3.31,14.13,14.13,0,0,1,3.82-2.23,11.93,11.93,0,0,1,4.39-.83h1.32a10.61,10.61,0,0,1,4.21.83,9.59,9.59,0,0,1,3.25,2.23,8.21,8.21,0,0,1,1.89,3.31,9.91,9.91,0,0,1,.31,4.05Zm-1.23-46a2.37,2.37,0,0,0-.62-2,2.62,2.62,0,0,0-2-.86H276.1a3.74,3.74,0,0,0-2.33.86,3.16,3.16,0,0,0-1.27,2l-3.78,25h7.55Z"/><path class="bba1e6fb-b012-4678-9bf4-c89b35e23737" d="M312.28,94.53q-2,13.39-12.21,27.36h-7.38q-6.06-14.06-4-27.36l4.31-29h8L297.08,91.8a46,46,0,0,0-.48,9.84A59.25,59.25,0,0,0,298,111a57.9,57.9,0,0,0,4.26-9.3,50.85,50.85,0,0,0,2.24-9.14l4-27h8.08Z"/><path class="bba1e6fb-b012-4678-9bf4-c89b35e23737" d="M332,121.89H312.36l8.35-56.38h19.67L339.32,73H327.64l-3.07,20.5h9.13l-1.14,7.52h-9.13l-2,13.31h11.68Z"/><path class="bba1e6fb-b012-4678-9bf4-c89b35e23737" d="M354.25,121.89H335.81l8.34-56.38h8.08l-7.29,48.86H355.3Z"/><path class="bba1e6fb-b012-4678-9bf4-c89b35e23737" d="M401.05,73h-6.49l-7.29,48.85h-8L386.57,73h-6.5l1.05-7.53h21Z"/><path class="bba1e6fb-b012-4678-9bf4-c89b35e23737" d="M420.29,111.31a10.21,10.21,0,0,1-1.45,4.09,13.3,13.3,0,0,1-2.95,3.39,14.11,14.11,0,0,1-3.9,2.28,12.34,12.34,0,0,1-4.44.82,11,11,0,0,1-4.26-.82,8.87,8.87,0,0,1-3.25-2.28,8.73,8.73,0,0,1-1.84-3.39,10.13,10.13,0,0,1-.31-4.09l5.36-35.38a9.79,9.79,0,0,1,1.45-4.05,13.31,13.31,0,0,1,2.9-3.31,13.91,13.91,0,0,1,3.86-2.23,12.26,12.26,0,0,1,4.43-.83,10.9,10.9,0,0,1,4.26.83,9.52,9.52,0,0,1,3.3,2.23,8.31,8.31,0,0,1,1.88,3.31,9.58,9.58,0,0,1,.31,4.05Zm-2.73-35.38a2.32,2.32,0,0,0-.61-2,2.72,2.72,0,0,0-2.11-.87,3.5,3.5,0,0,0-2.28.87,3.16,3.16,0,0,0-1.23,2L406,111.39a2.46,2.46,0,0,0,.62,2.15,2.67,2.67,0,0,0,2,.83,3.78,3.78,0,0,0,2.37-.83,3.19,3.19,0,0,0,1.23-2.15Z"/><path class="bba1e6fb-b012-4678-9bf4-c89b35e23737" d="M451.81,80.06a9.18,9.18,0,0,0,.92,6.29,43.69,43.69,0,0,0,3.65,5.29l2.37,3.26a19.48,19.48,0,0,1,2.06,3.6,16.84,16.84,0,0,1,1.19,4.17,18.17,18.17,0,0,1,0,5l-.62,3.72a10,10,0,0,1-1.45,4.09,12.6,12.6,0,0,1-2.94,3.35,14.68,14.68,0,0,1-3.91,2.24,12.25,12.25,0,0,1-4.43.82,10.66,10.66,0,0,1-4.22-.82,9.62,9.62,0,0,1-3.25-2.24,8.2,8.2,0,0,1-1.88-3.35,9.78,9.78,0,0,1-.31-4.09l.7-4.38h8.08l-.7,4.43a2.4,2.4,0,0,0,.61,2.09,2.66,2.66,0,0,0,2,.84,3.74,3.74,0,0,0,2.37-.83,3.09,3.09,0,0,0,1.23-2.07l.62-3.73a10.13,10.13,0,0,0-1.1-6.58A43.64,43.64,0,0,0,449,95.57c-.76-1-1.52-2-2.28-3a19,19,0,0,1-2-3.31,15.1,15.1,0,0,1-1.19-3.81,14.85,14.85,0,0,1,0-4.52l.79-5a9.93,9.93,0,0,1,1.45-4.06,12.93,12.93,0,0,1,2.95-3.31,14.59,14.59,0,0,1,3.86-2.24,12,12,0,0,1,4.39-.83,11,11,0,0,1,4.26.83,9.48,9.48,0,0,1,3.29,2.23,8.21,8.21,0,0,1,1.89,3.31,9.91,9.91,0,0,1,.31,4.05l-.88,5.7h-8.08l.88-5.7a2.34,2.34,0,0,0-.62-2,2.72,2.72,0,0,0-2.1-.86,3.59,3.59,0,0,0-2.29.86,3.26,3.26,0,0,0-1.23,2Z"/><path class="bba1e6fb-b012-4678-9bf4-c89b35e23737" d="M489,97.92a11.32,11.32,0,0,1-1.49,4.13,12.37,12.37,0,0,1-2.9,3.31,14.47,14.47,0,0,1-3.9,2.23,12.35,12.35,0,0,1-4.44.83h-3.16l-1.93,13.47h-8l8.34-56.38h11.15a10.66,10.66,0,0,1,4.22.83,9.69,9.69,0,0,1,3.25,2.23A8.31,8.31,0,0,1,492,71.88a9.74,9.74,0,0,1,.31,4.05Zm-4.74-22a2.41,2.41,0,0,0-.57-2,2.59,2.59,0,0,0-2.06-.86h-3.16l-4.22,27.85h3.16a3.5,3.5,0,0,0,2.33-.86,3.36,3.36,0,0,0,1.19-2.11Z"/><path class="bba1e6fb-b012-4678-9bf4-c89b35e23737" d="M511.88,121.89H503.8l1.93-13.47h-7.55l-1.94,13.47h-7.9l6.85-46a9.94,9.94,0,0,1,1.45-4.05,13.52,13.52,0,0,1,2.9-3.31,14.13,14.13,0,0,1,3.82-2.23,11.93,11.93,0,0,1,4.39-.83h1.32a10.61,10.61,0,0,1,4.21.83,9.59,9.59,0,0,1,3.25,2.23,8.21,8.21,0,0,1,1.89,3.31,9.91,9.91,0,0,1,.31,4.05Zm-1.23-46a2.37,2.37,0,0,0-.62-2,2.64,2.64,0,0,0-2-.86h-1.32a3.71,3.71,0,0,0-2.32.86,3.18,3.18,0,0,0-1.28,2l-3.77,25h7.55Z"/><path class="bba1e6fb-b012-4678-9bf4-c89b35e23737" d="M539.18,111.31a10,10,0,0,1-1.44,4.09,13.3,13.3,0,0,1-3,3.39,14.19,14.19,0,0,1-3.86,2.28,11.92,11.92,0,0,1-4.39.82,11,11,0,0,1-4.26-.82,8.55,8.55,0,0,1-5.09-5.67,10,10,0,0,1-.31-4.09l5.36-35.38a9.78,9.78,0,0,1,1.44-4.05,13.73,13.73,0,0,1,2.9-3.31,14,14,0,0,1,3.87-2.23,12.26,12.26,0,0,1,4.43-.83,10.66,10.66,0,0,1,4.22.83,9.69,9.69,0,0,1,3.25,2.23,8.31,8.31,0,0,1,1.88,3.31,9.74,9.74,0,0,1,.31,4.05l-.88,5.7h-8l.88-5.7a2.37,2.37,0,0,0-.61-2,2.74,2.74,0,0,0-2.11-.86,3.5,3.5,0,0,0-2.28.87,3.16,3.16,0,0,0-1.23,2L525,111.39a2.49,2.49,0,0,0,.61,2.15,2.68,2.68,0,0,0,2,.83,3.69,3.69,0,0,0,2.37-.84,3.17,3.17,0,0,0,1.23-2.17l.71-4.35h8Z"/><path class="bba1e6fb-b012-4678-9bf4-c89b35e23737" d="M561.31,121.89H541.64L550,65.51h19.67L568.6,73H556.92l-3.07,20.5H563l-1.14,7.52h-9.13l-2,13.31h11.68Z"/><path class="bb105155-9f98-4480-a946-01919c4e58aa" d="M266,152.29h-2.43l.58-4h-2.28l-.58,4h-2.38L261,138.7a2.87,2.87,0,0,1,.44-1.2,4.28,4.28,0,0,1,.87-1,4.49,4.49,0,0,1,1.15-.65,3.57,3.57,0,0,1,1.33-.25h.4a3.16,3.16,0,0,1,1.27.25,3.05,3.05,0,0,1,1,.65,2.61,2.61,0,0,1,.57,1,3,3,0,0,1,.09,1.2Zm-.37-13.59a.67.67,0,0,0-.18-.6.81.81,0,0,0-.61-.25h-.4a1.11,1.11,0,0,0-.7.25,1,1,0,0,0-.39.6l-1.13,7.38h2.27Z"/><path class="bb105155-9f98-4480-a946-01919c4e58aa" d="M274.38,152.29h-2.44L273.51,142a3.82,3.82,0,0,0-.29-2.11,3.33,3.33,0,0,0-1.46-1.49l-2.09,13.91h-2.41l2.51-16.67a7.71,7.71,0,0,1,2.55.37,5.47,5.47,0,0,1,1.93,1.15l.21-1.52h2.44Z"/><path class="bb105155-9f98-4480-a946-01919c4e58aa" d="M283.09,149.18a3,3,0,0,1-.43,1.21,3.68,3.68,0,0,1-.89,1,4.26,4.26,0,0,1-1.18.66,3.62,3.62,0,0,1-1.34.25h-3.73L278,135.62h3.74a3.18,3.18,0,0,1,1.28.25,2.94,2.94,0,0,1,1,.65,2.46,2.46,0,0,1,.56,1,2.83,2.83,0,0,1,.1,1.2Zm-.82-10.48a.65.65,0,0,0-.2-.6.83.83,0,0,0-.62-.25h-1.32l-1.88,12.21h1.32a1.16,1.16,0,0,0,.7-.24.93.93,0,0,0,.39-.61Z"/><path class="bb105155-9f98-4480-a946-01919c4e58aa" d="M294.85,152.29h-5.93l2.51-16.67h5.93l-.31,2.23h-3.53l-.92,6.06h2.75l-.34,2.22h-2.76l-.61,3.93h3.53Z"/><path class="bb105155-9f98-4480-a946-01919c4e58aa" d="M302.18,144c.18,1.36.35,2.75.52,4.18s.35,2.82.54,4.16h-2.51l-.48-3.84-1.64,3.84h-2.49l3.52-8.34c-.16-1.35-.32-2.74-.49-4.17s-.34-2.82-.51-4.16h2.48l.48,3.84,1.64-3.84h2.52Z"/><path class="bb105155-9f98-4480-a946-01919c4e58aa" d="M312.14,145.2a3.27,3.27,0,0,1-.45,1.22,3.7,3.7,0,0,1-.87,1,4.41,4.41,0,0,1-1.18.66,3.87,3.87,0,0,1-1.34.24h-.95l-.59,4h-2.4l2.51-16.67h3.36a3.1,3.1,0,0,1,1.27.25,2.85,2.85,0,0,1,1,.65,2.37,2.37,0,0,1,.57,1,2.83,2.83,0,0,1,.1,1.2Zm-1.43-6.5a.69.69,0,0,0-.17-.6.79.79,0,0,0-.62-.25h-1l-1.27,8.23h.95a1,1,0,0,0,.71-.26.94.94,0,0,0,.35-.62Z"/><path class="bb105155-9f98-4480-a946-01919c4e58aa" d="M317.83,152.29h-5.56l2.52-16.67h2.43L315,150.06h3.12Z"/><path class="bb105155-9f98-4480-a946-01919c4e58aa" d="M326.33,149.16a2.89,2.89,0,0,1-.43,1.21,4.14,4.14,0,0,1-2.07,1.67,3.62,3.62,0,0,1-1.34.25,3.21,3.21,0,0,1-1.28-.25,2.55,2.55,0,0,1-1-.67,2.59,2.59,0,0,1-.56-1,3,3,0,0,1-.09-1.21l1.62-10.46a3,3,0,0,1,.43-1.2,4.1,4.1,0,0,1,.88-1,4.24,4.24,0,0,1,1.16-.65,3.66,3.66,0,0,1,1.34-.25,3.18,3.18,0,0,1,1.28.25,2.94,2.94,0,0,1,1,.65,2.61,2.61,0,0,1,.57,1,3,3,0,0,1,.09,1.2Zm-.82-10.46a.67.67,0,0,0-.18-.6.83.83,0,0,0-.64-.25,1.09,1.09,0,0,0-.69.25,1,1,0,0,0-.37.6L322,149.18a.71.71,0,0,0,.18.64.82.82,0,0,0,.61.24,1.16,1.16,0,0,0,.72-.24,1,1,0,0,0,.37-.64Z"/><path class="bb105155-9f98-4480-a946-01919c4e58aa" d="M335.12,145.2a3.26,3.26,0,0,1-.75,1.61,4.3,4.3,0,0,1-1.5,1.18c.2.68.41,1.4.64,2.15l.66,2.15h-2.62l-1.17-4h-.05l-.58,4h-2.41l2.51-16.67h3.37a3.13,3.13,0,0,1,1.27.25,3,3,0,0,1,1,.65,2.61,2.61,0,0,1,.57,1,3,3,0,0,1,.09,1.2Zm-1.43-6.5a.69.69,0,0,0-.17-.6.79.79,0,0,0-.62-.25H332l-1.27,8.26h.95a1,1,0,0,0,.7-.27,1.07,1.07,0,0,0,.36-.64Z"/><path class="bb105155-9f98-4480-a946-01919c4e58aa" d="M341.66,152.29h-5.93l2.52-16.67h5.93l-.32,2.23h-3.52l-.93,6.06h2.76l-.35,2.22h-2.75l-.61,3.93H342Z"/><path class="bb105155-9f98-4480-a946-01919c4e58aa" d="M356.36,137.85h-2l-2.2,14.44h-2.41l2.2-14.44h-2l.32-2.23h6.33Z"/><path class="bb105155-9f98-4480-a946-01919c4e58aa" d="M362.35,152.29h-2.44l.58-4h-2.28l-.58,4h-2.41l2.52-16.67h2.41l-1.59,10.46h2.28l1.59-10.46h2.43Z"/><path class="bb105155-9f98-4480-a946-01919c4e58aa" d="M369.76,152.29h-5.93l2.51-16.67h5.94l-.32,2.23h-3.52l-.93,6.06h2.75l-.34,2.22h-2.75l-.61,3.93h3.52Z"/><path class="bb105155-9f98-4480-a946-01919c4e58aa" d="M386.52,152.29a6.55,6.55,0,0,1-2.83-.6,4.61,4.61,0,0,1-2-1.67,7.69,7.69,0,0,1-2.48,1.67,7.56,7.56,0,0,1-3,.6l2.52-16.67h2.43l-2.09,13.78a3.93,3.93,0,0,0,1.29-1.17,3.79,3.79,0,0,0,.62-1.56l1.67-11h2.41l-1.67,11a2.79,2.79,0,0,0,.16,1.54,2.54,2.54,0,0,0,.93,1.19l2.09-13.78H389Z"/><path class="bb105155-9f98-4480-a946-01919c4e58aa" d="M395.26,149.16a2.91,2.91,0,0,1-.44,1.21,4,4,0,0,1-.88,1,4.19,4.19,0,0,1-1.18.67,3.66,3.66,0,0,1-1.34.25,3.18,3.18,0,0,1-1.28-.25,2.56,2.56,0,0,1-1.54-1.67,2.72,2.72,0,0,1-.09-1.21l1.61-10.46a3,3,0,0,1,.44-1.2,4.28,4.28,0,0,1,.87-1,4.45,4.45,0,0,1,1.17-.65,3.62,3.62,0,0,1,1.34-.25,3.21,3.21,0,0,1,1.28.25,2.8,2.8,0,0,1,1,.65,2.37,2.37,0,0,1,.57,1,2.83,2.83,0,0,1,.1,1.2Zm-.82-10.46a.7.7,0,0,0-.19-.6.82.82,0,0,0-.63-.25,1.07,1.07,0,0,0-.69.25.93.93,0,0,0-.37.6l-1.62,10.48a.74.74,0,0,0,.19.64.82.82,0,0,0,.61.24,1.15,1.15,0,0,0,.71-.24.92.92,0,0,0,.37-.64Z"/><path class="bb105155-9f98-4480-a946-01919c4e58aa" d="M403.12,152.29h-2.43L402.25,142a3.64,3.64,0,0,0-.29-2.11,3.28,3.28,0,0,0-1.46-1.49l-2.09,13.91H396l2.52-16.67a7.65,7.65,0,0,1,2.54.37,5.47,5.47,0,0,1,1.93,1.15l.21-1.52h2.44Z"/><path class="bb105155-9f98-4480-a946-01919c4e58aa" d="M411.84,149.18a3,3,0,0,1-.44,1.21,3.52,3.52,0,0,1-.89,1,4.13,4.13,0,0,1-1.18.66,3.57,3.57,0,0,1-1.33.25h-3.74l2.52-16.67h3.73a3.26,3.26,0,0,1,1.29.25,3,3,0,0,1,1,.65,2.61,2.61,0,0,1,.57,1,2.83,2.83,0,0,1,.09,1.2ZM411,138.7a.71.71,0,0,0-.2-.6.85.85,0,0,0-.63-.25h-1.32L407,150.06h1.32a1.19,1.19,0,0,0,.71-.24.92.92,0,0,0,.38-.61Z"/><path class="bb105155-9f98-4480-a946-01919c4e58aa" d="M418.59,152.29h-5.93l2.51-16.67h5.93l-.31,2.23h-3.53l-.92,6.06h2.75l-.34,2.22H416l-.61,3.93h3.53Z"/><path class="bb105155-9f98-4480-a946-01919c4e58aa" d="M427.94,145.2a3.28,3.28,0,0,1-.76,1.61,4.21,4.21,0,0,1-1.5,1.18c.2.68.41,1.4.64,2.15l.66,2.15h-2.62l-1.16-4h-.06l-.58,4h-2.41l2.52-16.67H426a3.13,3.13,0,0,1,1.27.25,2.85,2.85,0,0,1,1,.65,2.48,2.48,0,0,1,.57,1,3,3,0,0,1,.09,1.2Zm-1.43-6.5a.73.73,0,0,0-.18-.6.77.77,0,0,0-.62-.25h-.95l-1.27,8.26h.95a1,1,0,0,0,.7-.27,1.07,1.07,0,0,0,.36-.64Z"/><path class="bb105155-9f98-4480-a946-01919c4e58aa" d="M432.57,139.92a2.67,2.67,0,0,0,.28,1.86,12.39,12.39,0,0,0,1.1,1.56c.23.31.46.64.71,1a5.15,5.15,0,0,1,.62,1.06,4.83,4.83,0,0,1,.36,1.24,5.23,5.23,0,0,1,0,1.48l-.18,1.09a3,3,0,0,1-.44,1.21,3.52,3.52,0,0,1-.89,1A4.13,4.13,0,0,1,433,152a3.57,3.57,0,0,1-1.33.25,3.18,3.18,0,0,1-1.28-.25,2.78,2.78,0,0,1-1-.66,2.23,2.23,0,0,1-.57-1,2.86,2.86,0,0,1-.1-1.21l.22-1.29h2.43l-.21,1.31a.69.69,0,0,0,.19.62.8.8,0,0,0,.6.24,1.16,1.16,0,0,0,.72-.24.94.94,0,0,0,.37-.61l.19-1.1a3,3,0,0,0-.34-2,12.29,12.29,0,0,0-1.15-1.65l-.69-.9a5.31,5.31,0,0,1-.59-1,4.2,4.2,0,0,1-.36-1.12,4.29,4.29,0,0,1,0-1.34l.24-1.46a2.77,2.77,0,0,1,.44-1.2,3.58,3.58,0,0,1,.88-1,4.36,4.36,0,0,1,1.17-.66,3.48,3.48,0,0,1,1.32-.25,3.26,3.26,0,0,1,1.29.25,3,3,0,0,1,1,.65,2.61,2.61,0,0,1,.57,1,3,3,0,0,1,.09,1.2l-.26,1.69h-2.44l.27-1.69a.7.7,0,0,0-.19-.6.83.83,0,0,0-.64-.25,1.06,1.06,0,0,0-.68.25,1,1,0,0,0-.38.6Z"/><path class="bb105155-9f98-4480-a946-01919c4e58aa" d="M448.48,149.16a2.89,2.89,0,0,1-.43,1.21A4.14,4.14,0,0,1,446,152a3.61,3.61,0,0,1-1.33.25,3.26,3.26,0,0,1-1.29-.25,2.55,2.55,0,0,1-1-.67,2.73,2.73,0,0,1-.56-1,3,3,0,0,1-.09-1.21l1.62-10.46a3,3,0,0,1,.43-1.2,4.1,4.1,0,0,1,.88-1,4.24,4.24,0,0,1,1.16-.65,3.66,3.66,0,0,1,1.34-.25,3.26,3.26,0,0,1,1.29.25,3,3,0,0,1,1,.65,2.61,2.61,0,0,1,.57,1,3,3,0,0,1,.09,1.2Zm-.82-10.46a.67.67,0,0,0-.18-.6.83.83,0,0,0-.64-.25,1.11,1.11,0,0,0-.69.25,1,1,0,0,0-.37.6l-1.61,10.48a.71.71,0,0,0,.18.64.84.84,0,0,0,.61.24,1.16,1.16,0,0,0,.72-.24,1,1,0,0,0,.37-.64Z"/><path class="bb105155-9f98-4480-a946-01919c4e58aa" d="M457.62,137.85h-3.5l-.92,6.06h2.72l-.34,2.22h-2.73l-.92,6.16h-2.44L452,135.62h5.93Z"/><path class="bb105155-9f98-4480-a946-01919c4e58aa" d="M468.79,149.16a2.89,2.89,0,0,1-.43,1.21,4.14,4.14,0,0,1-2.07,1.67,3.62,3.62,0,0,1-1.34.25,3.25,3.25,0,0,1-1.28-.25,2.55,2.55,0,0,1-1-.67,2.59,2.59,0,0,1-.56-1,3,3,0,0,1-.09-1.21l1.62-10.46a3,3,0,0,1,.43-1.2,4.1,4.1,0,0,1,.88-1,4.24,4.24,0,0,1,1.16-.65,3.66,3.66,0,0,1,1.34-.25,3.18,3.18,0,0,1,1.28.25,2.94,2.94,0,0,1,1,.65,2.61,2.61,0,0,1,.57,1,3,3,0,0,1,.09,1.2ZM468,138.7a.67.67,0,0,0-.18-.6.83.83,0,0,0-.64-.25,1.11,1.11,0,0,0-.69.25,1,1,0,0,0-.37.6l-1.61,10.48a.71.71,0,0,0,.18.64.84.84,0,0,0,.61.24,1.16,1.16,0,0,0,.72-.24,1,1,0,0,0,.37-.64Z"/><path class="bb105155-9f98-4480-a946-01919c4e58aa" d="M476.9,149.18a3,3,0,0,1-.44,1.21,3.52,3.52,0,0,1-.89,1,4.13,4.13,0,0,1-1.18.66,3.57,3.57,0,0,1-1.33.25,3.1,3.1,0,0,1-1.27-.25,2.73,2.73,0,0,1-1-.66,2.23,2.23,0,0,1-.57-1,2.86,2.86,0,0,1-.1-1.21l2.07-13.56h2.44l-2.07,13.59a.67.67,0,0,0,.19.61.8.8,0,0,0,.6.24,1.13,1.13,0,0,0,.73-.24.93.93,0,0,0,.36-.61l2.07-13.59H479Z"/><path class="bb105155-9f98-4480-a946-01919c4e58aa" d="M485.87,145.2a3.26,3.26,0,0,1-.75,1.61,4.39,4.39,0,0,1-1.5,1.18c.2.68.41,1.4.64,2.15l.66,2.15H482.3l-1.17-4h-.05l-.58,4h-2.41l2.51-16.67H484a3.13,3.13,0,0,1,1.27.25,3,3,0,0,1,1,.65,2.61,2.61,0,0,1,.57,1,3,3,0,0,1,.09,1.2Zm-1.43-6.5a.69.69,0,0,0-.17-.6.79.79,0,0,0-.62-.25h-.95l-1.28,8.26h1a1,1,0,0,0,.7-.27,1.07,1.07,0,0,0,.36-.64Z"/><path class="bb105155-9f98-4480-a946-01919c4e58aa" d="M495.51,139.92a2.67,2.67,0,0,0,.28,1.86,12.39,12.39,0,0,0,1.1,1.56l.71,1a5.7,5.7,0,0,1,.63,1.06,5,5,0,0,1,.35,2.72l-.18,1.09a3,3,0,0,1-.44,1.21,3.52,3.52,0,0,1-.89,1,4.21,4.21,0,0,1-1.17.66,3.66,3.66,0,0,1-1.34.25,3.13,3.13,0,0,1-1.27-.25,2.73,2.73,0,0,1-1-.66,2.23,2.23,0,0,1-.57-1,2.71,2.71,0,0,1-.09-1.21l.21-1.29h2.43l-.21,1.31a.72.72,0,0,0,.19.62.82.82,0,0,0,.61.24,1.15,1.15,0,0,0,.71-.24.9.9,0,0,0,.37-.61l.19-1.1a3,3,0,0,0-.33-2,12.38,12.38,0,0,0-1.16-1.65l-.68-.9a5.35,5.35,0,0,1-.6-1,4.2,4.2,0,0,1-.36-1.12,4.29,4.29,0,0,1,0-1.34l.24-1.46a2.77,2.77,0,0,1,.44-1.2,3.75,3.75,0,0,1,.88-1,4.51,4.51,0,0,1,1.17-.66,3.48,3.48,0,0,1,1.32-.25,3.26,3.26,0,0,1,1.29.25,2.8,2.8,0,0,1,1,.65,2.37,2.37,0,0,1,.57,1,2.68,2.68,0,0,1,.09,1.2l-.26,1.69h-2.44l.27-1.69a.7.7,0,0,0-.19-.6.82.82,0,0,0-.63-.25,1.07,1.07,0,0,0-.69.25.93.93,0,0,0-.37.6Z"/><path class="bb105155-9f98-4480-a946-01919c4e58aa" d="M506.42,149.16a2.91,2.91,0,0,1-.44,1.21,3.82,3.82,0,0,1-.88,1,4.19,4.19,0,0,1-1.18.67,3.62,3.62,0,0,1-1.34.25,3.18,3.18,0,0,1-1.28-.25,2.48,2.48,0,0,1-1-.67,2.59,2.59,0,0,1-.56-1,3,3,0,0,1-.09-1.21l1.61-10.46a3,3,0,0,1,.44-1.2,4.28,4.28,0,0,1,.87-1,4.45,4.45,0,0,1,1.17-.65,3.62,3.62,0,0,1,1.34-.25,3.21,3.21,0,0,1,1.28.25,2.8,2.8,0,0,1,1,.65,2.37,2.37,0,0,1,.57,1,2.83,2.83,0,0,1,.1,1.2Zm-.82-10.46a.7.7,0,0,0-.19-.6.81.81,0,0,0-.63-.25,1.07,1.07,0,0,0-.69.25.93.93,0,0,0-.37.6l-1.61,10.48a.71.71,0,0,0,.18.64.82.82,0,0,0,.61.24,1.15,1.15,0,0,0,.71-.24.94.94,0,0,0,.38-.64Z"/><path class="bb105155-9f98-4480-a946-01919c4e58aa" d="M512.83,152.29h-5.56l2.51-16.67h2.44L510,150.06h3.13Z"/><path class="bb105155-9f98-4480-a946-01919c4e58aa" d="M521.22,152.29h-2.43l.58-4h-2.28l-.58,4h-2.38l2.06-13.59a3,3,0,0,1,.44-1.2,4.28,4.28,0,0,1,.87-1,4.49,4.49,0,0,1,1.15-.65,3.57,3.57,0,0,1,1.33-.25h.4a3.13,3.13,0,0,1,1.27.25,3,3,0,0,1,1,.65,2.61,2.61,0,0,1,.57,1,3,3,0,0,1,.09,1.2Zm-.37-13.59a.67.67,0,0,0-.18-.6.79.79,0,0,0-.61-.25h-.4a1.11,1.11,0,0,0-.7.25,1,1,0,0,0-.39.6l-1.13,7.38h2.27Z"/><path class="bb105155-9f98-4480-a946-01919c4e58aa" d="M530.52,145.2a3.28,3.28,0,0,1-.76,1.61,4.27,4.27,0,0,1-1.49,1.18c.19.68.4,1.4.63,2.15l.66,2.15h-2.62l-1.16-4h-.06l-.58,4h-2.41l2.52-16.67h3.36a3.13,3.13,0,0,1,1.27.25,2.85,2.85,0,0,1,1,.65,2.37,2.37,0,0,1,.57,1,2.68,2.68,0,0,1,.09,1.2Zm-1.43-6.5a.72.72,0,0,0-.17-.6.79.79,0,0,0-.63-.25h-.95l-1.27,8.26H527a1,1,0,0,0,.7-.27,1,1,0,0,0,.36-.64Z"/><path class="bb105155-9f98-4480-a946-01919c4e58aa" d="M540.16,139.92a2.62,2.62,0,0,0,.27,1.86,13.52,13.52,0,0,0,1.1,1.56l.72,1a6.25,6.25,0,0,1,.62,1.06,4.83,4.83,0,0,1,.36,1.24,5.23,5.23,0,0,1,0,1.48l-.19,1.09a3,3,0,0,1-.43,1.21,3.68,3.68,0,0,1-.89,1,4.41,4.41,0,0,1-1.18.66,3.62,3.62,0,0,1-1.34.25,3.13,3.13,0,0,1-1.27-.25,2.82,2.82,0,0,1-1-.66,2.43,2.43,0,0,1-.57-1,3,3,0,0,1-.09-1.21l.21-1.29h2.44l-.21,1.31a.69.69,0,0,0,.18.62.82.82,0,0,0,.61.24,1.18,1.18,0,0,0,.72-.24.94.94,0,0,0,.37-.61l.18-1.1a2.89,2.89,0,0,0-.33-2,13.28,13.28,0,0,0-1.15-1.65l-.69-.9a5.35,5.35,0,0,1-.6-1,4.57,4.57,0,0,1-.35-1.12,4.29,4.29,0,0,1,0-1.34l.24-1.46a2.76,2.76,0,0,1,.43-1.2,3.79,3.79,0,0,1,.89-1,4.3,4.3,0,0,1,1.16-.66,3.57,3.57,0,0,1,1.33-.25,3.18,3.18,0,0,1,1.28.25,2.94,2.94,0,0,1,1,.65,2.61,2.61,0,0,1,.57,1,3,3,0,0,1,.09,1.2l-.27,1.69H542l.26-1.69a.67.67,0,0,0-.18-.6.83.83,0,0,0-.64-.25,1.07,1.07,0,0,0-.69.25,1,1,0,0,0-.37.6Z"/><path class="bb105155-9f98-4480-a946-01919c4e58aa" d="M551.62,145.2a3.26,3.26,0,0,1-.85,1.77,4,4,0,0,1-1.72,1.14l-.63,4.18H546l.64-4.18A2.46,2.46,0,0,1,545.2,147a2.62,2.62,0,0,1-.3-1.8l1.45-9.58h2.41l-1.45,9.58a.69.69,0,0,0,.19.62.82.82,0,0,0,.63.26,1,1,0,0,0,.7-.26,1,1,0,0,0,.36-.62l1.45-9.58h2.44Z"/><path class="bb105155-9f98-4480-a946-01919c4e58aa" d="M556.18,139.92a2.62,2.62,0,0,0,.27,1.86,13.52,13.52,0,0,0,1.1,1.56l.72,1a5.65,5.65,0,0,1,.62,1.06,4.83,4.83,0,0,1,.36,1.24,5.23,5.23,0,0,1,0,1.48l-.19,1.09a3,3,0,0,1-.43,1.21,3.68,3.68,0,0,1-.89,1,4.26,4.26,0,0,1-1.18.66,3.62,3.62,0,0,1-1.34.25A3.13,3.13,0,0,1,554,152a2.82,2.82,0,0,1-1-.66,2.43,2.43,0,0,1-.57-1,3,3,0,0,1-.09-1.21l.21-1.29H555l-.21,1.31a.69.69,0,0,0,.18.62.82.82,0,0,0,.61.24,1.18,1.18,0,0,0,.72-.24.94.94,0,0,0,.37-.61l.18-1.1a2.89,2.89,0,0,0-.33-2,13.28,13.28,0,0,0-1.15-1.65l-.69-.9a5.35,5.35,0,0,1-.6-1,4.57,4.57,0,0,1-.35-1.12,4.29,4.29,0,0,1,0-1.34l.24-1.46a2.76,2.76,0,0,1,.43-1.2,3.79,3.79,0,0,1,.89-1,4.3,4.3,0,0,1,1.16-.66,3.57,3.57,0,0,1,1.33-.25,3.18,3.18,0,0,1,1.28.25,2.94,2.94,0,0,1,1,.65,2.61,2.61,0,0,1,.57,1,3,3,0,0,1,.09,1.2l-.27,1.69H558l.26-1.69a.67.67,0,0,0-.18-.6.83.83,0,0,0-.64-.25,1.07,1.07,0,0,0-.69.25,1,1,0,0,0-.37.6Z"/><path class="bb105155-9f98-4480-a946-01919c4e58aa" d="M568.23,137.85h-2l-2.2,14.44h-2.41l2.2-14.44h-2l.31-2.23h6.33Z"/><path class="bb105155-9f98-4480-a946-01919c4e58aa" d="M573.23,152.29H567.3l2.51-16.67h5.94l-.32,2.23h-3.52l-.93,6.06h2.75l-.34,2.22h-2.76l-.6,3.93h3.52Z"/><path class="bb105155-9f98-4480-a946-01919c4e58aa" d="M584.91,152.29H582.5l2.09-13.79a4.22,4.22,0,0,0-1.3,1.18,3.68,3.68,0,0,0-.63,1.56l-1.67,11h-2.41l1.67-11a2.86,2.86,0,0,0-1.06-2.74l-2.09,13.79h-2.44l2.52-16.67a6.36,6.36,0,0,1,2.8.6,4.83,4.83,0,0,1,2,1.65,7.48,7.48,0,0,1,2.48-1.65,7.73,7.73,0,0,1,3-.6Z"/><path class="bb105155-9f98-4480-a946-01919c4e58aa" d="M588.69,152.29h-2.43l.32-2.23H589Zm.43-2.89h-2.44l2.09-13.78h2.44Z"/></g></svg>