<svg id="b06a8415-cc7f-4d49-8967-4861f922cab6" data-name="BACKGROUND" xmlns="http://www.w3.org/2000/svg" xmlns:xlink="http://www.w3.org/1999/xlink" width="500" height="500" viewBox="0 0 500 500"><defs><style>.a6539ff7-487f-41e0-ba96-db40a7d1f6a1{fill:url(#a8b1446f-bdf9-45ff-8485-a2a32f4ba943);}.b4fd5855-bbcf-4280-a693-cc072c3fbd7f{fill:#2d2c5b;}.b2b95cdd-bcdf-4ed7-9f0e-1201dc5fff7d{fill:#382c59;}.f2fa4141-e6a9-4f5a-bb71-5442f9eed676{fill:#1a1e35;}.a58125d3-4709-417a-85b0-2243a589d624{fill:#7f715d;}.a62dba1d-0f9d-419a-b55e-15d8022ea083{fill:#6f5c7c;}.aab48b3e-b05d-43f5-96dc-fca59c1ab7d5{fill:#eddec8;}.bdd83111-fcd6-4f96-8d85-29e9f18b734c{fill:#d3b994;}.e37609c6-2b75-4ceb-854a-7bc04eef6125{opacity:0.51;}.eae073f0-5adf-416f-9444-ec6ef936da4a{fill:#f4e1c9;}</style><linearGradient id="a8b1446f-bdf9-45ff-8485-a2a32f4ba943" y1="250" x2="500" y2="250" gradientUnits="userSpaceOnUse"><stop offset="0" stop-color="#0e1127"/><stop offset="1" stop-color="#0e1127"/></linearGradient></defs><rect class="a6539ff7-487f-41e0-ba96-db40a7d1f6a1" width="500" height="500"/><path class="b4fd5855-bbcf-4280-a693-cc072c3fbd7f" d="M292,97.63a1.71,1.71,0,1,1,1.71-1.7A1.7,1.7,0,0,1,292,97.63Z" transform="translate(0)"/><path class="b4fd5855-bbcf-4280-a693-cc072c3fbd7f" d="M48.42,130.14a1.71,1.71,0,1,1,1.71-1.71A1.71,1.71,0,0,1,48.42,130.14Z" transform="translate(0)"/><path class="b4fd5855-bbcf-4280-a693-cc072c3fbd7f" d="M408.48,130.14a1.71,1.71,0,1,1,1.7-1.71A1.71,1.71,0,0,1,408.48,130.14Z" transform="translate(0)"/><path class="b4fd5855-bbcf-4280-a693-cc072c3fbd7f" d="M475.22,7.63a1.71,1.71,0,1,1,1.71-1.7A1.7,1.7,0,0,1,475.22,7.63Z" transform="translate(0)"/><path class="b4fd5855-bbcf-4280-a693-cc072c3fbd7f" d="M469.92,426.3a1.71,1.71,0,1,1,1.7-1.71A1.72,1.72,0,0,1,469.92,426.3Z" transform="translate(0)"/><path class="b4fd5855-bbcf-4280-a693-cc072c3fbd7f" d="M255.39,379.5a1.71,1.71,0,1,1,1.7-1.7A1.71,1.71,0,0,1,255.39,379.5Z" transform="translate(0)"/><path class="b4fd5855-bbcf-4280-a693-cc072c3fbd7f" d="M59.85,355a1.71,1.71,0,1,1,1.7-1.71A1.71,1.71,0,0,1,59.85,355Z" transform="translate(0)"/><path class="b4fd5855-bbcf-4280-a693-cc072c3fbd7f" d="M409.61,49.15a4.94,4.94,0,1,1,4.94-4.94A4.94,4.94,0,0,1,409.61,49.15Z" transform="translate(0)"/><path class="b4fd5855-bbcf-4280-a693-cc072c3fbd7f" d="M292,192.28a4.94,4.94,0,1,1,4.94-4.94A4.94,4.94,0,0,1,292,192.28Z" transform="translate(0)"/><path class="b4fd5855-bbcf-4280-a693-cc072c3fbd7f" d="M109.18,411.43a4.94,4.94,0,1,1,4.94-4.94A4.94,4.94,0,0,1,109.18,411.43Z" transform="translate(0)"/><path class="b4fd5855-bbcf-4280-a693-cc072c3fbd7f" d="M64.38,388.36a4.95,4.95,0,1,1,4.94-4.94A4.94,4.94,0,0,1,64.38,388.36Z" transform="translate(0)"/><path class="b4fd5855-bbcf-4280-a693-cc072c3fbd7f" d="M474.86,252A4.94,4.94,0,1,1,479.8,247,4.94,4.94,0,0,1,474.86,252Z" transform="translate(0)"/><circle class="b4fd5855-bbcf-4280-a693-cc072c3fbd7f" cx="161.67" cy="195.08" r="4.94"/><path class="b4fd5855-bbcf-4280-a693-cc072c3fbd7f" d="M40,295.6A4.94,4.94,0,1,1,45,290.66,4.94,4.94,0,0,1,40,295.6Z" transform="translate(0)"/><circle class="b4fd5855-bbcf-4280-a693-cc072c3fbd7f" cx="399.6" cy="275.5" r="9.33" transform="translate(39.35 600.77) rotate(-76.66)"/><circle class="b4fd5855-bbcf-4280-a693-cc072c3fbd7f" cx="275.18" cy="243" r="7.97" transform="matrix(0.16, -0.99, 0.99, 0.16, -8.76, 475.7)"/><circle class="b2b95cdd-bcdf-4ed7-9f0e-1201dc5fff7d" cx="263.19" cy="364.16" r="7.97" transform="translate(-180.41 292.76) rotate(-45)"/><path class="b2b95cdd-bcdf-4ed7-9f0e-1201dc5fff7d" d="M447.7,374.43a4,4,0,1,1,4-4A4,4,0,0,1,447.7,374.43Z" transform="translate(0)"/><circle class="b2b95cdd-bcdf-4ed7-9f0e-1201dc5fff7d" cx="107.9" cy="15.3" r="7.97"/><circle class="b2b95cdd-bcdf-4ed7-9f0e-1201dc5fff7d" cx="469.39" cy="110.17" r="7.97" transform="translate(352.51 577.93) rotate(-89.18)"/><circle class="b2b95cdd-bcdf-4ed7-9f0e-1201dc5fff7d" cx="325.7" cy="319.23" r="2.68"/><path class="b2b95cdd-bcdf-4ed7-9f0e-1201dc5fff7d" d="M105.22,226.07a2.68,2.68,0,1,1,2.68-2.67A2.67,2.67,0,0,1,105.22,226.07Z" transform="translate(0)"/><path class="b2b95cdd-bcdf-4ed7-9f0e-1201dc5fff7d" d="M182.37,441.86a2.68,2.68,0,1,1,2.68-2.68A2.68,2.68,0,0,1,182.37,441.86Z" transform="translate(0)"/><circle class="b2b95cdd-bcdf-4ed7-9f0e-1201dc5fff7d" cx="416.43" cy="457.07" r="2.68"/><circle class="b2b95cdd-bcdf-4ed7-9f0e-1201dc5fff7d" cx="260.54" cy="4.96" r="2.68"/><circle class="b2b95cdd-bcdf-4ed7-9f0e-1201dc5fff7d" cx="89.07" cy="274.52" r="2.68"/><path class="b2b95cdd-bcdf-4ed7-9f0e-1201dc5fff7d" d="M21.68,38.07a2.68,2.68,0,1,1,2.68-2.68A2.68,2.68,0,0,1,21.68,38.07Z" transform="translate(0)"/><circle class="b4fd5855-bbcf-4280-a693-cc072c3fbd7f" cx="142.22" cy="17.6" r="7.97"/><path class="f2fa4141-e6a9-4f5a-bb71-5442f9eed676" d="M470.31,23c0-7.66-11.86-6.9-11.86.71S470.31,30.59,470.31,23Z" transform="translate(0)"/><path class="f2fa4141-e6a9-4f5a-bb71-5442f9eed676" d="M447.61,77.78a3.83,3.83,0,0,0,1.18-2.56,5.27,5.27,0,0,0-2.85-4.86,4.2,4.2,0,0,0-2.91-.8,4,4,0,0,0-2.25,1.11,4,4,0,0,0-.44,5.15,8.22,8.22,0,0,0,1.09,1.4,8.07,8.07,0,0,0,1.09.92,4.44,4.44,0,0,0,2.44.61A3.85,3.85,0,0,0,447.61,77.78Z" transform="translate(0)"/><path class="f2fa4141-e6a9-4f5a-bb71-5442f9eed676" d="M402.68,70.41a3.21,3.21,0,0,0,1.82-.87,2.29,2.29,0,0,0,.7-1,3.1,3.1,0,0,0,.25-1.56,4.47,4.47,0,0,0-1.39-2.54l-.57-.36a2.68,2.68,0,0,0-2.06-.07A2.87,2.87,0,0,0,400,65.43a3.07,3.07,0,0,0,2.71,5Z" transform="translate(0)"/><path class="f2fa4141-e6a9-4f5a-bb71-5442f9eed676" d="M388.34,116.46c0-6.38-9.92-6.64-9.92-.24S388.34,122.86,388.34,116.46Z" transform="translate(0)"/><path class="f2fa4141-e6a9-4f5a-bb71-5442f9eed676" d="M448.06,187.31c0-2.16-3.36-2.12-3.36.05S448.06,189.48,448.06,187.31Z" transform="translate(0)"/><path class="f2fa4141-e6a9-4f5a-bb71-5442f9eed676" d="M356,43.08a3.9,3.9,0,0,0,2.59-3.94,4.58,4.58,0,0,0-.64-1.87,3.44,3.44,0,0,0-1.82-1.4,3.71,3.71,0,0,0-.29-.27,2.63,2.63,0,0,0-1.08-.66,4.92,4.92,0,0,0-3.23-.33,4.93,4.93,0,0,0-.82,9.3A4.87,4.87,0,0,0,356,43.08Z" transform="translate(0)"/><path class="f2fa4141-e6a9-4f5a-bb71-5442f9eed676" d="M307.88,87.3c-.05,0,0,0,0,0Z" transform="translate(0)"/><path class="f2fa4141-e6a9-4f5a-bb71-5442f9eed676" d="M308,87.41h0l-.09-.1Z" transform="translate(0)"/><path class="f2fa4141-e6a9-4f5a-bb71-5442f9eed676" d="M312.22,88.09a2.58,2.58,0,0,0-.09-3.59l-1.08-.88a2.42,2.42,0,0,0-1.89-.29,2.56,2.56,0,0,0-1.3.84A2.48,2.48,0,0,0,308,87.4l.2.24.46.54A2.55,2.55,0,0,0,312.22,88.09Z" transform="translate(0)"/><path class="f2fa4141-e6a9-4f5a-bb71-5442f9eed676" d="M420.33,317.48c0-2.49-3.9-2.81-3.9-.29S420.33,320,420.33,317.48Z" transform="translate(0)"/><path class="f2fa4141-e6a9-4f5a-bb71-5442f9eed676" d="M419.42,171.47c0-1.35-2.09-1.62-2.09-.26S419.42,172.82,419.42,171.47Z" transform="translate(0)"/><path class="f2fa4141-e6a9-4f5a-bb71-5442f9eed676" d="M262.32,225a7.81,7.81,0,0,0,5.12-2.91l1-1.69a7.77,7.77,0,0,0,.57-4,7.93,7.93,0,0,0-8.58-6.7,7.76,7.76,0,0,0-5.13,2.9l-1,1.7a7.53,7.53,0,0,0-.57,4,7.43,7.43,0,0,0,5.56,6.4A5.84,5.84,0,0,0,262.32,225Z" transform="translate(0)"/><path class="f2fa4141-e6a9-4f5a-bb71-5442f9eed676" d="M310.36,286.58a7.77,7.77,0,0,0,5.13-2.91l1-1.69a7.65,7.65,0,0,0,.57-4,7.93,7.93,0,0,0-8.58-6.7,7.79,7.79,0,0,0-5.13,2.91l-1,1.69a7.75,7.75,0,0,0-.57,4,5.78,5.78,0,0,0,1,2.86,5.85,5.85,0,0,0,1.89,2.27,8.63,8.63,0,0,0,5.67,1.57Z" transform="translate(0)"/><path class="f2fa4141-e6a9-4f5a-bb71-5442f9eed676" d="M303.85,160.5c0-1.89-3-2.24-3-.32S303.85,162.41,303.85,160.5Z" transform="translate(0)"/><path class="f2fa4141-e6a9-4f5a-bb71-5442f9eed676" d="M232.41,42a8,8,0,0,0,2.44-5.41,8.28,8.28,0,0,0-2.18-5.72,5.9,5.9,0,0,0-2.48-1.68,5.94,5.94,0,0,0-2.93-.75,7.86,7.86,0,0,0-8.15,7.59,8.26,8.26,0,0,0,2.17,5.71,5.93,5.93,0,0,0,2.49,1.68,5.92,5.92,0,0,0,2.93.76A7.94,7.94,0,0,0,232.41,42Z" transform="translate(0)"/><path class="f2fa4141-e6a9-4f5a-bb71-5442f9eed676" d="M361.14,489.75a5.1,5.1,0,0,0-.35-7.18l-.08-.06-.81-.86a4.56,4.56,0,0,0-4.88-1.18,4.21,4.21,0,0,0-1.87,1.29,2.29,2.29,0,0,0-.64,1,3.39,3.39,0,0,0-.47,1.74s.33,2.68.51,3.44a5,5,0,0,0,3.72,3.36A5.11,5.11,0,0,0,361.14,489.75Z" transform="translate(0)"/><path class="f2fa4141-e6a9-4f5a-bb71-5442f9eed676" d="M387.34,441.43a3.86,3.86,0,0,0,1.39-4.84,4,4,0,0,0-.82-1.15,3.44,3.44,0,0,0-2-1.39,3.57,3.57,0,0,0-3.06.61c-1.92,2-2.28,3.86-1.1,5.6a3.8,3.8,0,0,0,2.13,1.6A3.91,3.91,0,0,0,387.34,441.43Z" transform="translate(0)"/><path class="f2fa4141-e6a9-4f5a-bb71-5442f9eed676" d="M440.57,446.52c1.14-1.16,1.59-2.6.61-3.74a2.38,2.38,0,0,0-4.18,1.38,3.76,3.76,0,0,0,1.19,2.37A1.71,1.71,0,0,0,440.57,446.52Z" transform="translate(0)"/><path class="f2fa4141-e6a9-4f5a-bb71-5442f9eed676" d="M319.49,382.46a5.82,5.82,0,0,0,0-8.23,5.91,5.91,0,0,0-4-1.71,5.84,5.84,0,0,0-4.19,1.7,5.82,5.82,0,0,0,4,9.94A5.88,5.88,0,0,0,319.49,382.46Z" transform="translate(0)"/><path class="f2fa4141-e6a9-4f5a-bb71-5442f9eed676" d="M453.81,269.27a7.08,7.08,0,0,0,3.5-1,9.65,9.65,0,0,0,4.55-5.74l.36-2.53a9.39,9.39,0,0,0-.38-2.71c.06.08.06,0,0-.29a4.91,4.91,0,0,0-.21-.75,21.09,21.09,0,0,0-1.26-2.62,9,9,0,0,0-1.91-2.2L456.34,250a10.28,10.28,0,0,0-4.21-1,9.45,9.45,0,0,0-8.55,3.58l-.77,1.09-1.14,2.13c-.17.76-.35,1.51-.52,2.27,0,.77,0,1.54.07,2.3a6.71,6.71,0,0,0,1.25,3.21,4.58,4.58,0,0,0,1.49,1.83,13.74,13.74,0,0,0,3,2,7.33,7.33,0,0,0,3.12,1.64A7.13,7.13,0,0,0,453.81,269.27Z" transform="translate(0)"/><path class="f2fa4141-e6a9-4f5a-bb71-5442f9eed676" d="M379.35,289.26c0-3.83-5.94-3.66-5.94.15S379.35,293.08,379.35,289.26Z" transform="translate(0)"/><path class="f2fa4141-e6a9-4f5a-bb71-5442f9eed676" d="M310.1,287.44a5.23,5.23,0,0,0,1.76-1.41,4.59,4.59,0,0,0,.85-3.12,5,5,0,0,0,.32-.82,4.55,4.55,0,0,0,.15-1.61,2.86,2.86,0,0,0-.13-2.16l-.44.12-.12-.3v.34l-9.37,2.64a5.52,5.52,0,0,0,.37,2.81,5.77,5.77,0,0,0,1.38,2.23,5,5,0,0,0,2.44,1.5A4.16,4.16,0,0,0,310.1,287.44Z" transform="translate(0)"/><path class="f2fa4141-e6a9-4f5a-bb71-5442f9eed676" d="M270.43,168.44a5.13,5.13,0,0,0,1.76-1.41,4.48,4.48,0,0,0,.85-3.12,4.25,4.25,0,0,0,.32-.82,4.33,4.33,0,0,0,.15-1.61,2.86,2.86,0,0,0-.12-2.16l-.44.12-.12-.3c0,.12,0,.23,0,.34l-9.37,2.65a5.5,5.5,0,0,0,.38,2.8,5.74,5.74,0,0,0,1.37,2.23,4.94,4.94,0,0,0,2.44,1.5A4.16,4.16,0,0,0,270.43,168.44Z" transform="translate(0)"/><path class="f2fa4141-e6a9-4f5a-bb71-5442f9eed676" d="M387.15,204.46c0-6.93-10.78-7.19-10.78-.25S387.15,211.41,387.15,204.46Z" transform="translate(0)"/><path class="f2fa4141-e6a9-4f5a-bb71-5442f9eed676" d="M408.05,175.37a2.53,2.53,0,0,0-.77-1.91,2.51,2.51,0,0,0-2.23-.8l-1.76.87a2.18,2.18,0,0,0-1,1.58,2,2,0,0,0,.6,1.74,2.29,2.29,0,0,0,1.56,1l.52.11A2.69,2.69,0,0,0,408.05,175.37Z" transform="translate(0)"/><path class="f2fa4141-e6a9-4f5a-bb71-5442f9eed676" d="M391.2,262.81c0-6.17-9.64-7.19-9.64-.95S391.2,269.05,391.2,262.81Z" transform="translate(0)"/><path class="f2fa4141-e6a9-4f5a-bb71-5442f9eed676" d="M191.39,389.68c0-5.14-8-5.88-8-.68S191.39,394.87,191.39,389.68Z" transform="translate(0)"/><path class="f2fa4141-e6a9-4f5a-bb71-5442f9eed676" d="M202.16,285.12c0-5.14-8-5.87-8-.68S202.16,290.31,202.16,285.12Z" transform="translate(0)"/><path class="f2fa4141-e6a9-4f5a-bb71-5442f9eed676" d="M204.32,161a9.72,9.72,0,0,0,3.13-3.88,9.82,9.82,0,0,0,.78-5.13q-1.22-5.92-5.72-7.76a10.74,10.74,0,0,0-4.32-.88,10.54,10.54,0,0,0-6.79,2.15l-1.67,1.8a7.18,7.18,0,0,0-1.44,3.48,4.68,4.68,0,0,0-.21,2.46,7.17,7.17,0,0,0,.8,3.53,10.14,10.14,0,0,0,5.34,4.87l.33.42A9.74,9.74,0,0,0,204.32,161Z" transform="translate(0)"/><path class="f2fa4141-e6a9-4f5a-bb71-5442f9eed676" d="M167.7,229.1a9.32,9.32,0,0,0,1.9,0,8.71,8.71,0,0,0,6.45-2.72,7.34,7.34,0,0,0,2.22-3l.72-2.52a9.76,9.76,0,0,0-.6-5.07c-.41-.72-.82-1.45-1.22-2.18a9.93,9.93,0,0,0-1.55-1.62c.08,0,0,0-.19-.18l0,0h0a9.17,9.17,0,0,0-1.8-1.11l-.4-.22c-.92-.41-.4-.45-2.69-.78s-3.27.06-5.43.69a7.37,7.37,0,0,0-3,2.17,7.24,7.24,0,0,0-2.15,3.09,7.34,7.34,0,0,0-.66,3.85,7.23,7.23,0,0,0,.7,3.76,9.86,9.86,0,0,0,5.25,5.2l1,.26a7.33,7.33,0,0,0,1.28.34Z" transform="translate(0)"/><path class="f2fa4141-e6a9-4f5a-bb71-5442f9eed676" d="M76.91,332a11,11,0,0,0,1.9,0,7.31,7.31,0,0,0,3.37-.63,7.39,7.39,0,0,0,3.08-2.09,7.36,7.36,0,0,0,2.21-3c.25-.84.49-1.68.73-2.52a9.74,9.74,0,0,0-.6-5.07l-1.23-2.18a9.55,9.55,0,0,0-1.54-1.63c.08,0,0,0-.19-.17l0,0h0a9.67,9.67,0,0,0-1.8-1.11l-.4-.22c-.92-.41-.4-.44-2.69-.78s-3.27.06-5.43.7a7.44,7.44,0,0,0-3,2.16,7.35,7.35,0,0,0-2.16,3.09,7.59,7.59,0,0,0-.66,3.86,7.35,7.35,0,0,0,.7,3.76,9.89,9.89,0,0,0,5.26,5.19l1,.27a7.08,7.08,0,0,0,1.28.33Z" transform="translate(0)"/><path class="f2fa4141-e6a9-4f5a-bb71-5442f9eed676" d="M264.88,118.29a6,6,0,0,0,4.12-2.16l.82-1.31a6,6,0,0,0,.51-3,4.34,4.34,0,0,0-.7-2.22,4.49,4.49,0,0,0-1.46-1.89,6.14,6.14,0,0,0-4.3-1.34,6.05,6.05,0,0,0-4.11,2.16l-.82,1.32a6,6,0,0,0-.52,3,4.44,4.44,0,0,0,.7,2.23,4.57,4.57,0,0,0,1.46,1.89A6.08,6.08,0,0,0,264.88,118.29Z" transform="translate(0)"/><path class="f2fa4141-e6a9-4f5a-bb71-5442f9eed676" d="M217,112.84a6.05,6.05,0,0,0,4.11-2.16l.82-1.32a6,6,0,0,0,.52-3,4.44,4.44,0,0,0-.7-2.23,4.57,4.57,0,0,0-1.46-1.89,6.08,6.08,0,0,0-4.3-1.33,6,6,0,0,0-4.11,2.15L211,104.4a6,6,0,0,0-.51,3,4.34,4.34,0,0,0,.7,2.22,4.49,4.49,0,0,0,1.46,1.89A6.14,6.14,0,0,0,217,112.84Z" transform="translate(0)"/><path class="f2fa4141-e6a9-4f5a-bb71-5442f9eed676" d="M134.31,106.08a4.25,4.25,0,0,0,1.24-1.76,5.59,5.59,0,0,0,.4-2.83c.08.81.12,1,.13.48a5.73,5.73,0,0,0-5.27-6.14,5.76,5.76,0,0,0-4.21,1.41l-1,1.12a5.74,5.74,0,0,0-1,2.74,9.13,9.13,0,0,0,.51,3.15l.74,1.3a5.39,5.39,0,0,0,4.38,2.15A5.3,5.3,0,0,0,134.31,106.08Z" transform="translate(0)"/><path class="f2fa4141-e6a9-4f5a-bb71-5442f9eed676" d="M168.93,55a5,5,0,0,0,2.61-4.17c0-.33,0-.65,0-1a4.5,4.5,0,0,0-2.93-4.14,4.44,4.44,0,0,0-2.39-.27,2.44,2.44,0,0,0-1.13.33,3.54,3.54,0,0,0-1.47,1l-.39.26a4.88,4.88,0,0,0-1.45,4.75A5,5,0,0,0,168.93,55Z" transform="translate(0)"/><path class="f2fa4141-e6a9-4f5a-bb71-5442f9eed676" d="M48.15,164.66c0-4.87-7.55-4.75-7.55.12S48.15,169.52,48.15,164.66Z" transform="translate(0)"/><path class="f2fa4141-e6a9-4f5a-bb71-5442f9eed676" d="M95.2,185.15c0-4.94-7.65-4.54-7.65.38S95.2,190.07,95.2,185.15Z" transform="translate(0)"/><path class="f2fa4141-e6a9-4f5a-bb71-5442f9eed676" d="M285.47,457.94l2.46-.49a9.81,9.81,0,0,0,4.1-2.7l1.42-2.07a9.78,9.78,0,0,0,1-5,9.32,9.32,0,0,0-6.48-8.41,7.42,7.42,0,0,0-3.82-.61l-2.46.5a9.75,9.75,0,0,0-4.1,2.7l-1.42,2.07a9.64,9.64,0,0,0-1,5,7.29,7.29,0,0,0,1,3.57,7.42,7.42,0,0,0,2.16,3,10.92,10.92,0,0,0,7.11,2.45Z" transform="translate(0)"/><path class="f2fa4141-e6a9-4f5a-bb71-5442f9eed676" d="M224.78,457a2.67,2.67,0,0,0,1.31-.57,2.76,2.76,0,0,0,.83-1.11c.07.3.2.07.39-.67a3,3,0,0,0,.19-1.6,3.24,3.24,0,0,0-1.26-2.1,3.19,3.19,0,0,0-4.8,1.4,3.29,3.29,0,0,0,.05,2.41c.45.75.58,1,.39.64a2.58,2.58,0,0,0,.87,1.09A2.82,2.82,0,0,0,224.78,457Z" transform="translate(0)"/><path class="f2fa4141-e6a9-4f5a-bb71-5442f9eed676" d="M274.57,316.9a6.14,6.14,0,0,0,5.34-4.27,13.42,13.42,0,0,0,.41-1.54,7.65,7.65,0,0,0-.06-2.86,8.74,8.74,0,0,0-4.4-5.75,9.25,9.25,0,0,0-8.2.54c-3.11,1.88-4.17,5.51-3.4,9,.63,2.82,3,5.69,5.94,6.19A4.75,4.75,0,0,0,274.57,316.9Z" transform="translate(0)"/><path class="f2fa4141-e6a9-4f5a-bb71-5442f9eed676" d="M430,415.09l2.45-.62a9.86,9.86,0,0,0,4-2.94l1.32-2.16a9.92,9.92,0,0,0,.77-5.13,10.82,10.82,0,0,0-3.57-6.44,7.27,7.27,0,0,0-3.41-1.69,7.51,7.51,0,0,0-3.88-.41l-2.45.63a9.76,9.76,0,0,0-4,2.94l-1.33,2.16a9.92,9.92,0,0,0-.77,5.13A10,10,0,0,0,430,415.09Z" transform="translate(0)"/><path class="f2fa4141-e6a9-4f5a-bb71-5442f9eed676" d="M477.16,351.35a7.3,7.3,0,0,0,4.85-2.44c.35-.51.69-1,1-1.55a7.15,7.15,0,0,0,.72-3.75,8,8,0,0,0-2.43-4.85,5.25,5.25,0,0,0-2.46-1.35A5.53,5.53,0,0,0,476,337a7.36,7.36,0,0,0-4.85,2.43l-1,1.56a7.24,7.24,0,0,0-.73,3.75,7.43,7.43,0,0,0,7.74,6.62Z" transform="translate(0)"/><path class="f2fa4141-e6a9-4f5a-bb71-5442f9eed676" d="M419.15,361.93c0-6.11-9.54-7.36-9.54-1.18S419.15,368.11,419.15,361.93Z" transform="translate(0)"/><path class="f2fa4141-e6a9-4f5a-bb71-5442f9eed676" d="M464.71,143.4a9,9,0,0,0,2.62-6.15,9.08,9.08,0,0,0-2.5-6.2,9.8,9.8,0,0,0-6.15-2.62,8.83,8.83,0,0,0-6.2,2.5,8.74,8.74,0,0,0-.12,12.36,6.59,6.59,0,0,0,2.9,1.87,6.4,6.4,0,0,0,3.25.74A8.72,8.72,0,0,0,464.71,143.4Z" transform="translate(0)"/><path class="f2fa4141-e6a9-4f5a-bb71-5442f9eed676" d="M166.17,348.24c0-4.88-7.58-4.69-7.58.19S166.17,353.12,166.17,348.24Z" transform="translate(0)"/><path class="f2fa4141-e6a9-4f5a-bb71-5442f9eed676" d="M83.92,50.78a8.5,8.5,0,0,0,3-5.87,6.49,6.49,0,0,0-.43-3.27,6.56,6.56,0,0,0-1.59-3,6.4,6.4,0,0,0-2.71-2.05,6.58,6.58,0,0,0-3.16-1,8.74,8.74,0,0,0-6.28,2,8.54,8.54,0,0,0-3,5.87,6.38,6.38,0,0,0,.44,3.27,7.84,7.84,0,0,0,4.29,5.07,6.46,6.46,0,0,0,3.16,1A8.71,8.71,0,0,0,83.92,50.78Z" transform="translate(0)"/><path class="f2fa4141-e6a9-4f5a-bb71-5442f9eed676" d="M32.19,111.32a4.07,4.07,0,0,0,2.58-1.73,3.92,3.92,0,0,0,.62-3,3.67,3.67,0,0,0-.16-1.44,3.8,3.8,0,0,0-1.79-2.27,3.39,3.39,0,0,0-3-.27l-.83.46a3.56,3.56,0,0,0-1.13,1.45c.65-1.36.68-1.66.06-.89a3,3,0,0,0-.86,1.35,7.11,7.11,0,0,0-.3,1.29,4.61,4.61,0,0,0,.08,1.85,4.23,4.23,0,0,0,1.73,2.59A4.15,4.15,0,0,0,32.19,111.32Z" transform="translate(0)"/><path class="f2fa4141-e6a9-4f5a-bb71-5442f9eed676" d="M77.82,103.74A2.92,2.92,0,0,0,77,102.5a4.14,4.14,0,0,0-1.68-.87h0a3.52,3.52,0,0,0-4.68,4.44Q79.89,107.6,77.82,103.74Z" transform="translate(0)"/><path class="f2fa4141-e6a9-4f5a-bb71-5442f9eed676" d="M25.84,7.4c0-3.16-4.92-3.3-4.92-.12S25.84,10.57,25.84,7.4Z" transform="translate(0)"/><path class="f2fa4141-e6a9-4f5a-bb71-5442f9eed676" d="M26.57,243.31A9.42,9.42,0,0,0,32.76,240c.44-.71.88-1.42,1.31-2.13a9.28,9.28,0,0,0,.75-4.82,7,7,0,0,0-1.13-3.37,7.09,7.09,0,0,0-2.22-2.82,7.08,7.08,0,0,0-3.34-1.66,7,7,0,0,0-3.62-.4,9.46,9.46,0,0,0-6.19,3.36c-.43.71-.87,1.42-1.31,2.13a9.28,9.28,0,0,0-.75,4.82,7.13,7.13,0,0,0,1.14,3.37,7.09,7.09,0,0,0,2.22,2.82A7.1,7.1,0,0,0,23,242.91,7,7,0,0,0,26.57,243.31Z" transform="translate(0)"/><path class="f2fa4141-e6a9-4f5a-bb71-5442f9eed676" d="M70.94,246.49a2.8,2.8,0,0,0,1.06-1.7,2.71,2.71,0,0,0-.47-2l-.47-.5a2.66,2.66,0,0,0-1.23-.56l-2.31.48a2.36,2.36,0,0,0-1.31,2.29,2.39,2.39,0,0,0,1.57,2.1l1.15.37A2.68,2.68,0,0,0,70.94,246.49Z" transform="translate(0)"/><path class="f2fa4141-e6a9-4f5a-bb71-5442f9eed676" d="M138.85,310.47l1.32-.27.73-.37a2.25,2.25,0,0,0,.8-.85,2.86,2.86,0,0,0,.5-1.84,3.1,3.1,0,0,0-2.44-2.78l-1-.17a3.16,3.16,0,1,0,.12,6.28Z" transform="translate(0)"/><path class="f2fa4141-e6a9-4f5a-bb71-5442f9eed676" d="M50.08,409.55l0-.07A4.94,4.94,0,0,0,52,407.07a4.25,4.25,0,0,0,.41-2.1,4.21,4.21,0,0,0-.35-2.18,5.6,5.6,0,0,0-7.28-3.14,5.86,5.86,0,0,0-3.07,3l0,.09c-1.38,3.18.71,7.41,4.32,7.76C47.41,410.62,49,410.62,50.08,409.55Zm-1.18-7.5.75.41-.21,3.06Z" transform="translate(0)"/><path class="f2fa4141-e6a9-4f5a-bb71-5442f9eed676" d="M128.76,268.7a2.72,2.72,0,0,0,1.4-.89,4.9,4.9,0,0,0,1.38-3.27,4.55,4.55,0,0,0-6.5-4.12l-.35.15-.15.1-.14.1a5.43,5.43,0,0,0-.53.42l-.11.08,0,0-.17.14a5.48,5.48,0,0,0-1.44,3.71,4.69,4.69,0,0,0,3.31,4.71A2.85,2.85,0,0,0,128.76,268.7Z" transform="translate(0)"/><path class="f2fa4141-e6a9-4f5a-bb71-5442f9eed676" d="M96.88,376.69a4.74,4.74,0,0,0,1.73-3.28,5.23,5.23,0,0,0-1.1-3.55,4.86,4.86,0,0,0-3.28-1.73,4.93,4.93,0,0,0-3.55,1.09A4.77,4.77,0,0,0,89,372.51a5.23,5.23,0,0,0,1.1,3.55,5,5,0,0,0,3.28,1.73A4.9,4.9,0,0,0,96.88,376.69Z" transform="translate(0)"/><path class="f2fa4141-e6a9-4f5a-bb71-5442f9eed676" d="M119,475.4l2.46-.44a9.6,9.6,0,0,0,4.14-2.6l1.47-2a9.78,9.78,0,0,0,1.14-5,10.83,10.83,0,0,0-3-6.61,7.16,7.16,0,0,0-3.24-1.91,7.2,7.2,0,0,0-3.78-.69l-2.47.43a9.69,9.69,0,0,0-4.14,2.6c-.49.67-1,1.35-1.46,2a9.73,9.73,0,0,0-1.15,5,10.83,10.83,0,0,0,3,6.61,7.16,7.16,0,0,0,3.24,1.91A7.35,7.35,0,0,0,119,475.4Z" transform="translate(0)"/><path class="f2fa4141-e6a9-4f5a-bb71-5442f9eed676" d="M238.79,409.55a7.06,7.06,0,0,0,.13-10,5.15,5.15,0,0,0-2.31-1.51,5.23,5.23,0,0,0-2.75-.63,7.14,7.14,0,0,0-4.94,2,7.39,7.39,0,0,0-2.14,5.06,7.3,7.3,0,0,0,2,4.94,5.15,5.15,0,0,0,2.31,1.51,5.41,5.41,0,0,0,2.75.63A7.2,7.2,0,0,0,238.79,409.55Z" transform="translate(0)"/><path class="f2fa4141-e6a9-4f5a-bb71-5442f9eed676" d="M188,495.78a5.81,5.81,0,0,0,2.62-1.72,1.64,1.64,0,0,0,.21-.25,4.31,4.31,0,0,0,1.37-4.92,5.74,5.74,0,0,0-6.78-3.33,5.5,5.5,0,0,0-2.12,1,4.46,4.46,0,0,0-1.55,1.91,6.59,6.59,0,0,0-.45,2.53,5,5,0,0,0,4,4.84A5.37,5.37,0,0,0,188,495.78Z" transform="translate(0)"/><path class="f2fa4141-e6a9-4f5a-bb71-5442f9eed676" d="M339.09,440.2a3.42,3.42,0,0,0,1.57-.62,4.24,4.24,0,0,0,1.84-2.16,4.55,4.55,0,0,0-1.5-5.14l-.9-.65a4.55,4.55,0,0,0-6.8,5l.42,1.08a4.63,4.63,0,0,0,1.6,1.69,9,9,0,0,0,2.63.85Z" transform="translate(0)"/><path class="f2fa4141-e6a9-4f5a-bb71-5442f9eed676" d="M443.88,495.3a9.63,9.63,0,0,0,3.15-6.68,10,10,0,0,0-2.41-6.74,9.74,9.74,0,0,0-6.68-3.16,9.52,9.52,0,0,0-9.9,9.09,10,10,0,0,0,2.41,6.75,9.74,9.74,0,0,0,6.68,3.16A9.64,9.64,0,0,0,443.88,495.3Z" transform="translate(0)"/><path class="f2fa4141-e6a9-4f5a-bb71-5442f9eed676" d="M475.29,476.38a4.31,4.31,0,0,0,1.81-1.22q.56-2.64,1.1-5.28a5,5,0,0,0-3.6-3.43,5,5,0,0,0-4.7,8.54,5.21,5.21,0,0,0,1.83,1.1c-.46-.14-.37-.1.28.15a2.49,2.49,0,0,0,1.1.31A4.15,4.15,0,0,0,475.29,476.38Z" transform="translate(0)"/><path class="f2fa4141-e6a9-4f5a-bb71-5442f9eed676" d="M368.58,358.54a9,9,0,0,0,6-3.31l1.23-2.05a8.94,8.94,0,0,0,.66-4.51,6.7,6.7,0,0,0-1.09-3.24,6.79,6.79,0,0,0-2.22-2.74,9.83,9.83,0,0,0-6.56-1.89,8.91,8.91,0,0,0-6,3.31l-1.23,2.05a8.94,8.94,0,0,0-.66,4.51,6.7,6.7,0,0,0,1.09,3.24,6.79,6.79,0,0,0,2.22,2.74,9.83,9.83,0,0,0,6.56,1.89Z" transform="translate(0)"/><path class="f2fa4141-e6a9-4f5a-bb71-5442f9eed676" d="M267.87,173.59a9,9,0,0,0,6-3.31l1.23-2.05a9,9,0,0,0,.66-4.52,6.6,6.6,0,0,0-1.1-3.23,8,8,0,0,0-5.38-4.29,6.64,6.64,0,0,0-3.4-.34,9,9,0,0,0-6,3.3l-1.22,2.06a8.73,8.73,0,0,0-.66,4.51,8.63,8.63,0,0,0,6.48,7.52A6.62,6.62,0,0,0,267.87,173.59Z" transform="translate(0)"/><path class="f2fa4141-e6a9-4f5a-bb71-5442f9eed676" d="M289.53,44.13l1.35-.45a5.26,5.26,0,0,0,2.35-2.38,5.38,5.38,0,0,0-.69-5.86A9,9,0,0,0,289.3,33a5.71,5.71,0,0,0-6.25,9.09,5.67,5.67,0,0,0,2.41,1.65l2.65.49Z" transform="translate(0)"/><path class="f2fa4141-e6a9-4f5a-bb71-5442f9eed676" d="M221.24,107a4.53,4.53,0,0,0-1.43-2.88l.05.1a3.51,3.51,0,0,0-.37-.4,4.8,4.8,0,0,0-3.45-1.17,4.74,4.74,0,0,0-3.17,1.57,5.18,5.18,0,0,0-1.17,3.45l8.49,2.49A4.27,4.27,0,0,0,221.24,107Z" transform="translate(0)"/><path class="f2fa4141-e6a9-4f5a-bb71-5442f9eed676" d="M32,489.69a5.93,5.93,0,0,0,2-5.22,5.7,5.7,0,0,0-.58-1.76A6.06,6.06,0,0,0,31.51,479a6,6,0,0,0-8-.36,6.08,6.08,0,0,0-1.87,2.57l.29,6.52L23.05,489a7.75,7.75,0,0,0,3.75,1.81A6,6,0,0,0,32,489.69Z" transform="translate(0)"/><path class="f2fa4141-e6a9-4f5a-bb71-5442f9eed676" d="M67.46,470.66a4.64,4.64,0,0,0,1.45-3.21,4.7,4.7,0,0,0-1.21-3.19,4.53,4.53,0,0,0-7.85,3,4.77,4.77,0,0,0,1.2,3.2,4.68,4.68,0,0,0,3.21,1.45A4.61,4.61,0,0,0,67.46,470.66Z" transform="translate(0)"/><path class="f2fa4141-e6a9-4f5a-bb71-5442f9eed676" d="M135.18,419.51a3.49,3.49,0,0,0,1.67-.55,4.13,4.13,0,0,0,.93-.72,4.54,4.54,0,0,0,.73-.94,5,5,0,0,0,.83-2.49,4.5,4.5,0,0,0-4.31-4.7,4.78,4.78,0,0,0-3.4,1.31h0a3.22,3.22,0,0,0-.32.32,4.59,4.59,0,0,0,.47,6.86A4.39,4.39,0,0,0,135.18,419.51Z" transform="translate(0)"/><path class="a58125d3-4709-417a-85b0-2243a589d624" d="M262,66.25a1.41,1.41,0,1,1,1.41-1.41A1.41,1.41,0,0,1,262,66.25Z" transform="translate(0)"/><path class="a62dba1d-0f9d-419a-b55e-15d8022ea083" d="M458.4,57a1.42,1.42,0,1,1,1.41-1.42A1.42,1.42,0,0,1,458.4,57Z" transform="translate(0)"/><path class="a58125d3-4709-417a-85b0-2243a589d624" d="M227,299.72a1.41,1.41,0,1,1,1.41-1.41A1.41,1.41,0,0,1,227,299.72Z" transform="translate(0)"/><path class="a58125d3-4709-417a-85b0-2243a589d624" d="M103.81,417.24a1.41,1.41,0,1,1,1.41-1.41A1.41,1.41,0,0,1,103.81,417.24Z" transform="translate(0)"/><path class="a58125d3-4709-417a-85b0-2243a589d624" d="M379.35,250.42a1.42,1.42,0,1,1,1.41-1.41A1.42,1.42,0,0,1,379.35,250.42Z" transform="translate(0)"/><path class="a58125d3-4709-417a-85b0-2243a589d624" d="M431.35,8.75a1.41,1.41,0,1,1,1.41-1.41A1.41,1.41,0,0,1,431.35,8.75Z" transform="translate(0)"/><circle class="a62dba1d-0f9d-419a-b55e-15d8022ea083" cx="247.73" cy="99.94" r="4.02"/><path class="a62dba1d-0f9d-419a-b55e-15d8022ea083" d="M412.74,23.34a4,4,0,1,1,4-4A4,4,0,0,1,412.74,23.34Z" transform="translate(0)"/><path class="a62dba1d-0f9d-419a-b55e-15d8022ea083" d="M370.11,412.61a4,4,0,1,1,4-4A4,4,0,0,1,370.11,412.61Z" transform="translate(0)"/><path class="a62dba1d-0f9d-419a-b55e-15d8022ea083" d="M215.09,432.63a4,4,0,1,1,4-4A4,4,0,0,1,215.09,432.63Z" transform="translate(0)"/><path class="a62dba1d-0f9d-419a-b55e-15d8022ea083" d="M66.21,221.36a4,4,0,1,1,4-4A4,4,0,0,1,66.21,221.36Z" transform="translate(0)"/><path class="a58125d3-4709-417a-85b0-2243a589d624" d="M342.76,162.84a7.08,7.08,0,1,1,7.07-7.07A7.08,7.08,0,0,1,342.76,162.84Z" transform="translate(0)"/><path class="a62dba1d-0f9d-419a-b55e-15d8022ea083" d="M130.38,147.35a4,4,0,1,1,4-4A4,4,0,0,1,130.38,147.35Z" transform="translate(0)"/><circle class="a58125d3-4709-417a-85b0-2243a589d624" cx="52.44" cy="39.41" r="4.02"/><path class="a58125d3-4709-417a-85b0-2243a589d624" d="M262,301.36a1.41,1.41,0,1,1,1.41-1.41A1.41,1.41,0,0,1,262,301.36Z" transform="translate(0)"/><path class="a58125d3-4709-417a-85b0-2243a589d624" d="M458.4,292.07a1.41,1.41,0,1,1,1.41-1.41A1.41,1.41,0,0,1,458.4,292.07Z" transform="translate(0)"/><path class="a58125d3-4709-417a-85b0-2243a589d624" d="M379.35,485.53a1.41,1.41,0,1,1,1.41-1.41A1.42,1.42,0,0,1,379.35,485.53Z" transform="translate(0)"/><path class="a58125d3-4709-417a-85b0-2243a589d624" d="M431.35,243.86a1.41,1.41,0,1,1,1.41-1.41A1.41,1.41,0,0,1,431.35,243.86Z" transform="translate(0)"/><circle class="a58125d3-4709-417a-85b0-2243a589d624" cx="247.73" cy="335.06" r="4.02"/><path class="a58125d3-4709-417a-85b0-2243a589d624" d="M399.6,325.2a4,4,0,1,1,4-4A4,4,0,0,1,399.6,325.2Z" transform="translate(0)"/><path class="a62dba1d-0f9d-419a-b55e-15d8022ea083" d="M47.64,467.07a4,4,0,1,1,4-4A4,4,0,0,1,47.64,467.07Z" transform="translate(0)"/><path class="a62dba1d-0f9d-419a-b55e-15d8022ea083" d="M342.76,398a7.07,7.07,0,1,1,7.07-7.07A7.07,7.07,0,0,1,342.76,398Z" transform="translate(0)"/><path class="a62dba1d-0f9d-419a-b55e-15d8022ea083" d="M130.38,382.47a4,4,0,1,1,4-4A4,4,0,0,1,130.38,382.47Z" transform="translate(0)"/><circle class="a62dba1d-0f9d-419a-b55e-15d8022ea083" cx="33.64" cy="331.04" r="4.02"/><path class="a58125d3-4709-417a-85b0-2243a589d624" d="M431.35,479a1.42,1.42,0,1,1,1.41-1.41A1.41,1.41,0,0,1,431.35,479Z" transform="translate(0)"/><circle class="a62dba1d-0f9d-419a-b55e-15d8022ea083" cx="166.46" cy="328.76" r="11.25"/><circle class="aab48b3e-b05d-43f5-96dc-fca59c1ab7d5" cx="315.42" cy="220.99" r="7.07"/><path class="bdd83111-fcd6-4f96-8d85-29e9f18b734c" d="M240.93,71.78a5.53,5.53,0,0,1,5.53-5.53,5.53,5.53,0,0,1-5.53-5.53,5.54,5.54,0,0,1-5.54,5.53A5.54,5.54,0,0,1,240.93,71.78Z" transform="translate(0)"/><path class="bdd83111-fcd6-4f96-8d85-29e9f18b734c" d="M474.86,169.51a5.54,5.54,0,0,1,5.53-5.54,5.53,5.53,0,0,1-5.53-5.53,5.53,5.53,0,0,1-5.54,5.53A5.54,5.54,0,0,1,474.86,169.51Z" transform="translate(0)"/><path class="aab48b3e-b05d-43f5-96dc-fca59c1ab7d5" d="M211.7,252.55a5.54,5.54,0,0,1,5.54-5.54,5.54,5.54,0,0,1-5.54-5.53,5.54,5.54,0,0,1-5.53,5.53A5.54,5.54,0,0,1,211.7,252.55Z" transform="translate(0)"/><circle class="aab48b3e-b05d-43f5-96dc-fca59c1ab7d5" cx="78.2" cy="153.15" r="5.53"/><path class="aab48b3e-b05d-43f5-96dc-fca59c1ab7d5" d="M356.84,85.21a5.53,5.53,0,0,1,5.53-5.54,5.53,5.53,0,0,1-5.53-5.53,5.54,5.54,0,0,1-5.54,5.53A5.54,5.54,0,0,1,356.84,85.21Z" transform="translate(0)"/><g class="e37609c6-2b75-4ceb-854a-7bc04eef6125"><circle class="eae073f0-5adf-416f-9444-ec6ef936da4a" cx="114.58" cy="67.58" r="7.32" transform="translate(-14.22 100.82) rotate(-45)"/></g></svg>