<svg xmlns="http://www.w3.org/2000/svg" xmlns:xlink="http://www.w3.org/1999/xlink" viewBox="0 0 400 300"><defs><style>.b49871b2-bea8-4b69-99b8-00ee485970a1{fill:none;}.afc2820c-282f-4bcc-82df-38b21ef45d5d{isolation:isolate;}.b95f1df9-dc00-402c-8906-686d024bb3ba{fill:url(#b6cbbf5c-d9bf-4079-9941-05c46343e509);}.fad25fe0-9880-4833-8bbf-ba6e73a92fba{fill:#29285c;}.e6469aa8-210a-47b7-8a8e-aad62d2d3979{fill:#39285a;}.a930f205-2e9c-4b32-a0e9-b277ec3130d5{fill:#111833;}.a11a3a5c-d768-4d40-a9d4-b1d3c335fba2{fill:#84725c;}.fe5d54ef-00cd-44a8-86b8-e5ca0821c2b2{fill:#765c7e;}.bf777e73-b35e-4d99-9b26-788f0ca9064e{fill:#f2dec7;}.f05a4a30-de80-4878-ae42-e1998a48df5c{fill:#dcb993;}.ae5c0ceb-42d5-479a-836d-01879f2cbccf{opacity:0.51;}.b78a6bcf-084b-4a59-a593-7050df9c0946{fill:#fae1c8;}.a137deb5-8d67-4dfe-8b1a-45a5d538df95{clip-path:url(#a0e9790a-82e9-4c5c-8a04-41e8e41931e0);}.b29bec5d-0450-4da7-8c3a-d3b713d8e342{fill:url(#bb8454a4-b941-43da-9332-9f3b9203a0e4);}.f6a2c2e3-37c2-4717-8994-2c1842d3dd57{opacity:0.4;}.a0d6a948-f4b9-4d93-8d14-aca60ccb8c69,.abf119c5-89ad-48ca-9f8d-3ef366e048c4,.b76fa413-3758-4361-b379-687b8e33073a,.e74535f1-8e42-4086-8fec-2435fbfc9b6c,.f6a2c2e3-37c2-4717-8994-2c1842d3dd57{mix-blend-mode:multiply;}.abf119c5-89ad-48ca-9f8d-3ef366e048c4,.b76fa413-3758-4361-b379-687b8e33073a,.e74535f1-8e42-4086-8fec-2435fbfc9b6c{fill:#ba98d3;}.e74535f1-8e42-4086-8fec-2435fbfc9b6c{opacity:0.5;}.abf119c5-89ad-48ca-9f8d-3ef366e048c4{opacity:0.8;}.b76fa413-3758-4361-b379-687b8e33073a{opacity:0.3;}.a0d6a948-f4b9-4d93-8d14-aca60ccb8c69,.e5da476c-0f05-4fbf-ae25-b9f744188501{opacity:0.2;}.bb3a5350-50c6-415b-9a63-7f2e70d46bba{fill:#222226;}.e5da476c-0f05-4fbf-ae25-b9f744188501{mix-blend-mode:overlay;}.bff1eecc-1d71-480b-ab85-259d5411892b{fill:#fff;}</style><radialGradient id="b6cbbf5c-d9bf-4079-9941-05c46343e509" cx="200" cy="150" r="250" gradientTransform="translate(40 60) scale(0.8 0.6)" gradientUnits="userSpaceOnUse"><stop offset="0" stop-color="#03384a"/><stop offset="1" stop-color="#010f1e"/></radialGradient><clipPath id="a0e9790a-82e9-4c5c-8a04-41e8e41931e0"><circle class="b49871b2-bea8-4b69-99b8-00ee485970a1" cx="200" cy="150" r="123.71" transform="translate(-47.49 185.36) rotate(-45)"/></clipPath><linearGradient id="bb8454a4-b941-43da-9332-9f3b9203a0e4" x1="76.29" y1="150" x2="323.71" y2="150" gradientTransform="translate(164.64 -97.49) rotate(45)" gradientUnits="userSpaceOnUse"><stop offset="0" stop-color="#ba98d3"/><stop offset="1" stop-color="#ba5970"/></linearGradient></defs><g class="afc2820c-282f-4bcc-82df-38b21ef45d5d"><g id="edc7eb48-737d-480a-9d84-9f83d4c9b417" data-name="OBJECTS"><rect class="b95f1df9-dc00-402c-8906-686d024bb3ba" width="400" height="300"/><path class="fad25fe0-9880-4833-8bbf-ba6e73a92fba" d="M235.76,34.6a1.47,1.47,0,1,1,1.46-1.46A1.46,1.46,0,0,1,235.76,34.6Z"/><path class="fad25fe0-9880-4833-8bbf-ba6e73a92fba" d="M26.48,62.53A1.47,1.47,0,1,1,28,61.06,1.46,1.46,0,0,1,26.48,62.53Z"/><path class="fad25fe0-9880-4833-8bbf-ba6e73a92fba" d="M335.77,62.53a1.47,1.47,0,1,1,1.47-1.47A1.46,1.46,0,0,1,335.77,62.53Z"/><path class="fad25fe0-9880-4833-8bbf-ba6e73a92fba" d="M204.27,276.73a1.47,1.47,0,1,1,1.46-1.46A1.46,1.46,0,0,1,204.27,276.73Z"/><path class="fad25fe0-9880-4833-8bbf-ba6e73a92fba" d="M36.3,255.72a1.47,1.47,0,1,1,1.46-1.47A1.47,1.47,0,0,1,36.3,255.72Z"/><path class="fad25fe0-9880-4833-8bbf-ba6e73a92fba" d="M235.76,115.91a4.25,4.25,0,1,1,4.24-4.25A4.25,4.25,0,0,1,235.76,115.91Z"/><path class="fad25fe0-9880-4833-8bbf-ba6e73a92fba" d="M40.19,284.34a4.25,4.25,0,1,1,4.24-4.25A4.24,4.24,0,0,1,40.19,284.34Z"/><path class="fad25fe0-9880-4833-8bbf-ba6e73a92fba" d="M392.79,167.17a4.25,4.25,0,1,1,4.25-4.25A4.24,4.24,0,0,1,392.79,167.17Z"/><circle class="fad25fe0-9880-4833-8bbf-ba6e73a92fba" cx="123.77" cy="118.31" r="4.24"/><path class="fad25fe0-9880-4833-8bbf-ba6e73a92fba" d="M19.26,204.66a4.25,4.25,0,1,1,4.25-4.25A4.24,4.24,0,0,1,19.26,204.66Z"/><circle class="fad25fe0-9880-4833-8bbf-ba6e73a92fba" cx="328.15" cy="187.39" r="8.02" transform="translate(70.11 463.46) rotate(-76.66)"/><circle class="fad25fe0-9880-4833-8bbf-ba6e73a92fba" cx="221.27" cy="159.48" r="6.84" transform="translate(28.41 352.34) rotate(-80.78)"/><circle class="e6469aa8-210a-47b7-8a8e-aad62d2d3979" cx="210.97" cy="263.55" r="6.84" transform="translate(-124.57 226.37) rotate(-45)"/><path class="e6469aa8-210a-47b7-8a8e-aad62d2d3979" d="M369.47,272.37a3.42,3.42,0,1,1,3.42-3.42A3.42,3.42,0,0,1,369.47,272.37Z"/><circle class="e6469aa8-210a-47b7-8a8e-aad62d2d3979" cx="388.1" cy="45.37" r="6.84" transform="translate(337.17 432.78) rotate(-89.18)"/><circle class="e6469aa8-210a-47b7-8a8e-aad62d2d3979" cx="264.67" cy="224.96" r="2.3"/><path class="e6469aa8-210a-47b7-8a8e-aad62d2d3979" d="M75.28,144.94a2.3,2.3,0,1,1,2.3-2.3A2.3,2.3,0,0,1,75.28,144.94Z"/><circle class="e6469aa8-210a-47b7-8a8e-aad62d2d3979" cx="61.4" cy="186.56" r="2.3"/><path class="a930f205-2e9c-4b32-a0e9-b277ec3130d5" d="M369.39,17.55a3.28,3.28,0,0,0,1-2.2A4.52,4.52,0,0,0,368,11.18a3.56,3.56,0,0,0-2.5-.69,3.42,3.42,0,0,0-2.3,5.38,6.32,6.32,0,0,0,.93,1.2,8,8,0,0,0,.93.79,3.89,3.89,0,0,0,2.1.53A3.35,3.35,0,0,0,369.39,17.55Z"/><path class="a930f205-2e9c-4b32-a0e9-b277ec3130d5" d="M330.8,11.22a2.73,2.73,0,0,0,1.56-.75,1.94,1.94,0,0,0,.6-.81,2.69,2.69,0,0,0,.21-1.34A3.83,3.83,0,0,0,332,6.13l-.49-.31a2.36,2.36,0,0,0-1.77-.06,2.54,2.54,0,0,0-1.26,1.18,2.82,2.82,0,0,0-.57,1.9A2.7,2.7,0,0,0,330.8,11.22Z"/><path class="a930f205-2e9c-4b32-a0e9-b277ec3130d5" d="M318.47,50.78c0-5.48-8.52-5.71-8.52-.21S318.47,56.27,318.47,50.78Z"/><path class="a930f205-2e9c-4b32-a0e9-b277ec3130d5" d="M369.77,111.64a1.44,1.44,0,0,0-2.88,0A1.44,1.44,0,0,0,369.77,111.64Z"/><path class="a930f205-2e9c-4b32-a0e9-b277ec3130d5" d="M249.36,25.73Z"/><path class="a930f205-2e9c-4b32-a0e9-b277ec3130d5" d="M249.44,25.82h0l-.08-.09Z"/><path class="a930f205-2e9c-4b32-a0e9-b277ec3130d5" d="M253.08,26.41a2.22,2.22,0,0,0-.07-3.09l-.93-.75a2.05,2.05,0,0,0-1.62-.25,2.2,2.2,0,0,0-1.12.72,2.14,2.14,0,0,0,.1,2.78l.16.2c.14.15.27.31.4.46A2.19,2.19,0,0,0,253.08,26.41Z"/><path class="a930f205-2e9c-4b32-a0e9-b277ec3130d5" d="M346,223.46c0-2.15-3.35-2.42-3.35-.25S346,225.62,346,223.46Z"/><path class="a930f205-2e9c-4b32-a0e9-b277ec3130d5" d="M345.18,98c0-1.15-1.8-1.39-1.8-.22S345.18,99.19,345.18,98Z"/><path class="a930f205-2e9c-4b32-a0e9-b277ec3130d5" d="M210.22,144a6.65,6.65,0,0,0,4.4-2.49l.87-1.46a6.55,6.55,0,0,0,.48-3.42,5,5,0,0,0-.87-2.45,5,5,0,0,0-1.62-1.95,5,5,0,0,0-2.28-1.1,5.09,5.09,0,0,0-2.6-.25,6.71,6.71,0,0,0-4.4,2.5l-.86,1.45a6.58,6.58,0,0,0-.49,3.42,5,5,0,0,0,.88,2.46,6,6,0,0,0,3.9,3A4.94,4.94,0,0,0,210.22,144Z"/><path class="a930f205-2e9c-4b32-a0e9-b277ec3130d5" d="M251.49,196.91a6.69,6.69,0,0,0,4.4-2.49l.87-1.46a6.58,6.58,0,0,0,.48-3.42,6.78,6.78,0,0,0-7.37-5.75,6.7,6.7,0,0,0-4.4,2.49l-.86,1.46a6.55,6.55,0,0,0-.49,3.42,5,5,0,0,0,.88,2.46,4.89,4.89,0,0,0,1.62,1.94,7.26,7.26,0,0,0,4.87,1.35Z"/><path class="a930f205-2e9c-4b32-a0e9-b277ec3130d5" d="M245.9,88.61c0-1.63-2.53-1.92-2.53-.28S245.9,90.25,245.9,88.61Z"/><path class="a930f205-2e9c-4b32-a0e9-b277ec3130d5" d="M259.33,279.27a5.14,5.14,0,0,0,1.47-3.47,5.2,5.2,0,0,0-1.46-3.6,5.14,5.14,0,0,0-3.47-1.47,5.07,5.07,0,0,0-3.6,1.46,5,5,0,0,0,0,7.07,5,5,0,0,0,7.07,0Z"/><path class="a930f205-2e9c-4b32-a0e9-b277ec3130d5" d="M374.71,182.05a6.22,6.22,0,0,0,3-.91,8.3,8.3,0,0,0,3.91-4.93c.1-.72.21-1.45.31-2.18a7.84,7.84,0,0,0-.33-2.32c.05.07.05,0,0-.25a3.58,3.58,0,0,0-.18-.64,16.8,16.8,0,0,0-1.08-2.25,7.92,7.92,0,0,0-1.64-1.9l-1.82-1.17a8.78,8.78,0,0,0-3.62-.82,8,8,0,0,0-7.34,3.07l-.66.93c-.33.61-.66,1.22-1,1.83l-.45,2,.06,2A5.73,5.73,0,0,0,365,177.2a3.8,3.8,0,0,0,1.27,1.57,3.89,3.89,0,0,0,1.66,1.2,3.66,3.66,0,0,0,.89.48,6.13,6.13,0,0,0,2.68,1.41A6.23,6.23,0,0,0,374.71,182.05Z"/><path class="a930f205-2e9c-4b32-a0e9-b277ec3130d5" d="M310.75,199.22c0-3.29-5.1-3.15-5.1.13S310.75,202.49,310.75,199.22Z"/><path class="a930f205-2e9c-4b32-a0e9-b277ec3130d5" d="M251.26,197.65a4.58,4.58,0,0,0,1.52-1.21,3.86,3.86,0,0,0,.72-2.68,3.39,3.39,0,0,0,.28-.71,3.7,3.7,0,0,0,.13-1.38,2.47,2.47,0,0,0-.11-1.86l-.38.11c0-.08-.06-.17-.1-.26V190l-8.05,2.28a4.7,4.7,0,0,0,.32,2.4,5.1,5.1,0,0,0,1.18,1.92,4.26,4.26,0,0,0,2.1,1.29A3.55,3.55,0,0,0,251.26,197.65Z"/><path class="a930f205-2e9c-4b32-a0e9-b277ec3130d5" d="M217.19,95.43a4.44,4.44,0,0,0,1.51-1.21,3.87,3.87,0,0,0,.73-2.68,3.75,3.75,0,0,0,.28-.71,3.7,3.7,0,0,0,.13-1.38,2.47,2.47,0,0,0-.11-1.86l-.38.11c0-.08-.07-.17-.1-.26l0,.29-8,2.28a4.6,4.6,0,0,0,.32,2.4,4.86,4.86,0,0,0,1.18,1.92,4.28,4.28,0,0,0,2.09,1.29A3.57,3.57,0,0,0,217.19,95.43Z"/><path class="a930f205-2e9c-4b32-a0e9-b277ec3130d5" d="M317.45,126.37c0-6-9.26-6.18-9.26-.21S317.45,132.34,317.45,126.37Z"/><path class="a930f205-2e9c-4b32-a0e9-b277ec3130d5" d="M335.4,101.38a2.16,2.16,0,0,0-.66-1.64,2.13,2.13,0,0,0-1.91-.68l-1.51.74a1.85,1.85,0,0,0-.85,1.36,1.69,1.69,0,0,0,.51,1.49,2,2,0,0,0,1.34.9l.45.1A2.31,2.31,0,0,0,335.4,101.38Z"/><path class="a930f205-2e9c-4b32-a0e9-b277ec3130d5" d="M320.93,176.5c0-5.31-8.28-6.18-8.28-.82S320.93,181.86,320.93,176.5Z"/><path class="a930f205-2e9c-4b32-a0e9-b277ec3130d5" d="M149.29,285.47c0-4.41-6.89-5-6.89-.58S149.29,289.94,149.29,285.47Z"/><path class="a930f205-2e9c-4b32-a0e9-b277ec3130d5" d="M158.54,195.66c0-4.42-6.88-5-6.88-.59S158.54,200.12,158.54,195.66Z"/><path class="a930f205-2e9c-4b32-a0e9-b277ec3130d5" d="M160.4,89.07a8.34,8.34,0,0,0,2.69-3.33,8.55,8.55,0,0,0,.67-4.41c-.69-3.39-2.33-5.62-4.91-6.66a9.34,9.34,0,0,0-3.72-.76,6,6,0,0,0-3.09.42,6.14,6.14,0,0,0-2.74,1.43l-1.43,1.54a6.22,6.22,0,0,0-1.24,3,4,4,0,0,0-.18,2.12,6.21,6.21,0,0,0,.69,3,8.77,8.77,0,0,0,4.58,4.19L152,90A8.34,8.34,0,0,0,160.4,89.07Z"/><path class="a930f205-2e9c-4b32-a0e9-b277ec3130d5" d="M128.94,147.54a9,9,0,0,0,1.64,0,8.66,8.66,0,0,0,7.44-4.95c.21-.72.42-1.44.62-2.16a8.28,8.28,0,0,0-.51-4.35l-1-1.88a9.24,9.24,0,0,0-1.33-1.39c.07,0,0,0-.17-.15l0,0h0a8.12,8.12,0,0,0-1.54-1l-.34-.18a4.37,4.37,0,0,0-2.32-.67,8.81,8.81,0,0,0-4.66.59,6.27,6.27,0,0,0-2.61,1.86,6.39,6.39,0,0,0-1.86,2.65,6.46,6.46,0,0,0-.56,3.32,6.28,6.28,0,0,0,.6,3.23,8.52,8.52,0,0,0,4.51,4.46l.85.23a7.13,7.13,0,0,0,1.1.29Z"/><path class="a930f205-2e9c-4b32-a0e9-b277ec3130d5" d="M51,235.94a8.2,8.2,0,0,0,1.64,0,6.18,6.18,0,0,0,2.89-.54,6.33,6.33,0,0,0,2.65-1.8A6.35,6.35,0,0,0,60,231c.21-.72.41-1.44.62-2.16a8.32,8.32,0,0,0-.51-4.36l-1-1.87a8.86,8.86,0,0,0-1.33-1.4c.06,0,0,0-.17-.15l0,0h0a8.61,8.61,0,0,0-1.54-.95l-.35-.19a4.28,4.28,0,0,0-2.31-.67,8.81,8.81,0,0,0-4.66.6,6.43,6.43,0,0,0-2.62,1.85,7.56,7.56,0,0,0-2.41,6,6.26,6.26,0,0,0,.6,3.23,8.48,8.48,0,0,0,4.51,4.46l.85.23a6.15,6.15,0,0,0,1.1.29Z"/><path class="a930f205-2e9c-4b32-a0e9-b277ec3130d5" d="M212.42,52.35A5.19,5.19,0,0,0,216,50.5l.7-1.13a5.16,5.16,0,0,0,.45-2.57,4,4,0,0,0-.6-1.91,4,4,0,0,0-1.26-1.62A5.13,5.13,0,0,0,208,44l-.7,1.12a5.18,5.18,0,0,0-.45,2.57,3.85,3.85,0,0,0,.61,1.91,3.75,3.75,0,0,0,1.25,1.62A5.2,5.2,0,0,0,212.42,52.35Z"/><path class="a930f205-2e9c-4b32-a0e9-b277ec3130d5" d="M171.28,47.67a5.2,5.2,0,0,0,3.53-1.86c.24-.37.47-.75.71-1.13a5,5,0,0,0,.44-2.56,3.81,3.81,0,0,0-.6-1.92,3.86,3.86,0,0,0-1.25-1.62,5.13,5.13,0,0,0-7.23.71l-.7,1.13a5.12,5.12,0,0,0-.45,2.56,3.81,3.81,0,0,0,.6,1.92,4,4,0,0,0,1.26,1.62A5.25,5.25,0,0,0,171.28,47.67Z"/><path class="a930f205-2e9c-4b32-a0e9-b277ec3130d5" d="M100.26,41.86a3.52,3.52,0,0,0,1.06-1.51,4.71,4.71,0,0,0,.35-2.43c.07.69.1.83.11.41a5,5,0,0,0-1.21-3.62,4.91,4.91,0,0,0-6.93-.44l-.84,1A4.88,4.88,0,0,0,92,37.59a7.8,7.8,0,0,0,.44,2.7c.21.37.42.75.64,1.12a4.63,4.63,0,0,0,3.76,1.85A4.58,4.58,0,0,0,100.26,41.86Z"/><path class="a930f205-2e9c-4b32-a0e9-b277ec3130d5" d="M26.25,92.18c0-4.18-6.48-4.07-6.48.1S26.25,96.36,26.25,92.18Z"/><path class="a930f205-2e9c-4b32-a0e9-b277ec3130d5" d="M66.67,109.78c0-4.24-6.57-3.9-6.57.33S66.67,114,66.67,109.78Z"/><path class="a930f205-2e9c-4b32-a0e9-b277ec3130d5" d="M220.75,223a5.28,5.28,0,0,0,4.58-3.67,11.67,11.67,0,0,0,.36-1.32,6.57,6.57,0,0,0-.06-2.46,7.47,7.47,0,0,0-3.78-4.94,7.94,7.94,0,0,0-7,.46,7,7,0,0,0-2.92,7.71c.54,2.42,2.56,4.89,5.1,5.31A4.08,4.08,0,0,0,220.75,223Z"/><path class="a930f205-2e9c-4b32-a0e9-b277ec3130d5" d="M392.77,252.55a6.32,6.32,0,0,0,4.17-2.09c.29-.45.59-.89.89-1.34a6.18,6.18,0,0,0,.62-3.22,4.55,4.55,0,0,0-.69-2.28,4.64,4.64,0,0,0-1.4-1.89,4.51,4.51,0,0,0-2.12-1.15,4.61,4.61,0,0,0-2.44-.36,6.23,6.23,0,0,0-4.16,2.09c-.3.44-.6.88-.89,1.33a6.19,6.19,0,0,0-.63,3.22,6.92,6.92,0,0,0,2.09,4.17,4.66,4.66,0,0,0,2.12,1.16A4.83,4.83,0,0,0,392.77,252.55Z"/><path class="a930f205-2e9c-4b32-a0e9-b277ec3130d5" d="M344.94,261.63c0-5.24-8.2-6.31-8.2-1S344.94,266.94,344.94,261.63Z"/><path class="a930f205-2e9c-4b32-a0e9-b277ec3130d5" d="M384.08,73.92a7.5,7.5,0,0,0,.1-10.61,8.4,8.4,0,0,0-5.28-2.25,7.59,7.59,0,0,0-5.33,2.15,7.5,7.5,0,0,0-.1,10.61A5.6,5.6,0,0,0,376,75.43a5.49,5.49,0,0,0,2.79.64A7.51,7.51,0,0,0,384.08,73.92Z"/><path class="a930f205-2e9c-4b32-a0e9-b277ec3130d5" d="M127.63,249.88c0-4.2-6.51-4-6.51.16S127.63,254.07,127.63,249.88Z"/><path class="a930f205-2e9c-4b32-a0e9-b277ec3130d5" d="M12.54,46.36a3.53,3.53,0,0,0,2.22-1.48,3.39,3.39,0,0,0,.53-2.58,3.39,3.39,0,0,0-.13-1.24,3.31,3.31,0,0,0-1.55-2A2.92,2.92,0,0,0,11,38.88l-.71.4a3,3,0,0,0-1,1.24c.56-1.17.58-1.43.06-.77a2.68,2.68,0,0,0-.75,1.17A8,8,0,0,0,8.36,42a4.11,4.11,0,0,0,.07,1.6,3.7,3.7,0,0,0,1.49,2.22A3.56,3.56,0,0,0,12.54,46.36Z"/><path class="a930f205-2e9c-4b32-a0e9-b277ec3130d5" d="M51.74,39.85A2.48,2.48,0,0,0,51,38.79,3.42,3.42,0,0,0,49.55,38h0a3,3,0,0,0-4,3.82Q53.51,43.16,51.74,39.85Z"/><path class="a930f205-2e9c-4b32-a0e9-b277ec3130d5" d="M11.72,159.74A8.08,8.08,0,0,0,17,156.86L18.16,155a8,8,0,0,0,.64-4.15,6,6,0,0,0-1-2.89,6.08,6.08,0,0,0-1.91-2.42,6.09,6.09,0,0,0-2.87-1.43,6,6,0,0,0-3.11-.34,8.08,8.08,0,0,0-5.31,2.88L3.5,148.51a8,8,0,0,0-.64,4.15,6.11,6.11,0,0,0,1,2.89A6.08,6.08,0,0,0,5.74,158a6,6,0,0,0,2.87,1.43A6,6,0,0,0,11.72,159.74Z"/><path class="a930f205-2e9c-4b32-a0e9-b277ec3130d5" d="M45.82,162.47a2.28,2.28,0,0,0,.91-1.46,2.24,2.24,0,0,0-.4-1.72c-.13-.15-.26-.29-.4-.43a2.28,2.28,0,0,0-1.06-.48l-2,.41a2.06,2.06,0,0,0,.23,3.77c.32.11.65.22,1,.31A2.24,2.24,0,0,0,45.82,162.47Z"/><path class="a930f205-2e9c-4b32-a0e9-b277ec3130d5" d="M104.16,217.43l1.14-.23.62-.31a2,2,0,0,0,.69-.73,2.55,2.55,0,0,0,.43-1.59,2.65,2.65,0,0,0-2.09-2.38l-.89-.15a2.72,2.72,0,1,0,.1,5.39Z"/><path class="a930f205-2e9c-4b32-a0e9-b277ec3130d5" d="M95.49,181.55a2.29,2.29,0,0,0,1.21-.76A4.23,4.23,0,0,0,97.88,178a4,4,0,0,0-1.12-2.75,4.08,4.08,0,0,0-4.46-.79l-.3.13-.13.09-.12.08a5.19,5.19,0,0,0-.46.36l-.09.07h0a.81.81,0,0,0-.14.12,4.67,4.67,0,0,0-1.24,3.18,4,4,0,0,0,2.84,4A2.47,2.47,0,0,0,95.49,181.55Z"/><path class="a930f205-2e9c-4b32-a0e9-b277ec3130d5" d="M68.11,274.32a4.09,4.09,0,0,0,1.49-2.82,4.47,4.47,0,0,0-.95-3.05A4.21,4.21,0,0,0,65.83,267a4.25,4.25,0,0,0-3,.94,4.1,4.1,0,0,0-1.48,2.82,4.46,4.46,0,0,0,.94,3,4.21,4.21,0,0,0,2.82,1.49A4.25,4.25,0,0,0,68.11,274.32Z"/><path class="a930f205-2e9c-4b32-a0e9-b277ec3130d5" d="M301.5,258.73a7.75,7.75,0,0,0,5.14-2.84c.35-.59.7-1.18,1.06-1.77a7.69,7.69,0,0,0,.56-3.88,8.46,8.46,0,0,0-2.84-5.13,8.5,8.5,0,0,0-5.64-1.63,7.72,7.72,0,0,0-5.14,2.85l-1.05,1.76A7.6,7.6,0,0,0,293,252a5.8,5.8,0,0,0,.94,2.78,5.88,5.88,0,0,0,1.9,2.36,5.81,5.81,0,0,0,2.73,1.32A5.74,5.74,0,0,0,301.5,258.73Z"/><path class="a930f205-2e9c-4b32-a0e9-b277ec3130d5" d="M215,99.85A7.67,7.67,0,0,0,220.13,97c.35-.59.7-1.18,1.06-1.76a7.7,7.7,0,0,0,.56-3.88,5.7,5.7,0,0,0-.94-2.78,5.88,5.88,0,0,0-1.9-2.36,5.73,5.73,0,0,0-2.72-1.32,5.79,5.79,0,0,0-2.92-.3,7.75,7.75,0,0,0-5.14,2.84l-1.06,1.77a7.65,7.65,0,0,0-.56,3.87,8.52,8.52,0,0,0,2.84,5.14,5.84,5.84,0,0,0,2.72,1.33A5.68,5.68,0,0,0,215,99.85Z"/><path class="a930f205-2e9c-4b32-a0e9-b277ec3130d5" d="M174.94,42.66a3.92,3.92,0,0,0-1.24-2.48l.05.09a2.58,2.58,0,0,0-.32-.34,4,4,0,0,0-5.69.34,4.46,4.46,0,0,0-1,3L174,45.37A3.66,3.66,0,0,0,174.94,42.66Z"/><path class="a11a3a5c-d768-4d40-a9d4-b1d3c335fba2" d="M209.91,7.65a1.22,1.22,0,1,1,0-2.43,1.22,1.22,0,0,1,0,2.43Z"/><path class="a11a3a5c-d768-4d40-a9d4-b1d3c335fba2" d="M179.86,208.2a1.22,1.22,0,0,1,0-2.43,1.22,1.22,0,1,1,0,2.43Z"/><path class="a11a3a5c-d768-4d40-a9d4-b1d3c335fba2" d="M310.75,165.85a1.22,1.22,0,1,1,1.21-1.21A1.21,1.21,0,0,1,310.75,165.85Z"/><circle class="fe5d54ef-00cd-44a8-86b8-e5ca0821c2b2" cx="197.69" cy="36.59" r="3.45"/><path class="fe5d54ef-00cd-44a8-86b8-e5ca0821c2b2" d="M41.76,140.89a3.46,3.46,0,1,1,3.46-3.46A3.46,3.46,0,0,1,41.76,140.89Z"/><path class="a11a3a5c-d768-4d40-a9d4-b1d3c335fba2" d="M279.32,90.62a6.08,6.08,0,1,1,6.07-6.08A6.08,6.08,0,0,1,279.32,90.62Z"/><path class="fe5d54ef-00cd-44a8-86b8-e5ca0821c2b2" d="M96.89,77.32a3.46,3.46,0,1,1,3.45-3.46A3.45,3.45,0,0,1,96.89,77.32Z"/><path class="a11a3a5c-d768-4d40-a9d4-b1d3c335fba2" d="M209.91,209.61a1.21,1.21,0,1,1,1.21-1.21A1.22,1.22,0,0,1,209.91,209.61Z"/><path class="a11a3a5c-d768-4d40-a9d4-b1d3c335fba2" d="M378.66,201.63a1.22,1.22,0,1,1,0-2.43,1.22,1.22,0,0,1,0,2.43Z"/><path class="a11a3a5c-d768-4d40-a9d4-b1d3c335fba2" d="M355.42,160.22a1.22,1.22,0,1,1,1.21-1.21A1.21,1.21,0,0,1,355.42,160.22Z"/><circle class="a11a3a5c-d768-4d40-a9d4-b1d3c335fba2" cx="197.69" cy="238.56" r="3.45"/><path class="a11a3a5c-d768-4d40-a9d4-b1d3c335fba2" d="M328.15,230.09a3.46,3.46,0,1,1,3.45-3.46A3.46,3.46,0,0,1,328.15,230.09Z"/><path class="fe5d54ef-00cd-44a8-86b8-e5ca0821c2b2" d="M279.32,292.58a6.08,6.08,0,1,1,6.07-6.07A6.08,6.08,0,0,1,279.32,292.58Z"/><path class="fe5d54ef-00cd-44a8-86b8-e5ca0821c2b2" d="M96.89,279.28a3.46,3.46,0,1,1,3.45-3.45A3.45,3.45,0,0,1,96.89,279.28Z"/><circle class="fe5d54ef-00cd-44a8-86b8-e5ca0821c2b2" cx="13.78" cy="235.1" r="3.45"/><circle class="fe5d54ef-00cd-44a8-86b8-e5ca0821c2b2" cx="127.88" cy="233.14" r="9.66"/><circle class="bf777e73-b35e-4d99-9b26-788f0ca9064e" cx="255.84" cy="140.57" r="6.07"/><path class="f05a4a30-de80-4878-ae42-e1998a48df5c" d="M191.85,12.4a4.75,4.75,0,0,1,4.75-4.75,4.75,4.75,0,0,1-4.75-4.76,4.76,4.76,0,0,1-4.76,4.76A4.76,4.76,0,0,1,191.85,12.4Z"/><path class="f05a4a30-de80-4878-ae42-e1998a48df5c" d="M392.79,96.35a4.76,4.76,0,0,1,4.76-4.76,4.76,4.76,0,0,1-4.76-4.75A4.75,4.75,0,0,1,388,91.59,4.75,4.75,0,0,1,392.79,96.35Z"/><path class="bf777e73-b35e-4d99-9b26-788f0ca9064e" d="M166.74,167.68a4.76,4.76,0,0,1,4.76-4.76,4.76,4.76,0,0,1-4.76-4.75,4.75,4.75,0,0,1-4.75,4.75A4.76,4.76,0,0,1,166.74,167.68Z"/><circle class="bf777e73-b35e-4d99-9b26-788f0ca9064e" cx="52.06" cy="82.29" r="4.75"/><path class="bf777e73-b35e-4d99-9b26-788f0ca9064e" d="M291.41,23.93a4.76,4.76,0,0,1,4.76-4.75,4.76,4.76,0,0,1-4.76-4.76,4.76,4.76,0,0,1-4.75,4.76A4.75,4.75,0,0,1,291.41,23.93Z"/><g class="ae5c0ceb-42d5-479a-836d-01879f2cbccf"><circle class="b78a6bcf-084b-4a59-a593-7050df9c0946" cx="83.32" cy="8.79" r="6.29" transform="translate(18.19 61.49) rotate(-45)"/></g></g><g id="e39dfeae-73ca-46b1-a7d8-ccc06772c2d4" data-name="Jupiter"><g class="a137deb5-8d67-4dfe-8b1a-45a5d538df95"><circle class="b29bec5d-0450-4da7-8c3a-d3b713d8e342" cx="200" cy="150" r="123.71" transform="translate(-47.49 185.36) rotate(-45)"/><g class="f6a2c2e3-37c2-4717-8994-2c1842d3dd57"><path class="e74535f1-8e42-4086-8fec-2435fbfc9b6c" d="M238,8.72a53.67,53.67,0,0,0-21.28,3.34c-14.77,5.46-27.79,15.25-43,19.52-10,2.82-20.52,3.13-30.5,5.94C124.75,42.74,107.87,60,110.56,79c.3,2.09.89,4.28,2.46,5.7a10,10,0,0,0,5.28,2c15.19,2.42,30.9-1.3,46,1.44,8,1.45,15.73,4.69,23.87,5.33,14,1.1,27.23-10.75,40.09-7,6.14,1.76,11.33,5.84,16.07,10.12,2.46,2.23,5,4.84,5.27,8.14.37,4.38-3.32,7.92-6.69,10.75-7,5.84-14.5,11.94-23.54,13-5.44.64-11-.64-16.42-.18-6.18.51-12,3.22-17.26,6.5a81.51,81.51,0,0,0-37.26,58.37c-.33,2.67-.5,5.47.53,8a15,15,0,0,0,4.58,5.48,54.58,54.58,0,0,0,49,10.13c7.47-2.16,14.41-5.93,22-7.76s16.35-1.35,22,4,7,15.25,14,19.32c5.91,3.43,18.42,6.51,25.38,8.49,20.55,5.83,41-1.42,54.23-17.92,4.46-5.57,7.4-12.18,10-18.8a295,295,0,0,0,14.5-47.6c1.65-7.67,2.92-16-.32-23.12-6.88-15.17-31-18.83-33.65-35.27-1.13-7,2.28-14.07,1-21-.87-4.61-3.74-8.56-6.57-12.3-5.26-6.94-11-14-19-17.57-9.38-4.17-21.14-1.67-30.08-5.63s-10.24-15.1-15.88-22.37C254.92,12.38,246.74,9.24,238,8.72Z"/><path class="abf119c5-89ad-48ca-9f8d-3ef366e048c4" d="M250.35.5c-26.56.78-51.3,8.32-77,11.43-10.37,1.26-34.7,19.92-31.59,31.78a16.16,16.16,0,0,0,6.31,8.53,26.26,26.26,0,0,0,26.36,2.55C180.24,52,187,47,192.25,50.7c3.53,2.44,4.05,7.56,7.06,10.62,4.73,4.79,13.31,2.19,17.77-2.85s6.49-11.78,10.28-17.35C236.66,27.44,254.73,23,271.23,22c5-.29,10.19-.34,14.75,1.7s8.31,6.71,7.73,11.68c-.85,7.41-10.24,11.59-11.1,19-.62,5.35,3.75,10.24,8.79,12.15s10.61,1.57,16,1.38c9.33-.33,19.08,0,27.3,4.37s14.36,14,11.88,23c-2.32,8.44-11,13.46-19.47,15.77s-17.45,2.91-25.27,6.84c-10,5-17.07,15.08-27.59,18.91C268.33,139,261.82,139,255.86,141s-11.7,7.31-10.91,13.55c.86,6.84,9.07,10.4,15.93,9.72s13.14-4.13,19.89-5.53c10.56-2.18,21.49.79,31.53,4.7,6.09,2.36,12.22,5.21,16.6,10s6.66,12.12,4,18.07c-3.23,7.17-12.05,9.89-19.9,10.29s-16.07-.62-23.33,2.39-12.73,12.38-8.26,18.85c3.39,4.9,10.39,5.49,16.29,4.67s12-2.53,17.66-.55c5,1.79,9.46,6.47,14.73,5.58,2.86-.49,5.15-2.56,7.26-4.54,12.52-11.73,25.23-23.87,32.83-39.24,10.48-21.17,10.07-45.87,9.44-69.48-.43-16-1-32.55-8.13-46.86-6.26-12.52-17-22.14-27.45-31.43-5-4.47-10.23-9-16.54-11.37-9.35-3.46-20.13-1.64-29.21-5.74C288.08,19.51,282.07,8.4,272,3.56,265.35.38,257.71.28,250.35.5Z"/><path class="abf119c5-89ad-48ca-9f8d-3ef366e048c4" d="M200.68,86.22a62.2,62.2,0,0,1-13.1,3.41c-8.89,1.21-18.15,0-26.69,2.76-6.29,2-11.72,6.06-17.63,9-27.38,13.71-35.79-19.15-59.49-20.73-8.85-.59-18.2,3.9-22.12,11.86-2.27,4.63-2.62,9.94-2.93,15.09l-.9,15c-.16,2.74-.32,5.56.57,8.16,1,3.09,3.44,5.5,5.24,8.23,6.91,10.49,4.45,24.3,2,36.64s-4.13,26.47,3.76,36.25c3.55,4.4,8.6,7.26,13.53,10,5.9,3.3,12.71,6.7,19.11,4.56,4.23-1.41,7.34-5,11.23-7.15,8.74-4.86,21.2-.88,25.51,8.14,2,4.22,2.34,9.06,2,13.73-.63,8.6-3.43,16.9-4.61,25.44s-.46,18,5,24.63c6.73,8.21,19.25,9.88,29.18,6.12s17.57-11.92,23.5-20.72c4.29-6.37,8.79-13.85,16.33-15.3,5.41-1,11.92,1.18,16-2.57,2.55-2.36,2.94-6.21,2.91-9.69-.1-11-2.53-23.13,3.67-32.25,7.2-10.59,22.29-11.66,32.95-18.75,2.5-1.66,4.92-4,5.23-6.94.6-5.82-6.6-9-12.38-9.89a137.58,137.58,0,0,0-61.42,4.34c-9.91,3-19.88,7.25-30.22,6.39-2.7-.22-5.71-1-7-3.43-.9-1.69-.68-3.75-.23-5.61a26.23,26.23,0,0,1,14.83-17.61c4.84-2.09,10.31-2.7,14.76-5.51s7.42-9.27,4.1-13.36c-2.68-3.3-7.62-3.15-11.84-3.67s-9.24-3.49-8.31-7.64a7.25,7.25,0,0,1,2.2-3.45c9.36-9.2,24.55-6.86,37.5-9,13.24-2.17,28.33-13.55,38.53-21.6C256.72,97,269,87.83,269,80.56c.13-12-16.52-13.63-24.92-12C228.74,71.38,215.27,80.83,200.68,86.22Z"/><path class="b76fa413-3758-4361-b379-687b8e33073a" d="M83.69,119.05c6.42.15,13.85,2.4,16,8.46.6,1.73.7,3.64,1.5,5.3,2.56,5.29,10.22,5,15.76,3,3-1,6.06-2.35,9.19-1.89,5.43.8,8.82,7.88,6,12.61-2.63,4.46-8.47,5.51-13.53,6.65s-10.85,3.86-11.38,9c-.66,6.38,7.18,10.39,8.94,16.56,1.36,4.78-1.37,10-5.36,12.94s-9,4.15-13.85,5.11c-3.69.73-7.5,1.37-11.19.61-17.88-3.69-2.83-22.78-5.7-32.6-1.93-6.61-10.18-9-14.19-14.63C56.53,137.14,69.3,118.71,83.69,119.05Z"/><path class="b76fa413-3758-4361-b379-687b8e33073a" d="M188.66,253.18c.71-8.62-15.82-12.58-21.62-11.94-8.28.9-13.06,8.94-11.36,16.93,1.32,6.23,8.45,10,14.77,9.22s11.76-5,15.9-9.81A8.14,8.14,0,0,0,188.66,253.18Z"/></g><g class="a0d6a948-f4b9-4d93-8d14-aca60ccb8c69"><path class="bb3a5350-50c6-415b-9a63-7f2e70d46bba" d="M217.31,266a123.73,123.73,0,0,1-59-232.46A123.73,123.73,0,1,0,259,258.74,123.55,123.55,0,0,1,217.31,266Z"/></g><g class="e5da476c-0f05-4fbf-ae25-b9f744188501"><path class="bff1eecc-1d71-480b-ab85-259d5411892b" d="M200,26.29a123.19,123.19,0,0,0-47.52,9.47,123.71,123.71,0,0,0,137.57,199A123.68,123.68,0,0,0,200,26.29Z"/></g></g></g></g></svg>