<svg id="a833fb71-4ba1-4463-8f38-9ee71f132928" data-name="Layer 1" xmlns="http://www.w3.org/2000/svg" viewBox="0 0 629.1 219.89"><defs><style>.a007863c-5c23-400a-8a89-3457ec166a51{fill:#fff;}</style></defs><path class="a007863c-5c23-400a-8a89-3457ec166a51" d="M263.8,98.59A13.24,13.24,0,0,0,266,106.3a68.33,68.33,0,0,0,5.07,6.49c1.08,1.29,2.18,2.62,3.3,4a33.17,33.17,0,0,1,3,4.41,24,24,0,0,1,2.13,5.12,22,22,0,0,1,.81,6.14V137a12.84,12.84,0,0,1-1,5,12.42,12.42,0,0,1-2.79,4.1,13.38,13.38,0,0,1-4.16,2.74,12.66,12.66,0,0,1-5,1,12.33,12.33,0,0,1-5-1,13.34,13.34,0,0,1-4.1-2.74,12.13,12.13,0,0,1-2.79-4.1,12.67,12.67,0,0,1-1-5v-5.37h9.34v5.44a3.4,3.4,0,0,0,1.06,2.56,3.45,3.45,0,0,0,2.49,1,3.59,3.59,0,0,0,2.58-1,3.37,3.37,0,0,0,1.07-2.54v-4.57a14,14,0,0,0-2.39-8.08,71.08,71.08,0,0,0-5.32-6.86c-1.08-1.22-2.15-2.45-3.2-3.71a29.43,29.43,0,0,1-2.84-4.06,22.76,22.76,0,0,1-2-4.68,19.1,19.1,0,0,1-.76-5.53v-6.1a12.59,12.59,0,0,1,3.81-9,13.73,13.73,0,0,1,4.1-2.75,12.32,12.32,0,0,1,5-1,12.65,12.65,0,0,1,5,1,13.74,13.74,0,0,1,4.16,2.74,12.68,12.68,0,0,1,2.79,4.06,12.41,12.41,0,0,1,1,5v7H271v-7A3.42,3.42,0,0,0,269.93,91,3.51,3.51,0,0,0,267.35,90a3.62,3.62,0,0,0-3.55,3.55Z" transform="translate(-7.53 -4.62)"/><path class="a007863c-5c23-400a-8a89-3457ec166a51" d="M309.85,120.5a12.63,12.63,0,0,1-3.78,9.13,13.74,13.74,0,0,1-4.08,2.74,12.18,12.18,0,0,1-4.95,1h-3.63v16.54h-9.33V80.74H297a12.31,12.31,0,0,1,5,1,13.7,13.7,0,0,1,4.1,2.74,12.59,12.59,0,0,1,3.81,9Zm-9.33-27a3.55,3.55,0,0,0-1-2.49A3.3,3.3,0,0,0,297,90h-3.61v34.18H297a3.3,3.3,0,0,0,2.5-1.06,3.69,3.69,0,0,0,1-2.59Z" transform="translate(-7.53 -4.62)"/><path class="a007863c-5c23-400a-8a89-3457ec166a51" d="M340.38,149.92h-9.33V133.38h-8.73v16.54H313.2V93.52a12.24,12.24,0,0,1,1-5A12.87,12.87,0,0,1,317,84.49,13,13,0,0,1,321,81.75a12.24,12.24,0,0,1,5-1h1.52a12.27,12.27,0,0,1,5,1,13.88,13.88,0,0,1,4.11,2.74,12.68,12.68,0,0,1,2.79,4.06,12.41,12.41,0,0,1,1,5Zm-9.33-56.4A3.64,3.64,0,0,0,327.5,90H326A3.57,3.57,0,0,0,323.44,91a3.36,3.36,0,0,0-1.12,2.49v30.63h8.73Z" transform="translate(-7.53 -4.62)"/><path class="a007863c-5c23-400a-8a89-3457ec166a51" d="M370.31,136.93a12.85,12.85,0,0,1-1,5,13.12,13.12,0,0,1-6.93,6.94,12.34,12.34,0,0,1-5,1,12.72,12.72,0,0,1-5-1,12.31,12.31,0,0,1-4.12-2.79,13.13,13.13,0,0,1-2.75-4.15,12.67,12.67,0,0,1-1-5V93.52a12.25,12.25,0,0,1,1-5,12.73,12.73,0,0,1,2.75-4.06,13,13,0,0,1,4.12-2.74,12.71,12.71,0,0,1,5-1,12.33,12.33,0,0,1,5,1,13.85,13.85,0,0,1,4.13,2.74,12.7,12.7,0,0,1,2.8,4.06,12.41,12.41,0,0,1,1,5v7H361v-7A3.41,3.41,0,0,0,359.91,91,3.53,3.53,0,0,0,357.32,90,3.36,3.36,0,0,0,354.84,91a3.41,3.41,0,0,0-1.07,2.48V137a3.57,3.57,0,0,0,3.55,3.66,3.58,3.58,0,0,0,2.59-1A3.53,3.53,0,0,0,361,137v-5.33h9.34Z" transform="translate(-7.53 -4.62)"/><path class="a007863c-5c23-400a-8a89-3457ec166a51" d="M397.49,149.92H374.77V80.74h22.72V90H384.1v25.15h10.45v9.23H384.1v16.34h13.39Z" transform="translate(-7.53 -4.62)"/><path class="a007863c-5c23-400a-8a89-3457ec166a51" d="M437.34,90h-7.41v59.95H420.6V90h-7.51V80.74h24.25Z" transform="translate(-7.53 -4.62)"/><path class="a007863c-5c23-400a-8a89-3457ec166a51" d="M467,120.5a12.37,12.37,0,0,1-2,6.7,14.05,14.05,0,0,1-5,4.86q1.73,4.26,3.7,8.93t3.7,8.93h-10l-6.59-16.54h-.2v16.54h-9.34V80.74h12.89a12.31,12.31,0,0,1,5,1,13.88,13.88,0,0,1,4.11,2.74,12.49,12.49,0,0,1,2.78,4.06,12.25,12.25,0,0,1,1,5Zm-9.33-27a3.55,3.55,0,0,0-1-2.49,3.3,3.3,0,0,0-2.5-1.06h-3.6v34.28h3.6a3.24,3.24,0,0,0,2.5-1.11,3.88,3.88,0,0,0,1-2.64Z" transform="translate(-7.53 -4.62)"/><path class="a007863c-5c23-400a-8a89-3457ec166a51" d="M498.71,149.92h-9.33V133.38h-8.73v16.54h-9.13V93.52a12.25,12.25,0,0,1,1-5,12.7,12.7,0,0,1,2.74-4.06,13,13,0,0,1,4.05-2.74,12.27,12.27,0,0,1,5-1h1.52a12.32,12.32,0,0,1,5,1,13.7,13.7,0,0,1,4.1,2.74,12.59,12.59,0,0,1,3.81,9Zm-9.33-56.4A3.64,3.64,0,0,0,485.82,90H484.3A3.56,3.56,0,0,0,481.77,91a3.32,3.32,0,0,0-1.12,2.49v30.63h8.73Z" transform="translate(-7.53 -4.62)"/><path class="a007863c-5c23-400a-8a89-3457ec166a51" d="M529.85,116.34q0,16.44-9.43,33.58H512q-9.44-17.25-9.44-33.58V80.74h9.33V113A62.36,62.36,0,0,0,513,125.07a83.27,83.27,0,0,0,3.13,11.46,63.9,63.9,0,0,0,3.34-11.41,60.63,60.63,0,0,0,1-11.21V80.74h9.33Z" transform="translate(-7.53 -4.62)"/><path class="a007863c-5c23-400a-8a89-3457ec166a51" d="M557.34,149.92H534.62V80.74h22.72V90H544v25.15H554.4v9.23H544v16.34h13.39Z" transform="translate(-7.53 -4.62)"/><path class="a007863c-5c23-400a-8a89-3457ec166a51" d="M583,149.92H561.7V80.74H571v60h12Z" transform="translate(-7.53 -4.62)"/><path class="a007863c-5c23-400a-8a89-3457ec166a51" d="M600.24,149.92h-4.6v-34.1h4.6Z" transform="translate(-7.53 -4.62)"/><path class="a007863c-5c23-400a-8a89-3457ec166a51" d="M615.84,149.92h-4.6v-21.1a8.44,8.44,0,0,0-1.12-4.3,7.79,7.79,0,0,0-3.13-3v28.45h-4.6v-34.1a14.59,14.59,0,0,1,4.9.75,12.42,12.42,0,0,1,4,2.35v-3.1h4.6Z" transform="translate(-7.53 -4.62)"/><path class="a007863c-5c23-400a-8a89-3457ec166a51" d="M630.44,143.52a6.1,6.1,0,0,1-.51,2.47,6.18,6.18,0,0,1-1.38,2,6.3,6.3,0,0,1-2,1.38,6.18,6.18,0,0,1-2.46.5,6.32,6.32,0,0,1-2.48-.5,6,6,0,0,1-2-1.38,6.59,6.59,0,0,1-1.35-2,6.1,6.1,0,0,1-.5-2.47v-21.4a5.93,5.93,0,0,1,.5-2.45,6.47,6.47,0,0,1,1.35-2,6.49,6.49,0,0,1,4.52-1.85,6.18,6.18,0,0,1,2.46.5,6.55,6.55,0,0,1,2,1.35,6.07,6.07,0,0,1,1.38,2,5.94,5.94,0,0,1,.51,2.45v3.45h-4.6v-3.45a1.69,1.69,0,0,0-.53-1.23,1.72,1.72,0,0,0-1.27-.52,1.78,1.78,0,0,0-1.75,1.75v21.44a1.74,1.74,0,0,0,1.75,1.81,1.78,1.78,0,0,0,1.8-1.82v-2.63h4.6Z" transform="translate(-7.53 -4.62)"/><path class="a007863c-5c23-400a-8a89-3457ec166a51" d="M636.64,145.37v4.55H632v-4.55Z" transform="translate(-7.53 -4.62)"/><path class="a007863c-5c23-400a-8a89-3457ec166a51" d="M117.48,4.62A109.94,109.94,0,0,0,31.55,183.15a15.56,15.56,0,0,1,4.7-6.49c1.47-11.88,10.9-9.61,10.9-9.61s4.94-1.8,9.15,1.06a4.7,4.7,0,0,1,6.73.32l19.07-15.6c1.14-7.91,3.28-19.64,6.35-23.46a20.6,20.6,0,0,1,10.94-6.59l-2-1.62-16.62,8.51h0v0c.16-.82.3-1.62.44-2.4,0-.28.09-.54.13-.81q.14-.8.27-1.56c0-.28.09-.56.14-.83.08-.5.16-1,.23-1.47l.12-.75c.09-.55.17-1.1.26-1.64l0-.33c.13-.82.25-1.62.37-2.4,0-.17.06-.35.08-.53L83,115.6l.12-.73c.06-.37.12-.75.18-1.11l0-.1h0C86,97.91,89.25,91.38,113.68,88.73v0c4.46-7.72,9.43-15.38,14.39-21.12.47-.55,1-1.09,1.46-1.61.17-.18.35-.34.52-.52l1-1,.67-.6.92-.83.73-.59c.31-.25.61-.51.92-.75s.51-.38.77-.58l.92-.68.84-.58.88-.6c.3-.2.61-.38.92-.57l.83-.53,1-.56.8-.46c.33-.19.67-.36,1-.54l.78-.41,1-.51.76-.38,1.09-.49.71-.32.94-.39h0l.63-.26.22-.09.16-.06,1.49-.58.13-.05.3-.11,1.28-.45.17-.06.13-.05,1.45-.48.15,0,.29-.09,1.34-.4h0l.11,0,.13,0,1.34-.38.36-.1,1.37-.35.26-.07,1.15-.27.31-.08,1.25-.27.3-.07,1-.21.23,0,1.13-.21.28,0,1-.17.08,0,1-.15.24,0,.88-.12.11,0,.72-.09.18,0,.68-.08h.13l.49-.06h.12l.46,0h.08l.3,0h.36v.09c0,.05,0,.12,0,.22v0c0,.09,0,.19.05.3v.1c0,.14,0,.29.05.46l0,.1c0,.15,0,.33.05.51l0,.12c0,.21,0,.44.06.68l0,.19c0,.22,0,.46.06.71V52c0,.28.05.57.07.88,0,.08,0,.16,0,.25,0,.32,0,.64.06,1v.1c0,.32,0,.66.05,1,0,.09,0,.19,0,.28,0,.37,0,.76,0,1.15v.23c0,.35,0,.7,0,1.06v1.59c0,.11,0,.21,0,.32,0,.39,0,.79,0,1.19,0,.09,0,.17,0,.26,0,.46,0,.94-.05,1.41,0,.13,0,.25,0,.38,0,.46,0,.92-.08,1.39a.61.61,0,0,0,0,.14q-.06.75-.12,1.53c0,.13,0,.27,0,.4,0,.52-.1,1-.16,1.57l0,.21-.18,1.46-.06.4c-.08.54-.16,1.08-.25,1.63l-.06.32c0,.25-.08.5-.13.76h0c-1.34,7.34-4,15.22-9,21.94-4.55,6.07-11,12.56-17.55,18.56,2.33,21.59-1.84,27.66-13.08,32.9h0c-.6.28-1.22.55-1.85.83l-.55.23-1.45.6-.65.27-1.56.62-.56.22-3.14,1.22-1.18.46-.87.34-1.7.66-.94.37-1.79.71-.87.36-2.75,1.13,4.77-18.06-2-1.62A20.52,20.52,0,0,1,110,146.68c-2.78,3.45-12.07,7.55-19.35,10.37L80.16,177.61l.51-.07a6.65,6.65,0,0,1,1.82,13.16,11.72,11.72,0,0,1,.76,5.4s6.86,13.37-6.67,20.55a110,110,0,1,0,40.9-212ZM56,165.07a.88.88,0,0,1-1-.78.88.88,0,0,1,1.74-.19A.88.88,0,0,1,56,165.07Zm29.66,11.76a1.46,1.46,0,0,1-.32-2.91,1.46,1.46,0,0,1,.32,2.91Z" transform="translate(-7.53 -4.62)"/></svg>