<?xml version="1.0" encoding="utf-8"?>
<!-- Generator: Adobe Illustrator 24.2.1, SVG Export Plug-In . SVG Version: 6.00 Build 0)  -->
<svg version="1.1" xmlns="http://www.w3.org/2000/svg" xmlns:xlink="http://www.w3.org/1999/xlink" x="0px" y="0px"
	 viewBox="0 0 96 96" style="enable-background:new 0 0 96 96;" xml:space="preserve">
<style type="text/css">
	.st0{display:none;}
	.st1{display:inline;fill:#E50A0A;}
	.st2{fill:#FFFFFF;}
</style>
<g id="Layer_3" class="st0">
	<rect x="4.57" y="29.23" class="st1" width="86.86" height="85.54"/>
</g>
<g id="e52d8355-ba9d-46e6-b87d-c227e1151cfd">
	<path class="st2" d="M92.67,21.13c0.17-0.66,0.33-1.32,0.48-1.97c0.01-0.06,0.03-0.13,0.04-0.19c0.13-0.59,0.25-1.17,0.36-1.74
		c0.04-0.19,0.07-0.38,0.11-0.56c0.09-0.46,0.17-0.91,0.24-1.35c0.03-0.19,0.06-0.37,0.09-0.56c0.08-0.5,0.16-0.99,0.23-1.48
		c0.01-0.1,0.03-0.2,0.04-0.29c0.08-0.58,0.15-1.15,0.22-1.7c0.02-0.14,0.03-0.27,0.04-0.4c0.05-0.42,0.09-0.82,0.13-1.22
		c0.02-0.16,0.03-0.32,0.04-0.48c0.03-0.37,0.06-0.73,0.09-1.09c0.01-0.13,0.02-0.27,0.03-0.4c0.03-0.47,0.06-0.92,0.09-1.35
		c0,0,0,0,0,0c0.02-0.43,0.04-0.83,0.05-1.21c0-0.12,0.01-0.22,0.01-0.34c0.01-0.27,0.02-0.52,0.02-0.76c0-0.11,0-0.21,0.01-0.32
		c0-0.25,0.01-0.48,0.01-0.7c0-0.06,0-0.12,0-0.17c0-0.27,0-0.51,0-0.72c0-0.06,0-0.1,0-0.16c0-0.15,0-0.28-0.01-0.4
		c0-0.05,0-0.09,0-0.13c0-0.1,0-0.17-0.01-0.23c0-0.04,0-0.06,0-0.08c0-0.06,0-0.09,0-0.09s-0.03,0-0.09,0c-0.02,0-0.04,0-0.08,0
		c-0.06,0-0.14,0-0.23-0.01c-0.04,0-0.08,0-0.13,0c-0.11,0-0.25-0.01-0.4-0.01c-0.05,0-0.1,0-0.16,0c-0.21,0-0.45,0-0.72,0
		c-0.05,0-0.12,0-0.17,0c-0.22,0-0.45,0-0.7,0.01c-0.1,0-0.21,0-0.32,0.01c-0.24,0.01-0.5,0.01-0.76,0.02
		c-0.11,0-0.22,0.01-0.34,0.01c-0.38,0.01-0.78,0.03-1.21,0.05c0,0,0,0,0,0c-0.43,0.02-0.88,0.05-1.35,0.09
		c-0.13,0.01-0.27,0.02-0.4,0.03c-0.35,0.03-0.71,0.06-1.09,0.09c-0.16,0.01-0.32,0.03-0.48,0.04c-0.4,0.04-0.81,0.08-1.22,0.13
		c-0.13,0.02-0.26,0.03-0.4,0.04c-0.55,0.06-1.12,0.14-1.7,0.22c-0.1,0.01-0.2,0.03-0.29,0.04c-0.48,0.07-0.98,0.14-1.48,0.23
		c-0.18,0.03-0.37,0.06-0.56,0.09c-0.26,0.04-0.51,0.09-0.77,0.13c0,0,0,0,0,0c-0.01,0-0.03,0.01-0.04,0.01
		c-0.18,0.03-0.36,0.07-0.54,0.1c-0.19,0.04-0.37,0.07-0.56,0.11c-0.57,0.11-1.15,0.23-1.74,0.36c-0.06,0.01-0.13,0.03-0.19,0.04
		c-0.05,0.01-0.1,0.02-0.15,0.03c-0.02,0.01-0.05,0.01-0.07,0.02c-0.58,0.13-1.16,0.27-1.75,0.42c-0.18,0.04-0.35,0.09-0.53,0.14
		c-0.34,0.09-0.68,0.18-1.02,0.27c-0.03,0.01-0.06,0.02-0.08,0.02c-0.13,0.04-0.26,0.08-0.38,0.11c-0.11,0.03-0.23,0.06-0.34,0.09
		l0,0c-0.88,0.26-1.76,0.54-2.65,0.84c-0.03,0.01-0.05,0.02-0.07,0.03c-1.13,0.39-2.27,0.82-3.4,1.3c-0.03,0.01-0.05,0.02-0.07,0.03
		c-1.13,0.48-2.26,1-3.38,1.57c-0.02,0.01-0.04,0.02-0.06,0.03c-1.12,0.57-2.23,1.19-3.32,1.87c-0.01,0.01-0.02,0.02-0.04,0.02
		c-1.09,0.68-2.16,1.41-3.2,2.2c-0.01,0-0.01,0.01-0.02,0.01c-1.05,0.79-2.06,1.64-3.04,2.56c-5.12,4.78-10.44,11.32-15.3,17.96
		l0.01-0.02c-22.69,0-26.32,5.67-30.31,19.87c0,0,0,0,0,0c-0.01,0.02-0.01,0.05-0.02,0.07c-0.28,0.98-0.55,2.01-0.84,3.07
		c-0.02,0.09-0.05,0.18-0.07,0.27c-0.15,0.56-0.3,1.13-0.46,1.71c-0.08,0.29-0.15,0.57-0.23,0.87c-0.08,0.3-0.16,0.61-0.25,0.92
		c-0.29,1.07-0.59,2.17-0.91,3.31c-0.04,0.15-0.09,0.3-0.13,0.45c-0.34,1.22-0.7,2.47-1.09,3.77l16.1-6.17l1.7,1.7
		c-4.01,0.5-8.09,2.36-10.69,4.96C5.81,72.16,0.99,95,0.99,95s22.84-4.82,27.82-9.8c2.6-2.6,4.47-6.68,4.96-10.69l1.7,1.7
		l-6.17,16.1c0.9-0.27,1.78-0.52,2.64-0.77c0.28-0.08,0.55-0.16,0.82-0.23c0.59-0.17,1.18-0.33,1.75-0.49
		c0.28-0.08,0.57-0.16,0.85-0.23c0.58-0.16,1.15-0.31,1.7-0.46c0.25-0.07,0.5-0.13,0.74-0.2c0.37-0.1,0.73-0.19,1.09-0.29
		c1.07-0.29,2.1-0.56,3.09-0.83c0.18-0.05,0.35-0.1,0.52-0.14c0.51-0.14,1.01-0.28,1.5-0.42c0.21-0.06,0.42-0.12,0.63-0.18
		c0.47-0.14,0.93-0.27,1.38-0.41c0.18-0.05,0.36-0.11,0.53-0.16c0.61-0.19,1.21-0.38,1.78-0.57c0,0,0.01,0,0.01,0c0,0,0,0,0,0
		c10.84-3.68,15.28-8.85,15.28-28.9c6.64-4.86,13.17-10.18,17.95-15.3c5.29-5.66,8.5-12.63,10.46-19.24l0,0
		c0.07-0.23,0.13-0.46,0.2-0.69c0.11-0.38,0.21-0.76,0.31-1.14C92.58,21.48,92.63,21.3,92.67,21.13z"/>
</g>
<g id="Layer_2">
</g>
</svg>
