<svg id="e52d8355-ba9d-46e6-b87d-c227e1151cfd" data-name="Layer 1" xmlns="http://www.w3.org/2000/svg" viewBox="0 0 246.06 246.06"><defs><style>.a00c73ae-03b0-4d2a-89d7-4b2f23277736{fill:#fff;}</style></defs><path class="a00c73ae-03b0-4d2a-89d7-4b2f23277736" d="M125,2.13A123,123,0,0,0,28.87,201.91a17.31,17.31,0,0,1,5.26-7.27c1.64-13.3,12.2-10.75,12.2-10.75s5.52-2,10.23,1.19a5.27,5.27,0,0,1,7.54.35L85.44,168c1.27-8.86,3.67-22,7.1-26.25a23,23,0,0,1,12.24-7.38l-2.27-1.82-18.6,9.53h0v0c.17-.92.33-1.81.49-2.69l.15-.91.3-1.74.15-.93.27-1.65c0-.28.09-.56.13-.83.1-.62.19-1.24.29-1.83l.06-.38c.14-.92.28-1.81.41-2.68l.09-.59q.12-.77.24-1.5c0-.27.09-.54.13-.81.07-.42.13-.84.2-1.24l0-.11h0c3-17.63,6.6-24.94,33.94-27.9l0,0c5-8.64,10.55-17.21,16.1-23.64.53-.62,1.08-1.22,1.64-1.8.19-.2.39-.38.58-.58l1.13-1.12.75-.67c.34-.31.68-.63,1-.92l.82-.67c.34-.28.68-.57,1-.84l.86-.64c.35-.26.68-.52,1-.77l.95-.65c.33-.22.65-.45,1-.66s.68-.44,1-.65l.93-.59,1.1-.63c.3-.17.59-.35.89-.51s.75-.4,1.13-.6.58-.32.88-.47.77-.38,1.16-.57l.85-.42,1.22-.55.79-.36,1.06-.44h0l.71-.29.25-.11.18-.07,1.66-.64.15,0,.34-.13,1.42-.51.2-.07.14,0,1.63-.53.16-.06.33-.1,1.49-.45h0l.12,0,.15,0q.75-.23,1.5-.42l.4-.11,1.53-.4.3-.07,1.28-.31L173,53l1.4-.31.33-.07,1.16-.24.27,0,1.26-.24.31,0,1.12-.19.09,0,1.1-.17.28,0,1-.14.12,0,.81-.1.2,0,.76-.09.15,0,.54-.06H184l.51,0h.09l.34,0h.4v.1c0,.06,0,.13,0,.24v0c0,.1,0,.21.05.34v.1c0,.16,0,.33.06.52l0,.11c0,.17,0,.37.06.57s0,.09,0,.14c0,.23.05.49.07.76a1.25,1.25,0,0,1,0,.21c0,.25.05.51.07.79a.66.66,0,0,1,0,.14c0,.31,0,.64.08,1a2.64,2.64,0,0,0,0,.28c0,.36,0,.72.06,1.11,0,0,0,.08,0,.11,0,.36,0,.74.05,1.12,0,.11,0,.21,0,.32,0,.41,0,.84,0,1.28,0,.09,0,.18,0,.26,0,.39,0,.78,0,1.18v1.79c0,.12,0,.23,0,.35,0,.44,0,.88,0,1.33,0,.1,0,.2,0,.3,0,.51,0,1-.06,1.58,0,.14,0,.28,0,.42,0,.51-.06,1-.1,1.55a.86.86,0,0,1,0,.16c0,.56-.08,1.13-.13,1.71,0,.15,0,.3,0,.45-.06.58-.12,1.17-.19,1.76a1.79,1.79,0,0,1,0,.23L185.28,75l-.06.45c-.09.6-.18,1.21-.28,1.82,0,.12-.05.24-.07.36,0,.29-.09.57-.14.86h0c-1.49,8.22-4.46,17-10.09,24.55-5.09,6.79-12.27,14.06-19.64,20.78,2.61,24.16-2.06,31-14.64,36.81h0l-2.07.93-.62.26-1.61.67-.73.3-1.75.7-.63.24-3.51,1.37-1.32.51-1,.38-1.9.74-1.06.41-2,.8-1,.4-3.08,1.27,5.33-20.21-2.26-1.82a23,23,0,0,1-4.59,13.53C113.5,165,103.11,169.54,95,172.7l-11.69,23a5.62,5.62,0,0,1,.57-.09,7.44,7.44,0,0,1,2,14.74,13.11,13.11,0,0,1,.85,6s7.68,15-7.46,23A123,123,0,1,0,125,2.13ZM56.26,181.67a1,1,0,1,1,.87-1.08A1,1,0,0,1,56.26,181.67Zm33.19,13.16A1.63,1.63,0,1,1,90.9,193,1.64,1.64,0,0,1,89.45,194.83Z" transform="translate(-1.99 -2.13)"/></svg>