<svg xmlns="http://www.w3.org/2000/svg" xmlns:xlink="http://www.w3.org/1999/xlink" viewBox="0 0 400 300"><defs><style>.b8989ced-e583-4b16-8b47-57ef710075ee{fill:none;}.aa7a751b-5141-4caa-838d-91f99a083672{isolation:isolate;}.ee06037a-1df1-4613-9f73-f22ba797ae19{fill:url(#a25ede97-3b03-427e-83a7-061b7c119dbf);}.e587929b-f86a-4b24-ba5f-02ce455fe72c{fill:#29285c;}.ef2dbc45-c6f6-4cdd-9ddf-0dbba88a2ba7{fill:#39285a;}.a324a2a7-49db-4e62-b533-3a13c031e15a{fill:#111833;}.a1cb03eb-028b-48d0-9b13-7943cd3a144e{fill:#84725c;}.bb5a91ba-7a9c-44a9-9c55-1bc26bbf7c0c{fill:#765c7e;}.e8077a97-fdd3-4d16-976b-fafb799acfbd{fill:#f2dec7;}.eac2a9ef-8089-4fc7-9c15-f86e78768d02{fill:#dcb993;}.f753564e-17f1-4875-aa05-9ff8b3645180{opacity:0.51;}.f07e638b-6f97-4813-a3ae-195b2a4caec4{fill:#fae1c8;}.a8b08fee-71b1-46fb-96d6-00d2a7d976ba{fill:url(#ab65be64-e4a2-4354-b71b-8f1c48e08934);}.e88479cf-c5ba-4d5c-83f6-9e62c1921638{opacity:0.5;}.e88479cf-c5ba-4d5c-83f6-9e62c1921638,.fcaa09eb-855e-4e78-be87-aae2ac4e58b8{mix-blend-mode:multiply;}.ecb78b8a-880e-4945-a0d5-979416c2c1a6{clip-path:url(#ec45c8c3-d941-4902-99e6-f3320c3d9445);}.e365c041-d044-4087-902b-6d7fae68dd99{fill:#d16111;}.fcaa09eb-855e-4e78-be87-aae2ac4e58b8{opacity:0.2;}.b68dbc74-556e-46cb-a923-ec7d4f4addf7{fill:#222226;}.a49f3948-be35-425f-8793-38993fc9e0a2{opacity:0.39;mix-blend-mode:overlay;}.ebbfb1b2-8270-4223-be3d-518b87939c54{fill:#fff;}</style><radialGradient id="a25ede97-3b03-427e-83a7-061b7c119dbf" cx="200" cy="150" r="250" gradientTransform="translate(40 60) scale(0.8 0.6)" gradientUnits="userSpaceOnUse"><stop offset="0" stop-color="#03384a"/><stop offset="1" stop-color="#010f1e"/></radialGradient><linearGradient id="ab65be64-e4a2-4354-b71b-8f1c48e08934" x1="81.53" y1="150" x2="318.47" y2="150" gradientTransform="translate(39.81 -41.94) rotate(13.28)" gradientUnits="userSpaceOnUse"><stop offset="0" stop-color="#ffa000"/><stop offset="1" stop-color="#ff3d00"/></linearGradient><clipPath id="ec45c8c3-d941-4902-99e6-f3320c3d9445"><circle class="b8989ced-e583-4b16-8b47-57ef710075ee" cx="200" cy="150" r="118.47" transform="translate(-29.11 49.96) rotate(-13.28)"/></clipPath></defs><g class="aa7a751b-5141-4caa-838d-91f99a083672"><g id="bd60b5ee-ca1f-4f5f-babb-6ea91f2ef6b6" data-name="OBJECTS"><rect class="ee06037a-1df1-4613-9f73-f22ba797ae19" width="400" height="300"/><path class="e587929b-f86a-4b24-ba5f-02ce455fe72c" d="M235.76,34.6a1.47,1.47,0,1,1,1.46-1.46A1.46,1.46,0,0,1,235.76,34.6Z"/><path class="e587929b-f86a-4b24-ba5f-02ce455fe72c" d="M26.48,62.53A1.47,1.47,0,1,1,28,61.06,1.46,1.46,0,0,1,26.48,62.53Z"/><path class="e587929b-f86a-4b24-ba5f-02ce455fe72c" d="M335.77,62.53a1.47,1.47,0,1,1,1.47-1.47A1.46,1.46,0,0,1,335.77,62.53Z"/><path class="e587929b-f86a-4b24-ba5f-02ce455fe72c" d="M204.27,276.73a1.47,1.47,0,1,1,1.46-1.46A1.46,1.46,0,0,1,204.27,276.73Z"/><path class="e587929b-f86a-4b24-ba5f-02ce455fe72c" d="M36.3,255.72a1.47,1.47,0,1,1,1.46-1.47A1.47,1.47,0,0,1,36.3,255.72Z"/><path class="e587929b-f86a-4b24-ba5f-02ce455fe72c" d="M235.76,115.91a4.25,4.25,0,1,1,4.24-4.25A4.25,4.25,0,0,1,235.76,115.91Z"/><path class="e587929b-f86a-4b24-ba5f-02ce455fe72c" d="M40.19,284.34a4.25,4.25,0,1,1,4.24-4.25A4.24,4.24,0,0,1,40.19,284.34Z"/><path class="e587929b-f86a-4b24-ba5f-02ce455fe72c" d="M392.79,167.17a4.25,4.25,0,1,1,4.25-4.25A4.24,4.24,0,0,1,392.79,167.17Z"/><circle class="e587929b-f86a-4b24-ba5f-02ce455fe72c" cx="123.77" cy="118.31" r="4.24"/><path class="e587929b-f86a-4b24-ba5f-02ce455fe72c" d="M19.26,204.66a4.25,4.25,0,1,1,4.25-4.25A4.24,4.24,0,0,1,19.26,204.66Z"/><circle class="e587929b-f86a-4b24-ba5f-02ce455fe72c" cx="328.15" cy="187.39" r="8.02" transform="translate(70.11 463.46) rotate(-76.66)"/><circle class="e587929b-f86a-4b24-ba5f-02ce455fe72c" cx="221.27" cy="159.48" r="6.84" transform="translate(28.41 352.34) rotate(-80.78)"/><circle class="ef2dbc45-c6f6-4cdd-9ddf-0dbba88a2ba7" cx="210.97" cy="263.55" r="6.84" transform="translate(-124.57 226.37) rotate(-45)"/><path class="ef2dbc45-c6f6-4cdd-9ddf-0dbba88a2ba7" d="M369.47,272.37a3.42,3.42,0,1,1,3.42-3.42A3.42,3.42,0,0,1,369.47,272.37Z"/><circle class="ef2dbc45-c6f6-4cdd-9ddf-0dbba88a2ba7" cx="388.1" cy="45.37" r="6.84" transform="translate(337.17 432.78) rotate(-89.18)"/><circle class="ef2dbc45-c6f6-4cdd-9ddf-0dbba88a2ba7" cx="264.67" cy="224.96" r="2.3"/><path class="ef2dbc45-c6f6-4cdd-9ddf-0dbba88a2ba7" d="M75.28,144.94a2.3,2.3,0,1,1,2.3-2.3A2.3,2.3,0,0,1,75.28,144.94Z"/><circle class="ef2dbc45-c6f6-4cdd-9ddf-0dbba88a2ba7" cx="61.4" cy="186.56" r="2.3"/><path class="a324a2a7-49db-4e62-b533-3a13c031e15a" d="M369.39,17.55a3.28,3.28,0,0,0,1-2.2A4.52,4.52,0,0,0,368,11.18a3.56,3.56,0,0,0-2.5-.69,3.42,3.42,0,0,0-2.3,5.38,6.32,6.32,0,0,0,.93,1.2,8,8,0,0,0,.93.79,3.89,3.89,0,0,0,2.1.53A3.35,3.35,0,0,0,369.39,17.55Z"/><path class="a324a2a7-49db-4e62-b533-3a13c031e15a" d="M330.8,11.22a2.73,2.73,0,0,0,1.56-.75,1.94,1.94,0,0,0,.6-.81,2.69,2.69,0,0,0,.21-1.34A3.83,3.83,0,0,0,332,6.13l-.49-.31a2.36,2.36,0,0,0-1.77-.06,2.54,2.54,0,0,0-1.26,1.18,2.82,2.82,0,0,0-.57,1.9A2.7,2.7,0,0,0,330.8,11.22Z"/><path class="a324a2a7-49db-4e62-b533-3a13c031e15a" d="M318.47,50.78c0-5.48-8.52-5.71-8.52-.21S318.47,56.27,318.47,50.78Z"/><path class="a324a2a7-49db-4e62-b533-3a13c031e15a" d="M369.77,111.64a1.44,1.44,0,0,0-2.88,0A1.44,1.44,0,0,0,369.77,111.64Z"/><path class="a324a2a7-49db-4e62-b533-3a13c031e15a" d="M249.36,25.73Z"/><path class="a324a2a7-49db-4e62-b533-3a13c031e15a" d="M249.44,25.82h0l-.08-.09Z"/><path class="a324a2a7-49db-4e62-b533-3a13c031e15a" d="M253.08,26.41a2.22,2.22,0,0,0-.07-3.09l-.93-.75a2.05,2.05,0,0,0-1.62-.25,2.2,2.2,0,0,0-1.12.72,2.14,2.14,0,0,0,.1,2.78l.16.2c.14.15.27.31.4.46A2.19,2.19,0,0,0,253.08,26.41Z"/><path class="a324a2a7-49db-4e62-b533-3a13c031e15a" d="M346,223.46c0-2.15-3.35-2.42-3.35-.25S346,225.62,346,223.46Z"/><path class="a324a2a7-49db-4e62-b533-3a13c031e15a" d="M345.18,98c0-1.15-1.8-1.39-1.8-.22S345.18,99.19,345.18,98Z"/><path class="a324a2a7-49db-4e62-b533-3a13c031e15a" d="M210.22,144a6.65,6.65,0,0,0,4.4-2.49l.87-1.46a6.55,6.55,0,0,0,.48-3.42,5,5,0,0,0-.87-2.45,5,5,0,0,0-1.62-1.95,5,5,0,0,0-2.28-1.1,5.09,5.09,0,0,0-2.6-.25,6.71,6.71,0,0,0-4.4,2.5l-.86,1.45a6.58,6.58,0,0,0-.49,3.42,5,5,0,0,0,.88,2.46,6,6,0,0,0,3.9,3A4.94,4.94,0,0,0,210.22,144Z"/><path class="a324a2a7-49db-4e62-b533-3a13c031e15a" d="M251.49,196.91a6.69,6.69,0,0,0,4.4-2.49l.87-1.46a6.58,6.58,0,0,0,.48-3.42,6.78,6.78,0,0,0-7.37-5.75,6.7,6.7,0,0,0-4.4,2.49l-.86,1.46a6.55,6.55,0,0,0-.49,3.42,5,5,0,0,0,.88,2.46,4.89,4.89,0,0,0,1.62,1.94,7.26,7.26,0,0,0,4.87,1.35Z"/><path class="a324a2a7-49db-4e62-b533-3a13c031e15a" d="M245.9,88.61c0-1.63-2.53-1.92-2.53-.28S245.9,90.25,245.9,88.61Z"/><path class="a324a2a7-49db-4e62-b533-3a13c031e15a" d="M259.33,279.27a5.14,5.14,0,0,0,1.47-3.47,5.2,5.2,0,0,0-1.46-3.6,5.14,5.14,0,0,0-3.47-1.47,5.07,5.07,0,0,0-3.6,1.46,5,5,0,0,0,0,7.07,5,5,0,0,0,7.07,0Z"/><path class="a324a2a7-49db-4e62-b533-3a13c031e15a" d="M374.71,182.05a6.22,6.22,0,0,0,3-.91,8.3,8.3,0,0,0,3.91-4.93c.1-.72.21-1.45.31-2.18a7.84,7.84,0,0,0-.33-2.32c.05.07.05,0,0-.25a3.58,3.58,0,0,0-.18-.64,16.8,16.8,0,0,0-1.08-2.25,7.92,7.92,0,0,0-1.64-1.9l-1.82-1.17a8.78,8.78,0,0,0-3.62-.82,8,8,0,0,0-7.34,3.07l-.66.93c-.33.61-.66,1.22-1,1.83l-.45,2,.06,2A5.73,5.73,0,0,0,365,177.2a3.8,3.8,0,0,0,1.27,1.57,3.89,3.89,0,0,0,1.66,1.2,3.66,3.66,0,0,0,.89.48,6.13,6.13,0,0,0,2.68,1.41A6.23,6.23,0,0,0,374.71,182.05Z"/><path class="a324a2a7-49db-4e62-b533-3a13c031e15a" d="M310.75,199.22c0-3.29-5.1-3.15-5.1.13S310.75,202.49,310.75,199.22Z"/><path class="a324a2a7-49db-4e62-b533-3a13c031e15a" d="M251.26,197.65a4.58,4.58,0,0,0,1.52-1.21,3.86,3.86,0,0,0,.72-2.68,3.39,3.39,0,0,0,.28-.71,3.7,3.7,0,0,0,.13-1.38,2.47,2.47,0,0,0-.11-1.86l-.38.11c0-.08-.06-.17-.1-.26V190l-8.05,2.28a4.7,4.7,0,0,0,.32,2.4,5.1,5.1,0,0,0,1.18,1.92,4.26,4.26,0,0,0,2.1,1.29A3.55,3.55,0,0,0,251.26,197.65Z"/><path class="a324a2a7-49db-4e62-b533-3a13c031e15a" d="M217.19,95.43a4.44,4.44,0,0,0,1.51-1.21,3.87,3.87,0,0,0,.73-2.68,3.75,3.75,0,0,0,.28-.71,3.7,3.7,0,0,0,.13-1.38,2.47,2.47,0,0,0-.11-1.86l-.38.11c0-.08-.07-.17-.1-.26l0,.29-8,2.28a4.6,4.6,0,0,0,.32,2.4,4.86,4.86,0,0,0,1.18,1.92,4.28,4.28,0,0,0,2.09,1.29A3.57,3.57,0,0,0,217.19,95.43Z"/><path class="a324a2a7-49db-4e62-b533-3a13c031e15a" d="M317.45,126.37c0-6-9.26-6.18-9.26-.21S317.45,132.34,317.45,126.37Z"/><path class="a324a2a7-49db-4e62-b533-3a13c031e15a" d="M335.4,101.38a2.16,2.16,0,0,0-.66-1.64,2.13,2.13,0,0,0-1.91-.68l-1.51.74a1.85,1.85,0,0,0-.85,1.36,1.69,1.69,0,0,0,.51,1.49,2,2,0,0,0,1.34.9l.45.1A2.31,2.31,0,0,0,335.4,101.38Z"/><path class="a324a2a7-49db-4e62-b533-3a13c031e15a" d="M320.93,176.5c0-5.31-8.28-6.18-8.28-.82S320.93,181.86,320.93,176.5Z"/><path class="a324a2a7-49db-4e62-b533-3a13c031e15a" d="M149.29,285.47c0-4.41-6.89-5-6.89-.58S149.29,289.94,149.29,285.47Z"/><path class="a324a2a7-49db-4e62-b533-3a13c031e15a" d="M158.54,195.66c0-4.42-6.88-5-6.88-.59S158.54,200.12,158.54,195.66Z"/><path class="a324a2a7-49db-4e62-b533-3a13c031e15a" d="M160.4,89.07a8.34,8.34,0,0,0,2.69-3.33,8.55,8.55,0,0,0,.67-4.41c-.69-3.39-2.33-5.62-4.91-6.66a9.34,9.34,0,0,0-3.72-.76,6,6,0,0,0-3.09.42,6.14,6.14,0,0,0-2.74,1.43l-1.43,1.54a6.22,6.22,0,0,0-1.24,3,4,4,0,0,0-.18,2.12,6.21,6.21,0,0,0,.69,3,8.77,8.77,0,0,0,4.58,4.19L152,90A8.34,8.34,0,0,0,160.4,89.07Z"/><path class="a324a2a7-49db-4e62-b533-3a13c031e15a" d="M128.94,147.54a9,9,0,0,0,1.64,0,8.66,8.66,0,0,0,7.44-4.95c.21-.72.42-1.44.62-2.16a8.28,8.28,0,0,0-.51-4.35l-1-1.88a9.24,9.24,0,0,0-1.33-1.39c.07,0,0,0-.17-.15l0,0h0a8.12,8.12,0,0,0-1.54-1l-.34-.18a4.37,4.37,0,0,0-2.32-.67,8.81,8.81,0,0,0-4.66.59,6.27,6.27,0,0,0-2.61,1.86,6.39,6.39,0,0,0-1.86,2.65,6.46,6.46,0,0,0-.56,3.32,6.28,6.28,0,0,0,.6,3.23,8.52,8.52,0,0,0,4.51,4.46l.85.23a7.13,7.13,0,0,0,1.1.29Z"/><path class="a324a2a7-49db-4e62-b533-3a13c031e15a" d="M51,235.94a8.2,8.2,0,0,0,1.64,0,6.18,6.18,0,0,0,2.89-.54,6.33,6.33,0,0,0,2.65-1.8A6.35,6.35,0,0,0,60,231c.21-.72.41-1.44.62-2.16a8.32,8.32,0,0,0-.51-4.36l-1-1.87a8.86,8.86,0,0,0-1.33-1.4c.06,0,0,0-.17-.15l0,0h0a8.61,8.61,0,0,0-1.54-.95l-.35-.19a4.28,4.28,0,0,0-2.31-.67,8.81,8.81,0,0,0-4.66.6,6.43,6.43,0,0,0-2.62,1.85,7.56,7.56,0,0,0-2.41,6,6.26,6.26,0,0,0,.6,3.23,8.48,8.48,0,0,0,4.51,4.46l.85.23a6.15,6.15,0,0,0,1.1.29Z"/><path class="a324a2a7-49db-4e62-b533-3a13c031e15a" d="M212.42,52.35A5.19,5.19,0,0,0,216,50.5l.7-1.13a5.16,5.16,0,0,0,.45-2.57,4,4,0,0,0-.6-1.91,4,4,0,0,0-1.26-1.62A5.13,5.13,0,0,0,208,44l-.7,1.12a5.18,5.18,0,0,0-.45,2.57,3.85,3.85,0,0,0,.61,1.91,3.75,3.75,0,0,0,1.25,1.62A5.2,5.2,0,0,0,212.42,52.35Z"/><path class="a324a2a7-49db-4e62-b533-3a13c031e15a" d="M171.28,47.67a5.2,5.2,0,0,0,3.53-1.86c.24-.37.47-.75.71-1.13a5,5,0,0,0,.44-2.56,3.81,3.81,0,0,0-.6-1.92,3.86,3.86,0,0,0-1.25-1.62,5.13,5.13,0,0,0-7.23.71l-.7,1.13a5.12,5.12,0,0,0-.45,2.56,3.81,3.81,0,0,0,.6,1.92,4,4,0,0,0,1.26,1.62A5.25,5.25,0,0,0,171.28,47.67Z"/><path class="a324a2a7-49db-4e62-b533-3a13c031e15a" d="M100.26,41.86a3.52,3.52,0,0,0,1.06-1.51,4.71,4.71,0,0,0,.35-2.43c.07.69.1.83.11.41a5,5,0,0,0-1.21-3.62,4.91,4.91,0,0,0-6.93-.44l-.84,1A4.88,4.88,0,0,0,92,37.59a7.8,7.8,0,0,0,.44,2.7c.21.37.42.75.64,1.12a4.63,4.63,0,0,0,3.76,1.85A4.58,4.58,0,0,0,100.26,41.86Z"/><path class="a324a2a7-49db-4e62-b533-3a13c031e15a" d="M26.25,92.18c0-4.18-6.48-4.07-6.48.1S26.25,96.36,26.25,92.18Z"/><path class="a324a2a7-49db-4e62-b533-3a13c031e15a" d="M66.67,109.78c0-4.24-6.57-3.9-6.57.33S66.67,114,66.67,109.78Z"/><path class="a324a2a7-49db-4e62-b533-3a13c031e15a" d="M220.75,223a5.28,5.28,0,0,0,4.58-3.67,11.67,11.67,0,0,0,.36-1.32,6.57,6.57,0,0,0-.06-2.46,7.47,7.47,0,0,0-3.78-4.94,7.94,7.94,0,0,0-7,.46,7,7,0,0,0-2.92,7.71c.54,2.42,2.56,4.89,5.1,5.31A4.08,4.08,0,0,0,220.75,223Z"/><path class="a324a2a7-49db-4e62-b533-3a13c031e15a" d="M392.77,252.55a6.32,6.32,0,0,0,4.17-2.09c.29-.45.59-.89.89-1.34a6.18,6.18,0,0,0,.62-3.22,4.55,4.55,0,0,0-.69-2.28,4.64,4.64,0,0,0-1.4-1.89,4.51,4.51,0,0,0-2.12-1.15,4.61,4.61,0,0,0-2.44-.36,6.23,6.23,0,0,0-4.16,2.09c-.3.44-.6.88-.89,1.33a6.19,6.19,0,0,0-.63,3.22,6.92,6.92,0,0,0,2.09,4.17,4.66,4.66,0,0,0,2.12,1.16A4.83,4.83,0,0,0,392.77,252.55Z"/><path class="a324a2a7-49db-4e62-b533-3a13c031e15a" d="M344.94,261.63c0-5.24-8.2-6.31-8.2-1S344.94,266.94,344.94,261.63Z"/><path class="a324a2a7-49db-4e62-b533-3a13c031e15a" d="M384.08,73.92a7.5,7.5,0,0,0,.1-10.61,8.4,8.4,0,0,0-5.28-2.25,7.59,7.59,0,0,0-5.33,2.15,7.5,7.5,0,0,0-.1,10.61A5.6,5.6,0,0,0,376,75.43a5.49,5.49,0,0,0,2.79.64A7.51,7.51,0,0,0,384.08,73.92Z"/><path class="a324a2a7-49db-4e62-b533-3a13c031e15a" d="M127.63,249.88c0-4.2-6.51-4-6.51.16S127.63,254.07,127.63,249.88Z"/><path class="a324a2a7-49db-4e62-b533-3a13c031e15a" d="M12.54,46.36a3.53,3.53,0,0,0,2.22-1.48,3.39,3.39,0,0,0,.53-2.58,3.39,3.39,0,0,0-.13-1.24,3.31,3.31,0,0,0-1.55-2A2.92,2.92,0,0,0,11,38.88l-.71.4a3,3,0,0,0-1,1.24c.56-1.17.58-1.43.06-.77a2.68,2.68,0,0,0-.75,1.17A8,8,0,0,0,8.36,42a4.11,4.11,0,0,0,.07,1.6,3.7,3.7,0,0,0,1.49,2.22A3.56,3.56,0,0,0,12.54,46.36Z"/><path class="a324a2a7-49db-4e62-b533-3a13c031e15a" d="M51.74,39.85A2.48,2.48,0,0,0,51,38.79,3.42,3.42,0,0,0,49.55,38h0a3,3,0,0,0-4,3.82Q53.51,43.16,51.74,39.85Z"/><path class="a324a2a7-49db-4e62-b533-3a13c031e15a" d="M11.72,159.74A8.08,8.08,0,0,0,17,156.86L18.16,155a8,8,0,0,0,.64-4.15,6,6,0,0,0-1-2.89,6.08,6.08,0,0,0-1.91-2.42,6.09,6.09,0,0,0-2.87-1.43,6,6,0,0,0-3.11-.34,8.08,8.08,0,0,0-5.31,2.88L3.5,148.51a8,8,0,0,0-.64,4.15,6.11,6.11,0,0,0,1,2.89A6.08,6.08,0,0,0,5.74,158a6,6,0,0,0,2.87,1.43A6,6,0,0,0,11.72,159.74Z"/><path class="a324a2a7-49db-4e62-b533-3a13c031e15a" d="M45.82,162.47a2.28,2.28,0,0,0,.91-1.46,2.24,2.24,0,0,0-.4-1.72c-.13-.15-.26-.29-.4-.43a2.28,2.28,0,0,0-1.06-.48l-2,.41a2.06,2.06,0,0,0,.23,3.77c.32.11.65.22,1,.31A2.24,2.24,0,0,0,45.82,162.47Z"/><path class="a324a2a7-49db-4e62-b533-3a13c031e15a" d="M104.16,217.43l1.14-.23.62-.31a2,2,0,0,0,.69-.73,2.55,2.55,0,0,0,.43-1.59,2.65,2.65,0,0,0-2.09-2.38l-.89-.15a2.72,2.72,0,1,0,.1,5.39Z"/><path class="a324a2a7-49db-4e62-b533-3a13c031e15a" d="M95.49,181.55a2.29,2.29,0,0,0,1.21-.76A4.23,4.23,0,0,0,97.88,178a4,4,0,0,0-1.12-2.75,4.08,4.08,0,0,0-4.46-.79l-.3.13-.13.09-.12.08a5.19,5.19,0,0,0-.46.36l-.09.07h0a.81.81,0,0,0-.14.12,4.67,4.67,0,0,0-1.24,3.18,4,4,0,0,0,2.84,4A2.47,2.47,0,0,0,95.49,181.55Z"/><path class="a324a2a7-49db-4e62-b533-3a13c031e15a" d="M68.11,274.32a4.09,4.09,0,0,0,1.49-2.82,4.47,4.47,0,0,0-.95-3.05A4.21,4.21,0,0,0,65.83,267a4.25,4.25,0,0,0-3,.94,4.1,4.1,0,0,0-1.48,2.82,4.46,4.46,0,0,0,.94,3,4.21,4.21,0,0,0,2.82,1.49A4.25,4.25,0,0,0,68.11,274.32Z"/><path class="a324a2a7-49db-4e62-b533-3a13c031e15a" d="M301.5,258.73a7.75,7.75,0,0,0,5.14-2.84c.35-.59.7-1.18,1.06-1.77a7.69,7.69,0,0,0,.56-3.88,8.46,8.46,0,0,0-2.84-5.13,8.5,8.5,0,0,0-5.64-1.63,7.72,7.72,0,0,0-5.14,2.85l-1.05,1.76A7.6,7.6,0,0,0,293,252a5.8,5.8,0,0,0,.94,2.78,5.88,5.88,0,0,0,1.9,2.36,5.81,5.81,0,0,0,2.73,1.32A5.74,5.74,0,0,0,301.5,258.73Z"/><path class="a324a2a7-49db-4e62-b533-3a13c031e15a" d="M215,99.85A7.67,7.67,0,0,0,220.13,97c.35-.59.7-1.18,1.06-1.76a7.7,7.7,0,0,0,.56-3.88,5.7,5.7,0,0,0-.94-2.78,5.88,5.88,0,0,0-1.9-2.36,5.73,5.73,0,0,0-2.72-1.32,5.79,5.79,0,0,0-2.92-.3,7.75,7.75,0,0,0-5.14,2.84l-1.06,1.77a7.65,7.65,0,0,0-.56,3.87,8.52,8.52,0,0,0,2.84,5.14,5.84,5.84,0,0,0,2.72,1.33A5.68,5.68,0,0,0,215,99.85Z"/><path class="a324a2a7-49db-4e62-b533-3a13c031e15a" d="M174.94,42.66a3.92,3.92,0,0,0-1.24-2.48l.05.09a2.58,2.58,0,0,0-.32-.34,4,4,0,0,0-5.69.34,4.46,4.46,0,0,0-1,3L174,45.37A3.66,3.66,0,0,0,174.94,42.66Z"/><path class="a1cb03eb-028b-48d0-9b13-7943cd3a144e" d="M209.91,7.65a1.22,1.22,0,1,1,0-2.43,1.22,1.22,0,0,1,0,2.43Z"/><path class="a1cb03eb-028b-48d0-9b13-7943cd3a144e" d="M179.86,208.2a1.22,1.22,0,0,1,0-2.43,1.22,1.22,0,1,1,0,2.43Z"/><path class="a1cb03eb-028b-48d0-9b13-7943cd3a144e" d="M310.75,165.85a1.22,1.22,0,1,1,1.21-1.21A1.21,1.21,0,0,1,310.75,165.85Z"/><circle class="bb5a91ba-7a9c-44a9-9c55-1bc26bbf7c0c" cx="197.69" cy="36.59" r="3.45"/><path class="bb5a91ba-7a9c-44a9-9c55-1bc26bbf7c0c" d="M41.76,140.89a3.46,3.46,0,1,1,3.46-3.46A3.46,3.46,0,0,1,41.76,140.89Z"/><path class="a1cb03eb-028b-48d0-9b13-7943cd3a144e" d="M279.32,90.62a6.08,6.08,0,1,1,6.07-6.08A6.08,6.08,0,0,1,279.32,90.62Z"/><path class="bb5a91ba-7a9c-44a9-9c55-1bc26bbf7c0c" d="M96.89,77.32a3.46,3.46,0,1,1,3.45-3.46A3.45,3.45,0,0,1,96.89,77.32Z"/><path class="a1cb03eb-028b-48d0-9b13-7943cd3a144e" d="M209.91,209.61a1.21,1.21,0,1,1,1.21-1.21A1.22,1.22,0,0,1,209.91,209.61Z"/><path class="a1cb03eb-028b-48d0-9b13-7943cd3a144e" d="M378.66,201.63a1.22,1.22,0,1,1,0-2.43,1.22,1.22,0,0,1,0,2.43Z"/><path class="a1cb03eb-028b-48d0-9b13-7943cd3a144e" d="M355.42,160.22a1.22,1.22,0,1,1,1.21-1.21A1.21,1.21,0,0,1,355.42,160.22Z"/><circle class="a1cb03eb-028b-48d0-9b13-7943cd3a144e" cx="197.69" cy="238.56" r="3.45"/><path class="a1cb03eb-028b-48d0-9b13-7943cd3a144e" d="M328.15,230.09a3.46,3.46,0,1,1,3.45-3.46A3.46,3.46,0,0,1,328.15,230.09Z"/><path class="bb5a91ba-7a9c-44a9-9c55-1bc26bbf7c0c" d="M279.32,292.58a6.08,6.08,0,1,1,6.07-6.07A6.08,6.08,0,0,1,279.32,292.58Z"/><path class="bb5a91ba-7a9c-44a9-9c55-1bc26bbf7c0c" d="M96.89,279.28a3.46,3.46,0,1,1,3.45-3.45A3.45,3.45,0,0,1,96.89,279.28Z"/><circle class="bb5a91ba-7a9c-44a9-9c55-1bc26bbf7c0c" cx="13.78" cy="235.1" r="3.45"/><circle class="bb5a91ba-7a9c-44a9-9c55-1bc26bbf7c0c" cx="127.88" cy="233.14" r="9.66"/><circle class="e8077a97-fdd3-4d16-976b-fafb799acfbd" cx="255.84" cy="140.57" r="6.07"/><path class="eac2a9ef-8089-4fc7-9c15-f86e78768d02" d="M191.85,12.4a4.75,4.75,0,0,1,4.75-4.75,4.75,4.75,0,0,1-4.75-4.76,4.76,4.76,0,0,1-4.76,4.76A4.76,4.76,0,0,1,191.85,12.4Z"/><path class="eac2a9ef-8089-4fc7-9c15-f86e78768d02" d="M392.79,96.35a4.76,4.76,0,0,1,4.76-4.76,4.76,4.76,0,0,1-4.76-4.75A4.75,4.75,0,0,1,388,91.59,4.75,4.75,0,0,1,392.79,96.35Z"/><path class="e8077a97-fdd3-4d16-976b-fafb799acfbd" d="M166.74,167.68a4.76,4.76,0,0,1,4.76-4.76,4.76,4.76,0,0,1-4.76-4.75,4.75,4.75,0,0,1-4.75,4.75A4.76,4.76,0,0,1,166.74,167.68Z"/><circle class="e8077a97-fdd3-4d16-976b-fafb799acfbd" cx="52.06" cy="82.29" r="4.75"/><path class="e8077a97-fdd3-4d16-976b-fafb799acfbd" d="M291.41,23.93a4.76,4.76,0,0,1,4.76-4.75,4.76,4.76,0,0,1-4.76-4.76,4.76,4.76,0,0,1-4.75,4.76A4.75,4.75,0,0,1,291.41,23.93Z"/><g class="f753564e-17f1-4875-aa05-9ff8b3645180"><circle class="f07e638b-6f97-4813-a3ae-195b2a4caec4" cx="83.32" cy="8.79" r="6.29" transform="translate(18.19 61.49) rotate(-45)"/></g></g><g id="fa5d9c42-41b8-4e1f-9ae5-26efc15c7bba" data-name="Mars"><circle class="a8b08fee-71b1-46fb-96d6-00d2a7d976ba" cx="200" cy="150" r="118.47" transform="translate(-29.11 49.96) rotate(-13.28)"/><g class="e88479cf-c5ba-4d5c-83f6-9e62c1921638"><g class="ecb78b8a-880e-4945-a0d5-979416c2c1a6"><path class="e365c041-d044-4087-902b-6d7fae68dd99" d="M108.88,72.77c-2,8.68-1,20.39,7.54,23,4.68,1.43,9.67-.73,13.84-3.31,11.08-6.86,20-16.87,31.16-23.53s26.64-9.22,36.62-.85c11.07,9.3,9.81,27,3.87,40.16-4.55,10.09-11.3,19.5-12.8,30.47a31.22,31.22,0,0,0,7.63,25.18c6.17,6.64,15.8,10.06,24.68,8.24,6.74-1.37,12.6-5.47,17.93-9.82A155.82,155.82,0,0,0,267,133c14.41-19.91,26.68-45.24,50.5-51.27,15.3-3.87,32.4,2.28,42.52,14.39s13.23,29.42,8.95,44.6c-1.36,4.86-3.52,9.65-7.25,13-4,3.66-9.42,5.33-14.67,6.7-19.81,5.17-40.55,7.75-59,16.72-6.82,3.32-13.74,8.18-15.64,15.52-1.81,7,1.5,14.29,4.83,20.74,3.46,6.72,7.33,13.69,13.76,17.65,12.21,7.52,27.94,1.45,40.89-4.71,23.84-11.33,16.68-22.65,40.52-34,4.7-2.24,9.65-4.69,12.39-9.12,2.26-3.65,2.66-8.11,2.95-12.4C389,153.11,389,135.05,385,117.7s-12.5-34.1-26.1-45.62c-15.08-12.76-4.1-18.11-23.71-20.49s-39.53-2.17-59-5.58c-7.2-1.27-14.51-3.11-20.47-7.35-5.31-3.77-9.18-9.17-13.62-13.93C199.78-20.74,120.85,20.68,108.88,72.77Z"/><path class="e365c041-d044-4087-902b-6d7fae68dd99" d="M284.6,138.94c.53,3.81,3.78,7.34,9.21,8.34a13.89,13.89,0,0,0,4.81.07c9.09-1.51,21.17-6.66,26.53-14.45,4.27-6.21,4.84-15.24.05-21.06a9.61,9.61,0,0,0-5.48-3.53c-4.26-.79-8.25,2.4-10.79,5.91s-4.42,7.64-7.86,10.28c-2.93,2.25-6.65,3.15-10,4.65C286.08,131.36,284.08,135.28,284.6,138.94Z"/><path class="e365c041-d044-4087-902b-6d7fae68dd99" d="M131.3,128.46c-3.28,7-5.72,14.84-4.11,22.4.79,3.72,2.54,7.2,3.2,10.94,1,5.51-.1,12.12,4.05,15.88,2.63,2.39,6.74,2.66,10,1.33a18.38,18.38,0,0,0,7.92-6.94,33.89,33.89,0,0,0,5.87-21.1c-.35-5.73-2.16-11.59-.51-17.09,1.81-6,7.29-10.08,11.8-14.48,8.84-8.63,15.12-33.17-4.88-28.34C150.16,94.56,137.1,116.06,131.3,128.46Z"/><path class="e365c041-d044-4087-902b-6d7fae68dd99" d="M101.65,228.1c5.65-10,12.61-21.55,8.27-32.2-2-5-6.27-8.8-8.07-13.84-3.73-10.5,4.19-21.3,5.94-32.31,1.42-9-1.37-18.12-5.43-26.24-10.44-20.87-34.89-29.46-52.9-11.69-19.71,19.44-17.86,43.89-9.49,68,3.92,11.28,7.9,22.95,7,34.86-.78,10.46-5.25,20.23-8.78,30.11-5.92,16.6,18.1,15.06,34.92,27.61,13.83,10.33,149.11,8.29,167.78,0,17.1-7.61,36.2,1.94,35.21-2.8-3.66-17.51-4.75-30.55-27.74-35.15-13.7-2.75-28.13,11.15-40.68,5-6.12-3-9.21-9.77-12.48-15.76-8-14.7-26.2-26.15-43.29-19.17-24.62,10.05-12.25,34.95-6.41,52.51,5.27,15.87,2,14.73-13.06,22Z"/><path class="e365c041-d044-4087-902b-6d7fae68dd99" d="M248.78,202.6c.59-11.36-22.53-14.56-29.78-10.33-15.44,9-7.71,25.51,8.14,25.35,4.85-.05,9.81-.88,14-3.36S248.53,207.44,248.78,202.6Z"/></g></g><g class="fcaa09eb-855e-4e78-be87-aae2ac4e58b8"><path class="b68dbc74-556e-46cb-a923-ec7d4f4addf7" d="M215.46,253.75a118.34,118.34,0,0,1-88.9-196.6,118.38,118.38,0,1,0,162.34,171A117.86,117.86,0,0,1,215.46,253.75Z"/></g><g class="a49f3948-be35-425f-8793-38993fc9e0a2"><path class="ebbfb1b2-8270-4223-be3d-518b87939c54" d="M200,31.53a117.8,117.8,0,0,0-53.89,13.06A118.37,118.37,0,0,0,290.7,226.15,118.42,118.42,0,0,0,200,31.53Z"/></g></g></g></svg>