<svg xmlns="http://www.w3.org/2000/svg" xmlns:xlink="http://www.w3.org/1999/xlink" viewBox="0 0 400 300"><defs><style>.a85be877-87cc-4d82-a0da-d6dfa473eec8{fill:none;}.aae6f73c-cf33-44c3-8cd0-8a2b97b11a2c{isolation:isolate;}.e5c8ba2e-7df8-4605-9e11-333515f65643{fill:url(#ac5736b6-587a-46b2-b090-4be06cdea8b1);}.abf4ec4a-fd9f-4da1-83e0-eeddee7c2cd2{fill:#29285c;}.a4b392d9-9e3d-41a5-abea-12ff64ba375d{fill:#39285a;}.ba2667c3-2168-489a-b800-2ce42ad429d5{fill:#111833;}.bdff3d87-96f1-4e2c-b42d-e0b929351e1b{fill:#84725c;}.ae018611-6d59-4beb-a908-4335405066f2{fill:#765c7e;}.ef3f5882-bbe1-4773-a799-5bb7531a4622{fill:#f2dec7;}.ac1ed660-fc4e-4a60-a7a1-89121c90421a{fill:#dcb993;}.a91d91ac-bb5b-4293-b915-bcf3cc3181b1{opacity:0.51;}.b0b24741-6203-4eaa-87d7-c1328162e9f5{fill:#fae1c8;}.b163df7d-35e3-4a2d-9b25-0fee68caf3cc{fill:url(#bef11e10-3247-4ddf-8fba-670152cf4059);}.f1cc63be-086e-4754-ac03-1ad2ee69a2fa{opacity:0.11;}.befc78a5-19c6-4d83-a29c-f893ff8f29df,.f02761ec-e5a8-435e-ac70-39cad5e9d73c,.f1cc63be-086e-4754-ac03-1ad2ee69a2fa{mix-blend-mode:multiply;}.acab7a3e-c3cd-44c7-bb8a-a4a87561eb46{clip-path:url(#ac3996ab-ebbe-4416-be8e-b2f4202151bb);}.a1f66dc9-e7cc-480e-bdec-b9a46c6de312,.f02761ec-e5a8-435e-ac70-39cad5e9d73c{fill:#222221;}.a1f66dc9-e7cc-480e-bdec-b9a46c6de312{opacity:0.7;}.befc78a5-19c6-4d83-a29c-f893ff8f29df{opacity:0.2;}.ff933a6d-7222-4902-8db4-87adcef4b402{fill:#222226;}.bff345d1-290e-4981-a0c4-012305d62b91{opacity:0.3;mix-blend-mode:overlay;}.b58fd97b-05a4-441b-9b06-886dda5d711a{fill:#fff;}</style><radialGradient id="ac5736b6-587a-46b2-b090-4be06cdea8b1" cx="200" cy="150" r="250" gradientTransform="translate(40 60) scale(0.8 0.6)" gradientUnits="userSpaceOnUse"><stop offset="0" stop-color="#03384a"/><stop offset="1" stop-color="#010f1e"/></radialGradient><linearGradient id="bef11e10-3247-4ddf-8fba-670152cf4059" x1="99.36" y1="150" x2="300.64" y2="150" gradientUnits="userSpaceOnUse"><stop offset="0" stop-color="#6f88a3"/><stop offset="0.99" stop-color="#49568b"/></linearGradient><clipPath id="ac3996ab-ebbe-4416-be8e-b2f4202151bb"><circle class="a85be877-87cc-4d82-a0da-d6dfa473eec8" cx="200" cy="150" r="100.64"/></clipPath></defs><g class="aae6f73c-cf33-44c3-8cd0-8a2b97b11a2c"><g id="b871d7f5-b7af-43fc-be9a-22a6349664b2" data-name="OBJECTS"><rect class="e5c8ba2e-7df8-4605-9e11-333515f65643" width="400" height="300"/><path class="abf4ec4a-fd9f-4da1-83e0-eeddee7c2cd2" d="M235.76,34.6a1.47,1.47,0,1,1,1.46-1.46A1.46,1.46,0,0,1,235.76,34.6Z"/><path class="abf4ec4a-fd9f-4da1-83e0-eeddee7c2cd2" d="M26.48,62.53A1.47,1.47,0,1,1,28,61.06,1.46,1.46,0,0,1,26.48,62.53Z"/><path class="abf4ec4a-fd9f-4da1-83e0-eeddee7c2cd2" d="M335.77,62.53a1.47,1.47,0,1,1,1.47-1.47A1.46,1.46,0,0,1,335.77,62.53Z"/><path class="abf4ec4a-fd9f-4da1-83e0-eeddee7c2cd2" d="M204.27,276.73a1.47,1.47,0,1,1,1.46-1.46A1.46,1.46,0,0,1,204.27,276.73Z"/><path class="abf4ec4a-fd9f-4da1-83e0-eeddee7c2cd2" d="M36.3,255.72a1.47,1.47,0,1,1,1.46-1.47A1.47,1.47,0,0,1,36.3,255.72Z"/><path class="abf4ec4a-fd9f-4da1-83e0-eeddee7c2cd2" d="M235.76,115.91a4.25,4.25,0,1,1,4.24-4.25A4.25,4.25,0,0,1,235.76,115.91Z"/><path class="abf4ec4a-fd9f-4da1-83e0-eeddee7c2cd2" d="M40.19,284.34a4.25,4.25,0,1,1,4.24-4.25A4.24,4.24,0,0,1,40.19,284.34Z"/><path class="abf4ec4a-fd9f-4da1-83e0-eeddee7c2cd2" d="M392.79,167.17a4.25,4.25,0,1,1,4.25-4.25A4.24,4.24,0,0,1,392.79,167.17Z"/><circle class="abf4ec4a-fd9f-4da1-83e0-eeddee7c2cd2" cx="123.77" cy="118.31" r="4.24"/><path class="abf4ec4a-fd9f-4da1-83e0-eeddee7c2cd2" d="M19.26,204.66a4.25,4.25,0,1,1,4.25-4.25A4.24,4.24,0,0,1,19.26,204.66Z"/><circle class="abf4ec4a-fd9f-4da1-83e0-eeddee7c2cd2" cx="328.15" cy="187.39" r="8.02" transform="translate(70.11 463.46) rotate(-76.66)"/><circle class="abf4ec4a-fd9f-4da1-83e0-eeddee7c2cd2" cx="221.27" cy="159.48" r="6.84" transform="translate(28.41 352.34) rotate(-80.78)"/><circle class="a4b392d9-9e3d-41a5-abea-12ff64ba375d" cx="210.97" cy="263.55" r="6.84" transform="translate(-124.57 226.37) rotate(-45)"/><path class="a4b392d9-9e3d-41a5-abea-12ff64ba375d" d="M369.47,272.37a3.42,3.42,0,1,1,3.42-3.42A3.42,3.42,0,0,1,369.47,272.37Z"/><circle class="a4b392d9-9e3d-41a5-abea-12ff64ba375d" cx="388.1" cy="45.37" r="6.84" transform="translate(337.17 432.78) rotate(-89.18)"/><circle class="a4b392d9-9e3d-41a5-abea-12ff64ba375d" cx="264.67" cy="224.96" r="2.3"/><path class="a4b392d9-9e3d-41a5-abea-12ff64ba375d" d="M75.28,144.94a2.3,2.3,0,1,1,2.3-2.3A2.3,2.3,0,0,1,75.28,144.94Z"/><circle class="a4b392d9-9e3d-41a5-abea-12ff64ba375d" cx="61.4" cy="186.56" r="2.3"/><path class="ba2667c3-2168-489a-b800-2ce42ad429d5" d="M369.39,17.55a3.28,3.28,0,0,0,1-2.2A4.52,4.52,0,0,0,368,11.18a3.56,3.56,0,0,0-2.5-.69,3.42,3.42,0,0,0-2.3,5.38,6.32,6.32,0,0,0,.93,1.2,8,8,0,0,0,.93.79,3.89,3.89,0,0,0,2.1.53A3.35,3.35,0,0,0,369.39,17.55Z"/><path class="ba2667c3-2168-489a-b800-2ce42ad429d5" d="M330.8,11.22a2.73,2.73,0,0,0,1.56-.75,1.94,1.94,0,0,0,.6-.81,2.69,2.69,0,0,0,.21-1.34A3.83,3.83,0,0,0,332,6.13l-.49-.31a2.36,2.36,0,0,0-1.77-.06,2.54,2.54,0,0,0-1.26,1.18,2.82,2.82,0,0,0-.57,1.9A2.7,2.7,0,0,0,330.8,11.22Z"/><path class="ba2667c3-2168-489a-b800-2ce42ad429d5" d="M318.47,50.78c0-5.48-8.52-5.71-8.52-.21S318.47,56.27,318.47,50.78Z"/><path class="ba2667c3-2168-489a-b800-2ce42ad429d5" d="M369.77,111.64a1.44,1.44,0,0,0-2.88,0A1.44,1.44,0,0,0,369.77,111.64Z"/><path class="ba2667c3-2168-489a-b800-2ce42ad429d5" d="M249.36,25.73Z"/><path class="ba2667c3-2168-489a-b800-2ce42ad429d5" d="M249.44,25.82h0l-.08-.09Z"/><path class="ba2667c3-2168-489a-b800-2ce42ad429d5" d="M253.08,26.41a2.22,2.22,0,0,0-.07-3.09l-.93-.75a2.05,2.05,0,0,0-1.62-.25,2.2,2.2,0,0,0-1.12.72,2.14,2.14,0,0,0,.1,2.78l.16.2c.14.15.27.31.4.46A2.19,2.19,0,0,0,253.08,26.41Z"/><path class="ba2667c3-2168-489a-b800-2ce42ad429d5" d="M346,223.46c0-2.15-3.35-2.42-3.35-.25S346,225.62,346,223.46Z"/><path class="ba2667c3-2168-489a-b800-2ce42ad429d5" d="M345.18,98c0-1.15-1.8-1.39-1.8-.22S345.18,99.19,345.18,98Z"/><path class="ba2667c3-2168-489a-b800-2ce42ad429d5" d="M210.22,144a6.65,6.65,0,0,0,4.4-2.49l.87-1.46a6.55,6.55,0,0,0,.48-3.42,5,5,0,0,0-.87-2.45,5,5,0,0,0-1.62-1.95,5,5,0,0,0-2.28-1.1,5.09,5.09,0,0,0-2.6-.25,6.71,6.71,0,0,0-4.4,2.5l-.86,1.45a6.58,6.58,0,0,0-.49,3.42,5,5,0,0,0,.88,2.46,6,6,0,0,0,3.9,3A4.94,4.94,0,0,0,210.22,144Z"/><path class="ba2667c3-2168-489a-b800-2ce42ad429d5" d="M251.49,196.91a6.69,6.69,0,0,0,4.4-2.49l.87-1.46a6.58,6.58,0,0,0,.48-3.42,6.78,6.78,0,0,0-7.37-5.75,6.7,6.7,0,0,0-4.4,2.49l-.86,1.46a6.55,6.55,0,0,0-.49,3.42,5,5,0,0,0,.88,2.46,4.89,4.89,0,0,0,1.62,1.94,7.26,7.26,0,0,0,4.87,1.35Z"/><path class="ba2667c3-2168-489a-b800-2ce42ad429d5" d="M245.9,88.61c0-1.63-2.53-1.92-2.53-.28S245.9,90.25,245.9,88.61Z"/><path class="ba2667c3-2168-489a-b800-2ce42ad429d5" d="M259.33,279.27a5.14,5.14,0,0,0,1.47-3.47,5.2,5.2,0,0,0-1.46-3.6,5.14,5.14,0,0,0-3.47-1.47,5.07,5.07,0,0,0-3.6,1.46,5,5,0,0,0,0,7.07,5,5,0,0,0,7.07,0Z"/><path class="ba2667c3-2168-489a-b800-2ce42ad429d5" d="M374.71,182.05a6.22,6.22,0,0,0,3-.91,8.3,8.3,0,0,0,3.91-4.93c.1-.72.21-1.45.31-2.18a7.84,7.84,0,0,0-.33-2.32c.05.07.05,0,0-.25a3.58,3.58,0,0,0-.18-.64,16.8,16.8,0,0,0-1.08-2.25,7.92,7.92,0,0,0-1.64-1.9l-1.82-1.17a8.78,8.78,0,0,0-3.62-.82,8,8,0,0,0-7.34,3.07l-.66.93c-.33.61-.66,1.22-1,1.83l-.45,2,.06,2A5.73,5.73,0,0,0,365,177.2a3.8,3.8,0,0,0,1.27,1.57,3.89,3.89,0,0,0,1.66,1.2,3.66,3.66,0,0,0,.89.48,6.13,6.13,0,0,0,2.68,1.41A6.23,6.23,0,0,0,374.71,182.05Z"/><path class="ba2667c3-2168-489a-b800-2ce42ad429d5" d="M310.75,199.22c0-3.29-5.1-3.15-5.1.13S310.75,202.49,310.75,199.22Z"/><path class="ba2667c3-2168-489a-b800-2ce42ad429d5" d="M251.26,197.65a4.58,4.58,0,0,0,1.52-1.21,3.86,3.86,0,0,0,.72-2.68,3.39,3.39,0,0,0,.28-.71,3.7,3.7,0,0,0,.13-1.38,2.47,2.47,0,0,0-.11-1.86l-.38.11c0-.08-.06-.17-.1-.26V190l-8.05,2.28a4.7,4.7,0,0,0,.32,2.4,5.1,5.1,0,0,0,1.18,1.92,4.26,4.26,0,0,0,2.1,1.29A3.55,3.55,0,0,0,251.26,197.65Z"/><path class="ba2667c3-2168-489a-b800-2ce42ad429d5" d="M217.19,95.43a4.44,4.44,0,0,0,1.51-1.21,3.87,3.87,0,0,0,.73-2.68,3.75,3.75,0,0,0,.28-.71,3.7,3.7,0,0,0,.13-1.38,2.47,2.47,0,0,0-.11-1.86l-.38.11c0-.08-.07-.17-.1-.26l0,.29-8,2.28a4.6,4.6,0,0,0,.32,2.4,4.86,4.86,0,0,0,1.18,1.92,4.28,4.28,0,0,0,2.09,1.29A3.57,3.57,0,0,0,217.19,95.43Z"/><path class="ba2667c3-2168-489a-b800-2ce42ad429d5" d="M317.45,126.37c0-6-9.26-6.18-9.26-.21S317.45,132.34,317.45,126.37Z"/><path class="ba2667c3-2168-489a-b800-2ce42ad429d5" d="M335.4,101.38a2.16,2.16,0,0,0-.66-1.64,2.13,2.13,0,0,0-1.91-.68l-1.51.74a1.85,1.85,0,0,0-.85,1.36,1.69,1.69,0,0,0,.51,1.49,2,2,0,0,0,1.34.9l.45.1A2.31,2.31,0,0,0,335.4,101.38Z"/><path class="ba2667c3-2168-489a-b800-2ce42ad429d5" d="M320.93,176.5c0-5.31-8.28-6.18-8.28-.82S320.93,181.86,320.93,176.5Z"/><path class="ba2667c3-2168-489a-b800-2ce42ad429d5" d="M149.29,285.47c0-4.41-6.89-5-6.89-.58S149.29,289.94,149.29,285.47Z"/><path class="ba2667c3-2168-489a-b800-2ce42ad429d5" d="M158.54,195.66c0-4.42-6.88-5-6.88-.59S158.54,200.12,158.54,195.66Z"/><path class="ba2667c3-2168-489a-b800-2ce42ad429d5" d="M160.4,89.07a8.34,8.34,0,0,0,2.69-3.33,8.55,8.55,0,0,0,.67-4.41c-.69-3.39-2.33-5.62-4.91-6.66a9.34,9.34,0,0,0-3.72-.76,6,6,0,0,0-3.09.42,6.14,6.14,0,0,0-2.74,1.43l-1.43,1.54a6.22,6.22,0,0,0-1.24,3,4,4,0,0,0-.18,2.12,6.21,6.21,0,0,0,.69,3,8.77,8.77,0,0,0,4.58,4.19L152,90A8.34,8.34,0,0,0,160.4,89.07Z"/><path class="ba2667c3-2168-489a-b800-2ce42ad429d5" d="M128.94,147.54a9,9,0,0,0,1.64,0,8.66,8.66,0,0,0,7.44-4.95c.21-.72.42-1.44.62-2.16a8.28,8.28,0,0,0-.51-4.35l-1-1.88a9.24,9.24,0,0,0-1.33-1.39c.07,0,0,0-.17-.15l0,0h0a8.12,8.12,0,0,0-1.54-1l-.34-.18a4.37,4.37,0,0,0-2.32-.67,8.81,8.81,0,0,0-4.66.59,6.27,6.27,0,0,0-2.61,1.86,6.39,6.39,0,0,0-1.86,2.65,6.46,6.46,0,0,0-.56,3.32,6.28,6.28,0,0,0,.6,3.23,8.52,8.52,0,0,0,4.51,4.46l.85.23a7.13,7.13,0,0,0,1.1.29Z"/><path class="ba2667c3-2168-489a-b800-2ce42ad429d5" d="M51,235.94a8.2,8.2,0,0,0,1.64,0,6.18,6.18,0,0,0,2.89-.54,6.33,6.33,0,0,0,2.65-1.8A6.35,6.35,0,0,0,60,231c.21-.72.41-1.44.62-2.16a8.32,8.32,0,0,0-.51-4.36l-1-1.87a8.86,8.86,0,0,0-1.33-1.4c.06,0,0,0-.17-.15l0,0h0a8.61,8.61,0,0,0-1.54-.95l-.35-.19a4.28,4.28,0,0,0-2.31-.67,8.81,8.81,0,0,0-4.66.6,6.43,6.43,0,0,0-2.62,1.85,7.56,7.56,0,0,0-2.41,6,6.26,6.26,0,0,0,.6,3.23,8.48,8.48,0,0,0,4.51,4.46l.85.23a6.15,6.15,0,0,0,1.1.29Z"/><path class="ba2667c3-2168-489a-b800-2ce42ad429d5" d="M212.42,52.35A5.19,5.19,0,0,0,216,50.5l.7-1.13a5.16,5.16,0,0,0,.45-2.57,4,4,0,0,0-.6-1.91,4,4,0,0,0-1.26-1.62A5.13,5.13,0,0,0,208,44l-.7,1.12a5.18,5.18,0,0,0-.45,2.57,3.85,3.85,0,0,0,.61,1.91,3.75,3.75,0,0,0,1.25,1.62A5.2,5.2,0,0,0,212.42,52.35Z"/><path class="ba2667c3-2168-489a-b800-2ce42ad429d5" d="M171.28,47.67a5.2,5.2,0,0,0,3.53-1.86c.24-.37.47-.75.71-1.13a5,5,0,0,0,.44-2.56,3.81,3.81,0,0,0-.6-1.92,3.86,3.86,0,0,0-1.25-1.62,5.13,5.13,0,0,0-7.23.71l-.7,1.13a5.12,5.12,0,0,0-.45,2.56,3.81,3.81,0,0,0,.6,1.92,4,4,0,0,0,1.26,1.62A5.25,5.25,0,0,0,171.28,47.67Z"/><path class="ba2667c3-2168-489a-b800-2ce42ad429d5" d="M100.26,41.86a3.52,3.52,0,0,0,1.06-1.51,4.71,4.71,0,0,0,.35-2.43c.07.69.1.83.11.41a5,5,0,0,0-1.21-3.62,4.91,4.91,0,0,0-6.93-.44l-.84,1A4.88,4.88,0,0,0,92,37.59a7.8,7.8,0,0,0,.44,2.7c.21.37.42.75.64,1.12a4.63,4.63,0,0,0,3.76,1.85A4.58,4.58,0,0,0,100.26,41.86Z"/><path class="ba2667c3-2168-489a-b800-2ce42ad429d5" d="M26.25,92.18c0-4.18-6.48-4.07-6.48.1S26.25,96.36,26.25,92.18Z"/><path class="ba2667c3-2168-489a-b800-2ce42ad429d5" d="M66.67,109.78c0-4.24-6.57-3.9-6.57.33S66.67,114,66.67,109.78Z"/><path class="ba2667c3-2168-489a-b800-2ce42ad429d5" d="M220.75,223a5.28,5.28,0,0,0,4.58-3.67,11.67,11.67,0,0,0,.36-1.32,6.57,6.57,0,0,0-.06-2.46,7.47,7.47,0,0,0-3.78-4.94,7.94,7.94,0,0,0-7,.46,7,7,0,0,0-2.92,7.71c.54,2.42,2.56,4.89,5.1,5.31A4.08,4.08,0,0,0,220.75,223Z"/><path class="ba2667c3-2168-489a-b800-2ce42ad429d5" d="M392.77,252.55a6.32,6.32,0,0,0,4.17-2.09c.29-.45.59-.89.89-1.34a6.18,6.18,0,0,0,.62-3.22,4.55,4.55,0,0,0-.69-2.28,4.64,4.64,0,0,0-1.4-1.89,4.51,4.51,0,0,0-2.12-1.15,4.61,4.61,0,0,0-2.44-.36,6.23,6.23,0,0,0-4.16,2.09c-.3.44-.6.88-.89,1.33a6.19,6.19,0,0,0-.63,3.22,6.92,6.92,0,0,0,2.09,4.17,4.66,4.66,0,0,0,2.12,1.16A4.83,4.83,0,0,0,392.77,252.55Z"/><path class="ba2667c3-2168-489a-b800-2ce42ad429d5" d="M344.94,261.63c0-5.24-8.2-6.31-8.2-1S344.94,266.94,344.94,261.63Z"/><path class="ba2667c3-2168-489a-b800-2ce42ad429d5" d="M384.08,73.92a7.5,7.5,0,0,0,.1-10.61,8.4,8.4,0,0,0-5.28-2.25,7.59,7.59,0,0,0-5.33,2.15,7.5,7.5,0,0,0-.1,10.61A5.6,5.6,0,0,0,376,75.43a5.49,5.49,0,0,0,2.79.64A7.51,7.51,0,0,0,384.08,73.92Z"/><path class="ba2667c3-2168-489a-b800-2ce42ad429d5" d="M127.63,249.88c0-4.2-6.51-4-6.51.16S127.63,254.07,127.63,249.88Z"/><path class="ba2667c3-2168-489a-b800-2ce42ad429d5" d="M12.54,46.36a3.53,3.53,0,0,0,2.22-1.48,3.39,3.39,0,0,0,.53-2.58,3.39,3.39,0,0,0-.13-1.24,3.31,3.31,0,0,0-1.55-2A2.92,2.92,0,0,0,11,38.88l-.71.4a3,3,0,0,0-1,1.24c.56-1.17.58-1.43.06-.77a2.68,2.68,0,0,0-.75,1.17A8,8,0,0,0,8.36,42a4.11,4.11,0,0,0,.07,1.6,3.7,3.7,0,0,0,1.49,2.22A3.56,3.56,0,0,0,12.54,46.36Z"/><path class="ba2667c3-2168-489a-b800-2ce42ad429d5" d="M51.74,39.85A2.48,2.48,0,0,0,51,38.79,3.42,3.42,0,0,0,49.55,38h0a3,3,0,0,0-4,3.82Q53.51,43.16,51.74,39.85Z"/><path class="ba2667c3-2168-489a-b800-2ce42ad429d5" d="M11.72,159.74A8.08,8.08,0,0,0,17,156.86L18.16,155a8,8,0,0,0,.64-4.15,6,6,0,0,0-1-2.89,6.08,6.08,0,0,0-1.91-2.42,6.09,6.09,0,0,0-2.87-1.43,6,6,0,0,0-3.11-.34,8.08,8.08,0,0,0-5.31,2.88L3.5,148.51a8,8,0,0,0-.64,4.15,6.11,6.11,0,0,0,1,2.89A6.08,6.08,0,0,0,5.74,158a6,6,0,0,0,2.87,1.43A6,6,0,0,0,11.72,159.74Z"/><path class="ba2667c3-2168-489a-b800-2ce42ad429d5" d="M45.82,162.47a2.28,2.28,0,0,0,.91-1.46,2.24,2.24,0,0,0-.4-1.72c-.13-.15-.26-.29-.4-.43a2.28,2.28,0,0,0-1.06-.48l-2,.41a2.06,2.06,0,0,0,.23,3.77c.32.11.65.22,1,.31A2.24,2.24,0,0,0,45.82,162.47Z"/><path class="ba2667c3-2168-489a-b800-2ce42ad429d5" d="M104.16,217.43l1.14-.23.62-.31a2,2,0,0,0,.69-.73,2.55,2.55,0,0,0,.43-1.59,2.65,2.65,0,0,0-2.09-2.38l-.89-.15a2.72,2.72,0,1,0,.1,5.39Z"/><path class="ba2667c3-2168-489a-b800-2ce42ad429d5" d="M95.49,181.55a2.29,2.29,0,0,0,1.21-.76A4.23,4.23,0,0,0,97.88,178a4,4,0,0,0-1.12-2.75,4.08,4.08,0,0,0-4.46-.79l-.3.13-.13.09-.12.08a5.19,5.19,0,0,0-.46.36l-.09.07h0a.81.81,0,0,0-.14.12,4.67,4.67,0,0,0-1.24,3.18,4,4,0,0,0,2.84,4A2.47,2.47,0,0,0,95.49,181.55Z"/><path class="ba2667c3-2168-489a-b800-2ce42ad429d5" d="M68.11,274.32a4.09,4.09,0,0,0,1.49-2.82,4.47,4.47,0,0,0-.95-3.05A4.21,4.21,0,0,0,65.83,267a4.25,4.25,0,0,0-3,.94,4.1,4.1,0,0,0-1.48,2.82,4.46,4.46,0,0,0,.94,3,4.21,4.21,0,0,0,2.82,1.49A4.25,4.25,0,0,0,68.11,274.32Z"/><path class="ba2667c3-2168-489a-b800-2ce42ad429d5" d="M301.5,258.73a7.75,7.75,0,0,0,5.14-2.84c.35-.59.7-1.18,1.06-1.77a7.69,7.69,0,0,0,.56-3.88,8.46,8.46,0,0,0-2.84-5.13,8.5,8.5,0,0,0-5.64-1.63,7.72,7.72,0,0,0-5.14,2.85l-1.05,1.76A7.6,7.6,0,0,0,293,252a5.8,5.8,0,0,0,.94,2.78,5.88,5.88,0,0,0,1.9,2.36,5.81,5.81,0,0,0,2.73,1.32A5.74,5.74,0,0,0,301.5,258.73Z"/><path class="ba2667c3-2168-489a-b800-2ce42ad429d5" d="M215,99.85A7.67,7.67,0,0,0,220.13,97c.35-.59.7-1.18,1.06-1.76a7.7,7.7,0,0,0,.56-3.88,5.7,5.7,0,0,0-.94-2.78,5.88,5.88,0,0,0-1.9-2.36,5.73,5.73,0,0,0-2.72-1.32,5.79,5.79,0,0,0-2.92-.3,7.75,7.75,0,0,0-5.14,2.84l-1.06,1.77a7.65,7.65,0,0,0-.56,3.87,8.52,8.52,0,0,0,2.84,5.14,5.84,5.84,0,0,0,2.72,1.33A5.68,5.68,0,0,0,215,99.85Z"/><path class="ba2667c3-2168-489a-b800-2ce42ad429d5" d="M174.94,42.66a3.92,3.92,0,0,0-1.24-2.48l.05.09a2.58,2.58,0,0,0-.32-.34,4,4,0,0,0-5.69.34,4.46,4.46,0,0,0-1,3L174,45.37A3.66,3.66,0,0,0,174.94,42.66Z"/><path class="bdff3d87-96f1-4e2c-b42d-e0b929351e1b" d="M209.91,7.65a1.22,1.22,0,1,1,0-2.43,1.22,1.22,0,0,1,0,2.43Z"/><path class="bdff3d87-96f1-4e2c-b42d-e0b929351e1b" d="M179.86,208.2a1.22,1.22,0,0,1,0-2.43,1.22,1.22,0,1,1,0,2.43Z"/><path class="bdff3d87-96f1-4e2c-b42d-e0b929351e1b" d="M310.75,165.85a1.22,1.22,0,1,1,1.21-1.21A1.21,1.21,0,0,1,310.75,165.85Z"/><circle class="ae018611-6d59-4beb-a908-4335405066f2" cx="197.69" cy="36.59" r="3.45"/><path class="ae018611-6d59-4beb-a908-4335405066f2" d="M41.76,140.89a3.46,3.46,0,1,1,3.46-3.46A3.46,3.46,0,0,1,41.76,140.89Z"/><path class="bdff3d87-96f1-4e2c-b42d-e0b929351e1b" d="M279.32,90.62a6.08,6.08,0,1,1,6.07-6.08A6.08,6.08,0,0,1,279.32,90.62Z"/><path class="ae018611-6d59-4beb-a908-4335405066f2" d="M96.89,77.32a3.46,3.46,0,1,1,3.45-3.46A3.45,3.45,0,0,1,96.89,77.32Z"/><path class="bdff3d87-96f1-4e2c-b42d-e0b929351e1b" d="M209.91,209.61a1.21,1.21,0,1,1,1.21-1.21A1.22,1.22,0,0,1,209.91,209.61Z"/><path class="bdff3d87-96f1-4e2c-b42d-e0b929351e1b" d="M378.66,201.63a1.22,1.22,0,1,1,0-2.43,1.22,1.22,0,0,1,0,2.43Z"/><path class="bdff3d87-96f1-4e2c-b42d-e0b929351e1b" d="M355.42,160.22a1.22,1.22,0,1,1,1.21-1.21A1.21,1.21,0,0,1,355.42,160.22Z"/><circle class="bdff3d87-96f1-4e2c-b42d-e0b929351e1b" cx="197.69" cy="238.56" r="3.45"/><path class="bdff3d87-96f1-4e2c-b42d-e0b929351e1b" d="M328.15,230.09a3.46,3.46,0,1,1,3.45-3.46A3.46,3.46,0,0,1,328.15,230.09Z"/><path class="ae018611-6d59-4beb-a908-4335405066f2" d="M279.32,292.58a6.08,6.08,0,1,1,6.07-6.07A6.08,6.08,0,0,1,279.32,292.58Z"/><path class="ae018611-6d59-4beb-a908-4335405066f2" d="M96.89,279.28a3.46,3.46,0,1,1,3.45-3.45A3.45,3.45,0,0,1,96.89,279.28Z"/><circle class="ae018611-6d59-4beb-a908-4335405066f2" cx="13.78" cy="235.1" r="3.45"/><circle class="ae018611-6d59-4beb-a908-4335405066f2" cx="127.88" cy="233.14" r="9.66"/><circle class="ef3f5882-bbe1-4773-a799-5bb7531a4622" cx="255.84" cy="140.57" r="6.07"/><path class="ac1ed660-fc4e-4a60-a7a1-89121c90421a" d="M191.85,12.4a4.75,4.75,0,0,1,4.75-4.75,4.75,4.75,0,0,1-4.75-4.76,4.76,4.76,0,0,1-4.76,4.76A4.76,4.76,0,0,1,191.85,12.4Z"/><path class="ac1ed660-fc4e-4a60-a7a1-89121c90421a" d="M392.79,96.35a4.76,4.76,0,0,1,4.76-4.76,4.76,4.76,0,0,1-4.76-4.75A4.75,4.75,0,0,1,388,91.59,4.75,4.75,0,0,1,392.79,96.35Z"/><path class="ef3f5882-bbe1-4773-a799-5bb7531a4622" d="M166.74,167.68a4.76,4.76,0,0,1,4.76-4.76,4.76,4.76,0,0,1-4.76-4.75,4.75,4.75,0,0,1-4.75,4.75A4.76,4.76,0,0,1,166.74,167.68Z"/><circle class="ef3f5882-bbe1-4773-a799-5bb7531a4622" cx="52.06" cy="82.29" r="4.75"/><path class="ef3f5882-bbe1-4773-a799-5bb7531a4622" d="M291.41,23.93a4.76,4.76,0,0,1,4.76-4.75,4.76,4.76,0,0,1-4.76-4.76,4.76,4.76,0,0,1-4.75,4.76A4.75,4.75,0,0,1,291.41,23.93Z"/><g class="a91d91ac-bb5b-4293-b915-bcf3cc3181b1"><circle class="b0b24741-6203-4eaa-87d7-c1328162e9f5" cx="83.32" cy="8.79" r="6.29" transform="translate(18.19 61.49) rotate(-45)"/></g></g><g id="a2d35c86-f108-4bd7-b3ba-b5ff641687f1" data-name="Mercury"><circle class="b163df7d-35e3-4a2d-9b25-0fee68caf3cc" cx="200" cy="150" r="100.64"/><g class="f1cc63be-086e-4754-ac03-1ad2ee69a2fa"><g class="acab7a3e-c3cd-44c7-bb8a-a4a87561eb46"><path class="a1f66dc9-e7cc-480e-bdec-b9a46c6de312" d="M116,109.1c6.75,3,12.83,7.92,20.71,9.6a96.62,96.62,0,0,0,30.26,1.08c19.09-2.07,37.57-8,56.55-10.9,10.5-1.61,21.26-2.33,31.2-6.07,11-4.13,20.23-11.69,30.62-17.07s23.23-8.44,33.62-3.06c-24.3,7.32-42.07,27.94-64.4,40-12.43,6.72-26.17,10.71-38.75,17.13-8.46,4.32-16.54,9.79-25.83,11.76-8.17,1.74-16.64.63-25,.68a89.78,89.78,0,0,0-57.27,21.43L169,164.9c7.77-1.11,15.6-2.23,23.43-1.72,6.28.41,12.51,1.86,18.79,1.48,22.69-1.35,39.53-25.62,62.25-25.56.85,6.53-4.54,12-9.47,16.37-14.28,12.58-29,25.42-46.78,32.13-27.85,10.5-59.06,4.56-88.43,9.34-16.21,2.64-35,7.9-47.4-2.84-18.86-16.31-6.71-45.83.72-64.25,5-12.45,15.14-26.82,30.31-22.1A34.55,34.55,0,0,1,116,109.1Z"/><path class="f02761ec-e5a8-435e-ac70-39cad5e9d73c" d="M123.27,54.75c-13,3.88-26.66,9-40.21,10.26C70.58,66.12,59.9,66.8,48,72.32c-1.78.83-3.75,2-4,4s1.54,3.84,3.36,4.9c10.77,6.26,24.22,1.57,36.58,0,10.57-1.34,21.3-.24,31.94-.76C142.16,79.1,166.8,68,192,60.29c4-1.24,8.31-2.4,12.37-1.32s7.58,5.31,6.37,9.33c-.76,2.52-3,4.22-5.22,5.67-35,23.21-79.49,27.42-121.29,23.32-6.54-.64-15-.35-17.29,5.83a149.91,149.91,0,0,0,112.52-.5c10.59-4.4,22.12-10.14,33-6.4.28,5-5.67,7.53-10.47,8.8a313,313,0,0,0-66,25.74c4.61,7.54,15.72,6.51,24.29,4.34,34.46-8.73,69.42-21.25,94.54-46.38,5.35-5.35,10.52-12.4,9-19.8-1.39-6.67-7.67-11-13.44-14.59l-35-21.93c-18.65-11.67-21.58-5.84-37.92,3.19S141.16,49.42,123.27,54.75Z"/><path class="f02761ec-e5a8-435e-ac70-39cad5e9d73c" d="M311.74,117.19c-.61-3.79-4.41-10.68-9.2-9-1.94.69-3.4,2.3-4.76,3.85-8.81,10-19.61,16.07-31.82,21.47-8.49,0-26.5,9.6-34.21,13.61-8.61,4.47-16.33,10.26-25.09,14.84a36.82,36.82,0,0,0-7.16,4.49c-2,1.7-3.58,3.82-5.67,5.4-5.8,4.39-13.85,3.69-21.06,2.8-1.15,1.13-.67,3.22.55,4.27a8.21,8.21,0,0,0,4.52,1.51c14.87,1.76,29.27-1.09,42.74-7.25a309.05,309.05,0,0,1,56.81-19.55,130.38,130.38,0,0,1-52.17,42c-20.91,9.25-44.53,8.41-66.07,1.49-2.85-.91-5.65-2.08-8.61-2.48-2.65-.36-5.35-.08-8-.44-7.53-1-13.54-6.94-20.9-8.81-.27,7.58,6.85,13.22,13.65,16.6a33.25,33.25,0,0,0,11.81,3.8c2.61.21,5.3-.07,7.79.74,7.56,2.47,11.67,9.43,19.94,11.51,11.49,2.9,24.77,1.6,36.3-.3a153.71,153.71,0,0,0,57.94-22.27c-4.78,17.62-20.53,31.75-38.56,34.61-4.65.73-9.39.78-14,1.77-8.36,1.79-15.94,6.63-24.43,7.57-10.46,1.16-22.29-3.44-30.87,2.64a104.38,104.38,0,0,0,46.82,13.35c39.14,1.62,78.14-20.84,97-55.2a5.4,5.4,0,0,0,.95-3.5,4.55,4.55,0,0,0-2.45-2.84c-8.05-4.6-21.81-1.32-24.42-10.21-1.3-4.4,1.81-9.06,5.77-11.37s8.64-2.94,13.06-4.14c10.27-2.77,20-9.25,24.42-18.9,1.55-3.36,2.32-7.61.09-10.55-1.67-2.2-4.59-3.07-6.59-5C311.62,129.73,312.68,122.93,311.74,117.19Z"/></g></g><g class="befc78a5-19c6-4d83-a29c-f893ff8f29df"><path class="ff933a6d-7222-4902-8db4-87adcef4b402" d="M215.55,237.32A100.55,100.55,0,0,1,142.87,67.19a100.59,100.59,0,1,0,129.81,152.3A100.12,100.12,0,0,1,215.55,237.32Z"/></g><g class="bff345d1-290e-4981-a0c4-012305d62b91"><path class="b58fd97b-05a4-441b-9b06-886dda5d711a" d="M200,49.36a100.11,100.11,0,0,0-41.23,8.9A100.56,100.56,0,0,0,277.2,214.52,100.61,100.61,0,0,0,200,49.36Z"/></g></g></g></svg>