<svg xmlns="http://www.w3.org/2000/svg" xmlns:xlink="http://www.w3.org/1999/xlink" viewBox="0 0 400 300"><defs><style>.a1282b6f-586d-41ce-b960-d8a405a887e3{fill:none;}.a2baacec-53db-4def-876a-3f0737bf9d9a{isolation:isolate;}.a34d9a0d-5c5a-4662-890d-e1d57c108b10{fill:url(#aeb010f8-a44f-40e0-aa7f-4d6769eca841);}.a2d7712a-a0ff-4c95-949f-6c329fd7d61d{fill:#29285c;}.a9dc5ebb-9802-4853-aa07-7247085fe475{fill:#39285a;}.b4376a89-ca42-469c-af77-5b39bd36edfb{fill:#111833;}.baf41e23-a597-4017-88e9-ce16c0570018{fill:#84725c;}.b95d4794-e573-4705-a41c-3199837f8917{fill:#765c7e;}.bbe0de08-69e0-4472-a44c-cde2cb2f86da{fill:#f2dec7;}.aa1a1007-73ed-40ca-b779-d377de6be8b0{fill:#dcb993;}.b7fda7a9-252d-4250-b13a-abdc77b6de51{opacity:0.51;}.af8e0d8e-7961-45ef-a0b9-2332a59834f7{fill:#fae1c8;}.be50d5df-c0f4-4b1c-905c-b4dc42d0fbe7{fill:url(#ae86b9f2-8825-48a9-8db2-b7cb5b6ffb11);}.f3fee22b-5c17-4e41-b10a-bfa85ef5b496{opacity:0.4;}.b16048fb-eed0-4f56-85d8-39e5eec21ef8,.f3fee22b-5c17-4e41-b10a-bfa85ef5b496{mix-blend-mode:multiply;}.f23a7d36-642f-45bd-b2ad-0de56169aa55{clip-path:url(#b37be474-a860-4198-bbac-410c037584f7);}.eedba36f-9949-4fa6-96ec-e4f22bc255ac{fill:#8487b2;}.b16048fb-eed0-4f56-85d8-39e5eec21ef8,.b9400401-f354-4c9f-a6e0-0686427fc36a{opacity:0.2;}.aa5ec00d-4f02-4c95-a68c-7ca2277cb2aa{fill:#222226;}.b9400401-f354-4c9f-a6e0-0686427fc36a{mix-blend-mode:overlay;}.a5bca573-de07-4ea8-8d64-e91fde1f4234{fill:#fff;}</style><radialGradient id="aeb010f8-a44f-40e0-aa7f-4d6769eca841" cx="200" cy="150" r="250" gradientTransform="translate(40 60) scale(0.8 0.6)" gradientUnits="userSpaceOnUse"><stop offset="0" stop-color="#03384a"/><stop offset="1" stop-color="#010f1e"/></radialGradient><linearGradient id="ae86b9f2-8825-48a9-8db2-b7cb5b6ffb11" x1="74.05" y1="150" x2="325.95" y2="150" gradientUnits="userSpaceOnUse"><stop offset="0" stop-color="#b4b6e6"/><stop offset="1" stop-color="#7983e6"/></linearGradient><clipPath id="b37be474-a860-4198-bbac-410c037584f7"><circle class="a1282b6f-586d-41ce-b960-d8a405a887e3" cx="200" cy="150" r="125.95"/></clipPath></defs><g class="a2baacec-53db-4def-876a-3f0737bf9d9a"><g id="fdac1c9b-f650-449f-b13b-3731f150d43f" data-name="OBJECTS"><rect class="a34d9a0d-5c5a-4662-890d-e1d57c108b10" width="400" height="300"/><path class="a2d7712a-a0ff-4c95-949f-6c329fd7d61d" d="M235.76,34.6a1.47,1.47,0,1,1,1.46-1.46A1.46,1.46,0,0,1,235.76,34.6Z"/><path class="a2d7712a-a0ff-4c95-949f-6c329fd7d61d" d="M26.48,62.53A1.47,1.47,0,1,1,28,61.06,1.46,1.46,0,0,1,26.48,62.53Z"/><path class="a2d7712a-a0ff-4c95-949f-6c329fd7d61d" d="M335.77,62.53a1.47,1.47,0,1,1,1.47-1.47A1.46,1.46,0,0,1,335.77,62.53Z"/><path class="a2d7712a-a0ff-4c95-949f-6c329fd7d61d" d="M204.27,276.73a1.47,1.47,0,1,1,1.46-1.46A1.46,1.46,0,0,1,204.27,276.73Z"/><path class="a2d7712a-a0ff-4c95-949f-6c329fd7d61d" d="M36.3,255.72a1.47,1.47,0,1,1,1.46-1.47A1.47,1.47,0,0,1,36.3,255.72Z"/><path class="a2d7712a-a0ff-4c95-949f-6c329fd7d61d" d="M235.76,115.91a4.25,4.25,0,1,1,4.24-4.25A4.25,4.25,0,0,1,235.76,115.91Z"/><path class="a2d7712a-a0ff-4c95-949f-6c329fd7d61d" d="M40.19,284.34a4.25,4.25,0,1,1,4.24-4.25A4.24,4.24,0,0,1,40.19,284.34Z"/><path class="a2d7712a-a0ff-4c95-949f-6c329fd7d61d" d="M392.79,167.17a4.25,4.25,0,1,1,4.25-4.25A4.24,4.24,0,0,1,392.79,167.17Z"/><circle class="a2d7712a-a0ff-4c95-949f-6c329fd7d61d" cx="123.77" cy="118.31" r="4.24"/><path class="a2d7712a-a0ff-4c95-949f-6c329fd7d61d" d="M19.26,204.66a4.25,4.25,0,1,1,4.25-4.25A4.24,4.24,0,0,1,19.26,204.66Z"/><circle class="a2d7712a-a0ff-4c95-949f-6c329fd7d61d" cx="328.15" cy="187.39" r="8.02" transform="translate(70.11 463.46) rotate(-76.66)"/><circle class="a2d7712a-a0ff-4c95-949f-6c329fd7d61d" cx="221.27" cy="159.48" r="6.84" transform="translate(28.41 352.34) rotate(-80.78)"/><circle class="a9dc5ebb-9802-4853-aa07-7247085fe475" cx="210.97" cy="263.55" r="6.84" transform="translate(-124.57 226.37) rotate(-45)"/><path class="a9dc5ebb-9802-4853-aa07-7247085fe475" d="M369.47,272.37a3.42,3.42,0,1,1,3.42-3.42A3.42,3.42,0,0,1,369.47,272.37Z"/><circle class="a9dc5ebb-9802-4853-aa07-7247085fe475" cx="388.1" cy="45.37" r="6.84" transform="translate(337.17 432.78) rotate(-89.18)"/><circle class="a9dc5ebb-9802-4853-aa07-7247085fe475" cx="264.67" cy="224.96" r="2.3"/><path class="a9dc5ebb-9802-4853-aa07-7247085fe475" d="M75.28,144.94a2.3,2.3,0,1,1,2.3-2.3A2.3,2.3,0,0,1,75.28,144.94Z"/><circle class="a9dc5ebb-9802-4853-aa07-7247085fe475" cx="61.4" cy="186.56" r="2.3"/><path class="b4376a89-ca42-469c-af77-5b39bd36edfb" d="M369.39,17.55a3.28,3.28,0,0,0,1-2.2A4.52,4.52,0,0,0,368,11.18a3.56,3.56,0,0,0-2.5-.69,3.42,3.42,0,0,0-2.3,5.38,6.32,6.32,0,0,0,.93,1.2,8,8,0,0,0,.93.79,3.89,3.89,0,0,0,2.1.53A3.35,3.35,0,0,0,369.39,17.55Z"/><path class="b4376a89-ca42-469c-af77-5b39bd36edfb" d="M330.8,11.22a2.73,2.73,0,0,0,1.56-.75,1.94,1.94,0,0,0,.6-.81,2.69,2.69,0,0,0,.21-1.34A3.83,3.83,0,0,0,332,6.13l-.49-.31a2.36,2.36,0,0,0-1.77-.06,2.54,2.54,0,0,0-1.26,1.18,2.82,2.82,0,0,0-.57,1.9A2.7,2.7,0,0,0,330.8,11.22Z"/><path class="b4376a89-ca42-469c-af77-5b39bd36edfb" d="M318.47,50.78c0-5.48-8.52-5.71-8.52-.21S318.47,56.27,318.47,50.78Z"/><path class="b4376a89-ca42-469c-af77-5b39bd36edfb" d="M369.77,111.64a1.44,1.44,0,0,0-2.88,0A1.44,1.44,0,0,0,369.77,111.64Z"/><path class="b4376a89-ca42-469c-af77-5b39bd36edfb" d="M249.36,25.73Z"/><path class="b4376a89-ca42-469c-af77-5b39bd36edfb" d="M249.44,25.82h0l-.08-.09Z"/><path class="b4376a89-ca42-469c-af77-5b39bd36edfb" d="M253.08,26.41a2.22,2.22,0,0,0-.07-3.09l-.93-.75a2.05,2.05,0,0,0-1.62-.25,2.2,2.2,0,0,0-1.12.72,2.14,2.14,0,0,0,.1,2.78l.16.2c.14.15.27.31.4.46A2.19,2.19,0,0,0,253.08,26.41Z"/><path class="b4376a89-ca42-469c-af77-5b39bd36edfb" d="M346,223.46c0-2.15-3.35-2.42-3.35-.25S346,225.62,346,223.46Z"/><path class="b4376a89-ca42-469c-af77-5b39bd36edfb" d="M345.18,98c0-1.15-1.8-1.39-1.8-.22S345.18,99.19,345.18,98Z"/><path class="b4376a89-ca42-469c-af77-5b39bd36edfb" d="M210.22,144a6.65,6.65,0,0,0,4.4-2.49l.87-1.46a6.55,6.55,0,0,0,.48-3.42,5,5,0,0,0-.87-2.45,5,5,0,0,0-1.62-1.95,5,5,0,0,0-2.28-1.1,5.09,5.09,0,0,0-2.6-.25,6.71,6.71,0,0,0-4.4,2.5l-.86,1.45a6.58,6.58,0,0,0-.49,3.42,5,5,0,0,0,.88,2.46,6,6,0,0,0,3.9,3A4.94,4.94,0,0,0,210.22,144Z"/><path class="b4376a89-ca42-469c-af77-5b39bd36edfb" d="M251.49,196.91a6.69,6.69,0,0,0,4.4-2.49l.87-1.46a6.58,6.58,0,0,0,.48-3.42,6.78,6.78,0,0,0-7.37-5.75,6.7,6.7,0,0,0-4.4,2.49l-.86,1.46a6.55,6.55,0,0,0-.49,3.42,5,5,0,0,0,.88,2.46,4.89,4.89,0,0,0,1.62,1.94,7.26,7.26,0,0,0,4.87,1.35Z"/><path class="b4376a89-ca42-469c-af77-5b39bd36edfb" d="M245.9,88.61c0-1.63-2.53-1.92-2.53-.28S245.9,90.25,245.9,88.61Z"/><path class="b4376a89-ca42-469c-af77-5b39bd36edfb" d="M259.33,279.27a5.14,5.14,0,0,0,1.47-3.47,5.2,5.2,0,0,0-1.46-3.6,5.14,5.14,0,0,0-3.47-1.47,5.07,5.07,0,0,0-3.6,1.46,5,5,0,0,0,0,7.07,5,5,0,0,0,7.07,0Z"/><path class="b4376a89-ca42-469c-af77-5b39bd36edfb" d="M374.71,182.05a6.22,6.22,0,0,0,3-.91,8.3,8.3,0,0,0,3.91-4.93c.1-.72.21-1.45.31-2.18a7.84,7.84,0,0,0-.33-2.32c.05.07.05,0,0-.25a3.58,3.58,0,0,0-.18-.64,16.8,16.8,0,0,0-1.08-2.25,7.92,7.92,0,0,0-1.64-1.9l-1.82-1.17a8.78,8.78,0,0,0-3.62-.82,8,8,0,0,0-7.34,3.07l-.66.93c-.33.61-.66,1.22-1,1.83l-.45,2,.06,2A5.73,5.73,0,0,0,365,177.2a3.8,3.8,0,0,0,1.27,1.57,3.89,3.89,0,0,0,1.66,1.2,3.66,3.66,0,0,0,.89.48,6.13,6.13,0,0,0,2.68,1.41A6.23,6.23,0,0,0,374.71,182.05Z"/><path class="b4376a89-ca42-469c-af77-5b39bd36edfb" d="M310.75,199.22c0-3.29-5.1-3.15-5.1.13S310.75,202.49,310.75,199.22Z"/><path class="b4376a89-ca42-469c-af77-5b39bd36edfb" d="M251.26,197.65a4.58,4.58,0,0,0,1.52-1.21,3.86,3.86,0,0,0,.72-2.68,3.39,3.39,0,0,0,.28-.71,3.7,3.7,0,0,0,.13-1.38,2.47,2.47,0,0,0-.11-1.86l-.38.11c0-.08-.06-.17-.1-.26V190l-8.05,2.28a4.7,4.7,0,0,0,.32,2.4,5.1,5.1,0,0,0,1.18,1.92,4.26,4.26,0,0,0,2.1,1.29A3.55,3.55,0,0,0,251.26,197.65Z"/><path class="b4376a89-ca42-469c-af77-5b39bd36edfb" d="M217.19,95.43a4.44,4.44,0,0,0,1.51-1.21,3.87,3.87,0,0,0,.73-2.68,3.75,3.75,0,0,0,.28-.71,3.7,3.7,0,0,0,.13-1.38,2.47,2.47,0,0,0-.11-1.86l-.38.11c0-.08-.07-.17-.1-.26l0,.29-8,2.28a4.6,4.6,0,0,0,.32,2.4,4.86,4.86,0,0,0,1.18,1.92,4.28,4.28,0,0,0,2.09,1.29A3.57,3.57,0,0,0,217.19,95.43Z"/><path class="b4376a89-ca42-469c-af77-5b39bd36edfb" d="M317.45,126.37c0-6-9.26-6.18-9.26-.21S317.45,132.34,317.45,126.37Z"/><path class="b4376a89-ca42-469c-af77-5b39bd36edfb" d="M335.4,101.38a2.16,2.16,0,0,0-.66-1.64,2.13,2.13,0,0,0-1.91-.68l-1.51.74a1.85,1.85,0,0,0-.85,1.36,1.69,1.69,0,0,0,.51,1.49,2,2,0,0,0,1.34.9l.45.1A2.31,2.31,0,0,0,335.4,101.38Z"/><path class="b4376a89-ca42-469c-af77-5b39bd36edfb" d="M320.93,176.5c0-5.31-8.28-6.18-8.28-.82S320.93,181.86,320.93,176.5Z"/><path class="b4376a89-ca42-469c-af77-5b39bd36edfb" d="M149.29,285.47c0-4.41-6.89-5-6.89-.58S149.29,289.94,149.29,285.47Z"/><path class="b4376a89-ca42-469c-af77-5b39bd36edfb" d="M158.54,195.66c0-4.42-6.88-5-6.88-.59S158.54,200.12,158.54,195.66Z"/><path class="b4376a89-ca42-469c-af77-5b39bd36edfb" d="M160.4,89.07a8.34,8.34,0,0,0,2.69-3.33,8.55,8.55,0,0,0,.67-4.41c-.69-3.39-2.33-5.62-4.91-6.66a9.34,9.34,0,0,0-3.72-.76,6,6,0,0,0-3.09.42,6.14,6.14,0,0,0-2.74,1.43l-1.43,1.54a6.22,6.22,0,0,0-1.24,3,4,4,0,0,0-.18,2.12,6.21,6.21,0,0,0,.69,3,8.77,8.77,0,0,0,4.58,4.19L152,90A8.34,8.34,0,0,0,160.4,89.07Z"/><path class="b4376a89-ca42-469c-af77-5b39bd36edfb" d="M128.94,147.54a9,9,0,0,0,1.64,0,8.66,8.66,0,0,0,7.44-4.95c.21-.72.42-1.44.62-2.16a8.28,8.28,0,0,0-.51-4.35l-1-1.88a9.24,9.24,0,0,0-1.33-1.39c.07,0,0,0-.17-.15l0,0h0a8.12,8.12,0,0,0-1.54-1l-.34-.18a4.37,4.37,0,0,0-2.32-.67,8.81,8.81,0,0,0-4.66.59,6.27,6.27,0,0,0-2.61,1.86,6.39,6.39,0,0,0-1.86,2.65,6.46,6.46,0,0,0-.56,3.32,6.28,6.28,0,0,0,.6,3.23,8.52,8.52,0,0,0,4.51,4.46l.85.23a7.13,7.13,0,0,0,1.1.29Z"/><path class="b4376a89-ca42-469c-af77-5b39bd36edfb" d="M51,235.94a8.2,8.2,0,0,0,1.64,0,6.18,6.18,0,0,0,2.89-.54,6.33,6.33,0,0,0,2.65-1.8A6.35,6.35,0,0,0,60,231c.21-.72.41-1.44.62-2.16a8.32,8.32,0,0,0-.51-4.36l-1-1.87a8.86,8.86,0,0,0-1.33-1.4c.06,0,0,0-.17-.15l0,0h0a8.61,8.61,0,0,0-1.54-.95l-.35-.19a4.28,4.28,0,0,0-2.31-.67,8.81,8.81,0,0,0-4.66.6,6.43,6.43,0,0,0-2.62,1.85,7.56,7.56,0,0,0-2.41,6,6.26,6.26,0,0,0,.6,3.23,8.48,8.48,0,0,0,4.51,4.46l.85.23a6.15,6.15,0,0,0,1.1.29Z"/><path class="b4376a89-ca42-469c-af77-5b39bd36edfb" d="M212.42,52.35A5.19,5.19,0,0,0,216,50.5l.7-1.13a5.16,5.16,0,0,0,.45-2.57,4,4,0,0,0-.6-1.91,4,4,0,0,0-1.26-1.62A5.13,5.13,0,0,0,208,44l-.7,1.12a5.18,5.18,0,0,0-.45,2.57,3.85,3.85,0,0,0,.61,1.91,3.75,3.75,0,0,0,1.25,1.62A5.2,5.2,0,0,0,212.42,52.35Z"/><path class="b4376a89-ca42-469c-af77-5b39bd36edfb" d="M171.28,47.67a5.2,5.2,0,0,0,3.53-1.86c.24-.37.47-.75.71-1.13a5,5,0,0,0,.44-2.56,3.81,3.81,0,0,0-.6-1.92,3.86,3.86,0,0,0-1.25-1.62,5.13,5.13,0,0,0-7.23.71l-.7,1.13a5.12,5.12,0,0,0-.45,2.56,3.81,3.81,0,0,0,.6,1.92,4,4,0,0,0,1.26,1.62A5.25,5.25,0,0,0,171.28,47.67Z"/><path class="b4376a89-ca42-469c-af77-5b39bd36edfb" d="M100.26,41.86a3.52,3.52,0,0,0,1.06-1.51,4.71,4.71,0,0,0,.35-2.43c.07.69.1.83.11.41a5,5,0,0,0-1.21-3.62,4.91,4.91,0,0,0-6.93-.44l-.84,1A4.88,4.88,0,0,0,92,37.59a7.8,7.8,0,0,0,.44,2.7c.21.37.42.75.64,1.12a4.63,4.63,0,0,0,3.76,1.85A4.58,4.58,0,0,0,100.26,41.86Z"/><path class="b4376a89-ca42-469c-af77-5b39bd36edfb" d="M26.25,92.18c0-4.18-6.48-4.07-6.48.1S26.25,96.36,26.25,92.18Z"/><path class="b4376a89-ca42-469c-af77-5b39bd36edfb" d="M66.67,109.78c0-4.24-6.57-3.9-6.57.33S66.67,114,66.67,109.78Z"/><path class="b4376a89-ca42-469c-af77-5b39bd36edfb" d="M220.75,223a5.28,5.28,0,0,0,4.58-3.67,11.67,11.67,0,0,0,.36-1.32,6.57,6.57,0,0,0-.06-2.46,7.47,7.47,0,0,0-3.78-4.94,7.94,7.94,0,0,0-7,.46,7,7,0,0,0-2.92,7.71c.54,2.42,2.56,4.89,5.1,5.31A4.08,4.08,0,0,0,220.75,223Z"/><path class="b4376a89-ca42-469c-af77-5b39bd36edfb" d="M392.77,252.55a6.32,6.32,0,0,0,4.17-2.09c.29-.45.59-.89.89-1.34a6.18,6.18,0,0,0,.62-3.22,4.55,4.55,0,0,0-.69-2.28,4.64,4.64,0,0,0-1.4-1.89,4.51,4.51,0,0,0-2.12-1.15,4.61,4.61,0,0,0-2.44-.36,6.23,6.23,0,0,0-4.16,2.09c-.3.44-.6.88-.89,1.33a6.19,6.19,0,0,0-.63,3.22,6.92,6.92,0,0,0,2.09,4.17,4.66,4.66,0,0,0,2.12,1.16A4.83,4.83,0,0,0,392.77,252.55Z"/><path class="b4376a89-ca42-469c-af77-5b39bd36edfb" d="M344.94,261.63c0-5.24-8.2-6.31-8.2-1S344.94,266.94,344.94,261.63Z"/><path class="b4376a89-ca42-469c-af77-5b39bd36edfb" d="M384.08,73.92a7.5,7.5,0,0,0,.1-10.61,8.4,8.4,0,0,0-5.28-2.25,7.59,7.59,0,0,0-5.33,2.15,7.5,7.5,0,0,0-.1,10.61A5.6,5.6,0,0,0,376,75.43a5.49,5.49,0,0,0,2.79.64A7.51,7.51,0,0,0,384.08,73.92Z"/><path class="b4376a89-ca42-469c-af77-5b39bd36edfb" d="M127.63,249.88c0-4.2-6.51-4-6.51.16S127.63,254.07,127.63,249.88Z"/><path class="b4376a89-ca42-469c-af77-5b39bd36edfb" d="M12.54,46.36a3.53,3.53,0,0,0,2.22-1.48,3.39,3.39,0,0,0,.53-2.58,3.39,3.39,0,0,0-.13-1.24,3.31,3.31,0,0,0-1.55-2A2.92,2.92,0,0,0,11,38.88l-.71.4a3,3,0,0,0-1,1.24c.56-1.17.58-1.43.06-.77a2.68,2.68,0,0,0-.75,1.17A8,8,0,0,0,8.36,42a4.11,4.11,0,0,0,.07,1.6,3.7,3.7,0,0,0,1.49,2.22A3.56,3.56,0,0,0,12.54,46.36Z"/><path class="b4376a89-ca42-469c-af77-5b39bd36edfb" d="M51.74,39.85A2.48,2.48,0,0,0,51,38.79,3.42,3.42,0,0,0,49.55,38h0a3,3,0,0,0-4,3.82Q53.51,43.16,51.74,39.85Z"/><path class="b4376a89-ca42-469c-af77-5b39bd36edfb" d="M11.72,159.74A8.08,8.08,0,0,0,17,156.86L18.16,155a8,8,0,0,0,.64-4.15,6,6,0,0,0-1-2.89,6.08,6.08,0,0,0-1.91-2.42,6.09,6.09,0,0,0-2.87-1.43,6,6,0,0,0-3.11-.34,8.08,8.08,0,0,0-5.31,2.88L3.5,148.51a8,8,0,0,0-.64,4.15,6.11,6.11,0,0,0,1,2.89A6.08,6.08,0,0,0,5.74,158a6,6,0,0,0,2.87,1.43A6,6,0,0,0,11.72,159.74Z"/><path class="b4376a89-ca42-469c-af77-5b39bd36edfb" d="M45.82,162.47a2.28,2.28,0,0,0,.91-1.46,2.24,2.24,0,0,0-.4-1.72c-.13-.15-.26-.29-.4-.43a2.28,2.28,0,0,0-1.06-.48l-2,.41a2.06,2.06,0,0,0,.23,3.77c.32.11.65.22,1,.31A2.24,2.24,0,0,0,45.82,162.47Z"/><path class="b4376a89-ca42-469c-af77-5b39bd36edfb" d="M104.16,217.43l1.14-.23.62-.31a2,2,0,0,0,.69-.73,2.55,2.55,0,0,0,.43-1.59,2.65,2.65,0,0,0-2.09-2.38l-.89-.15a2.72,2.72,0,1,0,.1,5.39Z"/><path class="b4376a89-ca42-469c-af77-5b39bd36edfb" d="M95.49,181.55a2.29,2.29,0,0,0,1.21-.76A4.23,4.23,0,0,0,97.88,178a4,4,0,0,0-1.12-2.75,4.08,4.08,0,0,0-4.46-.79l-.3.13-.13.09-.12.08a5.19,5.19,0,0,0-.46.36l-.09.07h0a.81.81,0,0,0-.14.12,4.67,4.67,0,0,0-1.24,3.18,4,4,0,0,0,2.84,4A2.47,2.47,0,0,0,95.49,181.55Z"/><path class="b4376a89-ca42-469c-af77-5b39bd36edfb" d="M68.11,274.32a4.09,4.09,0,0,0,1.49-2.82,4.47,4.47,0,0,0-.95-3.05A4.21,4.21,0,0,0,65.83,267a4.25,4.25,0,0,0-3,.94,4.1,4.1,0,0,0-1.48,2.82,4.46,4.46,0,0,0,.94,3,4.21,4.21,0,0,0,2.82,1.49A4.25,4.25,0,0,0,68.11,274.32Z"/><path class="b4376a89-ca42-469c-af77-5b39bd36edfb" d="M301.5,258.73a7.75,7.75,0,0,0,5.14-2.84c.35-.59.7-1.18,1.06-1.77a7.69,7.69,0,0,0,.56-3.88,8.46,8.46,0,0,0-2.84-5.13,8.5,8.5,0,0,0-5.64-1.63,7.72,7.72,0,0,0-5.14,2.85l-1.05,1.76A7.6,7.6,0,0,0,293,252a5.8,5.8,0,0,0,.94,2.78,5.88,5.88,0,0,0,1.9,2.36,5.81,5.81,0,0,0,2.73,1.32A5.74,5.74,0,0,0,301.5,258.73Z"/><path class="b4376a89-ca42-469c-af77-5b39bd36edfb" d="M215,99.85A7.67,7.67,0,0,0,220.13,97c.35-.59.7-1.18,1.06-1.76a7.7,7.7,0,0,0,.56-3.88,5.7,5.7,0,0,0-.94-2.78,5.88,5.88,0,0,0-1.9-2.36,5.73,5.73,0,0,0-2.72-1.32,5.79,5.79,0,0,0-2.92-.3,7.75,7.75,0,0,0-5.14,2.84l-1.06,1.77a7.65,7.65,0,0,0-.56,3.87,8.52,8.52,0,0,0,2.84,5.14,5.84,5.84,0,0,0,2.72,1.33A5.68,5.68,0,0,0,215,99.85Z"/><path class="b4376a89-ca42-469c-af77-5b39bd36edfb" d="M174.94,42.66a3.92,3.92,0,0,0-1.24-2.48l.05.09a2.58,2.58,0,0,0-.32-.34,4,4,0,0,0-5.69.34,4.46,4.46,0,0,0-1,3L174,45.37A3.66,3.66,0,0,0,174.94,42.66Z"/><path class="baf41e23-a597-4017-88e9-ce16c0570018" d="M209.91,7.65a1.22,1.22,0,1,1,0-2.43,1.22,1.22,0,0,1,0,2.43Z"/><path class="baf41e23-a597-4017-88e9-ce16c0570018" d="M179.86,208.2a1.22,1.22,0,0,1,0-2.43,1.22,1.22,0,1,1,0,2.43Z"/><path class="baf41e23-a597-4017-88e9-ce16c0570018" d="M310.75,165.85a1.22,1.22,0,1,1,1.21-1.21A1.21,1.21,0,0,1,310.75,165.85Z"/><circle class="b95d4794-e573-4705-a41c-3199837f8917" cx="197.69" cy="36.59" r="3.45"/><path class="b95d4794-e573-4705-a41c-3199837f8917" d="M41.76,140.89a3.46,3.46,0,1,1,3.46-3.46A3.46,3.46,0,0,1,41.76,140.89Z"/><path class="baf41e23-a597-4017-88e9-ce16c0570018" d="M279.32,90.62a6.08,6.08,0,1,1,6.07-6.08A6.08,6.08,0,0,1,279.32,90.62Z"/><path class="b95d4794-e573-4705-a41c-3199837f8917" d="M96.89,77.32a3.46,3.46,0,1,1,3.45-3.46A3.45,3.45,0,0,1,96.89,77.32Z"/><path class="baf41e23-a597-4017-88e9-ce16c0570018" d="M209.91,209.61a1.21,1.21,0,1,1,1.21-1.21A1.22,1.22,0,0,1,209.91,209.61Z"/><path class="baf41e23-a597-4017-88e9-ce16c0570018" d="M378.66,201.63a1.22,1.22,0,1,1,0-2.43,1.22,1.22,0,0,1,0,2.43Z"/><path class="baf41e23-a597-4017-88e9-ce16c0570018" d="M355.42,160.22a1.22,1.22,0,1,1,1.21-1.21A1.21,1.21,0,0,1,355.42,160.22Z"/><circle class="baf41e23-a597-4017-88e9-ce16c0570018" cx="197.69" cy="238.56" r="3.45"/><path class="baf41e23-a597-4017-88e9-ce16c0570018" d="M328.15,230.09a3.46,3.46,0,1,1,3.45-3.46A3.46,3.46,0,0,1,328.15,230.09Z"/><path class="b95d4794-e573-4705-a41c-3199837f8917" d="M279.32,292.58a6.08,6.08,0,1,1,6.07-6.07A6.08,6.08,0,0,1,279.32,292.58Z"/><path class="b95d4794-e573-4705-a41c-3199837f8917" d="M96.89,279.28a3.46,3.46,0,1,1,3.45-3.45A3.45,3.45,0,0,1,96.89,279.28Z"/><circle class="b95d4794-e573-4705-a41c-3199837f8917" cx="13.78" cy="235.1" r="3.45"/><circle class="b95d4794-e573-4705-a41c-3199837f8917" cx="127.88" cy="233.14" r="9.66"/><circle class="bbe0de08-69e0-4472-a44c-cde2cb2f86da" cx="255.84" cy="140.57" r="6.07"/><path class="aa1a1007-73ed-40ca-b779-d377de6be8b0" d="M191.85,12.4a4.75,4.75,0,0,1,4.75-4.75,4.75,4.75,0,0,1-4.75-4.76,4.76,4.76,0,0,1-4.76,4.76A4.76,4.76,0,0,1,191.85,12.4Z"/><path class="aa1a1007-73ed-40ca-b779-d377de6be8b0" d="M392.79,96.35a4.76,4.76,0,0,1,4.76-4.76,4.76,4.76,0,0,1-4.76-4.75A4.75,4.75,0,0,1,388,91.59,4.75,4.75,0,0,1,392.79,96.35Z"/><path class="bbe0de08-69e0-4472-a44c-cde2cb2f86da" d="M166.74,167.68a4.76,4.76,0,0,1,4.76-4.76,4.76,4.76,0,0,1-4.76-4.75,4.75,4.75,0,0,1-4.75,4.75A4.76,4.76,0,0,1,166.74,167.68Z"/><circle class="bbe0de08-69e0-4472-a44c-cde2cb2f86da" cx="52.06" cy="82.29" r="4.75"/><path class="bbe0de08-69e0-4472-a44c-cde2cb2f86da" d="M291.41,23.93a4.76,4.76,0,0,1,4.76-4.75,4.76,4.76,0,0,1-4.76-4.76,4.76,4.76,0,0,1-4.75,4.76A4.75,4.75,0,0,1,291.41,23.93Z"/><g class="b7fda7a9-252d-4250-b13a-abdc77b6de51"><circle class="af8e0d8e-7961-45ef-a0b9-2332a59834f7" cx="83.32" cy="8.79" r="6.29" transform="translate(18.19 61.49) rotate(-45)"/></g></g><g id="ae616e83-6730-42b6-a7ae-3f3fe739093d" data-name="Neptune"><circle class="be50d5df-c0f4-4b1c-905c-b4dc42d0fbe7" cx="200" cy="150" r="125.95"/><g class="f3fee22b-5c17-4e41-b10a-bfa85ef5b496"><g class="f23a7d36-642f-45bd-b2ad-0de56169aa55"><path class="eedba36f-9949-4fa6-96ec-e4f22bc255ac" d="M166.74,8.79c39.58-3.26,79-3.11,116.17,15.26,7.67,3.8,14.18-9.18,21.32-4.45,9.82,6.51,20.14,13.59,24.92,24.36s1.1,26.16-10.2,29.5c-5.62,1.67-11.64.66-17.35,2.18-4.79,1.28-8.69,5-13.31,6.14-2.5.64-5.11-.21-7.68-.3-5.77-.2-12.5,5.4-18,2.5-2.4-1.27-3.71-4.76-1.95-6.84,2.53-3,9-2.57,12.38-5.09s8.59-6.18,11.47-9.27c2.38-2.56,2.92-6.42,2.24-9.84-2.83-14.35-17.35-16.55-29.52-18.54-12.72-2.08-27.18-6.61-37.42,1.21a6.24,6.24,0,0,0-2.67,3.69c-.56,3.39,3.34,5.6,6.52,6.89A114.74,114.74,0,0,1,245,57.6c1.77,1.2,3.62,2.62,4.14,4.68,1.25,5-5.49,7.87-10.59,8a62.5,62.5,0,0,1-35.78-10.52c-6.31-4.23-12.73-9.91-20.3-9.19C176.9,51.06,172.3,55,167.06,57c-13.31,5-27.72-3.23-39-11.87a11.58,11.58,0,0,0-5-2.67,9.19,9.19,0,0,0-3.75.37c-5,1.35-9.79,4.86-10.87,9.91C106.3,62.56,126.7,68.05,132.17,75c4.09,5.17,7.77,11.89,14.29,12.86,3.44.51,6.86-.8,10.32-1.2,4.46-.52,8.95.49,13.33,1.5l55.33,12.68c9.22,2.11,18.53,4.24,28,4.25,27.74.06,55.48-17.83,81.74-8.93.93,8.57-9.67,13.12-18.1,14.89l-71.63,15.09c-9.26,2-18.66,3.91-28.11,3.37-16.39-.93-31.89-9.31-48.29-8.76-10.87.37-21.22,4.65-32,6.1-19.72,2.66-39.3-4.2-59-7.1-6.63-1-13.73-1.44-19.72,1.56s-10.16,10.58-7.24,16.61c2.57,5.29,9.13,7.2,15,7.53s12-.29,17.36,2.18c4.2,1.94,7.39,5.61,11.49,7.77a27.64,27.64,0,0,0,11.42,2.7c13.69.76,27.2-3.5,40.92-3.77,27.35-.53,54.39,14.73,81.05,8.59,3.46-.8,8.47-1,9.12,2.45.54,2.85-2.75,4.78-5.49,5.73-35.7,12.38-74.05,14-111.56,18.52-2.18.27-4.46.58-6.2,1.92-3.59,2.74-3,8.76.19,12s8,4.13,12.5,4.27c12,.38,24-3.75,35.93-2.33,6.27.75,12.25,3,18.37,4.53,38.57,9.64,78.63-9.63,118.31-7.33,16.05.93,33.86,5,46.95-4.36,2.41-1.72,4.66-4.07,5-7,.91-7.14-8.57-10.46-15.75-10.8a222.6,222.6,0,0,0-39.56,1.62c-3.56.46-7.28,1-10.67-.21-2.87-1-5.17-3.19-7.37-5.3L264,163c6.45-6.06,16.68-3.73,25.52-3.26,23.21,1.22,44.19-13.16,66.92-18,8.65-1.85,19.51-1.37,24,6.28,3.51,6,1.3,13.64,2.21,20.55,1.46,11.11,11.07,20.53,10.13,31.7-.53,6.23-4.32,11.69-8.48,16.36a91.19,91.19,0,0,1-74.18,29.86c-13.6-1.08-26.84-5.24-40.47-5.91a79.82,79.82,0,0,0-41.5,9.37,5.28,5.28,0,0,0-2.42,2.07c-.65,1.31-.15,2.88.42,4.23a41.11,41.11,0,0,0,31.61,24.07c4,.54,18-8.3,21.58-6.49s-4.19,7-6.08,10.54c-1.41,2.68-9.49,7.55-12.44,8.24-14.65,3.45-24.09-.06-39.11.82-12.1.7-27.22-1.42-31.21-12.86-2-5.67-.37-1.91,1.54-7.6s4.14-11.56,3.38-17.51-5.79-11.88-11.75-11.19c-7.22.83-10.28,9.72-16.35,13.71-6.88,4.52-16,1.93-24.18,2.49-7.94.55-15.29,4.16-23,6.28s-16.67,2.49-22.77-2.62c-2.29-1.92-4-5.53-2-7.76a7,7,0,0,1,3.5-1.74l47.75-13.07c4.18-1.15,9.47-5,6.95-8.52a6.34,6.34,0,0,0-3.82-2.07c-13.31-3.28-27.21.14-40.85,1.51s-29.11-.07-38.18-10.34-8.93-25.94-17.67-36.3c-5.63-6.69-14.24-10.25-20.16-16.69-10.68-11.58-10.3-29.24-9-44.93C25.1,110.93,27.1,96.4,37,87.54c6.54-5.84,16.19-8.89,19.61-17,1.31-3.12,1.47-6.58,1.95-9.93,3.2-22.21,21.26-40,41.76-49.11S144.38,10.63,166.74,8.79Z"/></g></g><g class="b16048fb-eed0-4f56-85d8-39e5eec21ef8"><path class="aa5ec00d-4f02-4c95-a68c-7ca2277cb2aa" d="M217.71,263a125.84,125.84,0,0,1-82.9-220.61,125.84,125.84,0,1,0,148.1,202.28A125.26,125.26,0,0,1,217.71,263Z"/></g><g class="b9400401-f354-4c9f-a6e0-0686427fc36a"><path class="a5bca573-de07-4ea8-8d64-e91fde1f4234" d="M200,24.05a125.3,125.3,0,0,0-53.61,12.1,125.79,125.79,0,0,0,149,195.9A125.84,125.84,0,0,0,200,24.05Z"/></g></g></g></svg>