<svg xmlns="http://www.w3.org/2000/svg" xmlns:xlink="http://www.w3.org/1999/xlink" viewBox="0 0 400 300"><defs><style>.aa931bfd-04d0-4ca7-b4ae-a2af455b4adb{fill:none;}.ae809726-bf6c-4700-adbd-1f02349bef95{isolation:isolate;}.eee14772-0de6-4ff4-bba6-fceeca9b16ce{fill:url(#efcddb58-8660-4787-9af0-5e1bd68bdf98);}.f78b7d7c-146f-4172-baaf-21c358284bfc{fill:#29285c;}.b2a320aa-60c2-4701-b1b8-a63ed7e7fe1e{fill:#39285a;}.e4bc90ff-7e2a-4607-865f-157afe3ec566{fill:#111833;}.ec17f325-9ec3-43e4-b601-45441dae605d{fill:#84725c;}.ee3cd3cc-64ae-482b-a560-baa4c752b76f{fill:#765c7e;}.a642547b-23bc-48e8-baf5-8f762c3d884f{fill:#f2dec7;}.e50da1f9-4400-4708-9361-76ca4c3f5bed{fill:#dcb993;}.b2989e9a-49c5-42d9-921b-9b4383faca67{opacity:0.51;}.b23f1362-53b8-4e9d-b0b6-d792098f41bd{fill:#fae1c8;}.a0e4123f-1223-4f16-b9ef-84fbee662106{fill:#56cee3;}.a389ae44-a46b-4387-b4a8-10d7b43e110f,.ea5985f6-c6dd-414a-9246-2860d75b37fa{mix-blend-mode:multiply;}.f6b5729c-2435-4661-b825-f426a936dcd8{clip-path:url(#f694f33e-a7fb-4369-b330-379491b30708);}.b92c0fed-8b31-4b77-a058-518237fb6c2f{fill:#33878e;}.a389ae44-a46b-4387-b4a8-10d7b43e110f,.f5c18da1-1981-4c2b-936e-1cdcb90b21d0{opacity:0.2;}.b185c868-a31f-47a8-87e1-be5ef76af914{fill:#222226;}.f5c18da1-1981-4c2b-936e-1cdcb90b21d0{mix-blend-mode:overlay;}.a9286235-73f7-4588-af22-065b555a410c{fill:#fff;}</style><radialGradient id="efcddb58-8660-4787-9af0-5e1bd68bdf98" cx="200" cy="150" r="250" gradientTransform="translate(40 60) scale(0.8 0.6)" gradientUnits="userSpaceOnUse"><stop offset="0" stop-color="#03384a"/><stop offset="1" stop-color="#010f1e"/></radialGradient><clipPath id="f694f33e-a7fb-4369-b330-379491b30708"><circle class="aa931bfd-04d0-4ca7-b4ae-a2af455b4adb" cx="200" cy="150" r="72.68"/></clipPath></defs><g class="ae809726-bf6c-4700-adbd-1f02349bef95"><g id="a3bd304b-0461-42c0-aa4d-b7c49781c6f3" data-name="OBJECTS"><rect class="eee14772-0de6-4ff4-bba6-fceeca9b16ce" width="400" height="300"/><path class="f78b7d7c-146f-4172-baaf-21c358284bfc" d="M235.76,34.6a1.47,1.47,0,1,1,1.46-1.46A1.46,1.46,0,0,1,235.76,34.6Z"/><path class="f78b7d7c-146f-4172-baaf-21c358284bfc" d="M26.48,62.53A1.47,1.47,0,1,1,28,61.06,1.46,1.46,0,0,1,26.48,62.53Z"/><path class="f78b7d7c-146f-4172-baaf-21c358284bfc" d="M335.77,62.53a1.47,1.47,0,1,1,1.47-1.47A1.46,1.46,0,0,1,335.77,62.53Z"/><path class="f78b7d7c-146f-4172-baaf-21c358284bfc" d="M204.27,276.73a1.47,1.47,0,1,1,1.46-1.46A1.46,1.46,0,0,1,204.27,276.73Z"/><path class="f78b7d7c-146f-4172-baaf-21c358284bfc" d="M36.3,255.72a1.47,1.47,0,1,1,1.46-1.47A1.47,1.47,0,0,1,36.3,255.72Z"/><path class="f78b7d7c-146f-4172-baaf-21c358284bfc" d="M235.76,115.91a4.25,4.25,0,1,1,4.24-4.25A4.25,4.25,0,0,1,235.76,115.91Z"/><path class="f78b7d7c-146f-4172-baaf-21c358284bfc" d="M40.19,284.34a4.25,4.25,0,1,1,4.24-4.25A4.24,4.24,0,0,1,40.19,284.34Z"/><path class="f78b7d7c-146f-4172-baaf-21c358284bfc" d="M392.79,167.17a4.25,4.25,0,1,1,4.25-4.25A4.24,4.24,0,0,1,392.79,167.17Z"/><circle class="f78b7d7c-146f-4172-baaf-21c358284bfc" cx="123.77" cy="118.31" r="4.24"/><path class="f78b7d7c-146f-4172-baaf-21c358284bfc" d="M19.26,204.66a4.25,4.25,0,1,1,4.25-4.25A4.24,4.24,0,0,1,19.26,204.66Z"/><circle class="f78b7d7c-146f-4172-baaf-21c358284bfc" cx="328.15" cy="187.39" r="8.02" transform="translate(70.11 463.46) rotate(-76.66)"/><circle class="f78b7d7c-146f-4172-baaf-21c358284bfc" cx="221.27" cy="159.48" r="6.84" transform="translate(28.41 352.34) rotate(-80.78)"/><circle class="b2a320aa-60c2-4701-b1b8-a63ed7e7fe1e" cx="210.97" cy="263.55" r="6.84" transform="translate(-124.57 226.37) rotate(-45)"/><path class="b2a320aa-60c2-4701-b1b8-a63ed7e7fe1e" d="M369.47,272.37a3.42,3.42,0,1,1,3.42-3.42A3.42,3.42,0,0,1,369.47,272.37Z"/><circle class="b2a320aa-60c2-4701-b1b8-a63ed7e7fe1e" cx="388.1" cy="45.37" r="6.84" transform="translate(337.17 432.78) rotate(-89.18)"/><circle class="b2a320aa-60c2-4701-b1b8-a63ed7e7fe1e" cx="264.67" cy="224.96" r="2.3"/><path class="b2a320aa-60c2-4701-b1b8-a63ed7e7fe1e" d="M75.28,144.94a2.3,2.3,0,1,1,2.3-2.3A2.3,2.3,0,0,1,75.28,144.94Z"/><circle class="b2a320aa-60c2-4701-b1b8-a63ed7e7fe1e" cx="61.4" cy="186.56" r="2.3"/><path class="e4bc90ff-7e2a-4607-865f-157afe3ec566" d="M369.39,17.55a3.28,3.28,0,0,0,1-2.2A4.52,4.52,0,0,0,368,11.18a3.56,3.56,0,0,0-2.5-.69,3.42,3.42,0,0,0-2.3,5.38,6.32,6.32,0,0,0,.93,1.2,8,8,0,0,0,.93.79,3.89,3.89,0,0,0,2.1.53A3.35,3.35,0,0,0,369.39,17.55Z"/><path class="e4bc90ff-7e2a-4607-865f-157afe3ec566" d="M330.8,11.22a2.73,2.73,0,0,0,1.56-.75,1.94,1.94,0,0,0,.6-.81,2.69,2.69,0,0,0,.21-1.34A3.83,3.83,0,0,0,332,6.13l-.49-.31a2.36,2.36,0,0,0-1.77-.06,2.54,2.54,0,0,0-1.26,1.18,2.82,2.82,0,0,0-.57,1.9A2.7,2.7,0,0,0,330.8,11.22Z"/><path class="e4bc90ff-7e2a-4607-865f-157afe3ec566" d="M318.47,50.78c0-5.48-8.52-5.71-8.52-.21S318.47,56.27,318.47,50.78Z"/><path class="e4bc90ff-7e2a-4607-865f-157afe3ec566" d="M369.77,111.64a1.44,1.44,0,0,0-2.88,0A1.44,1.44,0,0,0,369.77,111.64Z"/><path class="e4bc90ff-7e2a-4607-865f-157afe3ec566" d="M249.36,25.73Z"/><path class="e4bc90ff-7e2a-4607-865f-157afe3ec566" d="M249.44,25.82h0l-.08-.09Z"/><path class="e4bc90ff-7e2a-4607-865f-157afe3ec566" d="M253.08,26.41a2.22,2.22,0,0,0-.07-3.09l-.93-.75a2.05,2.05,0,0,0-1.62-.25,2.2,2.2,0,0,0-1.12.72,2.14,2.14,0,0,0,.1,2.78l.16.2c.14.15.27.31.4.46A2.19,2.19,0,0,0,253.08,26.41Z"/><path class="e4bc90ff-7e2a-4607-865f-157afe3ec566" d="M346,223.46c0-2.15-3.35-2.42-3.35-.25S346,225.62,346,223.46Z"/><path class="e4bc90ff-7e2a-4607-865f-157afe3ec566" d="M345.18,98c0-1.15-1.8-1.39-1.8-.22S345.18,99.19,345.18,98Z"/><path class="e4bc90ff-7e2a-4607-865f-157afe3ec566" d="M210.22,144a6.65,6.65,0,0,0,4.4-2.49l.87-1.46a6.55,6.55,0,0,0,.48-3.42,5,5,0,0,0-.87-2.45,5,5,0,0,0-1.62-1.95,5,5,0,0,0-2.28-1.1,5.09,5.09,0,0,0-2.6-.25,6.71,6.71,0,0,0-4.4,2.5l-.86,1.45a6.58,6.58,0,0,0-.49,3.42,5,5,0,0,0,.88,2.46,6,6,0,0,0,3.9,3A4.94,4.94,0,0,0,210.22,144Z"/><path class="e4bc90ff-7e2a-4607-865f-157afe3ec566" d="M251.49,196.91a6.69,6.69,0,0,0,4.4-2.49l.87-1.46a6.58,6.58,0,0,0,.48-3.42,6.78,6.78,0,0,0-7.37-5.75,6.7,6.7,0,0,0-4.4,2.49l-.86,1.46a6.55,6.55,0,0,0-.49,3.42,5,5,0,0,0,.88,2.46,4.89,4.89,0,0,0,1.62,1.94,7.26,7.26,0,0,0,4.87,1.35Z"/><path class="e4bc90ff-7e2a-4607-865f-157afe3ec566" d="M245.9,88.61c0-1.63-2.53-1.92-2.53-.28S245.9,90.25,245.9,88.61Z"/><path class="e4bc90ff-7e2a-4607-865f-157afe3ec566" d="M259.33,279.27a5.14,5.14,0,0,0,1.47-3.47,5.2,5.2,0,0,0-1.46-3.6,5.14,5.14,0,0,0-3.47-1.47,5.07,5.07,0,0,0-3.6,1.46,5,5,0,0,0,0,7.07,5,5,0,0,0,7.07,0Z"/><path class="e4bc90ff-7e2a-4607-865f-157afe3ec566" d="M374.71,182.05a6.22,6.22,0,0,0,3-.91,8.3,8.3,0,0,0,3.91-4.93c.1-.72.21-1.45.31-2.18a7.84,7.84,0,0,0-.33-2.32c.05.07.05,0,0-.25a3.58,3.58,0,0,0-.18-.64,16.8,16.8,0,0,0-1.08-2.25,7.92,7.92,0,0,0-1.64-1.9l-1.82-1.17a8.78,8.78,0,0,0-3.62-.82,8,8,0,0,0-7.34,3.07l-.66.93c-.33.61-.66,1.22-1,1.83l-.45,2,.06,2A5.73,5.73,0,0,0,365,177.2a3.8,3.8,0,0,0,1.27,1.57,3.89,3.89,0,0,0,1.66,1.2,3.66,3.66,0,0,0,.89.48,6.13,6.13,0,0,0,2.68,1.41A6.23,6.23,0,0,0,374.71,182.05Z"/><path class="e4bc90ff-7e2a-4607-865f-157afe3ec566" d="M310.75,199.22c0-3.29-5.1-3.15-5.1.13S310.75,202.49,310.75,199.22Z"/><path class="e4bc90ff-7e2a-4607-865f-157afe3ec566" d="M251.26,197.65a4.58,4.58,0,0,0,1.52-1.21,3.86,3.86,0,0,0,.72-2.68,3.39,3.39,0,0,0,.28-.71,3.7,3.7,0,0,0,.13-1.38,2.47,2.47,0,0,0-.11-1.86l-.38.11c0-.08-.06-.17-.1-.26V190l-8.05,2.28a4.7,4.7,0,0,0,.32,2.4,5.1,5.1,0,0,0,1.18,1.92,4.26,4.26,0,0,0,2.1,1.29A3.55,3.55,0,0,0,251.26,197.65Z"/><path class="e4bc90ff-7e2a-4607-865f-157afe3ec566" d="M217.19,95.43a4.44,4.44,0,0,0,1.51-1.21,3.87,3.87,0,0,0,.73-2.68,3.75,3.75,0,0,0,.28-.71,3.7,3.7,0,0,0,.13-1.38,2.47,2.47,0,0,0-.11-1.86l-.38.11c0-.08-.07-.17-.1-.26l0,.29-8,2.28a4.6,4.6,0,0,0,.32,2.4,4.86,4.86,0,0,0,1.18,1.92,4.28,4.28,0,0,0,2.09,1.29A3.57,3.57,0,0,0,217.19,95.43Z"/><path class="e4bc90ff-7e2a-4607-865f-157afe3ec566" d="M317.45,126.37c0-6-9.26-6.18-9.26-.21S317.45,132.34,317.45,126.37Z"/><path class="e4bc90ff-7e2a-4607-865f-157afe3ec566" d="M335.4,101.38a2.16,2.16,0,0,0-.66-1.64,2.13,2.13,0,0,0-1.91-.68l-1.51.74a1.85,1.85,0,0,0-.85,1.36,1.69,1.69,0,0,0,.51,1.49,2,2,0,0,0,1.34.9l.45.1A2.31,2.31,0,0,0,335.4,101.38Z"/><path class="e4bc90ff-7e2a-4607-865f-157afe3ec566" d="M320.93,176.5c0-5.31-8.28-6.18-8.28-.82S320.93,181.86,320.93,176.5Z"/><path class="e4bc90ff-7e2a-4607-865f-157afe3ec566" d="M149.29,285.47c0-4.41-6.89-5-6.89-.58S149.29,289.94,149.29,285.47Z"/><path class="e4bc90ff-7e2a-4607-865f-157afe3ec566" d="M158.54,195.66c0-4.42-6.88-5-6.88-.59S158.54,200.12,158.54,195.66Z"/><path class="e4bc90ff-7e2a-4607-865f-157afe3ec566" d="M160.4,89.07a8.34,8.34,0,0,0,2.69-3.33,8.55,8.55,0,0,0,.67-4.41c-.69-3.39-2.33-5.62-4.91-6.66a9.34,9.34,0,0,0-3.72-.76,6,6,0,0,0-3.09.42,6.14,6.14,0,0,0-2.74,1.43l-1.43,1.54a6.22,6.22,0,0,0-1.24,3,4,4,0,0,0-.18,2.12,6.21,6.21,0,0,0,.69,3,8.77,8.77,0,0,0,4.58,4.19L152,90A8.34,8.34,0,0,0,160.4,89.07Z"/><path class="e4bc90ff-7e2a-4607-865f-157afe3ec566" d="M128.94,147.54a9,9,0,0,0,1.64,0,8.66,8.66,0,0,0,7.44-4.95c.21-.72.42-1.44.62-2.16a8.28,8.28,0,0,0-.51-4.35l-1-1.88a9.24,9.24,0,0,0-1.33-1.39c.07,0,0,0-.17-.15l0,0h0a8.12,8.12,0,0,0-1.54-1l-.34-.18a4.37,4.37,0,0,0-2.32-.67,8.81,8.81,0,0,0-4.66.59,6.27,6.27,0,0,0-2.61,1.86,6.39,6.39,0,0,0-1.86,2.65,6.46,6.46,0,0,0-.56,3.32,6.28,6.28,0,0,0,.6,3.23,8.52,8.52,0,0,0,4.51,4.46l.85.23a7.13,7.13,0,0,0,1.1.29Z"/><path class="e4bc90ff-7e2a-4607-865f-157afe3ec566" d="M51,235.94a8.2,8.2,0,0,0,1.64,0,6.18,6.18,0,0,0,2.89-.54,6.33,6.33,0,0,0,2.65-1.8A6.35,6.35,0,0,0,60,231c.21-.72.41-1.44.62-2.16a8.32,8.32,0,0,0-.51-4.36l-1-1.87a8.86,8.86,0,0,0-1.33-1.4c.06,0,0,0-.17-.15l0,0h0a8.61,8.61,0,0,0-1.54-.95l-.35-.19a4.28,4.28,0,0,0-2.31-.67,8.81,8.81,0,0,0-4.66.6,6.43,6.43,0,0,0-2.62,1.85,7.56,7.56,0,0,0-2.41,6,6.26,6.26,0,0,0,.6,3.23,8.48,8.48,0,0,0,4.51,4.46l.85.23a6.15,6.15,0,0,0,1.1.29Z"/><path class="e4bc90ff-7e2a-4607-865f-157afe3ec566" d="M212.42,52.35A5.19,5.19,0,0,0,216,50.5l.7-1.13a5.16,5.16,0,0,0,.45-2.57,4,4,0,0,0-.6-1.91,4,4,0,0,0-1.26-1.62A5.13,5.13,0,0,0,208,44l-.7,1.12a5.18,5.18,0,0,0-.45,2.57,3.85,3.85,0,0,0,.61,1.91,3.75,3.75,0,0,0,1.25,1.62A5.2,5.2,0,0,0,212.42,52.35Z"/><path class="e4bc90ff-7e2a-4607-865f-157afe3ec566" d="M171.28,47.67a5.2,5.2,0,0,0,3.53-1.86c.24-.37.47-.75.71-1.13a5,5,0,0,0,.44-2.56,3.81,3.81,0,0,0-.6-1.92,3.86,3.86,0,0,0-1.25-1.62,5.13,5.13,0,0,0-7.23.71l-.7,1.13a5.12,5.12,0,0,0-.45,2.56,3.81,3.81,0,0,0,.6,1.92,4,4,0,0,0,1.26,1.62A5.25,5.25,0,0,0,171.28,47.67Z"/><path class="e4bc90ff-7e2a-4607-865f-157afe3ec566" d="M100.26,41.86a3.52,3.52,0,0,0,1.06-1.51,4.71,4.71,0,0,0,.35-2.43c.07.69.1.83.11.41a5,5,0,0,0-1.21-3.62,4.91,4.91,0,0,0-6.93-.44l-.84,1A4.88,4.88,0,0,0,92,37.59a7.8,7.8,0,0,0,.44,2.7c.21.37.42.75.64,1.12a4.63,4.63,0,0,0,3.76,1.85A4.58,4.58,0,0,0,100.26,41.86Z"/><path class="e4bc90ff-7e2a-4607-865f-157afe3ec566" d="M26.25,92.18c0-4.18-6.48-4.07-6.48.1S26.25,96.36,26.25,92.18Z"/><path class="e4bc90ff-7e2a-4607-865f-157afe3ec566" d="M66.67,109.78c0-4.24-6.57-3.9-6.57.33S66.67,114,66.67,109.78Z"/><path class="e4bc90ff-7e2a-4607-865f-157afe3ec566" d="M220.75,223a5.28,5.28,0,0,0,4.58-3.67,11.67,11.67,0,0,0,.36-1.32,6.57,6.57,0,0,0-.06-2.46,7.47,7.47,0,0,0-3.78-4.94,7.94,7.94,0,0,0-7,.46,7,7,0,0,0-2.92,7.71c.54,2.42,2.56,4.89,5.1,5.31A4.08,4.08,0,0,0,220.75,223Z"/><path class="e4bc90ff-7e2a-4607-865f-157afe3ec566" d="M392.77,252.55a6.32,6.32,0,0,0,4.17-2.09c.29-.45.59-.89.89-1.34a6.18,6.18,0,0,0,.62-3.22,4.55,4.55,0,0,0-.69-2.28,4.64,4.64,0,0,0-1.4-1.89,4.51,4.51,0,0,0-2.12-1.15,4.61,4.61,0,0,0-2.44-.36,6.23,6.23,0,0,0-4.16,2.09c-.3.44-.6.88-.89,1.33a6.19,6.19,0,0,0-.63,3.22,6.92,6.92,0,0,0,2.09,4.17,4.66,4.66,0,0,0,2.12,1.16A4.83,4.83,0,0,0,392.77,252.55Z"/><path class="e4bc90ff-7e2a-4607-865f-157afe3ec566" d="M344.94,261.63c0-5.24-8.2-6.31-8.2-1S344.94,266.94,344.94,261.63Z"/><path class="e4bc90ff-7e2a-4607-865f-157afe3ec566" d="M384.08,73.92a7.5,7.5,0,0,0,.1-10.61,8.4,8.4,0,0,0-5.28-2.25,7.59,7.59,0,0,0-5.33,2.15,7.5,7.5,0,0,0-.1,10.61A5.6,5.6,0,0,0,376,75.43a5.49,5.49,0,0,0,2.79.64A7.51,7.51,0,0,0,384.08,73.92Z"/><path class="e4bc90ff-7e2a-4607-865f-157afe3ec566" d="M127.63,249.88c0-4.2-6.51-4-6.51.16S127.63,254.07,127.63,249.88Z"/><path class="e4bc90ff-7e2a-4607-865f-157afe3ec566" d="M12.54,46.36a3.53,3.53,0,0,0,2.22-1.48,3.39,3.39,0,0,0,.53-2.58,3.39,3.39,0,0,0-.13-1.24,3.31,3.31,0,0,0-1.55-2A2.92,2.92,0,0,0,11,38.88l-.71.4a3,3,0,0,0-1,1.24c.56-1.17.58-1.43.06-.77a2.68,2.68,0,0,0-.75,1.17A8,8,0,0,0,8.36,42a4.11,4.11,0,0,0,.07,1.6,3.7,3.7,0,0,0,1.49,2.22A3.56,3.56,0,0,0,12.54,46.36Z"/><path class="e4bc90ff-7e2a-4607-865f-157afe3ec566" d="M51.74,39.85A2.48,2.48,0,0,0,51,38.79,3.42,3.42,0,0,0,49.55,38h0a3,3,0,0,0-4,3.82Q53.51,43.16,51.74,39.85Z"/><path class="e4bc90ff-7e2a-4607-865f-157afe3ec566" d="M11.72,159.74A8.08,8.08,0,0,0,17,156.86L18.16,155a8,8,0,0,0,.64-4.15,6,6,0,0,0-1-2.89,6.08,6.08,0,0,0-1.91-2.42,6.09,6.09,0,0,0-2.87-1.43,6,6,0,0,0-3.11-.34,8.08,8.08,0,0,0-5.31,2.88L3.5,148.51a8,8,0,0,0-.64,4.15,6.11,6.11,0,0,0,1,2.89A6.08,6.08,0,0,0,5.74,158a6,6,0,0,0,2.87,1.43A6,6,0,0,0,11.72,159.74Z"/><path class="e4bc90ff-7e2a-4607-865f-157afe3ec566" d="M45.82,162.47a2.28,2.28,0,0,0,.91-1.46,2.24,2.24,0,0,0-.4-1.72c-.13-.15-.26-.29-.4-.43a2.28,2.28,0,0,0-1.06-.48l-2,.41a2.06,2.06,0,0,0,.23,3.77c.32.11.65.22,1,.31A2.24,2.24,0,0,0,45.82,162.47Z"/><path class="e4bc90ff-7e2a-4607-865f-157afe3ec566" d="M104.16,217.43l1.14-.23.62-.31a2,2,0,0,0,.69-.73,2.55,2.55,0,0,0,.43-1.59,2.65,2.65,0,0,0-2.09-2.38l-.89-.15a2.72,2.72,0,1,0,.1,5.39Z"/><path class="e4bc90ff-7e2a-4607-865f-157afe3ec566" d="M95.49,181.55a2.29,2.29,0,0,0,1.21-.76A4.23,4.23,0,0,0,97.88,178a4,4,0,0,0-1.12-2.75,4.08,4.08,0,0,0-4.46-.79l-.3.13-.13.09-.12.08a5.19,5.19,0,0,0-.46.36l-.09.07h0a.81.81,0,0,0-.14.12,4.67,4.67,0,0,0-1.24,3.18,4,4,0,0,0,2.84,4A2.47,2.47,0,0,0,95.49,181.55Z"/><path class="e4bc90ff-7e2a-4607-865f-157afe3ec566" d="M68.11,274.32a4.09,4.09,0,0,0,1.49-2.82,4.47,4.47,0,0,0-.95-3.05A4.21,4.21,0,0,0,65.83,267a4.25,4.25,0,0,0-3,.94,4.1,4.1,0,0,0-1.48,2.82,4.46,4.46,0,0,0,.94,3,4.21,4.21,0,0,0,2.82,1.49A4.25,4.25,0,0,0,68.11,274.32Z"/><path class="e4bc90ff-7e2a-4607-865f-157afe3ec566" d="M301.5,258.73a7.75,7.75,0,0,0,5.14-2.84c.35-.59.7-1.18,1.06-1.77a7.69,7.69,0,0,0,.56-3.88,8.46,8.46,0,0,0-2.84-5.13,8.5,8.5,0,0,0-5.64-1.63,7.72,7.72,0,0,0-5.14,2.85l-1.05,1.76A7.6,7.6,0,0,0,293,252a5.8,5.8,0,0,0,.94,2.78,5.88,5.88,0,0,0,1.9,2.36,5.81,5.81,0,0,0,2.73,1.32A5.74,5.74,0,0,0,301.5,258.73Z"/><path class="e4bc90ff-7e2a-4607-865f-157afe3ec566" d="M215,99.85A7.67,7.67,0,0,0,220.13,97c.35-.59.7-1.18,1.06-1.76a7.7,7.7,0,0,0,.56-3.88,5.7,5.7,0,0,0-.94-2.78,5.88,5.88,0,0,0-1.9-2.36,5.73,5.73,0,0,0-2.72-1.32,5.79,5.79,0,0,0-2.92-.3,7.75,7.75,0,0,0-5.14,2.84l-1.06,1.77a7.65,7.65,0,0,0-.56,3.87,8.52,8.52,0,0,0,2.84,5.14,5.84,5.84,0,0,0,2.72,1.33A5.68,5.68,0,0,0,215,99.85Z"/><path class="e4bc90ff-7e2a-4607-865f-157afe3ec566" d="M174.94,42.66a3.92,3.92,0,0,0-1.24-2.48l.05.09a2.58,2.58,0,0,0-.32-.34,4,4,0,0,0-5.69.34,4.46,4.46,0,0,0-1,3L174,45.37A3.66,3.66,0,0,0,174.94,42.66Z"/><path class="ec17f325-9ec3-43e4-b601-45441dae605d" d="M209.91,7.65a1.22,1.22,0,1,1,0-2.43,1.22,1.22,0,0,1,0,2.43Z"/><path class="ec17f325-9ec3-43e4-b601-45441dae605d" d="M179.86,208.2a1.22,1.22,0,0,1,0-2.43,1.22,1.22,0,1,1,0,2.43Z"/><path class="ec17f325-9ec3-43e4-b601-45441dae605d" d="M310.75,165.85a1.22,1.22,0,1,1,1.21-1.21A1.21,1.21,0,0,1,310.75,165.85Z"/><circle class="ee3cd3cc-64ae-482b-a560-baa4c752b76f" cx="197.69" cy="36.59" r="3.45"/><path class="ee3cd3cc-64ae-482b-a560-baa4c752b76f" d="M41.76,140.89a3.46,3.46,0,1,1,3.46-3.46A3.46,3.46,0,0,1,41.76,140.89Z"/><path class="ec17f325-9ec3-43e4-b601-45441dae605d" d="M279.32,90.62a6.08,6.08,0,1,1,6.07-6.08A6.08,6.08,0,0,1,279.32,90.62Z"/><path class="ee3cd3cc-64ae-482b-a560-baa4c752b76f" d="M96.89,77.32a3.46,3.46,0,1,1,3.45-3.46A3.45,3.45,0,0,1,96.89,77.32Z"/><path class="ec17f325-9ec3-43e4-b601-45441dae605d" d="M209.91,209.61a1.21,1.21,0,1,1,1.21-1.21A1.22,1.22,0,0,1,209.91,209.61Z"/><path class="ec17f325-9ec3-43e4-b601-45441dae605d" d="M378.66,201.63a1.22,1.22,0,1,1,0-2.43,1.22,1.22,0,0,1,0,2.43Z"/><path class="ec17f325-9ec3-43e4-b601-45441dae605d" d="M355.42,160.22a1.22,1.22,0,1,1,1.21-1.21A1.21,1.21,0,0,1,355.42,160.22Z"/><circle class="ec17f325-9ec3-43e4-b601-45441dae605d" cx="197.69" cy="238.56" r="3.45"/><path class="ec17f325-9ec3-43e4-b601-45441dae605d" d="M328.15,230.09a3.46,3.46,0,1,1,3.45-3.46A3.46,3.46,0,0,1,328.15,230.09Z"/><path class="ee3cd3cc-64ae-482b-a560-baa4c752b76f" d="M279.32,292.58a6.08,6.08,0,1,1,6.07-6.07A6.08,6.08,0,0,1,279.32,292.58Z"/><path class="ee3cd3cc-64ae-482b-a560-baa4c752b76f" d="M96.89,279.28a3.46,3.46,0,1,1,3.45-3.45A3.45,3.45,0,0,1,96.89,279.28Z"/><circle class="ee3cd3cc-64ae-482b-a560-baa4c752b76f" cx="13.78" cy="235.1" r="3.45"/><circle class="ee3cd3cc-64ae-482b-a560-baa4c752b76f" cx="127.88" cy="233.14" r="9.66"/><circle class="a642547b-23bc-48e8-baf5-8f762c3d884f" cx="255.84" cy="140.57" r="6.07"/><path class="e50da1f9-4400-4708-9361-76ca4c3f5bed" d="M191.85,12.4a4.75,4.75,0,0,1,4.75-4.75,4.75,4.75,0,0,1-4.75-4.76,4.76,4.76,0,0,1-4.76,4.76A4.76,4.76,0,0,1,191.85,12.4Z"/><path class="e50da1f9-4400-4708-9361-76ca4c3f5bed" d="M392.79,96.35a4.76,4.76,0,0,1,4.76-4.76,4.76,4.76,0,0,1-4.76-4.75A4.75,4.75,0,0,1,388,91.59,4.75,4.75,0,0,1,392.79,96.35Z"/><path class="a642547b-23bc-48e8-baf5-8f762c3d884f" d="M166.74,167.68a4.76,4.76,0,0,1,4.76-4.76,4.76,4.76,0,0,1-4.76-4.75,4.75,4.75,0,0,1-4.75,4.75A4.76,4.76,0,0,1,166.74,167.68Z"/><circle class="a642547b-23bc-48e8-baf5-8f762c3d884f" cx="52.06" cy="82.29" r="4.75"/><path class="a642547b-23bc-48e8-baf5-8f762c3d884f" d="M291.41,23.93a4.76,4.76,0,0,1,4.76-4.75,4.76,4.76,0,0,1-4.76-4.76,4.76,4.76,0,0,1-4.75,4.76A4.75,4.75,0,0,1,291.41,23.93Z"/><g class="b2989e9a-49c5-42d9-921b-9b4383faca67"><circle class="b23f1362-53b8-4e9d-b0b6-d792098f41bd" cx="83.32" cy="8.79" r="6.29" transform="translate(18.19 61.49) rotate(-45)"/></g></g><g id="ee134fed-3f9e-47df-b8ca-bc53fe729632" data-name="Pluto"><circle class="a0e4123f-1223-4f16-b9ef-84fbee662106" cx="200" cy="150" r="72.68"/><g class="ea5985f6-c6dd-414a-9246-2860d75b37fa"><g class="f6b5729c-2435-4661-b825-f426a936dcd8"><path class="b92c0fed-8b31-4b77-a058-518237fb6c2f" d="M220.43,244.87C230,250.29,268,246.73,269,232c.28-4.32-3.25-8.2-7.37-9.56s-8.62-.68-12.79.47-8.26,2.77-12.56,3.3c-3.92.48-7.92.05-11.82.7s-7.93,2.73-9.28,6.45C213.63,237.63,216.43,242.59,220.43,244.87Z"/><path class="a0e4123f-1223-4f16-b9ef-84fbee662106" d="M167.77,72.65c9.66-3.79,22-5.93,29.3,1.44,6.6,6.66,5.31,18.33-.42,25.75s-14.67,11.53-23.38,15c-6.8,2.72-21.33,7.84-13,18,5.58,6.88,17.43,3.32,24.6,8.52,6.32,4.58,2.15,9.26,3.86,14.69,2,6.33,5.56,4.64,11.77,5.49,5.88.79,10,7.37,9.52,13.09-.58,6.59-5.72,7.63-9.7,12.34-1.83,2.18-2.83,5.43-1.37,7.86,1.58,2.65,5.18,3.14,8.26,3,8.29-.27,16.36-2.68,24.57-3.89s17.11-1.05,24.16,3.34c6.29,3.91,10.26,10.71,12.75,17.69,1.87,5.2,3,10.91,1.56,16.24-1.95,7-8.12,12-14.39,15.78-28.63,17.05-66.94,16.25-94.83-2-9.17-6-17.9-15.33-16.93-26.23.33-3.78,1.13-8.89-2.42-10.2l23.73-12.74a14.59,14.59,0,0,0,4.78-3.48c3.08-3.89,1.21-10.09-2.79-13s-9.31-3.33-14.25-2.93-9.88,1.48-14.82,1c-14-1.26-23.84-13.85-31.9-25.37-6.64-9.48-4.24-17.37,1.12-26.42,6.6-11.14,6.57-24.3,18.4-31.69A258.27,258.27,0,0,1,167.77,72.65Z"/><path class="a0e4123f-1223-4f16-b9ef-84fbee662106" d="M215.92,83.28c3.53,3.14,8.76,4.18,11.62,7.94,4.43,5.85.56,14.29-4.17,19.91-4.34,5.16-9.41,9.75-13.06,15.41s-5.77,12.88-3.43,19.2c3.23,8.74,13.34,12.54,22.42,14.62s19.19,4,24.84,11.4c7.47,9.79,4,25.34,12.46,34.27,4.95,5.22,12.89,6.63,20,5.44,16.88-2.84,29.9-20.31,27.78-37.3s-19-30.74-36.1-29.34c-5.89.49-12.36,2.4-17.36-.76-4.16-2.63-5.76-8.09-5.26-13s2.67-9.44,4.59-14c5.17-12.27,8.59-25.94,5.47-38.89-3.08-12.76-17-29.31-31.52-27.35C221.49,52.6,202.08,71,215.92,83.28Z"/></g></g><g class="a389ae44-a46b-4387-b4a8-10d7b43e110f"><path class="b185c868-a31f-47a8-87e1-be5ef76af914" d="M212.45,213.69A72.61,72.61,0,0,1,164.08,86.86a72.64,72.64,0,1,0,84.29,117.29A72.31,72.31,0,0,1,212.45,213.69Z"/></g><g class="f5c18da1-1981-4c2b-936e-1cdcb90b21d0"><path class="a9286235-73f7-4588-af22-065b555a410c" d="M200,77.32A72.53,72.53,0,0,0,171.84,83a72.65,72.65,0,0,0,81.22,116.58A72.6,72.6,0,0,0,200,77.32Z"/></g></g></g></svg>