<svg xmlns="http://www.w3.org/2000/svg" xmlns:xlink="http://www.w3.org/1999/xlink" viewBox="0 0 200.64 250"><defs><style>.a3f657f9-16f2-41a9-b918-c46322096f06{fill:none;}.bbe4c7f6-77f6-4b20-b3b1-db209c62b22c{isolation:isolate;}.f6dd41da-6fe6-40be-a9d5-dd217f73d42e{clip-path:url(#b37fab03-b7ef-4427-ba3d-cf45bc8710bb);}.e4655d1d-323a-408a-ac35-03a973a80caf{fill:#1d1625;}.b16dd3cb-fa0f-44c4-940e-b70687ced1f0{opacity:0.4;fill:url(#aca17ecf-3797-480b-9065-c1c7fb71a2f8);}.a045e7f3-9597-41f8-be37-760e94b579cf,.a119f989-0c30-426c-92ce-362e7111d6bd,.a23589c8-45ea-40ce-a13b-bcdadba02370,.a3f831bf-3dd4-4b68-a211-270d6096c8ea,.a57cc0bd-2330-4d3c-92ce-62e4d71d9d43,.a73278cc-13dd-4832-806e-171cefd40d8b,.a82ea78f-380c-4fe2-8e6e-bb10c389dcbc,.a85764ef-9707-4e54-af8a-dbd2daeca4c3,.a8732d4d-0d9a-463c-bffa-942b50a0a028,.a97ee70f-40a4-4b84-bdb3-8a43c9c72c12,.a9834f18-2dff-42ea-86e0-8905d8a2672b,.aafecb71-e23c-4340-ad4f-b810d5b606eb,.ab1dda83-258b-45e4-bd2f-c37651244d0d,.ac9c0882-3f86-48da-b0bb-8e01a9ad1f3c,.accd25b9-1ad0-43f7-9a03-2142d1f326c0,.ad1e70d0-25c7-48b8-a967-b0425384bb49,.afc6e715-2716-4a30-90e7-2422d7f7a7f5,.b0f2191f-8855-4709-bf0c-d9c4c85101b1,.b16dd3cb-fa0f-44c4-940e-b70687ced1f0,.b1c27cd4-4fff-4c85-8fca-1f2d7afdd9d5,.b28b882e-5812-4b3a-bbaf-7e4b16fd4505,.b2aa7eaa-1398-4744-9a35-f4eb1d34055f,.b484823a-fdf8-4a98-84c2-6385effc8a8f,.b49c9eda-dc5c-4457-92b1-602d39289f60,.b5137f12-11af-491b-9419-ed5771a38622,.b55738b8-edb9-43d5-bc2a-48ed1a375600,.b63dddd8-6133-4271-b0ac-2b25d3c6ad43,.b7fbf639-3252-4a80-aff4-ce2e60cc21ab,.b9fbb77f-a61c-4ef5-a202-75919fb4033c,.ba6e07e1-e487-4bae-abc3-c5686f15e87a,.bc121899-54d5-4711-9504-3ecde57ea83a,.bc142593-166a-42c9-87c5-75803150f053,.bc71ab15-074e-4b86-b7ca-c92ea9e043af,.be2668e8-15b5-4e4f-a254-b8fdbab0cee4,.bff4b54a-4858-4d5c-a5ca-33a91072ec66,.e589f2a3-3d85-407d-9728-5e7f1b9a8745,.e59a76f0-5c9b-4512-b98a-40da11c39260,.e677d589-f4ae-46c0-8d52-bc8c4cf5379a,.e7fbb1cd-7e4a-461c-a4f1-76cfc590250f,.e909a6f6-3be8-47d0-a9c0-76870987b26a,.eac86af4-03ad-42cb-8f6a-6ce5efaaac95,.eb35a0dd-2fec-4138-a4ef-f9f82cd48013,.eb915531-997b-4165-afac-6cb202c66089,.eb96a48c-2513-4b0e-baa6-3bb296288b9b,.ecabdff4-6a07-4d16-9b47-349ef922ce84,.f0f0f105-08f9-40c8-942d-5e4998eb06d2,.f1de81e8-8667-4c27-827b-3fc247c20ad1,.f1decca8-7268-439e-8eff-46dad073c3c9,.f3972fc8-a0ec-4be8-93b0-0aa87eded35a,.f6f08489-49d1-48ca-8a13-18eb22874181,.f790860c-13df-4275-84ee-14ec34ee01c1,.f8a9918c-bac9-41e1-8339-74efbcabd76e,.f8c96814-8f15-4b19-8d1b-281b48b10952,.f90c7fdd-dcee-422b-aca8-507831ae1a1a,.fb65ace6-1d23-4d4a-b62d-8e3f816ac00e,.fe382533-54f5-4dec-8a32-2da1185b15a6{mix-blend-mode:screen;}.ab1dda83-258b-45e4-bd2f-c37651244d0d,.ac9c0882-3f86-48da-b0bb-8e01a9ad1f3c,.b9fbb77f-a61c-4ef5-a202-75919fb4033c{opacity:0.2;}.b9fbb77f-a61c-4ef5-a202-75919fb4033c{fill:url(#a53c49b7-88c7-4e15-88bd-845ef444feac);}.ab1dda83-258b-45e4-bd2f-c37651244d0d{fill:url(#ea778833-6c3f-4a80-b560-5269aec89795);}.ac9c0882-3f86-48da-b0bb-8e01a9ad1f3c{fill:url(#f8a83664-d4fe-40d6-95e0-84fb8a2aa5ae);}.fe382533-54f5-4dec-8a32-2da1185b15a6{fill:url(#e560830c-888f-455c-aab9-b1f6526ad10a);}.aafecb71-e23c-4340-ad4f-b810d5b606eb{fill:url(#f308074f-3323-4976-b01e-dc06020e55e1);}.b63dddd8-6133-4271-b0ac-2b25d3c6ad43{fill:url(#a2e785e4-fad8-407d-8081-b074279143f3);}.a57cc0bd-2330-4d3c-92ce-62e4d71d9d43{fill:url(#b7388d89-bd9e-417e-9b2d-21c6854f02b9);}.ecabdff4-6a07-4d16-9b47-349ef922ce84{fill:url(#a1246303-caad-4e7f-be2c-83c08cf8a4ed);}.bc121899-54d5-4711-9504-3ecde57ea83a{fill:url(#aceae27b-80f5-462b-b5cd-abc5249993d0);}.ba6e07e1-e487-4bae-abc3-c5686f15e87a{fill:url(#a82f4df7-7a0c-4a6d-9eeb-1530c4838e01);}.b484823a-fdf8-4a98-84c2-6385effc8a8f{fill:url(#ae510b0d-1d6b-4be0-bcc7-ffc2de6273cd);}.f6f08489-49d1-48ca-8a13-18eb22874181{fill:url(#ae4d95f6-2876-4195-8f01-30a1f3b7c99c);}.b266cf05-503b-459a-a8ee-1b6ae60a27ec{fill:#fff;}.e909a6f6-3be8-47d0-a9c0-76870987b26a{fill:url(#a5e16ba7-812b-4693-adbb-125bf5928d59);}.b5137f12-11af-491b-9419-ed5771a38622{fill:url(#eca2d661-52c6-417b-bcad-404d69559b5a);}.b28b882e-5812-4b3a-bbaf-7e4b16fd4505{fill:url(#b04685fb-6d50-4232-86d7-a89353a6eb81);}.eb35a0dd-2fec-4138-a4ef-f9f82cd48013{fill:url(#be57602d-4af6-46ce-b46f-fef531986a2e);}.bc142593-166a-42c9-87c5-75803150f053{fill:url(#ee0724ed-1d67-42d4-ab7d-fbfc3515def5);}.be2668e8-15b5-4e4f-a254-b8fdbab0cee4{fill:url(#a18ee0e9-390e-486c-819a-99c94caf56c8);}.e589f2a3-3d85-407d-9728-5e7f1b9a8745{fill:url(#af29983b-1c86-4dd3-aca8-3b06924ef2f1);}.fb65ace6-1d23-4d4a-b62d-8e3f816ac00e{fill:url(#b4ff4f87-d875-484e-b867-67f1bae2da3f);}.a9834f18-2dff-42ea-86e0-8905d8a2672b{fill:url(#a5b1b03a-3d1f-470d-9cf5-90975959953b);}.b55738b8-edb9-43d5-bc2a-48ed1a375600{fill:url(#ba8fac9f-015c-4634-8f13-74fdbc7a25d3);}.f8c96814-8f15-4b19-8d1b-281b48b10952{fill:url(#f8f10ca7-8d1a-4797-9905-d1d7049750d5);}.f1de81e8-8667-4c27-827b-3fc247c20ad1{fill:url(#b8481b80-bdf9-42b9-bc52-021db946fa25);}.b7fbf639-3252-4a80-aff4-ce2e60cc21ab{fill:url(#ac0bd51e-5ed0-4492-98ff-59dff2104f1f);}.e59a76f0-5c9b-4512-b98a-40da11c39260{fill:url(#e587949d-e7a6-4153-a0af-d64cb8945906);}.ad1e70d0-25c7-48b8-a967-b0425384bb49{fill:url(#b21cb12a-992f-4bc0-96be-7a7465505f13);}.bc71ab15-074e-4b86-b7ca-c92ea9e043af{fill:url(#a9d4e022-3a6e-4b6c-8924-85e01454fb5d);}.e677d589-f4ae-46c0-8d52-bc8c4cf5379a{fill:url(#a325774e-eaa0-4634-b74e-1ab26b604da5);}.a3f831bf-3dd4-4b68-a211-270d6096c8ea{fill:url(#a63310ca-21c5-4c18-acb1-04c262c3a01f);}.a82ea78f-380c-4fe2-8e6e-bb10c389dcbc{fill:url(#e2fd2b07-b934-4b01-82b4-b83662939897);}.a045e7f3-9597-41f8-be37-760e94b579cf{fill:url(#adfe6a52-71b1-4ba7-bbd5-95a04c5744cd);}.a8732d4d-0d9a-463c-bffa-942b50a0a028{fill:url(#ee888042-2711-4958-80ad-fec65f1986d4);}.f0f0f105-08f9-40c8-942d-5e4998eb06d2{fill:url(#f11d8b8f-ccfb-4119-a358-233a6bff4cec);}.a97ee70f-40a4-4b84-bdb3-8a43c9c72c12{fill:url(#b59443e7-fe04-4e16-857d-ed4d67f0fc23);}.e7fbb1cd-7e4a-461c-a4f1-76cfc590250f{fill:url(#b20eed2c-3b0d-46b6-beff-3b02db40028b);}.eac86af4-03ad-42cb-8f6a-6ce5efaaac95{fill:url(#ac285cb0-879f-4a45-b1f7-5a931c7101f7);}.eb915531-997b-4165-afac-6cb202c66089{fill:url(#b736ade2-5b8a-4048-a912-5041bd6640a1);}.accd25b9-1ad0-43f7-9a03-2142d1f326c0{fill:url(#e3b25256-4de6-4d15-b305-c5b3019e0fb4);}.b0f2191f-8855-4709-bf0c-d9c4c85101b1{fill:url(#f4618d2e-9176-46f3-b70f-9a49b9c891f9);}.a73278cc-13dd-4832-806e-171cefd40d8b{fill:url(#eb8bcb11-82e8-4b55-a01d-e3c0dc00e53f);}.f790860c-13df-4275-84ee-14ec34ee01c1{fill:url(#e7f33d4f-2329-4517-837f-2f7fcda77ca1);}.b1c27cd4-4fff-4c85-8fca-1f2d7afdd9d5{fill:url(#abd4a8fc-4c68-4a98-80ff-9f04a75198db);}.b49c9eda-dc5c-4457-92b1-602d39289f60{fill:url(#b40b68c7-d321-4012-8475-e1ce54c72d0e);}.f3972fc8-a0ec-4be8-93b0-0aa87eded35a{fill:url(#fd864712-14b7-4fc5-8eab-0a372d338513);}.eb96a48c-2513-4b0e-baa6-3bb296288b9b{fill:url(#f6897d25-c598-44af-8515-ba8e05c286fd);}.a85764ef-9707-4e54-af8a-dbd2daeca4c3{fill:url(#fce7f570-df71-42b7-a8b7-ceb28bf39b89);}.f1decca8-7268-439e-8eff-46dad073c3c9{fill:url(#e417c749-35df-443c-ad88-9d5b03806c94);}.bff4b54a-4858-4d5c-a5ca-33a91072ec66{fill:url(#b65c9143-a8c2-49a3-a31c-db173894e640);}.a119f989-0c30-426c-92ce-362e7111d6bd{fill:url(#a7bbed7f-e6a0-4ca4-baf3-a63f89949fe0);}.a23589c8-45ea-40ce-a13b-bcdadba02370{fill:url(#b41564f1-5bcd-49d8-8e4e-34ed5e078499);}.b2aa7eaa-1398-4744-9a35-f4eb1d34055f{fill:url(#ee38b38c-daf9-4168-9053-d8528a7509a2);}.f90c7fdd-dcee-422b-aca8-507831ae1a1a{fill:url(#bee0c5b4-0e5d-467e-9588-2c8800b00799);}.afc6e715-2716-4a30-90e7-2422d7f7a7f5{fill:url(#ae037d63-1adc-4957-966c-d4947e6d6e65);}.f8a9918c-bac9-41e1-8339-74efbcabd76e{fill:url(#bab9a833-9d8e-40bb-a286-11eb76feb67b);}.e26f2ef0-5475-4963-aed0-641440a760ec{fill:#883600;}.a75773e8-c1b1-4d77-9a17-7cb7e597a592,.a87e7b3a-0b0f-4a58-864e-5fc575010185{fill:#d15600;}.a87e7b3a-0b0f-4a58-864e-5fc575010185,.f43fd995-a3df-415f-a4fe-fcd1f7b722fc{mix-blend-mode:multiply;}.a4e1cd91-f4c6-42ef-8a1d-f1604af0fdc4,.f43fd995-a3df-415f-a4fe-fcd1f7b722fc{fill:#ec9a00;}.bf08d8aa-3568-41d5-abe8-646084862258{fill:#000024;}.e22a04d4-a797-4d84-a5e3-f315521b30f5{fill:#060636;}.b3fe6b5b-cd5c-4aa2-b6b5-f13cde0bbc40{fill:#72729e;}.b6a6b5e4-89a5-4704-8baa-1987b87732b4{fill:#000010;}.ae07678d-bd45-488d-83df-62859d70aca0{fill:#632300;}.b01d0f2f-7797-4c7b-b87f-ec9dce6fc5be{fill:#dfe8e2;}.a99e4d52-a2a5-409c-952c-75691b3f39fd{fill:#c7cfcb;}.a0c34756-b30a-4b18-b33a-67e7b03ce8c2{fill:#8a918e;}.e0b859fd-658f-4c35-9bc1-1a45a435745a{fill:#a4a9a6;}.f3bec3f3-6899-4b76-a0ba-2ac50edfeccf{fill:#d1d9d3;}.a2860cb9-afe6-4345-beca-b2d4b1978837{fill:#ceffff;}.ffff9d49-7095-45d6-b834-b6bceb117e4c{fill:#2d3645;}.acaefcdf-47be-4b2c-b63c-8167a08da24c{fill:#7f8581;}.a2a31d17-dfd3-4ef0-8b2e-7819c015cbc1{fill:#0a1019;}.a17ac7be-f041-42ed-a406-af6f22c115be{fill:#646a68;}.bca4cac6-4624-46d7-a59c-c46085c843d9{fill:#737675;}.f2bff086-fe08-43e7-94a0-c1990d9fc4ec{fill:#bd5700;}.ec5610f8-3944-4cee-ba45-e7bb97ae1e90{fill:#688299;}</style><clipPath id="b37fab03-b7ef-4427-ba3d-cf45bc8710bb"><rect class="a3f657f9-16f2-41a9-b918-c46322096f06" x="-0.67" width="201.31" height="251.64"/></clipPath><linearGradient id="aca17ecf-3797-480b-9065-c1c7fb71a2f8" x1="69.69" y1="57.01" x2="88.81" y2="192.58" gradientTransform="matrix(0.88, -0.34, -0.08, 0.58, -19.38, 5.77)" gradientUnits="userSpaceOnUse"><stop offset="0" stop-color="#cbb39f"/><stop offset="0.01" stop-color="#c6ae9b"/><stop offset="0.1" stop-color="#988677"/><stop offset="0.19" stop-color="#6f6257"/><stop offset="0.29" stop-color="#4d433c"/><stop offset="0.39" stop-color="#312b26"/><stop offset="0.5" stop-color="#1b1815"/><stop offset="0.62" stop-color="#0c0a09"/><stop offset="0.76" stop-color="#030202"/><stop offset="0.97"/></linearGradient><linearGradient id="a53c49b7-88c7-4e15-88bd-845ef444feac" x1="85.68" y1="300.62" x2="182.08" y2="402.97" gradientTransform="matrix(0.96, -0.62, 0.36, 0.56, -164.03, 56.09)" gradientUnits="userSpaceOnUse"><stop offset="0" stop-color="#874f12"/><stop offset="0.13" stop-color="#804b11"/><stop offset="0.33" stop-color="#6c3f0e"/><stop offset="0.56" stop-color="#4b2c0a"/><stop offset="0.82" stop-color="#1d1104"/><stop offset="0.97"/></linearGradient><linearGradient id="ea778833-6c3f-4a80-b560-5269aec89795" x1="153.29" y1="180.49" x2="274.63" y2="309.33" gradientTransform="matrix(1.03, -0.49, 0.28, 0.6, -189.26, 17.56)" xlink:href="#a53c49b7-88c7-4e15-88bd-845ef444feac"/><linearGradient id="f8a83664-d4fe-40d6-95e0-84fb8a2aa5ae" x1="154.82" y1="11.73" x2="70.54" y2="272.23" gradientTransform="translate(-18.18 18.9) rotate(-24.59)" gradientUnits="userSpaceOnUse"><stop offset="0" stop-color="#874f12"/><stop offset="0.08" stop-color="#653b0e"/><stop offset="0.18" stop-color="#462909"/><stop offset="0.28" stop-color="#2c1a06"/><stop offset="0.4" stop-color="#190e03"/><stop offset="0.53" stop-color="#0b0601"/><stop offset="0.69" stop-color="#020100"/><stop offset="0.97"/></linearGradient><radialGradient id="e560830c-888f-455c-aab9-b1f6526ad10a" cx="328.06" cy="-29.39" r="2.54" gradientTransform="translate(217.92 341.77) rotate(-99.11)" gradientUnits="userSpaceOnUse"><stop offset="0" stop-color="#fff"/><stop offset="0.06" stop-color="#ffae00"/><stop offset="0.13" stop-color="#dd8e00"/><stop offset="0.2" stop-color="#b17300"/><stop offset="0.28" stop-color="#895700"/><stop offset="0.37" stop-color="#664000"/><stop offset="0.43" stop-color="#543400"/><stop offset="0.51" stop-color="#3d2400"/><stop offset="0.63" stop-color="#201100"/><stop offset="0.73" stop-color="#0c0500"/><stop offset="0.84" stop-color="#010000"/><stop offset="1"/></radialGradient><radialGradient id="f308074f-3323-4976-b01e-dc06020e55e1" cx="253.84" cy="-29.17" r="2.54" xlink:href="#e560830c-888f-455c-aab9-b1f6526ad10a"/><radialGradient id="a2e785e4-fad8-407d-8081-b074279143f3" cx="350" cy="-23.31" r="2.54" xlink:href="#e560830c-888f-455c-aab9-b1f6526ad10a"/><radialGradient id="b7388d89-bd9e-417e-9b2d-21c6854f02b9" cx="277.09" cy="-97.06" r="2.54" xlink:href="#e560830c-888f-455c-aab9-b1f6526ad10a"/><radialGradient id="a1246303-caad-4e7f-be2c-83c08cf8a4ed" cx="196.88" cy="-62.47" r="2.54" gradientTransform="translate(76.66 308.5) rotate(-73.61)" xlink:href="#e560830c-888f-455c-aab9-b1f6526ad10a"/><radialGradient id="aceae27b-80f5-462b-b5cd-abc5249993d0" cx="282.6" cy="8.99" r="2.54" xlink:href="#e560830c-888f-455c-aab9-b1f6526ad10a"/><radialGradient id="a82f4df7-7a0c-4a6d-9eeb-1530c4838e01" cx="313.86" cy="-54.15" r="2.54" xlink:href="#e560830c-888f-455c-aab9-b1f6526ad10a"/><radialGradient id="ae510b0d-1d6b-4be0-bcc7-ffc2de6273cd" cx="293.75" cy="-21.27" r="2.54" xlink:href="#e560830c-888f-455c-aab9-b1f6526ad10a"/><radialGradient id="ae4d95f6-2876-4195-8f01-30a1f3b7c99c" cx="237.11" cy="-38.84" r="2.54" xlink:href="#e560830c-888f-455c-aab9-b1f6526ad10a"/><radialGradient id="a5e16ba7-812b-4693-adbb-125bf5928d59" cx="279.51" cy="17.59" r="2.54" xlink:href="#e560830c-888f-455c-aab9-b1f6526ad10a"/><radialGradient id="eca2d661-52c6-417b-bcad-404d69559b5a" cx="205.29" cy="17.82" r="2.54" xlink:href="#e560830c-888f-455c-aab9-b1f6526ad10a"/><radialGradient id="b04685fb-6d50-4232-86d7-a89353a6eb81" cx="287.12" cy="5.73" r="2.54" gradientTransform="translate(76.66 308.5) rotate(-73.61)" xlink:href="#e560830c-888f-455c-aab9-b1f6526ad10a"/><radialGradient id="be57602d-4af6-46ce-b46f-fef531986a2e" cx="301.45" cy="23.68" r="2.54" xlink:href="#e560830c-888f-455c-aab9-b1f6526ad10a"/><radialGradient id="ee0724ed-1d67-42d4-ab7d-fbfc3515def5" cx="228.54" cy="-50.07" r="2.54" xlink:href="#e560830c-888f-455c-aab9-b1f6526ad10a"/><radialGradient id="a18ee0e9-390e-486c-819a-99c94caf56c8" cx="173.28" cy="0.83" r="2.54" gradientTransform="translate(76.66 308.5) rotate(-73.61)" xlink:href="#e560830c-888f-455c-aab9-b1f6526ad10a"/><radialGradient id="af29983b-1c86-4dd3-aca8-3b06924ef2f1" cx="265.31" cy="-7.16" r="2.54" xlink:href="#e560830c-888f-455c-aab9-b1f6526ad10a"/><radialGradient id="b4ff4f87-d875-484e-b867-67f1bae2da3f" cx="188.56" cy="8.15" r="2.54" xlink:href="#e560830c-888f-455c-aab9-b1f6526ad10a"/><radialGradient id="a5b1b03a-3d1f-470d-9cf5-90975959953b" cx="339.09" cy="-103.02" r="2.54" xlink:href="#e560830c-888f-455c-aab9-b1f6526ad10a"/><radialGradient id="ba8fac9f-015c-4634-8f13-74fdbc7a25d3" cx="264.87" cy="-102.8" r="2.54" xlink:href="#e560830c-888f-455c-aab9-b1f6526ad10a"/><radialGradient id="f8f10ca7-8d1a-4797-9905-d1d7049750d5" cx="361.03" cy="-96.94" r="2.54" xlink:href="#e560830c-888f-455c-aab9-b1f6526ad10a"/><radialGradient id="b8481b80-bdf9-42b9-bc52-021db946fa25" cx="288.12" cy="-170.69" r="2.54" xlink:href="#e560830c-888f-455c-aab9-b1f6526ad10a"/><radialGradient id="ac0bd51e-5ed0-4492-98ff-59dff2104f1f" cx="175.13" cy="-133.68" r="2.54" gradientTransform="translate(76.66 308.5) rotate(-73.61)" xlink:href="#e560830c-888f-455c-aab9-b1f6526ad10a"/><radialGradient id="e587949d-e7a6-4153-a0af-d64cb8945906" cx="293.63" cy="-64.64" r="2.54" xlink:href="#e560830c-888f-455c-aab9-b1f6526ad10a"/><radialGradient id="b21cb12a-992f-4bc0-96be-7a7465505f13" cx="324.89" cy="-127.78" r="2.54" xlink:href="#e560830c-888f-455c-aab9-b1f6526ad10a"/><radialGradient id="a9d4e022-3a6e-4b6c-8924-85e01454fb5d" cx="304.78" cy="-94.9" r="2.54" xlink:href="#e560830c-888f-455c-aab9-b1f6526ad10a"/><radialGradient id="a325774e-eaa0-4634-b74e-1ab26b604da5" cx="248.14" cy="-112.47" r="2.54" xlink:href="#e560830c-888f-455c-aab9-b1f6526ad10a"/><radialGradient id="a63310ca-21c5-4c18-acb1-04c262c3a01f" cx="269.84" cy="-102.63" r="2.54" xlink:href="#e560830c-888f-455c-aab9-b1f6526ad10a"/><radialGradient id="e2fd2b07-b934-4b01-82b4-b83662939897" cx="195.62" cy="-102.4" r="2.54" xlink:href="#e560830c-888f-455c-aab9-b1f6526ad10a"/><radialGradient id="adfe6a52-71b1-4ba7-bbd5-95a04c5744cd" cx="226.64" cy="-98.61" r="2.54" gradientTransform="translate(76.66 308.5) rotate(-73.61)" xlink:href="#e560830c-888f-455c-aab9-b1f6526ad10a"/><radialGradient id="ee888042-2711-4958-80ad-fec65f1986d4" cx="291.78" cy="-96.54" r="2.54" xlink:href="#e560830c-888f-455c-aab9-b1f6526ad10a"/><radialGradient id="f11d8b8f-ccfb-4119-a358-233a6bff4cec" cx="218.87" cy="-170.29" r="2.54" xlink:href="#e560830c-888f-455c-aab9-b1f6526ad10a"/><radialGradient id="b59443e7-fe04-4e16-857d-ed4d67f0fc23" cx="112.8" cy="-103.51" r="2.54" gradientTransform="translate(76.66 308.5) rotate(-73.61)" xlink:href="#e560830c-888f-455c-aab9-b1f6526ad10a"/><radialGradient id="b20eed2c-3b0d-46b6-beff-3b02db40028b" cx="224.38" cy="-64.25" r="2.54" xlink:href="#e560830c-888f-455c-aab9-b1f6526ad10a"/><radialGradient id="ac285cb0-879f-4a45-b1f7-5a931c7101f7" cx="255.64" cy="-127.38" r="2.54" xlink:href="#e560830c-888f-455c-aab9-b1f6526ad10a"/><radialGradient id="b736ade2-5b8a-4048-a912-5041bd6640a1" cx="235.53" cy="-94.51" r="2.54" xlink:href="#e560830c-888f-455c-aab9-b1f6526ad10a"/><radialGradient id="e3b25256-4de6-4d15-b305-c5b3019e0fb4" cx="178.89" cy="-112.07" r="2.54" xlink:href="#e560830c-888f-455c-aab9-b1f6526ad10a"/><radialGradient id="f4618d2e-9176-46f3-b70f-9a49b9c891f9" cx="221.29" cy="-55.64" r="2.54" xlink:href="#e560830c-888f-455c-aab9-b1f6526ad10a"/><radialGradient id="eb8bcb11-82e8-4b55-a01d-e3c0dc00e53f" cx="147.06" cy="-55.42" r="2.54" xlink:href="#e560830c-888f-455c-aab9-b1f6526ad10a"/><radialGradient id="e7f33d4f-2329-4517-837f-2f7fcda77ca1" cx="203.04" cy="-35.31" r="2.54" gradientTransform="translate(76.66 308.5) rotate(-73.61)" xlink:href="#e560830c-888f-455c-aab9-b1f6526ad10a"/><radialGradient id="abd4a8fc-4c68-4a98-80ff-9f04a75198db" cx="243.23" cy="-49.56" r="2.54" xlink:href="#e560830c-888f-455c-aab9-b1f6526ad10a"/><radialGradient id="b40b68c7-d321-4012-8475-e1ce54c72d0e" cx="170.32" cy="-123.31" r="2.54" xlink:href="#e560830c-888f-455c-aab9-b1f6526ad10a"/><radialGradient id="fd864712-14b7-4fc5-8eab-0a372d338513" cx="89.21" cy="-40.2" r="2.54" gradientTransform="translate(76.66 308.5) rotate(-73.61)" xlink:href="#e560830c-888f-455c-aab9-b1f6526ad10a"/><radialGradient id="f6897d25-c598-44af-8515-ba8e05c286fd" cx="175.82" cy="-17.26" r="2.54" xlink:href="#e560830c-888f-455c-aab9-b1f6526ad10a"/><radialGradient id="fce7f570-df71-42b7-a8b7-ceb28bf39b89" cx="207.09" cy="-80.4" r="2.54" xlink:href="#e560830c-888f-455c-aab9-b1f6526ad10a"/><radialGradient id="e417c749-35df-443c-ad88-9d5b03806c94" cx="186.98" cy="-47.52" r="2.54" xlink:href="#e560830c-888f-455c-aab9-b1f6526ad10a"/><radialGradient id="b65c9143-a8c2-49a3-a31c-db173894e640" cx="130.34" cy="-65.09" r="2.54" xlink:href="#e560830c-888f-455c-aab9-b1f6526ad10a"/><radialGradient id="a7bbed7f-e6a0-4ca4-baf3-a63f89949fe0" cx="280.87" cy="-176.26" r="2.54" xlink:href="#e560830c-888f-455c-aab9-b1f6526ad10a"/><radialGradient id="b41564f1-5bcd-49d8-8e4e-34ed5e078499" cx="206.65" cy="-176.03" r="2.54" xlink:href="#e560830c-888f-455c-aab9-b1f6526ad10a"/><radialGradient id="ee38b38c-daf9-4168-9053-d8528a7509a2" cx="302.81" cy="-170.17" r="2.54" xlink:href="#e560830c-888f-455c-aab9-b1f6526ad10a"/><radialGradient id="bee0c5b4-0e5d-467e-9588-2c8800b00799" cx="235.41" cy="-137.88" r="2.54" xlink:href="#e560830c-888f-455c-aab9-b1f6526ad10a"/><radialGradient id="ae037d63-1adc-4957-966c-d4947e6d6e65" cx="246.56" cy="-168.14" r="2.54" xlink:href="#e560830c-888f-455c-aab9-b1f6526ad10a"/><radialGradient id="bab9a833-9d8e-40bb-a286-11eb76feb67b" cx="189.92" cy="-185.7" r="2.54" xlink:href="#e560830c-888f-455c-aab9-b1f6526ad10a"/></defs><g class="bbe4c7f6-77f6-4b20-b3b1-db209c62b22c"><g id="f9dbfea9-7121-4752-b344-16e736e4367e" data-name="Layer 2"><g class="f6dd41da-6fe6-40be-a9d5-dd217f73d42e"><rect class="e4655d1d-323a-408a-ac35-03a973a80caf" x="-7.76" y="-7.83" width="228.15" height="279.6"/><path class="b16dd3cb-fa0f-44c4-940e-b70687ced1f0" d="M-122.09,171.14c57.88,6.91,101.42-44.49,130-71.24,27.59-25.82,219.53,77.74,235.47,18.3S209.61-79.33,55.28,8C-27.15,54.65-36.48,66.08-81.49,77.1S-195.3,162.41-122.09,171.14Z"/><path class="b9fbb77f-a61c-4ef5-a202-75919fb4033c" d="M-86.45,274.09c56,2.61,98.15-51.4,125.82-79.94,26.7-27.55,212.43,60.85,227.85.91S234.54,2.19,85.2,99.82C5.43,152-3.6,163.94-47.16,178.13S-157.29,270.79-86.45,274.09Z"/><path class="ab1dda83-258b-45e4-bd2f-c37651244d0d" d="M-101.6,97.93c62.23,20.38,115-12.68,149-28.41C80.12,54.34,278,190.94,301.58,144.08s-15.85-177.4-193-141.32C14,22,2.64,29.48-47.49,27.65S-180.31,72.14-101.6,97.93Z"/><path class="ac9c0882-3f86-48da-b0bb-8e01a9ad1f3c" d="M-55.58,130.41C24,176.6,61.49,114,88.88,84.87,115.31,56.8,411,348.78,408.65,255.93S285.83-104,115.46-45.19C24.46-13.78,16.59.35-38.81-7.35S-156.19,72-55.58,130.41Z"/><path class="fe382533-54f5-4dec-8a32-2da1185b15a6" d="M136.57,20a2.54,2.54,0,1,1-2.1,2.91A2.55,2.55,0,0,1,136.57,20Z"/><path class="aafecb71-e23c-4340-ad4f-b810d5b606eb" d="M148.54,93.24a2.54,2.54,0,1,1-2.1,2.91A2.55,2.55,0,0,1,148.54,93.24Z"/><path class="b63dddd8-6133-4271-b0ac-2b25d3c6ad43" d="M139.11-2.63A2.53,2.53,0,0,1,142-.53a2.53,2.53,0,0,1-2.1,2.9A2.54,2.54,0,0,1,137,.27,2.53,2.53,0,0,1,139.11-2.63Z"/><path class="a57cc0bd-2330-4d3c-92ce-62e4d71d9d43" d="M77.82,81a2.54,2.54,0,1,1-2.1,2.91A2.54,2.54,0,0,1,77.82,81Z"/><path class="ecabdff4-6a07-4d16-9b47-349ef922ce84" d="M73,99.55a2.54,2.54,0,1,1-3.14,1.72A2.53,2.53,0,0,1,73,99.55Z"/><path class="bc121899-54d5-4711-9504-3ecde57ea83a" d="M181.66,58.81a2.53,2.53,0,1,1-2.1,2.9A2.54,2.54,0,0,1,181.66,58.81Z"/><path class="ba6e07e1-e487-4bae-abc3-c5686f15e87a" d="M114.37,37.93a2.54,2.54,0,1,1-2.1,2.9A2.54,2.54,0,0,1,114.37,37.93Z"/><path class="b484823a-fdf8-4a98-84c2-6385effc8a8f" d="M150,52.58a2.54,2.54,0,1,1-2.1,2.91A2.53,2.53,0,0,1,150,52.58Z"/><path class="f6f08489-49d1-48ca-8a13-18eb22874181" d="M141.64,111.29a2.54,2.54,0,1,1-2.1,2.91A2.54,2.54,0,0,1,141.64,111.29Z"/><path class="b266cf05-503b-459a-a8ee-1b6ae60a27ec" d="M197.45,148.89a.8.8,0,1,1-.79-.79A.8.8,0,0,1,197.45,148.89Z"/><path class="b266cf05-503b-459a-a8ee-1b6ae60a27ec" d="M175.89,100.79a.8.8,0,0,1-.8.79.8.8,0,0,1,0-1.59A.8.8,0,0,1,175.89,100.79Z"/><path class="b266cf05-503b-459a-a8ee-1b6ae60a27ec" d="M70.1,121.27a.8.8,0,1,1-.79-.8A.8.8,0,0,1,70.1,121.27Z"/><path class="b266cf05-503b-459a-a8ee-1b6ae60a27ec" d="M79.12,11.68a.8.8,0,1,1-1.59,0,.8.8,0,0,1,1.59,0Z"/><path class="b266cf05-503b-459a-a8ee-1b6ae60a27ec" d="M59.43,43.28a.79.79,0,0,1-1.58,0,.79.79,0,1,1,1.58,0Z"/><path class="b266cf05-503b-459a-a8ee-1b6ae60a27ec" d="M115.49,71.31a.79.79,0,1,1-.37-1.06A.8.8,0,0,1,115.49,71.31Z"/><path class="b266cf05-503b-459a-a8ee-1b6ae60a27ec" d="M176.68,190.06a.79.79,0,0,1-.79.79.8.8,0,1,1,.79-.79Z"/><path class="b266cf05-503b-459a-a8ee-1b6ae60a27ec" d="M170.54,22.49a.79.79,0,0,1-.79.8.8.8,0,1,1,0-1.59A.79.79,0,0,1,170.54,22.49Z"/><path class="e909a6f6-3be8-47d0-a9c0-76870987b26a" d="M190.65,60.49a2.54,2.54,0,1,1-2.11,2.91A2.53,2.53,0,0,1,190.65,60.49Z"/><path class="b5137f12-11af-491b-9419-ed5771a38622" d="M202.62,133.75a2.54,2.54,0,1,1-2.11,2.9A2.53,2.53,0,0,1,202.62,133.75Z"/><path class="b28b882e-5812-4b3a-bbaf-7e4b16fd4505" d="M163.89,32.22a2.53,2.53,0,1,1-3.15,1.72A2.53,2.53,0,0,1,163.89,32.22Z"/><path class="eb35a0dd-2fec-4138-a4ef-f9f82cd48013" d="M193.18,37.87a2.54,2.54,0,1,1-2.1,2.9A2.54,2.54,0,0,1,193.18,37.87Z"/><path class="bc142593-166a-42c9-87c5-75803150f053" d="M131.9,121.53a2.54,2.54,0,1,1-2.1,2.91A2.54,2.54,0,0,1,131.9,121.53Z"/><path class="be2668e8-15b5-4e4f-a254-b8fdbab0cee4" d="M127.07,140.05a2.54,2.54,0,1,1-3.15,1.72A2.54,2.54,0,0,1,127.07,140.05Z"/><path class="e589f2a3-3d85-407d-9728-5e7f1b9a8745" d="M168.45,78.43a2.54,2.54,0,1,1-2.1,2.91A2.54,2.54,0,0,1,168.45,78.43Z"/><path class="fb65ace6-1d23-4d4a-b62d-8e3f816ac00e" d="M195.72,151.79a2.54,2.54,0,1,1-2.1,2.91A2.55,2.55,0,0,1,195.72,151.79Z"/><path class="b266cf05-503b-459a-a8ee-1b6ae60a27ec" d="M124.18,161.77a.79.79,0,0,1-.8.79.79.79,0,0,1-.79-.79.79.79,0,0,1,.79-.8A.8.8,0,0,1,124.18,161.77Z"/><path class="b266cf05-503b-459a-a8ee-1b6ae60a27ec" d="M133.2,52.18a.8.8,0,0,1-.8.8.8.8,0,1,1,.8-.8Z"/><path class="b266cf05-503b-459a-a8ee-1b6ae60a27ec" d="M113.51,83.78a.79.79,0,0,1-.79.79.79.79,0,1,1,0-1.58A.79.79,0,0,1,113.51,83.78Z"/><path class="b266cf05-503b-459a-a8ee-1b6ae60a27ec" d="M169.57,111.81a.8.8,0,0,1-1.06.37.79.79,0,0,1,.69-1.43A.8.8,0,0,1,169.57,111.81Z"/><path class="a9834f18-2dff-42ea-86e0-8905d8a2672b" d="M62.12,20.75A2.54,2.54,0,1,1,60,23.66,2.55,2.55,0,0,1,62.12,20.75Z"/><path class="b55738b8-edb9-43d5-bc2a-48ed1a375600" d="M74.09,94A2.54,2.54,0,1,1,72,96.92,2.54,2.54,0,0,1,74.09,94Z"/><path class="f8c96814-8f15-4b19-8d1b-281b48b10952" d="M64.66-1.87a2.54,2.54,0,0,1,.8,5A2.53,2.53,0,0,1,62.56,1,2.52,2.52,0,0,1,64.66-1.87Z"/><path class="f1de81e8-8667-4c27-827b-3fc247c20ad1" d="M3.38,81.8a2.53,2.53,0,1,1-2.11,2.9A2.53,2.53,0,0,1,3.38,81.8Z"/><path class="b7fbf639-3252-4a80-aff4-ce2e60cc21ab" d="M-1.45,100.31a2.54,2.54,0,0,1,1.71,3.15,2.52,2.52,0,0,1-3.14,1.72A2.53,2.53,0,0,1-4.6,102,2.54,2.54,0,0,1-1.45,100.31Z"/><path class="e59a76f0-5c9b-4512-b98a-40da11c39260" d="M107.22,59.57a2.54,2.54,0,1,1-2.11,2.91A2.53,2.53,0,0,1,107.22,59.57Z"/><path class="ad1e70d0-25c7-48b8-a967-b0425384bb49" d="M39.93,38.69a2.54,2.54,0,1,1-2.11,2.91A2.53,2.53,0,0,1,39.93,38.69Z"/><path class="bc71ab15-074e-4b86-b7ca-c92ea9e043af" d="M75.57,53.35a2.54,2.54,0,1,1-2.1,2.9A2.55,2.55,0,0,1,75.57,53.35Z"/><path class="e677d589-f4ae-46c0-8d52-bc8c4cf5379a" d="M67.19,112.06a2.54,2.54,0,1,1-2.1,2.9A2.54,2.54,0,0,1,67.19,112.06Z"/><path class="b266cf05-503b-459a-a8ee-1b6ae60a27ec" d="M123,149.66a.79.79,0,0,1-.79.79.79.79,0,0,1-.8-.79.8.8,0,0,1,.8-.8A.79.79,0,0,1,123,149.66Z"/><path class="b266cf05-503b-459a-a8ee-1b6ae60a27ec" d="M101.44,101.55a.8.8,0,1,1-.79-.79A.79.79,0,0,1,101.44,101.55Z"/><path class="b266cf05-503b-459a-a8ee-1b6ae60a27ec" d="M4.67,12.45a.8.8,0,0,1-1.59,0,.8.8,0,1,1,1.59,0Z"/><path class="b266cf05-503b-459a-a8ee-1b6ae60a27ec" d="M41,72.07a.78.78,0,0,1-1,.38.8.8,0,1,1,1-.38Z"/><path class="b266cf05-503b-459a-a8ee-1b6ae60a27ec" d="M102.23,190.82a.79.79,0,1,1-.79-.79A.79.79,0,0,1,102.23,190.82Z"/><path class="b266cf05-503b-459a-a8ee-1b6ae60a27ec" d="M96.09,23.26a.79.79,0,1,1-.79-.79A.79.79,0,0,1,96.09,23.26Z"/><path class="a3f831bf-3dd4-4b68-a211-270d6096c8ea" d="M73.47,89.07A2.54,2.54,0,1,1,71.37,92,2.54,2.54,0,0,1,73.47,89.07Z"/><path class="a82ea78f-380c-4fe2-8e6e-bb10c389dcbc" d="M85.44,162.33a2.53,2.53,0,1,1-2.1,2.9A2.53,2.53,0,0,1,85.44,162.33Z"/><path class="a045e7f3-9597-41f8-be37-760e94b579cf" d="M46.72,60.8a2.53,2.53,0,1,1-3.15,1.71A2.54,2.54,0,0,1,46.72,60.8Z"/><path class="a8732d4d-0d9a-463c-bffa-942b50a0a028" d="M76,66.45a2.54,2.54,0,1,1-2.1,2.9A2.53,2.53,0,0,1,76,66.45Z"/><path class="f0f0f105-08f9-40c8-942d-5e4998eb06d2" d="M14.73,150.11a2.54,2.54,0,1,1-2.1,2.91A2.53,2.53,0,0,1,14.73,150.11Z"/><path class="a97ee70f-40a4-4b84-bdb3-8a43c9c72c12" d="M9.9,168.63a2.54,2.54,0,1,1-3.15,1.72A2.54,2.54,0,0,1,9.9,168.63Z"/><path class="e7fbb1cd-7e4a-461c-a4f1-76cfc590250f" d="M118.57,127.89a2.54,2.54,0,1,1-2.1,2.9A2.53,2.53,0,0,1,118.57,127.89Z"/><path class="eac86af4-03ad-42cb-8f6a-6ce5efaaac95" d="M51.28,107a2.54,2.54,0,1,1-2.1,2.91A2.53,2.53,0,0,1,51.28,107Z"/><path class="eb915531-997b-4165-afac-6cb202c66089" d="M86.92,121.66a2.54,2.54,0,1,1-2.1,2.91A2.54,2.54,0,0,1,86.92,121.66Z"/><path class="accd25b9-1ad0-43f7-9a03-2142d1f326c0" d="M78.55,180.37a2.54,2.54,0,1,1-2.11,2.91A2.53,2.53,0,0,1,78.55,180.37Z"/><path class="b266cf05-503b-459a-a8ee-1b6ae60a27ec" d="M134.35,218a.79.79,0,1,1-.79-.79A.79.79,0,0,1,134.35,218Z"/><path class="b266cf05-503b-459a-a8ee-1b6ae60a27ec" d="M112.79,169.87a.79.79,0,0,1-.79.79.8.8,0,1,1,.79-.79Z"/><path class="b266cf05-503b-459a-a8ee-1b6ae60a27ec" d="M7,190.35a.79.79,0,0,1-.79.79.79.79,0,0,1-.8-.79.8.8,0,0,1,.8-.8A.79.79,0,0,1,7,190.35Z"/><path class="b266cf05-503b-459a-a8ee-1b6ae60a27ec" d="M16,80.76a.79.79,0,0,1-.79.8.8.8,0,1,1,0-1.59A.79.79,0,0,1,16,80.76Z"/><path class="b266cf05-503b-459a-a8ee-1b6ae60a27ec" d="M52.4,140.39a.8.8,0,1,1-.38-1.06A.8.8,0,0,1,52.4,140.39Z"/><path class="b266cf05-503b-459a-a8ee-1b6ae60a27ec" d="M107.44,91.58a.79.79,0,1,1-.79-.8A.79.79,0,0,1,107.44,91.58Z"/><path class="b0f2191f-8855-4709-bf0c-d9c4c85101b1" d="M127.55,129.57a2.54,2.54,0,1,1-2.1,2.91A2.54,2.54,0,0,1,127.55,129.57Z"/><path class="a73278cc-13dd-4832-806e-171cefd40d8b" d="M139.52,202.83a2.54,2.54,0,1,1-2.1,2.9A2.54,2.54,0,0,1,139.52,202.83Z"/><path class="f790860c-13df-4275-84ee-14ec34ee01c1" d="M100.8,101.3A2.54,2.54,0,1,1,97.65,103,2.53,2.53,0,0,1,100.8,101.3Z"/><path class="b1c27cd4-4fff-4c85-8fca-1f2d7afdd9d5" d="M130.09,107a2.54,2.54,0,1,1-2.11,2.91A2.53,2.53,0,0,1,130.09,107Z"/><path class="b49c9eda-dc5c-4457-92b1-602d39289f60" d="M68.8,190.61a2.54,2.54,0,1,1-2.1,2.91A2.54,2.54,0,0,1,68.8,190.61Z"/><path class="f3972fc8-a0ec-4be8-93b0-0aa87eded35a" d="M64,209.13a2.54,2.54,0,1,1-3.14,1.72A2.53,2.53,0,0,1,64,209.13Z"/><path class="eb96a48c-2513-4b0e-baa6-3bb296288b9b" d="M172.64,168.39a2.54,2.54,0,1,1-2.1,2.91A2.54,2.54,0,0,1,172.64,168.39Z"/><path class="a85764ef-9707-4e54-af8a-dbd2daeca4c3" d="M105.36,147.51a2.54,2.54,0,1,1-2.11,2.91A2.53,2.53,0,0,1,105.36,147.51Z"/><path class="f1decca8-7268-439e-8eff-46dad073c3c9" d="M141,162.16a2.54,2.54,0,1,1-2.1,2.91A2.53,2.53,0,0,1,141,162.16Z"/><path class="bff4b54a-4858-4d5c-a5ca-33a91072ec66" d="M132.62,220.88a2.53,2.53,0,1,1-2.1,2.9A2.53,2.53,0,0,1,132.62,220.88Z"/><path class="b266cf05-503b-459a-a8ee-1b6ae60a27ec" d="M166.87,210.37a.8.8,0,1,1-.8-.79A.79.79,0,0,1,166.87,210.37Z"/><path class="b266cf05-503b-459a-a8ee-1b6ae60a27ec" d="M61.08,230.85a.8.8,0,1,1-.79-.79A.79.79,0,0,1,61.08,230.85Z"/><path class="b266cf05-503b-459a-a8ee-1b6ae60a27ec" d="M70.1,121.27a.8.8,0,1,1-.79-.8A.8.8,0,0,1,70.1,121.27Z"/><path class="b266cf05-503b-459a-a8ee-1b6ae60a27ec" d="M50.41,152.86a.79.79,0,1,1-.79-.79A.79.79,0,0,1,50.41,152.86Z"/><path class="b266cf05-503b-459a-a8ee-1b6ae60a27ec" d="M106.47,180.89a.79.79,0,0,1-1.43-.68.79.79,0,1,1,1.43.68Z"/><path class="b266cf05-503b-459a-a8ee-1b6ae60a27ec" d="M161.52,132.08a.79.79,0,0,1-.79.79.79.79,0,0,1-.8-.79.8.8,0,0,1,.8-.8A.79.79,0,0,1,161.52,132.08Z"/><path class="a119f989-0c30-426c-92ce-362e7111d6bd" d="M-1,89.84a2.53,2.53,0,0,1,2.91,2.1,2.53,2.53,0,0,1-2.1,2.9,2.53,2.53,0,0,1-2.91-2.1A2.53,2.53,0,0,1-1,89.84Z"/><path class="a23589c8-45ea-40ce-a13b-bcdadba02370" d="M11,163.09A2.54,2.54,0,1,1,8.89,166,2.54,2.54,0,0,1,11,163.09Z"/><path class="b2aa7eaa-1398-4744-9a35-f4eb1d34055f" d="M1.56,67.21a2.54,2.54,0,1,1-2.1,2.91A2.54,2.54,0,0,1,1.56,67.21Z"/><path class="f90c7fdd-dcee-422b-aca8-507831ae1a1a" d="M44.12,128.65a2.54,2.54,0,1,1-2.1,2.91A2.55,2.55,0,0,1,44.12,128.65Z"/><path class="afc6e715-2716-4a30-90e7-2422d7f7a7f5" d="M12.47,122.43a2.54,2.54,0,1,1-2.1,2.9A2.54,2.54,0,0,1,12.47,122.43Z"/><path class="f8a9918c-bac9-41e1-8339-74efbcabd76e" d="M4.1,181.14A2.54,2.54,0,1,1,2,184.05,2.53,2.53,0,0,1,4.1,181.14Z"/><path class="b266cf05-503b-459a-a8ee-1b6ae60a27ec" d="M59.9,218.74a.79.79,0,1,1-.79-.79A.79.79,0,0,1,59.9,218.74Z"/><path class="b266cf05-503b-459a-a8ee-1b6ae60a27ec" d="M38.34,170.63a.79.79,0,0,1-.79.79.79.79,0,1,1,0-1.58A.79.79,0,0,1,38.34,170.63Z"/><path class="b266cf05-503b-459a-a8ee-1b6ae60a27ec" d="M33,92.34a.79.79,0,0,1-.8.79.79.79,0,0,1,0-1.58A.79.79,0,0,1,33,92.34Z"/><path class="e26f2ef0-5475-4963-aed0-641440a760ec" d="M16.1,149C15.19,145.48.83,90.38,3.4,90a14.82,14.82,0,0,1,6.39.45c1.4.4,2.65-1.65,5.41-2.78s7.56,8,8.25,14.94S36,110.77,38,116s16.36,40.92,11.24,43.56S18,156.6,16.1,149Z"/><path class="a87e7b3a-0b0f-4a58-864e-5fc575010185" d="M38,116c-2-5.23-13.89-6.54-14.59-13.44S18,86.48,15.2,87.62s-4,3.18-5.41,2.78A14.82,14.82,0,0,0,3.4,90c-.62.1-.12,4.39,1,10.86a19.7,19.7,0,0,1,3.06.6c1.58.46,3-1.85,6.12-3.14s8.53,9.09,9.32,16.89a6.6,6.6,0,0,0,.28,1.35c-2.66.36-5.25-.26-7.47.64-3.68,1.49-7.87,8-2.34,8.29,3.27.18,9.56-1.86,14.11-3.88,4.35,3,10.42,5,11.9,8.78,1.25,3.23,6.65,16.74,10.35,28.82C53.4,154.46,40,121.05,38,116Z"/><path class="a75773e8-c1b1-4d77-9a17-7cb7e597a592" d="M207.43,159.84c.17,1.43-6.27,2.28-15.05,2.64-21.26.87-56.2-1.1-44-4.32,3.67-3-12.88-8.14-11.95-12,.88-3.72,28.56-27.13,29.8-31.32.06-.2.12-.37.18-.52,1.29-3.18,6.8,5.13,7,8.9s19.23,15.16,22.58,19.17S206.84,154.92,207.43,159.84Z"/><path class="a87e7b3a-0b0f-4a58-864e-5fc575010185" d="M207.43,159.84c.17,1.43-6.27,2.28-15.05,2.64-4.4-4.85-7.27-10.63-6.3-13.36,1.74-4.91,5-8.31-1.84-12.68s-15.86-12.15-15.68-16.74c.07-1.68-1-3.28-2.3-4.91.06-.2.12-.37.18-.52,1.29-3.18,6.8,5.13,7,8.9s19.23,15.16,22.58,19.17S206.84,154.92,207.43,159.84Z"/><path class="a4e1cd91-f4c6-42ef-8a1d-f1604af0fdc4" d="M-8.13,155.09c7.64,1.38,21-.6,25.14,1.14s31.26-11.36,44.2-7.28,37.13,12.45,47.85,11.55S183,152,198.31,152.84s37.88,16.29,40.3,21.1-1.09,95.27-1.09,95.27-74.89,5-81.73,4.54-195.5,15.59-195.5,15.59S-54.81,146.63-8.13,155.09Z"/><path class="f43fd995-a3df-415f-a4fe-fcd1f7b722fc" d="M56.88,158.47c-6.08-.2-34.66-1.29-39-1.51s-16.92.85-11,4.41,30.19,3.34,38.18,4.41S80.47,159.27,56.88,158.47Z"/><path class="f43fd995-a3df-415f-a4fe-fcd1f7b722fc" d="M65,222.87c-6.08-.19-34.66-1.27-39-1.51s-16.95,1.42-11,6.21,30.16,4.16,38.14,5.51S88.58,223.62,65,222.87Z"/><path class="f43fd995-a3df-415f-a4fe-fcd1f7b722fc" d="M179,186.49c-2.28-.07-13-.48-14.65-.58s-6.38.78-4.18,3.12,11.32,1.92,14.31,2.55S187.88,186.76,179,186.49Z"/><path class="f43fd995-a3df-415f-a4fe-fcd1f7b722fc" d="M56.94,189.89c4.21.06,24,.21,27,.19s11.68,1.39,7.45,4.24-21,1.74-26.57,2.36S40.6,189.67,56.94,189.89Z"/><path class="f43fd995-a3df-415f-a4fe-fcd1f7b722fc" d="M123.92,220.75c9.55.33,54.46,2,61.27,2.39s26.6-1.35,17.24-6.94-47.45-5.25-60-6.93S86.85,219.51,123.92,220.75Z"/><path class="f43fd995-a3df-415f-a4fe-fcd1f7b722fc" d="M142,159.06c5-1.13,48-1.21,51.95-1.18s12,4.28,7.7,4.55-61.31,1.69-66.62,1.15S135.46,160.54,142,159.06Z"/><path class="e26f2ef0-5475-4963-aed0-641440a760ec" d="M-11.28,153.56c-.06-3.37.36-70.89,2.75-70.74a13.6,13.6,0,0,1,5.6,1.77c1.17.65,2.72-.91,5.42-1.34s5,8.79,4.19,15.09,9.47,10,10.16,15.09,6.72,41,1.59,42.31S-11.16,160.73-11.28,153.56Z"/><path class="a87e7b3a-0b0f-4a58-864e-5fc575010185" d="M16.84,113.43c-.69-5.11-11-8.79-10.16-15.09S5.2,82.83,2.49,83.25s-4.25,2-5.42,1.34a13.6,13.6,0,0,0-5.6-1.77c-.58,0-1,3.9-1.41,9.91a17.73,17.73,0,0,1,2.6,1.19c1.32.74,3.08-1,6.13-1.5s5.68,9.92,4.73,17a6.78,6.78,0,0,0,0,1.27c-2.46-.25-4.63-1.35-6.8-1-3.6.56-8.72,5.46-3.85,6.9,2.87.86,8.92.38,13.41-.46,3.24,3.6,8.24,6.65,8.75,10.36.43,3.15,2.39,16.35,3.12,27.91C22.39,151,17.52,118.35,16.84,113.43Z"/><path class="a75773e8-c1b1-4d77-9a17-7cb7e597a592" d="M98.94,154.22c.08.87-3,1.42-7.23,1.68-10.2.63-27-.39-21.08-2.41,1.78-1.83-6.14-4.88-5.67-7.26S78.8,129.59,79.41,127c0-.12.06-.23.09-.32.64-1.94,3.24,3.09,3.34,5.38s9.15,9.12,10.73,11.54S98.68,151.23,98.94,154.22Z"/><path class="a87e7b3a-0b0f-4a58-864e-5fc575010185" d="M98.94,154.22c.08.87-3,1.42-7.23,1.68-2.09-2.93-3.44-6.43-3-8.09.86-3,2.43-5.08-.82-7.7s-7.55-7.31-7.44-10.1a5.44,5.44,0,0,0-1.08-3c0-.12.06-.23.09-.32.64-1.94,3.24,3.09,3.34,5.38s9.15,9.12,10.73,11.54S98.68,151.23,98.94,154.22Z"/><path class="a75773e8-c1b1-4d77-9a17-7cb7e597a592" d="M210.79,157.83c-1.29-.08-3.5-.16-6.22-.25-11.21-.36-31.11-.75-31.11-.75.06-1.65,6.1-7,6.23-10.31s2.83-4.62,3.69-6.26c.67-1.28,3.9-5.39,5-7.93a2.83,2.83,0,0,0,.37-1.64c-.47-1.7,7.93.54,8.81,5.18s8.31,4.34,11.16,6.07,5.56,7.05,6.23,10S217.4,158.22,210.79,157.83Z"/><path class="a87e7b3a-0b0f-4a58-864e-5fc575010185" d="M210.79,157.83c-1.29-.08-3.5-.16-6.22-.25,2.8-2.86,5.88-5.57,6.49-6.6,1.42-2.43-4-5.63-9-7.54a19.82,19.82,0,0,1-10-9c-.69-1.38-2.17-1.88-3.66-2.13a2.83,2.83,0,0,0,.37-1.64c-.47-1.7,7.93.54,8.81,5.18s8.31,4.34,11.16,6.07,5.56,7.05,6.23,10S217.4,158.22,210.79,157.83Z"/><path class="a75773e8-c1b1-4d77-9a17-7cb7e597a592" d="M115.11,157c-1.29-.08-3.5-.16-6.22-.25-11.22-.36-31.12-.75-31.12-.75.07-1.65,6.11-7,6.23-10.31s2.83-4.62,3.69-6.25c.68-1.29,3.91-5.4,5-7.93a2.78,2.78,0,0,0,.37-1.64c-.46-1.71,7.93.53,8.81,5.17s8.32,4.35,11.16,6.07,5.56,7,6.24,10S121.72,157.39,115.11,157Z"/><path class="a87e7b3a-0b0f-4a58-864e-5fc575010185" d="M115.11,157c-1.29-.08-3.5-.16-6.22-.25,2.8-2.86,5.88-5.57,6.48-6.6,1.42-2.43-4-5.63-9-7.54a19.78,19.78,0,0,1-10-9c-.69-1.38-2.17-1.88-3.67-2.12a2.78,2.78,0,0,0,.37-1.64c-.46-1.71,7.93.53,8.81,5.17s8.32,4.35,11.16,6.07,5.56,7,6.24,10S121.72,157.39,115.11,157Z"/><path class="a75773e8-c1b1-4d77-9a17-7cb7e597a592" d="M95.12,157.7c-9.06.12-32.49-2.1-40-1.94-9.61.2-30.46.9-41.32.63,2.17-2.25,22.73-23.12,23.58-25.61a27.33,27.33,0,0,1,3.35-7.09c.87-1.14,1.86-1.87,2.9-1.66,1.24.24,8.28,8,19.14,14.81,17.42,6.36,35.1,18.82,36,20.13C99,157.46,97.62,157.67,95.12,157.7Z"/><path class="a87e7b3a-0b0f-4a58-864e-5fc575010185" d="M95.12,157.7c-9.62-4.83-21.1-11.07-23.65-11.1-4.29,0-18.75-10.77-19-13.33s-5.77-4.61-9.66-6.54a4.84,4.84,0,0,1-2.13-3c.87-1.14,1.86-1.87,2.9-1.66,1.24.24,8.28,8,19.14,14.81,17.42,6.36,35.1,18.82,36,20.13C99,157.46,97.62,157.67,95.12,157.7Z"/><path class="e26f2ef0-5475-4963-aed0-641440a760ec" d="M109.47,155.48c-.25-4.46,3.41-11.6,7.65-12s2.76-16.56,2.8-17.6,2-7,6.61-7,.87-11.52,3-11.24-2.2-8.66,5.43-9.47,4.84,6,8.24,5.61,6.72.93,6.66,2.47,0,11.81,2.94,11.43,4.44,5.33,4.32,8.21,3.45,9.11,6.44,8.29,1.77,8.75,2.1,11.14,5.9,11.49-2.58,12.21S109.47,155.48,109.47,155.48Z"/><path class="a87e7b3a-0b0f-4a58-864e-5fc575010185" d="M165.63,145.35c-.33-2.39.89-12-2.1-11.14s-6.55-5.42-6.44-8.29-1.35-8.58-4.32-8.21-3-9.9-2.94-11.43-3.27-2.82-6.66-2.47-.6-6.42-8.24-5.61c-3.41.36-4.43,2.35-4.72,4.41,3.82,1.15,2.36,6,5.18,5.68,3.39-.37,6.72,1,6.66,2.58s-.06,12.37,2.91,12,4.43,5.57,4.32,8.59,3.43,9.53,6.42,8.67,1.76,9.16,2.08,11.66c.14,1.08,1.26,3.48,1.8,5.91,1.45,0,2.64,0,3.47-.11C171.53,156.84,166,147.73,165.63,145.35Z"/><path class="a87e7b3a-0b0f-4a58-864e-5fc575010185" d="M124,141.08c-2.56.7-4.52,1.79,4.64,2.83s23.12.5,23.12.5-10.46-5.31-16.79-2.91A13.12,13.12,0,0,1,124,141.08Z"/><path class="f43fd995-a3df-415f-a4fe-fcd1f7b722fc" d="M62.41,192.66c37.39-1.53,112.71,2.7,127.3,2.13s8.08,8.29-42.18,8.69c-23,.19-75.68-.26-108.48-2C-.68,199.42-13.49,195.76,62.41,192.66Z"/><path class="bf08d8aa-3568-41d5-abe8-646084862258" d="M183.24,171.92h-6.75c5.95,1.07,8.74,9.66,8.74,13.61s-2.06,12.46-8.74,13.61h6.75c4.83,0,8.74-6.1,8.74-13.61S188.07,171.92,183.24,171.92Z"/><path class="e22a04d4-a797-4d84-a5e3-f315521b30f5" d="M182.42,175.55c-1.56-2.25-3.64-3.63-5.93-3.63-4.82,0-8.73,6.09-8.73,13.61s3.91,13.61,8.73,13.61c2.29,0,4.37-1.39,5.93-3.64a21.3,21.3,0,0,0,2.81-10C185.23,181.58,184.22,179.21,182.42,175.55Z"/><path class="b3fe6b5b-cd5c-4aa2-b6b5-f13cde0bbc40" d="M181.32,185.3c0,4.6-2.42,8.33-5.42,8.33s-5.41-3.73-5.41-8.33,2.42-8.32,5.41-8.32S181.32,180.7,181.32,185.3Z"/><path class="bf08d8aa-3568-41d5-abe8-646084862258" d="M172.3,185.3c0-4.12,1.95-7.54,4.51-8.21a3.91,3.91,0,0,0-.91-.11c-3,0-5.41,3.72-5.41,8.32s2.42,8.33,5.41,8.33a3.44,3.44,0,0,0,.91-.12C174.25,192.84,172.3,189.42,172.3,185.3Z"/><polygon points="191.68 187.69 185.68 187.69 185.41 189.87 191.4 189.87 191.68 187.69"/><polygon points="191.21 190.65 185.21 190.65 184.5 192.64 190.49 192.64 191.21 190.65"/><polygon points="190.35 193.17 184.36 193.17 183.51 194.81 189.5 194.81 190.35 193.17"/><polygon points="187.62 197.27 181.62 197.27 180.31 198.23 186.3 198.23 187.62 197.27"/><polygon points="189.24 195.27 183.25 195.27 182.13 196.84 188.12 196.84 189.24 195.27"/><polygon points="185.61 198.41 180.09 198.41 178.65 199.01 184.17 199.01 185.61 198.41"/><rect x="185.69" y="184.18" width="5.99" height="2.64"/><polygon points="191.55 183.38 185.56 183.38 185.29 181.2 191.28 181.2 191.55 183.38"/><polygon points="191.08 180.48 185.09 180.48 184.37 178.49 190.37 178.49 191.08 180.48"/><polygon points="190.23 177.95 184.24 177.95 183.39 176.32 189.38 176.32 190.23 177.95"/><polygon points="187.49 173.86 181.5 173.86 180.18 172.9 186.18 172.9 187.49 173.86"/><polygon points="189.12 175.85 183.12 175.85 182.01 174.28 188 174.28 189.12 175.85"/><polygon points="185.49 172.72 179.97 172.72 178.53 172.12 184.05 172.12 185.49 172.72"/><path class="bf08d8aa-3568-41d5-abe8-646084862258" d="M176.69,171.89h-6.75c5.94,1.07,8.74,9.66,8.74,13.61s-2.07,12.46-8.74,13.61h6.75c4.82,0,8.74-6.1,8.74-13.61S181.51,171.89,176.69,171.89Z"/><path class="e22a04d4-a797-4d84-a5e3-f315521b30f5" d="M175.87,175.52c-1.56-2.25-3.64-3.63-5.93-3.63-4.83,0-8.74,6.09-8.74,13.61s3.91,13.61,8.74,13.61c2.29,0,4.37-1.39,5.93-3.64a21.3,21.3,0,0,0,2.81-10C178.68,181.55,177.67,179.17,175.87,175.52Z"/><path d="M174.77,185.27c0,4.6-2.43,8.33-5.42,8.33s-5.42-3.73-5.42-8.33,2.43-8.33,5.42-8.33S174.77,180.67,174.77,185.27Z"/><path d="M165.75,185.27c0-4.12,1.95-7.54,4.51-8.21a4,4,0,0,0-.91-.12c-3,0-5.42,3.73-5.42,8.33s2.43,8.33,5.42,8.33a4,4,0,0,0,.91-.12C167.7,192.81,165.75,189.39,165.75,185.27Z"/><polygon points="185.12 187.65 179.13 187.65 178.85 189.84 184.85 189.84 185.12 187.65"/><polygon points="184.65 190.61 178.66 190.61 177.94 192.61 183.93 192.61 184.65 190.61"/><polygon points="183.8 193.14 177.8 193.14 176.96 194.77 182.95 194.77 183.8 193.14"/><polygon points="181.06 197.24 175.07 197.24 173.75 198.19 179.75 198.19 181.06 197.24"/><polygon points="182.68 195.24 176.69 195.24 175.58 196.81 181.57 196.81 182.68 195.24"/><polygon points="179.06 198.37 173.54 198.37 172.1 198.97 177.62 198.97 179.06 198.37"/><rect x="179.14" y="184.14" width="5.99" height="2.64"/><polygon points="185 183.35 179.01 183.35 178.73 181.16 184.72 181.16 185 183.35"/><polygon points="184.53 180.45 178.54 180.45 177.82 178.45 183.81 178.45 184.53 180.45"/><polygon points="183.68 177.92 177.68 177.92 176.84 176.29 182.83 176.29 183.68 177.92"/><polygon points="180.94 173.83 174.95 173.83 173.63 172.87 179.62 172.87 180.94 173.83"/><polygon points="182.56 175.82 176.57 175.82 175.45 174.25 181.45 174.25 182.56 175.82"/><polygon points="178.94 172.69 173.42 172.69 171.97 172.09 177.49 172.09 178.94 172.69"/><path d="M149.18,171.61h-6.75c5.95,1.07,8.74,9.66,8.74,13.61s-2.06,12.47-8.74,13.61h6.75c4.83,0,8.74-6.09,8.74-13.61S154,171.61,149.18,171.61Z"/><path class="e22a04d4-a797-4d84-a5e3-f315521b30f5" d="M148.36,175.24c-1.56-2.25-3.64-3.63-5.93-3.63-4.82,0-8.73,6.09-8.73,13.61s3.91,13.61,8.73,13.61c2.29,0,4.37-1.39,5.93-3.63a21.34,21.34,0,0,0,2.81-10C151.17,181.27,150.16,178.9,148.36,175.24Z"/><path class="b3fe6b5b-cd5c-4aa2-b6b5-f13cde0bbc40" d="M147.26,185c0,4.6-2.43,8.33-5.42,8.33s-5.42-3.73-5.42-8.33,2.43-8.32,5.42-8.32S147.26,180.4,147.26,185Z"/><path class="bf08d8aa-3568-41d5-abe8-646084862258" d="M138.24,185c0-4.12,1.95-7.54,4.51-8.2a3.44,3.44,0,0,0-.91-.12c-3,0-5.42,3.73-5.42,8.32s2.43,8.33,5.42,8.33a3.44,3.44,0,0,0,.91-.12C140.19,192.54,138.24,189.12,138.24,185Z"/><polygon points="157.62 187.38 151.62 187.38 151.35 189.56 157.34 189.56 157.62 187.38"/><polygon points="157.15 190.34 151.15 190.34 150.43 192.33 156.43 192.33 157.15 190.34"/><polygon points="156.29 192.87 150.3 192.87 149.45 194.5 155.44 194.5 156.29 192.87"/><polygon points="153.55 196.96 147.56 196.96 146.25 197.92 152.24 197.92 153.55 196.96"/><polygon points="155.18 194.97 149.18 194.97 148.07 196.53 154.06 196.53 155.18 194.97"/><polygon points="151.55 198.1 146.03 198.1 144.59 198.7 150.11 198.7 151.55 198.1"/><rect x="151.63" y="183.87" width="5.99" height="2.64"/><polygon points="157.49 183.07 151.5 183.07 151.22 180.89 157.22 180.89 157.49 183.07"/><polygon points="157.02 180.17 151.03 180.17 150.31 178.18 156.31 178.18 157.02 180.17"/><polygon points="156.17 177.65 150.18 177.65 149.33 176.01 155.32 176.01 156.17 177.65"/><polygon points="153.43 173.55 147.44 173.55 146.12 172.59 152.12 172.59 153.43 173.55"/><polygon points="155.05 175.54 149.06 175.54 147.95 173.97 153.94 173.97 155.05 175.54"/><polygon points="151.43 172.41 145.91 172.41 144.47 171.81 149.99 171.81 151.43 172.41"/><path d="M142.63,171.58h-6.75c5.94,1.07,8.73,9.66,8.73,13.61s-2.06,12.46-8.73,13.61h6.75c4.82,0,8.73-6.1,8.73-13.61S147.45,171.58,142.63,171.58Z"/><path class="b6a6b5e4-89a5-4704-8baa-1987b87732b4" d="M141.81,175.21c-1.56-2.25-3.64-3.63-5.93-3.63-4.83,0-8.74,6.09-8.74,13.61s3.91,13.61,8.74,13.61c2.29,0,4.37-1.39,5.93-3.64a21.3,21.3,0,0,0,2.8-10C144.61,181.24,143.61,178.87,141.81,175.21Z"/><path d="M140.71,185c0,4.6-2.43,8.33-5.42,8.33s-5.42-3.73-5.42-8.33,2.43-8.32,5.42-8.32S140.71,180.36,140.71,185Z"/><path d="M131.69,185c0-4.12,1.95-7.54,4.51-8.21a4,4,0,0,0-.91-.11c-3,0-5.42,3.72-5.42,8.32s2.43,8.33,5.42,8.33a3.5,3.5,0,0,0,.91-.12C133.64,192.5,131.69,189.08,131.69,185Z"/><polygon points="151.06 187.34 145.07 187.34 144.79 189.53 150.79 189.53 151.06 187.34"/><polygon points="150.59 190.31 144.6 190.31 143.88 192.3 149.87 192.3 150.59 190.31"/><polygon points="149.74 192.83 143.74 192.83 142.9 194.47 148.89 194.47 149.74 192.83"/><polygon points="147 196.93 141.01 196.93 139.69 197.89 145.69 197.89 147 196.93"/><polygon points="148.62 194.93 142.63 194.93 141.52 196.5 147.51 196.5 148.62 194.93"/><polygon points="145 198.06 139.48 198.06 138.04 198.67 143.55 198.67 145 198.06"/><rect x="145.08" y="183.84" width="5.99" height="2.64"/><polygon points="150.94 183.04 144.95 183.04 144.67 180.85 150.66 180.85 150.94 183.04"/><polygon points="150.47 180.14 144.48 180.14 143.76 178.15 149.75 178.15 150.47 180.14"/><polygon points="149.61 177.61 143.62 177.61 142.77 175.98 148.77 175.98 149.61 177.61"/><polygon points="146.88 173.52 140.89 173.52 139.57 172.56 145.56 172.56 146.88 173.52"/><polygon points="148.5 175.51 142.51 175.51 141.39 173.94 147.39 173.94 148.5 175.51"/><polygon points="144.87 172.38 139.35 172.38 137.91 171.78 143.43 171.78 144.87 172.38"/><path d="M115.26,171.61h-6.75c5.95,1.07,8.74,9.66,8.74,13.61s-2.07,12.47-8.74,13.61h6.75c4.83,0,8.74-6.09,8.74-13.61S120.09,171.61,115.26,171.61Z"/><path class="e22a04d4-a797-4d84-a5e3-f315521b30f5" d="M114.44,175.24c-1.56-2.25-3.64-3.63-5.93-3.63-4.82,0-8.74,6.09-8.74,13.61s3.92,13.61,8.74,13.61c2.29,0,4.37-1.39,5.93-3.63a21.34,21.34,0,0,0,2.81-10C117.25,181.27,116.24,178.9,114.44,175.24Z"/><path class="b3fe6b5b-cd5c-4aa2-b6b5-f13cde0bbc40" d="M113.34,185c0,4.6-2.43,8.33-5.42,8.33s-5.42-3.73-5.42-8.33,2.43-8.32,5.42-8.32S113.34,180.4,113.34,185Z"/><path class="bf08d8aa-3568-41d5-abe8-646084862258" d="M104.32,185c0-4.12,2-7.54,4.51-8.2a3.5,3.5,0,0,0-.91-.12c-3,0-5.42,3.73-5.42,8.32s2.43,8.33,5.42,8.33a3.5,3.5,0,0,0,.91-.12C106.27,192.54,104.32,189.12,104.32,185Z"/><polygon points="123.69 187.38 117.7 187.38 117.43 189.56 123.42 189.56 123.69 187.38"/><polygon points="123.22 190.34 117.23 190.34 116.51 192.33 122.5 192.33 123.22 190.34"/><polygon points="122.37 192.87 116.38 192.87 115.53 194.5 121.52 194.5 122.37 192.87"/><polygon points="119.63 196.96 113.64 196.96 112.33 197.92 118.32 197.92 119.63 196.96"/><polygon points="121.25 194.97 115.26 194.97 114.15 196.53 120.14 196.53 121.25 194.97"/><polygon points="117.63 198.1 112.11 198.1 110.67 198.7 116.19 198.7 117.63 198.1"/><rect x="117.71" y="183.87" width="5.99" height="2.64"/><polygon points="123.57 183.07 117.58 183.07 117.3 180.89 123.3 180.89 123.57 183.07"/><polygon points="123.1 180.17 117.11 180.17 116.39 178.18 122.38 178.18 123.1 180.17"/><polygon points="122.25 177.65 116.25 177.65 115.41 176.01 121.4 176.01 122.25 177.65"/><polygon points="119.51 173.55 113.52 173.55 112.2 172.59 118.19 172.59 119.51 173.55"/><polygon points="121.13 175.54 115.14 175.54 114.03 173.97 120.02 173.97 121.13 175.54"/><polygon points="117.51 172.41 111.99 172.41 110.55 171.81 116.06 171.81 117.51 172.41"/><path d="M108.71,171.58H102c5.94,1.07,8.73,9.66,8.73,13.61s-2.06,12.46-8.73,13.61h6.75c4.82,0,8.73-6.1,8.73-13.61S113.53,171.58,108.71,171.58Z"/><path class="b6a6b5e4-89a5-4704-8baa-1987b87732b4" d="M107.89,175.21c-1.56-2.25-3.64-3.63-5.93-3.63-4.83,0-8.74,6.09-8.74,13.61S97.13,198.8,102,198.8c2.29,0,4.37-1.39,5.93-3.64a21.3,21.3,0,0,0,2.8-10C110.69,181.24,109.68,178.87,107.89,175.21Z"/><path d="M106.79,185c0,4.6-2.43,8.33-5.42,8.33S96,189.56,96,185s2.42-8.32,5.42-8.32S106.79,180.36,106.79,185Z"/><path class="ae07678d-bd45-488d-83df-62859d70aca0" d="M97.77,185c0-4.12,2-7.54,4.51-8.21a4,4,0,0,0-.91-.11c-3,0-5.42,3.72-5.42,8.32s2.42,8.33,5.42,8.33a3.5,3.5,0,0,0,.91-.12C99.72,192.5,97.77,189.08,97.77,185Z"/><polygon points="117.14 187.34 111.15 187.34 110.87 189.53 116.86 189.53 117.14 187.34"/><polygon points="116.67 190.31 110.68 190.31 109.96 192.3 115.95 192.3 116.67 190.31"/><polygon points="115.81 192.83 109.82 192.83 108.97 194.47 114.97 194.47 115.81 192.83"/><polygon points="113.08 196.93 107.09 196.93 105.77 197.89 111.76 197.89 113.08 196.93"/><polygon points="114.7 194.93 108.71 194.93 107.59 196.5 113.59 196.5 114.7 194.93"/><polygon points="111.08 198.06 105.56 198.06 104.11 198.67 109.63 198.67 111.08 198.06"/><rect x="111.16" y="183.84" width="5.99" height="2.64"/><polygon points="117.02 183.04 111.03 183.04 110.75 180.85 116.74 180.85 117.02 183.04"/><polygon points="116.55 180.14 110.56 180.14 109.84 178.15 115.83 178.15 116.55 180.14"/><polygon points="115.69 177.61 109.7 177.61 108.85 175.98 114.84 175.98 115.69 177.61"/><polygon points="112.96 173.52 106.97 173.52 105.65 172.56 111.64 172.56 112.96 173.52"/><polygon points="114.58 175.51 108.59 175.51 107.47 173.94 113.47 173.94 114.58 175.51"/><polygon points="110.95 172.38 105.43 172.38 103.99 171.78 109.51 171.78 110.95 172.38"/><path class="b01d0f2f-7797-4c7b-b87f-ec9dce6fc5be" d="M53.34,147.44H83.81l17.89-8.5c0-1.81.38-3.29.71-3.29H54.19c-4.15,0-16.49,7.06-16.49,7.06a5.76,5.76,0,0,0-3,4.73Z"/><path class="a99e4d52-a2a5-409c-952c-75691b3f39fd" d="M48.21,171.93c1.27,1.29,2.94,2.35,3.72,2.35s1.41-1.49,1.41-3.3v-32c0-1.81-.27-2.92-.61-2.92a10.85,10.85,0,0,0-3.56,1.08L37.7,142.71a5.76,5.76,0,0,0-3,4.73v7.5a9.28,9.28,0,0,0,2.31,5.64Z"/><path class="a0c34756-b30a-4b18-b33a-67e7b03ce8c2" d="M97.16,171.08a4.56,4.56,0,0,0,4.27,3.28l32.12-.08a3.31,3.31,0,0,0,3.29-3.3v-32a3.3,3.3,0,0,0-3.29-3.29H102.41c-1.81,0-4.87,1.48-5.25,3.29l-3.08,11a13.27,13.27,0,0,0-.14,4.66Z"/><path class="a0c34756-b30a-4b18-b33a-67e7b03ce8c2" d="M138.36,171.93c-1.27,1.29-3,2.35-3.72,2.35s-1.42-1.49-1.42-3.3v-32c0-1.81.28-3.29.61-3.29a17.77,17.77,0,0,1,3.57,1.45l11.47,5.61a5.77,5.77,0,0,1,2.95,4.73v7.5a9.28,9.28,0,0,1-2.31,5.64Z"/><path class="b01d0f2f-7797-4c7b-b87f-ec9dce6fc5be" d="M85.73,143.47l16-4.53c0-1.81.38-3.29.71-3.29H54.19c-4.15,0-16.24,6.48-17.57,7.82Z"/><rect class="a99e4d52-a2a5-409c-952c-75691b3f39fd" x="38.49" y="142.94" width="48.75" height="13.83" transform="translate(125.73 299.71) rotate(180)"/><path class="e0b859fd-658f-4c35-9bc1-1a45a435745a" d="M48.21,171.93c1.27,1.29,2.94,2.35,3.72,2.35H101c0-1.81-15-18.31-16.65-17.51H35a9.17,9.17,0,0,0,2,3.81Z"/><path class="a0c34756-b30a-4b18-b33a-67e7b03ce8c2" d="M97.28,171.93c1.26,1.29,2.94,2.35,3.72,2.35s1.41-1.49,1.41-3.3v-32c0-1.81.34-3.29,0-3.29a18.4,18.4,0,0,0-4.17,1.45l-11.47,5.61a5.76,5.76,0,0,0-3,4.73v7.5a9.28,9.28,0,0,0,2.31,5.64Z"/><path class="b01d0f2f-7797-4c7b-b87f-ec9dce6fc5be" d="M104.24,174.28h41.5a5.47,5.47,0,0,0,5.47-5.48c0-5.84.79-17.54.79-23.38,0-3-.71-5.47-3.74-5.47H103.88a5.46,5.46,0,0,0-5.39,4.55s-.91,5.29-1.21,7.05a5.34,5.34,0,0,0,0,1.44l1.56,16.33A5.48,5.48,0,0,0,104.24,174.28Z"/><polygon class="a99e4d52-a2a5-409c-952c-75691b3f39fd" points="108.26 174.37 120.15 164.88 106.87 166.09 108.26 174.37"/><path class="f3bec3f3-6899-4b76-a0ba-2ac50edfeccf" d="M98.87,169.89c.56,5.51,9.39,4.48,9.39,4.48l-1.39-8.28H98.48S98.68,167.94,98.87,169.89Z"/><polygon class="a0c34756-b30a-4b18-b33a-67e7b03ce8c2" points="120.15 164.88 108.26 174.37 137.98 174.28 120.15 164.88"/><polygon class="e0b859fd-658f-4c35-9bc1-1a45a435745a" points="137.98 174.28 153.41 174.28 160.12 164.88 152.79 155.49 137.98 155.49 120.15 164.88 137.98 174.28"/><polygon class="b01d0f2f-7797-4c7b-b87f-ec9dce6fc5be" points="141.84 159.77 154.59 159.77 160.12 164.88 152.79 155.49 137.98 155.49 120.15 164.88 141.84 159.77"/><polygon class="a0c34756-b30a-4b18-b33a-67e7b03ce8c2" points="154.59 159.77 141.84 159.77 137.98 174.28 153.41 174.28 154.59 159.77"/><path class="a0c34756-b30a-4b18-b33a-67e7b03ce8c2" d="M99.09,159.78A2.18,2.18,0,0,0,101,162h4.23a1.86,1.86,0,0,0,1.58-2.19l-.34-5.33a23.2,23.2,0,0,1,.21-4.33l.94-5.58c.2-1.18-.42-2.15-1.37-2.15H102a2.45,2.45,0,0,0-2.08,2.15L99,150.12a22.38,22.38,0,0,0-.22,4.33Z"/><path class="a99e4d52-a2a5-409c-952c-75691b3f39fd" d="M99.46,159.58c.07,1.17.83,2.13,1.7,2.13H105c.86,0,1.51-1,1.44-2.13l-.31-5.18a23.78,23.78,0,0,1,.2-4.22l.85-5.43c.18-1.14-.38-2.08-1.25-2.08h-3.85a2.29,2.29,0,0,0-1.9,2.08l-.85,5.43a23.78,23.78,0,0,0-.2,4.22Z"/><path class="a2860cb9-afe6-4345-beca-b2d4b1978837" d="M99.92,148.52a1.24,1.24,0,0,0,1.13,1.56H104a2.11,2.11,0,0,0,1.73-1.62,4.58,4.58,0,0,0,.23-1l.44-2.52c.15-.88-.31-1.6-1-1.6h-3.3a1.81,1.81,0,0,0-1.55,1.6l-.42,2.52C100,148.32,99.92,148.52,99.92,148.52Z"/><rect x="131.67" y="177.69" width="5.3" height="2.29" transform="translate(268.65 357.67) rotate(180)"/><rect x="131.67" y="179.98" width="5.3" height="2.61" transform="translate(268.65 362.56) rotate(180)"/><path d="M131,188.68h6c1,0,1.82-1.36,1.82-3.05s-.81-3-1.82-3h-6Z"/><path class="ffff9d49-7095-45d6-b834-b6bceb117e4c" d="M129.17,185.63c0,1.69.81,3.05,1.82,3.05s1.81-1.36,1.81-3.05-.81-3-1.81-3S129.17,184,129.17,185.63Z"/><rect class="ffff9d49-7095-45d6-b834-b6bceb117e4c" x="130.3" y="177.69" width="1.37" height="5.22"/><polygon points="113.51 174.28 131.52 183.28 131.52 187.67 113.51 179.53 113.51 174.28"/><polygon points="108.89 179.53 130.84 187.97 131.52 187.67 113.51 179.53 108.89 179.53"/><rect class="ffff9d49-7095-45d6-b834-b6bceb117e4c" x="44.04" y="174.28" width="103.67" height="5.26" transform="translate(191.76 353.81) rotate(180)"/><polygon class="ffff9d49-7095-45d6-b834-b6bceb117e4c" points="120.42 174.28 102.41 183.19 102.41 187.57 120.42 179.44 120.42 174.28"/><polygon class="acaefcdf-47be-4b2c-b63c-8167a08da24c" points="112.59 174.28 94.58 183.19 102.41 183.19 120.42 174.28 112.59 174.28"/><polygon class="ffff9d49-7095-45d6-b834-b6bceb117e4c" points="52.16 174.28 34.15 183.19 34.15 187.57 52.16 179.44 52.16 174.28"/><polygon class="acaefcdf-47be-4b2c-b63c-8167a08da24c" points="44.33 174.28 26.32 183.19 34.15 183.19 52.16 174.28 44.33 174.28"/><polygon class="ffff9d49-7095-45d6-b834-b6bceb117e4c" points="85.99 174.28 67.98 183.19 67.98 187.57 85.99 179.44 85.99 174.28"/><polygon class="acaefcdf-47be-4b2c-b63c-8167a08da24c" points="78.16 174.28 60.15 183.19 67.98 183.19 85.99 174.28 78.16 174.28"/><rect class="ffff9d49-7095-45d6-b834-b6bceb117e4c" x="165.88" y="177.69" width="5.3" height="2.29" transform="translate(337.06 357.67) rotate(180)"/><rect class="ffff9d49-7095-45d6-b834-b6bceb117e4c" x="165.88" y="179.98" width="5.3" height="2.61" transform="translate(337.06 362.56) rotate(180)"/><path class="ffff9d49-7095-45d6-b834-b6bceb117e4c" d="M165.19,188.68h6c1,0,1.82-1.36,1.82-3.05s-.81-3-1.82-3h-6Z"/><path class="acaefcdf-47be-4b2c-b63c-8167a08da24c" d="M163.38,185.63c0,1.69.81,3.05,1.81,3.05s1.82-1.36,1.82-3.05-.81-3-1.82-3S163.38,184,163.38,185.63Z"/><rect class="acaefcdf-47be-4b2c-b63c-8167a08da24c" x="164.51" y="177.69" width="1.37" height="5.22"/><polygon class="ffff9d49-7095-45d6-b834-b6bceb117e4c" points="147.72 174.28 165.73 183.28 165.73 187.67 147.72 179.53 147.72 174.28"/><polygon points="143.1 179.53 165.04 187.97 165.73 187.67 147.72 179.53 143.1 179.53"/><polygon class="a2a31d17-dfd3-4ef0-8b2e-7819c015cbc1" points="52.27 172.22 93.8 172.22 80.18 158.6 37.37 158.6 52.27 172.22"/><polygon points="39.81 158.6 53.6 171.48 93.06 171.48 93.8 172.22 52.27 172.22 37.37 158.6 39.81 158.6"/><polygon class="a2860cb9-afe6-4345-beca-b2d4b1978837" points="140.93 141.32 150.6 141.32 152.79 155.49 138.62 155.49 140.93 141.32"/><polygon class="a2860cb9-afe6-4345-beca-b2d4b1978837" points="138.12 155.49 119.54 141.32 140.31 141.32 138.12 155.49"/><polygon class="a2860cb9-afe6-4345-beca-b2d4b1978837" points="138.12 141.32 119.54 141.32 113.84 150.41 126.46 160.75 137.5 155.01 138.12 141.32"/><polygon class="a2860cb9-afe6-4345-beca-b2d4b1978837" points="151.01 141.59 159.97 164.54 153.06 155.49 151.01 141.59"/><polygon class="a0c34756-b30a-4b18-b33a-67e7b03ce8c2" points="113.9 150.37 114.27 150.76 120.15 141.32 119.54 141.32 113.9 150.37"/><polygon class="a0c34756-b30a-4b18-b33a-67e7b03ce8c2" points="126.48 160.78 127.01 160.51 120.15 141.32 119.54 141.32 126.48 160.78"/><polygon class="a0c34756-b30a-4b18-b33a-67e7b03ce8c2" points="138.29 155.37 137.5 155.01 126.46 160.75 126.95 161.31 138.29 155.37"/><polygon class="a0c34756-b30a-4b18-b33a-67e7b03ce8c2" points="138.12 155.49 138.73 155.49 120.15 141.32 119.54 141.32 138.12 155.49"/><polygon class="a0c34756-b30a-4b18-b33a-67e7b03ce8c2" points="126.48 160.78 127.1 160.53 114.2 149.87 113.9 150.37 126.48 160.78"/><polygon class="a0c34756-b30a-4b18-b33a-67e7b03ce8c2" points="158.94 163.37 160.12 164.88 151.21 141.32 150.6 141.32 158.94 163.37"/><polygon class="a0c34756-b30a-4b18-b33a-67e7b03ce8c2" points="152.48 155.49 153.1 155.49 150.9 141.32 150.29 141.32 152.48 155.49"/><polygon class="a0c34756-b30a-4b18-b33a-67e7b03ce8c2" points="159.85 164.54 159.16 162.76 152.99 155.01 152.74 155.49 159.85 164.54"/><polygon class="a0c34756-b30a-4b18-b33a-67e7b03ce8c2" points="138.12 155.49 138.73 155.49 140.93 141.32 140.31 141.32 138.12 155.49"/><rect class="a0c34756-b30a-4b18-b33a-67e7b03ce8c2" x="119.54" y="141.32" width="31.47" height="0.57" transform="translate(270.54 283.21) rotate(180)"/><rect class="a0c34756-b30a-4b18-b33a-67e7b03ce8c2" x="137.98" y="154.96" width="14.74" height="0.53" transform="translate(290.7 310.45) rotate(180)"/><rect class="a17ac7be-f041-42ed-a406-af6f22c115be" x="58" y="166.09" width="5.05" height="5.39"/><path class="a99e4d52-a2a5-409c-952c-75691b3f39fd" d="M59.92,168.79c0,1.49-.79,2.69-1.75,2.69s-1.76-1.2-1.76-2.69.79-2.7,1.76-2.7S59.92,167.3,59.92,168.79Z"/><path class="a2a31d17-dfd3-4ef0-8b2e-7819c015cbc1" d="M59.46,168.79c0,1.09-.58,2-1.29,2s-1.29-.89-1.29-2,.57-2,1.29-2S59.46,167.69,59.46,168.79Z"/><rect class="a17ac7be-f041-42ed-a406-af6f22c115be" x="61.89" y="166.09" width="5.05" height="5.39"/><path class="a99e4d52-a2a5-409c-952c-75691b3f39fd" d="M63.81,168.79c0,1.49-.79,2.69-1.76,2.69s-1.75-1.2-1.75-2.69.79-2.7,1.75-2.7S63.81,167.3,63.81,168.79Z"/><path class="a2a31d17-dfd3-4ef0-8b2e-7819c015cbc1" d="M63.34,168.79c0,1.09-.57,2-1.29,2s-1.29-.89-1.29-2,.58-2,1.29-2S63.34,167.69,63.34,168.79Z"/><rect class="bca4cac6-4624-46d7-a59c-c46085c843d9" x="65.85" y="166.09" width="5.05" height="5.39"/><path class="a99e4d52-a2a5-409c-952c-75691b3f39fd" d="M67.76,168.79c0,1.49-.78,2.69-1.75,2.69s-1.76-1.2-1.76-2.69.79-2.7,1.76-2.7S67.76,167.3,67.76,168.79Z"/><path class="a2a31d17-dfd3-4ef0-8b2e-7819c015cbc1" d="M67.3,168.79c0,1.09-.58,2-1.29,2s-1.29-.89-1.29-2,.57-2,1.29-2S67.3,167.69,67.3,168.79Z"/><polygon points="72.1 171.48 84.38 171.48 73.16 160.15 72.1 171.48"/><rect class="e0b859fd-658f-4c35-9bc1-1a45a435745a" x="69.99" y="159.96" width="3.62" height="11.52" rx="1.1"/><path class="a0c34756-b30a-4b18-b33a-67e7b03ce8c2" d="M70.21,170.91h1.42a1.11,1.11,0,0,0,1.1-1.1v-9.33a1,1,0,0,0-.15-.51,1.1,1.1,0,0,1,1,1.08v9.33a1.1,1.1,0,0,1-1.1,1.1H71.09a1.08,1.08,0,0,1-1-.59Z"/><polygon points="76.41 171.47 88.69 171.47 77.47 160.15 76.41 171.47"/><rect class="e0b859fd-658f-4c35-9bc1-1a45a435745a" x="74.3" y="159.95" width="3.62" height="11.52" rx="1.1"/><path class="a0c34756-b30a-4b18-b33a-67e7b03ce8c2" d="M74.52,170.9h1.42a1.1,1.1,0,0,0,1.1-1.1v-9.32a1,1,0,0,0-.15-.52,1.1,1.1,0,0,1,1,1.09v9.32a1.09,1.09,0,0,1-1.09,1.1H75.4a1.07,1.07,0,0,1-1-.59Z"/><polygon points="80.84 171.53 93.11 171.53 81.82 160.21 80.84 171.53"/><rect class="e0b859fd-658f-4c35-9bc1-1a45a435745a" x="78.59" y="159.94" width="3.62" height="11.52" rx="1.1"/><path class="a0c34756-b30a-4b18-b33a-67e7b03ce8c2" d="M78.8,170.89h1.42a1.1,1.1,0,0,0,1.1-1.1v-9.32a1.08,1.08,0,0,0-.14-.51,1.08,1.08,0,0,1,1,1.08v9.33a1.09,1.09,0,0,1-1.09,1.09H79.68a1.1,1.1,0,0,1-1-.58Z"/><path class="a0c34756-b30a-4b18-b33a-67e7b03ce8c2" d="M46.6,163.14c0,.27.22,1.68.48,1.68h2.27a.48.48,0,0,0,.48-.49v-5.25a.47.47,0,0,0-.48-.48H47.08a.48.48,0,0,0-.48.48Z"/><path class="a99e4d52-a2a5-409c-952c-75691b3f39fd" d="M37.13,164.33a.49.49,0,0,0,.48.49h9.47a.47.47,0,0,0,.46-.49v-5.25a.47.47,0,0,0-.48-.48H37.61a.48.48,0,0,0-.48.48Z"/><path class="a0c34756-b30a-4b18-b33a-67e7b03ce8c2" d="M59.73,163.14c0,.27.22,1.68.48,1.68h2.27a.48.48,0,0,0,.48-.49v-5.25a.47.47,0,0,0-.48-.48H60.21a.48.48,0,0,0-.48.48Z"/><path class="a99e4d52-a2a5-409c-952c-75691b3f39fd" d="M50.26,164.33a.49.49,0,0,0,.48.49h9.47a.47.47,0,0,0,.47-.49v-5.25a.48.48,0,0,0-.49-.48H50.74a.48.48,0,0,0-.48.48Z"/><path class="ffff9d49-7095-45d6-b834-b6bceb117e4c" d="M78.61,154.64a1.23,1.23,0,0,0,1.32,1.12h1.49a1.24,1.24,0,0,0,1.33-1.12V145.2a1.24,1.24,0,0,0-1.33-1.12H79.93a1.23,1.23,0,0,0-1.32,1.12Z"/><path class="e0b859fd-658f-4c35-9bc1-1a45a435745a" d="M63.93,154.64a1.29,1.29,0,0,0,1.41,1.12H80.8a1.29,1.29,0,0,0,1.41-1.12V145.2a1.29,1.29,0,0,0-1.41-1.12H65.34a1.29,1.29,0,0,0-1.41,1.12Z"/><rect class="ffff9d49-7095-45d6-b834-b6bceb117e4c" x="67.86" y="150.08" width="1.51" height="5.03" rx="0.48"/><rect class="b01d0f2f-7797-4c7b-b87f-ec9dce6fc5be" x="63.42" y="150.08" width="5.38" height="5.03" rx="0.48"/><path d="M64.39,154.15c-.08.08-.1.18,0,.22s.14,0,.22-.05L67.84,151c.08-.07.1-.17,0-.22s-.14,0-.22.05Z"/><path d="M67.67,154.32c.08.08.18.1.22.05s0-.14,0-.22l-3.28-3.28c-.08-.07-.18-.1-.22-.05s0,.15,0,.22Z"/><rect class="ffff9d49-7095-45d6-b834-b6bceb117e4c" x="73.63" y="150.08" width="1.51" height="5.03" rx="0.48"/><rect class="b01d0f2f-7797-4c7b-b87f-ec9dce6fc5be" x="69.19" y="150.08" width="5.38" height="5.03" rx="0.48"/><path d="M70.16,154.15c-.08.08-.1.18,0,.22s.14,0,.22-.05L73.61,151c.07-.07.1-.17,0-.22s-.15,0-.22.05Z"/><path d="M73.44,154.32c.07.08.17.1.22.05s0-.14,0-.22l-3.28-3.28c-.08-.07-.18-.1-.22-.05s0,.15,0,.22Z"/><rect class="a0c34756-b30a-4b18-b33a-67e7b03ce8c2" x="79.43" y="150.08" width="1.51" height="5.03" rx="0.48"/><rect class="b01d0f2f-7797-4c7b-b87f-ec9dce6fc5be" x="74.99" y="150.08" width="5.38" height="5.03" rx="0.48"/><path d="M76,154.15c-.07.08-.09.18,0,.22s.15,0,.22-.05L79.41,151a.18.18,0,0,0,0-.22s-.15,0-.22.05Z"/><path d="M79.24,154.32c.07.08.17.1.22.05s0-.14,0-.22l-3.29-3.28c-.07-.07-.17-.1-.22-.05a.18.18,0,0,0,0,.22Z"/><rect class="ffff9d49-7095-45d6-b834-b6bceb117e4c" x="67.86" y="144.55" width="1.51" height="5.03" rx="0.48"/><rect class="b01d0f2f-7797-4c7b-b87f-ec9dce6fc5be" x="63.42" y="144.55" width="5.38" height="5.03" rx="0.48"/><path d="M64.39,148.62c-.08.08-.1.18,0,.22s.14,0,.22-.05l3.28-3.28c.08-.07.1-.17,0-.22s-.14,0-.22.05Z"/><path d="M67.67,148.79c.08.08.18.1.22.05s0-.14,0-.22l-3.28-3.28c-.08-.07-.18-.1-.22-.05s0,.15,0,.22Z"/><rect class="ffff9d49-7095-45d6-b834-b6bceb117e4c" x="73.63" y="144.55" width="1.51" height="5.03" rx="0.48"/><rect class="b01d0f2f-7797-4c7b-b87f-ec9dce6fc5be" x="69.19" y="144.55" width="5.38" height="5.03" rx="0.48"/><path d="M70.16,148.62c-.08.08-.1.18,0,.22s.14,0,.22-.05l3.28-3.28c.07-.07.1-.17,0-.22s-.15,0-.22.05Z"/><path d="M73.44,148.79c.07.08.17.1.22.05s0-.14,0-.22l-3.28-3.28c-.08-.07-.18-.1-.22-.05s0,.15,0,.22Z"/><rect class="a0c34756-b30a-4b18-b33a-67e7b03ce8c2" x="79.43" y="144.55" width="1.51" height="5.03" rx="0.48"/><rect class="b01d0f2f-7797-4c7b-b87f-ec9dce6fc5be" x="74.99" y="144.55" width="5.38" height="5.03" rx="0.48"/><path d="M76,148.62c-.07.08-.09.18,0,.22s.15,0,.22-.05l3.29-3.28a.18.18,0,0,0,0-.22s-.15,0-.22.05Z"/><path d="M79.24,148.79c.07.08.17.1.22.05s0-.14,0-.22l-3.29-3.28c-.07-.07-.17-.1-.22-.05a.18.18,0,0,0,0,.22Z"/><path class="bf08d8aa-3568-41d5-abe8-646084862258" d="M105.13,171.92H98.38c5.94,1.07,8.73,9.66,8.73,13.61s-2.06,12.46-8.73,13.61h6.75c4.82,0,8.73-6.1,8.73-13.61S110,171.92,105.13,171.92Z"/><path class="e22a04d4-a797-4d84-a5e3-f315521b30f5" d="M104.31,175.55c-1.56-2.25-3.64-3.63-5.93-3.63-4.83,0-8.74,6.09-8.74,13.61s3.91,13.61,8.74,13.61c2.29,0,4.37-1.39,5.93-3.64a21.3,21.3,0,0,0,2.8-10C107.11,181.58,106.1,179.21,104.31,175.55Z"/><path class="b3fe6b5b-cd5c-4aa2-b6b5-f13cde0bbc40" d="M103.21,185.3c0,4.6-2.43,8.33-5.42,8.33s-5.42-3.73-5.42-8.33S94.8,177,97.79,177,103.21,180.7,103.21,185.3Z"/><path class="bf08d8aa-3568-41d5-abe8-646084862258" d="M94.19,185.3c0-4.12,2-7.54,4.51-8.21a4,4,0,0,0-.91-.11c-3,0-5.42,3.72-5.42,8.32s2.43,8.33,5.42,8.33a3.5,3.5,0,0,0,.91-.12C96.14,192.84,94.19,189.42,94.19,185.3Z"/><polygon points="113.56 187.69 107.57 187.69 107.29 189.87 113.28 189.87 113.56 187.69"/><polygon points="113.09 190.65 107.1 190.65 106.38 192.64 112.37 192.64 113.09 190.65"/><polygon points="112.23 193.17 106.24 193.17 105.39 194.81 111.39 194.81 112.23 193.17"/><polygon points="109.5 197.27 103.51 197.27 102.19 198.23 108.18 198.23 109.5 197.27"/><polygon points="111.12 195.27 105.13 195.27 104.02 196.84 110.01 196.84 111.12 195.27"/><polygon points="107.5 198.41 101.98 198.41 100.53 199.01 106.05 199.01 107.5 198.41"/><rect x="107.58" y="184.18" width="5.99" height="2.64"/><polygon points="113.44 183.38 107.45 183.38 107.17 181.2 113.16 181.2 113.44 183.38"/><polygon points="112.97 180.48 106.97 180.48 106.26 178.49 112.25 178.49 112.97 180.48"/><polygon points="112.11 177.95 106.12 177.95 105.27 176.32 111.27 176.32 112.11 177.95"/><polygon points="109.38 173.86 103.39 173.86 102.07 172.9 108.06 172.9 109.38 173.86"/><polygon points="111 175.85 105.01 175.85 103.89 174.28 109.89 174.28 111 175.85"/><polygon points="107.37 172.72 101.85 172.72 100.41 172.12 105.93 172.12 107.37 172.72"/><path class="bf08d8aa-3568-41d5-abe8-646084862258" d="M98.57,171.89H91.82c6,1.07,8.74,9.66,8.74,13.61S98.5,198,91.82,199.11h6.75c4.83,0,8.74-6.1,8.74-13.61S103.4,171.89,98.57,171.89Z"/><path class="e22a04d4-a797-4d84-a5e3-f315521b30f5" d="M97.75,175.52c-1.56-2.25-3.64-3.63-5.93-3.63-4.82,0-8.73,6.09-8.73,13.61s3.91,13.61,8.73,13.61c2.29,0,4.37-1.39,5.93-3.64a21.18,21.18,0,0,0,2.81-10C100.56,181.55,99.55,179.17,97.75,175.52Z"/><path d="M96.65,185.27c0,4.6-2.42,8.33-5.42,8.33s-5.41-3.73-5.41-8.33,2.42-8.33,5.41-8.33S96.65,180.67,96.65,185.27Z"/><path class="f2bff086-fe08-43e7-94a0-c1990d9fc4ec" d="M87.63,185.27c0-4.12,2-7.54,4.51-8.21a3.91,3.91,0,0,0-.91-.12c-3,0-5.41,3.73-5.41,8.33s2.42,8.33,5.41,8.33a3.91,3.91,0,0,0,.91-.12C89.58,192.81,87.63,189.39,87.63,185.27Z"/><polygon points="107.01 187.65 101.01 187.65 100.74 189.84 106.73 189.84 107.01 187.65"/><polygon points="106.54 190.61 100.54 190.61 99.83 192.61 105.82 192.61 106.54 190.61"/><polygon points="105.68 193.14 99.69 193.14 98.84 194.77 104.83 194.77 105.68 193.14"/><polygon points="102.95 197.24 96.95 197.24 95.64 198.19 101.63 198.19 102.95 197.24"/><polygon points="104.57 195.24 98.58 195.24 97.46 196.81 103.45 196.81 104.57 195.24"/><polygon points="100.94 198.37 95.42 198.37 93.98 198.97 99.5 198.97 100.94 198.37"/><rect x="101.02" y="184.14" width="5.99" height="2.64"/><polygon points="106.89 183.35 100.89 183.35 100.62 181.16 106.61 181.16 106.89 183.35"/><polygon points="106.41 180.45 100.42 180.45 99.7 178.45 105.7 178.45 106.41 180.45"/><polygon points="105.56 177.92 99.57 177.92 98.72 176.29 104.71 176.29 105.56 177.92"/><polygon points="102.82 173.83 96.83 173.83 95.52 172.87 101.51 172.87 102.82 173.83"/><polygon points="104.45 175.82 98.45 175.82 97.34 174.25 103.33 174.25 104.45 175.82"/><polygon points="100.82 172.69 95.3 172.69 93.86 172.09 99.38 172.09 100.82 172.69"/><path class="bf08d8aa-3568-41d5-abe8-646084862258" d="M71.07,171.61H64.32c5.94,1.07,8.73,9.66,8.73,13.61S71,197.69,64.32,198.83h6.75c4.82,0,8.73-6.09,8.73-13.61S75.89,171.61,71.07,171.61Z"/><path class="e22a04d4-a797-4d84-a5e3-f315521b30f5" d="M70.24,175.24c-1.55-2.25-3.63-3.63-5.92-3.63-4.83,0-8.74,6.09-8.74,13.61s3.91,13.61,8.74,13.61c2.29,0,4.37-1.39,5.92-3.63a21.22,21.22,0,0,0,2.81-10C73.05,181.27,72,178.9,70.24,175.24Z"/><path class="b3fe6b5b-cd5c-4aa2-b6b5-f13cde0bbc40" d="M69.15,185c0,4.6-2.43,8.33-5.42,8.33s-5.42-3.73-5.42-8.33,2.42-8.32,5.42-8.32S69.15,180.4,69.15,185Z"/><path class="bf08d8aa-3568-41d5-abe8-646084862258" d="M60.13,185c0-4.12,1.95-7.54,4.51-8.2a3.5,3.5,0,0,0-.91-.12c-3,0-5.42,3.73-5.42,8.32s2.42,8.33,5.42,8.33a3.5,3.5,0,0,0,.91-.12C62.08,192.54,60.13,189.12,60.13,185Z"/><polygon points="79.5 187.38 73.51 187.38 73.23 189.56 79.22 189.56 79.5 187.38"/><polygon points="79.03 190.34 73.04 190.34 72.32 192.33 78.31 192.33 79.03 190.34"/><polygon points="78.17 192.87 72.18 192.87 71.33 194.5 77.33 194.5 78.17 192.87"/><polygon points="75.44 196.96 69.45 196.96 68.13 197.92 74.12 197.92 75.44 196.96"/><polygon points="77.06 194.97 71.07 194.97 69.95 196.53 75.95 196.53 77.06 194.97"/><polygon points="73.43 198.1 67.92 198.1 66.47 198.7 71.99 198.7 73.43 198.1"/><rect x="73.52" y="183.87" width="5.99" height="2.64"/><polygon points="79.38 183.07 73.39 183.07 73.11 180.89 79.1 180.89 79.38 183.07"/><polygon points="78.91 180.17 72.91 180.17 72.2 178.18 78.19 178.18 78.91 180.17"/><polygon points="78.05 177.65 72.06 177.65 71.21 176.01 77.2 176.01 78.05 177.65"/><polygon points="75.32 173.55 69.32 173.55 68.01 172.59 74 172.59 75.32 173.55"/><polygon points="76.94 175.54 70.95 175.54 69.83 173.97 75.83 173.97 76.94 175.54"/><polygon points="73.31 172.41 67.79 172.41 66.35 171.81 71.87 171.81 73.31 172.41"/><path class="bf08d8aa-3568-41d5-abe8-646084862258" d="M64.51,171.58H57.76c6,1.07,8.74,9.66,8.74,13.61s-2.06,12.46-8.74,13.61h6.75c4.83,0,8.74-6.1,8.74-13.61S69.34,171.58,64.51,171.58Z"/><path class="e22a04d4-a797-4d84-a5e3-f315521b30f5" d="M63.69,175.21c-1.56-2.25-3.64-3.63-5.93-3.63-4.82,0-8.73,6.09-8.73,13.61s3.91,13.61,8.73,13.61c2.29,0,4.37-1.39,5.93-3.64a21.3,21.3,0,0,0,2.81-10C66.5,181.24,65.49,178.87,63.69,175.21Z"/><path d="M62.59,185c0,4.6-2.42,8.33-5.42,8.33s-5.41-3.73-5.41-8.33,2.42-8.32,5.41-8.32S62.59,180.36,62.59,185Z"/><path class="f2bff086-fe08-43e7-94a0-c1990d9fc4ec" d="M53.57,185c0-4.12,2-7.54,4.51-8.21a3.91,3.91,0,0,0-.91-.11c-3,0-5.41,3.72-5.41,8.32s2.42,8.33,5.41,8.33a3.44,3.44,0,0,0,.91-.12C55.52,192.5,53.57,189.08,53.57,185Z"/><polygon points="72.95 187.34 66.95 187.34 66.68 189.53 72.67 189.53 72.95 187.34"/><polygon points="72.47 190.31 66.48 190.31 65.77 192.3 71.76 192.3 72.47 190.31"/><polygon points="71.62 192.83 65.63 192.83 64.78 194.47 70.77 194.47 71.62 192.83"/><polygon points="68.89 196.93 62.89 196.93 61.58 197.89 67.57 197.89 68.89 196.93"/><polygon points="70.51 194.93 64.52 194.93 63.4 196.5 69.39 196.5 70.51 194.93"/><polygon points="66.88 198.06 61.36 198.06 59.92 198.67 65.44 198.67 66.88 198.06"/><rect x="66.96" y="183.84" width="5.99" height="2.64"/><polygon points="72.82 183.04 66.83 183.04 66.56 180.85 72.55 180.85 72.82 183.04"/><polygon points="72.35 180.14 66.36 180.14 65.64 178.15 71.64 178.15 72.35 180.14"/><polygon points="71.5 177.61 65.51 177.61 64.66 175.98 70.65 175.98 71.5 177.61"/><polygon points="68.76 173.52 62.77 173.52 61.45 172.56 67.45 172.56 68.76 173.52"/><polygon points="70.39 175.51 64.39 175.51 63.28 173.94 69.27 173.94 70.39 175.51"/><polygon points="66.76 172.38 61.24 172.38 59.8 171.78 65.32 171.78 66.76 172.38"/><path class="bf08d8aa-3568-41d5-abe8-646084862258" d="M37,172H30.24C36.19,173,39,181.63,39,185.58S36.91,198,30.24,199.19H37c4.82,0,8.74-6.1,8.74-13.61S41.81,172,37,172Z"/><path class="e22a04d4-a797-4d84-a5e3-f315521b30f5" d="M36.17,175.6c-1.56-2.25-3.64-3.63-5.93-3.63-4.83,0-8.74,6.09-8.74,13.61s3.91,13.61,8.74,13.61c2.29,0,4.37-1.39,5.93-3.64a21.3,21.3,0,0,0,2.81-10C39,181.63,38,179.25,36.17,175.6Z"/><path class="b3fe6b5b-cd5c-4aa2-b6b5-f13cde0bbc40" d="M35.07,185.35c0,4.6-2.43,8.33-5.42,8.33s-5.42-3.73-5.42-8.33S26.66,177,29.65,177,35.07,180.75,35.07,185.35Z"/><path class="bf08d8aa-3568-41d5-abe8-646084862258" d="M26.05,185.35c0-4.12,1.95-7.54,4.51-8.21a4,4,0,0,0-.91-.12c-3,0-5.42,3.73-5.42,8.33s2.43,8.33,5.42,8.33a4,4,0,0,0,.91-.12C28,192.89,26.05,189.47,26.05,185.35Z"/><polygon points="45.42 187.73 39.43 187.73 39.15 189.92 45.15 189.92 45.42 187.73"/><polygon points="44.95 190.69 38.96 190.69 38.24 192.69 44.23 192.69 44.95 190.69"/><polygon points="44.1 193.22 38.1 193.22 37.26 194.85 43.25 194.85 44.1 193.22"/><polygon points="41.36 197.32 35.37 197.32 34.05 198.27 40.05 198.27 41.36 197.32"/><polygon points="42.98 195.32 36.99 195.32 35.88 196.89 41.87 196.89 42.98 195.32"/><polygon points="39.36 198.45 33.84 198.45 32.4 199.05 37.92 199.05 39.36 198.45"/><rect x="39.44" y="184.22" width="5.99" height="2.64"/><polygon points="45.3 183.43 39.31 183.43 39.03 181.24 45.02 181.24 45.3 183.43"/><polygon points="44.83 180.53 38.84 180.53 38.12 178.53 44.11 178.53 44.83 180.53"/><polygon points="43.98 178 37.98 178 37.13 176.37 43.13 176.37 43.98 178"/><polygon points="41.24 173.91 35.25 173.91 33.93 172.95 39.92 172.95 41.24 173.91"/><polygon points="42.86 175.9 36.87 175.9 35.76 174.33 41.75 174.33 42.86 175.9"/><polygon points="39.23 172.77 33.72 172.77 32.27 172.17 37.79 172.17 39.23 172.77"/><path class="bf08d8aa-3568-41d5-abe8-646084862258" d="M30.44,171.93H23.69c5.94,1.08,8.73,9.67,8.73,13.61S30.36,198,23.69,199.15h6.75c4.82,0,8.73-6.09,8.73-13.61S35.26,171.93,30.44,171.93Z"/><path class="e22a04d4-a797-4d84-a5e3-f315521b30f5" d="M29.61,175.57c-1.55-2.25-3.63-3.64-5.92-3.64-4.83,0-8.74,6.1-8.74,13.61s3.91,13.61,8.74,13.61c2.29,0,4.37-1.38,5.92-3.63a21.22,21.22,0,0,0,2.81-10C32.42,181.6,31.41,179.22,29.61,175.57Z"/><path d="M28.51,185.32c0,4.6-2.42,8.32-5.41,8.32s-5.42-3.72-5.42-8.32S20.1,177,23.1,177,28.51,180.72,28.51,185.32Z"/><path class="f2bff086-fe08-43e7-94a0-c1990d9fc4ec" d="M19.5,185.32c0-4.12,1.95-7.54,4.51-8.21a3.5,3.5,0,0,0-.91-.12c-3,0-5.42,3.73-5.42,8.33s2.42,8.32,5.42,8.32a4,4,0,0,0,.91-.11C21.45,192.86,19.5,189.44,19.5,185.32Z"/><polygon points="38.87 187.7 32.88 187.7 32.6 189.89 38.59 189.89 38.87 187.7"/><polygon points="38.4 190.66 32.41 190.66 31.69 192.66 37.68 192.66 38.4 190.66"/><polygon points="37.54 193.19 31.55 193.19 30.7 194.82 36.7 194.82 37.54 193.19"/><polygon points="34.81 197.28 28.82 197.28 27.5 198.24 33.49 198.24 34.81 197.28"/><polygon points="36.43 195.29 30.44 195.29 29.32 196.86 35.32 196.86 36.43 195.29"/><polygon points="32.8 198.42 27.28 198.42 25.84 199.02 31.36 199.02 32.8 198.42"/><rect x="32.89" y="184.19" width="5.99" height="2.64"/><polygon points="38.75 183.4 32.76 183.4 32.48 181.21 38.47 181.21 38.75 183.4"/><polygon points="38.28 180.5 32.28 180.5 31.57 178.5 37.56 178.5 38.28 180.5"/><polygon points="37.42 177.97 31.43 177.97 30.58 176.34 36.57 176.34 37.42 177.97"/><polygon points="34.69 173.87 28.69 173.87 27.38 172.91 33.37 172.91 34.69 173.87"/><polygon points="36.31 175.87 30.32 175.87 29.2 174.3 35.19 174.3 36.31 175.87"/><polygon points="32.68 172.74 27.16 172.74 25.72 172.14 31.24 172.14 32.68 172.74"/></g><path class="ec5610f8-3944-4cee-ba45-e7bb97ae1e90" d="M28.87,61.09a7.28,7.28,0,0,1-1.46,3.39,8.43,8.43,0,0,1-2.9,2.46c.38,1.44.79,2.94,1.23,4.52S26.61,74.53,27,76H22l-2.26-8.36h-.1L18.46,76H13.79l4.87-35h6.52a5.89,5.89,0,0,1,2.46.51,5.54,5.54,0,0,1,1.9,1.38,5.26,5.26,0,0,1,1.1,2.06,6.51,6.51,0,0,1,.18,2.51ZM26.1,47.45a1.56,1.56,0,0,0-.33-1.26,1.46,1.46,0,0,0-1.21-.54H22.72L20.25,63H22.1a1.93,1.93,0,0,0,1.36-.56,2.24,2.24,0,0,0,.69-1.34Z"/><path class="ec5610f8-3944-4cee-ba45-e7bb97ae1e90" d="M41,76H29.54l4.87-35H45.9l-.61,4.66H38.46L36.67,58.38H42L41.34,63H36L34.82,71.3h6.82Z"/><path class="ec5610f8-3944-4cee-ba45-e7bb97ae1e90" d="M56.83,76H52.11l3-21.65a8.2,8.2,0,0,0-.56-4.41,6.58,6.58,0,0,0-2.82-3.13L47.7,76H43L47.9,41a13.91,13.91,0,0,1,4.93.77,10.75,10.75,0,0,1,3.74,2.41L57,41H61.7Z"/><path class="ec5610f8-3944-4cee-ba45-e7bb97ae1e90" d="M74.83,45.65H71L66.78,76H62.11l4.26-30.32h-3.8L63.19,41H75.45Z"/><path class="ec5610f8-3944-4cee-ba45-e7bb97ae1e90" d="M95,76H90.32l1.13-8.36H87L85.91,76H81.29l4-28.52a6.45,6.45,0,0,1,.85-2.51,8.46,8.46,0,0,1,1.69-2.06,8.15,8.15,0,0,1,2.23-1.38A6.66,6.66,0,0,1,92.63,41h.77a5.89,5.89,0,0,1,2.46.51,5.54,5.54,0,0,1,1.9,1.38,5.26,5.26,0,0,1,1.1,2.06A6.51,6.51,0,0,1,99,47.45Zm-.72-28.52A1.51,1.51,0,0,0,94,46.19a1.48,1.48,0,0,0-1.18-.54H92a2.08,2.08,0,0,0-1.36.54,2,2,0,0,0-.74,1.26L87.7,62.94h4.42Z"/><path class="ec5610f8-3944-4cee-ba45-e7bb97ae1e90" d="M121.71,61.09a7.28,7.28,0,0,1-1.46,3.39,8.43,8.43,0,0,1-2.9,2.46c.38,1.44.79,2.94,1.23,4.52s.87,3.07,1.28,4.51h-5.07l-2.26-8.36h-.1L111.3,76h-4.67l4.87-35H118a5.89,5.89,0,0,1,2.46.51,5.54,5.54,0,0,1,1.9,1.38,5.26,5.26,0,0,1,1.1,2.06,6.51,6.51,0,0,1,.18,2.51Zm-2.77-13.64a1.56,1.56,0,0,0-.33-1.26,1.46,1.46,0,0,0-1.21-.54h-1.84L113.09,63h1.85a1.93,1.93,0,0,0,1.36-.56,2.24,2.24,0,0,0,.69-1.34Z"/><path class="ec5610f8-3944-4cee-ba45-e7bb97ae1e90" d="M135.92,69.4a6.37,6.37,0,0,1-.85,2.54,8,8,0,0,1-1.72,2.11,8.36,8.36,0,0,1-2.28,1.41,6.83,6.83,0,0,1-2.59.51,6.09,6.09,0,0,1-2.49-.51,5.22,5.22,0,0,1-1.89-1.41A5.49,5.49,0,0,1,123,71.94a6.7,6.7,0,0,1-.18-2.54l3.13-22a6.28,6.28,0,0,1,.84-2.51,8.5,8.5,0,0,1,1.7-2.06,8,8,0,0,1,2.25-1.38,6.83,6.83,0,0,1,2.59-.51,6.09,6.09,0,0,1,2.49.51,5.57,5.57,0,0,1,1.93,1.38,5.26,5.26,0,0,1,1.1,2.06,6.51,6.51,0,0,1,.18,2.51Zm-1.59-22a1.51,1.51,0,0,0-.36-1.26,1.54,1.54,0,0,0-1.23-.54,2,2,0,0,0-1.33.54,2,2,0,0,0-.72,1.26l-3.13,22a1.61,1.61,0,0,0,.36,1.34,1.52,1.52,0,0,0,1.18.51,2.11,2.11,0,0,0,1.38-.51,2,2,0,0,0,.72-1.34Z"/><path class="ec5610f8-3944-4cee-ba45-e7bb97ae1e90" d="M153.05,59q-1.19,8.31-7.13,17h-4.31a32.47,32.47,0,0,1-2.36-17l2.52-18h4.66L144.18,57.3a29.53,29.53,0,0,0-.28,6.1,38,38,0,0,0,.79,5.8,37.93,37.93,0,0,0,2.49-5.77,33.38,33.38,0,0,0,1.31-5.67L150.85,41h4.71Z"/><path class="ec5610f8-3944-4cee-ba45-e7bb97ae1e90" d="M164.59,76H153.1L158,41h11.49l-.62,4.66H162l-1.8,12.73h5.34L164.9,63h-5.33l-1.18,8.26h6.82Z"/><path class="ec5610f8-3944-4cee-ba45-e7bb97ae1e90" d="M182.19,61.09a7.3,7.3,0,0,1-1.47,3.39,8.49,8.49,0,0,1-2.89,2.46c.37,1.44.78,2.94,1.23,4.52s.87,3.07,1.28,4.51h-5.08L173,67.61h-.1L171.77,76h-4.66L172,41h6.51a6,6,0,0,1,2.47.51,5.5,5.5,0,0,1,1.89,1.38A5.28,5.28,0,0,1,184,44.94a6.33,6.33,0,0,1,.17,2.51Zm-2.77-13.64a1.61,1.61,0,0,0-.34-1.26,1.46,1.46,0,0,0-1.2-.54H176L173.57,63h1.85a1.91,1.91,0,0,0,1.35-.56,2.2,2.2,0,0,0,.7-1.34Z"/><path class="b266cf05-503b-459a-a8ee-1b6ae60a27ec" d="M31.87,58.09a7.28,7.28,0,0,1-1.46,3.39,8.43,8.43,0,0,1-2.9,2.46c.38,1.44.79,2.94,1.23,4.52S29.61,71.53,30,73H25l-2.26-8.36h-.1L21.46,73H16.79l4.87-35h6.52a5.89,5.89,0,0,1,2.46.51,5.54,5.54,0,0,1,1.9,1.38,5.26,5.26,0,0,1,1.1,2.06,6.51,6.51,0,0,1,.18,2.51ZM29.1,44.45a1.56,1.56,0,0,0-.33-1.26,1.46,1.46,0,0,0-1.21-.54H25.72L23.25,60H25.1a1.93,1.93,0,0,0,1.36-.56,2.24,2.24,0,0,0,.69-1.34Z"/><path class="b266cf05-503b-459a-a8ee-1b6ae60a27ec" d="M44,73H32.54l4.87-35H48.9l-.61,4.66H41.46L39.67,55.38H45L44.34,60H39L37.82,68.3h6.82Z"/><path class="b266cf05-503b-459a-a8ee-1b6ae60a27ec" d="M59.83,73H55.11l3-21.65a8.2,8.2,0,0,0-.56-4.41,6.58,6.58,0,0,0-2.82-3.13L50.7,73H46L50.9,38a13.91,13.91,0,0,1,4.93.77,10.75,10.75,0,0,1,3.74,2.41L60,38H64.7Z"/><path class="b266cf05-503b-459a-a8ee-1b6ae60a27ec" d="M77.83,42.65H74L69.78,73H65.11l4.26-30.32h-3.8L66.19,38H78.45Z"/><path class="b266cf05-503b-459a-a8ee-1b6ae60a27ec" d="M98,73H93.32l1.13-8.36H90L88.91,73H84.29l4-28.52a6.45,6.45,0,0,1,.85-2.51,8.46,8.46,0,0,1,1.69-2.06,8.15,8.15,0,0,1,2.23-1.38A6.66,6.66,0,0,1,95.63,38h.77a5.89,5.89,0,0,1,2.46.51,5.54,5.54,0,0,1,1.9,1.38,5.26,5.26,0,0,1,1.1,2.06,6.51,6.51,0,0,1,.18,2.51Zm-.72-28.52A1.51,1.51,0,0,0,97,43.19a1.48,1.48,0,0,0-1.18-.54H95a2.08,2.08,0,0,0-1.36.54,2,2,0,0,0-.74,1.26L90.7,59.94h4.42Z"/><path class="b266cf05-503b-459a-a8ee-1b6ae60a27ec" d="M124.71,58.09a7.28,7.28,0,0,1-1.46,3.39,8.43,8.43,0,0,1-2.9,2.46c.38,1.44.79,2.94,1.23,4.52s.87,3.07,1.28,4.51h-5.07l-2.26-8.36h-.1L114.3,73h-4.67l4.87-35H121a5.89,5.89,0,0,1,2.46.51,5.54,5.54,0,0,1,1.9,1.38,5.26,5.26,0,0,1,1.1,2.06,6.51,6.51,0,0,1,.18,2.51Zm-2.77-13.64a1.56,1.56,0,0,0-.33-1.26,1.46,1.46,0,0,0-1.21-.54h-1.84L116.09,60h1.85a1.93,1.93,0,0,0,1.36-.56,2.24,2.24,0,0,0,.69-1.34Z"/><path class="b266cf05-503b-459a-a8ee-1b6ae60a27ec" d="M138.92,66.4a6.37,6.37,0,0,1-.85,2.54,8,8,0,0,1-1.72,2.11,8.36,8.36,0,0,1-2.28,1.41,6.83,6.83,0,0,1-2.59.51,6.09,6.09,0,0,1-2.49-.51,5.22,5.22,0,0,1-1.89-1.41A5.49,5.49,0,0,1,126,68.94a6.7,6.7,0,0,1-.18-2.54l3.13-22a6.28,6.28,0,0,1,.84-2.51,8.5,8.5,0,0,1,1.7-2.06,8,8,0,0,1,2.25-1.38,6.83,6.83,0,0,1,2.59-.51,6.09,6.09,0,0,1,2.49.51,5.57,5.57,0,0,1,1.93,1.38,5.26,5.26,0,0,1,1.1,2.06,6.51,6.51,0,0,1,.18,2.51Zm-1.59-22a1.51,1.51,0,0,0-.36-1.26,1.54,1.54,0,0,0-1.23-.54,2,2,0,0,0-1.33.54,2,2,0,0,0-.72,1.26l-3.13,22a1.61,1.61,0,0,0,.36,1.34,1.52,1.52,0,0,0,1.18.51,2.11,2.11,0,0,0,1.38-.51,2,2,0,0,0,.72-1.34Z"/><path class="b266cf05-503b-459a-a8ee-1b6ae60a27ec" d="M156.05,56q-1.19,8.31-7.13,17h-4.31a32.47,32.47,0,0,1-2.36-17l2.52-18h4.66L147.18,54.3a29.53,29.53,0,0,0-.28,6.1,38,38,0,0,0,.79,5.8,37.93,37.93,0,0,0,2.49-5.77,33.38,33.38,0,0,0,1.31-5.67L153.85,38h4.71Z"/><path class="b266cf05-503b-459a-a8ee-1b6ae60a27ec" d="M167.59,73H156.1L161,38h11.49l-.62,4.66H165l-1.8,12.73h5.34L167.9,60h-5.33l-1.18,8.26h6.82Z"/><path class="b266cf05-503b-459a-a8ee-1b6ae60a27ec" d="M185.19,58.09a7.3,7.3,0,0,1-1.47,3.39,8.49,8.49,0,0,1-2.89,2.46c.37,1.44.78,2.94,1.23,4.52s.87,3.07,1.28,4.51h-5.08L176,64.61h-.1L174.77,73h-4.66L175,38h6.51a6,6,0,0,1,2.47.51,5.5,5.5,0,0,1,1.89,1.38A5.28,5.28,0,0,1,187,41.94a6.33,6.33,0,0,1,.17,2.51Zm-2.77-13.64a1.61,1.61,0,0,0-.34-1.26,1.46,1.46,0,0,0-1.2-.54H179L176.57,60h1.85a1.91,1.91,0,0,0,1.35-.56,2.2,2.2,0,0,0,.7-1.34Z"/></g></g></svg>