<svg id="a386f5c7-43f9-44c3-aeb0-e44bc1ed0640" data-name="Layer 5" xmlns="http://www.w3.org/2000/svg" viewBox="0 0 215.38 171.84"><defs><style>.acc80f26-7e8c-4024-a8c1-e9f6d6ffacb3{fill:#dcdcdc;}.b2569166-01ca-4c92-96bd-998f98f0f310{fill:#fff;}.a101e3fe-b4da-4e76-9e6e-2af81de36c28{fill:#fa0;}.e9410bc5-84f5-4253-a698-eec90d39135f{fill:#ff6523;}.f988a392-8532-49a8-b8df-436634233937{fill:#ff4140;}.f2e48c5a-f124-4235-b166-6899cb8220bc{fill:#cc2221;}.e5eb41ed-ef56-4da1-ad39-0491b89ec250{fill:#00447d;}.b585c4d9-313b-4f48-8512-efafca506e60{fill:#003766;}.bbb26cc7-bb01-4241-93be-7c55804a59ff{fill:#07334e;}.b84558d1-be08-4dfa-8e2c-1597ce1b4050{fill:#ffc400;}</style></defs><rect class="acc80f26-7e8c-4024-a8c1-e9f6d6ffacb3" x="158.97" y="56.55" width="4.16" height="29.09"/><rect class="b2569166-01ca-4c92-96bd-998f98f0f310" x="163.13" y="56.55" width="4.16" height="29.09"/><polygon class="b2569166-01ca-4c92-96bd-998f98f0f310" points="25.2 112.97 19.48 121.13 24.13 128.03 24.14 128.04 24.14 128.04 24.14 128.04 24.14 128.04 15.25 138.06 13.63 136.92 19.59 128.05 15.64 122.2 15.32 121.98 22.89 111.34 25.2 112.97"/><polygon class="acc80f26-7e8c-4024-a8c1-e9f6d6ffacb3" points="8.11 119.99 1.79 128.6 0 127.35 6.57 115.7 6.57 115.7 6.58 115.7 6.58 115.7 6.59 115.7 14.83 117.78 20.52 109.68 22.89 111.34 15.32 121.98 15.02 121.78 8.11 119.99"/><path class="a101e3fe-b4da-4e76-9e6e-2af81de36c28" d="M14.94,131.78c3.62-1,10.87,4.36,7.86,8.25s-7.32,7-11.09,1.95S9.46,133.32,14.94,131.78Z" transform="translate(-6.61 -8.03)"/><path class="e9410bc5-84f5-4253-a698-eec90d39135f" d="M11.14,135.6a2.14,2.14,0,1,0,2.14-2.14A2.13,2.13,0,0,0,11.14,135.6Z" transform="translate(-6.61 -8.03)"/><circle class="e9410bc5-84f5-4253-a698-eec90d39135f" cx="10.57" cy="127.56" r="0.82"/><circle class="e9410bc5-84f5-4253-a698-eec90d39135f" cx="8.81" cy="131.54" r="1.52"/><rect class="b2569166-01ca-4c92-96bd-998f98f0f310" x="145.23" y="124.87" width="36.41" height="20.09"/><rect class="acc80f26-7e8c-4024-a8c1-e9f6d6ffacb3" x="108.81" y="124.87" width="36.41" height="20.09"/><path class="f988a392-8532-49a8-b8df-436634233937" d="M67.55,64.16l51.37,22.56a7.73,7.73,0,0,1,4,10.19L57.36,68.13A7.73,7.73,0,0,1,67.55,64.16Z" transform="translate(-6.61 -8.03)"/><path class="f2e48c5a-f124-4235-b166-6899cb8220bc" d="M57.36,68.13l65.53,28.78h0a7.73,7.73,0,0,1-10.19,4L61.33,78.32a7.73,7.73,0,0,1-4-10.19Z" transform="translate(-6.61 -8.03)"/><rect class="acc80f26-7e8c-4024-a8c1-e9f6d6ffacb3" x="109.31" y="54" width="12.69" height="4.1"/><rect class="acc80f26-7e8c-4024-a8c1-e9f6d6ffacb3" x="117.9" y="54" width="4.1" height="42.45"/><rect class="acc80f26-7e8c-4024-a8c1-e9f6d6ffacb3" x="108.81" y="24.71" width="4.1" height="33.38"/><path class="f2e48c5a-f124-4235-b166-6899cb8220bc" d="M206.39,179.87H97.27a15.57,15.57,0,0,1-15.58-15.58H222A15.58,15.58,0,0,1,206.39,179.87Z" transform="translate(-6.61 -8.03)"/><path class="f988a392-8532-49a8-b8df-436634233937" d="M97.27,148.7H206.39A15.59,15.59,0,0,1,222,164.29H81.69A15.58,15.58,0,0,1,97.27,148.7Z" transform="translate(-6.61 -8.03)"/><path class="b2569166-01ca-4c92-96bd-998f98f0f310" d="M97.27,152H206.39a12.33,12.33,0,0,1,12.33,12.32H85A12.33,12.33,0,0,1,97.27,152Z" transform="translate(-6.61 -8.03)"/><path class="acc80f26-7e8c-4024-a8c1-e9f6d6ffacb3" d="M218.72,164.29h0a12.34,12.34,0,0,1-12.33,12.32H97.27A12.34,12.34,0,0,1,85,164.29H218.72Z" transform="translate(-6.61 -8.03)"/><rect class="b2569166-01ca-4c92-96bd-998f98f0f310" x="110.86" y="1.62" width="13.43" height="24.75"/><rect class="acc80f26-7e8c-4024-a8c1-e9f6d6ffacb3" x="97.43" y="1.62" width="13.43" height="24.75"/><rect class="f988a392-8532-49a8-b8df-436634233937" x="110.86" width="15.87" height="3.24"/><rect class="f2e48c5a-f124-4235-b166-6899cb8220bc" x="94.99" width="15.87" height="3.24"/><rect class="b2569166-01ca-4c92-96bd-998f98f0f310" x="145.23" y="93.43" width="43.09" height="15.8"/><rect class="acc80f26-7e8c-4024-a8c1-e9f6d6ffacb3" x="102.14" y="93.43" width="43.09" height="15.8"/><path class="f988a392-8532-49a8-b8df-436634233937" d="M87.2,121a15.62,15.62,0,0,1,15.62-15.62h98A15.62,15.62,0,0,1,216.47,121v4.17H87.2Z" transform="translate(-6.61 -8.03)"/><path class="f2e48c5a-f124-4235-b166-6899cb8220bc" d="M216.47,125.21v4.16A15.62,15.62,0,0,1,200.85,145h-98A15.62,15.62,0,0,1,87.2,129.37v-4.16Z" transform="translate(-6.61 -8.03)"/><rect class="e5eb41ed-ef56-4da1-ad39-0491b89ec250" x="199.53" y="144.58" height="2.66"/><path class="e5eb41ed-ef56-4da1-ad39-0491b89ec250" d="M206.13,155.27h0v-2.66h0a11.68,11.68,0,0,1,11.68,11.68h-2.66A9,9,0,0,0,206.13,155.27Z" transform="translate(-6.61 -8.03)"/><path class="b585c4d9-313b-4f48-8512-efafca506e60" d="M197.11,164.29h-2.66a11.68,11.68,0,0,1,11.68-11.68v2.66A9,9,0,0,0,197.11,164.29Z" transform="translate(-6.61 -8.03)"/><path class="b585c4d9-313b-4f48-8512-efafca506e60" d="M206.13,173.31a9,9,0,0,0,9-9h2.66A11.68,11.68,0,0,1,206.13,176h0v-2.66Z" transform="translate(-6.61 -8.03)"/><path class="e5eb41ed-ef56-4da1-ad39-0491b89ec250" d="M194.45,164.29h2.66a9,9,0,0,0,9,9h0V176A11.68,11.68,0,0,1,194.45,164.29Z" transform="translate(-6.61 -8.03)"/><path class="b2569166-01ca-4c92-96bd-998f98f0f310" d="M206.13,155.27v3.82a5.19,5.19,0,0,0-5.19,5.2h-3.83A9,9,0,0,1,206.13,155.27Z" transform="translate(-6.61 -8.03)"/><rect class="acc80f26-7e8c-4024-a8c1-e9f6d6ffacb3" x="199.53" y="147.24" height="3.83"/><path class="acc80f26-7e8c-4024-a8c1-e9f6d6ffacb3" d="M206.13,159.09h0v-3.82h0a9,9,0,0,1,9,9h-3.82A5.2,5.2,0,0,0,206.13,159.09Z" transform="translate(-6.61 -8.03)"/><path class="acc80f26-7e8c-4024-a8c1-e9f6d6ffacb3" d="M206.13,169.48v3.83a9,9,0,0,1-9-9h3.83A5.19,5.19,0,0,0,206.13,169.48Z" transform="translate(-6.61 -8.03)"/><rect class="b2569166-01ca-4c92-96bd-998f98f0f310" x="199.53" y="161.45" height="3.83"/><path class="b2569166-01ca-4c92-96bd-998f98f0f310" d="M206.13,169.48a5.19,5.19,0,0,0,5.2-5.19h3.82a9,9,0,0,1-9,9h0v-3.83Z" transform="translate(-6.61 -8.03)"/><rect class="bbb26cc7-bb01-4241-93be-7c55804a59ff" x="199.53" y="156.25" height="5.19"/><path class="bbb26cc7-bb01-4241-93be-7c55804a59ff" d="M211.33,164.29a5.19,5.19,0,0,1-5.2,5.19h0v-5.19Z" transform="translate(-6.61 -8.03)"/><path class="e5eb41ed-ef56-4da1-ad39-0491b89ec250" d="M206.13,169.48a5.19,5.19,0,0,1-5.19-5.19h5.19Z" transform="translate(-6.61 -8.03)"/><path class="e5eb41ed-ef56-4da1-ad39-0491b89ec250" d="M206.13,159.09h0a5.2,5.2,0,0,1,5.2,5.2h-5.2Z" transform="translate(-6.61 -8.03)"/><rect class="e5eb41ed-ef56-4da1-ad39-0491b89ec250" x="199.53" y="151.06" height="5.19"/><path class="bbb26cc7-bb01-4241-93be-7c55804a59ff" d="M200.94,164.29a5.19,5.19,0,0,1,5.19-5.2v5.2Z" transform="translate(-6.61 -8.03)"/><rect class="e5eb41ed-ef56-4da1-ad39-0491b89ec250" x="172.38" y="144.58" height="2.66"/><path class="e5eb41ed-ef56-4da1-ad39-0491b89ec250" d="M179,155.27h0v-2.66h0a11.68,11.68,0,0,1,11.68,11.68H188A9,9,0,0,0,179,155.27Z" transform="translate(-6.61 -8.03)"/><path class="b585c4d9-313b-4f48-8512-efafca506e60" d="M170,164.29H167.3A11.68,11.68,0,0,1,179,152.61v2.66A9,9,0,0,0,170,164.29Z" transform="translate(-6.61 -8.03)"/><path class="b585c4d9-313b-4f48-8512-efafca506e60" d="M179,173.31a9,9,0,0,0,9-9h2.66A11.68,11.68,0,0,1,179,176h0v-2.66Z" transform="translate(-6.61 -8.03)"/><path class="e5eb41ed-ef56-4da1-ad39-0491b89ec250" d="M167.3,164.29H170a9,9,0,0,0,9,9h0V176A11.68,11.68,0,0,1,167.3,164.29Z" transform="translate(-6.61 -8.03)"/><path class="b2569166-01ca-4c92-96bd-998f98f0f310" d="M179,155.27v3.82a5.19,5.19,0,0,0-5.19,5.2H170A9,9,0,0,1,179,155.27Z" transform="translate(-6.61 -8.03)"/><rect class="acc80f26-7e8c-4024-a8c1-e9f6d6ffacb3" x="172.38" y="147.24" height="3.83"/><path class="acc80f26-7e8c-4024-a8c1-e9f6d6ffacb3" d="M179,159.09h0v-3.82h0a9,9,0,0,1,9,9h-3.82A5.2,5.2,0,0,0,179,159.09Z" transform="translate(-6.61 -8.03)"/><path class="acc80f26-7e8c-4024-a8c1-e9f6d6ffacb3" d="M179,169.48v3.83a9,9,0,0,1-9-9h3.83A5.19,5.19,0,0,0,179,169.48Z" transform="translate(-6.61 -8.03)"/><rect class="b2569166-01ca-4c92-96bd-998f98f0f310" x="172.38" y="161.45" height="3.83"/><path class="b2569166-01ca-4c92-96bd-998f98f0f310" d="M179,169.48a5.19,5.19,0,0,0,5.2-5.19H188a9,9,0,0,1-9,9h0v-3.83Z" transform="translate(-6.61 -8.03)"/><rect class="bbb26cc7-bb01-4241-93be-7c55804a59ff" x="172.38" y="156.25" height="5.19"/><path class="bbb26cc7-bb01-4241-93be-7c55804a59ff" d="M184.18,164.29a5.19,5.19,0,0,1-5.2,5.19h0v-5.19Z" transform="translate(-6.61 -8.03)"/><path class="e5eb41ed-ef56-4da1-ad39-0491b89ec250" d="M179,169.48a5.19,5.19,0,0,1-5.19-5.19H179Z" transform="translate(-6.61 -8.03)"/><path class="e5eb41ed-ef56-4da1-ad39-0491b89ec250" d="M179,159.09h0a5.2,5.2,0,0,1,5.2,5.2H179Z" transform="translate(-6.61 -8.03)"/><rect class="e5eb41ed-ef56-4da1-ad39-0491b89ec250" x="172.38" y="151.06" height="5.19"/><path class="bbb26cc7-bb01-4241-93be-7c55804a59ff" d="M173.79,164.29a5.19,5.19,0,0,1,5.19-5.2v5.2Z" transform="translate(-6.61 -8.03)"/><rect class="e5eb41ed-ef56-4da1-ad39-0491b89ec250" x="145.23" y="144.58" height="2.66"/><path class="e5eb41ed-ef56-4da1-ad39-0491b89ec250" d="M151.83,155.27h0v-2.66h0a11.68,11.68,0,0,1,11.68,11.68h-2.66A9,9,0,0,0,151.83,155.27Z" transform="translate(-6.61 -8.03)"/><path class="b585c4d9-313b-4f48-8512-efafca506e60" d="M142.82,164.29h-2.67a11.68,11.68,0,0,1,11.68-11.68v2.66A9,9,0,0,0,142.82,164.29Z" transform="translate(-6.61 -8.03)"/><path class="b585c4d9-313b-4f48-8512-efafca506e60" d="M151.83,173.31a9,9,0,0,0,9-9h2.66A11.68,11.68,0,0,1,151.83,176h0v-2.66Z" transform="translate(-6.61 -8.03)"/><path class="e5eb41ed-ef56-4da1-ad39-0491b89ec250" d="M140.15,164.29h2.67a9,9,0,0,0,9,9h0V176A11.68,11.68,0,0,1,140.15,164.29Z" transform="translate(-6.61 -8.03)"/><path class="b2569166-01ca-4c92-96bd-998f98f0f310" d="M151.83,155.27v3.82a5.2,5.2,0,0,0-5.19,5.2h-3.82A9,9,0,0,1,151.83,155.27Z" transform="translate(-6.61 -8.03)"/><rect class="acc80f26-7e8c-4024-a8c1-e9f6d6ffacb3" x="145.23" y="147.24" height="3.83"/><path class="acc80f26-7e8c-4024-a8c1-e9f6d6ffacb3" d="M151.83,159.09h0v-3.82h0a9,9,0,0,1,9,9H157A5.2,5.2,0,0,0,151.83,159.09Z" transform="translate(-6.61 -8.03)"/><path class="acc80f26-7e8c-4024-a8c1-e9f6d6ffacb3" d="M151.83,169.48v3.83a9,9,0,0,1-9-9h3.82A5.19,5.19,0,0,0,151.83,169.48Z" transform="translate(-6.61 -8.03)"/><rect class="b2569166-01ca-4c92-96bd-998f98f0f310" x="145.23" y="161.45" height="3.83"/><path class="b2569166-01ca-4c92-96bd-998f98f0f310" d="M151.83,169.48a5.19,5.19,0,0,0,5.2-5.19h3.82a9,9,0,0,1-9,9h0v-3.83Z" transform="translate(-6.61 -8.03)"/><rect class="bbb26cc7-bb01-4241-93be-7c55804a59ff" x="145.23" y="156.25" height="5.19"/><path class="bbb26cc7-bb01-4241-93be-7c55804a59ff" d="M157,164.29a5.19,5.19,0,0,1-5.2,5.19h0v-5.19Z" transform="translate(-6.61 -8.03)"/><path class="e5eb41ed-ef56-4da1-ad39-0491b89ec250" d="M151.83,169.48a5.19,5.19,0,0,1-5.19-5.19h5.19Z" transform="translate(-6.61 -8.03)"/><path class="e5eb41ed-ef56-4da1-ad39-0491b89ec250" d="M151.83,159.09h0a5.2,5.2,0,0,1,5.2,5.2h-5.2Z" transform="translate(-6.61 -8.03)"/><rect class="e5eb41ed-ef56-4da1-ad39-0491b89ec250" x="145.23" y="151.06" height="5.19"/><path class="bbb26cc7-bb01-4241-93be-7c55804a59ff" d="M146.64,164.29a5.2,5.2,0,0,1,5.19-5.2v5.2Z" transform="translate(-6.61 -8.03)"/><rect class="e5eb41ed-ef56-4da1-ad39-0491b89ec250" x="118.08" y="144.58" height="2.66"/><path class="e5eb41ed-ef56-4da1-ad39-0491b89ec250" d="M124.68,155.27h0v-2.66h0a11.68,11.68,0,0,1,11.68,11.68H133.7A9,9,0,0,0,124.68,155.27Z" transform="translate(-6.61 -8.03)"/><path class="b585c4d9-313b-4f48-8512-efafca506e60" d="M115.67,164.29H113a11.67,11.67,0,0,1,11.67-11.68v2.66A9,9,0,0,0,115.67,164.29Z" transform="translate(-6.61 -8.03)"/><path class="b585c4d9-313b-4f48-8512-efafca506e60" d="M124.68,173.31a9,9,0,0,0,9-9h2.66A11.68,11.68,0,0,1,124.68,176h0v-2.66Z" transform="translate(-6.61 -8.03)"/><path class="e5eb41ed-ef56-4da1-ad39-0491b89ec250" d="M113,164.29h2.66a9,9,0,0,0,9,9h0V176A11.67,11.67,0,0,1,113,164.29Z" transform="translate(-6.61 -8.03)"/><path class="b2569166-01ca-4c92-96bd-998f98f0f310" d="M124.68,155.27v3.82a5.2,5.2,0,0,0-5.19,5.2h-3.82A9,9,0,0,1,124.68,155.27Z" transform="translate(-6.61 -8.03)"/><rect class="acc80f26-7e8c-4024-a8c1-e9f6d6ffacb3" x="118.08" y="147.24" height="3.83"/><path class="acc80f26-7e8c-4024-a8c1-e9f6d6ffacb3" d="M124.68,159.09h0v-3.82h0a9,9,0,0,1,9,9h-3.82A5.2,5.2,0,0,0,124.68,159.09Z" transform="translate(-6.61 -8.03)"/><path class="acc80f26-7e8c-4024-a8c1-e9f6d6ffacb3" d="M124.68,169.48v3.83a9,9,0,0,1-9-9h3.82A5.19,5.19,0,0,0,124.68,169.48Z" transform="translate(-6.61 -8.03)"/><rect class="b2569166-01ca-4c92-96bd-998f98f0f310" x="118.08" y="161.45" height="3.83"/><path class="b2569166-01ca-4c92-96bd-998f98f0f310" d="M124.68,169.48a5.19,5.19,0,0,0,5.2-5.19h3.82a9,9,0,0,1-9,9h0v-3.83Z" transform="translate(-6.61 -8.03)"/><rect class="bbb26cc7-bb01-4241-93be-7c55804a59ff" x="118.08" y="156.25" height="5.19"/><path class="bbb26cc7-bb01-4241-93be-7c55804a59ff" d="M129.88,164.29a5.19,5.19,0,0,1-5.2,5.19h0v-5.19Z" transform="translate(-6.61 -8.03)"/><path class="e5eb41ed-ef56-4da1-ad39-0491b89ec250" d="M124.68,169.48a5.19,5.19,0,0,1-5.19-5.19h5.19Z" transform="translate(-6.61 -8.03)"/><path class="e5eb41ed-ef56-4da1-ad39-0491b89ec250" d="M124.68,159.09h0a5.2,5.2,0,0,1,5.2,5.2h-5.2Z" transform="translate(-6.61 -8.03)"/><rect class="e5eb41ed-ef56-4da1-ad39-0491b89ec250" x="118.08" y="151.06" height="5.19"/><path class="bbb26cc7-bb01-4241-93be-7c55804a59ff" d="M119.49,164.29a5.2,5.2,0,0,1,5.19-5.2v5.2Z" transform="translate(-6.61 -8.03)"/><rect class="e5eb41ed-ef56-4da1-ad39-0491b89ec250" x="90.93" y="144.58" height="2.66"/><path class="e5eb41ed-ef56-4da1-ad39-0491b89ec250" d="M97.54,155.27h0v-2.66h0a11.67,11.67,0,0,1,11.67,11.68h-2.66A9,9,0,0,0,97.54,155.27Z" transform="translate(-6.61 -8.03)"/><path class="b585c4d9-313b-4f48-8512-efafca506e60" d="M88.52,164.29H85.86a11.68,11.68,0,0,1,11.68-11.68v2.66A9,9,0,0,0,88.52,164.29Z" transform="translate(-6.61 -8.03)"/><path class="b585c4d9-313b-4f48-8512-efafca506e60" d="M97.54,173.31a9,9,0,0,0,9-9h2.66A11.67,11.67,0,0,1,97.54,176h0v-2.66Z" transform="translate(-6.61 -8.03)"/><path class="e5eb41ed-ef56-4da1-ad39-0491b89ec250" d="M85.86,164.29h2.66a9,9,0,0,0,9,9h0V176A11.68,11.68,0,0,1,85.86,164.29Z" transform="translate(-6.61 -8.03)"/><path class="b2569166-01ca-4c92-96bd-998f98f0f310" d="M97.54,155.27v3.82a5.2,5.2,0,0,0-5.2,5.2H88.52A9,9,0,0,1,97.54,155.27Z" transform="translate(-6.61 -8.03)"/><rect class="acc80f26-7e8c-4024-a8c1-e9f6d6ffacb3" x="90.93" y="147.24" height="3.83"/><path class="acc80f26-7e8c-4024-a8c1-e9f6d6ffacb3" d="M97.54,159.09h0v-3.82h0a9,9,0,0,1,9,9h-3.82A5.2,5.2,0,0,0,97.54,159.09Z" transform="translate(-6.61 -8.03)"/><path class="acc80f26-7e8c-4024-a8c1-e9f6d6ffacb3" d="M97.54,169.48v3.83a9,9,0,0,1-9-9h3.82A5.19,5.19,0,0,0,97.54,169.48Z" transform="translate(-6.61 -8.03)"/><rect class="b2569166-01ca-4c92-96bd-998f98f0f310" x="90.93" y="161.45" height="3.83"/><path class="b2569166-01ca-4c92-96bd-998f98f0f310" d="M97.54,169.48a5.19,5.19,0,0,0,5.19-5.19h3.82a9,9,0,0,1-9,9h0v-3.83Z" transform="translate(-6.61 -8.03)"/><rect class="bbb26cc7-bb01-4241-93be-7c55804a59ff" x="90.93" y="156.25" height="5.19"/><path class="bbb26cc7-bb01-4241-93be-7c55804a59ff" d="M102.73,164.29a5.19,5.19,0,0,1-5.19,5.19h0v-5.19Z" transform="translate(-6.61 -8.03)"/><path class="e5eb41ed-ef56-4da1-ad39-0491b89ec250" d="M97.54,169.48a5.19,5.19,0,0,1-5.2-5.19h5.2Z" transform="translate(-6.61 -8.03)"/><path class="e5eb41ed-ef56-4da1-ad39-0491b89ec250" d="M97.54,159.09h0a5.2,5.2,0,0,1,5.19,5.2H97.54Z" transform="translate(-6.61 -8.03)"/><rect class="e5eb41ed-ef56-4da1-ad39-0491b89ec250" x="90.93" y="151.06" height="5.19"/><path class="bbb26cc7-bb01-4241-93be-7c55804a59ff" d="M92.34,164.29a5.2,5.2,0,0,1,5.2-5.2v5.2Z" transform="translate(-6.61 -8.03)"/><rect class="b84558d1-be08-4dfa-8e2c-1597ce1b4050" x="126.34" y="78.4" width="60.16" height="7.51"/><rect class="a101e3fe-b4da-4e76-9e6e-2af81de36c28" x="126.34" y="85.91" width="60.16" height="7.51"/><path class="e5eb41ed-ef56-4da1-ad39-0491b89ec250" d="M126.39,22A8.92,8.92,0,0,1,117.47,31V13.11A8.92,8.92,0,0,1,126.39,22Z" transform="translate(-6.61 -8.03)"/><path class="b585c4d9-313b-4f48-8512-efafca506e60" d="M117.47,13.11V31a8.92,8.92,0,0,1,0-17.84Z" transform="translate(-6.61 -8.03)"/><path class="b2569166-01ca-4c92-96bd-998f98f0f310" d="M193.58,116.5a6.18,6.18,0,1,0,6.18-6.18A6.18,6.18,0,0,0,193.58,116.5Z" transform="translate(-6.61 -8.03)"/><rect class="b2569166-01ca-4c92-96bd-998f98f0f310" x="159.96" y="103.65" width="22.68" height="9.64" rx="1.39"/><rect class="acc80f26-7e8c-4024-a8c1-e9f6d6ffacb3" x="133.91" y="47.6" width="58.43" height="21.73"/><rect class="b2569166-01ca-4c92-96bd-998f98f0f310" x="133.91" y="25.87" width="58.43" height="21.73"/><rect class="e5eb41ed-ef56-4da1-ad39-0491b89ec250" x="137.18" y="29.14" width="51.9" height="18.46"/><rect class="b585c4d9-313b-4f48-8512-efafca506e60" x="137.18" y="47.6" width="51.9" height="18.46"/><rect class="acc80f26-7e8c-4024-a8c1-e9f6d6ffacb3" x="175.37" y="47.6" width="1.55" height="20.15"/><rect class="b2569166-01ca-4c92-96bd-998f98f0f310" x="175.37" y="28.37" width="1.55" height="19.23"/><rect class="b2569166-01ca-4c92-96bd-998f98f0f310" x="162.35" y="28.37" width="1.55" height="19.23"/><rect class="acc80f26-7e8c-4024-a8c1-e9f6d6ffacb3" x="162.35" y="47.6" width="1.55" height="20.15"/><rect class="acc80f26-7e8c-4024-a8c1-e9f6d6ffacb3" x="149.33" y="47.6" width="1.55" height="20.15"/><rect class="b2569166-01ca-4c92-96bd-998f98f0f310" x="149.33" y="28.37" width="1.55" height="19.23"/><rect class="b2569166-01ca-4c92-96bd-998f98f0f310" x="136.93" y="40.77" width="53.78" height="1.55"/><rect class="acc80f26-7e8c-4024-a8c1-e9f6d6ffacb3" x="136.93" y="53.79" width="53.78" height="1.55"/><rect class="b2569166-01ca-4c92-96bd-998f98f0f310" x="90.01" y="103.65" width="9.66" height="9.64" rx="1.88"/><rect class="b2569166-01ca-4c92-96bd-998f98f0f310" x="107.14" y="103.65" width="9.66" height="9.64" rx="1.88"/><path class="b2569166-01ca-4c92-96bd-998f98f0f310" d="M148.2,101.46H128.61V82A19.59,19.59,0,0,1,148.2,101.46Z" transform="translate(-6.61 -8.03)"/><path class="acc80f26-7e8c-4024-a8c1-e9f6d6ffacb3" d="M128.61,82v19.48H109A19.59,19.59,0,0,1,128.61,82Z" transform="translate(-6.61 -8.03)"/><path class="f2e48c5a-f124-4235-b166-6899cb8220bc" d="M24.61,111.47,58.28,66.59A7.73,7.73,0,0,1,69.1,65.05h0L26.15,122.3A7.74,7.74,0,0,1,24.61,111.47Z" transform="translate(-6.61 -8.03)"/><path class="f988a392-8532-49a8-b8df-436634233937" d="M69.1,65.05a7.73,7.73,0,0,1,1.55,10.82L37,120.75a7.74,7.74,0,0,1-10.83,1.55h0Z" transform="translate(-6.61 -8.03)"/><path class="b2569166-01ca-4c92-96bd-998f98f0f310" d="M63.82,65v2.71a3.69,3.69,0,0,0-3.69,3.69H57.42A6.4,6.4,0,0,1,63.82,65Z" transform="translate(-6.61 -8.03)"/><rect class="acc80f26-7e8c-4024-a8c1-e9f6d6ffacb3" x="57.21" y="56.98" height="2.72"/><path class="acc80f26-7e8c-4024-a8c1-e9f6d6ffacb3" d="M63.82,67.72h0V65h0a6.4,6.4,0,0,1,6.4,6.4H67.51A3.69,3.69,0,0,0,63.82,67.72Z" transform="translate(-6.61 -8.03)"/><path class="acc80f26-7e8c-4024-a8c1-e9f6d6ffacb3" d="M63.82,75.1v2.72a6.4,6.4,0,0,1-6.4-6.41h2.71A3.69,3.69,0,0,0,63.82,75.1Z" transform="translate(-6.61 -8.03)"/><rect class="b2569166-01ca-4c92-96bd-998f98f0f310" x="57.21" y="67.07" height="2.72"/><path class="b2569166-01ca-4c92-96bd-998f98f0f310" d="M63.82,75.1a3.69,3.69,0,0,0,3.69-3.69h2.71a6.4,6.4,0,0,1-6.4,6.41h0V75.1Z" transform="translate(-6.61 -8.03)"/><rect class="bbb26cc7-bb01-4241-93be-7c55804a59ff" x="57.21" y="63.38" height="3.69"/><path class="bbb26cc7-bb01-4241-93be-7c55804a59ff" d="M67.51,71.41a3.69,3.69,0,0,1-3.69,3.69h0V71.41Z" transform="translate(-6.61 -8.03)"/><path class="e5eb41ed-ef56-4da1-ad39-0491b89ec250" d="M63.82,75.1a3.69,3.69,0,0,1-3.69-3.69h3.69Z" transform="translate(-6.61 -8.03)"/><path class="e5eb41ed-ef56-4da1-ad39-0491b89ec250" d="M63.82,67.72h0a3.69,3.69,0,0,1,3.69,3.69H63.82Z" transform="translate(-6.61 -8.03)"/><rect class="e5eb41ed-ef56-4da1-ad39-0491b89ec250" x="57.21" y="59.69" height="3.69"/><path class="bbb26cc7-bb01-4241-93be-7c55804a59ff" d="M60.13,71.41a3.69,3.69,0,0,1,3.69-3.69v3.69Z" transform="translate(-6.61 -8.03)"/><path class="b2569166-01ca-4c92-96bd-998f98f0f310" d="M30.75,110.1v2.71a3.69,3.69,0,0,0-3.69,3.69H24.35A6.4,6.4,0,0,1,30.75,110.1Z" transform="translate(-6.61 -8.03)"/><rect class="acc80f26-7e8c-4024-a8c1-e9f6d6ffacb3" x="24.14" y="102.07" height="2.72"/><path class="acc80f26-7e8c-4024-a8c1-e9f6d6ffacb3" d="M30.75,112.81h0V110.1h0a6.4,6.4,0,0,1,6.4,6.4H34.44A3.69,3.69,0,0,0,30.75,112.81Z" transform="translate(-6.61 -8.03)"/><path class="acc80f26-7e8c-4024-a8c1-e9f6d6ffacb3" d="M30.75,120.19v2.72a6.4,6.4,0,0,1-6.4-6.41h2.71A3.69,3.69,0,0,0,30.75,120.19Z" transform="translate(-6.61 -8.03)"/><rect class="b2569166-01ca-4c92-96bd-998f98f0f310" x="24.14" y="112.16" height="2.72"/><path class="b2569166-01ca-4c92-96bd-998f98f0f310" d="M30.75,120.19a3.69,3.69,0,0,0,3.69-3.69h2.71a6.4,6.4,0,0,1-6.4,6.41h0v-2.72Z" transform="translate(-6.61 -8.03)"/><rect class="bbb26cc7-bb01-4241-93be-7c55804a59ff" x="24.14" y="108.47" height="3.69"/><path class="bbb26cc7-bb01-4241-93be-7c55804a59ff" d="M34.44,116.5a3.69,3.69,0,0,1-3.69,3.69h0V116.5Z" transform="translate(-6.61 -8.03)"/><path class="e5eb41ed-ef56-4da1-ad39-0491b89ec250" d="M30.75,120.19a3.69,3.69,0,0,1-3.69-3.69h3.69Z" transform="translate(-6.61 -8.03)"/><path class="e5eb41ed-ef56-4da1-ad39-0491b89ec250" d="M30.75,112.81h0a3.69,3.69,0,0,1,3.69,3.69H30.75Z" transform="translate(-6.61 -8.03)"/><rect class="e5eb41ed-ef56-4da1-ad39-0491b89ec250" x="24.14" y="104.78" height="3.69"/><path class="bbb26cc7-bb01-4241-93be-7c55804a59ff" d="M27.06,116.5a3.69,3.69,0,0,1,3.69-3.69v3.69Z" transform="translate(-6.61 -8.03)"/></svg>