<svg xmlns="http://www.w3.org/2000/svg" xmlns:xlink="http://www.w3.org/1999/xlink" viewBox="0 0 400 300"><defs><style>.b6df881f-7f35-426d-a814-754374898d3d{fill:none;}.e633de9a-ae4a-465f-91d8-115bf3285b96{isolation:isolate;}.f6367252-6a49-44b6-9a6e-89bc8a01a375{fill:url(#bd7a1393-7dd0-4e39-bc60-c144ee663241);}.b3a62b2f-cd9d-414e-b659-0a1638a4398e{fill:#29285c;}.ab2ed01b-ab9f-4c2e-8525-18d744c2f47e{fill:#39285a;}.b30940f0-aa9e-4c24-82d5-32b9a66bac2c{fill:#111833;}.f4479a0a-f7dd-4f98-acf5-7b0b324b1d2a{fill:#84725c;}.fb1aa846-b982-4766-a463-ae7b4cb999d5{fill:#765c7e;}.ac7064b9-202b-4b46-a0eb-d6cc9857bf6e{fill:#f2dec7;}.b802aab5-fb42-4b8e-8b6c-76681b0625a9{fill:#dcb993;}.e4470369-3758-428c-abe1-cf87af20d016{opacity:0.51;}.f4879906-5cd4-4218-86fa-cb2670b7a21b{fill:#fae1c8;}.b418143e-359e-4ba3-9689-a6d8e544de3c{fill:url(#b39e917b-c52c-4b3f-9a55-0eb812bba322);}.abadb001-9f8f-42e3-a8e2-fb2f6e3bfa0e,.b3c3b9c2-f10e-42a8-949e-ea094a506713{mix-blend-mode:multiply;}.bfde6c4f-4828-43d9-ac92-bc38d1c6cb33{clip-path:url(#bfc2d4d8-c118-46a0-996e-588950352e82);}.e5e62e37-9524-4434-99ff-dcf692d08493{fill:#d1992a;}.b3c3b9c2-f10e-42a8-949e-ea094a506713{opacity:0.2;}.b7d22967-7109-454e-b9bc-eea7da7dcf90{fill:#222226;}.f3d94429-dabd-4844-803e-755da164eeb8{opacity:0.3;mix-blend-mode:overlay;}.a3bc80bc-af12-4a08-9770-458ce8cb58ad{fill:#fff;}.bcbc0bff-fea8-4dab-a28b-214bf8ab017f{fill:url(#b4475a5f-6bb1-449f-a031-4d074dd43f1e);}.be2c46d2-93f7-411d-9176-98e8d7161bee{fill:#c9af81;}</style><radialGradient id="bd7a1393-7dd0-4e39-bc60-c144ee663241" cx="200" cy="150" r="250" gradientTransform="translate(40 60) scale(0.8 0.6)" gradientUnits="userSpaceOnUse"><stop offset="0" stop-color="#03384a"/><stop offset="1" stop-color="#010f1e"/></radialGradient><linearGradient id="b39e917b-c52c-4b3f-9a55-0eb812bba322" x1="95.78" y1="150" x2="311.79" y2="150" gradientTransform="translate(165.75 -100.16) rotate(45)" gradientUnits="userSpaceOnUse"><stop offset="0.28" stop-color="#fcbe33"/><stop offset="0.96" stop-color="#fc8a33"/></linearGradient><clipPath id="bfc2d4d8-c118-46a0-996e-588950352e82"><circle class="b6df881f-7f35-426d-a814-754374898d3d" cx="203.78" cy="150" r="107.99" transform="translate(-46.38 188.03) rotate(-45)"/></clipPath><linearGradient id="b4475a5f-6bb1-449f-a031-4d074dd43f1e" x1="13.67" y1="147.75" x2="386.33" y2="147.75" gradientUnits="userSpaceOnUse"><stop offset="0" stop-color="#ffe1a4"/><stop offset="1" stop-color="#feb86f"/></linearGradient></defs><g class="e633de9a-ae4a-465f-91d8-115bf3285b96"><g id="aee84909-becb-4bff-9575-35b5df32f5d5" data-name="OBJECTS"><rect class="f6367252-6a49-44b6-9a6e-89bc8a01a375" width="400" height="300"/><path class="b3a62b2f-cd9d-414e-b659-0a1638a4398e" d="M235.76,34.6a1.47,1.47,0,1,1,1.46-1.46A1.46,1.46,0,0,1,235.76,34.6Z"/><path class="b3a62b2f-cd9d-414e-b659-0a1638a4398e" d="M26.48,62.53A1.47,1.47,0,1,1,28,61.06,1.46,1.46,0,0,1,26.48,62.53Z"/><path class="b3a62b2f-cd9d-414e-b659-0a1638a4398e" d="M335.77,62.53a1.47,1.47,0,1,1,1.47-1.47A1.46,1.46,0,0,1,335.77,62.53Z"/><path class="b3a62b2f-cd9d-414e-b659-0a1638a4398e" d="M204.27,276.73a1.47,1.47,0,1,1,1.46-1.46A1.46,1.46,0,0,1,204.27,276.73Z"/><path class="b3a62b2f-cd9d-414e-b659-0a1638a4398e" d="M36.3,255.72a1.47,1.47,0,1,1,1.46-1.47A1.47,1.47,0,0,1,36.3,255.72Z"/><path class="b3a62b2f-cd9d-414e-b659-0a1638a4398e" d="M235.76,115.91a4.25,4.25,0,1,1,4.24-4.25A4.25,4.25,0,0,1,235.76,115.91Z"/><path class="b3a62b2f-cd9d-414e-b659-0a1638a4398e" d="M40.19,284.34a4.25,4.25,0,1,1,4.24-4.25A4.24,4.24,0,0,1,40.19,284.34Z"/><path class="b3a62b2f-cd9d-414e-b659-0a1638a4398e" d="M392.79,167.17a4.25,4.25,0,1,1,4.25-4.25A4.24,4.24,0,0,1,392.79,167.17Z"/><circle class="b3a62b2f-cd9d-414e-b659-0a1638a4398e" cx="123.77" cy="118.31" r="4.24"/><path class="b3a62b2f-cd9d-414e-b659-0a1638a4398e" d="M19.26,204.66a4.25,4.25,0,1,1,4.25-4.25A4.24,4.24,0,0,1,19.26,204.66Z"/><circle class="b3a62b2f-cd9d-414e-b659-0a1638a4398e" cx="328.15" cy="187.39" r="8.02" transform="translate(70.11 463.46) rotate(-76.66)"/><circle class="b3a62b2f-cd9d-414e-b659-0a1638a4398e" cx="221.27" cy="159.48" r="6.84" transform="translate(28.41 352.34) rotate(-80.78)"/><circle class="ab2ed01b-ab9f-4c2e-8525-18d744c2f47e" cx="210.97" cy="263.55" r="6.84" transform="translate(-124.57 226.37) rotate(-45)"/><path class="ab2ed01b-ab9f-4c2e-8525-18d744c2f47e" d="M369.47,272.37a3.42,3.42,0,1,1,3.42-3.42A3.42,3.42,0,0,1,369.47,272.37Z"/><circle class="ab2ed01b-ab9f-4c2e-8525-18d744c2f47e" cx="388.1" cy="45.37" r="6.84" transform="translate(337.17 432.78) rotate(-89.18)"/><circle class="ab2ed01b-ab9f-4c2e-8525-18d744c2f47e" cx="264.67" cy="224.96" r="2.3"/><path class="ab2ed01b-ab9f-4c2e-8525-18d744c2f47e" d="M75.28,144.94a2.3,2.3,0,1,1,2.3-2.3A2.3,2.3,0,0,1,75.28,144.94Z"/><circle class="ab2ed01b-ab9f-4c2e-8525-18d744c2f47e" cx="61.4" cy="186.56" r="2.3"/><path class="b30940f0-aa9e-4c24-82d5-32b9a66bac2c" d="M369.39,17.55a3.28,3.28,0,0,0,1-2.2A4.52,4.52,0,0,0,368,11.18a3.56,3.56,0,0,0-2.5-.69,3.42,3.42,0,0,0-2.3,5.38,6.32,6.32,0,0,0,.93,1.2,8,8,0,0,0,.93.79,3.89,3.89,0,0,0,2.1.53A3.35,3.35,0,0,0,369.39,17.55Z"/><path class="b30940f0-aa9e-4c24-82d5-32b9a66bac2c" d="M330.8,11.22a2.73,2.73,0,0,0,1.56-.75,1.94,1.94,0,0,0,.6-.81,2.69,2.69,0,0,0,.21-1.34A3.83,3.83,0,0,0,332,6.13l-.49-.31a2.36,2.36,0,0,0-1.77-.06,2.54,2.54,0,0,0-1.26,1.18,2.82,2.82,0,0,0-.57,1.9A2.7,2.7,0,0,0,330.8,11.22Z"/><path class="b30940f0-aa9e-4c24-82d5-32b9a66bac2c" d="M318.47,50.78c0-5.48-8.52-5.71-8.52-.21S318.47,56.27,318.47,50.78Z"/><path class="b30940f0-aa9e-4c24-82d5-32b9a66bac2c" d="M369.77,111.64a1.44,1.44,0,0,0-2.88,0A1.44,1.44,0,0,0,369.77,111.64Z"/><path class="b30940f0-aa9e-4c24-82d5-32b9a66bac2c" d="M249.36,25.73Z"/><path class="b30940f0-aa9e-4c24-82d5-32b9a66bac2c" d="M249.44,25.82h0l-.08-.09Z"/><path class="b30940f0-aa9e-4c24-82d5-32b9a66bac2c" d="M253.08,26.41a2.22,2.22,0,0,0-.07-3.09l-.93-.75a2.05,2.05,0,0,0-1.62-.25,2.2,2.2,0,0,0-1.12.72,2.14,2.14,0,0,0,.1,2.78l.16.2c.14.15.27.31.4.46A2.19,2.19,0,0,0,253.08,26.41Z"/><path class="b30940f0-aa9e-4c24-82d5-32b9a66bac2c" d="M346,223.46c0-2.15-3.35-2.42-3.35-.25S346,225.62,346,223.46Z"/><path class="b30940f0-aa9e-4c24-82d5-32b9a66bac2c" d="M345.18,98c0-1.15-1.8-1.39-1.8-.22S345.18,99.19,345.18,98Z"/><path class="b30940f0-aa9e-4c24-82d5-32b9a66bac2c" d="M210.22,144a6.65,6.65,0,0,0,4.4-2.49l.87-1.46a6.55,6.55,0,0,0,.48-3.42,5,5,0,0,0-.87-2.45,5,5,0,0,0-1.62-1.95,5,5,0,0,0-2.28-1.1,5.09,5.09,0,0,0-2.6-.25,6.71,6.71,0,0,0-4.4,2.5l-.86,1.45a6.58,6.58,0,0,0-.49,3.42,5,5,0,0,0,.88,2.46,6,6,0,0,0,3.9,3A4.94,4.94,0,0,0,210.22,144Z"/><path class="b30940f0-aa9e-4c24-82d5-32b9a66bac2c" d="M251.49,196.91a6.69,6.69,0,0,0,4.4-2.49l.87-1.46a6.58,6.58,0,0,0,.48-3.42,6.78,6.78,0,0,0-7.37-5.75,6.7,6.7,0,0,0-4.4,2.49l-.86,1.46a6.55,6.55,0,0,0-.49,3.42,5,5,0,0,0,.88,2.46,4.89,4.89,0,0,0,1.62,1.94,7.26,7.26,0,0,0,4.87,1.35Z"/><path class="b30940f0-aa9e-4c24-82d5-32b9a66bac2c" d="M245.9,88.61c0-1.63-2.53-1.92-2.53-.28S245.9,90.25,245.9,88.61Z"/><path class="b30940f0-aa9e-4c24-82d5-32b9a66bac2c" d="M259.33,279.27a5.14,5.14,0,0,0,1.47-3.47,5.2,5.2,0,0,0-1.46-3.6,5.14,5.14,0,0,0-3.47-1.47,5.07,5.07,0,0,0-3.6,1.46,5,5,0,0,0,0,7.07,5,5,0,0,0,7.07,0Z"/><path class="b30940f0-aa9e-4c24-82d5-32b9a66bac2c" d="M374.71,182.05a6.22,6.22,0,0,0,3-.91,8.3,8.3,0,0,0,3.91-4.93c.1-.72.21-1.45.31-2.18a7.84,7.84,0,0,0-.33-2.32c.05.07.05,0,0-.25a3.58,3.58,0,0,0-.18-.64,16.8,16.8,0,0,0-1.08-2.25,7.92,7.92,0,0,0-1.64-1.9l-1.82-1.17a8.78,8.78,0,0,0-3.62-.82,8,8,0,0,0-7.34,3.07l-.66.93c-.33.61-.66,1.22-1,1.83l-.45,2,.06,2A5.73,5.73,0,0,0,365,177.2a3.8,3.8,0,0,0,1.27,1.57,3.89,3.89,0,0,0,1.66,1.2,3.66,3.66,0,0,0,.89.48,6.13,6.13,0,0,0,2.68,1.41A6.23,6.23,0,0,0,374.71,182.05Z"/><path class="b30940f0-aa9e-4c24-82d5-32b9a66bac2c" d="M310.75,199.22c0-3.29-5.1-3.15-5.1.13S310.75,202.49,310.75,199.22Z"/><path class="b30940f0-aa9e-4c24-82d5-32b9a66bac2c" d="M251.26,197.65a4.58,4.58,0,0,0,1.52-1.21,3.86,3.86,0,0,0,.72-2.68,3.39,3.39,0,0,0,.28-.71,3.7,3.7,0,0,0,.13-1.38,2.47,2.47,0,0,0-.11-1.86l-.38.11c0-.08-.06-.17-.1-.26V190l-8.05,2.28a4.7,4.7,0,0,0,.32,2.4,5.1,5.1,0,0,0,1.18,1.92,4.26,4.26,0,0,0,2.1,1.29A3.55,3.55,0,0,0,251.26,197.65Z"/><path class="b30940f0-aa9e-4c24-82d5-32b9a66bac2c" d="M217.19,95.43a4.44,4.44,0,0,0,1.51-1.21,3.87,3.87,0,0,0,.73-2.68,3.75,3.75,0,0,0,.28-.71,3.7,3.7,0,0,0,.13-1.38,2.47,2.47,0,0,0-.11-1.86l-.38.11c0-.08-.07-.17-.1-.26l0,.29-8,2.28a4.6,4.6,0,0,0,.32,2.4,4.86,4.86,0,0,0,1.18,1.92,4.28,4.28,0,0,0,2.09,1.29A3.57,3.57,0,0,0,217.19,95.43Z"/><path class="b30940f0-aa9e-4c24-82d5-32b9a66bac2c" d="M317.45,126.37c0-6-9.26-6.18-9.26-.21S317.45,132.34,317.45,126.37Z"/><path class="b30940f0-aa9e-4c24-82d5-32b9a66bac2c" d="M335.4,101.38a2.16,2.16,0,0,0-.66-1.64,2.13,2.13,0,0,0-1.91-.68l-1.51.74a1.85,1.85,0,0,0-.85,1.36,1.69,1.69,0,0,0,.51,1.49,2,2,0,0,0,1.34.9l.45.1A2.31,2.31,0,0,0,335.4,101.38Z"/><path class="b30940f0-aa9e-4c24-82d5-32b9a66bac2c" d="M320.93,176.5c0-5.31-8.28-6.18-8.28-.82S320.93,181.86,320.93,176.5Z"/><path class="b30940f0-aa9e-4c24-82d5-32b9a66bac2c" d="M149.29,285.47c0-4.41-6.89-5-6.89-.58S149.29,289.94,149.29,285.47Z"/><path class="b30940f0-aa9e-4c24-82d5-32b9a66bac2c" d="M158.54,195.66c0-4.42-6.88-5-6.88-.59S158.54,200.12,158.54,195.66Z"/><path class="b30940f0-aa9e-4c24-82d5-32b9a66bac2c" d="M160.4,89.07a8.34,8.34,0,0,0,2.69-3.33,8.55,8.55,0,0,0,.67-4.41c-.69-3.39-2.33-5.62-4.91-6.66a9.34,9.34,0,0,0-3.72-.76,6,6,0,0,0-3.09.42,6.14,6.14,0,0,0-2.74,1.43l-1.43,1.54a6.22,6.22,0,0,0-1.24,3,4,4,0,0,0-.18,2.12,6.21,6.21,0,0,0,.69,3,8.77,8.77,0,0,0,4.58,4.19L152,90A8.34,8.34,0,0,0,160.4,89.07Z"/><path class="b30940f0-aa9e-4c24-82d5-32b9a66bac2c" d="M128.94,147.54a9,9,0,0,0,1.64,0,8.66,8.66,0,0,0,7.44-4.95c.21-.72.42-1.44.62-2.16a8.28,8.28,0,0,0-.51-4.35l-1-1.88a9.24,9.24,0,0,0-1.33-1.39c.07,0,0,0-.17-.15l0,0h0a8.12,8.12,0,0,0-1.54-1l-.34-.18a4.37,4.37,0,0,0-2.32-.67,8.81,8.81,0,0,0-4.66.59,6.27,6.27,0,0,0-2.61,1.86,6.39,6.39,0,0,0-1.86,2.65,6.46,6.46,0,0,0-.56,3.32,6.28,6.28,0,0,0,.6,3.23,8.52,8.52,0,0,0,4.51,4.46l.85.23a7.13,7.13,0,0,0,1.1.29Z"/><path class="b30940f0-aa9e-4c24-82d5-32b9a66bac2c" d="M51,235.94a8.2,8.2,0,0,0,1.64,0,6.18,6.18,0,0,0,2.89-.54,6.33,6.33,0,0,0,2.65-1.8A6.35,6.35,0,0,0,60,231c.21-.72.41-1.44.62-2.16a8.32,8.32,0,0,0-.51-4.36l-1-1.87a8.86,8.86,0,0,0-1.33-1.4c.06,0,0,0-.17-.15l0,0h0a8.61,8.61,0,0,0-1.54-.95l-.35-.19a4.28,4.28,0,0,0-2.31-.67,8.81,8.81,0,0,0-4.66.6,6.43,6.43,0,0,0-2.62,1.85,7.56,7.56,0,0,0-2.41,6,6.26,6.26,0,0,0,.6,3.23,8.48,8.48,0,0,0,4.51,4.46l.85.23a6.15,6.15,0,0,0,1.1.29Z"/><path class="b30940f0-aa9e-4c24-82d5-32b9a66bac2c" d="M212.42,52.35A5.19,5.19,0,0,0,216,50.5l.7-1.13a5.16,5.16,0,0,0,.45-2.57,4,4,0,0,0-.6-1.91,4,4,0,0,0-1.26-1.62A5.13,5.13,0,0,0,208,44l-.7,1.12a5.18,5.18,0,0,0-.45,2.57,3.85,3.85,0,0,0,.61,1.91,3.75,3.75,0,0,0,1.25,1.62A5.2,5.2,0,0,0,212.42,52.35Z"/><path class="b30940f0-aa9e-4c24-82d5-32b9a66bac2c" d="M171.28,47.67a5.2,5.2,0,0,0,3.53-1.86c.24-.37.47-.75.71-1.13a5,5,0,0,0,.44-2.56,3.81,3.81,0,0,0-.6-1.92,3.86,3.86,0,0,0-1.25-1.62,5.13,5.13,0,0,0-7.23.71l-.7,1.13a5.12,5.12,0,0,0-.45,2.56,3.81,3.81,0,0,0,.6,1.92,4,4,0,0,0,1.26,1.62A5.25,5.25,0,0,0,171.28,47.67Z"/><path class="b30940f0-aa9e-4c24-82d5-32b9a66bac2c" d="M100.26,41.86a3.52,3.52,0,0,0,1.06-1.51,4.71,4.71,0,0,0,.35-2.43c.07.69.1.83.11.41a5,5,0,0,0-1.21-3.62,4.91,4.91,0,0,0-6.93-.44l-.84,1A4.88,4.88,0,0,0,92,37.59a7.8,7.8,0,0,0,.44,2.7c.21.37.42.75.64,1.12a4.63,4.63,0,0,0,3.76,1.85A4.58,4.58,0,0,0,100.26,41.86Z"/><path class="b30940f0-aa9e-4c24-82d5-32b9a66bac2c" d="M26.25,92.18c0-4.18-6.48-4.07-6.48.1S26.25,96.36,26.25,92.18Z"/><path class="b30940f0-aa9e-4c24-82d5-32b9a66bac2c" d="M66.67,109.78c0-4.24-6.57-3.9-6.57.33S66.67,114,66.67,109.78Z"/><path class="b30940f0-aa9e-4c24-82d5-32b9a66bac2c" d="M220.75,223a5.28,5.28,0,0,0,4.58-3.67,11.67,11.67,0,0,0,.36-1.32,6.57,6.57,0,0,0-.06-2.46,7.47,7.47,0,0,0-3.78-4.94,7.94,7.94,0,0,0-7,.46,7,7,0,0,0-2.92,7.71c.54,2.42,2.56,4.89,5.1,5.31A4.08,4.08,0,0,0,220.75,223Z"/><path class="b30940f0-aa9e-4c24-82d5-32b9a66bac2c" d="M392.77,252.55a6.32,6.32,0,0,0,4.17-2.09c.29-.45.59-.89.89-1.34a6.18,6.18,0,0,0,.62-3.22,4.55,4.55,0,0,0-.69-2.28,4.64,4.64,0,0,0-1.4-1.89,4.51,4.51,0,0,0-2.12-1.15,4.61,4.61,0,0,0-2.44-.36,6.23,6.23,0,0,0-4.16,2.09c-.3.44-.6.88-.89,1.33a6.19,6.19,0,0,0-.63,3.22,6.92,6.92,0,0,0,2.09,4.17,4.66,4.66,0,0,0,2.12,1.16A4.83,4.83,0,0,0,392.77,252.55Z"/><path class="b30940f0-aa9e-4c24-82d5-32b9a66bac2c" d="M344.94,261.63c0-5.24-8.2-6.31-8.2-1S344.94,266.94,344.94,261.63Z"/><path class="b30940f0-aa9e-4c24-82d5-32b9a66bac2c" d="M384.08,73.92a7.5,7.5,0,0,0,.1-10.61,8.4,8.4,0,0,0-5.28-2.25,7.59,7.59,0,0,0-5.33,2.15,7.5,7.5,0,0,0-.1,10.61A5.6,5.6,0,0,0,376,75.43a5.49,5.49,0,0,0,2.79.64A7.51,7.51,0,0,0,384.08,73.92Z"/><path class="b30940f0-aa9e-4c24-82d5-32b9a66bac2c" d="M127.63,249.88c0-4.2-6.51-4-6.51.16S127.63,254.07,127.63,249.88Z"/><path class="b30940f0-aa9e-4c24-82d5-32b9a66bac2c" d="M12.54,46.36a3.53,3.53,0,0,0,2.22-1.48,3.39,3.39,0,0,0,.53-2.58,3.39,3.39,0,0,0-.13-1.24,3.31,3.31,0,0,0-1.55-2A2.92,2.92,0,0,0,11,38.88l-.71.4a3,3,0,0,0-1,1.24c.56-1.17.58-1.43.06-.77a2.68,2.68,0,0,0-.75,1.17A8,8,0,0,0,8.36,42a4.11,4.11,0,0,0,.07,1.6,3.7,3.7,0,0,0,1.49,2.22A3.56,3.56,0,0,0,12.54,46.36Z"/><path class="b30940f0-aa9e-4c24-82d5-32b9a66bac2c" d="M51.74,39.85A2.48,2.48,0,0,0,51,38.79,3.42,3.42,0,0,0,49.55,38h0a3,3,0,0,0-4,3.82Q53.51,43.16,51.74,39.85Z"/><path class="b30940f0-aa9e-4c24-82d5-32b9a66bac2c" d="M11.72,159.74A8.08,8.08,0,0,0,17,156.86L18.16,155a8,8,0,0,0,.64-4.15,6,6,0,0,0-1-2.89,6.08,6.08,0,0,0-1.91-2.42,6.09,6.09,0,0,0-2.87-1.43,6,6,0,0,0-3.11-.34,8.08,8.08,0,0,0-5.31,2.88L3.5,148.51a8,8,0,0,0-.64,4.15,6.11,6.11,0,0,0,1,2.89A6.08,6.08,0,0,0,5.74,158a6,6,0,0,0,2.87,1.43A6,6,0,0,0,11.72,159.74Z"/><path class="b30940f0-aa9e-4c24-82d5-32b9a66bac2c" d="M45.82,162.47a2.28,2.28,0,0,0,.91-1.46,2.24,2.24,0,0,0-.4-1.72c-.13-.15-.26-.29-.4-.43a2.28,2.28,0,0,0-1.06-.48l-2,.41a2.06,2.06,0,0,0,.23,3.77c.32.11.65.22,1,.31A2.24,2.24,0,0,0,45.82,162.47Z"/><path class="b30940f0-aa9e-4c24-82d5-32b9a66bac2c" d="M104.16,217.43l1.14-.23.62-.31a2,2,0,0,0,.69-.73,2.55,2.55,0,0,0,.43-1.59,2.65,2.65,0,0,0-2.09-2.38l-.89-.15a2.72,2.72,0,1,0,.1,5.39Z"/><path class="b30940f0-aa9e-4c24-82d5-32b9a66bac2c" d="M95.49,181.55a2.29,2.29,0,0,0,1.21-.76A4.23,4.23,0,0,0,97.88,178a4,4,0,0,0-1.12-2.75,4.08,4.08,0,0,0-4.46-.79l-.3.13-.13.09-.12.08a5.19,5.19,0,0,0-.46.36l-.09.07h0a.81.81,0,0,0-.14.12,4.67,4.67,0,0,0-1.24,3.18,4,4,0,0,0,2.84,4A2.47,2.47,0,0,0,95.49,181.55Z"/><path class="b30940f0-aa9e-4c24-82d5-32b9a66bac2c" d="M68.11,274.32a4.09,4.09,0,0,0,1.49-2.82,4.47,4.47,0,0,0-.95-3.05A4.21,4.21,0,0,0,65.83,267a4.25,4.25,0,0,0-3,.94,4.1,4.1,0,0,0-1.48,2.82,4.46,4.46,0,0,0,.94,3,4.21,4.21,0,0,0,2.82,1.49A4.25,4.25,0,0,0,68.11,274.32Z"/><path class="b30940f0-aa9e-4c24-82d5-32b9a66bac2c" d="M301.5,258.73a7.75,7.75,0,0,0,5.14-2.84c.35-.59.7-1.18,1.06-1.77a7.69,7.69,0,0,0,.56-3.88,8.46,8.46,0,0,0-2.84-5.13,8.5,8.5,0,0,0-5.64-1.63,7.72,7.72,0,0,0-5.14,2.85l-1.05,1.76A7.6,7.6,0,0,0,293,252a5.8,5.8,0,0,0,.94,2.78,5.88,5.88,0,0,0,1.9,2.36,5.81,5.81,0,0,0,2.73,1.32A5.74,5.74,0,0,0,301.5,258.73Z"/><path class="b30940f0-aa9e-4c24-82d5-32b9a66bac2c" d="M215,99.85A7.67,7.67,0,0,0,220.13,97c.35-.59.7-1.18,1.06-1.76a7.7,7.7,0,0,0,.56-3.88,5.7,5.7,0,0,0-.94-2.78,5.88,5.88,0,0,0-1.9-2.36,5.73,5.73,0,0,0-2.72-1.32,5.79,5.79,0,0,0-2.92-.3,7.75,7.75,0,0,0-5.14,2.84l-1.06,1.77a7.65,7.65,0,0,0-.56,3.87,8.52,8.52,0,0,0,2.84,5.14,5.84,5.84,0,0,0,2.72,1.33A5.68,5.68,0,0,0,215,99.85Z"/><path class="b30940f0-aa9e-4c24-82d5-32b9a66bac2c" d="M174.94,42.66a3.92,3.92,0,0,0-1.24-2.48l.05.09a2.58,2.58,0,0,0-.32-.34,4,4,0,0,0-5.69.34,4.46,4.46,0,0,0-1,3L174,45.37A3.66,3.66,0,0,0,174.94,42.66Z"/><path class="f4479a0a-f7dd-4f98-acf5-7b0b324b1d2a" d="M209.91,7.65a1.22,1.22,0,1,1,0-2.43,1.22,1.22,0,0,1,0,2.43Z"/><path class="f4479a0a-f7dd-4f98-acf5-7b0b324b1d2a" d="M179.86,208.2a1.22,1.22,0,0,1,0-2.43,1.22,1.22,0,1,1,0,2.43Z"/><path class="f4479a0a-f7dd-4f98-acf5-7b0b324b1d2a" d="M310.75,165.85a1.22,1.22,0,1,1,1.21-1.21A1.21,1.21,0,0,1,310.75,165.85Z"/><circle class="fb1aa846-b982-4766-a463-ae7b4cb999d5" cx="197.69" cy="36.59" r="3.45"/><path class="fb1aa846-b982-4766-a463-ae7b4cb999d5" d="M41.76,140.89a3.46,3.46,0,1,1,3.46-3.46A3.46,3.46,0,0,1,41.76,140.89Z"/><path class="f4479a0a-f7dd-4f98-acf5-7b0b324b1d2a" d="M279.32,90.62a6.08,6.08,0,1,1,6.07-6.08A6.08,6.08,0,0,1,279.32,90.62Z"/><path class="fb1aa846-b982-4766-a463-ae7b4cb999d5" d="M96.89,77.32a3.46,3.46,0,1,1,3.45-3.46A3.45,3.45,0,0,1,96.89,77.32Z"/><path class="f4479a0a-f7dd-4f98-acf5-7b0b324b1d2a" d="M209.91,209.61a1.21,1.21,0,1,1,1.21-1.21A1.22,1.22,0,0,1,209.91,209.61Z"/><path class="f4479a0a-f7dd-4f98-acf5-7b0b324b1d2a" d="M378.66,201.63a1.22,1.22,0,1,1,0-2.43,1.22,1.22,0,0,1,0,2.43Z"/><path class="f4479a0a-f7dd-4f98-acf5-7b0b324b1d2a" d="M355.42,160.22a1.22,1.22,0,1,1,1.21-1.21A1.21,1.21,0,0,1,355.42,160.22Z"/><circle class="f4479a0a-f7dd-4f98-acf5-7b0b324b1d2a" cx="197.69" cy="238.56" r="3.45"/><path class="f4479a0a-f7dd-4f98-acf5-7b0b324b1d2a" d="M328.15,230.09a3.46,3.46,0,1,1,3.45-3.46A3.46,3.46,0,0,1,328.15,230.09Z"/><path class="fb1aa846-b982-4766-a463-ae7b4cb999d5" d="M279.32,292.58a6.08,6.08,0,1,1,6.07-6.07A6.08,6.08,0,0,1,279.32,292.58Z"/><path class="fb1aa846-b982-4766-a463-ae7b4cb999d5" d="M96.89,279.28a3.46,3.46,0,1,1,3.45-3.45A3.45,3.45,0,0,1,96.89,279.28Z"/><circle class="fb1aa846-b982-4766-a463-ae7b4cb999d5" cx="13.78" cy="235.1" r="3.45"/><circle class="fb1aa846-b982-4766-a463-ae7b4cb999d5" cx="127.88" cy="233.14" r="9.66"/><circle class="ac7064b9-202b-4b46-a0eb-d6cc9857bf6e" cx="255.84" cy="140.57" r="6.07"/><path class="b802aab5-fb42-4b8e-8b6c-76681b0625a9" d="M191.85,12.4a4.75,4.75,0,0,1,4.75-4.75,4.75,4.75,0,0,1-4.75-4.76,4.76,4.76,0,0,1-4.76,4.76A4.76,4.76,0,0,1,191.85,12.4Z"/><path class="b802aab5-fb42-4b8e-8b6c-76681b0625a9" d="M392.79,96.35a4.76,4.76,0,0,1,4.76-4.76,4.76,4.76,0,0,1-4.76-4.75A4.75,4.75,0,0,1,388,91.59,4.75,4.75,0,0,1,392.79,96.35Z"/><path class="ac7064b9-202b-4b46-a0eb-d6cc9857bf6e" d="M166.74,167.68a4.76,4.76,0,0,1,4.76-4.76,4.76,4.76,0,0,1-4.76-4.75,4.75,4.75,0,0,1-4.75,4.75A4.76,4.76,0,0,1,166.74,167.68Z"/><circle class="ac7064b9-202b-4b46-a0eb-d6cc9857bf6e" cx="52.06" cy="82.29" r="4.75"/><path class="ac7064b9-202b-4b46-a0eb-d6cc9857bf6e" d="M291.41,23.93a4.76,4.76,0,0,1,4.76-4.75,4.76,4.76,0,0,1-4.76-4.76,4.76,4.76,0,0,1-4.75,4.76A4.75,4.75,0,0,1,291.41,23.93Z"/><g class="e4470369-3758-428c-abe1-cf87af20d016"><circle class="f4879906-5cd4-4218-86fa-cb2670b7a21b" cx="83.32" cy="8.79" r="6.29" transform="translate(18.19 61.49) rotate(-45)"/></g></g><g id="f057116d-a651-4f39-833c-4d3e7aa97af1" data-name="Saturn"><circle class="b418143e-359e-4ba3-9689-a6d8e544de3c" cx="203.78" cy="150" r="107.99" transform="translate(-46.38 188.03) rotate(-45)"/><g class="abadb001-9f8f-42e3-a8e2-fb2f6e3bfa0e"><g class="bfde6c4f-4828-43d9-ac92-bc38d1c6cb33"><path class="e5e62e37-9524-4434-99ff-dcf692d08493" d="M167.8,29c3.21,0,3.22-5,0-5s-3.23,5,0,5Z"/><path class="e5e62e37-9524-4434-99ff-dcf692d08493" d="M193.45,38.56c12.31.16,24.5-1.94,36.79-2.43,3.68-.14,7.5-.12,10.87,1.17,6.39,2.43,9.39,8.57,13.76,13.24,12.33,13.15,34.73,14.07,53.9,18,20.88,4.3,40.37,13.46,55.79,26.25-14.61,6.86-33,2.68-47.78-3.84S288,75.6,271.65,73c-10.86-1.75-22.37-.66-32.74-3.94-7.8-2.47-14.34-7.24-22-10.05-21.41-7.87-47.54.75-68.79-7.43-4.09-1.58-8-3.78-12.47-4.2S125.9,49.2,125.6,53c-.16,2.11,1.23,4.11,3,5.63,12,10.47,33.42,1.52,49.42,6.71,5.72,1.86,10.51,5.5,16.32,7.14,9.83,2.78,21.08-.54,30.72,2.69,4.86,1.62,8.78,4.75,13.19,7.14,12.73,6.91,28.65,7.33,43.25,10.58,28.31,6.29,52.77,23.59,81.87,26.13-15.72,9.2-37.2,5.6-54.71-.82S274.14,102.79,255.11,102c-11.86-.52-23.74,2.24-35.53,1.1-12.3-1.19-23.43-6.47-34.72-10.79A232.59,232.59,0,0,0,105.2,77.21c13.3,5.75,27.45,9.91,41.55,14.06l57,16.76c14.08,4.14,28.36,8.31,43.21,9.26,10.07.64,20.23-.22,30.26.81A75.07,75.07,0,0,1,306,127c11.15,6.23,20.35,15.48,33.08,18.85,12.55,3.32,28,.83,37.39,8.68-22.95,5.18-47.94,8.55-69.92.9-11.24-3.91-21-10.51-32.29-14.33S250.6,136.4,238.51,135c-20.11-2.32-39.93-6.16-59.72-10-25-4.84-51.59-10.48-68.79-26.69C106,94.55,99.09,90.1,95.26,94a5.83,5.83,0,0,0-1.48,3.89c-.36,6.7,5.1,12.76,11.66,16.44s14.24,5.57,21.46,8.21c14.06,5.13,26.49,13.15,40.66,18.06,27.08,9.38,58.53,6.78,85,17.4,12.76,5.12,24,13.19,37.53,16.49,21.69,5.27,47.62-2.05,65.87,9.29-10.72,6.88-25,7.66-38.41,8.17-20.85.81-43,1.35-61-7.65-9.21-4.59-16.87-11.49-26.84-14.71-12.5-4-26.46-1.66-39.76-2.77-15.16-1.27-29.31-7.1-44.33-9.29-9.09-1.33-18.61-1.35-27.09-4.46-15.8-5.82-25.38-21.44-42.15-24.74,7.23,21.57,18.75,45.08,43.12,53.43,22.49,7.71,48.57-.27,72,4.95,11.16,2.49,21.1,7.83,31.46,12.18,23.61,9.92,49.63,14.74,75.35,19.47,10.73,2,21.53,3.95,32.49,4.44-13.95,7.36-31.59,6.39-47.93,5.18-16.81-1.25-33.81-2.53-49.77-7.21-12.07-3.54-23.32-9-35.55-12.07-26.54-6.73-55.76-2.11-82-9.53,9.81,12.44,31.18,11.35,47.53,16.79,6.73,2.23,12.8,5.72,19.39,8.24a121.38,121.38,0,0,0,18,5A446,446,0,0,0,281.26,239c-12.52,11.34-30.35,18.27-48.58,18.9-26.6.92-51.17-10.79-75.81-19.39-14.19-5-28.91-9-42.17-15.54-15.32-7.57-28.22-18.29-39.6-29.87-21-21.4-37.74-47-41.14-74.77-1.09-8.92-.78-18,2.11-26.68C42.16,73.4,58.86,59.4,74.9,46.29c12.5-10.21,26.29-21,43.47-22.69,14.75-1.48,27.18,1,40.75,5.44C170.28,32.71,181.16,38.4,193.45,38.56Z"/></g></g><g class="b3c3b9c2-f10e-42a8-949e-ea094a506713"><path class="b7d22967-7109-454e-b9bc-eea7da7dcf90" d="M164.8,230.47A108,108,0,0,1,147.48,57.85a108,108,0,1,0,129,172A108,108,0,0,1,164.8,230.47Z"/></g><g class="f3d94429-dabd-4844-803e-755da164eeb8"><path class="a3bc80bc-af12-4a08-9770-458ce8cb58ad" d="M259.13,57.28a107.66,107.66,0,0,0-89.2-9.79A108,108,0,0,0,276.77,229.6,108,108,0,0,0,259.13,57.28Z"/></g><path class="bcbc0bff-fea8-4dab-a28b-214bf8ab017f" d="M385.12,220.45c7.79-19.83-22.55-51.73-74.09-82.7a109.16,109.16,0,0,1,.54,18.09c16.35,14,24.48,26.88,20.86,36.09-8.16,20.78-72.88,14.8-144.54-13.35S64.74,110.77,72.9,90c4.16-10.6,23.06-14.2,50-11.5a105.86,105.86,0,0,1,12-11.54C71.36,52.23,23.09,54.15,14.89,75c-11.65,29.65,61.79,86.23,164,126.39S373.47,250.1,385.12,220.45Z"/><g class="abadb001-9f8f-42e3-a8e2-fb2f6e3bfa0e"><path class="be2c46d2-93f7-411d-9176-98e8d7161bee" d="M332.49,191.67a12.37,12.37,0,0,0,2.29-3.69c3.62-9.2-4.5-22.11-20.86-36.08a110,110,0,0,0-.13-12.45c-.93-.57-1.82-1.14-2.76-1.7a109.16,109.16,0,0,1,.54,18.09C327.78,169.68,335.86,182.48,332.49,191.67Z"/><path class="be2c46d2-93f7-411d-9176-98e8d7161bee" d="M75.25,86c0,.08,0,.17,0,.24,6.81-7.7,24.19-10.15,47.73-7.79a105.86,105.86,0,0,1,12-11.54l-1.66-.36a103.07,103.07,0,0,0-8,8C98.31,71.85,79.41,75.45,75.25,86Z"/><path class="be2c46d2-93f7-411d-9176-98e8d7161bee" d="M181.27,197.48C79,157.32,5.59,100.74,17.24,71.09c.05-.13.14-.24.2-.37A17.61,17.61,0,0,0,14.89,75c-11.65,29.65,61.79,86.23,164,126.39,101.74,40,193.62,48.58,206,19.45C366,245.14,278.1,235.51,181.27,197.48Z"/></g></g></g></svg>