<svg xmlns="http://www.w3.org/2000/svg" xmlns:xlink="http://www.w3.org/1999/xlink" viewBox="0 0 214.39 505.31"><defs><style>.bef6cf58-4c4c-4acf-a49e-0c17cff6bab0{fill:none;}.a33d8863-79e3-49bf-b35c-a8c84bc2bcad{isolation:isolate;}.b6f713a0-95f0-48bb-8997-546f3bfb6402{fill:url(#f5788905-3fd6-47a4-ab99-12da8cf804b0);}.a62d05a9-b8da-427b-8a26-00cf820fa715,.b0e857e6-a379-4da8-a97d-a1341cf769c9,.b31131ce-9a60-4a3e-9e22-4c5d8687ad09,.b975088f-1a4e-43a3-9328-a952e337a671,.f3788b8d-b76e-42c8-acc4-78f3bffae783,.f6a06aaf-3b7e-4cbf-a003-b2f9c76191f8{mix-blend-mode:multiply;}.f0a1c0a7-c09b-4de4-899c-b0cb267ddec4{clip-path:url(#a347a2d3-0989-4721-b7e1-2ea2702643f3);}.f031c23a-a335-488a-b091-1a58f00ff55a{fill:#d1992a;}.a62d05a9-b8da-427b-8a26-00cf820fa715,.bc139b2d-f58d-4326-b0f4-f5d757786bdd,.f3788b8d-b76e-42c8-acc4-78f3bffae783{opacity:0.2;}.a62d05a9-b8da-427b-8a26-00cf820fa715,.eec014fc-8c41-43ff-8a98-116d6ff80c50{fill:#222226;}.a756a618-5f94-421c-a259-85cf00b5aa19{opacity:0.3;}.a756a618-5f94-421c-a259-85cf00b5aa19,.b93ab3cc-6c95-4eae-adae-fabf7c76a968,.bc139b2d-f58d-4326-b0f4-f5d757786bdd,.bdb4f0be-04e3-4d64-9072-2095859199ca{mix-blend-mode:overlay;}.ba8e5ed1-c92a-4a0f-b48b-f81595d22d94,.bdb4f0be-04e3-4d64-9072-2095859199ca{fill:#fff;}.aba43d05-8b42-4db4-bf03-8e43e0b6ede8{fill:url(#f033eab0-f28f-4879-9fec-5334238716e8);}.a7987ee2-d385-4899-9a01-b0bc84280e93{fill:#c9af81;}.e9ee1a48-3b4f-408f-9a53-17cbfa19a267{fill:url(#f3f15fc7-0f49-42fc-8780-fea0849c1ef0);}.b31131ce-9a60-4a3e-9e22-4c5d8687ad09{opacity:0.11;}.a68f4d05-7a07-452a-a034-d65cac6f5792{clip-path:url(#e15f3b65-3eac-4701-b6f9-415cf9ddee46);}.b975088f-1a4e-43a3-9328-a952e337a671,.e8c4fdd8-a525-44cb-9985-67aa937ff7ee{fill:#222221;}.e8c4fdd8-a525-44cb-9985-67aa937ff7ee{opacity:0.7;}.adf1e84a-2b0a-47ba-9fb5-d4328abfa3c3{fill:url(#b19d59bc-ae2d-4b2b-aa22-f3c4e7967a41);}.b0e857e6-a379-4da8-a97d-a1341cf769c9{opacity:0.5;}.b6bc5f24-7faf-45cc-8e3a-8df4c9e5737d{clip-path:url(#aa176589-064f-4ff6-8a02-59585867ecfa);}.a29266d3-82f6-4d6d-afcb-aaaca467c885{fill:#d16111;}.b93ab3cc-6c95-4eae-adae-fabf7c76a968{opacity:0.39;}.affc2970-4edd-4275-98f6-7dd6ac1042e1{fill:#ff5628;}.f51b7275-4ef1-43ef-8dfc-f5799bb64aa8{fill:#ff901e;}.ad89c22b-2ac7-4c4e-8cc9-ff56e22cbfae{fill:#ffbd11;}.eba16ff0-2fb4-485d-b322-b9f90d3f022d{fill:#ffe25f;}.ad998520-494c-4d48-b0fa-120644a79622{fill:#ff3153;}.ae392a77-640d-4a37-8631-8f0ba1b08bcf{fill:#c52745;}.aa954662-b112-4c46-bc0b-1a597d6eafaa{fill:#dcd5e2;}.a316f6f3-e149-4332-ac3e-e81c81a84228{fill:#e1dedc;}.e7d6902e-057e-4ae3-a0d8-43f1cd48c638{fill:#2f4261;}.b65e6991-a8c8-4e8f-8984-0254f2bad944{fill:#6ebbe9;}.b687e2be-b4c7-4269-8389-2d05c54e3ab9{fill:#a9e2ff;}.aea91092-661e-4da6-99dc-8b39b435541a{fill:#b5b0b6;}.e027f486-da1a-4599-949f-11dff068c576{fill:url(#b2a39f38-4409-4cc7-8b55-e7888a62a930);}.f24e0e2d-89a4-47cb-bd99-e49de318ee5d{clip-path:url(#f5995b86-9b1d-4443-903c-1a50eb6df439);}.acaf127c-8c9c-40c1-8dc0-1acef41dec80{fill:#ffd885;}.a77150c2-63a8-4454-a824-fada92dc1e70{fill:#d6f9ff;}.eabc7dfc-bc4c-42b4-b172-61dd97f1c867{fill:url(#a606db42-cbb0-4fd1-b0c3-cf75076dfaa5);}.bdb4f0be-04e3-4d64-9072-2095859199ca{opacity:0.59;}</style><linearGradient id="f5788905-3fd6-47a4-ab99-12da8cf804b0" x1="53.12" y1="291.37" x2="141.41" y2="291.37" gradientTransform="translate(74.26 -14.94) rotate(14.17)" gradientUnits="userSpaceOnUse"><stop offset="0.28" stop-color="#fcbe33"/><stop offset="0.96" stop-color="#fc8a33"/></linearGradient><clipPath id="a347a2d3-0989-4721-b7e1-2ea2702643f3" transform="translate(-19.56 -29.19)"><circle class="bef6cf58-4c4c-4acf-a49e-0c17cff6bab0" cx="97.26" cy="291.37" r="44.14" transform="translate(-68.35 32.66) rotate(-14.17)"/></clipPath><linearGradient id="f033eab0-f28f-4879-9fec-5334238716e8" x1="19.56" y1="290.45" x2="171.87" y2="290.45" gradientUnits="userSpaceOnUse"><stop offset="0" stop-color="#ffe1a4"/><stop offset="1" stop-color="#feb86f"/></linearGradient><linearGradient id="f3f15fc7-0f49-42fc-8780-fea0849c1ef0" x1="98.38" y1="120.4" x2="189.31" y2="120.4" gradientUnits="userSpaceOnUse"><stop offset="0" stop-color="#6f88a3"/><stop offset="0.99" stop-color="#49568b"/></linearGradient><clipPath id="e15f3b65-3eac-4701-b6f9-415cf9ddee46" transform="translate(-19.56 -29.19)"><circle class="bef6cf58-4c4c-4acf-a49e-0c17cff6bab0" cx="163.4" cy="149.59" r="45.47"/></clipPath><linearGradient id="b19d59bc-ae2d-4b2b-aa22-f3c4e7967a41" x1="143.78" y1="496.49" x2="213.39" y2="496.49" gradientTransform="translate(118.85 -27.75) rotate(13.28)" gradientUnits="userSpaceOnUse"><stop offset="0" stop-color="#ffa000"/><stop offset="1" stop-color="#ff3d00"/></linearGradient><clipPath id="aa176589-064f-4ff6-8a02-59585867ecfa" transform="translate(-19.56 -29.19)"><circle class="bef6cf58-4c4c-4acf-a49e-0c17cff6bab0" cx="178.58" cy="496.49" r="34.8" transform="translate(-109.29 54.31) rotate(-13.28)"/></clipPath><linearGradient id="b2a39f38-4409-4cc7-8b55-e7888a62a930" x1="18.91" y1="17.67" x2="54.51" y2="60.91" gradientUnits="userSpaceOnUse"><stop offset="0" stop-color="#7fc8ef"/><stop offset="0.89" stop-color="#5895ff"/></linearGradient><clipPath id="f5995b86-9b1d-4443-903c-1a50eb6df439" transform="translate(-19.56 -29.19)"><circle class="bef6cf58-4c4c-4acf-a49e-0c17cff6bab0" cx="54.85" cy="66.74" r="28.31"/></clipPath><linearGradient id="a606db42-cbb0-4fd1-b0c3-cf75076dfaa5" x1="25.45" y1="35.08" x2="37.23" y2="35.08" gradientUnits="userSpaceOnUse"><stop offset="0" stop-color="#fdfff0"/><stop offset="1" stop-color="#fdffcc"/></linearGradient></defs><g class="a33d8863-79e3-49bf-b35c-a8c84bc2bcad"><g id="abc4b779-ffbe-4aba-9e65-ab99dc9889b3" data-name="Layer 4"><circle class="b6f713a0-95f0-48bb-8997-546f3bfb6402" cx="97.26" cy="291.37" r="44.14" transform="translate(-87.91 3.47) rotate(-14.17)"/><g class="f6a06aaf-3b7e-4cbf-a003-b2f9c76191f8"><g class="f0a1c0a7-c09b-4de4-899c-b0cb267ddec4"><path class="f031c23a-a335-488a-b091-1a58f00ff55a" d="M82.55,243.39c3.22,0,3.23-5,0-5s-3.22,5,0,5Z" transform="translate(-19.56 -29.19)"/><path class="f031c23a-a335-488a-b091-1a58f00ff55a" d="M93,245.82c5,.07,10-.79,15-1a11.38,11.38,0,0,1,4.44.47c2.61,1,3.84,3.51,5.63,5.42,5,5.37,14.19,5.75,22,7.36A52.55,52.55,0,0,1,163,268.81c-6,2.8-13.47,1.09-19.53-1.57S131.7,261,125,259.89c-4.44-.72-9.14-.27-13.38-1.61-3.19-1-5.86-3-9-4.11-8.75-3.22-19.43.31-28.11-3-1.68-.64-3.27-1.54-5.1-1.71s-4,.75-4.11,2.31A3,3,0,0,0,66.52,254c4.89,4.28,13.66.62,20.2,2.74,2.34.76,4.3,2.25,6.67,2.92,4,1.14,8.62-.22,12.56,1.1,2,.66,3.59,1.94,5.39,2.92,5.2,2.82,11.71,3,17.68,4.32,11.57,2.57,21.56,9.64,33.46,10.68-6.43,3.76-15.21,2.29-22.36-.34s-14.1-6.31-21.88-6.64c-4.84-.21-9.7.91-14.52.45-5-.49-9.58-2.64-14.19-4.41A95,95,0,0,0,57,261.62a147.29,147.29,0,0,0,17,5.74l23.3,6.85c5.76,1.7,11.6,3.4,17.67,3.79,4.11.26,8.27-.09,12.36.33A30.69,30.69,0,0,1,139.05,282c4.56,2.54,8.32,6.33,13.53,7.7s11.44.34,15.28,3.55c-9.38,2.12-19.6,3.5-28.58.37-4.6-1.6-8.59-4.3-13.2-5.86s-9.68-1.93-14.62-2.5c-8.22-.95-16.32-2.51-24.41-4.08-10.21-2-21.09-4.29-28.12-10.91-1.63-1.54-4.46-3.36-6-1.78a2.4,2.4,0,0,0-.61,1.59c-.14,2.74,2.09,5.22,4.77,6.72s5.82,2.28,8.77,3.36c5.75,2.09,10.83,5.37,16.62,7.38,11.07,3.83,23.92,2.77,34.73,7.11,5.22,2.09,9.8,5.39,15.34,6.74,8.87,2.16,19.47-.84,26.93,3.8-4.39,2.81-10.23,3.13-15.7,3.34-8.52.33-17.59.55-24.95-3.13-3.76-1.87-6.9-4.7-11-6-5.11-1.65-10.81-.68-16.25-1.13-6.2-.52-12-2.91-18.12-3.8-3.72-.54-7.61-.55-11.07-1.83-6.46-2.37-10.38-8.76-17.23-10.11,3,8.82,7.67,18.43,17.62,21.84,9.2,3.15,19.86-.11,29.44,2,4.57,1,8.63,3.2,12.86,5,9.65,4.06,20.29,6,30.8,8a97.25,97.25,0,0,0,13.28,1.82c-5.7,3-12.91,2.61-19.59,2.11-6.87-.51-13.82-1-20.34-3-4.93-1.44-9.53-3.66-14.53-4.93-10.85-2.75-22.79-.86-33.53-3.89,4,5.08,12.74,4.64,19.42,6.86,2.75.91,5.23,2.34,7.93,3.37a50.06,50.06,0,0,0,7.34,2,182.92,182.92,0,0,0,33.06,4,31.63,31.63,0,0,1-19.86,7.72c-10.87.38-20.91-4.41-31-7.92-5.8-2-11.82-3.67-17.24-6.35A60.73,60.73,0,0,1,44.67,309c-8.6-8.75-15.43-19.2-16.81-30.56a24.88,24.88,0,0,1,.85-10.91c2.5-7.45,9.32-13.17,15.88-18.53,5.11-4.17,10.74-8.57,17.76-9.27,6-.61,11.11.4,16.66,2.22C83.57,243.43,88,245.76,93,245.82Z" transform="translate(-19.56 -29.19)"/></g></g><g class="f3788b8d-b76e-42c8-acc4-78f3bffae783"><path class="eec014fc-8c41-43ff-8a98-116d6ff80c50" d="M81.33,324.26a44.16,44.16,0,0,1-7.08-70.55A44.14,44.14,0,1,0,127,324,44.12,44.12,0,0,1,81.33,324.26Z" transform="translate(-19.56 -29.19)"/></g><g class="a756a618-5f94-421c-a259-85cf00b5aa19"><path class="ba8e5ed1-c92a-4a0f-b48b-f81595d22d94" d="M119.89,253.47a44,44,0,0,0-36.46-4,44.13,44.13,0,0,0,43.66,74.43,44.14,44.14,0,0,0-7.2-70.43Z" transform="translate(-19.56 -29.19)"/></g><path class="aba43d05-8b42-4db4-bf03-8e43e0b6ede8" d="M171.38,320.16c3.18-8.1-9.22-21.14-30.28-33.8a44.56,44.56,0,0,1,.22,7.4c6.68,5.71,10,11,8.52,14.75-3.33,8.49-29.78,6.05-59.07-5.46s-50.34-27.72-47-36.21c1.7-4.33,9.43-5.8,20.45-4.7a44.4,44.4,0,0,1,4.89-4.72c-26-6-45.7-5.23-49,3.31-4.76,12.11,25.25,35.24,67,51.66S166.62,332.28,171.38,320.16Z" transform="translate(-19.56 -29.19)"/><g class="f6a06aaf-3b7e-4cbf-a003-b2f9c76191f8"><path class="a7987ee2-d385-4899-9a01-b0bc84280e93" d="M149.87,308.4a5.3,5.3,0,0,0,.94-1.51c1.47-3.76-1.85-9-8.53-14.75a43,43,0,0,0-.06-5.08l-1.12-.7a44.56,44.56,0,0,1,.22,7.4C147.94,299.41,151.25,304.64,149.87,308.4Z" transform="translate(-19.56 -29.19)"/><path class="a7987ee2-d385-4899-9a01-b0bc84280e93" d="M44.73,265.23s0,.07,0,.1c2.79-3.15,9.89-4.15,19.51-3.19a44.4,44.4,0,0,1,4.89-4.72l-.67-.14a41.64,41.64,0,0,0-3.26,3.25C54.16,259.43,46.43,260.9,44.73,265.23Z" transform="translate(-19.56 -29.19)"/><path class="a7987ee2-d385-4899-9a01-b0bc84280e93" d="M88.06,310.77c-41.78-16.41-71.8-39.54-67-51.65,0-.06.06-.1.08-.15a7.29,7.29,0,0,0-1,1.76c-4.76,12.11,25.25,35.24,67,51.66,41.58,16.33,79.14,19.85,84.19,7.94C163.56,330.26,127.64,326.32,88.06,310.77Z" transform="translate(-19.56 -29.19)"/></g><circle class="e9ee1a48-3b4f-408f-9a53-17cbfa19a267" cx="143.84" cy="120.4" r="45.47"/><g class="b31131ce-9a60-4a3e-9e22-4c5d8687ad09"><g class="a68f4d05-7a07-452a-a034-d65cac6f5792"><path class="e8c4fdd8-a525-44cb-9985-67aa937ff7ee" d="M125.43,131.11c3,1.36,5.8,3.58,9.36,4.34a43.25,43.25,0,0,0,13.67.48c8.63-.93,17-3.6,25.55-4.92,4.74-.72,9.6-1,14.09-2.74,5-1.86,9.14-5.28,13.84-7.71s10.49-3.81,15.19-1.38c-11,3.3-19,12.62-29.1,18.07-5.61,3-11.82,4.84-17.51,7.74-3.82,1.95-7.47,4.42-11.66,5.31-3.7.78-7.52.28-11.29.31a40.56,40.56,0,0,0-25.88,9.68l27.7-4a51.61,51.61,0,0,1,10.59-.78c2.83.19,5.65.84,8.49.67,10.25-.61,17.85-11.57,28.12-11.54.38,2.94-2.05,5.42-4.28,7.39-6.45,5.68-13.09,11.48-21.13,14.52-12.59,4.74-26.68,2-40,4.21-7.32,1.2-15.8,3.57-21.41-1.28-8.52-7.37-3-20.7.33-29,2.27-5.63,6.84-12.12,13.69-10A14.65,14.65,0,0,1,125.43,131.11Z" transform="translate(-19.56 -29.19)"/><path class="b975088f-1a4e-43a3-9328-a952e337a671" d="M128.74,106.56c-5.89,1.75-12,4.08-18.16,4.63-5.64.51-10.47.81-15.83,3.31-.8.37-1.69.9-1.82,1.78s.69,1.74,1.52,2.21c4.86,2.83,10.94.71,16.52,0,4.78-.61,9.62-.11,14.43-.35,11.88-.58,23-5.58,34.37-9.08a10.25,10.25,0,0,1,5.59-.59c1.83.49,3.42,2.39,2.87,4.21a5.14,5.14,0,0,1-2.36,2.56c-15.8,10.49-35.91,12.39-54.79,10.54-3-.29-6.79-.16-7.81,2.63a67.72,67.72,0,0,0,50.83-.22c4.79-2,10-4.59,14.89-2.9.13,2.24-2.56,3.41-4.73,4a141.1,141.1,0,0,0-29.8,11.63c2.08,3.4,7.1,2.94,11,2,15.56-3.94,31.35-9.6,42.71-21,2.41-2.41,4.75-5.6,4-8.94-.63-3-3.47-5-6.08-6.59q-7.91-5-15.83-9.91c-8.43-5.27-9.75-2.64-17.13,1.44S136.82,104.15,128.74,106.56Z" transform="translate(-19.56 -29.19)"/><path class="b975088f-1a4e-43a3-9328-a952e337a671" d="M213.89,134.77c-.28-1.71-2-4.83-4.16-4.05a5.48,5.48,0,0,0-2.15,1.74c-4,4.5-8.86,7.26-14.38,9.7-3.83,0-12,4.34-15.45,6.15-3.89,2-7.38,4.63-11.33,6.7a16.47,16.47,0,0,0-3.24,2c-.89.77-1.62,1.73-2.56,2.44-2.62,2-6.26,1.67-9.52,1.26a1.38,1.38,0,0,0,.25,1.93,3.75,3.75,0,0,0,2,.69,35.94,35.94,0,0,0,19.31-3.28,139.28,139.28,0,0,1,25.67-8.83,59,59,0,0,1-23.57,19c-9.45,4.18-20.12,3.8-29.85.67a23.3,23.3,0,0,0-3.89-1.12c-1.2-.16-2.42,0-3.61-.2-3.4-.46-6.12-3.13-9.44-4-.12,3.43,3.1,6,6.16,7.5a15.07,15.07,0,0,0,5.34,1.72,15.29,15.29,0,0,1,3.52.33c3.41,1.12,5.27,4.26,9,5.2,5.19,1.31,11.19.73,16.4-.13a69.62,69.62,0,0,0,26.18-10.06,22.07,22.07,0,0,1-17.43,15.63c-2.1.33-4.24.36-6.32.8-3.77.81-7.2,3-11,3.42-4.72.52-10.06-1.55-13.94,1.19a47.22,47.22,0,0,0,21.15,6c17.68.73,35.3-9.42,43.81-24.94a2.56,2.56,0,0,0,.43-1.59,2.09,2.09,0,0,0-1.11-1.28c-3.64-2.08-9.85-.59-11-4.61-.58-2,.82-4.09,2.61-5.14s3.91-1.33,5.9-1.87c4.64-1.25,9-4.17,11-8.54.7-1.51,1.05-3.43,0-4.76-.75-1-2.07-1.39-3-2.25C213.83,140.43,214.31,137.36,213.89,134.77Z" transform="translate(-19.56 -29.19)"/></g></g><g class="f3788b8d-b76e-42c8-acc4-78f3bffae783"><path class="eec014fc-8c41-43ff-8a98-116d6ff80c50" d="M170.43,189a45.43,45.43,0,0,1-32.83-76.86A45.44,45.44,0,1,0,196.24,181,45.22,45.22,0,0,1,170.43,189Z" transform="translate(-19.56 -29.19)"/></g><g class="a756a618-5f94-421c-a259-85cf00b5aa19"><path class="ba8e5ed1-c92a-4a0f-b48b-f81595d22d94" d="M163.4,104.12a45.25,45.25,0,0,0-18.62,4,45.43,45.43,0,0,0,53.5,70.6,45.46,45.46,0,0,0-34.88-74.62Z" transform="translate(-19.56 -29.19)"/></g><circle class="adf1e84a-2b0a-47ba-9fb5-d4328abfa3c3" cx="178.58" cy="496.49" r="34.8" transform="translate(-128.85 25.12) rotate(-13.28)"/><g class="b0e857e6-a379-4da8-a97d-a1341cf769c9"><g class="b6bc5f24-7faf-45cc-8e3a-8df4c9e5737d"><path class="a29266d3-82f6-4d6d-afcb-aaaca467c885" d="M151.82,473.8c-.59,2.55-.29,6,2.21,6.75a5.15,5.15,0,0,0,4.07-1c3.25-2,5.86-4.95,9.15-6.91s7.82-2.71,10.76-.25c3.25,2.73,2.88,7.92,1.13,11.8-1.33,3-3.31,5.73-3.76,8.95a9.16,9.16,0,0,0,2.25,7.39,8,8,0,0,0,7.24,2.43,12.6,12.6,0,0,0,5.27-2.89,45.45,45.45,0,0,0,8.13-8.61c4.23-5.84,7.84-13.28,14.84-15.06a12.69,12.69,0,0,1,12.49,4.23,14.6,14.6,0,0,1,2.63,13.1,8.07,8.07,0,0,1-2.13,3.83,9.87,9.87,0,0,1-4.32,2c-5.81,1.52-11.91,2.28-17.31,4.91-2,1-4,2.41-4.6,4.56s.44,4.2,1.42,6.1,2.15,4,4,5.18c3.59,2.21,8.21.43,12-1.38,7-3.33,4.9-6.66,11.91-10a8,8,0,0,0,3.64-2.67,7.85,7.85,0,0,0,.86-3.65,53.1,53.1,0,0,0-.83-15.62,24.73,24.73,0,0,0-7.66-13.4c-4.43-3.75-1.21-5.32-7-6s-11.61-.64-17.33-1.64a14.63,14.63,0,0,1-6-2.16,28.14,28.14,0,0,1-4-4.09C178.52,446.33,155.33,458.5,151.82,473.8Z" transform="translate(-19.56 -29.19)"/><path class="a29266d3-82f6-4d6d-afcb-aaaca467c885" d="M203.43,493.24a3.1,3.1,0,0,0,2.71,2.45,4.18,4.18,0,0,0,1.41,0c2.67-.45,6.22-2,7.8-4.25a5.28,5.28,0,0,0,0-6.18,2.79,2.79,0,0,0-1.61-1c-1.25-.23-2.42.7-3.17,1.74a13.22,13.22,0,0,1-2.31,3,13.8,13.8,0,0,1-2.94,1.36A2.78,2.78,0,0,0,203.43,493.24Z" transform="translate(-19.56 -29.19)"/><path class="a29266d3-82f6-4d6d-afcb-aaaca467c885" d="M158.4,490.16a10.57,10.57,0,0,0-1.2,6.58c.23,1.09.74,2.11.94,3.21.28,1.62,0,3.56,1.18,4.67a2.88,2.88,0,0,0,3,.39,5.35,5.35,0,0,0,2.33-2,9.91,9.91,0,0,0,1.72-6.2c-.1-1.68-.63-3.4-.14-5s2.14-3,3.46-4.25c2.6-2.54,4.44-9.75-1.43-8.33C163.94,480.2,160.11,486.52,158.4,490.16Z" transform="translate(-19.56 -29.19)"/><path class="a29266d3-82f6-4d6d-afcb-aaaca467c885" d="M149.69,519.43c1.66-2.95,3.71-6.33,2.43-9.46-.59-1.46-1.84-2.58-2.37-4.07-1.1-3.08,1.23-6.25,1.75-9.49a13,13,0,0,0-1.6-7.71c-3.07-6.13-10.25-8.65-15.54-3.43-5.79,5.71-5.24,12.89-2.78,20,1.15,3.32,2.31,6.74,2,10.24-.22,3.08-1.54,5.94-2.57,8.85-1.74,4.87,5.31,4.42,10.25,8.11,4.06,3,43.8,2.43,49.29,0,5-2.24,10.63.57,10.34-.82-1.07-5.15-1.39-9-8.15-10.33-4-.81-8.26,3.28-11.95,1.47-1.8-.88-2.7-2.87-3.66-4.63-2.36-4.32-7.7-7.68-12.72-5.63-7.23,3-3.6,10.27-1.88,15.42,1.55,4.66.59,4.33-3.84,6.46Z" transform="translate(-19.56 -29.19)"/><path class="a29266d3-82f6-4d6d-afcb-aaaca467c885" d="M192.91,511.94c.18-3.34-6.61-4.28-8.75-3-4.53,2.65-2.26,7.5,2.4,7.45a8.18,8.18,0,0,0,4.1-1A4.4,4.4,0,0,0,192.91,511.94Z" transform="translate(-19.56 -29.19)"/></g></g><g class="f3788b8d-b76e-42c8-acc4-78f3bffae783"><path class="eec014fc-8c41-43ff-8a98-116d6ff80c50" d="M183.12,527A34.76,34.76,0,0,1,157,469.21a34.78,34.78,0,1,0,47.69,50.23A34.62,34.62,0,0,1,183.12,527Z" transform="translate(-19.56 -29.19)"/></g><g class="b93ab3cc-6c95-4eae-adae-fabf7c76a968"><path class="ba8e5ed1-c92a-4a0f-b48b-f81595d22d94" d="M178.58,461.69a34.68,34.68,0,0,0-15.83,3.83,34.78,34.78,0,0,0,42.48,53.34,34.79,34.79,0,0,0-26.65-57.17Z" transform="translate(-19.56 -29.19)"/></g><path class="affc2970-4edd-4275-98f6-7dd6ac1042e1" d="M106.94,403.34c4.44-4.45,24.85-8.76,24.85-8.76S127.48,415,123,419.44s-13.75,6.54-18.2,2.09S102.49,407.78,106.94,403.34Z" transform="translate(-19.56 -29.19)"/><path class="f51b7275-4ef1-43ef-8dfc-f5799bb64aa8" d="M107.41,406.55c3.43-3.42,19.16-6.74,19.16-6.74s-3.32,15.72-6.75,19.15-10.6,5-14,1.62S104,410,107.41,406.55Z" transform="translate(-19.56 -29.19)"/><path class="ad89c22b-2ac7-4c4e-8cc9-ff56e22cbfae" d="M107.15,409.55c2.67-2.66,14.93-5.25,14.93-5.25s-2.59,12.25-5.26,14.92-8.25,3.93-10.92,1.26S104.49,412.22,107.15,409.55Z" transform="translate(-19.56 -29.19)"/><path class="eba16ff0-2fb4-485d-b322-b9f90d3f022d" d="M107.43,412.63c1.74-1.74,9.75-3.43,9.75-3.43s-1.69,8-3.44,9.74-5.39,2.57-7.13.83S105.69,414.37,107.43,412.63Z" transform="translate(-19.56 -29.19)"/><path class="ad998520-494c-4d48-b0fa-120644a79622" d="M98.74,450.52c26.1,0,24-8.39,30.65-30.64L115,425.38Z" transform="translate(-19.56 -29.19)"/><path class="ad998520-494c-4d48-b0fa-120644a79622" d="M75.85,427.64c0-26.1,8.4-24,30.65-30.65L101,411.37Z" transform="translate(-19.56 -29.19)"/><path class="ae392a77-640d-4a37-8631-8f0ba1b08bcf" d="M106.5,397c-7,2.09-12.58,3.32-17,4.82,3.4,2.73,6.46,8.39-2.8,18.8L101,411.37Z" transform="translate(-19.56 -29.19)"/><path class="ae392a77-640d-4a37-8631-8f0ba1b08bcf" d="M129.39,419.88,115,425.38,99,450.13c10.43-12.85,18.84-23.66,26.83-17.36C126.84,429.12,127.89,424.85,129.39,419.88Z" transform="translate(-19.56 -29.19)"/><path class="ba8e5ed1-c92a-4a0f-b48b-f81595d22d94" d="M59.81,441.29c-13.16,14.09-12,37.25-12,37.25s23.16,1.17,37.25-12S115,425.38,115,425.38l-14-14S73,427.2,59.81,441.29Z" transform="translate(-19.56 -29.19)"/><path class="aa954662-b112-4c46-bc0b-1a597d6eafaa" d="M61.28,477.46c7.53-1.36,16.79-4.36,23.8-10.91C99.17,453.39,115,425.38,115,425.38l-14-14s-1.62.91-4.26,2.5C113.21,425.08,107,448.51,61.28,477.46Z" transform="translate(-19.56 -29.19)"/><path class="ad998520-494c-4d48-b0fa-120644a79622" d="M50.47,458.47a67.09,67.09,0,0,0-2.64,20.07,67,67,0,0,0,20.06-2.64Z" transform="translate(-19.56 -29.19)"/><path class="ae392a77-640d-4a37-8631-8f0ba1b08bcf" d="M67.89,475.9,50.47,458.47c-.09.28-.16.56-.24.83,7.38,6.13,16.76,16.68-2.4,19.24A67,67,0,0,0,67.89,475.9Z" transform="translate(-19.56 -29.19)"/><circle class="a316f6f3-e149-4332-ac3e-e81c81a84228" cx="73.4" cy="453.76" r="10.47" transform="translate(-318.92 155.61) rotate(-45)"/><circle class="ae392a77-640d-4a37-8631-8f0ba1b08bcf" cx="53.84" cy="424.57" r="9.76"/><circle class="ad998520-494c-4d48-b0fa-120644a79622" cx="73.4" cy="453.76" r="9.14" transform="translate(-318.92 155.61) rotate(-45)"/><circle class="e7d6902e-057e-4ae3-a0d8-43f1cd48c638" cx="73.4" cy="453.76" r="7.73" transform="translate(-318.92 155.61) rotate(-45)"/><circle class="b65e6991-a8c8-4e8f-8984-0254f2bad944" cx="73.4" cy="453.76" r="7.25" transform="translate(-318.92 155.61) rotate(-45)"/><path class="b687e2be-b4c7-4269-8389-2d05c54e3ab9" d="M80.64,453.76A7.24,7.24,0,0,0,77.75,448L67.61,458.11A7.25,7.25,0,0,0,73.4,461h.26l7-7C80.63,453.93,80.64,453.85,80.64,453.76Z" transform="translate(-19.56 -29.19)"/><path class="b687e2be-b4c7-4269-8389-2d05c54e3ab9" d="M66.7,456.5l9.45-9.45a7.75,7.75,0,0,0-1.85-.48l-8.09,8.08A7.11,7.11,0,0,0,66.7,456.5Z" transform="translate(-19.56 -29.19)"/><circle class="aea91092-661e-4da6-99dc-8b39b435541a" cx="48.57" cy="445.24" r="0.42"/><path class="aea91092-661e-4da6-99dc-8b39b435541a" d="M65.6,471.9a.42.42,0,1,1,0,.59A.42.42,0,0,1,65.6,471.9Z" transform="translate(-19.56 -29.19)"/><circle class="aea91092-661e-4da6-99dc-8b39b435541a" cx="44.1" cy="440.77" r="0.42"/><path class="aea91092-661e-4da6-99dc-8b39b435541a" d="M61.13,467.43a.42.42,0,1,1,0,.59A.42.42,0,0,1,61.13,467.43Z" transform="translate(-19.56 -29.19)"/><path class="aea91092-661e-4da6-99dc-8b39b435541a" d="M58.9,465.2a.41.41,0,1,1,0,.58A.39.39,0,0,1,58.9,465.2Z" transform="translate(-19.56 -29.19)"/><circle class="aea91092-661e-4da6-99dc-8b39b435541a" cx="37.39" cy="434.07" r="0.42"/><path class="aea91092-661e-4da6-99dc-8b39b435541a" d="M54.43,460.73a.41.41,0,1,1,0,.58A.41.41,0,0,1,54.43,460.73Z" transform="translate(-19.56 -29.19)"/><circle class="aea91092-661e-4da6-99dc-8b39b435541a" cx="32.92" cy="429.6" r="0.42"/><path class="aea91092-661e-4da6-99dc-8b39b435541a" d="M113,425.07a.45.45,0,0,1,.64,0,.46.46,0,0,1,0,.65.45.45,0,0,1-.64,0A.46.46,0,0,1,113,425.07Z" transform="translate(-19.56 -29.19)"/><path class="aea91092-661e-4da6-99dc-8b39b435541a" d="M110.49,422.6a.46.46,0,1,1,0,.65A.46.46,0,0,1,110.49,422.6Z" transform="translate(-19.56 -29.19)"/><path class="aea91092-661e-4da6-99dc-8b39b435541a" d="M108,420.13a.48.48,0,0,1,.65,0,.46.46,0,1,1-.65,0Z" transform="translate(-19.56 -29.19)"/><path class="aea91092-661e-4da6-99dc-8b39b435541a" d="M105.55,417.67a.46.46,0,1,1,0,.65A.46.46,0,0,1,105.55,417.67Z" transform="translate(-19.56 -29.19)"/><path class="aea91092-661e-4da6-99dc-8b39b435541a" d="M103.09,415.2a.45.45,0,0,1,.64,0,.46.46,0,0,1,0,.65.45.45,0,0,1-.64,0A.46.46,0,0,1,103.09,415.2Z" transform="translate(-19.56 -29.19)"/><path class="aea91092-661e-4da6-99dc-8b39b435541a" d="M100.62,412.73a.46.46,0,1,1,0,.65A.46.46,0,0,1,100.62,412.73Z" transform="translate(-19.56 -29.19)"/><path class="ad998520-494c-4d48-b0fa-120644a79622" d="M86.47,439.9l31.47-31.47A179.59,179.59,0,0,1,99.53,430C88.45,441.11,86.47,439.9,86.47,439.9Z" transform="translate(-19.56 -29.19)"/><path class="ae392a77-640d-4a37-8631-8f0ba1b08bcf" d="M86.47,439.9l31.47-31.47a179.39,179.39,0,0,0-21.6,18.4C85.26,437.92,86.47,439.9,86.47,439.9Z" transform="translate(-19.56 -29.19)"/><path class="ba8e5ed1-c92a-4a0f-b48b-f81595d22d94" d="M48.68,477.22s-.4-6,2-16.58C50.64,460.64,50.08,467.67,48.68,477.22Z" transform="translate(-19.56 -29.19)"/><circle class="e027f486-da1a-4599-949f-11dff068c576" cx="35.29" cy="37.55" r="28.31"/><g class="f6a06aaf-3b7e-4cbf-a003-b2f9c76191f8"><g class="f24e0e2d-89a4-47cb-bd99-e49de318ee5d"><path class="acaf127c-8c9c-40c1-8dc0-1acef41dec80" d="M44.41,66l.14.1a4.38,4.38,0,0,0,2.23.53,2.24,2.24,0,0,0,1.45-.24,1.94,1.94,0,0,0,.48-2,8.07,8.07,0,0,1-.42-2.1,4.9,4.9,0,0,1,1.64-2.78,4.72,4.72,0,0,0,1.35-2.79c0-.87-.76-1.9-.48-2.72.17-.49.78-.71,1.12-1.11.71-.81.11-2.1-.87-2.63a8.73,8.73,0,0,0-3.28-.66,2.93,2.93,0,0,1-2.28-1.07,5.11,5.11,0,0,0-.43-.84c-.58-.68-1.79-.3-2.48.28-2.19,1.85-5.48,2.62-7.51-.08a2.61,2.61,0,0,0-1-1c-.63-.24-1.29.21-1.82.63-3,2.4-6,3.39-7,7.59A9.5,9.5,0,0,0,25.36,60a19,19,0,0,1,.85,2.72c.13.91,0,1.85.2,2.75s1,1.76,1.89,1.55c1.25-.29,1.53-2.08,2.6-2.7.84-.5,3.16-.88,3.78.12a3.17,3.17,0,0,1,.14,1.74,3.07,3.07,0,0,0,1.5,2.64c.32.18.7.33.86.67a1.31,1.31,0,0,1-.18,1.2c-.73,1.31-2.15,1.75-2.89,3-1.22,2-.24,4.61,1.21,6.41s3.35,3.26,4.35,5.36A21.22,21.22,0,0,0,41,88.57c.64.93,1.89,1.61,2.88,1.08,1.37-.72,1.06-2.74,1.19-4.31.27-3.39,3.46-6,3.59-9.41.06-1.33-.56-2.84-1.82-3.19-.6-.16-1.37-.11-1.68-.66-.2-.34-.12-.77-.22-1.16-.28-1.09-3-1.8-4-1.93-.49,0-1.06-.12-1.32-.55-.16-.25-.16-.59-.33-.83-.31-.46-1.05-.43-1.34-.9a1.28,1.28,0,0,1-.14-.75c0-1.33.87-2.52,2.28-2a6.21,6.21,0,0,0,1.39.53c.34,0,.69,0,1,0C43.33,64.73,43.79,65.5,44.41,66Z" transform="translate(-19.56 -29.19)"/><path class="acaf127c-8c9c-40c1-8dc0-1acef41dec80" d="M75.72,46.67a9,9,0,0,0-2.69-.1,9.93,9.93,0,0,1-1.54.16,14.27,14.27,0,0,1-1.43-.25c-2.47-.44-3.3.76-5,1.92s-3.53.34-5.19,1.15a3.22,3.22,0,0,0-1.58,1.61c-.39,1,.19,1.73-.18,2.63a4.19,4.19,0,0,0-.53,1.48,2.21,2.21,0,0,1,0,.68,1.05,1.05,0,0,1-.41.48c-1,.74-2.28,1.45-2.31,2.67,0,.53.23,1,.26,1.56.06.88-.48,1.82-.09,2.61a1.91,1.91,0,0,0,1.5.91,7.94,7.94,0,0,0,3.19-.44c.93-.26,2-.65,2.3-1.57s-.21-1.88.3-2.61c.68-1,3.51-1.44,3.42.38,0,.37-.19.76,0,1.1a1.77,1.77,0,0,0,.47.55A2,2,0,0,1,66.43,64c-1.38,2.28-4.82,2.49-6,5.2-1.46,3.45-.43,10.36,3,12.5a1.44,1.44,0,0,1,.51.4,1.37,1.37,0,0,1,.11,1c-.21,1.41-.43,2.82-.64,4.23-.1.67-.14,1.5.42,1.89a1.83,1.83,0,0,0,1.64-.06,17.19,17.19,0,0,0,7.33-4.86c2.1-2.28,2.24-4.18,3.54-6.83.47-1,1.42-1.61,1.85-2.58a5.55,5.55,0,0,0,0-3.28c-.16-.9-.33-1.79-.49-2.68A2.84,2.84,0,0,0,76.9,67c-.52-.39-1.32-.44-1.6-1-.11-.23-.11-.5-.22-.72-.21-.4-.69-.53-1.09-.72-.88-.44-.63-1.3-.36-2A2.69,2.69,0,0,1,76,60.62c1.85,0,2.76,2.27,4.34,3.22a6.67,6.67,0,0,0,2.41.72C85.91,65.09,90.05,66,93,64a2.38,2.38,0,0,0,.7-2.84c-.92-2.69-3.71-4.14-5-6.6-.71-1.35-.68-2.06-2-2.93a51.06,51.06,0,0,0-5-2.57A22.73,22.73,0,0,0,75.72,46.67Z" transform="translate(-19.56 -29.19)"/></g></g><g class="f3788b8d-b76e-42c8-acc4-78f3bffae783"><path class="eec014fc-8c41-43ff-8a98-116d6ff80c50" d="M58.66,92.18A28.28,28.28,0,0,1,39.84,42.77,28.29,28.29,0,1,0,73.67,87.85,28.15,28.15,0,0,1,58.66,92.18Z" transform="translate(-19.56 -29.19)"/></g><g class="bc139b2d-f58d-4326-b0f4-f5d757786bdd"><path class="ba8e5ed1-c92a-4a0f-b48b-f81595d22d94" d="M54.85,38.43a28.27,28.27,0,0,0-8.33,1.25,26,26,0,1,0,34,38.88,28.27,28.27,0,0,0-25.7-40.13Z" transform="translate(-19.56 -29.19)"/></g><path class="a77150c2-63a8-4454-a824-fada92dc1e70" d="M37.23,35.08A5.89,5.89,0,1,0,31.34,41,5.89,5.89,0,0,0,37.23,35.08Z" transform="translate(-19.56 -29.19)"/><path class="eabc7dfc-bc4c-42b4-b172-61dd97f1c867" d="M37.23,35.08A5.89,5.89,0,1,0,31.34,41,5.89,5.89,0,0,0,37.23,35.08Z" transform="translate(-19.56 -29.19)"/><path class="bdb4f0be-04e3-4d64-9072-2095859199ca" d="M31.34,29.19a5.86,5.86,0,0,0-3.05.86A5.88,5.88,0,0,0,36,38.63a5.88,5.88,0,0,0-4.69-9.44Z" transform="translate(-19.56 -29.19)"/><path class="a62d05a9-b8da-427b-8a26-00cf820fa715" d="M32,40.44a5.88,5.88,0,0,1-3.9-10.29,5.89,5.89,0,1,0,7.12,9.33A5.83,5.83,0,0,1,32,40.44Z" transform="translate(-19.56 -29.19)"/></g></g></svg>