<svg id="e9451d77-dac7-4618-8edd-86475c3c20f5" data-name="OBJECTS" xmlns="http://www.w3.org/2000/svg" viewBox="0 0 242.42 404.03"><defs><style>.bfdd35e5-9674-4324-a94b-555498ef874c{fill:#cac9ca;}.a08253b3-381c-4466-823f-577995ab7494,.a2ad3cae-b925-4088-9170-4ba81d43a72b,.a46cea19-2483-4f64-843c-a03ef3fdfe20,.a4bb778d-4386-4395-9f6b-c11aead37f4c,.a4e4305b-106c-427e-bfd7-66fdae898802,.a69af799-e107-43d8-a957-9484ea218261,.a729cb8d-a39b-481a-a7d1-8e71a9d59a31,.a7dc8a6c-2fbc-459d-afc5-318d12725d9b,.a82352f2-f7a8-4288-9410-4212d89654aa,.a90a19f2-8e72-40a2-a339-3b94f87ac776,.ab601802-14b1-467b-9429-c9a44d3b900d,.af190f8e-578a-461b-9699-123396f299f0,.b679eecd-1c21-4e4e-9aa3-781581505ec8,.b6c2f658-e678-422f-95d1-fbf707518a9d,.b8384e57-03a7-46a3-99ee-724348e728fc,.bd5dbabe-78b3-4c75-991c-70c9d20c174e,.be42a014-be6e-4d43-8dad-2b6cd471f3bc,.bfa9a990-5320-45a0-b35a-feb188436b7b,.bfdd35e5-9674-4324-a94b-555498ef874c,.e429a857-d97b-4f27-ab08-4bf46b66d4a6,.e4cfe357-0c9c-4d53-8ef0-1faf31db33fe,.f2ad08f3-eb93-46a8-8086-aaefa6203a94,.f2c47898-a605-4ef9-9b1a-7805169d3585,.f78001f1-ec3e-4343-aaae-a53b9799cc24,.f83c9236-9891-4619-96e9-20611c2eb4eb,.fc20a28b-dee4-43aa-8696-cf9021b64312{fill-rule:evenodd;}.b8384e57-03a7-46a3-99ee-724348e728fc{fill:#949290;}.a729cb8d-a39b-481a-a7d1-8e71a9d59a31,.b68edc6d-4fb2-4a7e-83f0-09a9c6ebb581{fill:#f0eeef;}.bfa9a990-5320-45a0-b35a-feb188436b7b{fill:#e3dfde;}.a69af799-e107-43d8-a957-9484ea218261{fill:#a09e9e;}.e4cfe357-0c9c-4d53-8ef0-1faf31db33fe{fill:#dddcdc;}.a08253b3-381c-4466-823f-577995ab7494{fill:#b6b5b4;}.bd5dbabe-78b3-4c75-991c-70c9d20c174e{fill:#73716f;}.ab601802-14b1-467b-9429-c9a44d3b900d{fill:#867068;}.f78001f1-ec3e-4343-aaae-a53b9799cc24{fill:#fff;}.af190f8e-578a-461b-9699-123396f299f0{fill:#3f3a36;}.a90a19f2-8e72-40a2-a339-3b94f87ac776{fill:#c9c8c8;}.f2ad08f3-eb93-46a8-8086-aaefa6203a94{fill:#686663;}.be42a014-be6e-4d43-8dad-2b6cd471f3bc{fill:#9cc;}.a8002866-baaa-4641-9590-4edf62717b87,.a82352f2-f7a8-4288-9410-4212d89654aa{fill:#5b5854;}.fc20a28b-dee4-43aa-8696-cf9021b64312{fill:#f18200;}.a4e4305b-106c-427e-bfd7-66fdae898802{fill:#4c5151;}.a46cea19-2483-4f64-843c-a03ef3fdfe20{fill:#6a6e6e;}.e429a857-d97b-4f27-ab08-4bf46b66d4a6{fill:#745f56;}.f83c9236-9891-4619-96e9-20611c2eb4eb{fill:#7b655c;}.b679eecd-1c21-4e4e-9aa3-781581505ec8{fill:#e78886;}.a7dc8a6c-2fbc-459d-afc5-318d12725d9b{fill:#da8886;}.b6c2f658-e678-422f-95d1-fbf707518a9d{fill:#c95854;}.f2c47898-a605-4ef9-9b1a-7805169d3585{fill:#e27f24;}.a2ad3cae-b925-4088-9170-4ba81d43a72b{fill:#db7921;}.a4bb778d-4386-4395-9f6b-c11aead37f4c{fill:#d1751d;}</style></defs><path class="bfdd35e5-9674-4324-a94b-555498ef874c" d="M77.89,177.7c-4.68.23-28.78,7.37-30.54,11.46S53.2,258,58.12,266.62s30.42,3.28,32.06-4S77.89,177.7,77.89,177.7Z" transform="translate(0 -14.09)"/><path class="b8384e57-03a7-46a3-99ee-724348e728fc" d="M47.35,189.16c-1.75,4.1,5.85,68.8,10.77,77.46,2.33,4.1,9.27,5.05,16.11,4.15,1.53-16.5-3.92-78.23-5.19-80.24a8.11,8.11,0,0,0-3.73-3.12C63.79,186.71,50.51,187.06,47.35,189.16Z" transform="translate(0 -14.09)"/><path class="bfdd35e5-9674-4324-a94b-555498ef874c" d="M73.55,237.92c-2.74,8.27-12,38.37-23,32.92-8-3.94-1.84-24.4,2.06-28.31l1.08,6.4c-1.47,2.91-3.93,14.67-.83,16.2,6.06,3,14.89-25.44,18-30.15Z" transform="translate(0 -14.09)"/><path class="a729cb8d-a39b-481a-a7d1-8e71a9d59a31" d="M67.21,190.44C31,205.4,24.2,242.65,21,257.1c-.88,4,14.51,12.12,19.19-7s28.67-32.83,28.67-32.83c-3.17,2.82,5.2,40.7,7,49.85C66.6,282.83,60.57,295.49,55.35,312c-.4,1.26-1.64,6.14-2.57,7.23-5.35,8.45-.39,9.74,6.71,11.45,4.31,1,8.43-2.81,14.89-9.25,1.62-1.62,4.4-2.71,6.19-4.73,8.75-9.88,18.47-24.07,19.08-24.72,3.12-3.33,8.75-2.67,13.81-2.16,13.48,1.39,17.9,7.82,25.12,16.7,8.2,10.06,14.28,28.08,23.17,29s11.23-5.15,4.92-24.81-27.11-42.12-27.11-42.12c7.14-18.8,6.37-63,6.48-59.63,0,0,43.27,6.51,46-4.46,1.26-5.17-3.57-12.64-12.71-13.4-21.18-1.77-24.21-3.44-32.3-6.05-1.51-.49-5.66-1.61-5.66-1.61-1.83-1.28-2-3.13-3-2.84-6.68,10-47.43,11-63.62,5.17C70.65,186.37,67.22,190.39,67.21,190.44Z" transform="translate(0 -14.09)"/><path class="bfa9a990-5320-45a0-b35a-feb188436b7b" d="M66,190.89c9,9.53,7.38,16.05,2.89,26.43-3.17,2.82,5.2,40.7,7,49.85-6.06,10.24-17.48,32.07-21.1,46.79a70.93,70.93,0,0,1,6.91,3.17c3.12-8.14,18.53-40.6,24.7-38.77,1.46-1.34,12.88,14,13.27,13.58,3.12-3.33,8.75-2.67,13.81-2.16s5.25,1.13,8.84,2.05c3.4-2.29,9.34-5.43,9.34-5.43s-15.56-.43-19.07-8.27-2.63-17.82-2.63-17.82-14.1-.53-15.68-.49-6.73,7.72-7.32,7.07-5.44-10.54-4.5-15.43a20.08,20.08,0,0,1,3.22-7.86s-1.85-31.3,1.11-38,27.26-7.93,33.7-10-33.35-5.5-40.56-6.48a92.57,92.57,0,0,0-11.16-.27A33.92,33.92,0,0,1,66,190.89Z" transform="translate(0 -14.09)"/><path class="a69af799-e107-43d8-a957-9484ea218261" d="M131.49,259.26c-1.86,0-16.37,1.2-27,1.08s-11.93-1.52-11.93-1.52l.35-9.36,34.63-.23Z" transform="translate(0 -14.09)"/><path class="bfdd35e5-9674-4324-a94b-555498ef874c" d="M125.74,244.55s-1,16-.82,18.37,5.15,4.56,5.91,4.79,11.66-.81,13.52-2.92,3.15-14.45,1.87-16C145.92,248.4,128.59,244.81,125.74,244.55Z" transform="translate(0 -14.09)"/><path class="e4cfe357-0c9c-4d53-8ef0-1faf31db33fe" d="M130.83,267.71c.76.24,11.66-.81,13.52-2.92s3.15-14.45,1.87-16c-.24-.29-11.32-2.63-17.24-3.7a24.79,24.79,0,0,1,2.26,5.74C132.23,255,130.83,267.71,130.83,267.71Z" transform="translate(0 -14.09)"/><path class="a08253b3-381c-4466-823f-577995ab7494" d="M125.74,244.55c.23,1.63,5,3,5.44,10.29,3.39,2.11,12,3.82,14.92-.83a7.69,7.69,0,0,0-.29-9.35C144.94,243.62,125.74,244.55,125.74,244.55Z" transform="translate(0 -14.09)"/><path class="bd5dbabe-78b3-4c75-991c-70c9d20c174e" d="M118.76,219.36c11.77,1.39,24.17-.81,27.18-2.41,0,0,.58,14.94-.6,15.24s-22.89,3.87-25.29,1.47S118.76,219.36,118.76,219.36Z" transform="translate(0 -14.09)"/><path class="bd5dbabe-78b3-4c75-991c-70c9d20c174e" d="M95.5,221.58c-11.76,2.5-24.72,1.28-27.73,0,0,0-.53,14.8,2.09,15.43s22,1.65,24.35-1S95.5,221.58,95.5,221.58Z" transform="translate(0 -14.09)"/><path class="ab601802-14b1-467b-9429-c9a44d3b900d" d="M170.05,318.78c-.17-.55-.89-4.22-2-3.57-13.27,7.76-19.25,7.23-19.29,7.29-.64.89.69,3.77,1.37,4.27s6.64.29,11.26-2a44.89,44.89,0,0,0,8.42-5.53Z" transform="translate(0 -14.09)"/><path class="ab601802-14b1-467b-9429-c9a44d3b900d" d="M148.35,195.48c.74,11.37-2.28,14-2.22,13.3.31-3.82.76-10.45-.58-15.24-1.93-6.84-5.43-10.13-5.21-10.44C141.49,181.49,147.5,182.27,148.35,195.48Z" transform="translate(0 -14.09)"/><path class="a729cb8d-a39b-481a-a7d1-8e71a9d59a31" d="M169.55,317c1.83,4.3,2.37,18.41,3.95,21.87,20.12-4.1,25.12,11.9,21.13,12.29-12,.21-37.65.11-38.39.1-4.86-.06-2.08-12.23-6.85-25.44C156.32,324.47,164.94,323,169.55,317Z" transform="translate(0 -14.09)"/><path class="ab601802-14b1-467b-9429-c9a44d3b900d" d="M71.29,326.08c1-.76,3.09-3.59,3.09-4.69,0-1.44-18.11-10.09-19-9.43-1.69,1.23-2.62,4.51-2.62,4.51Z" transform="translate(0 -14.09)"/><path class="a729cb8d-a39b-481a-a7d1-8e71a9d59a31" d="M73.38,323.58c-13.14-3.33-19.17-9.32-20.18-9.15-.27,0-14.06,26.85-15,32.08-.58,3.28,1.76,3.86,2.93,4s21.87,2.32,23.62-.25-3.39-7.61-1.17-10.53S73.26,325.81,73.38,323.58Z" transform="translate(0 -14.09)"/><path class="ab601802-14b1-467b-9429-c9a44d3b900d" d="M64.44,191.66c5.67,1.19,8.4,21.58,2.58,26.79l.9,3.72c4.56-5.26,9.62-20.42-.44-32Z" transform="translate(0 -14.09)"/><path class="ab601802-14b1-467b-9429-c9a44d3b900d" d="M136.43,177.83c2.74.24,5.74.82,6,4.74.56,8.15-13,13.64-28.41,15.09-19.53,1.82-35.51-2.12-42.79-5.5-2.89-1.34-2.94-2.8-2.34-4.26s2.87-2.53,3.52-2.7,59.67-4.45,61.71-5.68S136.43,177.83,136.43,177.83Z" transform="translate(0 -14.09)"/><path class="f78001f1-ec3e-4343-aaae-a53b9799cc24" d="M72.42,185.2c17.75,4.46,51,7.12,65.93-4.62C149.33,103.75,51.4,113.27,72.42,185.2Z" transform="translate(0 -14.09)"/><path class="af190f8e-578a-461b-9699-123396f299f0" d="M109.94,133.07c29.51,0,43.61,52.25,3.12,54C68.06,189,77.28,133.07,109.94,133.07Z" transform="translate(0 -14.09)"/><path class="a90a19f2-8e72-40a2-a339-3b94f87ac776" d="M76.36,154.84c-3.22-.12-10.42,1-11.65,3.33s-.38,12.93,1.14,14.51c1.07,1.11,7.34,1.39,10.89,1.14,1.48-.11,1.26-.7,1.66-1,1.35-.88.59-16.44-.17-17.38A1.88,1.88,0,0,0,76.36,154.84Z" transform="translate(0 -14.09)"/><rect class="b68edc6d-4fb2-4a7e-83f0-09a9c6ebb581" x="75.48" y="140.75" width="4.86" height="18.98" rx="0.97"/><path class="ab601802-14b1-467b-9429-c9a44d3b900d" d="M46.74,235.8a3.11,3.11,0,0,0,3.12-.83c.86-.92,2.2-2.15.56-4.67s-9.3-7.37-14.1-8.25-6,.18-7,1.64A7.44,7.44,0,0,0,28.1,227Z" transform="translate(0 -14.09)"/><path class="a729cb8d-a39b-481a-a7d1-8e71a9d59a31" d="M49.86,235c-4.31-4.94-20-13.31-22-7.38-2.47,7.42-7.22,16.67-9.14,26-.86,4.15-1.3,17.93,8.54,19.7s7.7-17.12,10.43-16.57,4.93,11.82,6.57,6.92-1.76-10.05-1.68-12.09C42.64,249.25,46.92,243.38,49.86,235Z" transform="translate(0 -14.09)"/><path class="ab601802-14b1-467b-9429-c9a44d3b900d" d="M103.13,289.89c-.1-.69-8.89-9.1-14.86-14.13s-11.06-8.64-12.4-8.59-3,3.61-2.57,3.85c13.42,7.9,25.47,21.81,25.66,21.83C100.66,293,102.25,290.88,103.13,289.89Z" transform="translate(0 -14.09)"/><path class="ab601802-14b1-467b-9429-c9a44d3b900d" d="M142,270.84c-.89,7-9.23,16.35-18.78,21.35-.73.39-3.36-.88-3.09-1.13,1.29-1.27,12.89-5,19.47-22.49C140.06,267.23,142,270.84,142,270.84Z" transform="translate(0 -14.09)"/><path class="a729cb8d-a39b-481a-a7d1-8e71a9d59a31" d="M52.36,336.73c8.18,0,14.8,5.24,14.8,11.7a9.47,9.47,0,0,1-.46,2.91H38a9.47,9.47,0,0,1-.46-2.91C37.56,342,44.19,336.73,52.36,336.73Z" transform="translate(0 -14.09)"/><path class="ab601802-14b1-467b-9429-c9a44d3b900d" d="M178.36,190.46a6.14,6.14,0,0,0-1.3.43s2.4,3,2.81,9.17A21.39,21.39,0,0,1,178,210.6a2.9,2.9,0,0,0,2.45.67C184.59,211.46,188.08,192,178.36,190.46Z" transform="translate(0 -14.09)"/><path class="a729cb8d-a39b-481a-a7d1-8e71a9d59a31" d="M178.36,190.46c4.82,4.81,4.85,16.68,1.88,20.84,7.2-1,18-.38,26.5-2.64,3.81-1,10.77-5.18,8.16-14.09-2.7-9.25-15.08-7-19.74-4.9C193.23,190.54,186.58,189.42,178.36,190.46Z" transform="translate(0 -14.09)"/><path class="f2ad08f3-eb93-46a8-8086-aaefa6203a94" d="M216,350.33a1.56,1.56,0,1,1-3.11-.09c.89-32.05-3.14-107.12-12.43-183.45-6.67-54.78-16-110.18-28.23-150.7a1.56,1.56,0,1,1,3-.89c12.25,40.71,21.65,96.29,28.34,151.23C212.86,242.87,216.89,318.14,216,350.33Z" transform="translate(0 -14.09)"/><path class="a729cb8d-a39b-481a-a7d1-8e71a9d59a31" d="M192.68,191.45c.88-1.11,4.74-4.56,8.19-4.1s11.41,5.21,8.95,7-8.72.47-8.72.47,2.11,6-4.38,5.62S192.68,191.45,192.68,191.45Z" transform="translate(0 -14.09)"/><path class="be42a014-be6e-4d43-8dad-2b6cd471f3bc" d="M186.64,69.26c-8.43.46-71.89,11.11-85,16.67-.78-11.68,5.45-26.39,8.41-26.54L90.41,42.2c26.31-17.67,45.94-21,84.35-23.24C170.4,31.42,178.83,58.72,186.64,69.26Z" transform="translate(0 -14.09)"/><path class="bfdd35e5-9674-4324-a94b-555498ef874c" d="M99.89,200.91l24.45-2.06c1.61-.14,8.78,1.82,10,2.57,3.1,1.88,8.73,37.28-30.26,44.19-4.2.74-11.93-4.37-11.93-8.65V209.34A8.62,8.62,0,0,1,99.89,200.91Z" transform="translate(0 -14.09)"/><path class="e4cfe357-0c9c-4d53-8ef0-1faf31db33fe" d="M106.32,202.9l24.46-2.07A7,7,0,0,1,138.5,208v27.62a8.63,8.63,0,0,1-7.72,8.43l-24.46,2.07A7,7,0,0,1,98.6,239V211.33A8.63,8.63,0,0,1,106.32,202.9Z" transform="translate(0 -14.09)"/><path class="a82352f2-f7a8-4288-9410-4212d89654aa" d="M109.86,208.5a4,4,0,0,1,4.42,4,5,5,0,0,1-4.42,4.82,4,4,0,0,1-4.42-4A5,5,0,0,1,109.86,208.5Z" transform="translate(0 -14.09)"/><path class="a82352f2-f7a8-4288-9410-4212d89654aa" d="M130.19,230.8a2.89,2.89,0,0,1,3.22,2.92,3.59,3.59,0,0,1-3.22,3.51,2.88,2.88,0,0,1-3.22-2.92A3.59,3.59,0,0,1,130.19,230.8Z" transform="translate(0 -14.09)"/><path class="a08253b3-381c-4466-823f-577995ab7494" d="M121.53,231.84a2.89,2.89,0,0,1,3.22,2.92,3.59,3.59,0,0,1-3.22,3.51,2.88,2.88,0,0,1-3.21-2.92A3.59,3.59,0,0,1,121.53,231.84Z" transform="translate(0 -14.09)"/><path class="bfdd35e5-9674-4324-a94b-555498ef874c" d="M95.72,243.94s1,16,.82,18.37-5.15,4.56-5.91,4.8S79,266.3,77.11,264.19s-3.15-14.46-1.86-16C75.54,247.79,92.87,244.21,95.72,243.94Z" transform="translate(0 -14.09)"/><path class="e4cfe357-0c9c-4d53-8ef0-1faf31db33fe" d="M90.63,267.11c-.76.23-11.66-.81-13.52-2.92s-3.15-14.46-1.86-16c.23-.29,11.31-2.62,17.23-3.69a24.43,24.43,0,0,0-2.26,5.74C89.23,254.41,90.63,267.11,90.63,267.11Z" transform="translate(0 -14.09)"/><path class="a08253b3-381c-4466-823f-577995ab7494" d="M95.72,243.94c-.23,1.64-5,3-5.44,10.3-3.39,2.1-12,3.82-14.92-.83a7.67,7.67,0,0,1,.3-9.35C76.52,243,95.72,243.94,95.72,243.94Z" transform="translate(0 -14.09)"/><path class="fc20a28b-dee4-43aa-8696-cf9021b64312" d="M78.21,160.37a1.9,1.9,0,1,0-1.86-1.9A1.88,1.88,0,0,0,78.21,160.37Z" transform="translate(0 -14.09)"/><rect class="a8002866-baaa-4641-9590-4edf62717b87" x="76.66" y="149.27" width="3.07" height="9.27" rx="1.17"/><path class="a4e4305b-106c-427e-bfd7-66fdae898802" d="M111.37,136.91c12,0,22.23,10.6,22.75,23.67s-8.82,23.67-20.87,23.67S91,173.65,90.5,160.58,99.32,136.91,111.37,136.91Z" transform="translate(0 -14.09)"/><path class="a46cea19-2483-4f64-843c-a03ef3fdfe20" d="M118.9,150.14c-18.31-5.75-22.91,15.63-23.86,9-.25-5.7.32-9.49,4.44-13.79,6.57-6.84,15.86-5.67,22.56-2.93C125.36,144.72,122.18,151.57,118.9,150.14Z" transform="translate(0 -14.09)"/><path class="bfa9a990-5320-45a0-b35a-feb188436b7b" d="M35.74,255.35c-3.37,2.78-2.94,10.06-4.06,13-.33,8.2-10.13,1.57-12.34-2.66,1.18,3.62,1.42,6.63,8.42,8.09s7.9-10.25,9.06-14.73c.3-1.16.64-1.63,1.34-1.59,1.4.07,4.43,11,6.07,6.14s-1.76-10.05-1.68-12.09c.09-2.28,4.37-8.15,7.31-16.56-.27-.3-.57-.62-.91-.94a34.59,34.59,0,0,0-5.82-4.22c-.2.59-.66,2-1.23,3.71-1.5,4.59-3.82,11.9-4,13.29-.09.56,7.74,12,5.09,15.8C42.13,263.77,39.11,252.57,35.74,255.35Z" transform="translate(0 -14.09)"/><path class="bfa9a990-5320-45a0-b35a-feb188436b7b" d="M51.07,231.63A86.17,86.17,0,0,1,67,218.45c5.52-4.93,3.35-23.5-1.71-26.45-6.4,2.33-.36,21-7.86,25.15-3.12,1.71-5.72,3.31-7.77,4.65-3.4,2.22-5.22,3.7-5.22,3.7,2.76,1.65,5.13,3.53,6,4.8a5.59,5.59,0,0,1,.48.88C51,231.34,51,231.49,51.07,231.63Z" transform="translate(0 -14.09)"/><path class="e429a857-d97b-4f27-ab08-4bf46b66d4a6" d="M43.13,229.81A34.59,34.59,0,0,1,49,234c.34.32.64.64.91.94a4.33,4.33,0,0,0,1.29-2,2.81,2.81,0,0,0-.08-1.33c0-.14-.1-.29-.17-.45a5.59,5.59,0,0,0-.48-.88c-.83-1.27-3.2-3.15-6-4.8Z" transform="translate(0 -14.09)"/><path class="f83c9236-9891-4619-96e9-20611c2eb4eb" d="M101.51,192.52a87,87,0,0,1-21.6-3.36,76.89,76.89,0,0,1-7.63-2.64c-.48-.19-1-.39-1.42-.6a4.62,4.62,0,0,0-2,2,3.59,3.59,0,0,0-.3,1.12,2.22,2.22,0,0,0,.2,1.15,2.46,2.46,0,0,0,.3.47,5.6,5.6,0,0,0,2.14,1.52A55.44,55.44,0,0,0,81,195.43a100.73,100.73,0,0,0,33,2.23c13.44-1.26,25.42-5.58,27.94-12a7.25,7.25,0,0,0,.46-1.89,8.23,8.23,0,0,0,0-.86l-1,.59-.7.39C130.15,189.66,116.46,193,101.51,192.52Z" transform="translate(0 -14.09)"/><path class="bfa9a990-5320-45a0-b35a-feb188436b7b" d="M75.71,178c-.22-1.4-.39-2.77-.52-4.12a48.14,48.14,0,0,1-5.22-.16q.33,2.64.92,5.41.61,3,1.53,6.06l2.31.55c.9.2,1.82.4,2.78.59-.14-.52-.28-1-.41-1.54C76.51,182.47,76.05,180.2,75.71,178Z" transform="translate(0 -14.09)"/><path class="bfa9a990-5320-45a0-b35a-feb188436b7b" d="M76.79,154.79c5.79-19.59,24-28.55,40.25-25.37-18-7.36-41.19,2.12-46.48,26a26.34,26.34,0,0,1,5.8-.59A1.67,1.67,0,0,1,76.79,154.79Z" transform="translate(0 -14.09)"/><path class="bfa9a990-5320-45a0-b35a-feb188436b7b" d="M46.39,337.72a14.22,14.22,0,0,0-6.91,4.94,9.84,9.84,0,0,0-1.92,5.77,9.47,9.47,0,0,0,.46,2.91h2.71c.1-.28.21-.56.32-.86,1.08-2.78,2.85-6.42,5.29-8.46,4.33-3.63,14.63-2.22,15.87-2.33q-.54-.37-1.14-.72a47.89,47.89,0,0,0-7.71-1.51,25.8,25.8,0,0,0-5.22-.25A16.11,16.11,0,0,0,46.39,337.72Z" transform="translate(0 -14.09)"/><path class="bfa9a990-5320-45a0-b35a-feb188436b7b" d="M39.48,342.66a14.22,14.22,0,0,1,6.91-4.94c1.62-6.87,7.81-12.93,12.52-18.05l1.15-1.24c-2.64-1.43-4.47-2.71-5.6-3.42a6.84,6.84,0,0,0-1-.53.51.51,0,0,0-.3-.05C53,314.47,43.12,333.55,39.48,342.66Z" transform="translate(0 -14.09)"/><path class="bfa9a990-5320-45a0-b35a-feb188436b7b" d="M131.49,286.53a44.65,44.65,0,0,1-8.31,5.66c6.55,2.91,10.27,8,15.4,14.29,3.66,4.5,6.9,10.58,10.16,16,0-.05,3.19.22,10-2.6,0,0-2.07-7.13-9.21-14.74C142.88,298.06,132.8,287.85,131.49,286.53Z" transform="translate(0 -14.09)"/><path class="bfa9a990-5320-45a0-b35a-feb188436b7b" d="M150.62,325.55l-1.23.23c4.77,13.21,2,25.38,6.85,25.44.74,0,26.39.11,38.39-.1,1-.1,1.45-1.21,1.2-2.73l-27.22-.75s1.41-5.86,2.93-7-7.84,3.16-7.84,3.16-3.75,1.41-5-7c-.13-.82-.23-1.64-.31-2.46a60.53,60.53,0,0,1-.18-8.28c0-.8.09-1.54.14-2.22A78.54,78.54,0,0,1,150.62,325.55Z" transform="translate(0 -14.09)"/><path class="e429a857-d97b-4f27-ab08-4bf46b66d4a6" d="M149.39,325.78l1.23-.23a78.54,78.54,0,0,0,7.7-1.76c.19-2.38.43-3.89.43-3.89-6.82,2.82-10,2.55-10,2.6C148.3,323.12,148.81,324.71,149.39,325.78Z" transform="translate(0 -14.09)"/><path class="bfa9a990-5320-45a0-b35a-feb188436b7b" d="M72.42,323.33c-.55-.15-1.08-.3-1.6-.46l-.77,2.57,0,.2-2.55,8.54c2.79-4.18,5.86-9.18,5.93-10.6Z" transform="translate(0 -14.09)"/><path class="e429a857-d97b-4f27-ab08-4bf46b66d4a6" d="M70.82,322.87c.52.16,1.05.31,1.6.46l1,.25a5.28,5.28,0,0,0,1-2.19c0-.31-.85-1-2.21-1.79l-.52.49Z" transform="translate(0 -14.09)"/><path class="bfa9a990-5320-45a0-b35a-feb188436b7b" d="M72.17,319.6c1.36.82,2.21,1.48,2.21,1.79,1.62-1.62,4.4-2.71,6.19-4.73,7.6-8.58,15.94-20.43,18.39-23.81-.07,0-1.91-2.08-4.91-5.08a84.81,84.81,0,0,1-8.82,16.41A118.32,118.32,0,0,1,72.17,319.6Z" transform="translate(0 -14.09)"/><path class="e429a857-d97b-4f27-ab08-4bf46b66d4a6" d="M94.05,287.77c3,3,4.84,5.08,4.91,5.08,1.7.18,3.29-2,4.17-3-.06-.42-3.25-3.61-7.09-7.19-.36.94-.82,2.16-1.38,3.57C94.47,286.75,94.26,287.25,94.05,287.77Z" transform="translate(0 -14.09)"/><path class="e429a857-d97b-4f27-ab08-4bf46b66d4a6" d="M146.13,208.78c-.06.72,3-1.93,2.22-13.3,0-.44-.06-.87-.1-1.28-.1-.25-2.46-5.59-6.28-8.59C146.27,195,147,197.91,146.13,208.78Z" transform="translate(0 -14.09)"/><path class="e429a857-d97b-4f27-ab08-4bf46b66d4a6" d="M179.58,205.45A18.93,18.93,0,0,1,178,210.6a2.9,2.9,0,0,0,2.26.7,7.43,7.43,0,0,0,.58-1,15.09,15.09,0,0,0,1.26-4.69Z" transform="translate(0 -14.09)"/><path class="bfa9a990-5320-45a0-b35a-feb188436b7b" d="M207.78,204.44c.12,1.25.25,2.5.37,3.75,3.86-1.55,9-5.71,6.76-13.58-.77,2.5-2.61,7.37-5.6,9.12A9.48,9.48,0,0,1,207.78,204.44Z" transform="translate(0 -14.09)"/><path class="bfa9a990-5320-45a0-b35a-feb188436b7b" d="M205.11,209.06c-.13-1.27-.25-2.53-.38-3.8a64.34,64.34,0,0,1-12.79.87l-.71,0c-1.82-.08-4.73-.24-7.18-.39l-2-.11a15.09,15.09,0,0,1-1.26,4.69,7.43,7.43,0,0,1-.58,1l.19,0,.46-.06C187.62,210.38,197.13,210.79,205.11,209.06Z" transform="translate(0 -14.09)"/><path class="bfa9a990-5320-45a0-b35a-feb188436b7b" d="M178,210.6a18.93,18.93,0,0,0,1.59-5.15s-21.81-.72-25.67-2.36c-1.91-.81-4-4.93-5.66-8.89.48,5,.21,10.2-2.21,14.74C146,208.94,164.44,211.71,178,210.6Z" transform="translate(0 -14.09)"/><path class="bfa9a990-5320-45a0-b35a-feb188436b7b" d="M198.24,198.2c-.94,1.22-3,1.18-4.75.85a4.51,4.51,0,0,0,3.23,1.41c6.49.41,4.38-5.62,4.38-5.62a25.08,25.08,0,0,0,2.59.38,18.15,18.15,0,0,0,3.14.05,5.87,5.87,0,0,0,3-.9,1,1,0,0,0,.35-1.36,7.76,7.76,0,0,1-3.46,1.09,13.11,13.11,0,0,1-3.14,0,16.38,16.38,0,0,1-5.8-1.88S199.82,196.15,198.24,198.2Z" transform="translate(0 -14.09)"/><path class="b679eecd-1c21-4e4e-9aa3-781581505ec8" d="M154.4,54.75a88.16,88.16,0,0,1-10.58,2.76A88.42,88.42,0,0,1,133,59a14.23,14.23,0,0,0,21.42-4.25Z" transform="translate(0 -14.09)"/><path class="a7dc8a6c-2fbc-459d-afc5-318d12725d9b" d="M155,42.39c-.13-.31-.27-.61-.42-.91a14.23,14.23,0,0,0-26.87,5.33c0,.33,0,.67,0,1a14.14,14.14,0,0,0,2.08,7.51,87.19,87.19,0,0,0,13.29-1.66A86.94,86.94,0,0,0,156,50.13a14.23,14.23,0,0,0-.95-7.74Z" transform="translate(0 -14.09)"/><path class="b6c2f658-e678-422f-95d1-fbf707518a9d" d="M129.77,55.33c-5.64.21-9.45-.49-9.77-2.07s2.73-3.54,7.69-5.44c0-.34,0-.68,0-1-7.25,2.75-11.81,6-11.29,8.65C117,58.38,123.77,59.65,133,59a88.42,88.42,0,0,0,10.84-1.49,88.16,88.16,0,0,0,10.58-2.76c8.77-2.92,14.52-6.67,13.94-9.59-.52-2.62-6-3.91-13.74-3.68.15.3.29.6.42.91,5.32-.14,8.88.57,9.19,2.1s-3,3.69-8.24,5.64a86.94,86.94,0,0,1-12.91,3.54A87.19,87.19,0,0,1,129.77,55.33Z" transform="translate(0 -14.09)"/><path class="a82352f2-f7a8-4288-9410-4212d89654aa" d="M124.82,207h0a1.4,1.4,0,0,1,1.47,1.4v9a1.54,1.54,0,0,1-1.47,1.52h0a1.4,1.4,0,0,1-1.46-1.41v-9A1.53,1.53,0,0,1,124.82,207Z" transform="translate(0 -14.09)"/><path class="a82352f2-f7a8-4288-9410-4212d89654aa" d="M128.75,206.69h0a1.4,1.4,0,0,1,1.46,1.41v9a1.55,1.55,0,0,1-1.46,1.53h0a1.41,1.41,0,0,1-1.47-1.41v-9A1.54,1.54,0,0,1,128.75,206.69Z" transform="translate(0 -14.09)"/><path class="a82352f2-f7a8-4288-9410-4212d89654aa" d="M132.74,206.33h0a1.41,1.41,0,0,1,1.46,1.41v9a1.54,1.54,0,0,1-1.46,1.52h0a1.4,1.4,0,0,1-1.46-1.41v-9A1.54,1.54,0,0,1,132.74,206.33Z" transform="translate(0 -14.09)"/><path class="a46cea19-2483-4f64-843c-a03ef3fdfe20" d="M126.89,164.5c2.48,0,3.88,2.9,3.13,6.47s-3.35,6.46-5.82,6.46-3.87-2.89-3.13-6.46S124.42,164.5,126.89,164.5Z" transform="translate(0 -14.09)"/><path class="bd5dbabe-78b3-4c75-991c-70c9d20c174e" d="M79.6,251.16c.63,0,1.2.73,1.29,1.63s-.34,1.63-1,1.63-1.2-.73-1.29-1.63S79,251.16,79.6,251.16Z" transform="translate(0 -14.09)"/><path class="bd5dbabe-78b3-4c75-991c-70c9d20c174e" d="M141.39,252.51c-.62,0-1.2.73-1.29,1.63s.34,1.63,1,1.63,1.2-.73,1.29-1.63S142,252.51,141.39,252.51Z" transform="translate(0 -14.09)"/><path class="f2c47898-a605-4ef9-9b1a-7805169d3585" d="M214.8,344.76l21.82,73.17H2.45l20.19-64.4c12.37-4.32,37.75-12.88,44-11.65,8.07,1.59,25.6,9.88,25.6,9.88s16.83-2.55,26.06-5.42,33.66,6.37,39.66,2.87S187.66,333,193.42,333C196.48,333,206.27,339,214.8,344.76Z" transform="translate(0 -14.09)"/><path class="a2ad3cae-b925-4088-9170-4ba81d43a72b" d="M226.27,360.64l14.3,57.48-238.12-3L12,373.31c13.12-4.89,36-12,42.23-12,9.45,0,50.43,12,61.52,12.36s20.55-10.89,30.76-11.71,33.43,5.37,40.6,4.88,28.23-11.7,28.23-11.7Z" transform="translate(0 -14.09)"/><path class="a4bb778d-4386-4395-9f6b-c11aead37f4c" d="M228.36,386.58l14.06,31.35H0l15.28-30.39,12.87,5.76s42.76-12.42,47.29-13.05,35.9,11.68,39.14,13.73,41.06-24.25,52.4-27.66C175.35,363.8,207.57,379,228.36,386.58Z" transform="translate(0 -14.09)"/></svg>