<svg xmlns="http://www.w3.org/2000/svg" viewBox="0 0 190.23 463.54"><defs><style>.f4538c3b-fec3-4cf9-817b-901777ae6fda{isolation:isolate;}.ad1ea5d9-aebf-49f8-9f41-75c90eb3f6ec{fill:#ffc67b;}.a4e5118e-2455-41b5-bbfd-b35255e42dfe{fill:#e59e57;}.b4783b8a-8bd8-4d32-879a-fdb92402598e{fill:#ccf5ff;}.ac8e7dfe-a875-4ee1-a013-9da08c2e92d6{fill:#24404c;}.e4037601-c55f-4dbd-af6b-0dde35b58906{fill:#203a49;}.e27a1e3b-ddeb-4d66-a8b8-7348aaf8da04{fill:#233d4c;}.a6657d0f-9c20-4bbb-98be-603c9dc0f52a{fill:#8c6850;}.a6657d0f-9c20-4bbb-98be-603c9dc0f52a,.b1016e8a-5949-4963-b659-f5b60714ac2c{opacity:0.4;}.a6657d0f-9c20-4bbb-98be-603c9dc0f52a,.b1016e8a-5949-4963-b659-f5b60714ac2c,.fa15d5dc-c556-43e4-8fa6-1fd6f4584459{mix-blend-mode:multiply;}.b8f9ae97-73e7-4022-9442-31187b05f619{fill:#f4b66c;}.a57a2aff-8f0b-4461-a082-bf5500271a01{fill:#38566b;}.fa15d5dc-c556-43e4-8fa6-1fd6f4584459{fill:#466777;opacity:0.3;}.ab07473a-6d96-4f66-ae77-30ef989a2829{fill:#db6161;}.b1016e8a-5949-4963-b659-f5b60714ac2c{fill:#77461e;}.b35d7236-097a-4714-9705-bc0d5091128b{fill:#b0e2ea;}.f2254c4b-f04d-4222-b59f-e899401eb2dc{fill:#efd967;}.b77a9188-95e7-45e3-808a-37fb04b0dfed{fill:#2e4f68;}.ac911845-2eb0-461c-a6a7-dcdb9edbd2e9{fill:#603211;}.b4f6dff6-c5d7-44f1-8ca5-f146ae3a9711{fill:#874a18;}.a39069cf-da51-4d56-adf4-11ed0f597ec7{fill:#f4a56e;}.aac3c6b2-c7b1-4ddc-a830-de48a042f271{fill:#594430;}.bee15429-97c8-41a9-8091-91c3e2afd735{fill:#5e4027;}.bb8e2180-c064-4c93-add6-baa7e5659a03{fill:#ffefbd;}.a76bddc9-3c49-45eb-a74f-6635383bcd4d{fill:#ea965c;}.bead388c-d0c4-4f7b-ac1f-787ccdfdd125{fill:#ccb73b;}.aad8ac6f-1904-4987-8129-118f50a5904c{fill:#5b3d1f;}</style></defs><g class="f4538c3b-fec3-4cf9-817b-901777ae6fda"><g id="a9d182bd-3b6f-4e90-bcc1-c5980a29fd3b" data-name="2"><path class="ad1ea5d9-aebf-49f8-9f41-75c90eb3f6ec" d="M184.1,212.3c-1.23-1.54-2.71-.94-6.2,2.56s-6.55,6.38-5.91,7.91,6.23,1,10.14-1.87S186.21,215,184.1,212.3Z" transform="translate(-2.87 -4.44)"/><path class="ad1ea5d9-aebf-49f8-9f41-75c90eb3f6ec" d="M193.1,215c.07-.61-2.18-1.78-5-2.61s-5.22-1-5.29-.41,2.19.79,5,1.63S193,215.59,193.1,215Z" transform="translate(-2.87 -4.44)"/><path class="ad1ea5d9-aebf-49f8-9f41-75c90eb3f6ec" d="M180.71,208.73c.55,1.61-3.76,3.4-2.35,7.28a3.19,3.19,0,0,1-2.72,4.51c-.82-.21-1-4-.1-7.38C176.34,210.3,180.47,208,180.71,208.73Z" transform="translate(-2.87 -4.44)"/><path class="ad1ea5d9-aebf-49f8-9f41-75c90eb3f6ec" d="M192.9,217.29c.06-.61-2.19-1.78-5-2.61s-5.22-1-5.29-.41,2.19.79,5,1.63S192.83,217.9,192.9,217.29Z" transform="translate(-2.87 -4.44)"/><path class="ad1ea5d9-aebf-49f8-9f41-75c90eb3f6ec" d="M192.2,219.66c.07-.6-2.18-1.77-5-2.61s-5.22-1-5.29-.41,2.19.79,5,1.63S192.14,220.28,192.2,219.66Z" transform="translate(-2.87 -4.44)"/><path class="ad1ea5d9-aebf-49f8-9f41-75c90eb3f6ec" d="M125.35,142.55c20.6,57.15,40,66.65,52.26,77.41L175,223.91c-19.8-8.34-49.87-42.59-58.69-77.89C116.33,146,125.05,141.73,125.35,142.55Z" transform="translate(-2.87 -4.44)"/><path class="a4e5118e-2455-41b5-bbfd-b35255e42dfe" d="M119.62,144.61s1.4-.69,3.1-1.46c-2.66,1-6.39,2.87-6.39,2.87,8.82,35.3,38.89,69.55,58.69,77.89l1.47-2.24C156.71,212.09,128.17,178.84,119.62,144.61Z" transform="translate(-2.87 -4.44)"/><path class="b4783b8a-8bd8-4d32-879a-fdb92402598e" d="M103,112.54l-5.86,15.67c3.76,7.37,6.64,18.92,10.8,26.79,8.85,1.09,17.83-4.16,26.4-13C127.17,128.51,116.2,117.24,103,112.54Z" transform="translate(-2.87 -4.44)"/><path class="ac8e7dfe-a875-4ee1-a013-9da08c2e92d6" d="M111.61,293.51,70.78,310.36l-5,14.17c5.27,6.08,34.94-1.24,56.36-14.44Z" transform="translate(-2.87 -4.44)"/><path class="e4037601-c55f-4dbd-af6b-0dde35b58906" d="M117.34,199.49,65.76,216.56l-7.21,11.12c20.86,4.23,37.54,3.52,68.66-3.87Z" transform="translate(-2.87 -4.44)"/><polygon class="e27a1e3b-ddeb-4d66-a8b8-7348aaf8da04" points="89.52 101.36 72.44 103.4 71.81 110.69 89.91 110.69 89.52 101.36"/><path class="a6657d0f-9c20-4bbb-98be-603c9dc0f52a" d="M2.87,465.25c30.84-17.82,137-19.34,173.62-1.25C176.49,464,9.54,472,2.87,465.25Z" transform="translate(-2.87 -4.44)"/><path class="ad1ea5d9-aebf-49f8-9f41-75c90eb3f6ec" d="M81.36,113.34c25.58,21.81,57.73,30.43,15.61-2.82Z" transform="translate(-2.87 -4.44)"/><path class="ad1ea5d9-aebf-49f8-9f41-75c90eb3f6ec" d="M95.11,94.67H82.5l-1.35,18c2.47,3.64,6.49,2.86,16.24-2.27Z" transform="translate(-2.87 -4.44)"/><polygon class="b8f9ae97-73e7-4022-9442-31187b05f619" points="86.06 309.05 66.69 320.37 76.27 451.25 82.79 447.9 86.06 309.05"/><polygon class="a4e5118e-2455-41b5-bbfd-b35255e42dfe" points="74.32 328.37 85.6 326.02 86.06 309.05 66.69 320.37 76.27 451.25 77.75 450.49 74.32 328.37"/><polygon class="b8f9ae97-73e7-4022-9442-31187b05f619" points="118.53 306.56 97.72 315.92 90.3 449.34 97.86 450.29 118.53 306.56"/><polygon class="a4e5118e-2455-41b5-bbfd-b35255e42dfe" points="102.99 318.66 116.78 313.33 118.5 301.11 97.82 305.34 90.3 449.34 92.43 447.9 102.99 318.66"/><path class="a57a2aff-8f0b-4461-a082-bf5500271a01" d="M119,214.3c-14.78-9.13-24.28-10.15-43.48-2.49-25.48,15.92-16.28,43.74-10,112.72l56.9-14.71C124.09,266.38,127.68,235.35,119,214.3Z" transform="translate(-2.87 -4.44)"/><path class="fa15d5dc-c556-43e4-8fa6-1fd6f4584459" d="M75.5,211.81l4.8.27c-16.51,17.39-9.38,49.67-3.73,109.6l-11,2.85C59.22,255.55,50,227.73,75.5,211.81Z" transform="translate(-2.87 -4.44)"/><polygon class="fa15d5dc-c556-43e4-8fa6-1fd6f4584459" points="118.21 208.53 67.58 202.41 58.5 229.05 117.94 214.58 118.21 208.53"/><path class="ab07473a-6d96-4f66-ae77-30ef989a2829" d="M78.93,105c-2.59-3.12-9.29-10.58-17.22.71-4.46,6.18-7.87.57-7.87.57S56,116,64.6,108C71.83,102.13,78.93,105,78.93,105Z" transform="translate(-2.87 -4.44)"/><path class="b1016e8a-5949-4963-b659-f5b60714ac2c" d="M72.48,100c2.91.89,5.18,3.46,6.45,5a14,14,0,0,0-7.48-.38Z" transform="translate(-2.87 -4.44)"/><polygon class="b35d7236-097a-4714-9705-bc0d5091128b" points="81.59 137.16 98.72 134.38 100.44 137.59 96.82 141.77 84.81 140.14 81.59 137.16"/><path class="e4037601-c55f-4dbd-af6b-0dde35b58906" d="M92.83,459.08c22.73,6.1,48.48,2.18,21.09-6.67C102.21,448.62,88,434.67,92.83,459.08Z" transform="translate(-2.87 -4.44)"/><path class="e4037601-c55f-4dbd-af6b-0dde35b58906" d="M88.71,461C86.77,472.1,66.5,469.29,72,452,75.79,440,88.27,424.6,88.71,461Z" transform="translate(-2.87 -4.44)"/><path class="b8f9ae97-73e7-4022-9442-31187b05f619" d="M75.46,449.47c-1.8,10,14.57,16.88,9.87-12.88l-6.22.47S77.29,439.29,75.46,449.47Z" transform="translate(-2.87 -4.44)"/><path class="b8f9ae97-73e7-4022-9442-31187b05f619" d="M103.32,447.53c9.13,4.7,12.49,13.51-9.36,3.23l.65-10Z" transform="translate(-2.87 -4.44)"/><path class="a4e5118e-2455-41b5-bbfd-b35255e42dfe" d="M96.06,449.8l.5-7.52-2-1.51-.65,10c11.34,5.34,15.87,5.52,16.35,3.82C107.93,454.56,103.44,453.27,96.06,449.8Z" transform="translate(-2.87 -4.44)"/><path class="a4e5118e-2455-41b5-bbfd-b35255e42dfe" d="M78.16,446.85a60,60,0,0,1,2.47-9.9l-1.52.11s-1.82,2.23-3.65,12.41c-1.21,6.76,5.79,12,9.08,5.74C81.17,456.38,77.23,452.05,78.16,446.85Z" transform="translate(-2.87 -4.44)"/><path class="a57a2aff-8f0b-4461-a082-bf5500271a01" d="M119.18,133.68,75.27,107.36,64.5,119.11c-1.88,35.1,19.12,46.38-6.26,108.73l52-16Z" transform="translate(-2.87 -4.44)"/><polygon class="fa15d5dc-c556-43e4-8fa6-1fd6f4584459" points="112.86 127.21 111.53 126.19 72.05 103.63 65 111.08 112.86 127.21"/><path class="fa15d5dc-c556-43e4-8fa6-1fd6f4584459" d="M65.46,137.15c3.5,23.23,13.3,40.26-7.22,90.69L73.93,223c13.84-38.34,10.39-49.89,3.42-64.58C73.34,150.87,68.11,140.73,65.46,137.15Z" transform="translate(-2.87 -4.44)"/><path class="a57a2aff-8f0b-4461-a082-bf5500271a01" d="M113.7,137.6l3.76-4.07L93,106.07c33.84,22,37.28,28.24,28.2,47.36-8.44,16.59-2.52,45.26,6,70.34l-19.74-13.16Z" transform="translate(-2.87 -4.44)"/><polygon class="b4783b8a-8bd8-4d32-879a-fdb92402598e" points="112.82 127.17 98.37 99.41 88.97 100.58 112.82 127.17"/><polygon class="ab07473a-6d96-4f66-ae77-30ef989a2829" points="95.78 99.8 76.83 96.51 75.57 106.38 96.48 106.63 95.78 99.8"/><polygon class="b4783b8a-8bd8-4d32-879a-fdb92402598e" points="112.74 127.09 71.81 98.23 64.76 105.04 112.74 127.09"/><polygon class="e4037601-c55f-4dbd-af6b-0dde35b58906" points="107.53 208.21 103.93 185.49 100.95 209.62 107.53 208.21"/><path class="f2254c4b-f04d-4222-b59f-e899401eb2dc" d="M111.61,156.94c.16-1.9-.47-3.5-1.42-3.58s-1.85,1.39-2,3.29.48,3.49,1.43,3.57S111.45,158.83,111.61,156.94Z" transform="translate(-2.87 -4.44)"/><path class="f2254c4b-f04d-4222-b59f-e899401eb2dc" d="M99.35,147.07c.16-1.9-.47-3.5-1.42-3.58s-1.85,1.39-2,3.29.48,3.49,1.43,3.57S99.19,149,99.35,147.07Z" transform="translate(-2.87 -4.44)"/><path class="f2254c4b-f04d-4222-b59f-e899401eb2dc" d="M111.31,178.73c0-1.9-.77-3.45-1.73-3.44s-1.72,1.53-1.72,3.44.77,3.44,1.72,3.44S111.31,180.63,111.31,178.73Z" transform="translate(-2.87 -4.44)"/><path class="b77a9188-95e7-45e3-808a-37fb04b0dfed" d="M105.55,25.74,94.9,4.44C80.73,5,69.79,8.88,53.71,15l3.37,22.46Z" transform="translate(-2.87 -4.44)"/><path class="ac911845-2eb0-461c-a6a7-dcdb9edbd2e9" d="M101.18,54.51C99.6,37.77,87.85,25.38,75,26.84S52.87,43,54.46,59.78,67.07,90.48,80,89,102.76,71.25,101.18,54.51Z" transform="translate(-2.87 -4.44)"/><path class="b4f6dff6-c5d7-44f1-8ca5-f146ae3a9711" d="M72.11,50.81c.73-10.34-4.16-19-10.93-19.44S48.34,39,47.61,49.36,51.26,69.28,58,69.68,71.38,61.14,72.11,50.81Z" transform="translate(-2.87 -4.44)"/><path class="ac911845-2eb0-461c-a6a7-dcdb9edbd2e9" d="M62.15,31.5a24.91,24.91,0,0,1,2.13,12.41C63.55,54.25,57,63.19,50.19,62.79c-.14,0-.27,0-.41-.06,1.84,4,4.71,6.74,8.24,7,6.77.4,13.36-8.54,14.09-18.87C72.81,41,68.4,32.63,62.15,31.5Z" transform="translate(-2.87 -4.44)"/><path class="b4f6dff6-c5d7-44f1-8ca5-f146ae3a9711" d="M118,36c-4.38-9.39-12.88-14.62-19-11.68s-7.51,12.92-3.14,22.31,12.87,15.65,19,12.71S122.39,45.43,118,36Z" transform="translate(-2.87 -4.44)"/><path class="b4f6dff6-c5d7-44f1-8ca5-f146ae3a9711" d="M118.08,58c-.26-16.81-9.22-29.87-22.19-29.43S72.61,43,72.87,59.81,83,91.41,96,91,118.35,74.83,118.08,58Z" transform="translate(-2.87 -4.44)"/><path class="b4f6dff6-c5d7-44f1-8ca5-f146ae3a9711" d="M113.29,37c-7.71-14.94-23.23-22.06-34.66-15.9S64.19,44.36,71.9,59.3s23.15,23.78,34.58,17.62S121,51.93,113.29,37Z" transform="translate(-2.87 -4.44)"/><path class="a39069cf-da51-4d56-adf4-11ed0f597ec7" d="M84.4,25.22c-17.52.25-27.33,22-22.53,41.67S78.13,100.06,95.5,97.51C108.83,95.38,129.85,24.58,84.4,25.22Z" transform="translate(-2.87 -4.44)"/><path class="ad1ea5d9-aebf-49f8-9f41-75c90eb3f6ec" d="M85.36,26C69.43,24.59,62,45.4,63.25,64.91,64.55,85.69,80.07,97.74,94,96.83,104.77,96.12,129.91,29.81,85.36,26Z" transform="translate(-2.87 -4.44)"/><path class="aac3c6b2-c7b1-4ddc-a830-de48a042f271" d="M77.33,61.08c-.37-2.88-1.44-5.12-2.39-5s-1.4,2.56-1,5.45,1.45,5.12,2.4,5S77.71,64,77.33,61.08Z" transform="translate(-2.87 -4.44)"/><path class="aac3c6b2-c7b1-4ddc-a830-de48a042f271" d="M101.32,60.66c.11-2.9-.57-5.29-1.52-5.32S98,57.63,97.87,60.53s.57,5.3,1.52,5.33S101.21,63.57,101.32,60.66Z" transform="translate(-2.87 -4.44)"/><path class="bee15429-97c8-41a9-8091-91c3e2afd735" d="M77.62,79.53l22.54-2S94.48,108.78,77.62,79.53Z" transform="translate(-2.87 -4.44)"/><polygon class="bb8e2180-c064-4c93-add6-baa7e5659a03" points="76.95 75.47 79.62 80.09 94.76 79.54 96.04 74.05 76.95 75.47"/><path class="a76bddc9-3c49-45eb-a74f-6635383bcd4d" d="M89.4,73.94c2,1.67,5.36-4.22,0-6.77C89.44,67.17,86.25,71.31,89.4,73.94Z" transform="translate(-2.87 -4.44)"/><path class="ad1ea5d9-aebf-49f8-9f41-75c90eb3f6ec" d="M87.76,74c2,1.67,5.37-4.22,0-6.77C87.81,67.23,84.62,71.37,87.76,74Z" transform="translate(-2.87 -4.44)"/><path class="b4f6dff6-c5d7-44f1-8ca5-f146ae3a9711" d="M77.55,52.72c1.37.83-5.88-.35-8.45,2.63C69.1,55.35,72.1,49.44,77.55,52.72Z" transform="translate(-2.87 -4.44)"/><path class="b4f6dff6-c5d7-44f1-8ca5-f146ae3a9711" d="M97.34,49.86c-1.5.56,5.83.75,7.8,4.16C105.14,54,103.3,47.65,97.34,49.86Z" transform="translate(-2.87 -4.44)"/><path class="bead388c-d0c4-4f7b-ac1f-787ccdfdd125" d="M67.79,13.15c-3.91,2.25-.78,7,3.41,7.42C71.2,20.57,72.32,10.54,67.79,13.15Z" transform="translate(-2.87 -4.44)"/><path class="b4f6dff6-c5d7-44f1-8ca5-f146ae3a9711" d="M70.69,40.82C78.13,31,85.37,24.61,82.16,22.19s-13.4.48-20.84,10.36-8.47,23.77-5.26,26.19S63.25,50.69,70.69,40.82Z" transform="translate(-2.87 -4.44)"/><path class="b4f6dff6-c5d7-44f1-8ca5-f146ae3a9711" d="M99.91,37.65c8.57,7.5,13.25,18.94,16,16s.36-16.45-8.21-24-21.8-9-24.52-6.09S91.34,30.15,99.91,37.65Z" transform="translate(-2.87 -4.44)"/><rect class="f2254c4b-f04d-4222-b59f-e899401eb2dc" x="86.31" y="135.91" width="15.98" height="4.23"/><path class="ad1ea5d9-aebf-49f8-9f41-75c90eb3f6ec" d="M53.55,146.36,46.18,136c-34.3,23.29-30.67,46,14.07,86l5-3.55C27.59,182.38,22.11,158.91,53.55,146.36Z" transform="translate(-2.87 -4.44)"/><path class="a4e5118e-2455-41b5-bbfd-b35255e42dfe" d="M46.23,145c-13.37,8.9-17.11,17.64-12.71,28.72-2.22-12,4.25-21.06,20-27.36L46.18,136c-1.8,1.22-3.47,2.44-5.06,3.67Z" transform="translate(-2.87 -4.44)"/><path class="b4783b8a-8bd8-4d32-879a-fdb92402598e" d="M76.49,145.28c3.45-12.47-2.31-20-11.28-26.32-6.59,5.58-14.61,9-20.66,14.39,1.79,8.83,5.46,16.18,15.28,22.78Z" transform="translate(-2.87 -4.44)"/><path class="ad1ea5d9-aebf-49f8-9f41-75c90eb3f6ec" d="M74.82,222.19c.38-2.12-1-2.93-5.92-3.32s-9.05-.89-9.81.74,3.27,5.87,7.94,7.08S74.17,225.84,74.82,222.19Z" transform="translate(-2.87 -4.44)"/><path class="ad1ea5d9-aebf-49f8-9f41-75c90eb3f6ec" d="M82.28,224.24c.34-.71-1.53-2.18-4.18-3.3s-5.06-1.45-5.4-.74,2,1,4.61,2.15S81.94,225,82.28,224.24Z" transform="translate(-2.87 -4.44)"/><path class="ad1ea5d9-aebf-49f8-9f41-75c90eb3f6ec" d="M76.46,213.47c-1.54-.62-2.14,1.73-5,3.18-3.1,1.6-6.78,1.25-6.63,2.12s3.91,1.22,7.26.33C75,218.34,77.15,213.74,76.46,213.47Z" transform="translate(-2.87 -4.44)"/><path class="ad1ea5d9-aebf-49f8-9f41-75c90eb3f6ec" d="M81.05,226.92c.34-.71-1.53-2.18-4.17-3.3s-5.07-1.45-5.41-.74,2,1,4.61,2.15S80.72,227.63,81.05,226.92Z" transform="translate(-2.87 -4.44)"/><path class="ad1ea5d9-aebf-49f8-9f41-75c90eb3f6ec" d="M79.29,229.65c.34-.71-1.53-2.18-4.18-3.3S70,224.9,69.7,225.6s2,1,4.61,2.15S79,230.36,79.29,229.65Z" transform="translate(-2.87 -4.44)"/><line class="aad8ac6f-1904-4987-8129-118f50a5904c" x1="175.06" y1="218.08" x2="171.61" y2="218.08"/></g></g></svg>