<svg xmlns="http://www.w3.org/2000/svg" xmlns:xlink="http://www.w3.org/1999/xlink" viewBox="0 0 400 300"><defs><style>.e332cda0-8e7e-49fa-bb4d-15c4fe203373{fill:none;}.bf8a68c8-53ce-4b0f-8a1c-c025a9c30848{isolation:isolate;}.e655fa8c-af8a-4c1b-89a8-b4fe1e86f461{fill:url(#b80508d1-9e92-4d07-abd8-7130860c6509);}.a4859809-f43a-432a-8f89-5b57523428ce{fill:#29285c;}.bbf1dc04-8a3e-4644-a505-5b3be4afc5c0{fill:#39285a;}.b9b7ab90-351e-45df-b3dc-fbc0d63d91d1{fill:#111833;}.ec58b0b0-3d2c-40a0-bace-75fd054db309{fill:#84725c;}.b58c0a71-d2e1-41bd-95ef-f430af61ace6{fill:#765c7e;}.bbae7a0c-6b6e-4616-a5af-273ce7012c0a{fill:#f2dec7;}.e66be691-0c25-4fa9-ad02-7a6d95c59d4f{fill:#dcb993;}.ad593da1-e857-4653-ba59-3603647cf61c{opacity:0.51;}.ad4d8141-cc69-43d8-9627-bb8f56e3d566{fill:#fae1c8;}.f1e126a5-34c7-45f0-bb3d-12205192bcda{fill:url(#fc639b30-165d-415f-8ea1-9ce030677cd9);}.a0d6d45a-85bf-40c9-a648-906c7fde7c73,.f80499b8-0650-4fc6-ae2b-41eb03605124,.f8647db5-a398-4a03-bdac-1c306ab182ab{mix-blend-mode:multiply;}.bc0717c0-9dcc-4ff2-b420-7b2d3eb42a6d{clip-path:url(#b49cdad7-8e97-4168-b443-45e7a6112cac);}.b843027b-c4cf-4502-87c4-d7b523737180,.f8647db5-a398-4a03-bdac-1c306ab182ab{fill:#51bcb7;}.a88bbc8a-7c01-46c2-b51e-6d45f98c7217,.b843027b-c4cf-4502-87c4-d7b523737180{opacity:0.5;}.f80499b8-0650-4fc6-ae2b-41eb03605124,.f8647db5-a398-4a03-bdac-1c306ab182ab{opacity:0.2;}.f46e326d-4c84-49a1-a512-dd8778ecb990{fill:#222226;}.a88bbc8a-7c01-46c2-b51e-6d45f98c7217{mix-blend-mode:overlay;}.fb09065c-ecf6-4d02-9273-eb423d9b1ccb{fill:#fff;}</style><radialGradient id="b80508d1-9e92-4d07-abd8-7130860c6509" cx="200" cy="150" r="250" gradientTransform="translate(40 60) scale(0.8 0.6)" gradientUnits="userSpaceOnUse"><stop offset="0" stop-color="#03384a"/><stop offset="1" stop-color="#010f1e"/></radialGradient><linearGradient id="fc639b30-165d-415f-8ea1-9ce030677cd9" x1="96.13" y1="150" x2="301.48" y2="150" gradientUnits="userSpaceOnUse"><stop offset="0" stop-color="#71fffb"/><stop offset="1" stop-color="#0068fb"/></linearGradient><clipPath id="b49cdad7-8e97-4168-b443-45e7a6112cac"><circle class="e332cda0-8e7e-49fa-bb4d-15c4fe203373" cx="198.8" cy="150" r="102.67"/></clipPath></defs><g class="bf8a68c8-53ce-4b0f-8a1c-c025a9c30848"><g id="ba01866e-bd21-43d9-a764-84207036b8a0" data-name="OBJECTS"><rect class="e655fa8c-af8a-4c1b-89a8-b4fe1e86f461" width="400" height="300"/><path class="a4859809-f43a-432a-8f89-5b57523428ce" d="M235.76,34.6a1.47,1.47,0,1,1,1.46-1.46A1.46,1.46,0,0,1,235.76,34.6Z"/><path class="a4859809-f43a-432a-8f89-5b57523428ce" d="M26.48,62.53A1.47,1.47,0,1,1,28,61.06,1.46,1.46,0,0,1,26.48,62.53Z"/><path class="a4859809-f43a-432a-8f89-5b57523428ce" d="M335.77,62.53a1.47,1.47,0,1,1,1.47-1.47A1.46,1.46,0,0,1,335.77,62.53Z"/><path class="a4859809-f43a-432a-8f89-5b57523428ce" d="M204.27,276.73a1.47,1.47,0,1,1,1.46-1.46A1.46,1.46,0,0,1,204.27,276.73Z"/><path class="a4859809-f43a-432a-8f89-5b57523428ce" d="M36.3,255.72a1.47,1.47,0,1,1,1.46-1.47A1.47,1.47,0,0,1,36.3,255.72Z"/><path class="a4859809-f43a-432a-8f89-5b57523428ce" d="M235.76,115.91a4.25,4.25,0,1,1,4.24-4.25A4.25,4.25,0,0,1,235.76,115.91Z"/><path class="a4859809-f43a-432a-8f89-5b57523428ce" d="M40.19,284.34a4.25,4.25,0,1,1,4.24-4.25A4.24,4.24,0,0,1,40.19,284.34Z"/><path class="a4859809-f43a-432a-8f89-5b57523428ce" d="M392.79,167.17a4.25,4.25,0,1,1,4.25-4.25A4.24,4.24,0,0,1,392.79,167.17Z"/><circle class="a4859809-f43a-432a-8f89-5b57523428ce" cx="123.77" cy="118.31" r="4.24"/><path class="a4859809-f43a-432a-8f89-5b57523428ce" d="M19.26,204.66a4.25,4.25,0,1,1,4.25-4.25A4.24,4.24,0,0,1,19.26,204.66Z"/><circle class="a4859809-f43a-432a-8f89-5b57523428ce" cx="328.15" cy="187.39" r="8.02" transform="translate(70.11 463.46) rotate(-76.66)"/><circle class="a4859809-f43a-432a-8f89-5b57523428ce" cx="221.27" cy="159.48" r="6.84" transform="translate(28.41 352.34) rotate(-80.78)"/><circle class="bbf1dc04-8a3e-4644-a505-5b3be4afc5c0" cx="210.97" cy="263.55" r="6.84" transform="translate(-124.57 226.37) rotate(-45)"/><path class="bbf1dc04-8a3e-4644-a505-5b3be4afc5c0" d="M369.47,272.37a3.42,3.42,0,1,1,3.42-3.42A3.42,3.42,0,0,1,369.47,272.37Z"/><circle class="bbf1dc04-8a3e-4644-a505-5b3be4afc5c0" cx="388.1" cy="45.37" r="6.84" transform="translate(337.17 432.78) rotate(-89.18)"/><circle class="bbf1dc04-8a3e-4644-a505-5b3be4afc5c0" cx="264.67" cy="224.96" r="2.3"/><path class="bbf1dc04-8a3e-4644-a505-5b3be4afc5c0" d="M75.28,144.94a2.3,2.3,0,1,1,2.3-2.3A2.3,2.3,0,0,1,75.28,144.94Z"/><circle class="bbf1dc04-8a3e-4644-a505-5b3be4afc5c0" cx="61.4" cy="186.56" r="2.3"/><path class="b9b7ab90-351e-45df-b3dc-fbc0d63d91d1" d="M369.39,17.55a3.28,3.28,0,0,0,1-2.2A4.52,4.52,0,0,0,368,11.18a3.56,3.56,0,0,0-2.5-.69,3.42,3.42,0,0,0-2.3,5.38,6.32,6.32,0,0,0,.93,1.2,8,8,0,0,0,.93.79,3.89,3.89,0,0,0,2.1.53A3.35,3.35,0,0,0,369.39,17.55Z"/><path class="b9b7ab90-351e-45df-b3dc-fbc0d63d91d1" d="M330.8,11.22a2.73,2.73,0,0,0,1.56-.75,1.94,1.94,0,0,0,.6-.81,2.69,2.69,0,0,0,.21-1.34A3.83,3.83,0,0,0,332,6.13l-.49-.31a2.36,2.36,0,0,0-1.77-.06,2.54,2.54,0,0,0-1.26,1.18,2.82,2.82,0,0,0-.57,1.9A2.7,2.7,0,0,0,330.8,11.22Z"/><path class="b9b7ab90-351e-45df-b3dc-fbc0d63d91d1" d="M318.47,50.78c0-5.48-8.52-5.71-8.52-.21S318.47,56.27,318.47,50.78Z"/><path class="b9b7ab90-351e-45df-b3dc-fbc0d63d91d1" d="M369.77,111.64a1.44,1.44,0,0,0-2.88,0A1.44,1.44,0,0,0,369.77,111.64Z"/><path class="b9b7ab90-351e-45df-b3dc-fbc0d63d91d1" d="M249.36,25.73Z"/><path class="b9b7ab90-351e-45df-b3dc-fbc0d63d91d1" d="M249.44,25.82h0l-.08-.09Z"/><path class="b9b7ab90-351e-45df-b3dc-fbc0d63d91d1" d="M253.08,26.41a2.22,2.22,0,0,0-.07-3.09l-.93-.75a2.05,2.05,0,0,0-1.62-.25,2.2,2.2,0,0,0-1.12.72,2.14,2.14,0,0,0,.1,2.78l.16.2c.14.15.27.31.4.46A2.19,2.19,0,0,0,253.08,26.41Z"/><path class="b9b7ab90-351e-45df-b3dc-fbc0d63d91d1" d="M346,223.46c0-2.15-3.35-2.42-3.35-.25S346,225.62,346,223.46Z"/><path class="b9b7ab90-351e-45df-b3dc-fbc0d63d91d1" d="M345.18,98c0-1.15-1.8-1.39-1.8-.22S345.18,99.19,345.18,98Z"/><path class="b9b7ab90-351e-45df-b3dc-fbc0d63d91d1" d="M210.22,144a6.65,6.65,0,0,0,4.4-2.49l.87-1.46a6.55,6.55,0,0,0,.48-3.42,5,5,0,0,0-.87-2.45,5,5,0,0,0-1.62-1.95,5,5,0,0,0-2.28-1.1,5.09,5.09,0,0,0-2.6-.25,6.71,6.71,0,0,0-4.4,2.5l-.86,1.45a6.58,6.58,0,0,0-.49,3.42,5,5,0,0,0,.88,2.46,6,6,0,0,0,3.9,3A4.94,4.94,0,0,0,210.22,144Z"/><path class="b9b7ab90-351e-45df-b3dc-fbc0d63d91d1" d="M251.49,196.91a6.69,6.69,0,0,0,4.4-2.49l.87-1.46a6.58,6.58,0,0,0,.48-3.42,6.78,6.78,0,0,0-7.37-5.75,6.7,6.7,0,0,0-4.4,2.49l-.86,1.46a6.55,6.55,0,0,0-.49,3.42,5,5,0,0,0,.88,2.46,4.89,4.89,0,0,0,1.62,1.94,7.26,7.26,0,0,0,4.87,1.35Z"/><path class="b9b7ab90-351e-45df-b3dc-fbc0d63d91d1" d="M245.9,88.61c0-1.63-2.53-1.92-2.53-.28S245.9,90.25,245.9,88.61Z"/><path class="b9b7ab90-351e-45df-b3dc-fbc0d63d91d1" d="M259.33,279.27a5.14,5.14,0,0,0,1.47-3.47,5.2,5.2,0,0,0-1.46-3.6,5.14,5.14,0,0,0-3.47-1.47,5.07,5.07,0,0,0-3.6,1.46,5,5,0,0,0,0,7.07,5,5,0,0,0,7.07,0Z"/><path class="b9b7ab90-351e-45df-b3dc-fbc0d63d91d1" d="M374.71,182.05a6.22,6.22,0,0,0,3-.91,8.3,8.3,0,0,0,3.91-4.93c.1-.72.21-1.45.31-2.18a7.84,7.84,0,0,0-.33-2.32c.05.07.05,0,0-.25a3.58,3.58,0,0,0-.18-.64,16.8,16.8,0,0,0-1.08-2.25,7.92,7.92,0,0,0-1.64-1.9l-1.82-1.17a8.78,8.78,0,0,0-3.62-.82,8,8,0,0,0-7.34,3.07l-.66.93c-.33.61-.66,1.22-1,1.83l-.45,2,.06,2A5.73,5.73,0,0,0,365,177.2a3.8,3.8,0,0,0,1.27,1.57,3.89,3.89,0,0,0,1.66,1.2,3.66,3.66,0,0,0,.89.48,6.13,6.13,0,0,0,2.68,1.41A6.23,6.23,0,0,0,374.71,182.05Z"/><path class="b9b7ab90-351e-45df-b3dc-fbc0d63d91d1" d="M310.75,199.22c0-3.29-5.1-3.15-5.1.13S310.75,202.49,310.75,199.22Z"/><path class="b9b7ab90-351e-45df-b3dc-fbc0d63d91d1" d="M251.26,197.65a4.58,4.58,0,0,0,1.52-1.21,3.86,3.86,0,0,0,.72-2.68,3.39,3.39,0,0,0,.28-.71,3.7,3.7,0,0,0,.13-1.38,2.47,2.47,0,0,0-.11-1.86l-.38.11c0-.08-.06-.17-.1-.26V190l-8.05,2.28a4.7,4.7,0,0,0,.32,2.4,5.1,5.1,0,0,0,1.18,1.92,4.26,4.26,0,0,0,2.1,1.29A3.55,3.55,0,0,0,251.26,197.65Z"/><path class="b9b7ab90-351e-45df-b3dc-fbc0d63d91d1" d="M217.19,95.43a4.44,4.44,0,0,0,1.51-1.21,3.87,3.87,0,0,0,.73-2.68,3.75,3.75,0,0,0,.28-.71,3.7,3.7,0,0,0,.13-1.38,2.47,2.47,0,0,0-.11-1.86l-.38.11c0-.08-.07-.17-.1-.26l0,.29-8,2.28a4.6,4.6,0,0,0,.32,2.4,4.86,4.86,0,0,0,1.18,1.92,4.28,4.28,0,0,0,2.09,1.29A3.57,3.57,0,0,0,217.19,95.43Z"/><path class="b9b7ab90-351e-45df-b3dc-fbc0d63d91d1" d="M317.45,126.37c0-6-9.26-6.18-9.26-.21S317.45,132.34,317.45,126.37Z"/><path class="b9b7ab90-351e-45df-b3dc-fbc0d63d91d1" d="M335.4,101.38a2.16,2.16,0,0,0-.66-1.64,2.13,2.13,0,0,0-1.91-.68l-1.51.74a1.85,1.85,0,0,0-.85,1.36,1.69,1.69,0,0,0,.51,1.49,2,2,0,0,0,1.34.9l.45.1A2.31,2.31,0,0,0,335.4,101.38Z"/><path class="b9b7ab90-351e-45df-b3dc-fbc0d63d91d1" d="M320.93,176.5c0-5.31-8.28-6.18-8.28-.82S320.93,181.86,320.93,176.5Z"/><path class="b9b7ab90-351e-45df-b3dc-fbc0d63d91d1" d="M149.29,285.47c0-4.41-6.89-5-6.89-.58S149.29,289.94,149.29,285.47Z"/><path class="b9b7ab90-351e-45df-b3dc-fbc0d63d91d1" d="M158.54,195.66c0-4.42-6.88-5-6.88-.59S158.54,200.12,158.54,195.66Z"/><path class="b9b7ab90-351e-45df-b3dc-fbc0d63d91d1" d="M160.4,89.07a8.34,8.34,0,0,0,2.69-3.33,8.55,8.55,0,0,0,.67-4.41c-.69-3.39-2.33-5.62-4.91-6.66a9.34,9.34,0,0,0-3.72-.76,6,6,0,0,0-3.09.42,6.14,6.14,0,0,0-2.74,1.43l-1.43,1.54a6.22,6.22,0,0,0-1.24,3,4,4,0,0,0-.18,2.12,6.21,6.21,0,0,0,.69,3,8.77,8.77,0,0,0,4.58,4.19L152,90A8.34,8.34,0,0,0,160.4,89.07Z"/><path class="b9b7ab90-351e-45df-b3dc-fbc0d63d91d1" d="M128.94,147.54a9,9,0,0,0,1.64,0,8.66,8.66,0,0,0,7.44-4.95c.21-.72.42-1.44.62-2.16a8.28,8.28,0,0,0-.51-4.35l-1-1.88a9.24,9.24,0,0,0-1.33-1.39c.07,0,0,0-.17-.15l0,0h0a8.12,8.12,0,0,0-1.54-1l-.34-.18a4.37,4.37,0,0,0-2.32-.67,8.81,8.81,0,0,0-4.66.59,6.27,6.27,0,0,0-2.61,1.86,6.39,6.39,0,0,0-1.86,2.65,6.46,6.46,0,0,0-.56,3.32,6.28,6.28,0,0,0,.6,3.23,8.52,8.52,0,0,0,4.51,4.46l.85.23a7.13,7.13,0,0,0,1.1.29Z"/><path class="b9b7ab90-351e-45df-b3dc-fbc0d63d91d1" d="M51,235.94a8.2,8.2,0,0,0,1.64,0,6.18,6.18,0,0,0,2.89-.54,6.33,6.33,0,0,0,2.65-1.8A6.35,6.35,0,0,0,60,231c.21-.72.41-1.44.62-2.16a8.32,8.32,0,0,0-.51-4.36l-1-1.87a8.86,8.86,0,0,0-1.33-1.4c.06,0,0,0-.17-.15l0,0h0a8.61,8.61,0,0,0-1.54-.95l-.35-.19a4.28,4.28,0,0,0-2.31-.67,8.81,8.81,0,0,0-4.66.6,6.43,6.43,0,0,0-2.62,1.85,7.56,7.56,0,0,0-2.41,6,6.26,6.26,0,0,0,.6,3.23,8.48,8.48,0,0,0,4.51,4.46l.85.23a6.15,6.15,0,0,0,1.1.29Z"/><path class="b9b7ab90-351e-45df-b3dc-fbc0d63d91d1" d="M212.42,52.35A5.19,5.19,0,0,0,216,50.5l.7-1.13a5.16,5.16,0,0,0,.45-2.57,4,4,0,0,0-.6-1.91,4,4,0,0,0-1.26-1.62A5.13,5.13,0,0,0,208,44l-.7,1.12a5.18,5.18,0,0,0-.45,2.57,3.85,3.85,0,0,0,.61,1.91,3.75,3.75,0,0,0,1.25,1.62A5.2,5.2,0,0,0,212.42,52.35Z"/><path class="b9b7ab90-351e-45df-b3dc-fbc0d63d91d1" d="M171.28,47.67a5.2,5.2,0,0,0,3.53-1.86c.24-.37.47-.75.71-1.13a5,5,0,0,0,.44-2.56,3.81,3.81,0,0,0-.6-1.92,3.86,3.86,0,0,0-1.25-1.62,5.13,5.13,0,0,0-7.23.71l-.7,1.13a5.12,5.12,0,0,0-.45,2.56,3.81,3.81,0,0,0,.6,1.92,4,4,0,0,0,1.26,1.62A5.25,5.25,0,0,0,171.28,47.67Z"/><path class="b9b7ab90-351e-45df-b3dc-fbc0d63d91d1" d="M100.26,41.86a3.52,3.52,0,0,0,1.06-1.51,4.71,4.71,0,0,0,.35-2.43c.07.69.1.83.11.41a5,5,0,0,0-1.21-3.62,4.91,4.91,0,0,0-6.93-.44l-.84,1A4.88,4.88,0,0,0,92,37.59a7.8,7.8,0,0,0,.44,2.7c.21.37.42.75.64,1.12a4.63,4.63,0,0,0,3.76,1.85A4.58,4.58,0,0,0,100.26,41.86Z"/><path class="b9b7ab90-351e-45df-b3dc-fbc0d63d91d1" d="M26.25,92.18c0-4.18-6.48-4.07-6.48.1S26.25,96.36,26.25,92.18Z"/><path class="b9b7ab90-351e-45df-b3dc-fbc0d63d91d1" d="M66.67,109.78c0-4.24-6.57-3.9-6.57.33S66.67,114,66.67,109.78Z"/><path class="b9b7ab90-351e-45df-b3dc-fbc0d63d91d1" d="M220.75,223a5.28,5.28,0,0,0,4.58-3.67,11.67,11.67,0,0,0,.36-1.32,6.57,6.57,0,0,0-.06-2.46,7.47,7.47,0,0,0-3.78-4.94,7.94,7.94,0,0,0-7,.46,7,7,0,0,0-2.92,7.71c.54,2.42,2.56,4.89,5.1,5.31A4.08,4.08,0,0,0,220.75,223Z"/><path class="b9b7ab90-351e-45df-b3dc-fbc0d63d91d1" d="M392.77,252.55a6.32,6.32,0,0,0,4.17-2.09c.29-.45.59-.89.89-1.34a6.18,6.18,0,0,0,.62-3.22,4.55,4.55,0,0,0-.69-2.28,4.64,4.64,0,0,0-1.4-1.89,4.51,4.51,0,0,0-2.12-1.15,4.61,4.61,0,0,0-2.44-.36,6.23,6.23,0,0,0-4.16,2.09c-.3.44-.6.88-.89,1.33a6.19,6.19,0,0,0-.63,3.22,6.92,6.92,0,0,0,2.09,4.17,4.66,4.66,0,0,0,2.12,1.16A4.83,4.83,0,0,0,392.77,252.55Z"/><path class="b9b7ab90-351e-45df-b3dc-fbc0d63d91d1" d="M344.94,261.63c0-5.24-8.2-6.31-8.2-1S344.94,266.94,344.94,261.63Z"/><path class="b9b7ab90-351e-45df-b3dc-fbc0d63d91d1" d="M384.08,73.92a7.5,7.5,0,0,0,.1-10.61,8.4,8.4,0,0,0-5.28-2.25,7.59,7.59,0,0,0-5.33,2.15,7.5,7.5,0,0,0-.1,10.61A5.6,5.6,0,0,0,376,75.43a5.49,5.49,0,0,0,2.79.64A7.51,7.51,0,0,0,384.08,73.92Z"/><path class="b9b7ab90-351e-45df-b3dc-fbc0d63d91d1" d="M127.63,249.88c0-4.2-6.51-4-6.51.16S127.63,254.07,127.63,249.88Z"/><path class="b9b7ab90-351e-45df-b3dc-fbc0d63d91d1" d="M12.54,46.36a3.53,3.53,0,0,0,2.22-1.48,3.39,3.39,0,0,0,.53-2.58,3.39,3.39,0,0,0-.13-1.24,3.31,3.31,0,0,0-1.55-2A2.92,2.92,0,0,0,11,38.88l-.71.4a3,3,0,0,0-1,1.24c.56-1.17.58-1.43.06-.77a2.68,2.68,0,0,0-.75,1.17A8,8,0,0,0,8.36,42a4.11,4.11,0,0,0,.07,1.6,3.7,3.7,0,0,0,1.49,2.22A3.56,3.56,0,0,0,12.54,46.36Z"/><path class="b9b7ab90-351e-45df-b3dc-fbc0d63d91d1" d="M51.74,39.85A2.48,2.48,0,0,0,51,38.79,3.42,3.42,0,0,0,49.55,38h0a3,3,0,0,0-4,3.82Q53.51,43.16,51.74,39.85Z"/><path class="b9b7ab90-351e-45df-b3dc-fbc0d63d91d1" d="M11.72,159.74A8.08,8.08,0,0,0,17,156.86L18.16,155a8,8,0,0,0,.64-4.15,6,6,0,0,0-1-2.89,6.08,6.08,0,0,0-1.91-2.42,6.09,6.09,0,0,0-2.87-1.43,6,6,0,0,0-3.11-.34,8.08,8.08,0,0,0-5.31,2.88L3.5,148.51a8,8,0,0,0-.64,4.15,6.11,6.11,0,0,0,1,2.89A6.08,6.08,0,0,0,5.74,158a6,6,0,0,0,2.87,1.43A6,6,0,0,0,11.72,159.74Z"/><path class="b9b7ab90-351e-45df-b3dc-fbc0d63d91d1" d="M45.82,162.47a2.28,2.28,0,0,0,.91-1.46,2.24,2.24,0,0,0-.4-1.72c-.13-.15-.26-.29-.4-.43a2.28,2.28,0,0,0-1.06-.48l-2,.41a2.06,2.06,0,0,0,.23,3.77c.32.11.65.22,1,.31A2.24,2.24,0,0,0,45.82,162.47Z"/><path class="b9b7ab90-351e-45df-b3dc-fbc0d63d91d1" d="M104.16,217.43l1.14-.23.62-.31a2,2,0,0,0,.69-.73,2.55,2.55,0,0,0,.43-1.59,2.65,2.65,0,0,0-2.09-2.38l-.89-.15a2.72,2.72,0,1,0,.1,5.39Z"/><path class="b9b7ab90-351e-45df-b3dc-fbc0d63d91d1" d="M95.49,181.55a2.29,2.29,0,0,0,1.21-.76A4.23,4.23,0,0,0,97.88,178a4,4,0,0,0-1.12-2.75,4.08,4.08,0,0,0-4.46-.79l-.3.13-.13.09-.12.08a5.19,5.19,0,0,0-.46.36l-.09.07h0a.81.81,0,0,0-.14.12,4.67,4.67,0,0,0-1.24,3.18,4,4,0,0,0,2.84,4A2.47,2.47,0,0,0,95.49,181.55Z"/><path class="b9b7ab90-351e-45df-b3dc-fbc0d63d91d1" d="M68.11,274.32a4.09,4.09,0,0,0,1.49-2.82,4.47,4.47,0,0,0-.95-3.05A4.21,4.21,0,0,0,65.83,267a4.25,4.25,0,0,0-3,.94,4.1,4.1,0,0,0-1.48,2.82,4.46,4.46,0,0,0,.94,3,4.21,4.21,0,0,0,2.82,1.49A4.25,4.25,0,0,0,68.11,274.32Z"/><path class="b9b7ab90-351e-45df-b3dc-fbc0d63d91d1" d="M301.5,258.73a7.75,7.75,0,0,0,5.14-2.84c.35-.59.7-1.18,1.06-1.77a7.69,7.69,0,0,0,.56-3.88,8.46,8.46,0,0,0-2.84-5.13,8.5,8.5,0,0,0-5.64-1.63,7.72,7.72,0,0,0-5.14,2.85l-1.05,1.76A7.6,7.6,0,0,0,293,252a5.8,5.8,0,0,0,.94,2.78,5.88,5.88,0,0,0,1.9,2.36,5.81,5.81,0,0,0,2.73,1.32A5.74,5.74,0,0,0,301.5,258.73Z"/><path class="b9b7ab90-351e-45df-b3dc-fbc0d63d91d1" d="M215,99.85A7.67,7.67,0,0,0,220.13,97c.35-.59.7-1.18,1.06-1.76a7.7,7.7,0,0,0,.56-3.88,5.7,5.7,0,0,0-.94-2.78,5.88,5.88,0,0,0-1.9-2.36,5.73,5.73,0,0,0-2.72-1.32,5.79,5.79,0,0,0-2.92-.3,7.75,7.75,0,0,0-5.14,2.84l-1.06,1.77a7.65,7.65,0,0,0-.56,3.87,8.52,8.52,0,0,0,2.84,5.14,5.84,5.84,0,0,0,2.72,1.33A5.68,5.68,0,0,0,215,99.85Z"/><path class="b9b7ab90-351e-45df-b3dc-fbc0d63d91d1" d="M174.94,42.66a3.92,3.92,0,0,0-1.24-2.48l.05.09a2.58,2.58,0,0,0-.32-.34,4,4,0,0,0-5.69.34,4.46,4.46,0,0,0-1,3L174,45.37A3.66,3.66,0,0,0,174.94,42.66Z"/><path class="ec58b0b0-3d2c-40a0-bace-75fd054db309" d="M209.91,7.65a1.22,1.22,0,1,1,0-2.43,1.22,1.22,0,0,1,0,2.43Z"/><path class="ec58b0b0-3d2c-40a0-bace-75fd054db309" d="M179.86,208.2a1.22,1.22,0,0,1,0-2.43,1.22,1.22,0,1,1,0,2.43Z"/><path class="ec58b0b0-3d2c-40a0-bace-75fd054db309" d="M310.75,165.85a1.22,1.22,0,1,1,1.21-1.21A1.21,1.21,0,0,1,310.75,165.85Z"/><circle class="b58c0a71-d2e1-41bd-95ef-f430af61ace6" cx="197.69" cy="36.59" r="3.45"/><path class="b58c0a71-d2e1-41bd-95ef-f430af61ace6" d="M41.76,140.89a3.46,3.46,0,1,1,3.46-3.46A3.46,3.46,0,0,1,41.76,140.89Z"/><path class="ec58b0b0-3d2c-40a0-bace-75fd054db309" d="M279.32,90.62a6.08,6.08,0,1,1,6.07-6.08A6.08,6.08,0,0,1,279.32,90.62Z"/><path class="b58c0a71-d2e1-41bd-95ef-f430af61ace6" d="M96.89,77.32a3.46,3.46,0,1,1,3.45-3.46A3.45,3.45,0,0,1,96.89,77.32Z"/><path class="ec58b0b0-3d2c-40a0-bace-75fd054db309" d="M209.91,209.61a1.21,1.21,0,1,1,1.21-1.21A1.22,1.22,0,0,1,209.91,209.61Z"/><path class="ec58b0b0-3d2c-40a0-bace-75fd054db309" d="M378.66,201.63a1.22,1.22,0,1,1,0-2.43,1.22,1.22,0,0,1,0,2.43Z"/><path class="ec58b0b0-3d2c-40a0-bace-75fd054db309" d="M355.42,160.22a1.22,1.22,0,1,1,1.21-1.21A1.21,1.21,0,0,1,355.42,160.22Z"/><circle class="ec58b0b0-3d2c-40a0-bace-75fd054db309" cx="197.69" cy="238.56" r="3.45"/><path class="ec58b0b0-3d2c-40a0-bace-75fd054db309" d="M328.15,230.09a3.46,3.46,0,1,1,3.45-3.46A3.46,3.46,0,0,1,328.15,230.09Z"/><path class="b58c0a71-d2e1-41bd-95ef-f430af61ace6" d="M279.32,292.58a6.08,6.08,0,1,1,6.07-6.07A6.08,6.08,0,0,1,279.32,292.58Z"/><path class="b58c0a71-d2e1-41bd-95ef-f430af61ace6" d="M96.89,279.28a3.46,3.46,0,1,1,3.45-3.45A3.45,3.45,0,0,1,96.89,279.28Z"/><circle class="b58c0a71-d2e1-41bd-95ef-f430af61ace6" cx="13.78" cy="235.1" r="3.45"/><circle class="b58c0a71-d2e1-41bd-95ef-f430af61ace6" cx="127.88" cy="233.14" r="9.66"/><circle class="bbae7a0c-6b6e-4616-a5af-273ce7012c0a" cx="255.84" cy="140.57" r="6.07"/><path class="e66be691-0c25-4fa9-ad02-7a6d95c59d4f" d="M191.85,12.4a4.75,4.75,0,0,1,4.75-4.75,4.75,4.75,0,0,1-4.75-4.76,4.76,4.76,0,0,1-4.76,4.76A4.76,4.76,0,0,1,191.85,12.4Z"/><path class="e66be691-0c25-4fa9-ad02-7a6d95c59d4f" d="M392.79,96.35a4.76,4.76,0,0,1,4.76-4.76,4.76,4.76,0,0,1-4.76-4.75A4.75,4.75,0,0,1,388,91.59,4.75,4.75,0,0,1,392.79,96.35Z"/><path class="bbae7a0c-6b6e-4616-a5af-273ce7012c0a" d="M166.74,167.68a4.76,4.76,0,0,1,4.76-4.76,4.76,4.76,0,0,1-4.76-4.75,4.75,4.75,0,0,1-4.75,4.75A4.76,4.76,0,0,1,166.74,167.68Z"/><circle class="bbae7a0c-6b6e-4616-a5af-273ce7012c0a" cx="52.06" cy="82.29" r="4.75"/><path class="bbae7a0c-6b6e-4616-a5af-273ce7012c0a" d="M291.41,23.93a4.76,4.76,0,0,1,4.76-4.75,4.76,4.76,0,0,1-4.76-4.76,4.76,4.76,0,0,1-4.75,4.76A4.75,4.75,0,0,1,291.41,23.93Z"/><g class="ad593da1-e857-4653-ba59-3603647cf61c"><circle class="ad4d8141-cc69-43d8-9627-bb8f56e3d566" cx="83.32" cy="8.79" r="6.29" transform="translate(18.19 61.49) rotate(-45)"/></g></g><g id="b97043b0-51f9-4aae-8b5e-3e33469c44b3" data-name="Uranus"><circle class="f1e126a5-34c7-45f0-bb3d-12205192bcda" cx="198.8" cy="150" r="102.67"/><g class="a0d6d45a-85bf-40c9-a648-906c7fde7c73"><g class="bc0717c0-9dcc-4ff2-b420-7b2d3eb42a6d"><path class="b843027b-c4cf-4502-87c4-d7b523737180" d="M127.86,67.08c62.11,3.75,125.23-5,182.63-25.39C242.11,93.29,141.09,106.85,51.84,89c21.38,9.25,46,11.31,70,12.19,75.2,2.74,155.3-6.11,214.22-45.65-7.32,22.44-34,35.84-58.86,45.86-34.2,13.76-69.82,25.64-107.17,31s-76.7,3.95-111.76-8.16c81.61,30.19,177.17,20.8,260.52-5.78-67.7,36-150.45,51.24-229.75,42.43,61.93,9.93,129,17.09,185.54-6.4-44.68,20.95-96.72,30.52-147.68,27.17a336.84,336.84,0,0,0,128.72-3.83c-36.29,19.95-82.66,19.44-126,18.24,69.3,15.34,147,.54,201.75-38.44-4.65,30.74-38.76,51.53-71.12,66.16-21.06,9.52-43,18.17-66.33,22.37-39.61,7.11-83,.33-115.29-20.36s-51.85-55.52-47.6-89.52C33.94,113.58,44.27,80.89,71,71.06,90.81,63.77,107.29,65.84,127.86,67.08Z"/><path class="f8647db5-a398-4a03-bdac-1c306ab182ab" d="M273.15,63.47c-22.13-7.08-44.21-11.66-68-8.13-20.77,3.08-40,11.36-61.48,11.47-7.67,0-94.9,3-94.56-.74-.23,2.57,2.92,4.49,5.78,5.82,25.66,11.93,56.2,16.81,86.15,16.18s59.4-6.56,87.3-15c-39.48,25-90.9,38.6-142,37.45,58.36,5.6,120.21,5.26,172.66-15.26a108.68,108.68,0,0,1-34,19.66c-12.54,4.57-26.1,7.2-39.66,9.39a687.49,687.49,0,0,1-80.25,8.18c58.13,5.45,119.09,3.91,172.38-14.82-35.75,17-72,31.77-113.41,38.86,18.68-3.2,40-3.48,58.86-4.51,21.37-1.16,43.37-6.13,63.41-11.75-18,18.44-46.47,29.26-75.38,35.26s-58.95,7.8-88.39,12c27.92,5.42,57.45,4.23,85.64-.3s55.29-12.29,82.28-20c-19,14.38-43.75,23.54-69.34,29.16s-52.17,7.91-78.61,10.18c13.69,8.45,32.59,9.46,50.11,9.05a427.15,427.15,0,0,0,74.15-8.27c-42.14,21.13-94.5,29.79-144.16,23.84,17,8.5,38.67,9.13,58.84,7.55a300.84,300.84,0,0,0,94.62-22.93c13.81-5.93,27-13,37.28-22.28A85.18,85.18,0,0,0,334.24,164c10.69-24.56,9.8-53.71-10.93-74.1C310.67,77.48,292.07,69.52,273.15,63.47Z"/></g></g><g class="f80499b8-0650-4fc6-ae2b-41eb03605124"><path class="f46e326d-4c84-49a1-a512-dd8778ecb990" d="M213.58,241.74A102.66,102.66,0,0,1,145.51,62.22,102.67,102.67,0,1,0,266.87,226.84,102.14,102.14,0,0,1,213.58,241.74Z"/></g><g class="a88bbc8a-7c01-46c2-b51e-6d45f98c7217"><path class="fb09065c-ecf6-4d02-9273-eb423d9b1ccb" d="M275.74,218A102.63,102.63,0,0,0,211.36,48.12,93.35,93.35,0,1,0,275.74,218Z"/></g></g></g></svg>