<svg xmlns="http://www.w3.org/2000/svg" xmlns:xlink="http://www.w3.org/1999/xlink" viewBox="0 0 400 300"><defs><style>.eb6caf98-22e1-405b-b0bc-50ce78b14a6c{fill:none;}.a384c78c-14d4-4bb3-b745-252d71abe5ff{isolation:isolate;}.b448a2a7-1928-4788-a844-2044fc8f306c{fill:url(#e2c2809a-7d5f-46bb-a723-6c9dd012e91b);}.e6e51941-9b63-4f6a-b333-cdb591c6ac95{fill:#29285c;}.f9515170-705e-4449-86a6-3627a00acf93{fill:#39285a;}.f460bebe-8a2a-45bc-acfa-8094558b619d{fill:#111833;}.fbc255cf-9fd1-4517-82b9-79a41c3b65df{fill:#84725c;}.eda53af6-fa98-4526-96ef-6e9aa0545eef{fill:#765c7e;}.a864bd78-39f2-4d75-b6ad-6083590178cd{fill:#f2dec7;}.e62c3a02-b1be-42be-87e1-2b01b243fe12{fill:#dcb993;}.abd43651-5286-43e4-ada4-bec6a06b885c{opacity:0.51;}.bb379cbe-f992-4a41-97a9-9d3f0dffd624{fill:#fae1c8;}.a94cf527-feb5-4930-aabf-01c4ffb2ff29,.e2c85049-c1c1-4089-8279-a79b33f64f17{fill:#ffd0a6;}.be10e642-d586-4d7f-8d26-01505b83e7a8{fill:url(#ac29831f-80fc-4456-80f5-0c3f2fc920b6);}.e558c92a-1948-49ab-a4b4-174595de2baa{opacity:0.5;}.a94cf527-feb5-4930-aabf-01c4ffb2ff29,.bbd3be1a-d248-4c6d-88bb-25d20f03f1b0,.e558c92a-1948-49ab-a4b4-174595de2baa{mix-blend-mode:multiply;}.b930a7fa-abbe-4371-969d-3116b2dc0c29{clip-path:url(#aea0031a-4229-44dd-af4e-2c3c2ca348be);}.bbd3be1a-d248-4c6d-88bb-25d20f03f1b0,.ee121dfb-edf8-4c37-8a7a-1f9ee1fa8a9f{opacity:0.2;}.ba235753-c7fb-40bc-bb94-ac7112e468e9{fill:#222226;}.ee121dfb-edf8-4c37-8a7a-1f9ee1fa8a9f{mix-blend-mode:overlay;}.abdfd28e-aa5c-4a0c-afaa-f8edc0d853db{fill:#fff;}</style><radialGradient id="e2c2809a-7d5f-46bb-a723-6c9dd012e91b" cx="200" cy="150" r="250" gradientTransform="translate(40 60) scale(0.8 0.6)" gradientUnits="userSpaceOnUse"><stop offset="0" stop-color="#03384a"/><stop offset="1" stop-color="#010f1e"/></radialGradient><linearGradient id="ac29831f-80fc-4456-80f5-0c3f2fc920b6" x1="89.05" y1="144.27" x2="371.44" y2="158.85" gradientTransform="translate(164.64 -97.49) rotate(45)" gradientUnits="userSpaceOnUse"><stop offset="0" stop-color="#ffd0a6"/><stop offset="0.99" stop-color="#ff77a6"/></linearGradient><clipPath id="aea0031a-4229-44dd-af4e-2c3c2ca348be"><circle class="eb6caf98-22e1-405b-b0bc-50ce78b14a6c" cx="200" cy="150" r="109.95" transform="translate(-47.49 185.36) rotate(-45)"/></clipPath></defs><g class="a384c78c-14d4-4bb3-b745-252d71abe5ff"><g id="bab8cac8-36a6-495a-ba7e-2bf50fd1f628" data-name="OBJECTS"><rect class="b448a2a7-1928-4788-a844-2044fc8f306c" width="400" height="300"/><path class="e6e51941-9b63-4f6a-b333-cdb591c6ac95" d="M235.76,34.6a1.47,1.47,0,1,1,1.46-1.46A1.46,1.46,0,0,1,235.76,34.6Z"/><path class="e6e51941-9b63-4f6a-b333-cdb591c6ac95" d="M26.48,62.53A1.47,1.47,0,1,1,28,61.06,1.46,1.46,0,0,1,26.48,62.53Z"/><path class="e6e51941-9b63-4f6a-b333-cdb591c6ac95" d="M335.77,62.53a1.47,1.47,0,1,1,1.47-1.47A1.46,1.46,0,0,1,335.77,62.53Z"/><path class="e6e51941-9b63-4f6a-b333-cdb591c6ac95" d="M204.27,276.73a1.47,1.47,0,1,1,1.46-1.46A1.46,1.46,0,0,1,204.27,276.73Z"/><path class="e6e51941-9b63-4f6a-b333-cdb591c6ac95" d="M36.3,255.72a1.47,1.47,0,1,1,1.46-1.47A1.47,1.47,0,0,1,36.3,255.72Z"/><path class="e6e51941-9b63-4f6a-b333-cdb591c6ac95" d="M235.76,115.91a4.25,4.25,0,1,1,4.24-4.25A4.25,4.25,0,0,1,235.76,115.91Z"/><path class="e6e51941-9b63-4f6a-b333-cdb591c6ac95" d="M40.19,284.34a4.25,4.25,0,1,1,4.24-4.25A4.24,4.24,0,0,1,40.19,284.34Z"/><path class="e6e51941-9b63-4f6a-b333-cdb591c6ac95" d="M392.79,167.17a4.25,4.25,0,1,1,4.25-4.25A4.24,4.24,0,0,1,392.79,167.17Z"/><circle class="e6e51941-9b63-4f6a-b333-cdb591c6ac95" cx="123.77" cy="118.31" r="4.24"/><path class="e6e51941-9b63-4f6a-b333-cdb591c6ac95" d="M19.26,204.66a4.25,4.25,0,1,1,4.25-4.25A4.24,4.24,0,0,1,19.26,204.66Z"/><circle class="e6e51941-9b63-4f6a-b333-cdb591c6ac95" cx="328.15" cy="187.39" r="8.02" transform="translate(70.11 463.46) rotate(-76.66)"/><circle class="e6e51941-9b63-4f6a-b333-cdb591c6ac95" cx="221.27" cy="159.48" r="6.84" transform="translate(28.41 352.34) rotate(-80.78)"/><circle class="f9515170-705e-4449-86a6-3627a00acf93" cx="210.97" cy="263.55" r="6.84" transform="translate(-124.57 226.37) rotate(-45)"/><path class="f9515170-705e-4449-86a6-3627a00acf93" d="M369.47,272.37a3.42,3.42,0,1,1,3.42-3.42A3.42,3.42,0,0,1,369.47,272.37Z"/><circle class="f9515170-705e-4449-86a6-3627a00acf93" cx="388.1" cy="45.37" r="6.84" transform="translate(337.17 432.78) rotate(-89.18)"/><circle class="f9515170-705e-4449-86a6-3627a00acf93" cx="264.67" cy="224.96" r="2.3"/><path class="f9515170-705e-4449-86a6-3627a00acf93" d="M75.28,144.94a2.3,2.3,0,1,1,2.3-2.3A2.3,2.3,0,0,1,75.28,144.94Z"/><circle class="f9515170-705e-4449-86a6-3627a00acf93" cx="61.4" cy="186.56" r="2.3"/><path class="f460bebe-8a2a-45bc-acfa-8094558b619d" d="M369.39,17.55a3.28,3.28,0,0,0,1-2.2A4.52,4.52,0,0,0,368,11.18a3.56,3.56,0,0,0-2.5-.69,3.42,3.42,0,0,0-2.3,5.38,6.32,6.32,0,0,0,.93,1.2,8,8,0,0,0,.93.79,3.89,3.89,0,0,0,2.1.53A3.35,3.35,0,0,0,369.39,17.55Z"/><path class="f460bebe-8a2a-45bc-acfa-8094558b619d" d="M330.8,11.22a2.73,2.73,0,0,0,1.56-.75,1.94,1.94,0,0,0,.6-.81,2.69,2.69,0,0,0,.21-1.34A3.83,3.83,0,0,0,332,6.13l-.49-.31a2.36,2.36,0,0,0-1.77-.06,2.54,2.54,0,0,0-1.26,1.18,2.82,2.82,0,0,0-.57,1.9A2.7,2.7,0,0,0,330.8,11.22Z"/><path class="f460bebe-8a2a-45bc-acfa-8094558b619d" d="M318.47,50.78c0-5.48-8.52-5.71-8.52-.21S318.47,56.27,318.47,50.78Z"/><path class="f460bebe-8a2a-45bc-acfa-8094558b619d" d="M369.77,111.64a1.44,1.44,0,0,0-2.88,0A1.44,1.44,0,0,0,369.77,111.64Z"/><path class="f460bebe-8a2a-45bc-acfa-8094558b619d" d="M249.36,25.73Z"/><path class="f460bebe-8a2a-45bc-acfa-8094558b619d" d="M249.44,25.82h0l-.08-.09Z"/><path class="f460bebe-8a2a-45bc-acfa-8094558b619d" d="M253.08,26.41a2.22,2.22,0,0,0-.07-3.09l-.93-.75a2.05,2.05,0,0,0-1.62-.25,2.2,2.2,0,0,0-1.12.72,2.14,2.14,0,0,0,.1,2.78l.16.2c.14.15.27.31.4.46A2.19,2.19,0,0,0,253.08,26.41Z"/><path class="f460bebe-8a2a-45bc-acfa-8094558b619d" d="M346,223.46c0-2.15-3.35-2.42-3.35-.25S346,225.62,346,223.46Z"/><path class="f460bebe-8a2a-45bc-acfa-8094558b619d" d="M345.18,98c0-1.15-1.8-1.39-1.8-.22S345.18,99.19,345.18,98Z"/><path class="f460bebe-8a2a-45bc-acfa-8094558b619d" d="M210.22,144a6.65,6.65,0,0,0,4.4-2.49l.87-1.46a6.55,6.55,0,0,0,.48-3.42,5,5,0,0,0-.87-2.45,5,5,0,0,0-1.62-1.95,5,5,0,0,0-2.28-1.1,5.09,5.09,0,0,0-2.6-.25,6.71,6.71,0,0,0-4.4,2.5l-.86,1.45a6.58,6.58,0,0,0-.49,3.42,5,5,0,0,0,.88,2.46,6,6,0,0,0,3.9,3A4.94,4.94,0,0,0,210.22,144Z"/><path class="f460bebe-8a2a-45bc-acfa-8094558b619d" d="M251.49,196.91a6.69,6.69,0,0,0,4.4-2.49l.87-1.46a6.58,6.58,0,0,0,.48-3.42,6.78,6.78,0,0,0-7.37-5.75,6.7,6.7,0,0,0-4.4,2.49l-.86,1.46a6.55,6.55,0,0,0-.49,3.42,5,5,0,0,0,.88,2.46,4.89,4.89,0,0,0,1.62,1.94,7.26,7.26,0,0,0,4.87,1.35Z"/><path class="f460bebe-8a2a-45bc-acfa-8094558b619d" d="M245.9,88.61c0-1.63-2.53-1.92-2.53-.28S245.9,90.25,245.9,88.61Z"/><path class="f460bebe-8a2a-45bc-acfa-8094558b619d" d="M259.33,279.27a5.14,5.14,0,0,0,1.47-3.47,5.2,5.2,0,0,0-1.46-3.6,5.14,5.14,0,0,0-3.47-1.47,5.07,5.07,0,0,0-3.6,1.46,5,5,0,0,0,0,7.07,5,5,0,0,0,7.07,0Z"/><path class="f460bebe-8a2a-45bc-acfa-8094558b619d" d="M374.71,182.05a6.22,6.22,0,0,0,3-.91,8.3,8.3,0,0,0,3.91-4.93c.1-.72.21-1.45.31-2.18a7.84,7.84,0,0,0-.33-2.32c.05.07.05,0,0-.25a3.58,3.58,0,0,0-.18-.64,16.8,16.8,0,0,0-1.08-2.25,7.92,7.92,0,0,0-1.64-1.9l-1.82-1.17a8.78,8.78,0,0,0-3.62-.82,8,8,0,0,0-7.34,3.07l-.66.93c-.33.61-.66,1.22-1,1.83l-.45,2,.06,2A5.73,5.73,0,0,0,365,177.2a3.8,3.8,0,0,0,1.27,1.57,3.89,3.89,0,0,0,1.66,1.2,3.66,3.66,0,0,0,.89.48,6.13,6.13,0,0,0,2.68,1.41A6.23,6.23,0,0,0,374.71,182.05Z"/><path class="f460bebe-8a2a-45bc-acfa-8094558b619d" d="M310.75,199.22c0-3.29-5.1-3.15-5.1.13S310.75,202.49,310.75,199.22Z"/><path class="f460bebe-8a2a-45bc-acfa-8094558b619d" d="M251.26,197.65a4.58,4.58,0,0,0,1.52-1.21,3.86,3.86,0,0,0,.72-2.68,3.39,3.39,0,0,0,.28-.71,3.7,3.7,0,0,0,.13-1.38,2.47,2.47,0,0,0-.11-1.86l-.38.11c0-.08-.06-.17-.1-.26V190l-8.05,2.28a4.7,4.7,0,0,0,.32,2.4,5.1,5.1,0,0,0,1.18,1.92,4.26,4.26,0,0,0,2.1,1.29A3.55,3.55,0,0,0,251.26,197.65Z"/><path class="f460bebe-8a2a-45bc-acfa-8094558b619d" d="M217.19,95.43a4.44,4.44,0,0,0,1.51-1.21,3.87,3.87,0,0,0,.73-2.68,3.75,3.75,0,0,0,.28-.71,3.7,3.7,0,0,0,.13-1.38,2.47,2.47,0,0,0-.11-1.86l-.38.11c0-.08-.07-.17-.1-.26l0,.29-8,2.28a4.6,4.6,0,0,0,.32,2.4,4.86,4.86,0,0,0,1.18,1.92,4.28,4.28,0,0,0,2.09,1.29A3.57,3.57,0,0,0,217.19,95.43Z"/><path class="f460bebe-8a2a-45bc-acfa-8094558b619d" d="M317.45,126.37c0-6-9.26-6.18-9.26-.21S317.45,132.34,317.45,126.37Z"/><path class="f460bebe-8a2a-45bc-acfa-8094558b619d" d="M335.4,101.38a2.16,2.16,0,0,0-.66-1.64,2.13,2.13,0,0,0-1.91-.68l-1.51.74a1.85,1.85,0,0,0-.85,1.36,1.69,1.69,0,0,0,.51,1.49,2,2,0,0,0,1.34.9l.45.1A2.31,2.31,0,0,0,335.4,101.38Z"/><path class="f460bebe-8a2a-45bc-acfa-8094558b619d" d="M320.93,176.5c0-5.31-8.28-6.18-8.28-.82S320.93,181.86,320.93,176.5Z"/><path class="f460bebe-8a2a-45bc-acfa-8094558b619d" d="M149.29,285.47c0-4.41-6.89-5-6.89-.58S149.29,289.94,149.29,285.47Z"/><path class="f460bebe-8a2a-45bc-acfa-8094558b619d" d="M158.54,195.66c0-4.42-6.88-5-6.88-.59S158.54,200.12,158.54,195.66Z"/><path class="f460bebe-8a2a-45bc-acfa-8094558b619d" d="M160.4,89.07a8.34,8.34,0,0,0,2.69-3.33,8.55,8.55,0,0,0,.67-4.41c-.69-3.39-2.33-5.62-4.91-6.66a9.34,9.34,0,0,0-3.72-.76,6,6,0,0,0-3.09.42,6.14,6.14,0,0,0-2.74,1.43l-1.43,1.54a6.22,6.22,0,0,0-1.24,3,4,4,0,0,0-.18,2.12,6.21,6.21,0,0,0,.69,3,8.77,8.77,0,0,0,4.58,4.19L152,90A8.34,8.34,0,0,0,160.4,89.07Z"/><path class="f460bebe-8a2a-45bc-acfa-8094558b619d" d="M128.94,147.54a9,9,0,0,0,1.64,0,8.66,8.66,0,0,0,7.44-4.95c.21-.72.42-1.44.62-2.16a8.28,8.28,0,0,0-.51-4.35l-1-1.88a9.24,9.24,0,0,0-1.33-1.39c.07,0,0,0-.17-.15l0,0h0a8.12,8.12,0,0,0-1.54-1l-.34-.18a4.37,4.37,0,0,0-2.32-.67,8.81,8.81,0,0,0-4.66.59,6.27,6.27,0,0,0-2.61,1.86,6.39,6.39,0,0,0-1.86,2.65,6.46,6.46,0,0,0-.56,3.32,6.28,6.28,0,0,0,.6,3.23,8.52,8.52,0,0,0,4.51,4.46l.85.23a7.13,7.13,0,0,0,1.1.29Z"/><path class="f460bebe-8a2a-45bc-acfa-8094558b619d" d="M51,235.94a8.2,8.2,0,0,0,1.64,0,6.18,6.18,0,0,0,2.89-.54,6.33,6.33,0,0,0,2.65-1.8A6.35,6.35,0,0,0,60,231c.21-.72.41-1.44.62-2.16a8.32,8.32,0,0,0-.51-4.36l-1-1.87a8.86,8.86,0,0,0-1.33-1.4c.06,0,0,0-.17-.15l0,0h0a8.61,8.61,0,0,0-1.54-.95l-.35-.19a4.28,4.28,0,0,0-2.31-.67,8.81,8.81,0,0,0-4.66.6,6.43,6.43,0,0,0-2.62,1.85,7.56,7.56,0,0,0-2.41,6,6.26,6.26,0,0,0,.6,3.23,8.48,8.48,0,0,0,4.51,4.46l.85.23a6.15,6.15,0,0,0,1.1.29Z"/><path class="f460bebe-8a2a-45bc-acfa-8094558b619d" d="M212.42,52.35A5.19,5.19,0,0,0,216,50.5l.7-1.13a5.16,5.16,0,0,0,.45-2.57,4,4,0,0,0-.6-1.91,4,4,0,0,0-1.26-1.62A5.13,5.13,0,0,0,208,44l-.7,1.12a5.18,5.18,0,0,0-.45,2.57,3.85,3.85,0,0,0,.61,1.91,3.75,3.75,0,0,0,1.25,1.62A5.2,5.2,0,0,0,212.42,52.35Z"/><path class="f460bebe-8a2a-45bc-acfa-8094558b619d" d="M171.28,47.67a5.2,5.2,0,0,0,3.53-1.86c.24-.37.47-.75.71-1.13a5,5,0,0,0,.44-2.56,3.81,3.81,0,0,0-.6-1.92,3.86,3.86,0,0,0-1.25-1.62,5.13,5.13,0,0,0-7.23.71l-.7,1.13a5.12,5.12,0,0,0-.45,2.56,3.81,3.81,0,0,0,.6,1.92,4,4,0,0,0,1.26,1.62A5.25,5.25,0,0,0,171.28,47.67Z"/><path class="f460bebe-8a2a-45bc-acfa-8094558b619d" d="M100.26,41.86a3.52,3.52,0,0,0,1.06-1.51,4.71,4.71,0,0,0,.35-2.43c.07.69.1.83.11.41a5,5,0,0,0-1.21-3.62,4.91,4.91,0,0,0-6.93-.44l-.84,1A4.88,4.88,0,0,0,92,37.59a7.8,7.8,0,0,0,.44,2.7c.21.37.42.75.64,1.12a4.63,4.63,0,0,0,3.76,1.85A4.58,4.58,0,0,0,100.26,41.86Z"/><path class="f460bebe-8a2a-45bc-acfa-8094558b619d" d="M26.25,92.18c0-4.18-6.48-4.07-6.48.1S26.25,96.36,26.25,92.18Z"/><path class="f460bebe-8a2a-45bc-acfa-8094558b619d" d="M66.67,109.78c0-4.24-6.57-3.9-6.57.33S66.67,114,66.67,109.78Z"/><path class="f460bebe-8a2a-45bc-acfa-8094558b619d" d="M220.75,223a5.28,5.28,0,0,0,4.58-3.67,11.67,11.67,0,0,0,.36-1.32,6.57,6.57,0,0,0-.06-2.46,7.47,7.47,0,0,0-3.78-4.94,7.94,7.94,0,0,0-7,.46,7,7,0,0,0-2.92,7.71c.54,2.42,2.56,4.89,5.1,5.31A4.08,4.08,0,0,0,220.75,223Z"/><path class="f460bebe-8a2a-45bc-acfa-8094558b619d" d="M392.77,252.55a6.32,6.32,0,0,0,4.17-2.09c.29-.45.59-.89.89-1.34a6.18,6.18,0,0,0,.62-3.22,4.55,4.55,0,0,0-.69-2.28,4.64,4.64,0,0,0-1.4-1.89,4.51,4.51,0,0,0-2.12-1.15,4.61,4.61,0,0,0-2.44-.36,6.23,6.23,0,0,0-4.16,2.09c-.3.44-.6.88-.89,1.33a6.19,6.19,0,0,0-.63,3.22,6.92,6.92,0,0,0,2.09,4.17,4.66,4.66,0,0,0,2.12,1.16A4.83,4.83,0,0,0,392.77,252.55Z"/><path class="f460bebe-8a2a-45bc-acfa-8094558b619d" d="M344.94,261.63c0-5.24-8.2-6.31-8.2-1S344.94,266.94,344.94,261.63Z"/><path class="f460bebe-8a2a-45bc-acfa-8094558b619d" d="M384.08,73.92a7.5,7.5,0,0,0,.1-10.61,8.4,8.4,0,0,0-5.28-2.25,7.59,7.59,0,0,0-5.33,2.15,7.5,7.5,0,0,0-.1,10.61A5.6,5.6,0,0,0,376,75.43a5.49,5.49,0,0,0,2.79.64A7.51,7.51,0,0,0,384.08,73.92Z"/><path class="f460bebe-8a2a-45bc-acfa-8094558b619d" d="M127.63,249.88c0-4.2-6.51-4-6.51.16S127.63,254.07,127.63,249.88Z"/><path class="f460bebe-8a2a-45bc-acfa-8094558b619d" d="M12.54,46.36a3.53,3.53,0,0,0,2.22-1.48,3.39,3.39,0,0,0,.53-2.58,3.39,3.39,0,0,0-.13-1.24,3.31,3.31,0,0,0-1.55-2A2.92,2.92,0,0,0,11,38.88l-.71.4a3,3,0,0,0-1,1.24c.56-1.17.58-1.43.06-.77a2.68,2.68,0,0,0-.75,1.17A8,8,0,0,0,8.36,42a4.11,4.11,0,0,0,.07,1.6,3.7,3.7,0,0,0,1.49,2.22A3.56,3.56,0,0,0,12.54,46.36Z"/><path class="f460bebe-8a2a-45bc-acfa-8094558b619d" d="M51.74,39.85A2.48,2.48,0,0,0,51,38.79,3.42,3.42,0,0,0,49.55,38h0a3,3,0,0,0-4,3.82Q53.51,43.16,51.74,39.85Z"/><path class="f460bebe-8a2a-45bc-acfa-8094558b619d" d="M11.72,159.74A8.08,8.08,0,0,0,17,156.86L18.16,155a8,8,0,0,0,.64-4.15,6,6,0,0,0-1-2.89,6.08,6.08,0,0,0-1.91-2.42,6.09,6.09,0,0,0-2.87-1.43,6,6,0,0,0-3.11-.34,8.08,8.08,0,0,0-5.31,2.88L3.5,148.51a8,8,0,0,0-.64,4.15,6.11,6.11,0,0,0,1,2.89A6.08,6.08,0,0,0,5.74,158a6,6,0,0,0,2.87,1.43A6,6,0,0,0,11.72,159.74Z"/><path class="f460bebe-8a2a-45bc-acfa-8094558b619d" d="M45.82,162.47a2.28,2.28,0,0,0,.91-1.46,2.24,2.24,0,0,0-.4-1.72c-.13-.15-.26-.29-.4-.43a2.28,2.28,0,0,0-1.06-.48l-2,.41a2.06,2.06,0,0,0,.23,3.77c.32.11.65.22,1,.31A2.24,2.24,0,0,0,45.82,162.47Z"/><path class="f460bebe-8a2a-45bc-acfa-8094558b619d" d="M104.16,217.43l1.14-.23.62-.31a2,2,0,0,0,.69-.73,2.55,2.55,0,0,0,.43-1.59,2.65,2.65,0,0,0-2.09-2.38l-.89-.15a2.72,2.72,0,1,0,.1,5.39Z"/><path class="f460bebe-8a2a-45bc-acfa-8094558b619d" d="M95.49,181.55a2.29,2.29,0,0,0,1.21-.76A4.23,4.23,0,0,0,97.88,178a4,4,0,0,0-1.12-2.75,4.08,4.08,0,0,0-4.46-.79l-.3.13-.13.09-.12.08a5.19,5.19,0,0,0-.46.36l-.09.07h0a.81.81,0,0,0-.14.12,4.67,4.67,0,0,0-1.24,3.18,4,4,0,0,0,2.84,4A2.47,2.47,0,0,0,95.49,181.55Z"/><path class="f460bebe-8a2a-45bc-acfa-8094558b619d" d="M68.11,274.32a4.09,4.09,0,0,0,1.49-2.82,4.47,4.47,0,0,0-.95-3.05A4.21,4.21,0,0,0,65.83,267a4.25,4.25,0,0,0-3,.94,4.1,4.1,0,0,0-1.48,2.82,4.46,4.46,0,0,0,.94,3,4.21,4.21,0,0,0,2.82,1.49A4.25,4.25,0,0,0,68.11,274.32Z"/><path class="f460bebe-8a2a-45bc-acfa-8094558b619d" d="M301.5,258.73a7.75,7.75,0,0,0,5.14-2.84c.35-.59.7-1.18,1.06-1.77a7.69,7.69,0,0,0,.56-3.88,8.46,8.46,0,0,0-2.84-5.13,8.5,8.5,0,0,0-5.64-1.63,7.72,7.72,0,0,0-5.14,2.85l-1.05,1.76A7.6,7.6,0,0,0,293,252a5.8,5.8,0,0,0,.94,2.78,5.88,5.88,0,0,0,1.9,2.36,5.81,5.81,0,0,0,2.73,1.32A5.74,5.74,0,0,0,301.5,258.73Z"/><path class="f460bebe-8a2a-45bc-acfa-8094558b619d" d="M215,99.85A7.67,7.67,0,0,0,220.13,97c.35-.59.7-1.18,1.06-1.76a7.7,7.7,0,0,0,.56-3.88,5.7,5.7,0,0,0-.94-2.78,5.88,5.88,0,0,0-1.9-2.36,5.73,5.73,0,0,0-2.72-1.32,5.79,5.79,0,0,0-2.92-.3,7.75,7.75,0,0,0-5.14,2.84l-1.06,1.77a7.65,7.65,0,0,0-.56,3.87,8.52,8.52,0,0,0,2.84,5.14,5.84,5.84,0,0,0,2.72,1.33A5.68,5.68,0,0,0,215,99.85Z"/><path class="f460bebe-8a2a-45bc-acfa-8094558b619d" d="M174.94,42.66a3.92,3.92,0,0,0-1.24-2.48l.05.09a2.58,2.58,0,0,0-.32-.34,4,4,0,0,0-5.69.34,4.46,4.46,0,0,0-1,3L174,45.37A3.66,3.66,0,0,0,174.94,42.66Z"/><path class="fbc255cf-9fd1-4517-82b9-79a41c3b65df" d="M209.91,7.65a1.22,1.22,0,1,1,0-2.43,1.22,1.22,0,0,1,0,2.43Z"/><path class="fbc255cf-9fd1-4517-82b9-79a41c3b65df" d="M179.86,208.2a1.22,1.22,0,0,1,0-2.43,1.22,1.22,0,1,1,0,2.43Z"/><path class="fbc255cf-9fd1-4517-82b9-79a41c3b65df" d="M310.75,165.85a1.22,1.22,0,1,1,1.21-1.21A1.21,1.21,0,0,1,310.75,165.85Z"/><circle class="eda53af6-fa98-4526-96ef-6e9aa0545eef" cx="197.69" cy="36.59" r="3.45"/><path class="eda53af6-fa98-4526-96ef-6e9aa0545eef" d="M41.76,140.89a3.46,3.46,0,1,1,3.46-3.46A3.46,3.46,0,0,1,41.76,140.89Z"/><path class="fbc255cf-9fd1-4517-82b9-79a41c3b65df" d="M279.32,90.62a6.08,6.08,0,1,1,6.07-6.08A6.08,6.08,0,0,1,279.32,90.62Z"/><path class="eda53af6-fa98-4526-96ef-6e9aa0545eef" d="M96.89,77.32a3.46,3.46,0,1,1,3.45-3.46A3.45,3.45,0,0,1,96.89,77.32Z"/><path class="fbc255cf-9fd1-4517-82b9-79a41c3b65df" d="M209.91,209.61a1.21,1.21,0,1,1,1.21-1.21A1.22,1.22,0,0,1,209.91,209.61Z"/><path class="fbc255cf-9fd1-4517-82b9-79a41c3b65df" d="M378.66,201.63a1.22,1.22,0,1,1,0-2.43,1.22,1.22,0,0,1,0,2.43Z"/><path class="fbc255cf-9fd1-4517-82b9-79a41c3b65df" d="M355.42,160.22a1.22,1.22,0,1,1,1.21-1.21A1.21,1.21,0,0,1,355.42,160.22Z"/><circle class="fbc255cf-9fd1-4517-82b9-79a41c3b65df" cx="197.69" cy="238.56" r="3.45"/><path class="fbc255cf-9fd1-4517-82b9-79a41c3b65df" d="M328.15,230.09a3.46,3.46,0,1,1,3.45-3.46A3.46,3.46,0,0,1,328.15,230.09Z"/><path class="eda53af6-fa98-4526-96ef-6e9aa0545eef" d="M279.32,292.58a6.08,6.08,0,1,1,6.07-6.07A6.08,6.08,0,0,1,279.32,292.58Z"/><path class="eda53af6-fa98-4526-96ef-6e9aa0545eef" d="M96.89,279.28a3.46,3.46,0,1,1,3.45-3.45A3.45,3.45,0,0,1,96.89,279.28Z"/><circle class="eda53af6-fa98-4526-96ef-6e9aa0545eef" cx="13.78" cy="235.1" r="3.45"/><circle class="eda53af6-fa98-4526-96ef-6e9aa0545eef" cx="127.88" cy="233.14" r="9.66"/><circle class="a864bd78-39f2-4d75-b6ad-6083590178cd" cx="255.84" cy="140.57" r="6.07"/><path class="e62c3a02-b1be-42be-87e1-2b01b243fe12" d="M191.85,12.4a4.75,4.75,0,0,1,4.75-4.75,4.75,4.75,0,0,1-4.75-4.76,4.76,4.76,0,0,1-4.76,4.76A4.76,4.76,0,0,1,191.85,12.4Z"/><path class="e62c3a02-b1be-42be-87e1-2b01b243fe12" d="M392.79,96.35a4.76,4.76,0,0,1,4.76-4.76,4.76,4.76,0,0,1-4.76-4.75A4.75,4.75,0,0,1,388,91.59,4.75,4.75,0,0,1,392.79,96.35Z"/><path class="a864bd78-39f2-4d75-b6ad-6083590178cd" d="M166.74,167.68a4.76,4.76,0,0,1,4.76-4.76,4.76,4.76,0,0,1-4.76-4.75,4.75,4.75,0,0,1-4.75,4.75A4.76,4.76,0,0,1,166.74,167.68Z"/><circle class="a864bd78-39f2-4d75-b6ad-6083590178cd" cx="52.06" cy="82.29" r="4.75"/><path class="a864bd78-39f2-4d75-b6ad-6083590178cd" d="M291.41,23.93a4.76,4.76,0,0,1,4.76-4.75,4.76,4.76,0,0,1-4.76-4.76,4.76,4.76,0,0,1-4.75,4.76A4.75,4.75,0,0,1,291.41,23.93Z"/><g class="abd43651-5286-43e4-ada4-bec6a06b885c"><circle class="bb379cbe-f992-4a41-97a9-9d3f0dffd624" cx="83.32" cy="8.79" r="6.29" transform="translate(18.19 61.49) rotate(-45)"/></g></g><g id="e834150f-71fe-4572-9256-0e410b694495" data-name="Venus"><circle class="e2c85049-c1c1-4089-8279-a79b33f64f17" cx="200" cy="150" r="109.95" transform="translate(-47.49 185.36) rotate(-45)"/><circle class="be10e642-d586-4d7f-8d26-01505b83e7a8" cx="200" cy="150" r="109.95" transform="translate(-47.49 185.36) rotate(-45)"/><g class="e558c92a-1948-49ab-a4b4-174595de2baa"><g class="b930a7fa-abbe-4371-969d-3116b2dc0c29"><path class="a94cf527-feb5-4930-aabf-01c4ffb2ff29" d="M110.52,53.44c8.14-2.93,18.84-1.5,23.43,5.38,3.21,4.8,2.73,11.07.45,16.3s-6.12,9.71-9.62,14.33c-7.34,9.72-13.4,20.76-14,32.59s5.2,24.53,16.6,29.9c3.85,1.82,8.4,2.74,12.51,1.52,3.24-1,5.88-3.11,8.35-5.27,15-13.09,28.09-28.31,45-39.24s39.48-17,58.35-9.3a16,16,0,0,1,5.61,3.45c3,3.13,3.31,7.72,2.95,11.89A54.33,54.33,0,0,1,241.37,151c-10.06,8.69-28.27,20.31-16.5,34.74,4.73,5.8,13.75,8.24,21.11,5.71,4.11-1.42,7.61-4.16,11.8-5.34,19-5.32,24.78,18,23.05,30.41-2.4,17.18-12.77,32.95-26.4,44.54-16.1,13.67-36.61,22.16-57.54,27.93-10.92,3-25.36,4.15-31.13-4.94-4.08-6.45-1.27-14.61,1.61-21.6q5-12.06,10-24.12c3.94-9.53,7.48-21.4.15-29-5.75-6-15.83-6.28-24.16-4.18s-16.08,6.11-24.61,7.36c-31.61,4.65-65.85-23.33-51.88-53.88,1.56-3.39,4-6.6,4.16-10.28.4-11.65-19-20.91-21.62-33.53C56.68,101.53,65.06,88.41,75,78.43,84.51,68.82,97.18,58.26,110.52,53.44Z"/><path class="a94cf527-feb5-4930-aabf-01c4ffb2ff29" d="M263,2.36c-29.2.16-54.18,14.75-82.45,16.08-5.52.26-10.72,2.57-15.77,4.83-3.07,1.38-6.19,2.79-8.69,5s-4.31,5.52-4,8.87c.32,3.17,2.43,5.83,3.91,8.66,7.29,14-3.76,29.26-7.08,42.75a14.64,14.64,0,0,0-.43,6.79c1.34,5.83,8.61,8.63,14.42,7.19s10.35-5.87,14.41-10.27C189.57,79,200.54,64.08,215.62,54.06s36-14,51-3.87c13.67,9.26,18.44,27.55,17.21,44s-7.28,32.14-10.72,48.29c-1.12,5.29-1.81,11.32,1.44,15.63,5.95,7.89,18.25,3.44,28.11,4.17,11.74.87,21.92,11.56,22.22,23.33.15,5.53-1.55,11.43.92,16.38,3.7,7.43,14.6,7.86,21.94,4,13.62-7.17,19.47-23.24,24.17-37.89l10.58-33c2.44-7.59,4.91-15.55,3.62-23.42-1.31-8-6.35-14.89-11.62-21.08a196.07,196.07,0,0,0-48.73-41.19c-11-6.56-23.22-12.64-29.4-23.83-2.71-4.92-4.1-10.62-7.72-14.9C282.64,3.59,272.27,2.31,263,2.36Z"/><path class="a94cf527-feb5-4930-aabf-01c4ffb2ff29" d="M281.1,50.31c-4.38-7.34-11.73-13.2-20.91-11.47-8.92,1.68-10.87,8.79-14.57,16.58-6.29,13.24-18,9.66-26.93,18.54-2.05,2-3.14,5.34-1.76,7.88,1.64,3,5.91,3.56,9.16,2.42S232,80.78,235,79.18c5.8-3,12.62-3.2,19.16-3.14s13.29.26,19.38-2.15,11.36-8.21,10.9-14.74C284.26,56,282.74,53,281.1,50.31Z"/><path class="a94cf527-feb5-4930-aabf-01c4ffb2ff29" d="M148.75,227.21c3.9-.05,8.23,1,10.35,4.3,1.5,2.32,1.58,5.29,1.22,8a32.7,32.7,0,0,1-1.95,7.48,46.25,46.25,0,0,1-4.87,9.13c-4.1,6.07-9.49,11.48-16.23,14.35C108.47,282.75,116.25,227.56,148.75,227.21Z"/></g></g><g class="bbd3be1a-d248-4c6d-88bb-25d20f03f1b0"><path class="ba235753-c7fb-40bc-bb94-ac7112e468e9" d="M214.57,247.2A109.86,109.86,0,0,1,135.13,61.36,109.86,109.86,0,1,0,279.44,225.89,109.31,109.31,0,0,1,214.57,247.2Z"/></g><g class="ee121dfb-edf8-4c37-8a7a-1f9ee1fa8a9f"><path class="abdfd28e-aa5c-4a0c-afaa-f8edc0d853db" d="M200,40.05a109.25,109.25,0,0,0-46,10.17A109.8,109.8,0,0,0,282.4,222.62,109.82,109.82,0,0,0,200,40.05Z"/></g></g></g></svg>